<?xml version="1.0" standalone="no"?>
<!DOCTYPE svg PUBLIC "-//W3C//DTD SVG 20010904//EN"
 "http://www.w3.org/TR/2001/REC-SVG-20010904/DTD/svg10.dtd">
<svg version="1.0" xmlns="http://www.w3.org/2000/svg"
 width="5238.000000pt" height="985.000000pt" viewBox="0 0 5238.000000 985.000000"
 preserveAspectRatio="xMidYMid meet">

<g transform="translate(0.000000,985.000000) scale(0.100000,-0.100000)"
fill="#000000" stroke="none">
<path d="M17216 8185 c-98 -25 -185 -74 -258 -146 -217 -213 -209 -565 19
-768 107 -95 234 -141 393 -141 184 0 313 53 426 173 75 79 117 158 139 263
27 128 16 227 -39 339 -58 118 -174 218 -309 265 -82 29 -283 37 -371 15z"/>
<path d="M23400 8184 c-143 -37 -294 -154 -354 -271 -56 -111 -72 -266 -41
-388 47 -180 204 -330 400 -380 69 -18 221 -20 297 -4 191 40 354 193 412 388
23 77 21 232 -3 310 -51 165 -206 302 -392 346 -80 19 -246 18 -319 -1z"/>
<path d="M31860 5330 l0 -2660 445 0 445 0 0 2660 0 2660 -445 0 -445 0 0
-2660z"/>
<path d="M44720 5330 l0 -2660 180 0 179 0 3 1128 3 1127 23 108 c59 277 168
495 338 677 142 150 325 265 524 328 376 120 834 100 1133 -49 366 -182 558
-508 597 -1009 6 -81 10 -571 10 -1222 l0 -1088 175 0 175 0 0 1194 c0 1009
-2 1213 -15 1310 -102 777 -612 1230 -1420 1263 -669 26 -1213 -235 -1503
-722 l-42 -70 0 1173 0 1172 -180 0 -180 0 0 -2660z"/>
<path d="M11370 5180 l0 -2511 1273 4 c1146 3 1284 5 1392 21 382 55 687 148
980 297 394 200 711 490 941 861 255 411 378 946 344 1494 -23 377 -94 659
-240 961 -223 461 -572 815 -1040 1053 -381 193 -759 291 -1235 320 -97 5
-651 10 -1292 10 l-1123 0 0 -2510z m2346 1710 c503 -40 886 -202 1185 -500
131 -131 222 -259 298 -421 224 -477 223 -1121 -3 -1593 -242 -505 -732 -826
-1374 -901 -101 -12 -271 -15 -819 -15 l-693 0 0 1720 0 1720 639 0 c351 0
696 -5 767 -10z"/>
<path d="M33787 7684 c-4 -4 -7 -1134 -7 -2511 l0 -2503 185 0 185 0 0 820 0
820 794 0 c814 0 954 5 1171 41 798 131 1324 588 1455 1266 51 261 42 608 -21
855 -93 368 -317 676 -644 886 -177 114 -438 217 -676 266 -278 58 -288 59
-1404 63 -567 2 -1034 1 -1038 -3z m2163 -348 c408 -58 688 -175 904 -377 186
-173 301 -390 352 -664 15 -77 19 -146 19 -300 0 -154 -4 -223 -19 -300 -83
-444 -339 -748 -771 -918 -112 -44 -262 -82 -430 -110 -123 -20 -174 -21 -992
-24 l-863 -4 0 1361 0 1362 843 -5 c713 -3 860 -7 957 -21z"/>
<path d="M9375 7490 c-41 -7 -178 -36 -465 -96 -183 -39 -265 -56 -550 -114
-107 -21 -260 -53 -340 -70 -80 -16 -221 -46 -315 -65 -93 -19 -213 -44 -265
-55 -98 -20 -601 -125 -679 -141 -24 -5 -46 -11 -48 -13 -4 -3 641 -386 650
-386 3 0 34 13 69 29 35 16 115 52 178 81 63 29 143 65 178 81 35 16 65 29 66
29 2 0 50 22 107 49 57 27 142 65 189 86 47 21 127 57 178 81 52 24 95 44 97
44 2 0 39 16 82 36 90 42 194 90 238 109 17 7 57 26 90 40 33 15 78 35 100 45
22 10 74 33 115 53 119 55 167 77 295 133 114 51 121 61 30 44z"/>
<path d="M9685 7403 c-33 -19 -112 -62 -175 -95 -63 -34 -119 -64 -125 -68 -5
-4 -55 -31 -110 -60 -55 -29 -246 -131 -425 -228 -179 -96 -417 -224 -530
-284 -113 -61 -209 -114 -215 -118 -5 -4 -48 -27 -95 -50 -47 -24 -114 -60
-150 -80 -36 -20 -108 -59 -160 -87 -200 -106 -278 -147 -360 -193 -47 -26
-120 -66 -162 -89 -152 -80 -229 -122 -305 -162 -43 -23 -96 -52 -118 -64 -22
-12 -78 -43 -125 -67 -47 -25 -121 -64 -165 -88 -44 -24 -109 -58 -145 -78
-36 -19 -83 -44 -105 -57 -22 -12 -80 -44 -130 -70 -174 -93 -351 -187 -400
-215 -83 -46 -185 -100 -285 -153 -52 -27 -115 -61 -140 -75 -133 -74 -219
-120 -370 -200 -52 -27 -111 -58 -130 -69 -19 -11 -75 -41 -125 -68 -49 -26
-117 -62 -150 -80 -33 -18 -96 -52 -140 -75 -44 -24 -119 -65 -166 -91 -47
-26 -121 -65 -165 -88 -200 -103 -239 -128 -242 -157 -2 -15 3 -81 12 -148 17
-138 35 -284 71 -606 39 -346 54 -475 70 -600 15 -118 72 -619 82 -723 3 -32
9 -60 13 -62 6 -4 305 338 480 548 25 30 264 310 324 378 17 20 49 58 71 84
22 27 45 53 50 59 69 76 126 149 123 160 -3 12 -178 198 -512 543 -49 51 -85
93 -79 93 6 0 102 -49 214 -108 112 -60 256 -136 319 -169 63 -33 147 -77 185
-98 39 -20 111 -59 160 -85 50 -26 126 -67 170 -90 44 -23 125 -66 180 -95 55
-29 129 -68 165 -87 36 -19 124 -65 195 -103 72 -37 135 -71 140 -75 6 -4 96
-51 200 -105 105 -54 195 -101 200 -106 6 -4 78 -42 160 -84 83 -43 154 -82
159 -86 6 -5 13 -9 17 -9 7 0 126 197 264 435 133 229 334 574 683 1166 67
114 131 224 143 245 11 22 49 86 83 144 35 58 98 166 141 240 43 74 97 167
120 205 23 39 61 104 85 145 24 41 52 89 62 105 17 27 182 309 347 595 37 63
138 237 226 385 87 149 169 290 183 315 14 25 47 80 74 123 26 43 48 80 48 82
0 2 33 59 73 127 41 68 102 173 137 233 35 61 76 130 91 155 82 134 81 140
-16 83z"/>
<path d="M25160 6905 l0 -435 -315 0 -315 0 0 -360 0 -360 315 0 315 0 0 -980
c0 -646 4 -1014 11 -1082 62 -578 395 -937 970 -1044 114 -21 419 -30 547 -15
125 15 277 51 379 91 74 28 202 98 250 137 l23 18 -121 310 c-67 171 -125 313
-128 317 -4 4 -27 -6 -51 -22 -64 -43 -173 -86 -262 -104 -97 -20 -273 -20
-356 -1 -135 32 -242 116 -300 235 -63 127 -62 108 -62 1173 l0 967 510 0 510
0 0 360 0 360 -510 0 -510 0 0 435 0 435 -450 0 -450 0 0 -435z"/>
<path d="M42360 6820 l0 -410 -340 0 -340 0 0 -155 0 -155 339 0 340 0 4
-1307 c4 -1415 3 -1363 58 -1532 138 -420 491 -637 1009 -618 256 9 467 73
636 192 93 67 93 55 12 191 -39 65 -72 121 -74 122 -1 2 -31 -16 -66 -41 -115
-81 -230 -127 -369 -148 -101 -14 -302 -7 -384 15 -269 72 -421 271 -455 596
-6 57 -10 576 -10 1313 l0 1217 595 0 595 0 0 155 0 155 -595 0 -595 0 0 410
0 410 -180 0 -180 0 0 -410z"/>
<path d="M6225 6815 c-27 -7 -111 -27 -185 -45 -136 -32 -412 -98 -815 -195
-121 -29 -281 -67 -355 -84 -192 -46 -266 -63 -520 -125 -124 -30 -251 -60
-283 -67 -32 -7 -60 -15 -62 -19 -2 -3 49 -37 113 -75 244 -144 448 -264 623
-365 99 -58 196 -115 215 -127 19 -12 58 -36 87 -52 28 -16 66 -37 84 -47 31
-18 31 -18 120 18 183 76 499 209 518 218 11 5 108 46 215 90 107 44 204 85
215 90 11 6 58 25 105 44 47 19 171 70 275 114 105 44 250 105 322 135 181 76
171 67 110 103 -28 17 -108 64 -177 104 -69 40 -172 101 -230 135 -305 181
-286 173 -375 150z"/>
<path d="M20090 6528 c-300 -28 -626 -135 -870 -287 -190 -118 -373 -290 -503
-471 -82 -115 -195 -340 -236 -471 -120 -381 -118 -843 5 -1218 94 -287 282
-573 504 -767 169 -148 429 -295 650 -368 283 -94 631 -128 944 -91 379 44
702 185 945 411 l84 78 -6 -214 c-5 -239 -25 -370 -77 -513 -87 -236 -220
-387 -435 -492 -208 -102 -427 -140 -760 -132 -228 6 -343 21 -534 68 -294 73
-571 196 -760 338 -30 23 -57 41 -60 41 -3 0 -95 -150 -203 -332 -229 -385
-222 -331 -58 -440 345 -231 838 -382 1398 -429 179 -15 636 -6 782 15 601 85
1018 317 1281 709 188 282 289 614 319 1059 6 84 10 830 10 1811 l0 1667 -427
-2 -428 -3 -3 -247 -2 -247 -93 92 c-339 336 -865 492 -1467 435z m660 -777
c222 -45 401 -136 554 -282 191 -181 292 -395 316 -670 34 -393 -114 -745
-406 -965 -193 -145 -410 -218 -684 -231 -598 -28 -1063 283 -1202 805 -26 99
-36 353 -18 473 31 212 118 393 264 546 183 193 416 306 712 343 106 13 355 3
464 -19z"/>
<path d="M29170 6534 c-408 -29 -802 -131 -1103 -286 -103 -53 -269 -158 -281
-177 -5 -8 282 -561 333 -639 6 -10 32 3 107 54 285 194 667 304 1056 304 610
0 931 -258 955 -767 l6 -122 -679 -4 c-592 -3 -693 -6 -789 -21 -237 -39 -464
-112 -599 -193 -200 -120 -362 -305 -436 -496 -60 -154 -74 -235 -73 -422 0
-151 3 -181 27 -270 127 -482 559 -803 1165 -866 145 -15 474 -7 596 15 212
39 387 102 532 192 74 46 236 195 281 259 l21 30 1 -227 0 -228 425 0 426 0
-4 1248 c-3 1130 -5 1257 -20 1352 -45 267 -120 470 -240 650 -65 98 -231 262
-332 329 -207 136 -461 226 -755 266 -111 15 -504 27 -620 19z m1070 -2451 l0
-228 -30 -64 c-129 -271 -397 -453 -746 -506 -312 -47 -608 18 -772 170 -143
133 -186 340 -111 540 59 158 259 273 529 304 41 5 312 9 603 10 l527 1 0
-227z"/>
<path d="M16920 4585 l0 -1915 450 0 450 0 0 1915 0 1915 -450 0 -450 0 0
-1915z"/>
<path d="M23110 4585 l0 -1915 450 0 450 0 -2 1913 -3 1912 -447 3 -448 2 0
-1915z"/>
<path d="M39573 6429 c-356 -32 -737 -157 -1018 -334 -118 -75 -245 -177 -240
-193 3 -7 42 -66 87 -131 81 -117 83 -119 104 -103 197 155 330 234 520 310
246 97 480 142 749 142 571 0 919 -215 1058 -655 40 -124 51 -224 51 -470 l1
-240 -805 -5 c-778 -6 -809 -7 -925 -28 -298 -56 -484 -137 -636 -280 -102
-96 -162 -176 -215 -287 -74 -157 -89 -230 -88 -450 0 -163 4 -201 22 -270
106 -386 439 -665 907 -759 241 -48 572 -48 815 0 374 74 692 275 879 554 l61
91 0 -325 0 -326 175 0 175 0 0 1218 c0 756 -4 1262 -11 1337 -19 222 -64 396
-145 558 -59 119 -93 166 -192 269 -212 220 -497 342 -882 377 -130 12 -311
12 -447 0z m1317 -2308 l0 -348 -30 -66 c-186 -411 -518 -670 -960 -749 -225
-40 -558 -25 -749 34 -282 87 -469 250 -545 478 -38 113 -48 305 -22 426 50
229 212 410 442 493 75 27 243 65 334 74 19 2 371 5 783 5 l747 2 0 -349z"/>
<path d="M50055 6434 c-421 -34 -732 -158 -951 -379 -119 -120 -190 -240 -236
-402 -30 -105 -33 -366 -5 -486 29 -122 96 -246 184 -338 237 -248 426 -320
1273 -484 232 -45 483 -109 577 -146 166 -66 313 -183 366 -292 99 -205 62
-484 -88 -655 -131 -147 -337 -238 -634 -278 -138 -18 -456 -21 -586 -5 -372
47 -746 187 -1018 384 -37 27 -70 47 -73 44 -3 -3 -41 -67 -84 -141 l-78 -136
41 -36 c254 -217 744 -393 1217 -435 163 -14 490 -6 640 16 578 85 949 358
1052 773 18 70 22 115 21 232 -1 265 -58 423 -210 575 -209 209 -423 291
-1098 425 -307 61 -608 135 -720 179 -172 66 -333 192 -388 304 -56 115 -73
283 -42 416 57 242 273 430 578 505 172 43 500 60 697 36 304 -37 596 -136
814 -277 38 -24 72 -41 77 -36 9 9 159 270 159 276 0 11 -137 92 -240 141
-192 92 -441 165 -692 201 -101 15 -454 27 -553 19z"/>
<path d="M3380 6135 c-185 -46 -208 -51 -475 -115 -308 -74 -329 -79 -420
-100 -49 -12 -162 -38 -250 -60 -88 -21 -227 -55 -310 -74 -82 -20 -252 -61
-376 -91 -125 -30 -234 -55 -242 -55 -37 0 -22 -19 36 -43 93 -39 335 -145
395 -172 28 -14 80 -37 115 -51 68 -29 131 -56 192 -84 22 -10 87 -39 145 -63
58 -25 179 -77 270 -117 91 -40 216 -94 279 -121 63 -28 129 -56 145 -64 17
-8 98 -43 180 -79 l149 -65 246 98 c719 288 1029 413 1056 425 17 7 91 37 165
66 74 29 139 56 144 61 4 4 -7 15 -25 25 -36 18 -389 223 -524 304 -168 101
-286 170 -289 170 -2 0 -73 41 -157 91 -85 51 -174 103 -199 117 -25 13 -49
28 -54 33 -12 11 11 15 -196 -36z"/>
</g>
</svg>
