<?xml version="1.0" encoding="utf-8"?>
<!-- Generator: Adobe Illustrator 25.2.1, SVG Export Plug-In . SVG Version: 6.00 Build 0)  -->
<svg version="1.1" id="图层_1" xmlns="http://www.w3.org/2000/svg" xmlns:xlink="http://www.w3.org/1999/xlink" x="0px" y="0px"
	 viewBox="0 0 1366 768" style="enable-background:new 0 0 1366 768;" xml:space="preserve">
<style type="text/css">
	.st0{fill:#0554F2;}
</style>
<g>
	<g>
		<g>
			<path class="st0" d="M425.21,351.79L411,422.86h-13.5L371,378.39l-8.94,44.47h-16.25l14.21-71.07h13.61l26.5,44.57l8.83-44.57
				H425.21z"/>
			<path class="st0" d="M485.23,399.81H443.4c0.51,7.41,5.08,11.17,14.11,11.17c5.58,0,10.86-1.83,14.62-5.08l6.6,10.46
				c-6.29,5.08-14.52,7.31-22.84,7.31c-17.06,0-27.92-9.65-27.92-24.47c0-18.28,13.2-31.78,32.19-31.78
				c15.94,0,25.99,9.44,25.99,24.06C486.14,394.43,485.74,397.27,485.23,399.81z M444.51,390.57h27.11
				c0-7.21-4.87-11.27-12.18-11.27C451.82,379.3,446.65,383.77,444.51,390.57z"/>
			<path class="st0" d="M526.87,395.55l15.23,27.31h-16.75l-8.94-16.75l-15.74,16.75H482.6l27.31-28.02l-14.52-26.6h16.45
				l8.63,16.04l15.23-16.04h17.46L526.87,395.55z"/>
			<path class="st0" d="M574.63,403.57c-0.2,0.81-0.2,1.52-0.2,2.23c0,3.35,1.83,5.28,5.79,5.28c2.13,0,4.37-0.71,6.4-1.93
				l2.34,11.27c-3.96,2.44-8.83,3.25-13.6,3.25c-10.15,0-17.06-5.69-17.06-15.23c0-1.52,0.21-3.15,0.51-4.77l4.36-22.03h-8.43
				l2.44-12.19h8.43l2.64-13.3h15.84l-2.64,13.3h13.61l-2.44,12.19H579L574.63,403.57z"/>
			<path class="st0" d="M595.01,416.16l6.7-12.69c6.5,4.77,15.03,7.41,23.45,7.41c9.04,0,14.72-3.15,14.72-8.33
				c0-11.37-35.23-5.28-35.23-27.92c0-14.62,12.79-24.06,32.49-24.06c9.54,0,18.38,2.13,24.57,6.09l-6.19,12.59
				c-5.38-3.66-12.29-5.48-19.29-5.48c-9.54,0-15.13,3.66-15.13,8.73c-0.1,11.68,35.23,5.59,35.23,27.41
				c0,14.72-13,24.17-32.8,24.17C611.97,424.08,601.01,420.63,595.01,416.16z"/>
			<path class="st0" d="M761.62,385.9c0,2.13-0.21,4.26-0.71,6.7l-5.99,30.26h-15.84l5.79-29.14c0.3-1.53,0.41-2.85,0.41-4.17
				c0-5.48-2.94-8.43-8.63-8.43c-7.31,0-12.39,4.26-14.32,13.71l-5.58,28.02h-15.84l5.79-29.14c0.31-1.53,0.41-2.85,0.41-4.06
				c0-5.58-2.95-8.53-8.63-8.53c-7.41,0-12.39,4.26-14.42,13.91l-5.48,27.82h-15.84l10.87-54.62h15.03l-1.22,5.69
				c4.77-4.37,10.76-6.5,17.16-6.5c7.51,0,13.71,3.05,16.75,8.93c5.28-5.79,12.39-8.93,20.81-8.93
				C753.81,367.43,761.62,373.82,761.62,385.9z"/>
			<path class="st0" d="M835.11,368.24l-10.86,54.62h-15.03l1.01-5.38c-4.36,3.96-10.05,6.19-16.75,6.19
				c-12.69,0-23.56-8.94-23.56-24.47c0-18.38,13.3-31.78,30.16-31.78c7.92,0,14.21,2.54,17.77,8.22l1.42-7.41H835.11z M814.4,392.6
				c0-7.41-4.57-12.08-12.49-12.08c-9.34,0-16.04,7.31-16.04,17.97c0,7.41,4.57,12.08,12.49,12.08
				C807.7,410.58,814.4,403.26,814.4,392.6z"/>
			<path class="st0" d="M883.47,367.43l-2.84,14.62c-1.42-0.1-2.34-0.2-3.66-0.2c-9.34,0-15.33,4.36-17.36,14.62l-5.28,26.4h-15.84
				l10.87-54.62h15.03l-1.32,6.5C867.93,369.45,874.63,367.43,883.47,367.43z"/>
			<path class="st0" d="M905.66,403.57c-0.2,0.81-0.2,1.52-0.2,2.23c0,3.35,1.83,5.28,5.79,5.28c2.13,0,4.37-0.71,6.4-1.93
				l2.34,11.27c-3.96,2.44-8.83,3.25-13.6,3.25c-10.15,0-17.06-5.69-17.06-15.23c0-1.52,0.21-3.15,0.51-4.77l4.36-22.03h-8.43
				l2.44-12.19h8.43l2.64-13.3h15.84l-2.64,13.3h13.61l-2.44,12.19h-13.61L905.66,403.57z"/>
			<path class="st0" d="M926.05,416.16l6.7-12.69c6.5,4.77,15.03,7.41,23.45,7.41c9.04,0,14.72-3.15,14.72-8.33
				c0-11.37-35.23-5.28-35.23-27.92c0-14.62,12.79-24.06,32.49-24.06c9.54,0,18.38,2.13,24.57,6.09l-6.19,12.59
				c-5.38-3.66-12.29-5.48-19.29-5.48c-9.54,0-15.13,3.66-15.13,8.73c-0.1,11.68,35.23,5.59,35.23,27.41
				c0,14.72-13,24.17-32.8,24.17C943,424.08,932.04,420.63,926.05,416.16z"/>
			<path class="st0" d="M1056.31,386.11c0,2.03-0.21,4.16-0.71,6.5l-6.09,30.26h-15.84l5.89-29.24c0.3-1.32,0.41-2.64,0.41-3.76
				c0-5.58-3.05-8.73-9.34-8.73c-8.02,0-13.61,4.47-15.53,14.01l-5.48,27.72h-15.84l15.03-75.34h15.84l-5.08,25.69
				c4.77-3.96,10.66-5.79,16.85-5.79C1048.29,367.43,1056.31,373.92,1056.31,386.11z"/>
			<path class="st0" d="M1073.67,368.24h15.74l-10.86,54.62h-15.74L1073.67,368.24z M1074.99,352.4c0-5.28,4.16-9.44,10.46-9.44
				c5.58,0,9.34,3.45,9.34,7.92c0,5.79-4.26,9.75-10.56,9.75C1078.65,360.62,1074.99,356.97,1074.99,352.4z"/>
			<path class="st0" d="M1158,391.89c0,18.38-13.3,31.78-30.26,31.78c-7.92,0-14.11-2.54-17.67-8.12l-5.38,27.01h-15.84l14.83-74.32
				h15.03l-1.11,5.38c4.36-3.96,10.05-6.19,16.75-6.19C1147.03,367.43,1158,376.36,1158,391.89z M1141.96,392.6
				c0-7.41-4.57-12.08-12.49-12.08c-9.24,0-15.94,7.31-15.94,17.97c0,7.41,4.47,12.08,12.39,12.08
				C1135.26,410.58,1141.96,403.26,1141.96,392.6z"/>
		</g>
	</g>
	<path class="st0" d="M315.05,315.62c0,0.14-0.08,0.25-0.19,0.3c-0.02,0.01-0.04,0.01-0.05,0.02c-0.01,0-0.01,0-0.02,0
		c-2.14,0.73-4,2.05-5.42,3.75c-0.02,0.04-0.05,0.06-0.06,0.08l-0.64,0.86c0,0.02-0.02,0.04-0.03,0.06l-43.23,58.74l-0.06,0.07
		l-0.23,0.31c-0.29,0.47-0.46,1.01-0.46,1.61c0,1.67,1.35,3.02,3.02,3.02h38.41c3.13,0,5.67,2.54,5.67,5.67
		c0,1.15-0.34,2.21-0.92,3.1c-0.12,0.18-0.25,0.35-0.4,0.53l-40.58,54.93l-0.17,0.23c-0.32,0.48-0.52,1.06-0.52,1.69
		c0,0.98,0.47,1.86,1.2,2.41c0,0,0.01,0.01,0.01,0.01c0,0,0.01,0,0.01,0.01c0.08,0.06,0.13,0.16,0.13,0.26
		c0,0.17-0.13,0.31-0.3,0.33h-61.54c-0.17-0.01-0.3-0.16-0.3-0.33c0-0.13,0.08-0.25,0.19-0.3c0.03-0.01,0.05-0.02,0.07-0.03
		c2.11-0.72,3.96-2.02,5.36-3.69c0.02-0.02,0.04-0.05,0.06-0.06l0.69-0.94c0.01-0.01,0.02-0.02,0.04-0.05l43.28-58.83l0.17-0.24
		c0.32-0.48,0.52-1.06,0.52-1.68c0-1.67-1.35-3.02-3.02-3.02h-38.39c-3.13,0-5.67-2.54-5.67-5.67c0-1.16,0.35-2.25,0.94-3.14
		c0.11-0.17,0.23-0.33,0.35-0.48l40.58-54.94l0.17-0.23c0.32-0.48,0.52-1.06,0.52-1.69c0-0.99-0.47-1.86-1.2-2.41
		c0,0-0.01-0.01-0.01-0.01c-0.08-0.06-0.14-0.16-0.14-0.27c0-0.18,0.14-0.32,0.32-0.33h61.52
		C314.91,315.29,315.05,315.44,315.05,315.62z"/>
</g>
</svg>
