<svg fill="none" xmlns="http://www.w3.org/2000/svg" viewBox="0 0 173 45"><g clip-path="url(#a)" fill="#223AD3"><path d="M60.257 20.299c1.791-1.533 3.901-2.3 6.33-2.3 2.765 0 5.146 1.014 7.142 3.042a10.11 10.11 0 0 1 2.219 3.348c.5 1.268.751 2.625.74 3.994 0 2.893-.986 5.341-2.958 7.345-1.995 2.027-4.376 3.041-7.141 3.041-2.789 0-5.17-1.014-7.142-3.041-1.972-2.028-2.958-4.476-2.957-7.345V11.025a1.9 1.9 0 0 1 .532-1.381 1.793 1.793 0 0 1 1.343-.547c.502-.012.987.186 1.344.547.367.36.569.862.555 1.383l-.007 9.272Zm6.33 14.596a5.95 5.95 0 0 0 2.47-.52 6.413 6.413 0 0 0 2.012-1.409 6.72 6.72 0 0 0 1.352-2.068 6.617 6.617 0 0 0 0-5.027 6.718 6.718 0 0 0-1.352-2.069 6.414 6.414 0 0 0-2.011-1.409 6.178 6.178 0 0 0-4.959 0 6.426 6.426 0 0 0-3.345 3.468 6.664 6.664 0 0 0 0 5.044 6.426 6.426 0 0 0 3.345 3.468 5.99 5.99 0 0 0 2.487.522h.001ZM83.934 14.307c-.003 1.09-.755 2.025-1.794 2.233-1.04.209-2.077-.367-2.479-1.375-.4-1.008-.053-2.167.83-2.768a2.173 2.173 0 0 1 2.801.297 2.23 2.23 0 0 1 .642 1.613Zm-4.093 22.516V19.946c-.008-.52.192-1.02.555-1.382A1.847 1.847 0 0 1 81.721 18c.498 0 .974.203 1.326.565.36.365.565.862.567 1.383v16.876a1.975 1.975 0 0 1-.567 1.383 1.847 1.847 0 0 1-1.326.565c-.497 0-.974-.203-1.325-.565a1.906 1.906 0 0 1-.555-1.383ZM90.444 19.928v.37a10.256 10.256 0 0 1 2.94-1.711 9.6 9.6 0 0 1 3.39-.593c.569.002 1.138.04 1.704.11.572.067 1.134.2 1.676.4.473.168.907.436 1.272.788.339.34.523.811.505 1.298.002.261-.05.52-.152.76-.099.23-.237.44-.407.62a1.765 1.765 0 0 1-1.334.561 1.968 1.968 0 0 1-.793-.204 6.48 6.48 0 0 0-2.47-.464 6.05 6.05 0 0 0-2.47.51 6.405 6.405 0 0 0-3.364 3.46 6.517 6.517 0 0 0-.495 2.54v8.457c-.002 1.065-.84 1.927-1.875 1.929a1.802 1.802 0 0 1-1.344-.57 1.88 1.88 0 0 1-.555-1.364V19.928a1.88 1.88 0 0 1 .555-1.364c.352-.373.838-.58 1.344-.57 1.035.001 1.873.864 1.875 1.928l-.002.006ZM118.684 32.888c.502-.016.988.182 1.343.547a1.9 1.9 0 0 1 .532 1.381 1.986 1.986 0 0 1-.595 1.427c-1.864 1.685-4.056 2.528-6.575 2.528-2.79 0-5.17-1.014-7.142-3.041-1.971-2.028-2.957-4.476-2.957-7.346 0-2.868.986-5.316 2.957-7.345 1.972-2.028 4.352-3.041 7.142-3.04 2.536 0 4.73.841 6.582 2.523.419.363.657.9.649 1.465a1.936 1.936 0 0 1-.532 1.39c-.353.37-.84.573-1.344.557a1.875 1.875 0 0 1-1.226-.445 6.905 6.905 0 0 0-1.93-1.206 5.813 5.813 0 0 0-2.199-.408 6.043 6.043 0 0 0-2.47.51c-.753.328-1.438.8-2.02 1.39a6.468 6.468 0 0 0-1.36 2.069 6.748 6.748 0 0 0 0 5.081c.318.774.78 1.476 1.36 2.068a6.464 6.464 0 0 0 2.02 1.391c.78.343 1.621.517 2.47.511a5.931 5.931 0 0 0 2.199-.398A6.473 6.473 0 0 0 117.5 33.3a1.983 1.983 0 0 1 1.184-.412ZM126.529 36.824a1.96 1.96 0 0 1-.55 1.381c-.356.366-.84.57-1.343.566-.5.007-.98-.2-1.326-.571a1.906 1.906 0 0 1-.555-1.382V11.044c-.009-.52.192-1.02.555-1.382a1.846 1.846 0 0 1 1.325-.566c.498 0 .974.204 1.326.566.361.364.566.861.568 1.382v8.903c1.599-1.274 3.48-1.91 5.644-1.91a8.737 8.737 0 0 1 3.598.76 9.766 9.766 0 0 1 5.058 5.147 9.483 9.483 0 0 1 .757 3.774v9.107a1.972 1.972 0 0 1-.569 1.382 1.846 1.846 0 0 1-1.325.566c-.497 0-.974-.204-1.325-.566a1.907 1.907 0 0 1-.555-1.382v-9.108a5.66 5.66 0 0 0-.451-2.244 5.841 5.841 0 0 0-3.011-3.097 5.246 5.246 0 0 0-2.181-.464 5.314 5.314 0 0 0-2.19.455 5.819 5.819 0 0 0-3.007 3.103 5.765 5.765 0 0 0-.441 2.244l-.002 9.11ZM160.107 36.842v-.37a10.257 10.257 0 0 1-2.939 1.711 9.597 9.597 0 0 1-3.389.594c-2.79 0-5.171-1.014-7.142-3.042-1.971-2.027-2.957-4.476-2.957-7.345 0-2.868.986-5.316 2.957-7.345 1.971-2.028 4.352-3.042 7.142-3.041 2.764 0 5.145 1.014 7.141 3.041 1.97 2.025 2.954 4.472 2.954 7.341v8.458c-.001 1.064-.84 1.927-1.875 1.928a1.802 1.802 0 0 1-1.344-.57 1.884 1.884 0 0 1-.548-1.36Zm-6.33-14.967a5.995 5.995 0 0 0-2.488.52 6.427 6.427 0 0 0-3.345 3.468 6.654 6.654 0 0 0 0 5.044 6.428 6.428 0 0 0 3.345 3.467 6.178 6.178 0 0 0 4.958 0 6.397 6.397 0 0 0 2.011-1.409 6.707 6.707 0 0 0 1.353-2.068 6.62 6.62 0 0 0 0-5.027 6.711 6.711 0 0 0-1.353-2.069 6.4 6.4 0 0 0-2.011-1.41 5.955 5.955 0 0 0-2.47-.516ZM165.842 36.842V11.044a1.945 1.945 0 0 1 .533-1.383 1.878 1.878 0 0 1 2.687 0c.351.368.543.867.532 1.383v23.85h.866c.499-.006.98.2 1.326.571.362.362.563.863.554 1.383-.001 1.064-.84 1.927-1.875 1.928h-2.759c-.497.008-.974-.2-1.316-.57a1.904 1.904 0 0 1-.548-1.364ZM13.4 40.214C16.46 43.393 20.197 45 24.518 45c4.285 0 8.022-1.607 11.105-4.762 3.048-3.132 4.59-6.996 4.59-11.498a16.974 16.974 0 0 0-1.145-6.24l-.011-.024a15.989 15.989 0 0 0-3.445-5.258c-3.083-3.167-6.82-4.774-11.106-4.774h-5.313v8.945h5.313c.946 0 1.857.201 2.71.58.828.366 1.576.897 2.218 1.57a7.7 7.7 0 0 1 1.506 2.34 7.565 7.565 0 0 1 0 5.673 7.56 7.56 0 0 1-1.506 2.34 7.074 7.074 0 0 1-2.23 1.583 6.39 6.39 0 0 1-2.64.567h-.116c-.911 0-1.81-.189-2.663-.578-1.682-.757-2.99-2.14-3.702-3.9-.736-1.808-.56-4.037-.56-5.708V12.442l.011-7.951a4.424 4.424 0 0 0-1.284-3.203A4.245 4.245 0 0 0 13.213 0h-.128a4.236 4.236 0 0 0-3.036 1.3c-.806.839-1.25 2.009-1.227 3.19v24.226c0 4.467 1.542 8.331 4.578 11.498ZM7.152 21.351H4.348C1.946 21.351 0 19.358 0 16.9c0-2.459 1.946-4.452 4.348-4.452h2.804v8.904Z"/></g><defs><clipPath id="a"><path fill="#fff" d="M0 0h172.34v45H0z"/></clipPath></defs></svg>