<svg width="415" height="361" viewBox="0 0 415 361" fill="none" xmlns="http://www.w3.org/2000/svg">
<path d="M10.0732 280.467V3.63333H66.9233C81.3212 3.63333 92.6491 6.56947 100.907 12.4417C109.27 18.3135 115.198 26.7555 118.692 37.7654C122.291 48.6716 124.091 61.7784 124.091 77.0888L124.249 200.09C124.249 218.547 122.291 233.699 118.374 245.547C114.563 257.397 108.371 266.205 99.7949 271.972C91.2192 277.636 79.8391 280.467 65.6529 280.467H10.0732ZM46.9147 251.525H62.4769C68.0879 251.525 72.693 250.371 76.2925 248.064C79.9978 245.653 82.7504 241.354 84.5501 235.167C86.4557 228.98 87.4085 220.067 87.4085 208.428L87.2496 77.0888C87.2496 61.0445 85.2912 49.5625 81.3741 42.6417C77.5629 35.7208 71.1051 32.2609 62.0006 32.2609H46.9147V251.525ZM149.817 280.467L191.105 3.63333H237.633L282.255 280.467H247.637L240.174 229.032H191.899L185.07 280.467H149.817ZM195.71 199.619H235.886L215.242 56.3263H214.766L195.71 199.619ZM358.32 283.612C346.887 283.612 337.465 281.673 330.054 277.793C322.749 273.913 317.033 268.355 312.904 261.12C308.775 253.885 305.916 245.233 304.329 235.167C302.741 225.1 301.946 213.827 301.946 201.349V175.396H337.359V203.394C337.359 220.905 338.682 233.436 341.329 240.986C344.082 248.536 349.746 252.311 358.32 252.311C364.143 252.311 368.484 250.948 371.343 248.222C374.2 245.495 376.053 241.144 376.9 235.167C377.747 229.189 378.17 221.273 378.17 211.415C378.17 199.881 375.947 189.762 371.501 181.058C367.16 172.25 360.756 163.494 352.287 154.79L332.913 135.601C327.513 129.939 322.326 123.909 317.35 117.512C312.481 111.011 308.511 103.723 305.44 95.6487C302.37 87.5742 300.835 78.3995 300.835 68.1224C300.835 53.9667 302.476 41.8031 305.758 31.6307C309.039 21.4594 314.703 13.7 322.749 8.35208C330.901 2.89927 342.282 0.172913 356.892 0.172913C368.219 0.172913 377.376 2.06041 384.364 5.83541C391.351 9.50522 396.697 14.8013 400.402 21.7221C404.108 28.643 406.648 36.9268 408.025 46.5737C409.401 56.2216 410.089 67.0221 410.089 78.9763V95.6487H375.471V76.6167C375.471 66.55 374.994 58.2138 374.042 51.607C373.194 44.8966 371.448 39.8633 368.802 36.507C366.154 33.1518 362.185 31.4737 356.892 31.4737C351.916 31.4737 347.893 32.6273 344.823 34.9346C341.752 37.2409 339.529 40.8065 338.153 45.6304C336.777 50.3487 336.089 56.4833 336.089 64.0333C336.089 70.7448 336.882 76.3549 338.471 80.8638C340.164 85.3726 342.705 89.6721 346.093 93.7612C349.586 97.7466 353.821 102.36 358.797 107.603L379.441 129.467C389.922 140.478 398.285 152.378 404.531 165.172C410.883 177.965 414.059 192.54 414.059 208.899C414.059 224.733 412.418 238.208 409.136 249.322C405.855 260.438 400.191 268.932 392.145 274.804C384.099 280.676 372.824 283.612 358.32 283.612Z" fill="black"/>
<path d="M0.637482 337.058H411.362" stroke="#DE4827" stroke-width="47"/>
</svg>
