<svg xmlns="http://www.w3.org/2000/svg" viewBox="0 0 1125 375" style="enable-background:new 0 0 1125 375" xml:space="preserve"><path d="M192.6 88.8v179.5h-43.1l-5.1-19.2c-7 9.4-15.4 15.7-25.2 18.8-9.8 3.1-20 4.7-30.6 4.7-12.8 0-24.6-2.5-35.3-7.4-10.7-4.9-20.1-11.7-28.1-20.3-8-8.6-14.2-18.6-18.6-30C2.2 203.5 0 191.2 0 178.2c0-13 2.2-25.3 6.7-36.7 4.5-11.5 10.7-21.5 18.6-30.1 8-8.6 17.3-15.3 28.1-20.3 10.7-4.9 22.5-7.4 35.3-7.4 11.6 0 22.2 1.8 31.8 5.4 9.6 3.6 17.6 9.4 23.9 17.4l5.1-17.7h43.1zm-50 90.1c0-9.4-1.3-17.3-3.8-23.7-2.5-6.4-5.9-11.6-10.1-15.6-4.2-4-9.2-6.9-14.8-8.7-5.7-1.8-11.8-2.7-18.3-2.7s-12.6 1.3-18.3 4c-5.7 2.7-10.7 6.2-15 10.7-4.3 4.5-7.7 9.8-10.2 15.9-2.4 6.1-3.6 12.6-3.6 19.4 0 7 1.2 13.5 3.6 19.5 2.4 6 5.8 11.3 10.2 15.7 4.3 4.5 9.4 8 15 10.7 5.7 2.7 11.8 4 18.3 4 13 0 24.1-4 33.1-12.1s13.7-20.5 13.9-37.1zM405.8 4.1v264.2h-42.7l-7.2-15.6c-5.5 5.8-13.2 10.6-23 14.3-9.8 3.7-20 5.6-30.6 5.6-12.8 0-24.6-2.5-35.5-7.4-10.9-4.9-20.2-11.7-28.1-20.3-7.9-8.6-14-18.6-18.5-30-4.5-11.5-6.7-23.7-6.7-36.7 0-13 2.2-25.3 6.7-36.7 4.5-11.5 10.6-21.5 18.5-30.1 7.8-8.6 17.2-15.3 28.1-20.3 10.9-4.9 22.7-7.4 35.5-7.4 11.3 0 21.4 1.3 30.2 4s16.6 7.1 23.3 13.4v-97h50zm-50 174.8c0-9.4-1.2-17.3-3.6-23.7-2.4-6.4-5.8-11.6-10.1-15.6s-9.4-6.9-15-8.7c-5.7-1.8-11.8-2.7-18.3-2.7s-12.6 1.3-18.3 4-10.6 6.2-14.8 10.7c-4.2 4.5-7.5 9.8-10 15.9-2.4 6.1-3.6 12.6-3.6 19.4 0 7 1.2 13.5 3.6 19.5 2.4 6 5.7 11.3 10 15.7 4.2 4.5 9.2 8 14.8 10.7 5.7 2.7 11.8 4 18.3 4 13 0 24.1-4 33.1-12.1s13.7-20.5 13.9-37.1zm270.4-90.1v179.5h-43.1l-5.1-19.2c-7 9.4-15.4 15.7-25.2 18.8-9.8 3.1-20 4.7-30.6 4.7-12.8 0-24.6-2.5-35.3-7.4-10.7-4.9-20.1-11.7-28.1-20.3-8-8.6-14.2-18.6-18.6-30-4.5-11.5-6.7-23.7-6.7-36.7 0-13 2.2-25.3 6.7-36.7 4.5-11.5 10.7-21.5 18.6-30.1 8-8.6 17.3-15.3 28.1-20.3 10.7-4.9 22.5-7.4 35.3-7.4 11.6 0 22.2 1.8 31.8 5.4 9.6 3.6 17.6 9.4 23.9 17.4l5.1-17.7h43.2zm-49.9 90.1c0-9.4-1.3-17.3-3.8-23.7-2.5-6.4-5.9-11.6-10.1-15.6-4.2-4-9.2-6.9-14.8-8.7-5.7-1.8-11.8-2.7-18.3-2.7s-12.6 1.3-18.3 4c-5.7 2.7-10.7 6.2-15 10.7-4.3 4.5-7.7 9.8-10.2 15.9-2.4 6.1-3.6 12.6-3.6 19.4 0 7 1.2 13.5 3.6 19.5 2.4 6 5.8 11.3 10.2 15.7 4.3 4.5 9.4 8 15 10.7 5.7 2.7 11.8 4 18.3 4 13 0 24.1-4 33.1-12.1s13.6-20.5 13.9-37.1zm136.4 89.4h-50V88.8h50v179.5zm-25-204.2c-7.7 0-14.2-2.7-19.5-8-5.3-5.3-8-11.8-8-19.5 0-7.7 2.7-14.3 8-19.7 5.3-5.4 11.8-8.1 19.5-8.1 7.7 0 14.2 2.7 19.5 8.1 5.3 5.4 8 12 8 19.7 0 7.7-2.7 14.2-8 19.5-5.2 5.4-11.7 8-19.5 8zm155.7 24.7c6.8 0 14.2 1 22.4 2.9s15.9 5.5 23.2 10.9c7.2 5.3 13.3 12.7 18.3 22.1 4.9 9.4 7.4 21.6 7.4 36.5v107.2h-50.3V163c0-5.6-.9-10.3-2.7-14.1-1.8-3.9-4.2-6.9-7.2-9.2-3-2.3-6.5-4-10.3-5.1-3.9-1.1-7.7-1.6-11.6-1.6-3.1 0-6.6.5-10.3 1.6-3.7 1.1-7.2 2.8-10.5 5.3-3.3 2.4-6 5.5-8.2 9.4-2.2 3.9-3.2 8.4-3.2 13.8v105.3h-50V88.8h42.7l7.2 13.7c5.8-4.1 12.3-7.4 19.5-9.9 7.3-2.6 15.1-3.8 23.6-3.8zm191.1-5.1c13.5 0 25.8 2.7 36.9 8.2 11.1 5.4 20.6 12.5 28.6 21.4 8 8.8 14.1 18.9 18.5 30.4 4.3 11.5 6.5 23.2 6.5 35.3 0 7.2-1 15-2.9 23.2H994c4.8 8.2 11.7 15.1 20.6 20.8 8.9 5.7 18.6 8.5 28.9 8.5 10.4 0 19.5-.8 27.3-2.5 7.8-1.7 15.3-3.9 22.3-6.5l16.6 30.8c-8.9 6.3-19.1 11.1-30.6 14.5-11.5 3.4-23.7 5.1-36.7 5.1-14.2 0-27.5-2.5-39.8-7.4-12.3-4.9-23-11.6-32.2-20.1-9.2-8.4-16.4-18.5-21.7-30-5.3-11.6-8-23.9-8-36.9 0-12.8 2.4-24.9 7.2-36.4 4.8-11.5 11.5-21.5 20.1-30 8.6-8.6 18.5-15.4 29.9-20.4 11.4-5.5 23.6-8 36.6-8zm40.9 79.6c-2.9-10.4-8.1-18.8-15.6-25.3s-15.9-9.8-25.3-9.8c-9.7 0-18.4 3.3-26.3 9.8-7.8 6.5-13.2 14.9-16.1 25.3h83.3zM699 300.2c8.1 0 15.2 1.9 21.4 5.8l-1.5 6.7-1.2.3c-2.6-2.1-5.5-3.7-8.8-4.8-3.3-1.1-6.8-1.7-10.4-1.7-8.4 0-14.8 2.6-19.2 7.9-4.4 5.2-6.6 13-6.6 23.2s2.1 18 6.4 23.3c4.3 5.3 10.5 8 18.6 8 3.7 0 7.3-.6 11-1.9 3.7-1.3 7.1-3.1 10.2-5.3l1.1.4-.6 6.7c-6.8 4.3-14.1 6.4-21.8 6.4-10.5 0-18.6-3.2-24.2-9.6-5.6-6.4-8.5-15.6-8.5-27.5 0-12.1 3-21.4 8.9-27.9 5.9-6.7 14.4-10 25.2-10zm96.3 74.1h-7.6l-1.6-6.7-5.5-14.7h-35l-5.8 14.4-1.9 7h-7.4l29.5-73.5h8.3l27 73.5zm-16.9-27.5-14.1-38.1h-.7l-15.4 38.1 14.8.1 15.4-.1zm58.8-46.1c7.5 0 13.3 1.8 17.4 5.5 4.1 3.7 6.1 8.9 6.1 15.7 0 8.1-2.5 14.4-7.4 18.9-4.9 4.5-11.9 6.7-20.8 6.7h-9.8v3.9l.1 22.9h-7.3l.3-22.3-.3-51.2 21.7-.1zm-1 40.9c5.4-.8 9.6-2.8 12.5-6.1 2.9-3.3 4.4-7.6 4.4-13.1 0-5-1.4-8.9-4.3-11.6-2.9-2.7-7.1-4.1-12.8-4.3l-13.1.1-.3 34.6 13.6.4zm53.5 9.8.1 22.9h-7.3l.3-22.3-.3-51.2h7.4l-.2 50.6zm74.2-49.7-.6 5.9-13.2-.6h-9.2l-.3 44.4.3 22.9h-7.3l.1-22.3-.1-45h-9.1l-13.5.6-.6-.7.6-6.1h52.4l.5.9zm74.5 72.6h-7.6l-1.6-6.7-5.5-14.7h-35l-5.8 14.4-1.9 7h-7.4l29.5-73.5h8.3l27 73.5zm-16.9-27.5-14.1-38.1h-.7l-15.4 38.1 14.8.1 15.4-.1zm74.7 22-.8 5.5h-36.9l.1-22.3-.1-51.2h7.3l-.3 50.6.1 16.6h30l.6.8z" style="fill:#fff"/></svg>