<svg xmlns="http://www.w3.org/2000/svg" viewBox="0 0 1125 375" version="1.0"><path d="M288.915 101.9074v122.7031h-29.4376l-3.4687-13.1094c-4.7813 6.4297-10.5156 10.7149-17.2031 12.8594-6.6797 2.1445-13.6407 3.2188-20.8907 3.2188-8.7422 0-16.7812-1.6875-24.125-5.0625-7.3437-3.3829-13.7422-8.004-19.1875-13.8594-5.4375-5.8516-9.6836-12.6953-12.7343-20.5313-3.043-7.832-4.5625-16.2031-4.5625-25.1093 0-8.9063 1.5195-17.2735 4.5625-25.1094 3.0507-7.8438 7.2968-14.6914 12.7343-20.5469 5.4453-5.8516 11.8438-10.4687 19.1875-13.8437 7.3438-3.3829 15.3828-5.0782 24.125-5.0782 7.9141 0 15.172 1.2422 21.7657 3.7188 6.5937 2.4687 12.0351 6.4297 16.328 11.875l3.4688-12.125Zm-34.1407 61.5937c0-6.4258-.871-11.8203-2.6094-16.1875-1.7304-4.375-4.039-7.9218-6.9218-10.6406-2.8868-2.7266-6.2657-4.707-10.1407-5.9375-3.875-1.2383-8.039-1.8594-12.4843-1.8594-4.461 0-8.625.9063-12.5 2.7188s-7.297 4.246-10.2657 7.2969c-2.9687 3.0546-5.2812 6.6835-6.9375 10.8906-1.6484 4.1992-2.4687 8.6094-2.4687 13.2344 0 4.7812.8203 9.2343 2.4687 13.3593 1.6563 4.1172 3.9688 7.6992 6.9375 10.75 2.9688 3.0547 6.3907 5.4922 10.2657 7.3125 3.875 1.8125 8.039 2.7188 12.5 2.7188 8.9062 0 16.4453-2.7578 22.625-8.2813 6.1875-5.5312 9.3632-13.9883 9.5312-25.375ZM434.6296 44.0168v180.5937H405.442l-4.9531-10.6406c-3.793 3.961-9.0313 7.2187-15.7188 9.7812-6.6797 2.5508-13.6406 3.8282-20.8906 3.8282-8.7422 0-16.8242-1.6875-24.25-5.0625-7.418-3.3829-13.8086-8.004-19.1719-13.8594-5.3672-5.8516-9.5742-12.6953-12.625-20.5313-3.043-7.832-4.5625-16.2031-4.5625-25.1093 0-8.9063 1.5195-17.2735 4.5625-25.1094 3.0508-7.8438 7.2578-14.6914 12.625-20.5469 5.3633-5.8516 11.754-10.4687 19.1719-13.8437 7.4258-3.3829 15.5078-5.0782 24.25-5.0782 7.75 0 14.6328.9063 20.6562 2.7188 6.0196 1.8125 11.336 4.8672 15.9532 9.1562V44.0168ZM400.489 163.501c0-6.4258-.8282-11.8203-2.4844-16.1875-1.6484-4.375-3.9531-7.9218-6.9219-10.6406-2.9687-2.7266-6.3906-4.707-10.2656-5.9375-3.875-1.2383-8.039-1.8594-12.4844-1.8594-4.461 0-8.625.9063-12.5 2.7188s-7.2578 4.246-10.1406 7.2969c-2.8867 3.0546-5.1563 6.6835-6.8125 10.8906-1.6484 4.1992-2.4688 8.6094-2.4688 13.2344 0 4.7812.8204 9.2343 2.4688 13.3593 1.6562 4.1172 3.9258 7.6992 6.8125 10.75 2.8828 3.0547 6.2656 5.4922 10.1406 7.3125 3.875 1.8125 8.039 2.7188 12.5 2.7188 8.9063 0 16.4453-2.7578 22.625-8.2813 6.1875-5.5312 9.3633-13.9883 9.5313-25.375ZM585.2973 101.9074v122.7031h-29.4375l-3.4688-13.1094c-4.7812 6.4297-10.5156 10.7149-17.203 12.8594-6.6798 2.1445-13.6407 3.2188-20.8907 3.2188-8.7422 0-16.7813-1.6875-24.125-5.0625-7.3438-3.3829-13.7422-8.004-19.1875-13.8594-5.4375-5.8516-9.6836-12.6953-12.7344-20.5313-3.043-7.832-4.5625-16.2031-4.5625-25.1093 0-8.9063 1.5195-17.2735 4.5625-25.1094 3.0508-7.8438 7.2969-14.6914 12.7344-20.5469 5.4453-5.8516 11.8437-10.4687 19.1875-13.8437 7.3437-3.3829 15.3828-5.0782 24.125-5.0782 7.914 0 15.1719 1.2422 21.7656 3.7188 6.5938 2.4687 12.0352 6.4297 16.3281 11.875l3.4688-12.125Zm-34.1406 61.5937c0-6.4258-.8711-11.8203-2.6094-16.1875-1.7305-4.375-4.039-7.9218-6.9219-10.6406-2.8867-2.7266-6.2656-4.707-10.1406-5.9375-3.875-1.2383-8.039-1.8594-12.4844-1.8594-4.461 0-8.625.9063-12.5 2.7188s-7.2969 4.246-10.2656 7.2969c-2.9688 3.0546-5.2813 6.6835-6.9375 10.8906-1.6484 4.1992-2.4688 8.6094-2.4688 13.2344 0 4.7812.8204 9.2343 2.4688 13.3593 1.6562 4.1172 3.9687 7.6992 6.9375 10.75 2.9687 3.0547 6.3906 5.4922 10.2656 7.3125 3.875 1.8125 8.039 2.7188 12.5 2.7188 8.9063 0 16.4453-2.7578 22.625-8.2813 6.1875-5.5312 9.3633-13.9883 9.5313-25.375ZM644.4182 224.6105h-34.1406V101.9074h34.1406ZM627.3557 85.0793c-5.2813 0-9.7344-1.8125-13.3594-5.4375s-5.4375-8.0782-5.4375-13.3594c0-5.2813 1.8125-9.7735 5.4375-13.4844 3.625-3.707 8.0781-5.5625 13.3594-5.5625 5.2812 0 9.7344 1.8555 13.3594 5.5625 3.625 3.711 5.4375 8.2031 5.4375 13.4844 0 5.2812-1.8125 9.7344-5.4375 13.3594s-8.0782 5.4375-13.3594 5.4375ZM733.7285 101.9074c4.625 0 9.7383.664 15.3438 1.9844 5.6015 1.3125 10.8789 3.789 15.8281 7.4218 4.9453 3.625 9.1094 8.6563 12.4844 15.0938 3.3828 6.4297 5.0781 14.75 5.0781 24.9687v73.2344h-34.375v-71.9844c0-3.8008-.6211-7.0195-1.8594-9.6562-1.2422-2.6328-2.8906-4.7344-4.9531-6.2969-2.0625-1.5703-4.414-2.7266-7.0469-3.4687-2.6367-.75-5.2773-1.125-7.9219-1.125-2.1367 0-4.4843.375-7.0468 1.125-2.5547.7421-4.9453 1.9375-7.1719 3.5937-2.2305 1.6484-4.0898 3.789-5.5781 6.4219-1.4805 2.6367-2.2188 5.7734-2.2188 9.4062v71.9844h-34.1406V101.9074h29.2031l4.9375 9.3906c3.957-2.8008 8.4102-5.0664 13.3594-6.7969 4.9453-1.7265 10.3047-2.5937 16.0781-2.5937ZM864.3675 98.4386c9.2266 0 17.6328 1.8594 25.2188 5.5782 7.5937 3.7109 14.1094 8.5742 19.5469 14.5937 5.4453 6.0117 9.6562 12.9375 12.625 20.7813 2.9687 7.8359 4.453 15.871 4.453 24.1093 0 4.9492-.664 10.2305-1.9843 15.8438h-87.5781c3.3008 5.6054 8.0039 10.3437 14.1094 14.2187 6.1015 3.875 12.6953 5.8125 19.7812 5.8125 7.0938 0 13.3164-.5781 18.6719-1.7343 5.3633-1.1563 10.4414-2.6407 15.2344-4.4532l11.375 21.0313c-6.1055 4.293-13.0743 7.5937-20.9063 9.9062-7.836 2.3008-16.2031 3.4532-25.1094 3.4532-9.7304 0-18.8047-1.6875-27.2187-5.0625-8.4063-3.3829-15.7461-7.961-22.0156-13.7344-6.2735-5.7696-11.2188-12.6133-14.8438-20.5313-3.625-7.914-5.4375-16.3281-5.4375-25.2343 0-8.75 1.6445-17.0391 4.9375-24.875 3.3008-7.832 7.879-14.6758 13.7344-20.5313 5.8515-5.8516 12.6562-10.5078 20.4062-13.9687 7.7578-3.4688 16.0938-5.2032 25-5.2032Zm27.9532 54.4219c-1.9805-7.082-5.5274-12.8477-10.6407-17.2969-5.1172-4.457-10.8867-6.6875-17.3125-6.6875-6.6054 0-12.5898 2.2305-17.953 6.6875-5.3556 4.4492-9.0235 10.2149-11 17.2969ZM635.0751 246.4165c5.5508 0 10.422 1.3242 14.6094 3.9687l-1.0156 4.5625-.8125.2032c-1.7617-1.4258-3.7773-2.5235-6.0469-3.297-2.2617-.7812-4.6406-1.1718-7.1406-1.1718-5.75 0-10.1328 1.793-13.1406 5.375-3 3.586-4.5 8.8594-4.5 15.8281 0 6.9688 1.4687 12.2813 4.4062 15.9375 2.9375 3.6485 7.1797 5.4688 12.7344 5.4688 2.5 0 5.0156-.4375 7.5469-1.3125 2.539-.8828 4.8593-2.1016 6.953-3.6563l.7188.297-.4062 4.5624c-4.668 2.9063-9.6406 4.3594-14.9219 4.3594-7.168 0-12.6797-2.1953-16.5312-6.5938-3.8555-4.3945-5.7813-10.6484-5.7813-18.7656 0-8.25 2.0235-14.6016 6.0781-19.0625 4.0625-4.4687 9.8125-6.7031 17.25-6.7031ZM700.9016 297.0415h-5.172l-1.1093-4.5625-3.75-10.0469h-23.9531l-3.9531 9.8438-1.3125 4.7656h-5.0782l20.1875-50.2188h5.6875Zm-11.5625-18.7656-9.6407-26.0625h-.5l-10.5468 26.0625 10.1406.0937ZM729.5037 246.729c5.1328 0 9.086 1.25 11.8594 3.75 2.7812 2.5 4.1718 6.086 4.1718 10.75 0 5.5547-1.6953 9.8672-5.078 12.9375-3.375 3.0742-8.1095 4.6094-14.2032 4.6094h-6.6875v2.6406l.0937 15.625h-4.9687l.2031-15.2188-.2031-35Zm-.7031 28c3.7187-.539 6.5703-1.9258 8.5625-4.1563 2-2.2382 3-5.2187 3-8.9375 0-3.4453-.9844-6.082-2.9532-7.9062-1.9609-1.8203-4.8671-2.8008-8.7187-2.9375l-8.9219.0937-.2031 23.6407ZM765.4099 281.4165l.0937 15.625h-4.9687l.2031-15.2188-.2031-35h5.0781ZM816.1176 247.4321l-.4062 4.0625-9.0157-.4062h-6.2968l-.2032 30.328.2032 15.625H795.43l.0938-15.2187-.0938-30.7343h-6.1875l-9.2344.4062-.4062-.5.4062-4.1719h35.8125ZM867.0342 297.0415h-5.1718l-1.1094-4.5625-3.75-10.0469h-23.9531l-3.9532 9.8438-1.3125 4.7656h-5.078l20.1874-50.2188h5.6875Zm-11.5625-18.7656-9.6406-26.0625h-.5l-10.5469 26.0625 10.1407.0937ZM906.4958 293.2915l-.5157 3.75h-25.25l.0938-15.2188-.0938-35h4.9688l-.2031 34.5938.0937 11.3594h20.5Zm0 0" fill="#fff"/></svg>