<svg xmlns="http://www.w3.org/2000/svg" viewBox="0 0 112.5 112.5" version="1.0"><defs><clipPath id="a"><path d="M0 0h112.004v112.004H0Zm0 0"/></clipPath><clipPath id="b"><path d="M8.2656 49.6953h93v46.5h-93Zm0 0"/></clipPath></defs><g clip-path="url(#a)"><path fill="#fff" d="M0 0h112.5v120H0Zm0 0"/><path fill="#fff" d="M0 0h112.5v112.5H0Zm0 0"/><path d="M0 0h112.5v112.5H0Zm0 0"/></g><g clip-path="url(#b)"><path fill="#fff" d="M87.4023 49.6953c0 17.9883-14.6093 32.5977-32.5976 32.5977-17.9883 0-32.5977-14.6094-32.5977-32.5977H8.3047c0 25.6836 20.8164 46.5 46.5 46.5s46.4219-20.8164 46.4219-46.5Zm0 0"/></g><path d="M72.2773 16.3712v38.3593h-9.2031l-1.0938-4.0937c-1.4922 2.0117-3.2812 3.3515-5.375 4.0156-2.086.664-4.2617 1-6.5312 1-2.7305 0-5.2461-.5273-7.547-1.5781-2.2929-1.0625-4.289-2.504-5.9843-4.3281-1.6992-1.832-3.0273-3.9727-3.9844-6.422-.9609-2.4452-1.4375-5.0663-1.4375-7.8593 0-2.7812.4766-5.3945 1.4375-7.8437.957-2.4454 2.2852-4.586 3.9844-6.422 1.6953-1.832 3.6914-3.2734 5.9844-4.328 2.3008-1.0508 4.8164-1.5782 7.5469-1.5782 2.4765 0 4.75.3868 6.8125 1.1563 2.0625.7734 3.7578 2.0078 5.0937 3.7031l1.0938-3.7812Zm-10.6719 19.25c0-2.0079-.2734-3.6954-.8125-5.0625-.543-1.3633-1.2656-2.4688-2.1719-3.3125-.9062-.8516-1.9648-1.4727-3.1718-1.8594-1.211-.3945-2.5118-.5938-3.9063-.5938-1.3867 0-2.6875.2891-3.9062.8594-1.211.5625-2.2774 1.3242-3.2032 2.2813-.9296.9492-1.6523 2.0859-2.1718 3.4062-.5118 1.3125-.7657 2.6875-.7657 4.125 0 1.5.254 2.8984.7657 4.1875.5195 1.293 1.2422 2.418 2.1718 3.375.9258.9492 1.9922 1.711 3.2032 2.2813 1.2187.5625 2.5195.8437 3.9062.8437 2.7813 0 5.1406-.8633 7.0781-2.5937 1.9375-1.7266 2.9297-4.375 2.9844-7.9375Zm0 0" fill="#fff"/></svg>