<svg fill="none" xmlns="http://www.w3.org/2000/svg" viewBox="0 0 573 150">
  <path
    fill-rule="evenodd"
    clip-rule="evenodd"
    d="M62.921 111.708H40.733l12.459-35.115c-11.61-9.011-28.386-8.185-39.05 2.478L0 64.93c16.29-16.29 41.09-18.88 60.087-7.77L80.367 0h21.423l39.634 111.708h-22.189l-7.781-22.477c-12.923 5.82-27.829 5.823-40.753.005l-7.78 22.472Zm14.367-41.506v.001-.001Zm0 0L91.078 30.3l13.788 39.895a29.363 29.363 0 0 1-3.955 1.727 29.72 29.72 0 0 1-19.68 0 29.392 29.392 0 0 1-3.943-1.72Zm361.066 43.034c9.947 0 18.057-4.132 23.107-10.1v6.57a2 2 0 0 0 2 2h18.965V35.193h-18.965a1.998 1.998 0 0 0-2 2v5.498c-5.05-5.356-12.854-9.028-22.801-9.028-17.291 0-37.185 12.7-37.185 39.786 0 26.933 20.659 39.787 36.879 39.787Zm4.132-19.281c-11.63 0-20.505-8.876-20.505-20.66 0-11.782 8.875-20.504 20.505-20.504 11.324 0 19.587 9.18 19.587 20.505 0 11.324-8.263 20.659-19.587 20.659ZM348.99 113.24c9.947 0 18.057-4.131 23.107-10.099v6.569a1.999 1.999 0 0 0 2 2h18.964V.003h-20.964v42.694c-5.05-5.356-12.854-9.03-22.801-9.03-17.292 0-37.185 12.702-37.185 39.788 0 26.932 20.658 39.786 36.879 39.786Zm4.132-19.28c-11.63 0-20.506-8.876-20.506-20.66 0-11.782 8.876-20.505 20.506-20.505 11.324 0 19.587 9.182 19.587 20.506s-8.263 20.658-19.587 20.658Zm-157.47-61.824c-12.089 0-21.271 5.246-26.32 11.367v-6.341a2 2 0 0 0-2-2H150.51v76.547h21.576V71.464c0-13.62 6.427-21.576 17.598-21.576 10.865 0 15.915 7.039 15.915 20.352v41.47h21.576V69.016c0-28.616-15.455-36.88-31.523-36.88Zm67.156 116.812h-17.976l15.912-39.468L229.7 34.913h22.464l19.188 48.048 17.94-48.048h22.152l-43.988 110.88a5 5 0 0 1-4.648 3.156Zm260.571.2h-17.977l15.912-39.468-31.044-74.568h22.464l19.188 48.048 17.94-48.049h22.152l-43.988 110.88a4.997 4.997 0 0 1-4.647 3.157Z"
    fill="#fff"
  />
</svg>
