<svg fill="none" xmlns="http://www.w3.org/2000/svg" viewBox="0 0 572 149"><g clip-path="url(#a)" fill="#151826"><path d="M438.354 113.236c9.947 0 18.057-4.132 23.107-10.1v6.57a2 2 0 0 0 2 2h18.965V35.193h-18.965a2 2 0 0 0-2 2v5.498c-5.05-5.356-12.854-9.028-22.801-9.028-17.291 0-37.185 12.7-37.185 39.786 0 26.933 20.659 39.787 36.879 39.787Zm4.132-19.281c-11.63 0-20.505-8.876-20.505-20.659s8.875-20.505 20.505-20.505c11.324 0 19.587 9.181 19.587 20.505s-8.263 20.659-19.587 20.659ZM348.99 113.241c9.947 0 18.057-4.131 23.107-10.099v6.569a2 2 0 0 0 2 2h18.964V.003h-20.964v42.694c-5.05-5.356-12.854-9.029-22.801-9.029-17.292 0-37.185 12.701-37.185 39.787 0 26.932 20.658 39.786 36.879 39.786Zm4.132-19.28c-11.63 0-20.506-8.876-20.506-20.66 0-11.782 8.876-20.505 20.506-20.505 11.324 0 19.587 9.182 19.587 20.506s-8.263 20.658-19.587 20.658ZM195.652 32.137c-12.089 0-21.271 5.246-26.32 11.367v-6.341a2 2 0 0 0-2-2H150.51v76.547h21.576V71.464c0-13.62 6.427-21.576 17.598-21.576 10.865 0 15.915 7.039 15.915 20.352v41.47h21.576V69.016c0-28.616-15.455-36.88-31.523-36.88Z"/><path fill-rule="evenodd" clip-rule="evenodd" d="M62.922 111.708H40.733l12.459-35.115c-11.61-9.011-28.386-8.185-39.05 2.478L0 64.93c16.29-16.29 41.09-18.88 60.087-7.77L80.367 0h21.423l39.634 111.708h-22.189l-7.781-22.477c-12.923 5.82-27.829 5.823-40.753.005l-7.78 22.472Zm14.366-41.506a29.392 29.392 0 0 0 3.943 1.72 29.72 29.72 0 0 0 19.68 0 29.38 29.38 0 0 0 3.955-1.727L91.078 30.3l-13.79 39.903Z"/><path d="M244.832 148.949h17.976a5 5 0 0 0 4.648-3.156l43.988-110.88h-22.152l-17.94 48.048-19.188-48.048H229.7l31.044 74.568-15.912 39.468ZM505.402 149.149h17.977a4.998 4.998 0 0 0 4.647-3.157l43.988-110.88h-22.152l-17.94 48.049-19.188-48.048H490.27l31.044 74.568-15.912 39.468Z"/></g><defs><clipPath id="a"><path fill="#fff" d="M0 0h572v149H0z"/></clipPath></defs></svg>