<?xml version="1.0" standalone="no"?>
<!DOCTYPE svg PUBLIC "-//W3C//DTD SVG 20010904//EN"
 "http://www.w3.org/TR/2001/REC-SVG-20010904/DTD/svg10.dtd">
<svg version="1.0" xmlns="http://www.w3.org/2000/svg"
 width="2629.000000pt" height="1080.000000pt" viewBox="0 0 2629.000000 1080.000000"
 preserveAspectRatio="xMidYMid meet">

<g transform="translate(0.000000,1080.000000) scale(0.100000,-0.100000)"
fill="#000000" stroke="none">
<path d="M3433 10473 c-17 -38 -54 -117 -83 -178 -91 -194 -107 -229 -135
-290 -15 -33 -44 -96 -65 -140 -70 -146 -179 -379 -223 -475 -44 -97 -107
-233 -132 -285 -153 -319 -185 -387 -185 -393 0 -3 -18 -45 -41 -92 -23 -47
-53 -110 -66 -140 -14 -30 -45 -95 -68 -145 -107 -224 -145 -305 -145 -310 0
-5 -27 -64 -135 -290 -38 -80 -92 -195 -145 -310 -11 -22 -36 -78 -56 -125
-21 -47 -47 -98 -57 -113 -10 -15 -23 -44 -29 -65 -6 -20 -18 -48 -28 -62 -9
-14 -21 -36 -25 -49 -4 -13 -29 -68 -56 -122 -27 -54 -49 -101 -49 -105 0 -3
-18 -45 -41 -92 -67 -142 -129 -273 -159 -337 -16 -33 -49 -104 -74 -157 -25
-53 -46 -99 -46 -102 0 -3 -22 -52 -49 -108 -27 -57 -68 -143 -91 -193 -23
-49 -59 -126 -80 -170 -50 -105 -102 -217 -133 -285 -24 -54 -66 -144 -173
-368 -30 -62 -54 -115 -54 -117 0 -2 -25 -57 -56 -122 -30 -65 -70 -149 -89
-188 -18 -38 -58 -123 -89 -187 -31 -64 -56 -119 -56 -122 0 -5 -39 -90 -100
-221 -16 -33 -52 -109 -80 -170 -28 -60 -64 -137 -80 -170 -15 -33 -44 -94
-63 -135 -19 -41 -58 -122 -85 -180 -38 -79 -48 -108 -41 -122 9 -17 39 -18
498 -18 l488 0 20 22 c11 13 42 68 68 123 26 55 62 132 80 170 112 236 135
286 135 292 0 3 13 33 30 67 30 63 97 203 195 411 32 66 73 155 91 199 19 43
41 90 48 105 19 35 76 156 191 406 53 116 114 246 135 290 21 44 54 114 73
155 19 41 56 120 82 175 26 55 60 129 77 165 16 36 54 115 83 175 29 61 56
121 60 135 4 14 13 34 20 45 7 11 38 76 70 145 31 69 77 166 100 215 24 50 62
131 85 180 23 50 59 126 80 170 21 44 59 127 85 185 26 58 67 146 90 195 24
50 61 128 83 175 22 47 55 119 75 160 19 41 58 126 86 188 29 62 67 142 85
176 18 34 39 80 46 102 7 21 18 46 25 54 6 8 19 33 28 55 9 22 28 65 44 95 23
44 33 55 53 55 21 0 31 -11 60 -71 43 -88 121 -252 240 -509 50 -107 91 -193
239 -507 28 -60 51 -110 51 -113 0 -5 32 -73 218 -466 28 -58 71 -152 97 -210
26 -57 55 -117 65 -134 10 -16 21 -41 25 -55 4 -14 29 -70 55 -125 121 -252
170 -357 170 -362 0 -2 24 -55 54 -116 29 -62 70 -148 91 -192 21 -44 55 -116
75 -160 21 -44 63 -134 93 -200 57 -125 103 -225 191 -410 29 -60 66 -139 82
-175 16 -35 44 -92 62 -127 17 -35 32 -68 32 -74 0 -6 35 -83 78 -172 44 -89
111 -232 151 -319 40 -86 81 -173 92 -194 10 -21 19 -44 19 -52 0 -8 8 -26 19
-40 10 -15 39 -74 66 -132 26 -58 58 -120 72 -138 l24 -32 492 2 492 3 3 24
c2 13 -10 51 -27 85 -50 101 -141 296 -141 301 0 2 -24 55 -54 117 -75 159
-114 240 -196 418 -77 166 -122 263 -175 375 -18 39 -54 115 -80 170 -25 55
-62 132 -81 172 -19 39 -34 75 -34 79 0 4 -24 57 -54 118 -90 183 -165 343
-208 440 -22 50 -46 102 -53 116 -17 33 -70 145 -195 415 -56 121 -117 254
-137 295 -19 41 -48 102 -63 135 -16 33 -53 112 -84 176 -31 64 -56 120 -56
123 0 4 -35 80 -79 169 -43 89 -82 173 -86 187 -4 14 -15 36 -25 50 -10 14
-21 36 -25 49 -6 20 -41 96 -145 316 -16 33 -47 101 -70 150 -24 50 -62 131
-85 180 -23 50 -60 128 -80 175 -21 47 -62 135 -91 195 -102 213 -214 454
-214 460 0 4 -128 275 -189 400 -42 85 -101 215 -101 221 0 3 -25 58 -56 122
-31 64 -78 164 -106 222 -27 58 -65 137 -83 175 -19 39 -50 108 -71 155 -20
47 -44 99 -54 115 -10 17 -21 41 -25 55 -4 14 -16 36 -25 50 -10 14 -22 41
-28 60 -18 61 -116 245 -132 248 -10 2 -26 -21 -47 -65z"/>
<path d="M8745 6896 c-44 -7 -90 -18 -103 -25 -13 -7 -42 -18 -66 -25 -77 -23
-270 -161 -383 -274 -18 -18 -27 -21 -42 -13 -17 9 -20 25 -23 122 -3 96 -6
113 -22 125 -29 21 -778 21 -795 0 -16 -19 -16 -3553 0 -3573 9 -10 87 -13
395 -13 365 0 385 1 403 19 19 19 19 53 23 1103 4 971 7 1089 21 1138 9 30 24
84 32 119 36 144 157 321 276 402 143 97 313 132 519 109 57 -6 122 -20 145
-30 22 -10 56 -25 75 -33 19 -9 47 -24 63 -34 43 -28 61 -7 130 147 14 30 38
84 55 120 16 36 51 115 77 175 26 61 65 145 86 189 25 48 37 86 34 97 -7 22
-125 85 -195 105 -25 7 -65 20 -90 28 -106 35 -440 47 -615 22z"/>
<path d="M11201 6894 c-63 -7 -126 -18 -141 -24 -15 -6 -58 -19 -96 -29 -143
-38 -344 -138 -481 -241 -139 -103 -291 -256 -373 -376 -8 -12 -31 -46 -52
-75 -48 -72 -140 -255 -176 -354 -46 -123 -98 -356 -113 -500 -38 -364 11
-782 124 -1065 38 -97 131 -285 162 -330 57 -83 69 -98 116 -163 71 -95 149
-178 249 -261 142 -120 244 -182 425 -261 50 -21 192 -58 321 -81 76 -14 149
-19 314 -19 201 0 223 2 340 29 153 34 277 81 383 144 98 58 263 194 289 239
15 25 27 33 48 33 15 0 32 -6 37 -12 16 -23 -2 -710 -21 -804 -46 -230 -126
-379 -278 -518 -40 -37 -86 -74 -103 -83 -16 -8 -37 -21 -45 -28 -8 -7 -26
-16 -40 -20 -14 -4 -47 -18 -75 -30 -66 -31 -262 -65 -373 -65 -315 0 -622
156 -743 379 -13 24 -37 66 -52 95 -39 70 -94 208 -102 257 -14 82 4 79 -423
79 -281 0 -381 -3 -390 -12 -16 -16 -15 -60 2 -100 8 -18 21 -67 29 -108 34
-174 163 -475 268 -629 24 -35 51 -73 59 -85 47 -69 160 -193 232 -253 158
-131 270 -196 461 -268 99 -37 127 -44 307 -77 181 -33 484 -33 690 0 256 42
520 133 670 232 150 99 185 127 284 225 105 104 296 393 296 448 0 6 11 35 25
62 13 28 25 55 25 62 0 6 11 47 24 90 28 90 70 321 86 472 24 222 29 626 30
2242 0 1625 -1 1676 -19 1693 -17 15 -56 17 -401 17 -335 0 -386 -2 -399 -16
-13 -12 -17 -47 -21 -162 -5 -142 -6 -146 -28 -154 -21 -8 -31 -1 -80 52 -31
33 -89 85 -129 115 -85 64 -263 157 -343 180 -30 8 -73 22 -95 31 -108 41
-464 55 -704 27z m570 -735 c97 -12 242 -54 281 -81 14 -10 30 -18 35 -18 34
0 246 -192 329 -299 51 -66 132 -239 164 -351 41 -147 54 -272 47 -469 -7
-201 -31 -309 -103 -473 -99 -222 -322 -452 -509 -526 -22 -8 -45 -19 -50 -23
-14 -10 -177 -45 -280 -59 -82 -12 -133 -6 -310 33 -202 45 -436 201 -536 357
-72 111 -86 136 -117 204 -18 38 -41 104 -52 147 -11 43 -25 91 -31 106 -11
29 -32 237 -32 308 2 129 24 281 58 392 35 111 119 289 168 356 42 56 182 200
232 237 57 42 181 110 202 110 8 0 27 7 43 15 71 37 305 54 461 34z"/>
<path d="M15785 6895 c-60 -6 -135 -19 -165 -28 -30 -9 -80 -23 -110 -31 -107
-28 -206 -67 -335 -131 -118 -59 -151 -78 -241 -140 -108 -73 -291 -248 -375
-357 -127 -166 -249 -400 -299 -573 -47 -163 -60 -226 -70 -325 -6 -63 -16
-141 -22 -172 -19 -103 15 -466 58 -601 13 -43 24 -90 24 -105 0 -15 11 -48
25 -74 14 -26 25 -55 25 -64 0 -29 129 -276 198 -378 116 -171 315 -369 477
-474 113 -73 136 -86 220 -126 44 -22 93 -46 108 -54 45 -22 241 -80 347 -102
269 -55 490 -64 719 -30 280 42 429 88 643 198 295 152 484 315 675 583 29 41
61 90 71 109 10 19 35 67 56 105 169 314 244 788 185 1182 -25 169 -86 418
-110 449 -5 6 -15 30 -24 53 -8 23 -23 54 -33 69 -11 15 -23 37 -27 50 -8 28
-92 165 -143 237 -87 121 -288 318 -419 410 -40 29 -151 95 -158 95 -3 0 -17
8 -31 17 -14 9 -60 32 -102 50 -187 83 -404 143 -584 163 -125 13 -443 11
-583 -5z m469 -736 c231 -27 475 -150 624 -314 164 -179 251 -390 279 -675 16
-158 3 -386 -27 -502 -20 -74 -71 -222 -88 -253 -77 -143 -187 -274 -296 -354
-59 -44 -201 -121 -222 -121 -8 0 -29 -8 -47 -17 -18 -9 -63 -22 -102 -29 -38
-6 -113 -20 -165 -29 -82 -14 -109 -15 -195 -5 -55 7 -113 16 -130 21 -16 4
-52 11 -80 15 -62 9 -176 53 -273 108 -130 72 -259 200 -339 333 -43 72 -103
203 -103 224 0 7 -11 44 -24 83 -38 108 -54 333 -37 516 6 77 18 161 26 187 7
27 22 78 33 115 11 37 26 78 34 90 8 13 18 34 21 48 14 56 131 213 221 297 71
66 135 109 251 167 174 88 408 123 639 95z"/>
<path d="M20320 6895 c-113 -15 -202 -45 -335 -112 -123 -62 -208 -119 -276
-187 -84 -83 -111 -59 -107 95 3 90 1 102 -16 115 -16 11 -88 14 -408 14
l-388 0 -10 -26 c-7 -17 -9 -651 -8 -1790 3 -1556 5 -1766 18 -1774 9 -6 173
-10 396 -10 296 0 384 3 398 13 17 12 18 62 17 902 -1 944 6 1191 39 1345 12
52 25 116 30 143 18 92 70 218 124 300 117 177 276 246 569 247 265 0 401 -52
506 -193 68 -93 131 -282 146 -442 4 -38 9 -90 12 -115 2 -25 7 -524 9 -1110
4 -978 6 -1066 21 -1077 25 -19 762 -19 787 0 16 12 17 82 17 1277 l-1 1264
-26 150 c-14 83 -32 169 -39 191 -79 245 -197 416 -390 565 -57 43 -280 160
-307 160 -10 0 -41 9 -70 20 -115 45 -502 64 -708 35z"/>
<path d="M24080 6895 c-91 -11 -211 -41 -295 -72 -22 -9 -58 -22 -80 -30 -67
-24 -262 -123 -299 -151 -19 -15 -63 -47 -98 -72 -127 -91 -315 -298 -416
-460 -31 -50 -112 -216 -112 -231 0 -6 -9 -27 -21 -46 -11 -18 -27 -57 -34
-86 -7 -28 -20 -72 -29 -97 -66 -195 -94 -494 -76 -793 6 -94 17 -195 25 -222
8 -28 22 -93 31 -145 8 -52 19 -99 24 -105 4 -5 17 -39 28 -75 42 -135 146
-350 220 -455 24 -33 54 -77 68 -98 45 -68 250 -271 326 -322 40 -27 82 -57
93 -66 27 -23 224 -122 305 -153 92 -35 264 -75 400 -93 202 -27 471 -6 660
51 202 61 404 181 539 321 38 39 61 55 75 53 20 -3 21 -10 26 -153 3 -82 9
-156 13 -162 6 -10 102 -13 423 -13 l414 0 0 1800 0 1800 -415 0 -415 0 -11
-26 c-5 -15 -9 -91 -8 -169 1 -79 -2 -148 -5 -154 -15 -24 -42 -8 -120 72 -44
46 -111 104 -149 131 -84 59 -289 162 -342 171 -22 4 -53 14 -69 22 -76 39
-463 55 -676 28z m551 -740 c142 -22 266 -69 394 -150 131 -83 262 -235 332
-385 66 -141 80 -180 107 -310 25 -115 27 -141 24 -320 -2 -161 -7 -213 -27
-300 -50 -223 -162 -425 -313 -565 -62 -57 -80 -71 -173 -132 -90 -59 -224
-100 -435 -133 -57 -9 -91 -9 -140 0 -135 23 -252 51 -273 64 -12 8 -33 17
-47 21 -52 15 -187 105 -269 179 -76 70 -213 274 -241 363 -7 21 -21 54 -31
73 -11 19 -19 47 -19 61 0 15 -9 55 -21 90 -25 78 -40 256 -33 394 8 144 66
374 121 480 9 17 24 47 35 67 54 109 213 287 323 360 199 133 435 182 686 143z"/>
<path d="M16814 2019 c-6 -8 -28 -54 -49 -104 -21 -49 -46 -101 -55 -115 -10
-14 -21 -36 -25 -50 -4 -14 -21 -49 -36 -79 -16 -30 -29 -59 -29 -65 0 -6 -9
-22 -20 -36 -11 -14 -20 -31 -20 -37 0 -12 -28 -74 -135 -298 -23 -49 -65
-137 -92 -195 -28 -58 -76 -158 -107 -222 -31 -65 -56 -120 -56 -123 0 -6 -74
-163 -135 -285 -23 -47 -47 -101 -54 -121 -6 -20 -21 -45 -31 -54 -22 -20 -26
-55 -8 -73 8 -8 51 -12 128 -12 l116 0 31 32 c17 18 34 44 38 58 8 25 37 90
107 237 35 74 42 83 76 93 24 8 152 10 379 8 l341 -3 26 -24 c14 -13 31 -40
37 -60 7 -20 22 -56 35 -81 27 -54 79 -176 89 -208 11 -36 62 -52 169 -52 77
0 98 3 117 19 l23 19 -28 58 c-33 70 -56 120 -89 194 -14 30 -63 141 -110 245
-47 105 -104 233 -127 285 -45 102 -80 181 -110 245 -35 74 -162 358 -170 381
-14 35 -99 225 -120 264 -9 19 -23 51 -29 71 -6 19 -24 50 -39 68 -22 27 -30
31 -38 20z m53 -669 c12 -25 31 -69 43 -99 11 -29 41 -96 65 -147 25 -52 45
-98 45 -103 0 -5 11 -29 25 -52 30 -53 32 -85 6 -99 -12 -6 -107 -10 -240 -10
-186 0 -222 2 -235 16 -9 8 -16 18 -16 21 0 10 222 497 233 511 19 25 51 9 74
-38z"/>
<path d="M20475 2020 c-3 -5 -6 -422 -6 -927 0 -868 1 -919 18 -931 22 -17
216 -13 234 5 8 8 10 173 9 583 -1 594 0 600 40 600 19 0 37 -19 430 -430 139
-146 300 -315 359 -376 205 -214 380 -399 420 -444 29 -33 43 -42 51 -34 9 9
14 872 10 1851 0 6 -7 18 -15 26 -19 19 -218 18 -237 -1 -10 -10 -13 -141 -15
-594 -3 -668 0 -647 -76 -568 -24 25 -110 115 -192 200 -82 85 -201 209 -265
275 -63 66 -176 185 -250 264 -74 79 -157 167 -185 195 -27 29 -106 111 -174
184 -118 126 -142 144 -156 122z"/>
<path d="M25566 1965 c-140 -39 -255 -130 -317 -252 -33 -66 -34 -69 -34 -197
0 -122 2 -135 28 -191 32 -68 108 -151 182 -199 50 -32 187 -97 235 -111 14
-4 45 -18 70 -31 25 -13 48 -24 52 -24 15 0 114 -69 139 -96 14 -16 39 -51 54
-79 25 -43 29 -60 28 -122 -1 -61 -7 -82 -33 -132 -37 -68 -113 -136 -172
-152 -167 -44 -316 29 -373 184 -43 115 -47 122 -81 121 -76 -3 -188 -28 -206
-46 -23 -23 -21 -40 11 -133 28 -80 55 -129 109 -195 60 -75 123 -119 223
-159 77 -31 93 -34 199 -35 69 -1 137 5 170 13 192 49 338 178 386 341 10 35
22 54 35 57 18 5 19 16 19 153 0 134 -2 148 -18 152 -11 3 -23 22 -31 49 -45
157 -232 294 -551 406 -145 51 -237 171 -210 274 17 61 90 135 153 154 119 35
236 7 310 -75 72 -80 82 -81 179 -23 78 46 83 52 86 86 3 34 -3 43 -76 116
-85 86 -110 101 -216 137 -58 20 -88 24 -185 23 -64 0 -138 -7 -165 -14z"/>
<path d="M15043 1934 l-23 -23 0 -860 0 -860 22 -21 c19 -17 35 -20 113 -20
146 0 135 -30 135 359 0 408 -10 381 147 381 137 0 222 15 303 53 191 90 301
264 300 477 -1 60 -7 110 -16 135 -8 22 -20 55 -25 73 -26 85 -113 186 -209
243 -90 52 -173 70 -360 75 -91 2 -210 6 -264 8 -93 3 -101 2 -123 -20z m513
-249 c89 -28 137 -58 177 -115 37 -53 37 -55 37 -150 0 -93 -1 -98 -32 -141
-43 -58 -61 -73 -133 -111 -53 -28 -71 -32 -163 -36 -83 -3 -107 -1 -127 12
l-25 16 0 250 c0 303 -6 290 130 290 49 0 108 -7 136 -15z"/>
<path d="M17934 1935 c-12 -16 -14 -165 -14 -883 0 -576 3 -870 10 -883 10
-17 22 -19 113 -19 160 0 147 -33 147 364 0 245 3 335 12 344 22 22 46 12 75
-30 30 -44 123 -178 158 -228 11 -16 46 -66 78 -112 32 -45 85 -121 118 -168
33 -47 70 -100 81 -117 13 -21 32 -36 56 -43 53 -14 265 -13 280 2 19 19 14
46 -12 64 -14 8 -34 31 -45 49 -18 31 -57 85 -223 310 -37 49 -77 105 -90 123
-13 18 -47 63 -75 99 -29 36 -53 71 -53 78 0 25 40 62 81 74 86 26 187 119
234 216 102 210 63 469 -94 618 -130 124 -258 155 -650 160 -162 2 -174 1
-187 -18z m519 -255 c76 -23 131 -64 172 -128 40 -61 48 -166 17 -234 -47
-106 -145 -173 -277 -189 -114 -13 -132 -12 -155 11 -19 19 -20 33 -20 268 0
305 -5 292 115 292 55 0 105 -7 148 -20z"/>
<path d="M19178 1951 c-40 -12 -48 -33 -48 -126 0 -128 -6 -125 202 -125 148
0 168 -2 189 -19 l24 -19 2 -739 2 -738 22 -18 c33 -27 187 -25 222 4 l26 20
0 737 0 737 22 18 c18 15 45 17 200 17 162 0 180 2 187 18 12 29 8 210 -4 222
-9 9 -154 12 -523 13 -281 1 -517 0 -523 -2z"/>
<path d="M22503 1935 l-23 -20 0 -865 -1 -865 22 -17 c19 -17 58 -18 480 -18
l458 0 15 22 c12 16 16 47 16 114 0 135 27 126 -355 123 -284 -1 -318 0 -333
15 -15 14 -17 49 -20 261 -3 235 -2 245 18 265 19 19 31 20 328 20 370 0 342
-11 342 133 0 74 -4 99 -16 111 -13 14 -57 16 -328 16 -294 0 -314 1 -330 19
-15 17 -17 41 -14 221 3 188 4 203 23 216 16 12 74 15 339 14 295 -1 321 0
333 16 17 23 17 181 0 212 l-12 24 -460 1 c-447 2 -460 1 -482 -18z"/>
<path d="M23880 1952 c-8 -2 -23 -11 -32 -20 -17 -14 -18 -69 -18 -883 l0
-868 30 -16 c19 -10 57 -15 115 -15 82 0 121 10 137 34 4 6 7 155 6 332 0 177
3 327 6 333 4 6 18 11 31 11 23 0 52 -37 206 -259 24 -35 69 -100 101 -145 31
-45 81 -117 112 -161 30 -44 66 -93 79 -110 l25 -30 143 -3 c128 -3 145 -2
156 14 18 24 17 26 -19 66 -18 19 -71 87 -118 152 -47 65 -96 133 -110 151
-14 18 -63 86 -110 151 -47 64 -97 131 -112 149 -46 54 -32 94 41 120 137 48
243 173 282 332 24 101 24 170 -2 274 -36 144 -117 248 -245 316 -89 47 -184
64 -384 69 -96 2 -204 6 -240 8 -36 2 -72 1 -80 -2z m524 -278 c150 -58 229
-231 164 -362 -29 -56 -90 -117 -151 -148 -53 -27 -189 -50 -241 -40 -59 11
-59 13 -59 289 1 251 1 251 25 270 20 17 35 19 118 14 57 -3 115 -12 144 -23z"/>
</g>
</svg>
