<svg fill="none" xmlns="http://www.w3.org/2000/svg" viewBox="0 0 598 239">
  <path
    d="M77.5 1.483c-.388.865-1.23 2.664-1.89 4.053-2.073 4.418-2.437 5.215-3.075 6.604a222.9 222.9 0 0 1-1.48 3.188 907.528 907.528 0 0 0-5.078 10.817 442.51 442.51 0 0 1-3.006 6.49c-3.484 7.264-4.213 8.813-4.213 8.95 0 .068-.41 1.024-.934 2.094-.523 1.07-1.206 2.505-1.503 3.188-.318.684-1.024 2.164-1.548 3.302-2.437 5.101-3.302 6.946-3.302 7.06 0 .114-.615 1.457-3.074 6.604a710.62 710.62 0 0 0-3.302 7.059c-.25.501-.82 1.776-1.275 2.847-.479 1.07-1.07 2.231-1.298 2.573-.228.341-.524 1.002-.66 1.48-.138.455-.41 1.093-.638 1.412-.205.319-.479.82-.57 1.116-.09.296-.66 1.548-1.275 2.778-.615 1.23-1.116 2.3-1.116 2.39 0 .07-.41 1.026-.933 2.096-1.526 3.233-2.938 6.217-3.621 7.674-.365.752-1.116 2.368-1.685 3.575-.57 1.207-1.048 2.255-1.048 2.323 0 .068-.5 1.184-1.116 2.459-.614 1.298-1.548 3.257-2.072 4.395-.524 1.116-1.343 2.87-1.822 3.872a469.866 469.866 0 0 0-3.028 6.49c-.547 1.229-1.503 3.279-3.94 8.38-.683 1.412-1.23 2.619-1.23 2.664 0 .046-.569 1.298-1.275 2.778a269.912 269.912 0 0 1-2.027 4.281c-.41.866-1.32 2.801-2.026 4.259-.706 1.457-1.275 2.71-1.275 2.778 0 .114-.889 2.05-2.278 5.033-.364.751-1.184 2.482-1.822 3.871a411.218 411.218 0 0 1-1.821 3.871c-.342.752-1.002 2.141-1.435 3.074-.433.934-1.32 2.779-1.936 4.099-.865 1.799-1.093 2.46-.933 2.779.205.387.888.409 11.34.409h11.113l.456-.501c.25-.296.956-1.548 1.548-2.801.592-1.252 1.412-3.005 1.822-3.871 2.55-5.374 3.074-6.513 3.074-6.649 0-.069.296-.752.683-1.526.683-1.435 2.209-4.623 4.44-9.359.73-1.503 1.663-3.53 2.073-4.532.433-.979.934-2.049 1.093-2.391.433-.797 1.73-3.552 4.35-9.245a542.615 542.615 0 0 1 3.074-6.604c.478-1.002 1.23-2.596 1.662-3.53.433-.934 1.275-2.733 1.867-3.985.592-1.253 1.367-2.938 1.754-3.757.364-.82 1.23-2.619 1.89-3.986.66-1.389 1.275-2.755 1.366-3.074.091-.319.296-.774.456-1.025.159-.25.865-1.73 1.594-3.302.706-1.57 1.753-3.78 2.277-4.895.546-1.139 1.412-2.984 1.935-4.1.524-1.138 1.344-2.869 1.822-3.87a240.997 240.997 0 0 0 1.936-4.213c.592-1.321 1.526-3.325 2.05-4.441.546-1.139 1.389-2.915 1.89-3.985.5-1.07 1.252-2.71 1.707-3.644.433-.933 1.321-2.869 1.959-4.28.66-1.413 1.525-3.234 1.935-4.009.41-.774.889-1.822 1.048-2.322.16-.479.41-1.048.57-1.23.136-.182.432-.752.637-1.253.205-.5.637-1.48 1.002-2.163.523-1.002.751-1.252 1.207-1.252.478 0 .706.25 1.366 1.616.98 2.004 2.755 5.739 5.465 11.591 1.139 2.437 2.073 4.395 5.443 11.546.638 1.366 1.161 2.505 1.161 2.573 0 .114.729 1.662 4.965 10.612.637 1.32 1.616 3.461 2.208 4.782.593 1.298 1.253 2.664 1.481 3.051.227.365.478.934.569 1.253.091.319.66 1.594 1.252 2.846 2.756 5.739 3.872 8.13 3.872 8.244 0 .045.546 1.252 1.229 2.641a695.702 695.702 0 0 0 2.073 4.373 259.047 259.047 0 0 1 1.707 3.643 318.266 318.266 0 0 1 2.118 4.555 557.803 557.803 0 0 0 4.35 9.336c.66 1.366 1.503 3.165 1.867 3.985a83.528 83.528 0 0 0 1.412 2.892c.387.797.729 1.549.729 1.685 0 .137.797 1.89 1.776 3.917 1.002 2.027 2.527 5.283 3.438 7.264.911 1.959 1.845 3.94 2.095 4.418.228.478.433 1.002.433 1.184 0 .183.182.592.433.911.227.342.888 1.685 1.503 3.006.592 1.321 1.32 2.733 1.639 3.143l.547.728 11.204-.045 11.204-.068.068-.547c.045-.296-.228-1.161-.615-1.936-1.139-2.3-3.211-6.74-3.211-6.854 0-.046-.546-1.252-1.23-2.664-1.707-3.621-2.596-5.466-4.463-9.519-1.753-3.78-2.778-5.989-3.985-8.54-.41-.888-1.23-2.618-1.822-3.871-.569-1.252-1.412-3.006-1.844-3.917-.433-.888-.775-1.707-.775-1.799 0-.091-.546-1.298-1.229-2.687-2.05-4.167-3.758-7.81-4.737-10.019a87.15 87.15 0 0 0-1.207-2.642c-.387-.751-1.594-3.302-4.44-9.45-1.276-2.756-2.665-5.784-3.12-6.718-.433-.934-1.093-2.323-1.435-3.074-.364-.752-1.207-2.55-1.913-4.008-.705-1.458-1.275-2.733-1.275-2.801 0-.091-.797-1.822-1.799-3.849-.979-2.026-1.867-3.94-1.958-4.258-.091-.319-.342-.82-.569-1.139a4.697 4.697 0 0 1-.57-1.115c-.136-.456-.933-2.186-3.302-7.196-.364-.752-1.07-2.3-1.594-3.416a618.88 618.88 0 0 1-1.935-4.1c-.524-1.138-1.367-2.914-1.822-3.984a200.708 200.708 0 0 0-2.072-4.44c-2.323-4.851-4.874-10.34-4.874-10.476 0-.091-2.914-6.262-4.303-9.109-.957-1.935-2.3-4.896-2.3-5.032 0-.069-.57-1.321-1.276-2.779-.706-1.457-1.776-3.734-2.414-5.055-.614-1.32-1.48-3.12-1.89-3.985-.432-.888-1.138-2.46-1.616-3.53-.456-1.07-1.002-2.254-1.23-2.619-.228-.387-.478-.933-.57-1.252-.09-.319-.364-.82-.569-1.139-.227-.318-.5-.933-.637-1.366-.41-1.389-2.642-5.58-3.006-5.647-.228-.046-.592.478-1.07 1.48ZM198.465 82.938c-1.002.16-2.05.41-2.346.57-.296.16-.956.41-1.503.569-1.753.524-6.148 3.666-8.722 6.24-.41.41-.615.478-.956.296-.387-.205-.456-.57-.524-2.779-.068-2.186-.136-2.573-.501-2.846-.66-.478-17.716-.478-18.104 0-.364.433-.364 80.909 0 81.364.205.228 1.982.296 8.995.296 8.312 0 8.768-.022 9.177-.432.433-.433.433-1.207.524-25.118.091-22.111.16-24.799.478-25.914.205-.684.547-1.913.729-2.71.82-3.279 3.575-7.31 6.285-9.155 3.257-2.208 7.128-3.006 11.819-2.482 1.298.137 2.778.456 3.302.683.501.228 1.275.57 1.708.752.432.205 1.07.546 1.434.774.98.638 1.39.16 2.961-3.347.319-.683.865-1.913 1.252-2.733.365-.82 1.162-2.619 1.754-3.985.592-1.39 1.48-3.302 1.958-4.304.569-1.093.843-1.958.774-2.209-.159-.5-2.846-1.936-4.44-2.391-.57-.16-1.48-.455-2.05-.638-2.414-.797-10.019-1.07-14.004-.5ZM254.392 82.984c-1.434.16-2.869.41-3.21.546-.342.137-1.321.433-2.187.66-3.256.866-7.833 3.143-10.953 5.489-3.165 2.345-6.627 5.83-8.494 8.562a61.57 61.57 0 0 1-1.184 1.708c-1.093 1.64-3.188 5.807-4.008 8.061-1.047 2.801-2.232 8.107-2.573 11.386-.866 8.289.25 17.808 2.824 24.253.865 2.209 2.983 6.49 3.689 7.514 1.298 1.89 1.571 2.232 2.641 3.712 1.617 2.164 3.393 4.054 5.67 5.944 3.234 2.732 5.557 4.144 9.679 5.943 1.138.478 4.372 1.321 7.309 1.845 1.731.319 3.393.432 7.151.432 4.577 0 5.078-.045 7.742-.66 3.484-.774 6.308-1.844 8.722-3.279 2.232-1.321 5.989-4.418 6.581-5.443.342-.569.615-.751 1.093-.751.342 0 .729.137.843.273.364.524-.046 16.168-.478 18.309-1.048 5.237-2.87 8.63-6.331 11.796-.911.842-1.959 1.685-2.346 1.89-.364.182-.842.478-1.024.637-.183.16-.592.365-.911.456-.319.091-1.071.41-1.708.683-1.503.706-5.966 1.48-8.494 1.48-7.173 0-14.164-3.552-16.92-8.63-.296-.547-.842-1.503-1.184-2.164-.888-1.594-2.14-4.736-2.323-5.852-.318-1.867.091-1.799-9.632-1.799-6.399 0-8.676.068-8.881.273-.365.365-.342 1.367.045 2.277.182.41.478 1.526.661 2.46.774 3.962 3.711 10.816 6.103 14.323.546.797 1.161 1.663 1.343 1.936 1.07 1.571 3.644 4.395 5.283 5.761 3.598 2.983 6.149 4.464 10.498 6.103 2.255.843 2.892 1.002 6.991 1.754 4.122.751 11.022.751 15.713 0 5.829-.957 11.841-3.029 15.257-5.283 3.416-2.255 4.213-2.892 6.467-5.124 2.391-2.368 6.741-8.95 6.741-10.202 0-.137.25-.797.569-1.412.296-.637.569-1.252.569-1.412 0-.136.251-1.07.547-2.049.638-2.05 1.594-7.31 1.958-10.749.547-5.055.661-14.255.684-51.055 0-37.004-.023-38.165-.433-38.553-.387-.341-1.275-.387-9.132-.387-7.628 0-8.79.046-9.086.365-.296.273-.387 1.07-.478 3.689-.114 3.233-.137 3.324-.638 3.507-.478.182-.706.022-1.821-1.185-.706-.751-2.027-1.935-2.938-2.618-1.936-1.458-5.989-3.576-7.811-4.1a22.06 22.06 0 0 1-2.163-.705c-2.459-.934-10.566-1.253-16.032-.615Zm12.98 16.737c2.209.274 5.511 1.23 6.399 1.845.319.228.684.41.797.41.775 0 5.602 4.372 7.492 6.809 1.162 1.503 3.006 5.442 3.735 7.993.934 3.347 1.23 6.194 1.07 10.68-.159 4.577-.706 7.036-2.345 10.771-2.255 5.055-7.333 10.293-11.591 11.978-.501.182-1.025.433-1.139.524-.319.227-4.03 1.024-6.376 1.343-1.867.274-3.029.137-7.059-.751-4.6-1.025-9.929-4.577-12.206-8.13-1.64-2.528-1.958-3.097-2.664-4.645-.41-.866-.934-2.369-1.185-3.348-.25-.979-.569-2.072-.705-2.414-.251-.66-.729-5.397-.729-7.013.045-2.938.546-6.399 1.321-8.927.797-2.528 2.709-6.581 3.825-8.107.957-1.275 4.145-4.554 5.283-5.397 1.298-.956 4.122-2.505 4.6-2.505.183 0 .615-.159.98-.341 1.616-.843 6.945-1.23 10.497-.775ZM358.78 82.961c-1.367.137-3.075.433-3.758.638-.683.205-1.821.524-2.505.706-2.436.637-4.691 1.526-7.628 2.983-2.687 1.344-3.439 1.776-5.488 3.188-2.46 1.662-6.627 5.648-8.54 8.13-2.892 3.78-5.67 9.109-6.809 13.048-1.07 3.712-1.366 5.147-1.594 7.401-.136 1.435-.364 3.211-.501 3.917-.432 2.345.342 10.612 1.321 13.686.296.979.547 2.049.547 2.391 0 .341.25 1.093.569 1.685.319.592.569 1.252.569 1.457 0 .661 2.938 6.285 4.509 8.608 2.642 3.894 7.173 8.403 10.862 10.794 2.574 1.663 3.097 1.959 5.01 2.869 1.002.501 2.118 1.048 2.46 1.23 1.024.501 5.488 1.822 7.901 2.323 6.126 1.252 11.159 1.457 16.374.683 6.376-.956 9.769-2.004 14.642-4.509 6.718-3.461 11.022-7.173 15.371-13.276.661-.934 1.389-2.049 1.617-2.482.228-.433.797-1.526 1.275-2.391 3.849-7.151 5.557-17.944 4.213-26.917-.569-3.848-1.958-9.518-2.505-10.224-.114-.137-.341-.683-.546-1.207-.183-.524-.524-1.23-.752-1.572-.25-.341-.524-.842-.615-1.138-.182-.638-2.095-3.757-3.256-5.397-1.981-2.755-6.559-7.242-9.542-9.337-.911-.66-3.438-2.163-3.598-2.163-.068 0-.387-.182-.706-.387-.318-.205-1.366-.729-2.322-1.139-4.259-1.89-9.2-3.256-13.299-3.712-2.847-.296-10.088-.25-13.276.114Zm10.68 16.76c5.26.615 10.817 3.416 14.21 7.151 3.734 4.076 5.715 8.881 6.353 15.371.364 3.598.068 8.79-.615 11.432-.455 1.685-1.617 5.055-2.004 5.761-1.753 3.256-4.258 6.24-6.74 8.061-1.344 1.002-4.578 2.756-5.056 2.756-.182 0-.66.182-1.07.387-.41.205-1.435.501-2.323.66-.865.137-2.573.456-3.757.661-1.867.318-2.482.341-4.441.113-1.252-.159-2.573-.364-2.96-.478a22.462 22.462 0 0 0-1.822-.341c-1.412-.205-4.008-1.207-6.217-2.46-2.96-1.639-5.898-4.554-7.719-7.583-.98-1.639-2.346-4.623-2.346-5.101 0-.159-.25-1.002-.546-1.89-.866-2.459-1.23-7.583-.843-11.75.137-1.754.41-3.666.592-4.259.16-.614.501-1.776.752-2.618.25-.843.592-1.777.774-2.05.182-.296.41-.774.478-1.093.319-1.275 2.983-4.85 5.033-6.763 1.617-1.503 3.074-2.482 5.715-3.803 3.963-2.004 9.291-2.801 14.552-2.163ZM462.051 82.961c-2.573.342-4.6 1.025-7.629 2.55-2.801 1.413-4.736 2.71-6.285 4.26-1.913 1.89-2.527 1.343-2.436-2.164.068-2.05.022-2.323-.365-2.619-.364-.25-2.004-.319-9.291-.319h-8.835l-.228.592c-.159.387-.205 14.825-.182 40.762.068 35.434.114 40.216.41 40.398.205.136 3.939.228 9.018.228 6.74 0 8.744-.069 9.063-.296.387-.274.41-1.412.387-20.541-.023-21.497.137-27.121.888-30.628.273-1.184.569-2.642.683-3.257.41-2.095 1.594-4.964 2.824-6.831 2.664-4.031 6.285-5.602 12.957-5.625 6.035 0 9.132 1.184 11.523 4.395 1.548 2.118 2.983 6.422 3.325 10.065.091.866.205 2.05.273 2.619.045.569.159 11.933.205 25.277.091 22.271.136 24.275.478 24.526.569.432 17.352.432 17.922 0 .364-.274.387-1.868.387-29.08l-.023-28.784-.592-3.416c-.319-1.89-.729-3.849-.888-4.35-1.799-5.579-4.486-9.473-8.881-12.866-1.298-.979-6.376-3.643-6.991-3.643-.228 0-.934-.205-1.594-.456-2.619-1.024-11.432-1.457-16.123-.797ZM547.674 82.961c-2.073.25-4.805.934-6.718 1.64-.501.205-1.321.5-1.822.683-1.526.547-5.966 2.801-6.809 3.439a77.352 77.352 0 0 1-2.231 1.64c-2.893 2.072-7.174 6.785-9.474 10.474-.706 1.139-2.55 4.919-2.55 5.261 0 .136-.205.615-.478 1.047-.251.41-.615 1.298-.775 1.959a28.014 28.014 0 0 1-.66 2.209c-1.503 4.44-2.141 11.249-1.731 18.058.137 2.14.388 4.44.57 5.055.182.638.501 2.118.706 3.302.182 1.184.432 2.255.546 2.391.091.114.387.888.638 1.708.956 3.074 3.324 7.97 5.01 10.361a80.192 80.192 0 0 1 1.548 2.232c1.025 1.549 5.693 6.171 7.424 7.333.911.614 1.867 1.298 2.118 1.503.614.523 5.101 2.778 6.945 3.484 2.095.797 6.012 1.708 9.109 2.117 4.6.615 10.726.137 15.029-1.161 4.6-1.389 9.2-4.122 12.275-7.31.865-.888 1.389-1.252 1.707-1.207.456.069.479.228.593 3.484.068 1.868.204 3.553.296 3.69.136.227 2.322.296 9.632.296H598v-81.98h-18.901l-.251.592c-.113.342-.204 2.073-.182 3.849.023 1.799-.045 3.37-.114 3.507-.341.546-.956.182-2.732-1.64-1.002-1.047-2.528-2.368-3.393-2.983-1.913-1.344-6.581-3.69-7.788-3.894-.501-.091-1.207-.319-1.572-.501-1.73-.888-10.543-1.252-15.393-.638Zm12.547 16.852c3.234.501 6.057 1.571 8.972 3.415 2.983 1.891 5.966 5.352 7.56 8.768 1.503 3.211 1.822 4.099 2.437 7.059.569 2.619.615 3.211.547 7.287-.046 3.666-.16 4.851-.615 6.832-1.139 5.078-3.689 9.678-7.128 12.866-1.412 1.298-1.822 1.617-3.939 3.006-2.05 1.343-5.101 2.277-9.906 3.028-1.298.205-2.073.205-3.188 0-3.075-.523-5.739-1.161-6.217-1.457a4.532 4.532 0 0 0-1.07-.478c-1.185-.342-4.259-2.391-6.126-4.076-1.731-1.594-4.851-6.24-5.488-8.267a13.57 13.57 0 0 0-.706-1.662c-.251-.433-.433-1.07-.433-1.389 0-.342-.205-1.252-.478-2.05-.569-1.776-.911-5.829-.751-8.972.182-3.279 1.502-8.516 2.755-10.93.205-.387.546-1.071.797-1.526 1.23-2.482 4.85-6.536 7.355-8.198 4.532-3.029 9.906-4.145 15.622-3.256ZM382.212 193.998c-.136.182-.637 1.23-1.116 2.368-.478 1.116-1.047 2.3-1.252 2.619-.228.319-.478.82-.569 1.139-.092.318-.479 1.115-.82 1.799-.365.683-.661 1.343-.661 1.48 0 .136-.205.501-.455.82-.251.318-.455.705-.455.842 0 .273-.638 1.685-3.075 6.786-.523 1.116-1.48 3.12-2.095 4.441-.637 1.321-1.73 3.598-2.436 5.055-.706 1.48-1.276 2.733-1.276 2.801 0 .137-1.685 3.712-3.074 6.49-.524 1.07-1.07 2.3-1.23 2.756-.136.455-.478 1.024-.705 1.229-.501.456-.593 1.253-.183 1.663.183.182 1.162.273 2.915.273h2.642l.706-.729c.387-.41.774-1.002.865-1.321.182-.569.843-2.049 2.437-5.397.797-1.685.956-1.89 1.73-2.117.547-.183 3.462-.228 8.631-.183l7.765.069.592.546c.319.296.706.911.843 1.367.159.455.501 1.275.797 1.844.615 1.23 1.799 4.008 2.027 4.737.25.819 1.411 1.184 3.848 1.184 1.753 0 2.232-.068 2.664-.433l.524-.432-.637-1.321a202.663 202.663 0 0 1-2.027-4.418c-.319-.683-1.435-3.211-2.505-5.579-1.07-2.391-2.368-5.306-2.892-6.49-1.025-2.323-1.822-4.122-2.505-5.579-.797-1.686-3.689-8.153-3.871-8.677-.319-.797-2.255-5.123-2.733-6.011-.205-.433-.524-1.162-.66-1.617-.137-.433-.547-1.139-.888-1.549-.501-.615-.684-.706-.866-.455Zm1.207 15.234c.273.57.706 1.572.979 2.255.251.66.934 2.186 1.48 3.347.57 1.184 1.025 2.232 1.025 2.346 0 .114.251.66.57 1.184.683 1.207.728 1.936.136 2.254-.273.137-2.436.228-5.465.228-4.236 0-5.056-.045-5.352-.364-.205-.182-.364-.41-.364-.478 0-.228 5.055-11.318 5.306-11.637.433-.569 1.161-.205 1.685.865ZM465.58 193.975c-.068.114-.136 9.61-.136 21.11 0 19.766.023 20.927.41 21.2.501.388 4.919.296 5.328-.113.183-.183.228-3.94.205-13.277-.022-13.526 0-13.663.911-13.663.433 0 .843.433 9.792 9.792 3.166 3.325 6.832 7.173 8.175 8.563 4.669 4.873 8.654 9.086 9.565 10.11.66.752.979.957 1.161.775.205-.205.319-19.858.228-42.151 0-.137-.16-.41-.342-.593-.433-.432-4.964-.409-5.397.023-.228.228-.296 3.211-.341 13.527-.069 15.212 0 14.733-1.731 12.934-.547-.569-2.505-2.618-4.372-4.554-1.868-1.936-4.577-4.759-6.035-6.262a1037.584 1037.584 0 0 1-5.693-6.012c-1.685-1.799-3.575-3.803-4.213-4.441-.615-.66-2.414-2.527-3.962-4.19-2.687-2.869-3.234-3.279-3.553-2.778ZM581.513 195.227c-3.188.889-5.807 2.961-7.219 5.739-.751 1.503-.774 1.571-.774 4.486 0 2.778.046 3.074.638 4.35.728 1.548 2.459 3.438 4.144 4.531 1.139.729 4.258 2.209 5.352 2.528.318.091 1.024.41 1.594.706.569.296 1.093.546 1.184.546.341 0 2.596 1.572 3.165 2.186.319.365.888 1.162 1.23 1.799.569.98.66 1.367.637 2.779-.022 1.389-.159 1.867-.751 3.006-.843 1.548-2.573 3.097-3.917 3.461-3.803 1.002-7.196-.66-8.494-4.19-.979-2.619-1.07-2.778-1.844-2.756-1.731.069-4.282.638-4.691 1.048-.524.524-.479.911.25 3.029.638 1.821 1.252 2.937 2.482 4.44 1.367 1.708 2.801 2.71 5.078 3.621 1.754.706 2.118.774 4.532.797 1.571.023 3.12-.114 3.871-.296 4.372-1.116 7.697-4.053 8.79-7.765.228-.797.501-1.23.797-1.298.41-.114.433-.365.433-3.484 0-3.052-.046-3.371-.41-3.462-.25-.068-.524-.501-.706-1.116-1.025-3.575-5.283-6.695-12.547-9.245-3.302-1.161-5.397-3.894-4.782-6.24.387-1.389 2.049-3.074 3.484-3.507 2.71-.797 5.374-.159 7.059 1.708 1.64 1.822 1.867 1.845 4.076.524 1.776-1.047 1.89-1.184 1.959-1.958.068-.775-.069-.979-1.731-2.642-1.936-1.958-2.505-2.3-4.919-3.12-1.321-.455-2.004-.546-4.213-.523-1.457 0-3.142.159-3.757.318ZM341.883 195.933l-.524.524v39.168l.501.478c.433.387.797.456 2.573.456 3.325 0 3.074.683 3.074-8.176 0-9.291-.227-8.676 3.348-8.676 3.12 0 5.055-.341 6.9-1.207 4.349-2.049 6.854-6.011 6.831-10.862-.022-1.366-.159-2.505-.364-3.074-.182-.501-.455-1.253-.569-1.662-.592-1.936-2.574-4.236-4.76-5.534-2.049-1.184-3.939-1.594-8.198-1.708a486.357 486.357 0 0 1-6.011-.182c-2.118-.068-2.3-.046-2.801.455Zm11.682 5.671c2.026.637 3.119 1.32 4.03 2.618.843 1.207.843 1.253.843 3.416 0 2.118-.023 2.232-.729 3.211-.979 1.321-1.389 1.662-3.028 2.528-1.207.637-1.617.728-3.712.819-1.89.069-2.437.023-2.892-.273l-.57-.364v-5.693c0-6.9-.136-6.604 2.961-6.604 1.116 0 2.459.159 3.097.342ZM407.717 195.911c-.274.364-.319 3.757-.319 20.107 0 13.117.068 19.812.228 20.108.227.387.501.433 2.573.433 3.643 0 3.347.751 3.347-8.289 0-5.579.069-7.629.274-7.834.501-.501 1.047-.273 1.708.683a818.862 818.862 0 0 0 3.598 5.192c.25.365 1.047 1.503 1.776 2.551.728 1.024 1.935 2.755 2.687 3.825.751 1.071 1.594 2.278 1.844 2.665a2.2 2.2 0 0 0 1.276.979c1.207.319 6.034.296 6.376-.046.432-.432.319-1.047-.273-1.457-.319-.182-.775-.706-1.025-1.116-.41-.706-1.298-1.935-5.078-7.059-.843-1.116-1.754-2.391-2.05-2.801a104.26 104.26 0 0 0-1.708-2.255c-.66-.819-1.207-1.616-1.207-1.776 0-.569.911-1.412 1.845-1.685 1.958-.592 4.258-2.71 5.329-4.919 2.322-4.782 1.434-10.68-2.141-14.073-2.96-2.823-5.875-3.529-14.802-3.643-3.689-.046-3.962-.023-4.258.41Zm11.818 5.806c1.731.524 2.984 1.458 3.917 2.915.911 1.389 1.093 3.78.387 5.329-1.07 2.414-3.302 3.94-6.307 4.304-2.597.296-3.006.273-3.53-.251-.433-.432-.456-.751-.456-6.103 0-6.945-.113-6.649 2.619-6.649 1.253 0 2.391.159 3.37.455ZM436.045 195.546c-.911.274-1.093.752-1.093 2.87 0 2.914-.137 2.846 4.6 2.846 3.37 0 3.826.046 4.304.433l.546.432.046 16.829.046 16.806.501.41c.751.615 4.258.569 5.055-.091l.592-.456v-33.566l.501-.41c.41-.341 1.025-.387 4.554-.387 3.689 0 4.099-.045 4.259-.41.273-.66.182-4.782-.091-5.055-.205-.205-3.507-.273-11.91-.296-6.399-.023-11.773 0-11.91.045ZM511.762 195.911l-.523.455v19.698l-.023 19.698.501.387c.432.387 1.321.41 10.93.41h10.43l.342-.501c.273-.364.364-1.07.364-2.596 0-3.074.615-2.869-8.084-2.801-6.467.023-7.242 0-7.583-.342-.342-.319-.387-1.116-.456-5.943-.068-5.352-.045-5.579.41-6.035.433-.432.706-.455 7.469-.455 8.426 0 7.788.25 7.788-3.029 0-1.685-.091-2.254-.364-2.528-.296-.318-1.298-.364-7.469-.364-6.695 0-7.151-.023-7.515-.433-.341-.387-.387-.933-.319-5.032.069-4.281.091-4.623.524-4.919.364-.273 1.685-.342 7.72-.319 6.718.023 7.31 0 7.583-.364.387-.524.387-4.122 0-4.828l-.273-.546-10.476-.023c-10.179-.046-10.475-.023-10.976.41ZM543.12 195.524c-.183.045-.524.25-.729.455-.387.319-.41 1.571-.41 20.108v19.766l.683.364c.433.228 1.298.342 2.619.342 1.867 0 2.755-.228 3.12-.774.091-.137.159-3.53.136-7.561 0-4.03.069-7.446.137-7.583.091-.136.41-.25.706-.25.524 0 1.184.842 4.691 5.898.546.797 1.571 2.277 2.3 3.302a529.138 529.138 0 0 0 2.55 3.666 70.47 70.47 0 0 0 1.799 2.505l.57.683 3.256.068c2.915.069 3.302.046 3.552-.319.41-.546.388-.592-.432-1.502-.41-.433-1.617-1.982-2.687-3.462-1.071-1.48-2.186-3.029-2.505-3.438-.319-.41-1.435-1.959-2.505-3.439-1.07-1.457-2.209-2.983-2.551-3.393-1.047-1.23-.728-2.141.934-2.733 3.12-1.093 5.534-3.939 6.422-7.56.546-2.3.546-3.871-.046-6.24-.82-3.279-2.664-5.647-5.579-7.195-2.027-1.071-4.19-1.458-8.744-1.572a206.934 206.934 0 0 1-5.466-.182c-.819-.045-1.639-.023-1.821.046Zm11.932 6.33c3.416 1.321 5.215 5.261 3.735 8.244-.661 1.275-2.05 2.664-3.439 3.37-1.207.615-4.304 1.139-5.488.911-1.343-.251-1.343-.296-1.343-6.581.022-5.716.022-5.716.569-6.149.455-.387.797-.432 2.687-.319 1.298.069 2.619.274 3.279.524Z"
    fill="#fff"
  />
</svg>
