<svg width="368" height="121" viewBox="0 0 368 121" fill="none" xmlns="http://www.w3.org/2000/svg">
<path d="M53.2053 66.3512C51.9625 66.3512 50.9505 67.3589 50.9505 68.606C50.9505 69.8489 51.9625 70.8566 53.2053 70.8566C54.4482 70.8566 55.4601 69.8489 55.4601 68.606C55.4601 67.3631 54.4524 66.3512 53.2053 66.3512ZM42.3428 40.4104C42.3428 38.8442 41.0747 37.5719 39.5085 37.5719C37.9423 37.5719 36.6743 38.8442 36.6743 40.4104C36.6743 41.9766 37.9423 43.2489 39.5085 43.2489C41.0747 43.2447 42.3428 41.9766 42.3428 40.4104ZM30.6236 64.0964C28.6208 64.0964 27 65.7214 27 67.72C27 69.7187 28.6208 71.3437 30.6236 71.3437C32.6265 71.3437 34.2473 69.7187 34.2473 67.72C34.2473 65.7172 32.6265 64.0964 30.6236 64.0964ZM86.0575 61.2495C85.4949 60.4223 85.1128 59.6581 84.8398 58.9737C85.8434 58.6084 86.8847 58.2725 87.9638 57.966L88.3417 59.5322L92.1459 55.9295L87.1156 54.4473L87.4935 56.0009C86.406 56.3074 85.3479 56.6433 84.336 57.0086C84.189 55.7658 84.4535 55.0352 84.4745 54.989L84.5081 54.9008C86.637 48.2203 82.5724 41.4055 82.3961 41.12L82.3667 41.0738C78.1552 34.9056 71.7351 31.0343 63.8033 29.888C60.5408 29.4135 57.6688 29.4849 55.7079 29.6528C55.2292 28.771 54.2928 28.1748 53.2137 28.1748C51.6475 28.1748 50.3795 29.4387 50.3795 31.0007C50.3795 32.5627 51.6475 33.8265 53.2137 33.8265C53.7428 33.8265 54.2383 33.6796 54.6623 33.4276C56.1781 34.7377 58.3238 36.8455 60.3225 39.6798C58.9032 40.276 57.5134 40.9814 56.1697 41.7918C50.3837 45.2979 46.0126 50.4794 43.5521 56.6391C42.0195 56.6769 40.7892 57.924 40.7892 59.4608C40.7892 60.4223 41.2679 61.2663 42.0027 61.7786C40.3861 69.4584 41.7255 77.3397 45.8405 84.0789C46.3737 84.9523 46.949 85.7921 47.5536 86.6025C47.3185 87.014 47.1841 87.4884 47.1841 87.9965C47.1841 89.5585 48.4522 90.8224 50.0184 90.8224C50.4215 90.8224 50.8036 90.7342 51.1521 90.583C54.3348 93.5559 58.1264 95.8191 62.3253 97.2257C62.4429 98.6827 63.6606 99.8248 65.1512 99.8248C66.7174 99.8248 67.9854 98.5609 67.9854 96.999C67.9854 96.0752 67.5404 95.2606 66.8559 94.7441C67.4564 93.157 68.4851 91.2129 70.1353 90.2597C71.332 89.5711 72.6882 89.4997 74.2838 90.0498C76.2321 91.1709 80.6241 92.3508 83.9245 89.0882C86.1961 86.9888 85.583 83.7724 85.075 82.1684C85.8644 81.7402 86.4018 81.1481 86.6831 80.4007C87.0358 79.4602 86.8637 78.528 86.6412 77.8772C87.9722 76.5167 87.7119 74.2199 87.2794 72.9267L87.25 72.8469C87.0862 72.4732 87.1576 72.2968 87.1828 72.238C87.2962 71.9651 87.6573 71.7678 87.7623 71.7216L87.8126 71.7006C89.4628 70.9742 90.4244 70.0126 90.6637 68.8369C90.9492 67.4429 90.0969 66.3638 89.8827 66.1202L86.0575 61.2495ZM79.0411 40.1375L79.0537 40.0787C79.6122 40.7295 80.1539 41.4307 80.6661 42.1781C80.8971 42.5728 84.3569 48.615 82.5766 54.2584C82.4674 54.5481 82.0602 55.8246 82.3961 57.7518C78.6423 59.3096 75.4091 61.3041 72.7176 63.7227C71.5797 62.505 70.3872 61.3461 69.1527 60.2964C69.2367 60.0318 69.2787 59.7505 69.2787 59.4608C69.2787 58.3355 68.6153 57.3655 67.6621 56.9121C67.7083 55.6104 67.6705 54.3129 67.5404 53.0239C67.0575 48.17 65.4115 44.0382 63.4128 40.6791C68.4263 39.0709 73.8009 38.8652 79.0411 40.1375ZM55.9178 31.8236C55.9346 31.7733 55.9472 31.7187 55.9598 31.6641C60.3267 31.3198 69.4593 31.4919 76.589 37.6097C71.7477 36.9127 66.8769 37.3662 62.2959 38.924C60.0705 35.6614 57.6226 33.2807 55.9178 31.8236ZM51.1395 85.4016C50.7952 85.2546 50.4173 85.1749 50.0184 85.1749C49.7034 85.1749 49.4053 85.2252 49.124 85.3218C48.5739 84.587 48.0533 83.827 47.5704 83.0334C43.741 76.7603 42.4813 69.4248 43.9677 62.2699C45.3702 62.0977 46.4619 60.9094 46.4619 59.465C46.4619 58.6042 46.0714 57.8316 45.4626 57.311C47.7678 51.5879 51.8407 46.7801 57.2237 43.5134C58.5883 42.6862 60.0033 41.9766 61.4562 41.3929C63.4296 44.6009 65.0756 48.5731 65.5375 53.2212C65.6551 54.3927 65.6887 55.5684 65.6509 56.7525C64.4752 57.0968 63.6144 58.1801 63.6144 59.465C63.6144 60.5063 64.1812 61.4091 65.0168 61.9004C63.3961 69.4878 58.7605 77.3565 51.1395 85.4016ZM62.8964 95.2984C59.0334 93.9883 55.5399 91.9057 52.5923 89.1806C52.7602 88.8237 52.8526 88.4248 52.8526 88.0007C52.8526 87.5724 52.756 87.1735 52.5881 86.8082C60.5072 78.4524 65.3317 70.2226 67.0113 62.2321C67.3304 62.1649 67.6327 62.0473 67.9015 61.8836C69.0646 62.8745 70.1857 63.9746 71.2606 65.1335C69.644 66.8047 68.2458 68.6522 67.0911 70.6803C61.8887 79.8045 62.7746 89.9364 63.6018 94.6308C63.3331 94.8155 63.0937 95.0381 62.8964 95.2984ZM82.543 87.6228L82.5136 87.6522C79.4484 90.7006 75.4091 88.3702 75.2369 88.2694L75.1488 88.2191L75.0564 88.1855C72.8604 87.4003 70.8575 87.5136 69.115 88.5214C67.3514 89.5417 66.1757 91.322 65.4115 92.9722C64.7481 88.1309 64.4416 79.414 68.8546 71.6796C69.9001 69.8447 71.1598 68.1735 72.6126 66.6493C78.4911 73.4935 82.6522 81.61 82.8789 82.0551C82.9923 82.3196 84.4787 85.8551 82.543 87.6228ZM88.6818 68.4506C88.5768 68.9293 87.9848 69.429 87.0149 69.8573C86.7923 69.9496 85.7678 70.4115 85.3269 71.457C85.1338 71.9189 84.9826 72.6621 85.3773 73.6027C85.4571 73.884 86.0617 76.0716 84.9196 76.6847L83.9791 77.1885L84.5333 78.0955C84.6467 78.2803 85.0204 79.0948 84.7936 79.7037C84.7055 79.9346 84.5249 80.1404 84.2562 80.3125C82.9923 77.9318 79.2049 71.1505 74.0781 65.2301C76.5512 63.0089 79.5198 61.1656 82.9629 59.7085C83.2862 60.5399 83.7523 61.4469 84.4073 62.4084L88.3165 67.3967L88.3669 67.4555C88.3627 67.4597 88.791 67.9468 88.6818 68.4506ZM41.4442 81.3119C40.2013 81.3119 39.1894 82.3196 39.1894 83.5667C39.1894 84.8095 40.1971 85.8173 41.4442 85.8173C42.6871 85.8173 43.6948 84.8095 43.6948 83.5667C43.6948 82.3196 42.6871 81.3119 41.4442 81.3119Z" fill="url(#paint0_linear_893_3397)"/>
<path d="M143.366 44.6548H153.226V86.2048H143.536L143.026 80.1348C140.666 85.0248 134.176 87.3848 129.546 87.4648C117.246 87.5448 108.146 79.9548 108.146 65.3848C108.146 51.0548 117.666 43.5548 129.796 43.6448C135.356 43.6448 140.666 46.2548 143.026 50.3848L143.366 44.6548ZM118.426 65.3848C118.426 73.3048 123.906 78.0248 130.726 78.0248C146.906 78.0248 146.906 52.8248 130.726 52.8248C123.906 52.8248 118.426 57.4548 118.426 65.3848Z" fill="#061033"/>
<path d="M188.784 55.6949C185.834 52.9049 182.464 51.9849 178.504 51.9849C173.614 51.9849 170.924 53.5049 170.924 56.1049C170.924 58.8049 173.364 60.3249 178.674 60.6549C186.514 61.1649 196.454 62.9349 196.454 73.9749C196.454 81.3049 190.484 87.6249 178.594 87.6249C172.024 87.6249 165.444 86.5349 159.384 80.2149L164.444 72.8849C168.404 77.0149 174.134 78.6149 178.774 78.7049C182.644 78.7849 186.274 77.1849 186.274 74.1549C186.274 71.2949 183.924 69.6949 178.014 69.3549C170.174 68.7649 160.824 65.9049 160.824 56.4649C160.824 46.8649 170.764 43.4849 178.354 43.4849C184.844 43.4849 189.724 44.7449 194.534 48.9649L188.784 55.6949Z" fill="#061033"/>
<path d="M213.145 28.1748V62.2148L227.125 45.5348H239.435V46.1248L222.495 65.0848L241.795 86.3148V87.0848H229.405L213.145 68.2848V87.0848H202.865V28.1748H213.145Z" fill="#061033"/>
<path d="M255.268 44.6547L256.028 49.4547C259.228 44.3147 263.528 43.5547 267.738 43.5547C272.038 43.5547 276.168 45.2347 278.438 47.5147L273.808 56.4447C271.698 54.6747 269.758 53.7547 266.388 53.7547C260.998 53.7547 256.028 56.6147 256.028 64.2847V86.1947H245.748V44.6447H255.268V44.6547Z" fill="#061033"/>
<path d="M282.236 44.4849V86.1949H292.516V44.4849H282.236Z" fill="#061033"/>
<path d="M334.736 44.6546H344.586V86.2046H334.906L334.396 80.1346C332.036 85.0246 325.546 87.3846 320.906 87.4646C308.606 87.5546 299.506 79.9646 299.506 65.3946C299.506 51.0646 309.036 43.5646 321.166 43.6546C326.726 43.6546 332.036 46.2646 334.396 50.3946L334.736 44.6546ZM309.796 65.3846C309.796 73.3046 315.276 78.0246 322.106 78.0246C338.276 78.0246 338.276 52.8246 322.106 52.8246C315.276 52.8246 309.796 57.4546 309.796 65.3846Z" fill="#061033"/>
<defs>
<linearGradient id="paint0_linear_893_3397" x1="20" y1="58.6748" x2="93" y2="64.1748" gradientUnits="userSpaceOnUse">
<stop offset="0.057604" stop-color="#24255F"/>
<stop offset="0.286458" stop-color="#33BED6"/>
<stop offset="1" stop-color="#E81F8C"/>
</linearGradient>
</defs>
</svg>
