<svg fill="none" xmlns="http://www.w3.org/2000/svg" viewBox="0 0 368 121"><path d="M53.2053 66.3512c-1.2428 0-2.2548 1.0077-2.2548 2.2548 0 1.2429 1.012 2.2506 2.2548 2.2506 1.2429 0 2.2548-1.0077 2.2548-2.2506s-1.0077-2.2548-2.2548-2.2548ZM42.3428 40.4104c0-1.5662-1.2681-2.8385-2.8343-2.8385-1.5662 0-2.8342 1.2723-2.8342 2.8385 0 1.5662 1.268 2.8385 2.8342 2.8385 1.5662-.0042 2.8343-1.2723 2.8343-2.8385Zm-11.7192 23.686C28.6208 64.0964 27 65.7214 27 67.72c0 1.9987 1.6208 3.6237 3.6236 3.6237 2.0029 0 3.6237-1.625 3.6237-3.6237 0-2.0028-1.6208-3.6236-3.6237-3.6236Zm55.4339-2.8469c-.5626-.8272-.9447-1.5914-1.2177-2.2758 1.0036-.3653 2.0449-.7012 3.124-1.0077l.3779 1.5662 3.8042-3.6027-5.0303-1.4822.3779 1.5536c-1.0875.3065-2.1456.6424-3.1575 1.0077-.147-1.2428.1175-1.9734.1385-2.0196l.0336-.0882c2.1289-6.6805-1.9357-13.4953-2.112-13.7808l-.0294-.0462c-4.2115-6.1682-10.6316-10.0395-18.5634-11.1858-3.2625-.4745-6.1345-.4031-8.0954-.2352a2.8306 2.8306 0 0 0-2.4942-1.478c-1.5662 0-2.8342 1.2639-2.8342 2.8259 0 1.562 1.268 2.8258 2.8342 2.8258a2.8283 2.8283 0 0 0 1.4486-.3989c1.5158 1.3101 3.6615 3.4179 5.6602 6.2522a32.1707 32.1707 0 0 0-4.1528 2.112c-5.786 3.5061-10.1571 8.6876-12.6176 14.8473-1.5326.0378-2.7629 1.2849-2.7629 2.8217 0 .9615.4787 1.8055 1.2135 2.3178-1.6166 7.6798-.2772 15.5611 3.8378 22.3003.5332.8734 1.1085 1.7132 1.7131 2.5236a2.7974 2.7974 0 0 0-.3695 1.394c0 1.562 1.2681 2.8259 2.8343 2.8259.4031 0 .7852-.0882 1.1337-.2394 3.1827 2.9729 6.9743 5.2361 11.1732 6.6427.1176 1.457 1.3353 2.5991 2.8259 2.5991 1.5662 0 2.8342-1.2639 2.8342-2.8258 0-.9238-.445-1.7384-1.1295-2.2549.6005-1.5871 1.6292-3.5312 3.2794-4.4844 1.1967-.6886 2.5529-.76 4.1485-.2099 1.9483 1.1211 6.3403 2.301 9.6407-.9616 2.2716-2.0994 1.6585-5.3158 1.1505-6.9198.7894-.4282 1.3268-1.0203 1.6081-1.7677.3527-.9405.1806-1.8727-.0419-2.5235 1.331-1.3605 1.0707-3.6573.6382-4.9505l-.0294-.0798c-.1638-.3737-.0924-.5501-.0672-.6089.1134-.2729.4745-.4702.5795-.5164l.0503-.021c1.6502-.7264 2.6118-1.688 2.8511-2.8637.2855-1.394-.5668-2.4731-.781-2.7167l-3.8252-4.8707Zm-7.0164-21.112.0126-.0588a24.4563 24.4563 0 0 1 1.6124 2.0994c.231.3947 3.6908 6.4369 1.9105 12.0803-.1092.2897-.5164 1.5662-.1805 3.4934-3.7538 1.5578-6.987 3.5523-9.6785 5.9709-1.1379-1.2177-2.3304-2.3766-3.5649-3.4263.084-.2646.126-.5459.126-.8356 0-1.1253-.6634-2.0953-1.6166-2.5487.0462-1.3017.0084-2.5992-.1217-3.8882-.4829-4.8539-2.1289-8.9857-4.1276-12.3448 5.0135-1.6082 10.3881-1.8139 15.6283-.5416Zm-23.1233-8.3139c.0168-.0503.0294-.1049.042-.1595 4.3669-.3443 13.4995-.1722 20.6292 5.9456-4.8413-.697-9.7121-.2435-14.2931 1.3143-2.2254-3.2626-4.6733-5.6433-6.3781-7.1004Zm-4.7783 53.578c-.3443-.147-.7222-.2267-1.1211-.2267-.315 0-.6131.0503-.8944.1469-.5501-.7348-1.0707-1.4948-1.5536-2.2884-3.8294-6.2731-5.0891-13.6086-3.6027-20.7635 1.4025-.1722 2.4942-1.3605 2.4942-2.8049 0-.8608-.3905-1.6334-.9993-2.154 2.3052-5.7231 6.3781-10.5309 11.7611-13.7976 1.3646-.8272 2.7796-1.5368 4.2325-2.1205 1.9734 3.208 3.6194 7.1802 4.0813 11.8283.1176 1.1715.1512 2.3472.1134 3.5313-1.1757.3443-2.0365 1.4276-2.0365 2.7125 0 1.0413.5668 1.9441 1.4024 2.4354-1.6207 7.5874-6.2563 15.4561-13.8773 23.5012Zm11.7569 9.8968c-3.863-1.3101-7.3565-3.3927-10.3041-6.1178.1679-.3569.2603-.7558.2603-1.1799 0-.4283-.0966-.8272-.2645-1.1925 7.9191-8.3558 12.7436-16.5856 14.4232-24.5761.3191-.0672.6214-.1848.8902-.3485 1.1631.9909 2.2842 2.091 3.3591 3.2499-1.6166 1.6712-3.0148 3.5187-4.1695 5.5468-5.2024 9.1242-4.3165 19.2561-3.4893 23.9505-.2687.1847-.5081.4073-.7054.6676Zm19.6466-7.6756-.0294.0294c-3.0652 3.0484-7.1045.718-7.2767.6172l-.0881-.0503-.0924-.0336c-2.196-.7852-4.1989-.6719-5.9414.3359-1.7636 1.0203-2.9393 2.8006-3.7035 4.4508-.6634-4.8413-.9699-13.5582 3.4431-21.2926 1.0455-1.8349 2.3052-3.5061 3.758-5.0303 5.8785 6.8442 10.0396 14.9607 10.2663 15.4058.1134.2645 1.5998 3.8-.3359 5.5677Zm6.1388-19.1722c-.105.4787-.697.9784-1.6669 1.4067-.2226.0923-1.2471.5542-1.688 1.5997-.1931.4619-.3443 1.2051.0504 2.1457.0798.2813.6844 2.4689-.4577 3.082l-.9405.5038.5542.907c.1134.1848.4871.9993.2603 1.6082-.0881.2309-.2687.4367-.5374.6088-1.2639-2.3807-5.0513-9.162-10.1781-15.0824 2.4731-2.2212 5.4417-4.0645 8.8848-5.5216.3233.8314.7894 1.7384 1.4444 2.6999l3.9092 4.9883.0504.0588c-.0042.0042.4241.4913.3149.9951ZM41.4442 81.3119c-1.2429 0-2.2548 1.0077-2.2548 2.2548 0 1.2428 1.0077 2.2506 2.2548 2.2506 1.2429 0 2.2506-1.0078 2.2506-2.2506 0-1.2471-1.0077-2.2548-2.2506-2.2548Z" fill="url(#a)"/><path d="M143.366 44.6548h9.86v41.55h-9.69l-.51-6.07c-2.36 4.89-8.85 7.25-13.48 7.33-12.3.08-21.4-7.51-21.4-22.08 0-14.33 9.52-21.83 21.65-21.74 5.56 0 10.87 2.61 13.23 6.74l.34-5.73Zm-24.94 20.73c0 7.92 5.48 12.64 12.3 12.64 16.18 0 16.18-25.2 0-25.2-6.82 0-12.3 4.63-12.3 12.56ZM188.784 55.6949c-2.95-2.79-6.32-3.71-10.28-3.71-4.89 0-7.58 1.52-7.58 4.12 0 2.7 2.44 4.22 7.75 4.55 7.84.51 17.78 2.28 17.78 13.32 0 7.33-5.97 13.65-17.86 13.65-6.57 0-13.15-1.09-19.21-7.41l5.06-7.33c3.96 4.13 9.69 5.73 14.33 5.82 3.87.08 7.5-1.52 7.5-4.55 0-2.86-2.35-4.46-8.26-4.8-7.84-.59-17.19-3.45-17.19-12.89 0-9.6 9.94-12.98 17.53-12.98 6.49 0 11.37 1.26 16.18 5.48l-5.75 6.73ZM213.145 28.1748v34.04l13.98-16.68h12.31v.59l-16.94 18.96 19.3 21.23v.77h-12.39l-16.26-18.8v18.8h-10.28v-58.91h10.28ZM255.268 44.6547l.76 4.8c3.2-5.14 7.5-5.9 11.71-5.9 4.3 0 8.43 1.68 10.7 3.96l-4.63 8.93c-2.11-1.77-4.05-2.69-7.42-2.69-5.39 0-10.36 2.86-10.36 10.53v21.91h-10.28v-41.55h9.52v.01ZM282.236 44.4849v41.71h10.28v-41.71h-10.28ZM334.736 44.6546h9.85v41.55h-9.68l-.51-6.07c-2.36 4.89-8.85 7.25-13.49 7.33-12.3.09-21.4-7.5-21.4-22.07 0-14.33 9.53-21.83 21.66-21.74 5.56 0 10.87 2.61 13.23 6.74l.34-5.74Zm-24.94 20.73c0 7.92 5.48 12.64 12.31 12.64 16.17 0 16.17-25.2 0-25.2-6.83 0-12.31 4.63-12.31 12.56Z" fill="#061033"/><defs><linearGradient id="a" x1="20" y1="58.6748" x2="93" y2="64.1748" gradientUnits="userSpaceOnUse"><stop offset=".0576" stop-color="#24255F"/><stop offset=".2865" stop-color="#33BED6"/><stop offset="1" stop-color="#E81F8C"/></linearGradient></defs></svg>