<?xml version="1.0" encoding="utf-8"?>
<!-- Generator: Adobe Illustrator 23.0.3, SVG Export Plug-In . SVG Version: 6.00 Build 0)  -->
<svg version="1.1" id="Layer_1" xmlns="http://www.w3.org/2000/svg" xmlns:xlink="http://www.w3.org/1999/xlink" x="0px" y="0px"
	 viewBox="0 0 1500 211" style="enable-background:new 0 0 1500 211;" xml:space="preserve">
<style type="text/css">
	.st0{fill:#FFFFFF;}
	.st1{fill:#0C213F;}
	.st2{fill:#1AA3DD;}
	.st3{fill:#939598;}
	.st4{fill:#F5841F;}
	.st5{fill:#60C091;}
	.st6{fill:#77C14B;}
	.st7{fill:#07AA4B;}
	.st8{fill:#808285;}
</style>
<g>
	<polygon class="st1" points="215.3,211 364.2,211 364.2,171.7 260.3,171.7 260.3,123.5 346.5,123.5 346.5,84.3 260.3,84.3 
		260.3,39.9 364.9,39.9 364.9,0.6 215.3,0.6 	"/>
	<polygon class="st1" points="542.4,132.4 444.8,0 377.7,0 398.6,26.6 398.6,211 443.6,211 443.6,72.9 544.3,210.3 587.4,210.3 
		587.4,0 542.4,0 	"/>
	<path class="st1" d="M155.2,102.6c19.6-3.8,36.1-22.2,36.1-48.1c0-27.9-20.3-53.8-60.8-53.8H0l20.3,26V211h114.7
		c40.6,0,61.5-25.3,61.5-57C195.8,128,178,105.8,155.2,102.6z M65.2,39.9h55.1h1.3c15.2,0,24.7,8.9,24.7,22.2
		c0,13.3-9.5,22.2-24.7,22.2H65.2V39.9z M123.5,171.7H65.2v-48.2h58.3c17.1,0,26.6,10.8,26.6,24.1
		C150.1,162.8,140,171.7,123.5,171.7z"/>
	<path class="st1" d="M1202.2,133h23.4v24.7c-8.2,7.6-25.3,15.8-43.1,15.8c-37.4,0-64-28.5-64-67.1c0-38.7,26.6-67.2,64-67.2
		c21.5,0,38.7,12,48.2,26.6l35.5-19.6c-15.2-24.1-41.8-45.6-84.3-45.6c-59.6,0-109,41.2-109,105.2s48.8,105.2,109,105.2
		c36.7,0,65.9-15.2,86.2-38V95h-96.3L1202.2,133z"/>
	<polygon class="st1" points="1009,132.4 911.4,0 844.3,0 865.2,26.6 865.2,211 910.2,211 910.2,72.9 1010.9,210.3 1054,210.3 
		1054,0 1009,0 	"/>
	<path class="st1" d="M1413.3,0h-86.8l20.9,26.6l-3.8,10.1L1276.4,211h50.7l13.3-35.5h44.8h45.8l13.3,35.5h50.7L1413.3,0z
		 M1351.8,135.6l32.9-90.6l32.9,90.6h-33.4H1351.8z"/>
	<rect x="785.7" class="st1" width="45" height="211"/>
	<polygon class="st1" points="766.5,36.7 766.5,0.6 606.5,0.6 606.5,39.9 705.9,39.9 606.5,174.9 606.5,211 766.7,211 766.7,171.7 
		664.7,171.7 	"/>
</g>
</svg>
