<svg fill="none" xmlns="http://www.w3.org/2000/svg" viewBox="0 0 159 42"><g clip-path="url(#a)" fill="#fff"><path d="M55.703 19.119c1.637-1.401 3.566-2.102 5.786-2.102 2.527 0 4.703.927 6.528 2.78a9.24 9.24 0 0 1 2.028 3.06c.457 1.16.687 2.4.676 3.651 0 2.644-.901 4.882-2.703 6.714-1.824 1.853-4 2.78-6.528 2.78-2.549 0-4.724-.927-6.527-2.78-1.803-1.854-2.704-4.091-2.703-6.714V10.642a1.737 1.737 0 0 1 .486-1.263 1.639 1.639 0 0 1 1.228-.5c.458-.01.901.17 1.228.5.336.33.52.788.507 1.264l-.006 8.476ZM61.49 32.46a5.439 5.439 0 0 0 2.258-.474 5.863 5.863 0 0 0 1.838-1.289 6.14 6.14 0 0 0 1.236-1.89 6.048 6.048 0 0 0 0-4.595 6.143 6.143 0 0 0-1.236-1.89 5.864 5.864 0 0 0-1.838-1.29 5.647 5.647 0 0 0-4.532 0 5.874 5.874 0 0 0-3.058 3.17 6.091 6.091 0 0 0 0 4.611 5.874 5.874 0 0 0 3.058 3.17c.717.32 1.491.483 2.273.477h.001ZM77.345 13.642c-.003.996-.69 1.85-1.64 2.04-.95.191-1.899-.335-2.266-1.257a2.12 2.12 0 0 1 .759-2.53 1.987 1.987 0 0 1 2.56.272c.385.388.597.921.587 1.475Zm-3.741 20.58V18.797a1.743 1.743 0 0 1 .507-1.263c.321-.331.757-.517 1.211-.517.455 0 .89.186 1.212.517.33.333.516.788.518 1.263v15.427c-.002.475-.188.93-.518 1.263-.321.331-.757.517-1.212.517-.454 0-.89-.186-1.21-.517a1.742 1.742 0 0 1-.508-1.263ZM83.296 18.78v.339a9.377 9.377 0 0 1 2.686-1.565 8.776 8.776 0 0 1 3.099-.542c.52.002 1.04.036 1.558.101.523.06 1.037.183 1.532.365.433.154.829.399 1.163.72.31.31.478.742.462 1.187.001.239-.046.476-.14.695-.09.21-.216.402-.371.567a1.616 1.616 0 0 1-1.22.512 1.797 1.797 0 0 1-.725-.186 5.924 5.924 0 0 0-2.258-.424 5.528 5.528 0 0 0-2.258.466 5.854 5.854 0 0 0-3.074 3.161 5.959 5.959 0 0 0-.453 2.323v7.73c-.001.974-.768 1.762-1.714 1.763a1.647 1.647 0 0 1-1.228-.521 1.72 1.72 0 0 1-.507-1.247V18.78c-.007-.47.177-.922.507-1.247.321-.341.766-.53 1.228-.521.946 0 1.713.79 1.714 1.762l-.001.006ZM109.109 30.625a1.64 1.64 0 0 1 1.228.5c.324.334.5.791.486 1.263.001.493-.196.965-.544 1.304-1.704 1.54-3.707 2.31-6.01 2.31-2.55 0-4.726-.926-6.528-2.78-1.802-1.853-2.703-4.09-2.703-6.713 0-2.622.901-4.86 2.703-6.714 1.802-1.854 3.978-2.78 6.528-2.778 2.318 0 4.324.768 6.016 2.305.383.332.601.824.594 1.339.013.474-.163.933-.487 1.271a1.625 1.625 0 0 1-1.229.509 1.715 1.715 0 0 1-1.12-.407 6.314 6.314 0 0 0-1.764-1.102 5.314 5.314 0 0 0-2.01-.373 5.525 5.525 0 0 0-2.258.466 5.92 5.92 0 0 0-1.846 1.271 5.926 5.926 0 0 0-1.244 1.89 6.176 6.176 0 0 0 0 4.645 5.92 5.92 0 0 0 1.244 1.89 5.91 5.91 0 0 0 1.846 1.272 5.52 5.52 0 0 0 2.258.467 5.42 5.42 0 0 0 2.01-.364 5.906 5.906 0 0 0 1.747-1.094c.313-.24.692-.372 1.083-.377ZM116.279 34.223c.004.473-.177.928-.503 1.263a1.69 1.69 0 0 1-1.227.517 1.625 1.625 0 0 1-1.212-.522 1.738 1.738 0 0 1-.507-1.264V10.66a1.738 1.738 0 0 1 .507-1.264c.321-.33.757-.517 1.211-.517.455 0 .89.186 1.211.517.331.333.518.788.52 1.264v8.137c1.461-1.164 3.181-1.746 5.159-1.746a7.975 7.975 0 0 1 3.288.695 9 9 0 0 1 2.745 1.891 8.956 8.956 0 0 1 1.879 2.814 8.681 8.681 0 0 1 .692 3.45v8.324c-.002.476-.189.93-.52 1.264-.321.33-.757.516-1.211.516-.455 0-.89-.186-1.211-.517a1.743 1.743 0 0 1-.508-1.263v-8.325a5.169 5.169 0 0 0-.412-2.051 5.342 5.342 0 0 0-2.752-2.831 4.799 4.799 0 0 0-1.994-.424 4.858 4.858 0 0 0-2.002.416 5.319 5.319 0 0 0-2.748 2.836 5.276 5.276 0 0 0-.404 2.051l-.001 8.327ZM146.972 34.24v-.34a9.385 9.385 0 0 1-2.687 1.566 8.773 8.773 0 0 1-3.098.542c-2.55 0-4.726-.927-6.528-2.78-1.802-1.853-2.703-4.091-2.703-6.714 0-2.622.901-4.86 2.703-6.714 1.802-1.854 3.978-2.78 6.528-2.78 2.527 0 4.703.927 6.528 2.78 1.8 1.851 2.7 4.088 2.7 6.71v7.731c-.002.973-.768 1.762-1.714 1.763a1.648 1.648 0 0 1-1.229-.522 1.72 1.72 0 0 1-.5-1.242Zm-5.786-13.68a5.483 5.483 0 0 0-2.275.474 5.879 5.879 0 0 0-3.058 3.17 6.092 6.092 0 0 0 0 4.61 5.879 5.879 0 0 0 3.058 3.17 5.647 5.647 0 0 0 4.532 0 5.862 5.862 0 0 0 1.839-1.288 6.154 6.154 0 0 0 1.236-1.89 6.043 6.043 0 0 0 0-4.596 6.156 6.156 0 0 0-1.236-1.89 5.875 5.875 0 0 0-1.839-1.289 5.441 5.441 0 0 0-2.257-.472ZM152.214 34.24V10.659c-.01-.472.165-.927.487-1.264a1.716 1.716 0 0 1 2.455 0c.322.337.497.793.487 1.264V32.46h.791c.457-.006.896.183 1.212.522.332.33.515.788.507 1.263-.001.973-.768 1.762-1.714 1.763h-2.521a1.6 1.6 0 0 1-1.203-.522 1.736 1.736 0 0 1-.501-1.246ZM12.873 37.322c2.797 2.905 6.213 4.374 10.162 4.374 3.918 0 7.333-1.468 10.151-4.352 2.786-2.863 4.195-6.395 4.195-10.51a15.514 15.514 0 0 0-1.046-5.704l-.01-.021a14.615 14.615 0 0 0-3.15-4.807c-2.817-2.895-6.233-4.364-10.15-4.364-1.624 0-3.424.002-4.857 0v8.177h4.856c.865 0 1.698.184 2.477.53.758.334 1.44.82 2.028 1.436a7.039 7.039 0 0 1 1.377 2.139 6.914 6.914 0 0 1 0 5.184 6.91 6.91 0 0 1-1.377 2.139 6.466 6.466 0 0 1-2.039 1.447 5.84 5.84 0 0 1-2.412.519h-.107a5.815 5.815 0 0 1-2.434-.53c-1.537-.69-2.732-1.954-3.383-3.564-.673-1.653-.512-3.69-.512-5.217V11.937l.01-7.268a4.044 4.044 0 0 0-1.174-2.928A3.88 3.88 0 0 0 12.702.564H12.585c-1.036 0-2.05.432-2.775 1.188A4.123 4.123 0 0 0 8.689 4.67v22.143c0 4.083 1.409 7.615 4.184 10.51ZM7.162 20.08H4.6c-2.195 0-3.974-1.822-3.974-4.07 0-2.247 1.779-4.069 3.974-4.069h2.563v8.139Z"/></g><defs><clipPath id="a"><path fill="#fff" transform="translate(.625 .564)" d="M0 0h157.529v41.133H0z"/></clipPath></defs></svg>