<svg width="159" height="42" viewBox="0 0 159 42" fill="none" xmlns="http://www.w3.org/2000/svg">
<g clip-path="url(#clip0_607_3401)">
<path d="M55.7031 19.1188C57.3402 17.7175 59.2689 17.0169 61.4891 17.0169C64.0162 17.0169 66.1921 17.9435 68.0168 19.7968C68.8871 20.6654 69.5772 21.7064 70.0452 22.857C70.502 24.0164 70.7316 25.2571 70.721 26.508C70.721 29.1523 69.82 31.3902 68.0181 33.2218C66.1942 35.075 64.0183 36.0017 61.4904 36.0017C58.9413 36.0017 56.7655 35.075 54.9627 33.2218C53.1599 31.3685 52.259 29.1305 52.2598 26.508V10.6421C52.2456 10.1702 52.4216 9.7133 52.7462 9.37948C53.0708 9.04565 53.515 8.86462 53.9738 8.87924C54.4322 8.86894 54.8752 9.04949 55.2023 9.37994C55.5375 9.70838 55.7217 10.1674 55.7094 10.6434L55.7031 19.1188ZM61.4891 32.4603C62.2657 32.4657 63.0348 32.304 63.747 31.9857C64.434 31.6808 65.058 31.2435 65.5853 30.6974C66.1086 30.1522 66.5278 29.5109 66.8213 28.8067C67.4258 27.3382 67.4258 25.6804 66.8213 24.2118C66.5278 23.5077 66.1086 22.8664 65.5853 22.3211C65.058 21.7751 64.434 21.3378 63.747 21.0329C62.2989 20.4001 60.6629 20.4001 59.2148 21.0329C57.8342 21.6413 56.7377 22.778 56.1569 24.2027C55.5528 25.6767 55.5528 27.3392 56.1569 28.8133C56.7377 30.2379 57.8342 31.3746 59.2148 31.983C59.9319 32.3033 60.7061 32.4658 61.4879 32.4603H61.4891Z" fill="white"/>
<path d="M77.3451 13.642C77.3419 14.6376 76.6552 15.4922 75.705 15.6828C74.7549 15.8734 73.8062 15.3469 73.4395 14.4255C73.0728 13.5041 73.3902 12.4446 74.1975 11.8952C75.0048 11.3458 76.0771 11.4598 76.7581 12.1673C77.1431 12.5546 77.3554 13.0882 77.3451 13.642ZM73.604 34.2227V18.7963C73.5959 18.3211 73.7794 17.8638 74.1111 17.5328C74.4321 17.202 74.8679 17.0161 75.3224 17.0161C75.7769 17.0161 76.2127 17.202 76.5337 17.5328C76.8636 17.8659 77.0503 18.3208 77.0523 18.7963V34.2227C77.0505 34.6982 76.8637 35.1532 76.5337 35.4862C76.2127 35.8171 75.7769 36.003 75.3224 36.003C74.8679 36.003 74.4321 35.8171 74.1111 35.4862C73.7793 35.1554 73.5957 34.6979 73.604 34.2227Z" fill="white"/>
<path d="M83.2959 18.7796V19.1186C84.1018 18.449 85.0094 17.9204 85.9823 17.5539C86.9761 17.1876 88.0249 17.004 89.0807 17.0115C89.6015 17.0139 90.1218 17.0478 90.6387 17.1132C91.1616 17.1736 91.676 17.2961 92.1715 17.4783C92.6038 17.6316 92.9999 17.8768 93.334 18.198C93.6439 18.5087 93.8116 18.9398 93.7955 19.3846C93.7974 19.6238 93.7499 19.8607 93.656 20.0796C93.5655 20.2896 93.4398 20.4816 93.2846 20.6468C93.1307 20.8112 92.9455 20.9412 92.7407 21.0288C92.5263 21.1186 92.2964 21.1629 92.065 21.1592C91.8134 21.1488 91.5666 21.0853 91.3398 20.9727C90.6202 20.6852 89.8539 20.5413 89.0819 20.549C88.3063 20.5435 87.5377 20.7019 86.824 21.0145C85.4376 21.6158 84.3344 22.7504 83.7497 24.1764C83.4455 24.9104 83.2915 25.7009 83.2971 26.4987V34.2295C83.2957 35.2025 82.5292 35.9909 81.5831 35.9924C81.1211 36.0008 80.6763 35.812 80.3547 35.4708C80.025 35.1455 79.8413 34.6941 79.8476 34.2243V18.7796C79.8413 18.3097 80.025 17.8583 80.3547 17.5331C80.6764 17.192 81.1211 17.0032 81.5831 17.0115C82.5292 17.0129 83.2957 17.8014 83.2971 18.7744L83.2959 18.7796Z" fill="white"/>
<path d="M109.109 30.6254C109.568 30.6108 110.012 30.7918 110.337 31.1256C110.661 31.4595 110.837 31.9164 110.823 32.3883C110.824 32.8814 110.627 33.3531 110.279 33.6922C108.575 35.2325 106.572 36.0027 104.269 36.0027C101.719 36.0027 99.5429 35.0761 97.741 33.2228C95.939 31.3695 95.0381 29.1316 95.0381 26.509C95.0381 23.8873 95.939 21.6494 97.741 19.7952C99.5429 17.9411 101.719 17.0149 104.269 17.0166C106.587 17.0166 108.593 17.785 110.285 19.3219C110.668 19.6544 110.886 20.1458 110.879 20.661C110.892 21.1353 110.716 21.5944 110.392 21.9323C110.07 22.271 109.624 22.4554 109.163 22.4408C108.755 22.4442 108.359 22.3003 108.043 22.034C107.517 21.5702 106.922 21.198 106.279 20.9322C105.638 20.6787 104.956 20.5522 104.269 20.5593C103.493 20.5538 102.724 20.7122 102.011 21.0248C101.323 21.3252 100.697 21.7565 100.165 22.2961C99.6349 22.8373 99.2125 23.4795 98.9212 24.1868C98.3169 25.6725 98.3169 27.3455 98.9212 28.8312C99.2124 29.5386 99.6348 30.1808 100.165 30.7219C100.697 31.2618 101.323 31.6931 102.011 31.9932C102.724 32.3064 103.493 32.4653 104.269 32.46C104.955 32.4674 105.637 32.344 106.279 32.0962C106.919 31.838 107.51 31.4679 108.026 31.0022C108.339 30.7621 108.718 30.6301 109.109 30.6254Z" fill="white"/>
<path d="M116.279 34.2227C116.283 34.6959 116.102 35.1509 115.776 35.4855C115.451 35.8201 115.009 36.0064 114.549 36.0026C114.092 36.009 113.653 35.8201 113.337 35.481C113.005 35.1502 112.821 34.6927 112.83 34.2175V10.6586C112.821 10.1835 113.005 9.72601 113.337 9.39517C113.658 9.06433 114.094 8.87842 114.548 8.87842C115.003 8.87842 115.438 9.06433 115.759 9.39517C116.09 9.72805 116.277 10.183 116.279 10.6586V18.7963C117.74 17.6323 119.46 17.0504 121.438 17.0504C122.569 17.0455 123.689 17.2821 124.726 17.7453C125.747 18.1964 126.677 18.8373 127.471 19.636C128.267 20.4409 128.905 21.3963 129.35 22.4498C129.813 23.5373 130.049 24.7127 130.042 25.8999V34.224C130.04 34.6997 129.853 35.1547 129.522 35.4875C129.201 35.8183 128.765 36.0043 128.311 36.0043C127.856 36.0043 127.421 35.8183 127.1 35.4875C126.768 35.1566 126.584 34.6992 126.592 34.224V25.8986C126.596 25.1929 126.455 24.4942 126.18 23.8476C125.648 22.577 124.663 21.5641 123.428 21.0168C122.799 20.7339 122.12 20.5896 121.434 20.5931C120.746 20.5879 120.064 20.7295 119.432 21.009C118.196 21.5564 117.212 22.5718 116.684 23.845C116.414 24.493 116.277 25.1912 116.28 25.896L116.279 34.2227Z" fill="white"/>
<path d="M146.972 34.2398V33.9008C146.166 34.5703 145.258 35.0989 144.285 35.4655C143.291 35.8318 142.243 36.0154 141.187 36.0079C138.637 36.0079 136.461 35.0813 134.659 33.228C132.857 31.3747 131.956 29.1368 131.956 26.5142C131.956 23.8925 132.857 21.6546 134.659 19.8004C136.461 17.9463 138.637 17.0196 141.187 17.0205C143.714 17.0205 145.89 17.9471 147.715 19.8004C149.515 21.6511 150.415 23.8877 150.415 26.5103V34.2411C150.413 35.2141 149.647 36.0026 148.701 36.004C148.239 36.0125 147.794 35.8236 147.472 35.4824C147.146 35.157 146.965 34.7073 146.972 34.2398ZM141.186 20.5593C140.404 20.5528 139.629 20.7145 138.911 21.0339C137.531 21.6426 136.434 22.7792 135.853 24.2037C135.249 25.6777 135.249 27.3403 135.853 28.8143C136.434 30.2388 137.531 31.3754 138.911 31.9841C140.359 32.6169 141.995 32.6169 143.443 31.9841C144.131 31.6792 144.754 31.2419 145.282 30.6958C145.805 30.1507 146.224 29.5094 146.518 28.8052C147.123 27.3366 147.123 25.6787 146.518 24.2102C146.224 23.5061 145.805 22.8648 145.282 22.3196C144.754 21.7735 144.13 21.3363 143.443 21.0313C142.731 20.7141 141.962 20.5533 141.186 20.5593Z" fill="white"/>
<path d="M152.214 34.24V10.6589C152.204 10.1875 152.379 9.73188 152.701 9.39546C153.382 8.70607 154.475 8.70607 155.156 9.39546C155.478 9.73188 155.653 10.1875 155.643 10.6589V32.4602H156.434C156.891 32.4537 157.33 32.6426 157.646 32.9817C157.978 33.3126 158.161 33.77 158.153 34.2452C158.152 35.2182 157.385 36.0066 156.439 36.0081H153.918C153.463 36.015 153.027 35.8258 152.715 35.4865C152.389 35.159 152.208 34.7085 152.214 34.24Z" fill="white"/>
<path d="M12.8731 37.3219C15.6698 40.2275 19.0856 41.6965 23.0351 41.6965C26.9525 41.6965 30.3683 40.2275 33.1863 37.3435C35.9723 34.481 37.3813 30.9489 37.3813 26.8335C37.392 24.8676 37.0398 22.9557 36.3353 21.1303L36.3246 21.1086C35.5881 19.294 34.5313 17.6737 33.1757 16.3019C30.3576 13.4071 26.9419 11.9381 23.0244 11.9381C21.4012 11.9381 19.6014 11.9395 18.1677 11.9389V20.1149H23.0244C23.889 20.1149 24.7216 20.2985 25.5008 20.6442C26.2587 20.979 26.9419 21.4651 27.5289 22.0808C28.116 22.7073 28.575 23.4202 28.9059 24.2195C29.5784 25.8722 29.5784 27.7624 28.9059 29.4043C28.575 30.2036 28.116 30.9273 27.5289 31.543C26.9419 32.1587 26.2587 32.6448 25.4902 32.9904C24.7216 33.3361 23.9104 33.5089 23.0778 33.5089H22.971C22.1384 33.5089 21.3165 33.3361 20.5373 32.9796C19.0002 32.2883 17.8047 31.0245 17.1535 29.4151C16.481 27.7624 16.6422 25.7248 16.6422 24.1979V20.1149L16.6412 11.9367L16.6518 4.66858C16.6732 3.57762 16.2462 2.50826 15.4777 1.74134C14.7305 0.985227 13.7484 0.563965 12.7023 0.563965H12.6596H12.5849C11.5495 0.563965 10.5354 0.99603 9.80959 1.75214C9.07307 2.51906 8.66744 3.58842 8.68879 4.66858V26.8119C8.68879 30.8949 10.0978 34.427 12.8731 37.3219Z" fill="white"/>
<path d="M7.16248 20.08C6.52153 20.08 6.79337 20.08 4.59865 20.08C2.40393 20.08 0.624756 18.258 0.624756 16.0105C0.624756 13.763 2.40393 11.941 4.59865 11.941C5.60913 11.941 6.52153 11.9409 7.16248 11.9409C7.16248 12.8161 7.16248 18.8673 7.16248 20.08Z" fill="white"/>
</g>
<defs>
<clipPath id="clip0_607_3401">
<rect width="157.529" height="41.1326" fill="white" transform="translate(0.624756 0.563965)"/>
</clipPath>
</defs>
</svg>
