<svg width="173" height="45" viewBox="0 0 173 45" fill="none" xmlns="http://www.w3.org/2000/svg">
<g clip-path="url(#clip0_164_2138)">
<path d="M60.2574 20.2989C62.0484 18.7659 64.1584 17.9994 66.5874 17.9994C69.3521 17.9994 71.7326 19.0131 73.7289 21.0407C74.681 21.9909 75.4359 23.1299 75.948 24.3887C76.4477 25.657 76.699 27.0144 76.6873 28.3828C76.6873 31.2758 75.7016 33.7241 73.7303 35.7279C71.7349 37.7554 69.3544 38.7692 66.5888 38.7692C63.8001 38.7692 61.4196 37.7554 59.4474 35.7279C57.4751 33.7004 56.4895 31.252 56.4904 28.3828V11.0252C56.4748 10.509 56.6674 10.0091 57.0225 9.64387C57.3776 9.27866 57.8636 9.08061 58.3655 9.0966C58.867 9.08533 59.3517 9.28286 59.7095 9.64438C60.0762 10.0037 60.2778 10.5059 60.2643 11.0267L60.2574 20.2989ZM66.5874 34.8948C67.437 34.9007 68.2784 34.7238 69.0576 34.3756C69.8093 34.042 70.4919 33.5636 71.0687 32.9662C71.6412 32.3697 72.0999 31.6681 72.421 30.8978C73.0823 29.2911 73.0823 27.4774 72.421 25.8708C72.0999 25.1004 71.6412 24.3988 71.0687 23.8024C70.4919 23.205 69.8092 22.7266 69.0576 22.393C67.4734 21.7007 65.6835 21.7007 64.0992 22.393C62.5888 23.0586 61.3892 24.3022 60.7539 25.8608C60.093 27.4735 60.093 29.2922 60.7539 30.9049C61.3892 32.4635 62.5888 33.7071 64.0992 34.3727C64.8837 34.7231 65.7308 34.9009 66.5861 34.8948H66.5874Z" fill="#223AD3"/>
<path d="M83.9343 14.3075C83.9308 15.3968 83.1794 16.3317 82.14 16.5402C81.1005 16.7487 80.0627 16.1728 79.6614 15.1647C79.2602 14.1567 79.6075 12.9975 80.4907 12.3965C81.3739 11.7955 82.547 11.9201 83.2921 12.6942C83.7132 13.118 83.9456 13.7017 83.9343 14.3075ZM79.8414 36.8234V19.9465C79.8325 19.4267 80.0333 18.9263 80.3961 18.5642C80.7474 18.2023 81.2242 17.9989 81.7214 17.9989C82.2186 17.9989 82.6954 18.2023 83.0466 18.5642C83.4075 18.9286 83.6118 19.4263 83.6139 19.9465V36.8234C83.6119 37.3436 83.4076 37.8413 83.0466 38.2057C82.6954 38.5676 82.2186 38.771 81.7214 38.771C81.2242 38.771 80.7474 38.5676 80.3961 38.2057C80.0332 37.8437 79.8323 37.3432 79.8414 36.8234Z" fill="#223AD3"/>
<path d="M90.4444 19.9278V20.2987C91.3261 19.5661 92.319 18.9878 93.3834 18.5869C94.4707 18.1861 95.6181 17.9853 96.7731 17.9935C97.3429 17.996 97.9121 18.0332 98.4777 18.1047C99.0497 18.1708 99.6124 18.3049 100.154 18.5041C100.627 18.6719 101.061 18.9402 101.426 19.2916C101.765 19.6315 101.949 20.103 101.931 20.5897C101.933 20.8514 101.881 21.1105 101.779 21.35C101.68 21.5798 101.542 21.7898 101.372 21.9705C101.204 22.1504 101.001 22.2926 100.777 22.3885C100.543 22.4867 100.291 22.5352 100.038 22.5311C99.7628 22.5197 99.4927 22.4503 99.2446 22.3272C98.4574 22.0125 97.619 21.8552 96.7745 21.8635C95.9259 21.8575 95.0851 22.0309 94.3043 22.3728C92.7875 23.0307 91.5806 24.272 90.9409 25.8321C90.6081 26.635 90.4396 27.4998 90.4458 28.3726V36.8304C90.4442 37.8949 89.6056 38.7574 88.5706 38.759C88.0652 38.7683 87.5786 38.5617 87.2266 38.1884C86.8659 37.8325 86.665 37.3387 86.6719 36.8246V19.9278C86.665 19.4138 86.8659 18.9199 87.2266 18.5641C87.5787 18.1909 88.0652 17.9843 88.5706 17.9935C89.6056 17.995 90.4442 18.8576 90.4458 19.9221L90.4444 19.9278Z" fill="#223AD3"/>
<path d="M118.684 32.8879C119.186 32.8719 119.672 33.0699 120.027 33.4351C120.382 33.8004 120.575 34.3003 120.559 34.8165C120.56 35.356 120.345 35.8721 119.964 36.243C118.1 37.9282 115.908 38.7707 113.389 38.7707C110.599 38.7707 108.219 37.757 106.247 35.7295C104.276 33.7019 103.29 31.2536 103.29 28.3844C103.29 25.5162 104.276 23.0679 106.247 21.0394C108.219 19.0109 110.599 17.9976 113.389 17.9995C115.925 17.9995 118.119 18.8402 119.971 20.5216C120.39 20.8854 120.628 21.4229 120.62 21.9866C120.634 22.5054 120.442 23.0077 120.088 23.3774C119.735 23.7479 119.248 23.9497 118.744 23.9337C118.297 23.9374 117.863 23.78 117.518 23.4887C116.943 22.9812 116.291 22.574 115.588 22.2833C114.887 22.0059 114.14 21.8675 113.389 21.8753C112.54 21.8693 111.699 22.0426 110.919 22.3846C110.166 22.7132 109.481 23.1851 108.899 23.7754C108.319 24.3675 107.857 25.07 107.539 25.8438C106.877 27.4693 106.877 29.2995 107.539 30.925C107.857 31.6989 108.319 32.4015 108.899 32.9934C109.481 33.584 110.166 34.056 110.919 34.3843C111.699 34.7269 112.54 34.9008 113.389 34.895C114.14 34.903 114.885 34.7681 115.588 34.497C116.288 34.2145 116.935 33.8096 117.5 33.3001C117.842 33.0374 118.257 32.893 118.684 32.8879Z" fill="#223AD3"/>
<path d="M126.529 36.8235C126.533 37.3412 126.335 37.8389 125.979 38.205C125.623 38.5711 125.139 38.7749 124.636 38.7706C124.136 38.7777 123.656 38.571 123.31 38.2C122.947 37.8381 122.746 37.3376 122.755 36.8178V11.0438C122.746 10.5239 122.947 10.0235 123.31 9.66153C123.661 9.29959 124.138 9.09619 124.635 9.09619C125.133 9.09619 125.609 9.29959 125.961 9.66153C126.322 10.0257 126.527 10.5234 126.529 11.0438V19.9466C128.128 18.6732 130.009 18.0365 132.173 18.0365C133.41 18.0312 134.635 18.2901 135.771 18.7968C136.887 19.2902 137.905 19.9915 138.773 20.8652C139.645 21.7458 140.343 22.7911 140.829 23.9436C141.336 25.1334 141.594 26.4193 141.586 27.7181V36.8249C141.584 37.3453 141.379 37.8431 141.017 38.2072C140.666 38.5691 140.189 38.7725 139.692 38.7725C139.195 38.7725 138.718 38.5691 138.367 38.2072C138.004 37.8451 137.803 37.3447 137.812 36.8249V27.7167C137.816 26.9446 137.662 26.1802 137.361 25.4728C136.779 24.0827 135.702 22.9746 134.35 22.3759C133.663 22.0664 132.919 21.9085 132.169 21.9123C131.416 21.9067 130.67 22.0616 129.979 22.3673C128.626 22.9662 127.55 24.0771 126.972 25.47C126.677 26.1789 126.527 26.9427 126.531 27.7139L126.529 36.8235Z" fill="#223AD3"/>
<path d="M160.107 36.8422V36.4713C159.225 37.2038 158.233 37.7821 157.168 38.1831C156.081 38.5839 154.934 38.7847 153.779 38.7766C150.989 38.7766 148.608 37.7628 146.637 35.7353C144.666 33.7077 143.68 31.2594 143.68 28.3902C143.68 25.522 144.666 23.0737 146.637 21.0452C148.608 19.0167 150.989 18.003 153.779 18.0039C156.543 18.0039 158.924 19.0177 160.92 21.0452C162.89 23.0699 163.874 25.5168 163.874 28.386V36.8437C163.873 37.9082 163.034 38.7707 161.999 38.7723C161.494 38.7816 161.007 38.575 160.655 38.2017C160.298 37.8456 160.1 37.3537 160.107 36.8422ZM153.777 21.8754C152.922 21.8684 152.074 22.0452 151.289 22.3947C149.779 23.0606 148.579 24.304 147.944 25.8625C147.282 27.4751 147.282 29.294 147.944 30.9066C148.579 32.465 149.779 33.7085 151.289 34.3744C152.873 35.0667 154.663 35.0667 156.247 34.3744C156.999 34.0409 157.682 33.5625 158.258 32.965C158.831 32.3687 159.29 31.6671 159.611 30.8966C160.272 29.29 160.272 27.4762 159.611 25.8696C159.29 25.0993 158.831 24.3977 158.258 23.8012C157.682 23.2038 156.999 22.7254 156.247 22.3918C155.468 22.0448 154.627 21.8689 153.777 21.8754Z" fill="#223AD3"/>
<path d="M165.842 36.8418V11.0436C165.831 10.5279 166.024 10.0294 166.375 9.66136C167.12 8.90715 168.316 8.90715 169.062 9.66136C169.413 10.0294 169.605 10.5279 169.594 11.0436V34.8947H170.46C170.959 34.8876 171.44 35.0943 171.786 35.4653C172.148 35.8273 172.349 36.3277 172.34 36.8476C172.339 37.9121 171.5 38.7746 170.465 38.7762H167.706C167.209 38.7837 166.732 38.5768 166.39 38.2056C166.034 37.8473 165.836 37.3544 165.842 36.8418Z" fill="#223AD3"/>
<path d="M13.4002 40.214C16.4599 43.3929 20.1968 45 24.5176 45C28.8034 45 32.5404 43.3929 35.6234 40.2377C38.6713 37.1061 40.2128 33.2419 40.2128 28.7395C40.2245 26.5888 39.8391 24.4971 39.0684 22.5L39.0567 22.4764C38.2509 20.4911 37.0948 18.7185 35.6117 17.2177C32.5287 14.0507 28.7918 12.4435 24.506 12.4435C22.7301 12.4435 20.7611 12.4451 19.1926 12.4445V21.3892H24.506C25.4519 21.3892 26.3627 21.5901 27.2152 21.9682C28.0444 22.3346 28.7918 22.8663 29.434 23.5399C30.0763 24.2253 30.5785 25.0053 30.9405 25.8797C31.6762 27.6878 31.6762 29.7558 30.9405 31.552C30.5785 32.4265 30.0763 33.2182 29.434 33.8918C28.7918 34.5654 28.0444 35.0972 27.2036 35.4753C26.3628 35.8535 25.4752 36.0425 24.5643 36.0425H24.4476C23.5367 36.0425 22.6375 35.8535 21.785 35.4635C20.1034 34.7072 18.7954 33.3246 18.0831 31.5638C17.3474 29.7558 17.5237 27.5266 17.5237 25.8561V21.3892L17.5225 12.442L17.5342 4.49055C17.5576 3.29701 17.0905 2.1271 16.2497 1.28808C15.4322 0.460871 14.3578 0 13.2134 0H13.1667H13.0849C11.9522 0 10.8428 0.472689 10.0487 1.2999C9.24288 2.13892 8.79912 3.30882 8.82247 4.49055V28.7159C8.82247 33.1828 10.364 37.047 13.4002 40.214Z" fill="#223AD3"/>
<path d="M7.15242 21.3511C6.4512 21.3511 6.74861 21.3511 4.34754 21.3511C1.94646 21.3511 0 19.3579 0 16.899C0 14.4402 1.94646 12.4469 4.34754 12.4469C5.45302 12.4469 6.4512 12.4468 7.15242 12.4468C7.15242 13.4042 7.15242 20.0244 7.15242 21.3511Z" fill="#223AD3"/>
</g>
<defs>
<clipPath id="clip0_164_2138">
<rect width="172.34" height="45" fill="white"/>
</clipPath>
</defs>
</svg>
