<svg width="80" height="20" viewBox="0 0 80 20" fill="none" xmlns="http://www.w3.org/2000/svg">
<path fill-rule="evenodd" clip-rule="evenodd" d="M21.6475 0.963945C21.3942 0.64383 20.917 0.761664 20.5831 0.873606C19.975 1.15029 19.3758 1.44689 18.7763 1.74357C18.278 1.99019 17.7796 2.23687 17.2759 2.47222C17.2155 2.50631 17.1488 2.54007 17.0799 2.57495C16.7124 2.76105 16.2816 2.97918 16.3941 3.4522C16.484 3.72865 16.6453 3.97808 16.8062 4.2269C17.0568 4.61442 17.3065 5.00046 17.2838 5.48483C17.3002 8.88192 17.2946 12.279 17.289 15.6761L17.2877 16.461C17.3249 16.9757 17.0619 17.3863 16.7984 17.7977C16.6587 18.0158 16.5188 18.2341 16.4236 18.4681C16.347 18.7391 16.3254 19.2812 16.7358 19.2655C18.0474 19.3118 19.3609 19.3029 20.6743 19.2941H20.6744H20.6744H20.6745H20.6746H20.6746H20.6747H20.6748H20.6748C21.2001 19.2906 21.7254 19.2871 22.2504 19.2871C22.655 19.3735 22.9751 18.9964 22.875 18.6076C22.7645 18.3172 22.5736 18.0621 22.3832 17.8077C22.083 17.4065 21.7842 17.0072 21.8046 16.4748C21.7913 13.4365 21.7937 10.3974 21.7961 7.35809V7.35796V7.35783V7.3577V7.35757C21.7976 5.47585 21.799 3.59402 21.7968 1.71219C21.7906 1.65181 21.7881 1.58924 21.7856 1.52607V1.52602C21.7777 1.32829 21.7696 1.12468 21.6475 0.963945ZM1.14591 1.87397C0.797012 1.87341 0.442879 1.87284 0.121295 2.02056C-0.126129 2.49141 0.160008 2.91074 0.430674 3.3074L0.430676 3.30741L0.430677 3.30741C0.514491 3.43024 0.596822 3.55089 0.661366 3.67023C1.0028 4.13134 1.00355 4.71389 1.00427 5.26524C1.00435 5.32913 1.00444 5.3926 1.00505 5.45541C0.99606 7.13427 0.998177 8.81314 1.00029 10.4918V10.4918C1.0028 12.4813 1.00531 14.4705 0.989336 16.4591C1.00291 16.9826 0.726734 17.4134 0.454627 17.8379C0.372533 17.9659 0.290809 18.0934 0.217526 18.2227C-0.0201056 18.529 -0.0731306 19.2321 0.435518 19.2675C1.46452 19.3114 2.49496 19.3036 3.52554 19.2958C4.19829 19.2907 4.8711 19.2857 5.54361 19.295C5.69497 19.2952 5.84677 19.2957 5.99893 19.2963C8.27098 19.3043 10.6203 19.3125 12.7315 18.3719C13.9785 17.8378 15.1196 16.8165 15.4318 15.4516C15.6361 14.3008 15.5811 13.0184 14.8819 12.0325C14.0708 10.8109 12.6509 10.1491 11.235 9.93898C11.8772 9.65618 12.5272 9.33213 12.9887 8.78814C14.279 7.2995 14.0983 4.78965 12.645 3.47187C11.396 2.25819 9.56762 1.9636 7.89635 1.8929C6.73181 1.87273 5.56728 1.87552 4.40274 1.8783C3.41289 1.88067 2.42303 1.88303 1.43318 1.8713C1.33836 1.87428 1.24234 1.87412 1.14593 1.87397H1.14593H1.14592H1.14592H1.14591ZM5.51807 4.63057C5.55932 4.05122 6.0935 3.66434 6.65124 3.67023C7.47411 3.61524 8.38536 3.74878 9.00595 4.33795C9.75027 5.0096 9.98986 6.06225 9.97808 7.02652C9.97808 7.89653 9.4871 8.8392 8.60924 9.09647C7.88064 9.27518 7.1049 9.28696 6.37041 9.12789C5.79106 8.99827 5.47291 8.39732 5.48862 7.83761C5.48691 7.60493 5.48361 7.37207 5.48032 7.13912V7.13911V7.1391V7.1391V7.13909C5.46848 6.30244 5.45663 5.46471 5.51807 4.63057ZM5.48091 12.745V12.7449V12.7449V12.7449V12.7448C5.48449 12.1623 5.48808 11.5798 5.48272 10.9975L5.61513 10.9984C6.65999 11.005 7.75728 11.012 8.69369 11.5395C10.0606 12.3114 11.017 13.906 10.7833 15.4988C10.6812 16.4218 9.96433 17.2623 9.03541 17.4214C8.3343 17.5353 7.60962 17.5314 6.90655 17.4391C5.99334 17.2957 5.52789 16.3216 5.49844 15.4811C5.46967 14.5701 5.47529 13.6576 5.48091 12.745ZM27.9202 7.49973C29.4226 7.10498 31.1645 7.15212 32.4489 8.12424C32.7227 7.29799 33.5704 7.4063 34.2837 7.49745C34.3943 7.51159 34.5018 7.52532 34.6033 7.53508C34.8928 7.59028 35.189 7.62448 35.4855 7.65873C36.054 7.72438 36.6239 7.79019 37.1505 8.00445C37.6791 8.49356 37.1896 9.107 36.8419 9.54272L36.797 9.59913C36.2557 10.2157 36.2707 11.0308 36.2851 11.8111V11.8113V11.8115V11.8117C36.2884 11.9881 36.2916 12.1627 36.2884 12.3329C36.3003 12.9156 36.2948 13.499 36.2893 14.0824V14.0826V14.0827V14.0828V14.0829V14.0829V14.083C36.2812 14.9368 36.2731 15.7909 36.3198 16.6436C36.3421 17.0593 36.5732 17.4009 36.8025 17.7398C37.0769 18.1454 37.3486 18.5471 37.2566 19.0671C37.1898 19.1142 37.0562 19.2085 36.9875 19.2556C36.0746 19.3189 35.1564 19.3074 34.239 19.2959C33.9033 19.2917 33.5677 19.2875 33.2325 19.287C32.8815 19.3604 32.7163 19.0866 32.5599 18.8271C32.5194 18.7601 32.4795 18.6939 32.4372 18.635C30.2592 20.2238 26.9422 19.5993 25.2198 17.6079C23.904 16.1468 23.6428 14.0297 23.9139 12.1502C24.2183 10.0037 25.8581 8.13799 27.9202 7.49973ZM29.5286 8.58772C28.4583 8.91177 28.1637 10.151 28.0812 11.131C27.9772 13.1656 28.3464 15.2473 29.238 17.0855C29.5188 17.6334 29.9882 18.2638 30.6834 18.2069C31.4984 18.2206 31.956 17.3447 32.0424 16.6377C32.135 15.8322 32.1225 15.0206 32.11 14.209C32.1024 13.7128 32.0948 13.2165 32.1111 12.7217L32.1124 12.5667C32.1216 11.5313 32.1314 10.417 31.5161 9.53432C31.1037 8.89016 30.3161 8.35598 29.5286 8.58772ZM60.4757 7.84748C59.1108 7.22885 57.5593 7.18957 56.0982 7.38203C54.4799 7.66483 52.9893 8.58786 51.9838 9.88011C50.7132 11.5435 50.5482 13.8943 51.3613 15.7954C52.0722 17.3822 53.5196 18.5664 55.1457 19.132C57.577 19.9097 60.4894 19.5601 62.3807 17.7435C64.101 16.2097 64.6254 13.6272 63.9105 11.4768C63.3921 9.82315 62.0331 8.53877 60.4757 7.84748ZM55.4206 9.97634C55.5365 9.46769 55.7427 8.89227 56.2553 8.66053C57.031 8.24418 57.8244 8.9394 58.1838 9.59141C59.2915 11.5416 59.7746 13.8315 59.6508 16.0644C59.5978 16.7891 59.4348 17.6218 58.7966 18.0617C58.2938 18.3406 57.6123 18.2168 57.2294 17.7907C56.3083 16.8205 55.9234 15.487 55.6386 14.2144C55.3342 12.8299 55.126 11.3805 55.4206 9.97634ZM69.1345 7.36441C69.4271 7.25443 69.8828 7.16999 70.0556 7.5117C70.1491 7.82939 70.1415 8.16153 70.1339 8.49193C70.1307 8.63333 70.1275 8.77442 70.1322 8.91392C71.8486 6.43549 76.1554 6.81649 77.5439 9.4481C78.1703 10.5712 78.2637 11.8509 78.3557 13.1122L78.3557 13.1125C78.3794 13.4369 78.403 13.76 78.4355 14.079C78.4665 14.3974 78.482 14.7179 78.4975 15.0385V15.0385C78.5291 15.6927 78.5608 16.347 78.7242 16.9836C78.7985 17.2398 78.9397 17.4826 79.0807 17.725C79.346 18.1811 79.6107 18.6361 79.4273 19.1772C79.1058 19.3279 78.7498 19.3223 78.3982 19.3169C78.2686 19.3148 78.1397 19.3128 78.0133 19.3186C77.4064 19.3035 76.7989 19.3089 76.1913 19.3143C75.3813 19.3215 74.5714 19.3287 73.7634 19.2872C73.4178 19.2636 73.2823 18.92 73.3746 18.6175C73.4523 18.331 73.6126 18.0756 73.7725 17.8209C73.9961 17.4646 74.2189 17.1097 74.2131 16.6733C74.2168 15.8168 74.1591 14.9626 74.1015 14.1088C74.0657 13.5784 74.03 13.0482 74.0089 12.5177C74.0033 12.4398 73.9979 12.3615 73.9925 12.2831C73.9297 11.371 73.8648 10.4297 73.4453 9.60325C73.0603 8.83733 71.882 8.75288 71.3557 9.41079C70.8235 10.1335 70.8058 11.0742 70.8038 11.9344C70.81 12.6081 70.8079 13.2823 70.8058 13.9566V13.9568C70.8032 14.792 70.8006 15.6276 70.8136 16.4631C70.7804 16.964 71.0682 17.3582 71.3525 17.7474C71.689 18.2082 72.0203 18.662 71.8074 19.2774C70.7158 19.3203 69.6234 19.3162 68.5313 19.312H68.5312C67.8255 19.3093 67.1199 19.3066 66.4145 19.3167C66.3401 19.3118 66.2615 19.3121 66.1818 19.3125H66.1817C65.8763 19.3138 65.5531 19.3152 65.3756 19.024C65.2843 18.5215 65.5754 18.1505 65.8706 17.7743C66.0956 17.4874 66.323 17.1976 66.3851 16.8441C66.4838 16.282 66.4731 15.711 66.4624 15.1407V15.1405C66.4572 14.8601 66.4519 14.5799 66.4597 14.3009C66.4512 13.9968 66.4568 13.6919 66.4624 13.3871V13.3867C66.4736 12.7721 66.4848 12.1578 66.3811 11.5514C66.3208 11.1641 66.0345 10.8992 65.7512 10.637C65.4254 10.3356 65.1036 10.0378 65.1341 9.56201C65.3302 9.21223 65.6936 9.03675 66.0474 8.86593C66.1504 8.81616 66.2527 8.76678 66.3497 8.71361C66.7723 8.52175 67.1866 8.31159 67.6009 8.1014C68.1069 7.84469 68.613 7.58793 69.1345 7.36441ZM39.0677 8.3971C39.0379 8.48479 39.0093 8.56918 38.9789 8.6448C38.9205 8.84366 38.8524 9.04123 38.7842 9.23917C38.614 9.73324 38.443 10.2296 38.4192 10.754C38.5468 11.3982 39.3913 11.3452 39.8273 11.0584C40.2169 10.7863 40.5203 10.4092 40.8231 10.033C41.2544 9.49692 41.6845 8.96246 42.3607 8.73514C42.9041 8.62563 43.4582 8.64038 44.0107 8.65508C44.2409 8.66121 44.4709 8.66733 44.6997 8.66444C43.7148 10.1423 42.7422 11.628 41.7696 13.1136C40.797 14.5993 39.8244 16.085 38.8395 17.5628C38.5488 17.9694 38.3524 18.4937 38.5586 18.9847C38.7748 19.3 39.1497 19.2992 39.4985 19.2985C39.5712 19.2983 39.6427 19.2982 39.7114 19.3009C41.1441 19.29 42.5772 19.2925 44.0103 19.2951C45.6674 19.2981 47.3245 19.3011 48.981 19.2832C49.4028 19.3099 49.544 18.872 49.653 18.5339C49.6643 18.499 49.6752 18.4651 49.686 18.4328C49.7631 18.1254 49.8549 17.8205 49.9467 17.5155C50.1311 16.9029 50.3157 16.2898 50.3813 15.6539C50.232 15.1315 49.4995 15.3083 49.1087 15.4301C48.6527 15.7322 48.2972 16.1602 47.9424 16.5874C47.437 17.1961 46.9328 17.8032 46.1412 18.042C45.5428 18.1638 44.9318 18.1491 44.3222 18.1344C44.0276 18.1272 43.7333 18.1201 43.4409 18.1284C45.3242 15.2612 47.2056 12.3939 49.0792 9.51873C49.1167 9.45644 49.1559 9.39327 49.1958 9.32922C49.5025 8.83596 49.8414 8.29093 49.6311 7.6982C49.4659 7.51076 49.2174 7.507 48.9794 7.50339C48.9032 7.50224 48.8281 7.5011 48.7571 7.49396C47.4385 7.50185 46.1199 7.49995 44.8013 7.49806C43.1662 7.49571 41.5311 7.49336 39.896 7.50967C39.3805 7.47552 39.2111 7.97467 39.0677 8.3971Z" fill="white"/>
</svg>
