<svg fill="none" xmlns="http://www.w3.org/2000/svg" viewBox="0 0 1914 367">
  <path
    d="M216.8 2.5c-36.7 6.2-58.7 30.7-63.8 70.8-1.4 11.6-1.4 209.3.1 221.2 4.2 34.1 21.5 57.5 49.7 67 6.9 2.4 17 4.1 28 4.9l6.2.4v-50.7l-4.7-.7c-7.6-1.1-12-3.3-16.3-8.1-8-9.1-7.5-1.3-7.5-123.3 0-84.6.3-109.4 1.3-112.7 3.2-10.8 11.8-18.1 22.2-19.1l5-.5V1l-6.2.1c-3.5.1-9.8.7-14 1.4ZM262 26.3V52h3.3c9.8 0 19.6 7.2 23.2 17 2 5.4 2 8 2 114.5 0 104-.1 109.2-1.9 114.4-3.4 9.9-11.1 16-21.8 17.6l-4.8.6v50.7l7.8-.5c13.8-.9 25.6-3.8 36-8.8 7.9-3.9 11-6.1 17.7-12.9 12.9-12.9 19.9-28.4 22.5-49.8.8-6.6 1-40.4.8-117.3l-.3-108-2.8-10c-5-18.6-13.9-32.9-26-42.1-12.5-9.5-27.9-14.9-45.9-16.1L262 .7v25.6ZM1604.3 2.6c-28.3 4.7-48.2 21.8-57.2 48.9-4.3 13-5.4 22.8-4.8 42.3.3 13.8.9 18.4 3.1 26.6 3.2 12.3 9.4 25.3 17.8 37.1 6.5 9.2 29 32.5 50.1 51.9l11.7 10.7v-77.7l-3.1-3c-5.1-4.9-14.6-18-17.8-24.6-4.4-9.4-6.3-18-6.4-28.8-.1-20.5 7.7-32.1 22.9-33.8l4.4-.5V1l-6.2.1c-3.5.1-10 .7-14.5 1.5Zm33.9 23.5.3 25.4 4.5.6c10.9 1.6 17.8 7.4 21 17.7 1.6 5.1 2 9.3 2 20.8V105h53.3l-.6-18.8c-.4-15.7-.9-20.2-3-28.5-9.2-35-32-53.8-68.3-56.3l-9.4-.7.2 25.4Zm162.3-24c-33.3 4.8-56.6 27.3-63 60.9-4.8 25.7-2.1 53.5 7.4 74.5 7.8 17.1 24 37 48.4 59.3 8.9 8.1 18.3 16.9 20.9 19.5l4.8 4.8v-77.3l-8.1-9.6c-14.4-17.3-20.6-33.6-19.6-51.7 1-18.5 8.5-28.5 22.8-30.2l4.9-.6V35.5c0-8.9-.3-20.3-.6-25.3l-.7-9.2-5.6.1c-3.1.1-8.3.5-11.6 1Zm31.5 24.1v25.5l4.9.6c9.6 1.1 16.8 6.7 20.3 15.6 1.7 4.6 2.2 8.4 2.6 21.3l.4 15.8h53.1l-.6-16.8c-.3-9.2-1.3-20.5-2.2-25.2-7.3-37.2-31.8-59-69.2-61.6l-9.3-.7v25.5ZM0 31.4v25.5l27.8.3c26.8.3 27.9.4 32.5 2.7 5.8 2.8 10.1 8.3 12.5 16 2.5 8.2 2.5 46.1 0 54.2-2.2 7.1-5.3 11.6-10.3 15.1-7 4.9-13.4 5.8-39.2 5.8H0v50.9l28.8.3c27.5.3 28.9.4 33.7 2.6 9.1 4.2 13.2 9.8 16 21.4 2.2 9.2 2.1 57 0 65.3-2.2 8.4-5.7 12.9-12.4 16.2l-5.6 2.8-30.2.3-30.3.3v51.1l34.3-.5c40.4-.6 47-1.6 62.7-9.3 18-8.9 30.3-24.5 36.2-45.9 2.1-7.5 2.2-10.1 2.3-44 0-34.3-.1-36.4-2.3-45-5-19.7-15.8-34.2-31.1-41.6l-7.4-3.6 5.5-3.1c15.4-8.8 24.5-22.7 28.4-43.2 2.1-11 2.8-35.4 1.5-50.3-2.2-23.3-7.8-37.4-19.6-49.2-8.1-8.1-15.4-12.3-27.8-15.9C70.5 7 57.8 6 26.9 6H0v25.4Zm373 152.5V362h55l.2-76.3.3-76.2 14 .1c25.4.1 33.4 5 38.3 23.4 1.2 4.3 1.6 17.2 2.2 61 .6 51.5.8 55.9 2.6 61.5l2 6 28.3.3 28.3.2-.6-2.2c-.4-1.3-1.4-4.8-2.3-7.8-1.4-4.6-1.7-14-2.4-60-.4-31.3-1.2-57.5-1.8-61.4-4.1-25.3-12.7-39.5-28.4-47l-6.9-3.2 6.6-3.9c15.6-9.1 24.8-24.4 28.1-46.4 2-12.9 2-50.3.1-63.1-4-25.9-14.4-41.9-33.8-51.5-16.9-8.3-20.3-8.7-79-9.2L373 5.8v178.1ZM467.5 60c6.9 3.5 11 9.2 13 18.4 2.4 10.8 1.8 53.6-.9 61.3-5.1 14.3-17.5 19.9-42.1 19.1l-9-.3-.3-49.5c-.1-27.2 0-50.1.3-50.8.4-1.1 4-1.3 17.3-1 15.5.3 17.1.5 21.7 2.8ZM570 183.5v177.6l53.8-.3 53.7-.4 8.8-2.7c4.9-1.5 10.9-3.8 13.5-5.1 22.7-11.5 35.3-33.2 38.2-65.9 1.3-14.6 1.3-192.4-.1-206.6-1.4-15.1-3.9-24.6-9.5-36.1-8.8-17.9-23.8-29.5-45.4-35.1-8.1-2.1-10.8-2.3-60.7-2.6L570 5.9v177.6Zm98.3-123.6c5.8 2.8 10.1 8.3 12.5 16 1.6 5.1 1.7 13.9 1.7 108.1 0 117.3.5 110.5-8.3 119-6.6 6.4-9.8 7.2-30.4 7.7l-17.8.5V56.8l18.8.4c17.3.3 19.1.5 23.5 2.7ZM764 31.5V57h152V6H764v25.5Zm204 151.9V361h56V209h12.3c24.9 0 34.4 5.4 39.4 22.2 1.4 4.4 1.7 14.7 2.3 60.8.6 47.8.9 56.3 2.4 61.4.9 3.2 1.9 6.3 2.2 6.7.3.5 13.2.9 28.8.9h28.3l-1.9-5.5c-3.2-9.7-3.8-18.3-3.8-63.5-.1-47-.7-58.9-4-72.7-4.3-18-11.8-28.6-25-35.2l-7.9-3.9 5.6-3.2c9.4-5.3 16.8-13.2 21.8-23.1 7.3-14.7 8-19.6 8-55.4 0-36-.7-40.9-8.2-56.5-8.4-17.4-22.3-28-43.9-33.2-8.4-2-12-2.1-60.6-2.5L968 5.9v177.5Zm95.3-123.6c3 1.5 5.8 4 7.7 6.7 5.2 7.5 6 13.1 6 40.6 0 21.8-.2 25.4-2 31.1-2.5 8.1-7.3 13.8-14.2 16.9-4.7 2.1-7.1 2.4-21 2.7l-15.8.4V56.8l17.3.4c15.7.3 17.6.5 22 2.6ZM1172 183.5V361h148v-50l-45.7-.2-45.8-.3-.3-152.3L1228 6h-56v177.5Zm466.3-1 .6 38.5 6.4 7.8c13.2 16.3 17.7 27.9 18.5 47.8.4 10.3.1 14.3-1.2 19-3.2 10.9-8.6 16.4-18.6 19l-4.5 1.1-.3 25.2-.2 25.1h5.9c12.3 0 28.9-4.6 39.8-11.1 7.2-4.3 17.8-15 22.2-22.2 6.4-10.9 10.2-22.4 12.2-37.6 1.3-10.1.7-38-1.1-46.1-6-27.5-15.4-43.4-41-69-16.4-16.5-37.3-36-38.6-36-.4 0-.4 17.3-.1 38.5Zm193.7-.1v38.5l5 5.7c14.8 16.9 20.3 31 20.4 52.4.1 15.1-1.7 22.1-7.1 28.1-4.3 4.7-7.9 6.8-13.6 7.7l-4.2.8-.3 25.5-.2 25.5 9.7-.8c20.8-1.7 35.9-8.3 48.9-21.3 13.2-13.2 19.8-29 22.5-53.2 1.3-12.4.7-30-1.6-42-6.4-33.8-22.7-55.8-75.1-101.6l-4.4-3.9v38.6Zm-1068-5.9V202h133v-51H764v25.5Zm777 98.3c0 26.8 3.6 43.5 12.5 58.1 12.8 21.1 32.1 31.3 63.8 33.5l7.7.6v-50.7l-5-.6c-16-1.9-23.2-9.1-25.9-25.8-.6-3.5-1.1-12.4-1.1-19.7V257h-52v17.8Zm193-3.8c0 36.6 6.6 57.7 23.4 74.6 6.5 6.6 9.8 8.9 16.8 12.3 9.7 4.7 21.7 7.5 36.1 8.5l8.7.6v-50.7l-6.2-.7c-8-1-12.4-2.8-17.1-7.4-6.6-6.4-8-12-8.5-33l-.4-18.2H1734v14Zm-970 65v25h152v-50H764v25Z"
    fill="#000"
  />
</svg>
