<?xml version="1.0" standalone="no"?>
<!DOCTYPE svg PUBLIC "-//W3C//DTD SVG 20010904//EN"
 "http://www.w3.org/TR/2001/REC-SVG-20010904/DTD/svg10.dtd">
<svg version="1.0" xmlns="http://www.w3.org/2000/svg"
 width="2250.000000pt" height="521.000000pt" viewBox="0 0 2250.000000 521.000000"
 preserveAspectRatio="xMidYMid meet">

<g transform="translate(0.000000,521.000000) scale(0.100000,-0.100000)"
fill="#000000" stroke="none">
<path d="M3548 4765 c-367 -62 -587 -307 -638 -708 -14 -116 -14 -2093 1
-2212 42 -341 215 -575 497 -670 69 -24 170 -41 280 -49 l62 -4 0 253 0 254
-47 7 c-76 11 -120 33 -163 81 -80 91 -75 13 -75 1233 0 846 3 1094 13 1127
32 108 118 181 222 191 l50 5 0 253 0 254 -62 -1 c-35 -1 -98 -7 -140 -14z"/>
<path d="M4000 4527 l0 -257 33 0 c98 0 196 -72 232 -170 20 -54 20 -80 20
-1145 0 -1040 -1 -1092 -19 -1144 -34 -99 -111 -160 -218 -176 l-48 -6 0 -254
0 -253 78 5 c138 9 256 38 360 88 79 39 110 61 177 129 129 129 199 284 225
498 8 66 10 404 8 1173 l-3 1080 -28 100 c-50 186 -139 329 -260 421 -125 95
-279 149 -459 161 l-98 6 0 -256z"/>
<path d="M17423 4764 c-283 -47 -482 -218 -572 -489 -43 -130 -54 -228 -48
-423 3 -138 9 -184 31 -266 32 -123 94 -253 178 -371 65 -92 290 -325 501
-519 l117 -107 0 388 0 389 -31 30 c-51 49 -146 180 -178 246 -44 94 -63 180
-64 288 -1 205 77 321 229 338 l44 5 0 253 0 254 -62 -1 c-35 -1 -100 -7 -145
-15z"/>
<path d="M17762 4529 l3 -254 45 -6 c109 -16 178 -74 210 -177 16 -51 20 -93
20 -208 l0 -144 266 0 267 0 -6 188 c-4 157 -9 202 -30 285 -92 350 -320 538
-683 563 l-94 7 2 -254z"/>
<path d="M19385 4769 c-333 -48 -566 -273 -630 -609 -48 -257 -21 -535 74
-745 78 -171 240 -370 484 -593 89 -81 183 -169 209 -195 l48 -48 0 386 0 387
-81 96 c-144 173 -206 336 -196 517 10 185 85 285 228 302 l49 6 0 162 c0 89
-3 203 -6 253 l-7 92 -56 -1 c-31 -1 -83 -5 -116 -10z"/>
<path d="M19700 4528 l0 -255 49 -6 c96 -11 168 -67 203 -156 17 -46 22 -84
26 -213 l4 -158 266 0 265 0 -6 168 c-3 92 -13 205 -22 252 -73 372 -318 590
-692 616 l-93 7 0 -255z"/>
<path d="M1380 4476 l0 -255 278 -3 c268 -3 279 -4 325 -27 58 -28 101 -83
125 -160 25 -82 25 -461 0 -542 -22 -71 -53 -116 -103 -151 -70 -49 -134 -58
-392 -58 l-233 0 0 -254 0 -255 288 -3 c275 -3 289 -4 337 -26 91 -42 132 -98
160 -214 22 -92 21 -570 0 -653 -22 -84 -57 -129 -124 -162 l-56 -28 -302 -3
-303 -3 0 -256 0 -255 343 5 c404 6 470 16 627 93 180 89 303 245 362 459 21
75 22 101 23 440 0 343 -1 364 -23 450 -50 197 -158 342 -311 416 l-74 36 55
31 c154 88 245 227 284 432 21 110 28 354 15 503 -22 233 -78 374 -196 492
-81 81 -154 123 -278 159 -122 36 -249 46 -558 46 l-269 0 0 -254z"/>
<path d="M5110 2951 l0 -1781 275 0 275 0 2 763 3 762 140 -1 c254 -1 334 -50
383 -234 12 -43 16 -172 22 -610 6 -515 8 -559 26 -615 l20 -60 283 -3 283 -2
-6 22 c-4 13 -14 48 -23 78 -14 46 -17 140 -24 600 -4 313 -12 575 -18 614
-41 253 -127 395 -284 470 l-69 32 66 39 c156 91 248 244 281 464 20 129 20
503 1 631 -40 259 -144 419 -338 515 -169 83 -203 87 -790 92 l-508 5 0 -1781z
m945 1239 c69 -35 110 -92 130 -184 24 -108 18 -536 -9 -613 -51 -143 -175
-199 -421 -191 l-90 3 -3 495 c-1 272 0 501 3 508 4 11 40 13 173 10 155 -3
171 -5 217 -28z"/>
<path d="M7080 2955 l0 -1776 538 3 537 4 88 27 c49 15 109 38 135 51 227 115
353 332 382 659 13 146 13 1924 -1 2066 -14 151 -39 246 -95 361 -88 179 -238
295 -454 351 -81 21 -108 23 -607 26 l-523 4 0 -1776z m983 1236 c58 -28 101
-83 125 -160 16 -51 17 -139 17 -1081 0 -1173 5 -1105 -83 -1190 -66 -64 -98
-72 -304 -77 l-178 -5 0 1272 0 1272 188 -4 c173 -3 191 -5 235 -27z"/>
<path d="M9020 4475 l0 -255 760 0 760 0 0 255 0 255 -760 0 -760 0 0 -255z"/>
<path d="M11060 2956 l0 -1776 280 0 280 0 0 760 0 760 123 0 c249 0 344 -54
394 -222 14 -44 17 -147 23 -608 6 -478 9 -563 24 -614 9 -32 19 -63 22 -67 3
-5 132 -9 288 -9 l283 0 -19 55 c-32 97 -38 183 -38 635 -1 470 -7 589 -40
727 -43 180 -118 286 -250 352 l-79 39 56 32 c94 53 168 132 218 231 73 147
80 196 80 554 0 360 -7 409 -82 565 -84 174 -223 280 -439 332 -84 20 -120 21
-606 25 l-518 4 0 -1775z m953 1236 c30 -15 58 -40 77 -67 52 -75 60 -131 60
-406 0 -218 -2 -254 -20 -311 -25 -81 -73 -138 -142 -169 -47 -21 -71 -24
-210 -27 l-158 -4 0 507 0 507 173 -4 c157 -3 176 -5 220 -26z"/>
<path d="M13100 2955 l0 -1775 740 0 740 0 0 250 0 250 -457 2 -458 3 -3 1523
-2 1522 -280 0 -280 0 0 -1775z"/>
<path d="M17763 2965 l6 -385 64 -78 c132 -163 177 -279 185 -478 4 -103 1
-143 -12 -190 -32 -109 -86 -164 -186 -190 l-45 -11 -3 -252 -2 -251 59 0
c123 0 289 46 398 111 72 43 178 150 222 222 64 109 102 224 122 376 13 101 7
380 -11 461 -60 275 -154 434 -410 690 -164 165 -373 360 -386 360 -4 0 -4
-173 -1 -385z"/>
<path d="M19700 2966 l0 -385 50 -57 c148 -169 203 -310 204 -524 1 -151 -17
-221 -71 -281 -43 -47 -79 -68 -136 -77 l-42 -8 -3 -255 -2 -255 97 8 c208 17
359 83 489 213 132 132 198 290 225 532 13 124 7 300 -16 420 -64 338 -227
558 -751 1016 l-44 39 0 -386z"/>
<path d="M9020 3025 l0 -255 665 0 665 0 0 255 0 255 -665 0 -665 0 0 -255z"/>
<path d="M16790 2042 c0 -268 36 -435 125 -581 128 -211 321 -313 638 -335
l77 -6 0 254 0 253 -50 6 c-160 19 -232 91 -259 258 -6 35 -11 124 -11 197 l0
132 -260 0 -260 0 0 -178z"/>
<path d="M18720 2080 c0 -366 66 -577 234 -746 65 -66 98 -89 168 -123 97 -47
217 -75 361 -85 l87 -6 0 254 0 253 -62 7 c-80 10 -124 28 -171 74 -66 64 -80
120 -85 330 l-4 182 -264 0 -264 0 0 -140z"/>
<path d="M9020 1430 l0 -250 760 0 760 0 0 250 0 250 -760 0 -760 0 0 -250z"/>
</g>
</svg>
