<?xml version="1.0" encoding="utf-8"?>
<!-- Generator: Adobe Illustrator 19.0.0, SVG Export Plug-In . SVG Version: 6.00 Build 0)  -->
<svg version="1.1" id="Livello_1" xmlns="http://www.w3.org/2000/svg" xmlns:xlink="http://www.w3.org/1999/xlink" x="0px" y="0px"
	 viewBox="-49 26 200 200" style="enable-background:new -49 26 200 200;" xml:space="preserve">
<style type="text/css">
	.st0{fill:#17E5A1;}
	.st1{fill:#0B0A35;}
	.st2{fill:#FFFFFF;}
</style>
<path id="XMLID_809_" class="st0" d="M131,226H-29c-11,0-20-9-20-20V46c0-11,9-20,20-20h160c11,0,20,9,20,20v160
	C151,217,142,226,131,226z"/>
<path id="XMLID_808_" class="st1" d="M15,226h116c11,0,20-9,20-20V46c0-11-9-20-20-20H15V226z"/>
<path id="XMLID_807_" class="st2" d="M25.4,197.5h28.7c5.5,0,9.6-1.5,12.3-4.5c2.7-2.9,4-8.1,4-15.3v-17.5c0-9.2-1.5-15.5-4.7-19
	s-8.3-5.3-15.6-5.3H25.4v-28.6h22.9c6.3,0,11-1.6,14.2-4.8c3.2-3.3,4.7-8.7,4.7-16.3V75.1c0-7.3-1.3-12.4-3.9-15.7
	c-2.6-3.3-6.6-4.8-12.2-4.8H25.4V26h26.7c16.2,0,28,3.8,35.3,11.3c7.4,7.5,11.1,19.1,11.1,34.7v8c0,10.3-1.6,18.7-5,25.1
	c-3.3,6.5-8.4,11.1-15.2,14v0.6c15.6,5.4,23.4,19.2,23.4,41.8v17.1c0,15.5-4.1,27.2-12.2,35.3c-8.1,8.1-19.9,12.2-35.5,12.2H25.4
	V197.5z"/>
<rect id="XMLID_806_" x="-17" y="26" class="st2" width="32" height="200"/>
</svg>
