<?xml version="1.0" standalone="no"?>
<!DOCTYPE svg PUBLIC "-//W3C//DTD SVG 20010904//EN"
 "http://www.w3.org/TR/2001/REC-SVG-20010904/DTD/svg10.dtd">
<svg version="1.0" xmlns="http://www.w3.org/2000/svg"
 width="800.000000pt" height="96.000000pt" viewBox="0 0 800.000000 96.000000"
 preserveAspectRatio="xMidYMid meet">

<g transform="translate(0.000000,96.000000) scale(0.100000,-0.100000)"
fill="#000000" stroke="none">
<path d="M341 944 c-286 -77 -424 -406 -289 -692 94 -200 356 -300 583 -222
103 35 180 104 230 204 38 75 35 81 -44 105 -87 26 -98 26 -105 -2 -3 -12 -22
-42 -42 -65 -99 -117 -280 -123 -396 -14 -112 104 -121 318 -18 434 113 129
336 124 420 -9 17 -26 32 -54 35 -64 5 -16 12 -15 88 8 45 14 83 26 85 28 1 1
-7 28 -18 59 -41 109 -163 209 -288 235 -71 15 -175 13 -241 -5z"/>
<path d="M3121 944 c-115 -31 -229 -119 -283 -220 -77 -143 -77 -345 0 -488
150 -279 583 -314 768 -63 40 53 74 131 63 141 -3 3 -39 16 -82 29 l-78 25
-13 -32 c-19 -47 -73 -104 -120 -129 -59 -31 -193 -31 -252 0 -100 53 -146
129 -152 254 -5 105 12 167 64 228 88 103 239 127 356 58 41 -25 59 -44 81
-88 l29 -56 84 25 c95 29 93 24 46 120 -29 59 -99 130 -160 161 -98 50 -242
64 -351 35z"/>
<path d="M1323 923 c-3 -10 -82 -215 -175 -456 -92 -242 -168 -441 -168 -443
0 -2 42 -4 94 -4 l95 0 19 53 c11 28 28 76 38 105 l19 52 186 0 187 0 38 -105
39 -105 99 0 c89 0 98 2 91 18 -3 9 -33 87 -65 172 -33 85 -108 283 -168 440
l-109 285 -107 3 c-95 2 -107 1 -113 -15z m178 -373 c27 -74 49 -138 49 -142
0 -4 -54 -8 -120 -8 -66 0 -120 1 -120 3 0 3 94 261 110 302 l12 30 10 -25 c5
-14 32 -86 59 -160z"/>
<path d="M2070 480 l0 -460 295 0 295 0 0 88 0 87 -202 0 -203 0 -3 373 -2
372 -90 0 -90 0 0 -460z"/>
<path d="M3870 616 c0 -296 2 -329 20 -389 27 -87 87 -154 172 -193 56 -26 74
-29 163 -29 89 0 107 3 162 29 72 33 134 94 166 164 21 45 22 63 25 395 l3
347 -90 0 -91 0 0 -309 c0 -203 -4 -320 -11 -342 -26 -77 -91 -115 -186 -107
-61 5 -98 28 -128 79 -19 32 -20 55 -23 357 l-3 322 -90 0 -89 0 0 -324z"/>
<path d="M4842 483 l3 -458 293 -3 292 -2 0 85 0 85 -202 2 -203 3 -3 373 -2
372 -90 0 -90 0 2 -457z"/>
<path d="M5735 498 c-94 -243 -171 -451 -173 -461 -3 -16 4 -18 90 -15 l93 3
36 100 37 100 188 0 187 0 37 -100 38 -100 96 -3 c53 -1 96 1 96 5 0 4 -77
212 -172 461 l-173 452 -105 0 -105 0 -170 -442z m295 175 c12 -32 39 -106 61
-165 l38 -108 -123 0 -123 0 60 165 c33 91 61 165 63 165 1 0 12 -26 24 -57z"/>
<path d="M6480 855 l0 -85 145 0 145 0 0 -375 0 -375 90 0 90 0 0 375 0 375
145 0 145 0 0 85 0 85 -380 0 -380 0 0 -85z"/>
<path d="M7430 855 l0 -85 285 0 285 0 0 85 0 85 -285 0 -285 0 0 -85z"/>
<path d="M7430 475 l0 -85 285 0 285 0 0 85 0 85 -285 0 -285 0 0 -85z"/>
<path d="M7430 110 l0 -80 285 0 285 0 0 80 0 80 -285 0 -285 0 0 -80z"/>
</g>
</svg>
