<svg xmlns="http://www.w3.org/2000/svg" xmlns:xlink="http://www.w3.org/1999/xlink" width="385.053" height="75.668" viewBox="0 0 385.053 75.668"><defs><style>.a{fill:none;}.b{clip-path:url(#a);}.c{fill:#ea4c5f;}.d{fill:#ff8c03;}.e{fill:#f4e05d;}.f{fill:#63c8c4;}.g{clip-path:url(#b);}.h{fill:#999;}.i{fill:#fff;}</style><clipPath id="a"><rect class="a" width="385.053" height="33.28"/></clipPath><clipPath id="b"><rect class="a" width="356.524" height="42.389"/></clipPath></defs><g class="b"><path class="c" d="M34.471,104.958A28.9,28.9,0,0,1,22.724,93.077a37.674,37.674,0,0,1-4.135-18.066A37.95,37.95,0,0,1,22.724,56.9,29.18,29.18,0,0,1,34.418,44.922a35.579,35.579,0,0,1,17.638-4.233A41.3,41.3,0,0,1,67.6,43.541a25.285,25.285,0,0,1,10.891,7.8,4.028,4.028,0,0,1,.891,2.469,3.841,3.841,0,0,1-1.711,3.048,3.788,3.788,0,0,1-2.193.66,4.929,4.929,0,0,1-2.157-.508,4.875,4.875,0,0,1-1.711-1.239Q65.362,48.1,52.056,48.1q-11.31,0-17.825,7.184t-6.6,19.733q0,12.478,6.56,19.608t18.057,7.13a33.8,33.8,0,0,0,12.077-2,21.658,21.658,0,0,0,8.556-5.713,5.348,5.348,0,0,1,3.806-1.988,3.565,3.565,0,0,1,2.282.891,4.136,4.136,0,0,1,1.613,3.128,4.038,4.038,0,0,1-.945,2.478,25.827,25.827,0,0,1-11.221,7.8A44.251,44.251,0,0,1,52.243,109.2a36.256,36.256,0,0,1-17.772-4.242Z" transform="translate(-4.667 -35.163)"/><path class="d" d="M102.453,107.95a4.456,4.456,0,0,1-1.194-3.28V45.16a4.127,4.127,0,0,1,4.456-4.456,4.608,4.608,0,0,1,3.333,1.15,4.332,4.332,0,0,1,1.239,3.28V70.374h39.171V45.16a4.331,4.331,0,0,1,1.239-3.307,4.617,4.617,0,0,1,3.333-1.194,4.3,4.3,0,0,1,3.146,1.194,4.4,4.4,0,0,1,1.185,3.28v59.51a4.4,4.4,0,0,1-1.185,3.28,4.3,4.3,0,0,1-3.182,1.194,4.617,4.617,0,0,1-3.333-1.194,4.332,4.332,0,0,1-1.23-3.28V77.674H110.3v27a4.332,4.332,0,0,1-1.239,3.28,4.608,4.608,0,0,1-3.324,1.194A4.456,4.456,0,0,1,102.453,107.95Z" transform="translate(-13.656 -35.16)"/><path class="e" d="M185.224,107.953a4.4,4.4,0,0,1-1.185-3.28V45.163a4.4,4.4,0,0,1,1.185-3.307,4.314,4.314,0,0,1,3.235-1.168,4.59,4.59,0,0,1,3.28,1.168,4.332,4.332,0,0,1,1.239,3.28v59.51a4.332,4.332,0,0,1-1.239,3.28,4.59,4.59,0,0,1-3.28,1.221,4.314,4.314,0,0,1-3.235-1.194Z" transform="translate(-22.657 -35.163)"/><path class="f" d="M226.472,104.958a28.877,28.877,0,0,1-11.738-11.881A37.674,37.674,0,0,1,210.6,75.012a37.951,37.951,0,0,1,4.135-18.11,29.127,29.127,0,0,1,11.693-11.979,35.553,35.553,0,0,1,17.638-4.234,41.3,41.3,0,0,1,15.544,2.852,25.2,25.2,0,0,1,10.882,7.8,4.029,4.029,0,0,1,.891,2.469,3.841,3.841,0,0,1-1.711,3.048,3.761,3.761,0,0,1-2.184.66,5.294,5.294,0,0,1-3.806-1.711q-6.239-7.7-19.608-7.7-11.31,0-17.87,7.184t-6.577,19.724q0,12.478,6.569,19.608t18.057,7.13a33.8,33.8,0,0,0,12.077-2,21.658,21.658,0,0,0,8.556-5.713,5.347,5.347,0,0,1,3.806-1.988,3.565,3.565,0,0,1,2.282.891,4.136,4.136,0,0,1,1.613,3.128,4.056,4.056,0,0,1-.954,2.478,25.691,25.691,0,0,1-11.212,7.8,44.252,44.252,0,0,1-16.168,2.852A36.31,36.31,0,0,1,226.472,104.958Z" transform="translate(-25.545 -35.163)"/><path class="d" d="M294.244,107.954a4.4,4.4,0,0,1-1.185-3.28V63.034q0-10.455,5.847-16.4t16.212-5.945a20.668,20.668,0,0,1,18.155,10.7,20.079,20.079,0,0,1,7.513-7.843,20.348,20.348,0,0,1,10.553-2.807q10.365,0,16.257,5.945t5.891,16.4v41.64a4.331,4.331,0,0,1-1.23,3.28,4.617,4.617,0,0,1-3.333,1.194A4.26,4.26,0,0,1,365.7,108a4.456,4.456,0,0,1-1.141-3.28V63.034q0-7.513-3.137-11.221T351.054,48.1q-6.239,0-9.8,3.948t-3.565,10.98v41.64a4.456,4.456,0,0,1-1.194,3.28,4.911,4.911,0,0,1-6.417,0,4.528,4.528,0,0,1-1.141-3.28V63.034q0-6.845-3.654-10.882a12.6,12.6,0,0,0-9.8-4.046q-7.13,0-10.276,3.752T302.07,63.034v41.64a4.331,4.331,0,0,1-1.239,3.28,4.608,4.608,0,0,1-3.369,1.194A4.314,4.314,0,0,1,294.244,107.954Z" transform="translate(-34.512 -35.164)"/><path class="c" d="M402.854,107.95a4.4,4.4,0,0,1-1.185-3.28V45.16a4.4,4.4,0,0,1,1.185-3.307,4.314,4.314,0,0,1,3.191-1.194,4.59,4.59,0,0,1,3.307,1.194,4.332,4.332,0,0,1,1.239,3.28v59.51a4.331,4.331,0,0,1-1.239,3.28,4.59,4.59,0,0,1-3.324,1.194A4.314,4.314,0,0,1,402.854,107.95Z" transform="translate(-46.321 -35.16)"/></g><g class="g" transform="translate(11.952 33.28)"><path class="h" d="M34.471,104.958A28.9,28.9,0,0,1,22.724,93.077a37.674,37.674,0,0,1-4.135-18.066A37.95,37.95,0,0,1,22.724,56.9,29.18,29.18,0,0,1,34.418,44.922a35.481,35.481,0,0,1,17.638-4.233A41.3,41.3,0,0,1,67.6,43.541a25.214,25.214,0,0,1,10.891,7.8,4.028,4.028,0,0,1,.891,2.469,3.815,3.815,0,0,1-1.711,3.039,3.708,3.708,0,0,1-2.193.668,5.062,5.062,0,0,1-2.157-.508,4.875,4.875,0,0,1-1.711-1.239Q65.362,48.1,52.056,48.1q-11.31,0-17.825,7.184t-6.6,19.733q0,12.478,6.56,19.608t18.066,7.13a33.548,33.548,0,0,0,12.068-2,21.542,21.542,0,0,0,8.556-5.7,5.4,5.4,0,0,1,3.806-1.988,3.565,3.565,0,0,1,2.282.891,4.153,4.153,0,0,1,1.613,3.137,4.064,4.064,0,0,1-.945,2.478,25.827,25.827,0,0,1-11.221,7.8,44.233,44.233,0,0,1-16.159,2.843,36.284,36.284,0,0,1-17.781-4.251Z" transform="translate(-16.619 -68.443)"/><path class="h" d="M102.452,107.951a4.456,4.456,0,0,1-1.194-3.28V45.152a4.118,4.118,0,0,1,4.456-4.456,4.626,4.626,0,0,1,3.333,1.159,4.358,4.358,0,0,1,1.239,3.28V70.375h39.171V45.152a4.358,4.358,0,0,1,1.239-3.3,4.644,4.644,0,0,1,3.333-1.185,4.332,4.332,0,0,1,3.146,1.185,4.456,4.456,0,0,1,1.185,3.28v59.519a4.456,4.456,0,0,1-1.185,3.28,4.3,4.3,0,0,1-3.182,1.185,4.608,4.608,0,0,1-3.333-1.185,4.34,4.34,0,0,1-1.23-3.28V77.675H110.3v27a4.349,4.349,0,0,1-1.239,3.28,4.59,4.59,0,0,1-3.324,1.185A4.456,4.456,0,0,1,102.452,107.951Z" transform="translate(-25.608 -68.441)"/><path class="h" d="M185.224,107.953a4.456,4.456,0,0,1-1.185-3.28V45.154a4.456,4.456,0,0,1,1.185-3.3,4.34,4.34,0,0,1,3.235-1.168,4.626,4.626,0,0,1,3.28,1.168,4.358,4.358,0,0,1,1.239,3.28v59.519a4.35,4.35,0,0,1-1.239,3.28,4.59,4.59,0,0,1-3.324,1.185,4.3,4.3,0,0,1-3.191-1.168Z" transform="translate(-34.61 -68.443)"/><path class="h" d="M226.472,104.958a28.877,28.877,0,0,1-11.738-11.881A37.673,37.673,0,0,1,210.6,75.011,37.951,37.951,0,0,1,214.734,56.9a29.127,29.127,0,0,1,11.693-11.979,35.454,35.454,0,0,1,17.638-4.234,41.3,41.3,0,0,1,15.544,2.852,25.125,25.125,0,0,1,10.882,7.8,4.028,4.028,0,0,1,.891,2.469,3.814,3.814,0,0,1-1.711,3.039,3.708,3.708,0,0,1-2.184.668,5.134,5.134,0,0,1-2.166-.508,5.045,5.045,0,0,1-1.711-1.239q-6.239-7.7-19.608-7.7-11.31,0-17.87,7.184t-6.506,19.759q0,12.478,6.569,19.608t18.057,7.13a33.6,33.6,0,0,0,12.077-2,21.542,21.542,0,0,0,8.556-5.7,5.348,5.348,0,0,1,3.806-1.988,3.565,3.565,0,0,1,2.282.891,4.153,4.153,0,0,1,1.613,3.137,4.074,4.074,0,0,1-.954,2.478,25.691,25.691,0,0,1-11.212,7.8,44.251,44.251,0,0,1-16.168,2.843A36.31,36.31,0,0,1,226.472,104.958Z" transform="translate(-37.497 -68.443)"/><path class="h" d="M294.245,107.954a4.456,4.456,0,0,1-1.185-3.28V63.034q0-10.455,5.847-16.4t16.212-5.945a20.668,20.668,0,0,1,18.155,10.7,20.079,20.079,0,0,1,7.513-7.843,20.348,20.348,0,0,1,10.553-2.807q10.365,0,16.257,5.945t5.891,16.4v41.64a4.34,4.34,0,0,1-1.23,3.28,4.608,4.608,0,0,1-3.333,1.185A4.251,4.251,0,0,1,365.7,108a4.51,4.51,0,0,1-1.141-3.28V63.034q0-7.513-3.137-11.221T351.054,48.1q-6.239,0-9.8,3.948t-3.565,10.98v41.64a4.456,4.456,0,0,1-1.194,3.28,4.938,4.938,0,0,1-6.417,0,4.545,4.545,0,0,1-1.141-3.28V63.034q0-6.845-3.654-10.882a12.6,12.6,0,0,0-9.8-4.046q-7.13,0-10.276,3.752T302.07,63.034v41.64a4.349,4.349,0,0,1-1.239,3.28,4.6,4.6,0,0,1-3.324,1.185A4.3,4.3,0,0,1,294.245,107.954Z" transform="translate(-46.464 -68.444)"/><path class="h" d="M402.854,107.951a4.456,4.456,0,0,1-1.185-3.28V45.152a4.457,4.457,0,0,1,1.185-3.3,4.34,4.34,0,0,1,3.191-1.185,4.626,4.626,0,0,1,3.307,1.185,4.358,4.358,0,0,1,1.239,3.28v59.519a4.349,4.349,0,0,1-1.239,3.28,4.59,4.59,0,0,1-3.324,1.185,4.3,4.3,0,0,1-3.173-1.168Z" transform="translate(-58.274 -68.441)"/></g><rect class="i" width="356.702" height="4.75" transform="translate(11.774 31.141)"/></svg>