<svg version="1.1" id="Layer_1" xmlns="http://www.w3.org/2000/svg" xmlns:xlink="http://www.w3.org/1999/xlink" x="0" y="0" style="enable-background:new 0 0 1080 104" xml:space="preserve" viewBox="0 0 1080 104"><style>.st0{fill:#0c2542}.st4{fill:#ea4c5f}.st5{fill:#ff8c03}</style><path class="st0" d="M504.1 18.8c-20.3 0-34.7 14.5-34.7 34.1S483.8 87 504.1 87s34.7-14.5 34.7-34.1-14.4-34.1-34.7-34.1zm0 15.1c10.7 0 18.3 7.8 18.3 19.1s-7.6 19-18.3 19c-10.7 0-18.3-7.8-18.3-19.1s7.6-19 18.3-19zm84.1 6.4c0-.3-.3-.6-.6-.6h-13.5c-.3 0-.6.3-.6.6v24.5c0 5.9-3.2 8.6-7.6 8.6-4.4 0-7.6-2.7-7.6-8.6V40.3c0-.3-.3-.6-.6-.6h-13.5c-.3 0-.6.3-.6.6V66c0 14.5 10 21 22.3 21s22.2-6.5 22.2-21l.1-25.7zm48.9 0c0-.3-.3-.6-.6-.6h-20.4c-.3 0-.6-.3-.6-.6V26.9c0-.3-.3-.6-.6-.6h-13.5c-.3 0-.6.3-.6.6v12.3c0 .3-.3.6-.6.6h-7.4c-.3 0-.6.3-.6.6v11.8c0 .3.3.6.6.6h7.4c.3 0 .6.3.6.6v14.8c0 11.6 5.6 18.9 18 18.9 4 0 9.4-1.6 10.9-2.1.2-.1.4-.3.4-.6V73.5c0-1.4-1.5-2.2-2.7-1.6-1.7.8-3.5 1.4-5.3 1.4-3.7 0-6.5-1.8-6.5-7.1V53.3c0-.3.3-.6.6-.6h20.4c.3 0 .6-.3.6-.6V40.3z"/><path class="st0" d="M663.8 40.3c0-.3-.3-.6-.6-.6h-11.8c-.3 0-.6-.3-.6-.6v-2.7c0-4 1.6-5.8 4.8-5.8 2.6 0 4.7.8 6.7 1.8.3.1.6 0 .8-.2l5.8-9.9c.2-.3.1-.6-.2-.8-3.6-2.6-8.2-4.6-15.1-4.6-10.8 0-17.6 6.8-17.6 19.2v49.1c0 .3.3.6.6.6h13.5c.3 0 .6-.3.6-.6V53.3c0-.3.3-.6.6-.6h11.8c.3 0 .6-.3.6-.6l.1-11.8zm48.7 0c0-.3-.3-.6-.6-.6h-13.5c-.3 0-.6.3-.6.6v24.5c0 5.9-3.2 8.6-7.6 8.6-4.4 0-7.6-2.7-7.6-8.6V40.3c0-.3-.3-.6-.6-.6h-13.5c-.3 0-.6.3-.6.6V66c0 14.5 10 21 22.3 21s22.2-6.5 22.2-21l.1-25.7zm34-1.8c-5.4 0-9.6 1.7-12.5 5.3-.4.5-1.2.2-1.2-.4v-3.1c0-.3-.3-.6-.6-.6h-12.9c-.3 0-.6.3-.6.6v44.9c0 .3.3.6.6.6h13.5c.3 0 .6-.3.6-.6V61c0-6 3.4-8.7 7.5-8.7 4.6 0 7.3 3.1 7.3 8.5v24.5c0 .3.3.6.6.6h13.5c.3 0 .6-.3.6-.6V55.6c0-10.7-7.2-17.1-16.4-17.1zm42.4 0c-12.4 0-21.5 10.7-21.5 24.2 0 13.6 9.1 24.3 21.4 24.3 5.5 0 9.4-2 12.1-4.9.4-.4 1.1-.2 1.1.4v2.7c0 .3.3.6.6.6h13c.3 0 .6-.3.6-.6V18.7c0-.3-.3-.6-.6-.6h-13.5c-.3 0-.6.3-.6.6v23.8c0 .6-.7.8-1.1.4-2.5-2.6-6.3-4.4-11.5-4.4zm3.5 13.7c5.8 0 9.9 4.5 9.9 10.6s-4.1 10.6-9.9 10.6c-5.9 0-9.8-4.6-9.8-10.6 0-6.1 3.9-10.6 9.8-10.6z"/><path d="M831.7 69.5c4.8 0 8.8 3.9 8.8 8.8s-3.9 8.8-8.8 8.8-8.8-3.9-8.8-8.8c0-4.8 4-8.8 8.8-8.8z" style="fill:#00a3d7"/><path d="m399.7 33.8 9 14.5h.3l9-14.5h5l-11 17.5 11 17.5h-5l-9-14.2h-.3l-9 14.2h-5L406 51.3l-11.2-17.5h4.9z" style="fill:#00263a"/><defs><path id="SVGID_1_" d="M-10.5 14.2h385.1v33.3H-10.5z"/></defs><clipPath id="SVGID_2_"><use xlink:href="#SVGID_1_" style="overflow:visible"/></clipPath><g style="clip-path:url(#SVGID_2_)"><path class="st4" d="M19.4 84c-5-2.7-9.1-6.9-11.7-11.9-3-5.6-4.4-11.8-4.2-18.1-.1-6.3 1.3-12.5 4.1-18.1 2.6-5 6.7-9.2 11.7-12 5.4-2.9 11.5-4.4 17.6-4.2 5.3-.1 10.6.9 15.5 2.9 4.3 1.6 8 4.3 10.9 7.8.6.7.9 1.6.9 2.5 0 1.2-.7 2.4-1.7 3-.6.4-1.4.7-2.2.7-.7 0-1.5-.2-2.2-.5-.7-.3-1.2-.7-1.7-1.2-4.2-5.1-10.7-7.7-19.6-7.7-7.5 0-13.5 2.4-17.8 7.2S12.6 45.7 12.5 54c0 8.3 2.2 14.9 6.6 19.6 4.4 4.8 10.4 7.1 18.1 7.1 4.1.1 8.2-.6 12.1-2 3.3-1.2 6.2-3.1 8.6-5.7.9-1.2 2.3-1.9 3.8-2 .8 0 1.7.3 2.3.9 1 .8 1.6 1.9 1.6 3.1 0 .9-.4 1.8-.9 2.5-3 3.6-6.8 6.3-11.2 7.8-5.2 2-10.7 2.9-16.2 2.8-6.4.2-12.5-1.2-17.9-4.1z"/><path class="st5" d="M78.3 87c-.8-.9-1.3-2.1-1.2-3.3V24.2c-.2-2.3 1.5-4.3 3.8-4.5h.7c1.2-.1 2.4.3 3.3 1.1.9.9 1.3 2.1 1.2 3.3v25.2h39.2V24.2c-.1-1.2.4-2.4 1.2-3.3.9-.8 2.1-1.3 3.3-1.2 1.2 0 2.3.4 3.1 1.2.8.9 1.3 2.1 1.2 3.3v59.5c.1 1.2-.4 2.4-1.2 3.3-.9.8-2 1.2-3.2 1.2-1.2.1-2.4-.4-3.3-1.2-.9-.9-1.3-2.1-1.2-3.3v-27h-39v27c.1 1.2-.4 2.4-1.2 3.3-.9.8-2.1 1.3-3.3 1.2-1.3 0-2.5-.4-3.4-1.2z"/><path d="M152.1 87c-.8-.9-1.3-2.1-1.2-3.3V24.2c-.1-1.2.3-2.4 1.2-3.3.9-.8 2-1.2 3.2-1.2 1.2-.1 2.4.4 3.3 1.2.9.9 1.3 2.1 1.2 3.3v59.5c.1 1.2-.4 2.4-1.2 3.3-.9.8-2.1 1.3-3.3 1.2-1.1 0-2.3-.4-3.2-1.2z" style="fill:#f4e05d"/><path d="M190.5 84c-5-2.7-9.1-6.9-11.7-11.9-2.9-5.6-4.3-11.8-4.1-18.1-.1-6.3 1.3-12.5 4.1-18.1 2.6-5.1 6.7-9.2 11.7-12 5.4-2.9 11.5-4.4 17.6-4.2 5.3-.1 10.6.9 15.5 2.9 4.3 1.6 8 4.3 10.9 7.8.6.7.9 1.6.9 2.5 0 1.2-.7 2.4-1.7 3-.6.4-1.4.7-2.2.7-1.4 0-2.8-.6-3.8-1.7-4.2-5.1-10.7-7.7-19.6-7.7-7.5 0-13.5 2.4-17.9 7.2s-6.6 11.4-6.6 19.7c0 8.3 2.2 14.9 6.6 19.6 4.4 4.8 10.4 7.1 18.1 7.1 4.1.1 8.2-.6 12.1-2 3.3-1.2 6.2-3.1 8.6-5.7.9-1.2 2.3-1.9 3.8-2 .8 0 1.7.3 2.3.9 1 .8 1.6 1.9 1.6 3.1 0 .9-.4 1.8-1 2.5-3 3.6-6.8 6.3-11.2 7.8-5.2 2-10.6 2.9-16.2 2.9-6.2 0-12.4-1.4-17.8-4.3z" style="fill:#63c8c4"/><path class="st5" d="M249.3 87c-.8-.9-1.3-2.1-1.2-3.3V42c0-7 1.9-12.4 5.8-16.4s9.3-5.9 16.2-5.9c7.6 0 14.5 4.1 18.2 10.7 1.7-3.3 4.3-6 7.5-7.8 3.2-1.9 6.8-2.9 10.6-2.8 6.9 0 12.3 2 16.3 5.9s5.9 9.4 5.9 16.4v41.6c.1 1.2-.4 2.4-1.2 3.3-.9.8-2.1 1.3-3.3 1.2-1.2.1-2.4-.4-3.2-1.2-.8-.9-1.2-2.1-1.1-3.3V42c0-5-1-8.7-3.1-11.2s-5.5-3.7-10.4-3.7c-4.2 0-7.4 1.3-9.8 3.9-2.4 2.6-3.6 6.3-3.6 11v41.6c.1 1.2-.4 2.4-1.2 3.3-1.8 1.6-4.6 1.6-6.4 0-.8-.9-1.2-2.1-1.1-3.3V42c0-4.6-1.2-8.2-3.7-10.9-2.5-2.7-6.1-4.2-9.8-4-4.8 0-8.2 1.3-10.3 3.8s-3.1 6.2-3.1 11.2v41.6c.1 1.2-.4 2.4-1.2 3.3-.9.8-2.1 1.3-3.4 1.2-1.4 0-2.6-.4-3.4-1.2z"/><path class="st4" d="M346.1 87c-.8-.9-1.3-2.1-1.2-3.3V24.2c-.1-1.2.3-2.4 1.2-3.3.9-.8 2-1.3 3.2-1.2 1.2-.1 2.4.4 3.3 1.2.9.9 1.3 2.1 1.2 3.3v59.5c.1 1.2-.4 2.4-1.2 3.3-.9.8-2.1 1.3-3.3 1.2-1.2 0-2.4-.4-3.2-1.2z"/></g><g><defs><path id="SVGID_3_" d="M1.5 47.4H358v42.4H1.5z"/></defs><clipPath id="SVGID_4_"><use xlink:href="#SVGID_3_" style="overflow:visible"/></clipPath><g style="clip-path:url(#SVGID_4_)"><path d="M7.4 50.7c-5-2.7-9.1-6.9-11.7-11.9-2.9-5.6-4.3-11.8-4.2-18.1-.1-6.3 1.3-12.5 4.2-18.1 2.6-5 6.7-9.2 11.7-12 5.4-2.9 11.5-4.4 17.6-4.2 5.3-.1 10.6.9 15.5 2.9 4.3 1.6 8 4.3 10.9 7.8.6.7.9 1.6.9 2.5 0 1.2-.7 2.4-1.7 3-.6.4-1.4.7-2.2.6-.7 0-1.5-.2-2.2-.5-.6-.3-1.2-.7-1.7-1.2C40.4-3.6 33.9-6.2 25-6.2 17.4-6.2 11.5-3.8 7.2 1S.6 12.4.6 20.7c0 8.3 2.2 14.9 6.6 19.6s10.4 7.1 18.1 7.1c4.1.1 8.2-.6 12.1-2 3.3-1.2 6.2-3.1 8.6-5.7.9-1.2 2.3-1.9 3.8-2 .8 0 1.7.3 2.3.9 1 .8 1.6 1.9 1.6 3.1 0 .9-.4 1.8-.9 2.5-3 3.6-6.8 6.3-11.2 7.8-5.4 2-10.9 3-16.4 2.9-6.2.2-12.3-1.3-17.8-4.2zm59 3c-.8-.9-1.3-2.1-1.2-3.3V-9.1c-.2-2.3 1.5-4.3 3.7-4.5h.7c1.2-.1 2.4.3 3.3 1.2.9.9 1.3 2.1 1.2 3.3v25.2h39.2V-9.1c-.1-1.2.4-2.4 1.2-3.3.9-.8 2.1-1.2 3.3-1.2 1.2 0 2.3.4 3.1 1.2.8.9 1.3 2.1 1.2 3.3v59.5c.1 1.2-.4 2.4-1.2 3.3-.9.8-2 1.2-3.2 1.2-1.2.1-2.4-.4-3.3-1.2-.9-.9-1.3-2.1-1.2-3.3v-27h-39v27c.1 1.2-.4 2.4-1.2 3.3-.9.8-2.1 1.2-3.3 1.2-1.2 0-2.4-.4-3.3-1.2zm73.8 0c-.8-.9-1.3-2.1-1.2-3.3V-9.1c-.1-1.2.4-2.4 1.2-3.3.9-.8 2-1.2 3.2-1.2 1.2-.1 2.4.4 3.3 1.2.9.9 1.3 2.1 1.2 3.3v59.5c.1 1.2-.4 2.4-1.2 3.3-.9.8-2.1 1.2-3.3 1.2-1.2 0-2.4-.4-3.2-1.2zm38.3-3c-5-2.7-9.1-6.9-11.7-11.9-2.9-5.6-4.3-11.8-4.1-18.1-.1-6.3 1.3-12.5 4.1-18.1 2.6-5.1 6.7-9.2 11.7-12 5.4-2.9 11.5-4.4 17.6-4.2 5.3-.1 10.6.9 15.5 2.9 4.3 1.6 8 4.3 10.9 7.8.6.7.9 1.6.9 2.5 0 1.2-.7 2.4-1.7 3-.6.4-1.4.7-2.2.7-.8 0-1.5-.2-2.2-.5-.7-.3-1.2-.7-1.7-1.2-4.2-5.1-10.7-7.7-19.6-7.7-7.5 0-13.5 2.4-17.9 7.2s-6.5 11.4-6.5 19.8c0 8.3 2.2 14.9 6.6 19.6s10.4 7.1 18.1 7.1c4.1.1 8.2-.6 12.1-2 3.3-1.2 6.2-3.1 8.6-5.7.9-1.2 2.3-1.9 3.8-2 .8 0 1.7.3 2.3.9 1 .8 1.6 1.9 1.6 3.1 0 .9-.4 1.8-1 2.5-3 3.6-6.8 6.3-11.2 7.8-5.2 1.9-10.6 2.9-16.2 2.8-6.2.1-12.3-1.4-17.8-4.3zm58.8 3c-.8-.9-1.3-2.1-1.2-3.3V8.8c0-7 1.9-12.4 5.8-16.4 3.9-4 9.3-5.9 16.2-5.9 7.6 0 14.5 4.1 18.2 10.7 1.7-3.3 4.3-6 7.5-7.8 3.2-1.9 6.8-2.9 10.6-2.8 6.9 0 12.3 2 16.3 5.9s5.9 9.4 5.9 16.4v41.6c.1 1.2-.4 2.4-1.2 3.3-.9.8-2.1 1.2-3.3 1.2-1.2.1-2.4-.4-3.2-1.2-.8-.9-1.2-2.1-1.1-3.3V8.8c0-5-1-8.7-3.1-11.2s-5.5-3.7-10.4-3.7c-4.2 0-7.4 1.3-9.8 3.9s-3.6 6.3-3.6 11v41.6c.1 1.2-.4 2.4-1.2 3.3-1.8 1.6-4.6 1.6-6.4 0-.8-.9-1.2-2.1-1.1-3.3V8.8c0-4.6-1.2-8.2-3.7-10.9-2.5-2.7-6.1-4.2-9.8-4-4.8 0-8.2 1.3-10.3 3.8-2.1 2.5-3.1 6.2-3.1 11.2v41.6c.1 1.2-.4 2.4-1.2 3.3-.9.8-2.1 1.2-3.3 1.2-1.4-.1-2.6-.5-3.5-1.3zm96.8 0c-.8-.9-1.3-2.1-1.2-3.3V-9.1c-.1-1.2.4-2.4 1.2-3.3.9-.8 2-1.2 3.2-1.2 1.2-.1 2.4.4 3.3 1.2.9.9 1.3 2.1 1.2 3.3v59.5c.1 1.2-.4 2.4-1.2 3.3-.9.8-2.1 1.2-3.3 1.2-1.2 0-2.3-.4-3.2-1.2z" style="fill:#999" transform="translate(11.952 33.28)"/></g></g><path d="M1.3 45.3H358v4.8H1.3v-4.8z" style="fill:#fff"/></svg>