<svg fill="none" xmlns="http://www.w3.org/2000/svg" viewBox="0 0 640 339"><path d="M43.58 0h8.74c12.43.65 24.2 7.01 31.65 16.96-5.16 4.07-10.12 8.4-15.48 12.22-4.59-6.02-11.82-10.14-19.5-9.99-6.45-.4-13.22 1.22-18.04 5.72-8.59 7.73-10.37 20.81-7.2 31.49 2.33 8.46 9.51 15.56 18.26 17.05 4.49.53 9.11.59 13.55-.37 5.64-1.33 10.1-5.21 14.27-9.02 4.76 4.26 9.6 8.45 14.48 12.59-8.52 10.39-21.82 16.42-35.25 16.01-13.95.69-28.07-4.89-37.57-15.15C4.72 70.25 1.37 60.55 0 50.87V42.3c1.29-9.98 4.87-19.97 11.93-27.33C19.96 6.01 31.68.89 43.58 0ZM135.45 0h8.01c11.43.83 22.7 5.51 30.81 13.71 15.66 15.23 17.57 41.86 4.98 59.53-9.06 12.63-24.74 19.91-40.2 19.43-13.58.27-27.01-5.59-36.31-15.43-14.2-15.38-15.47-40.81-3.15-57.67C107.68 7.95 121.45.97 135.45 0Zm-.72 19.1c-8.4 1.16-15.97 6.94-18.98 14.91-4.06 10.39-2.97 23.27 4.29 32.01 9.87 11.66 30.61 11.21 39.65-1.23 7.44-10.57 7.5-26.02.04-36.59-5.6-7.61-15.92-10.72-25-9.1ZM248.08 0h8.05c8.27.8 16.51 4.59 21.61 11.3 5.93 7.5 8.09 17.31 8.06 26.71.01 17.55-.01 35.11 0 52.66-7.2.01-14.4.01-21.6 0 .01-16.55-.02-33.09.02-49.64 0-5.04-.53-10.4-3.57-14.62-3.16-4.8-9.19-6.65-14.67-6.73-6.61.05-13.62 2.17-18.05 7.32-3.83 4.36-5.22 10.31-5.2 15.99.03 15.9.03 31.79.01 47.69-7.2-.01-14.4 0-21.59-.01.03-29.65-.08-59.3.05-88.95 7.16.01 14.32.01 21.48 0-.03 5.35-.14 10.7-.28 16.05C227.14 7.83 237.25 1.23 248.08 0ZM341.65 0h9.37c11.94.77 23.6 6.58 30.77 16.24.24 1.53-1.41 2.25-2.29 3.19-4.16 3.26-8.19 6.68-12.5 9.74-3.8-4.77-9.03-8.61-15.15-9.61-6.5-.84-13.59-.65-19.26 3.03-8.93 5.32-12.48 16.53-11.69 26.44.5 8.66 4.74 17.54 12.56 21.82 5.54 3.37 12.31 3.28 18.54 2.63 6.38-.91 11.78-4.88 16.1-9.45 5.07 4.18 9.96 8.58 14.91 12.92-6.24 6.23-13.46 11.92-22.18 14.05-15.32 3.81-32.78 1.65-45.31-8.48-19.96-14.91-22.42-46.8-6.75-65.66C316.71 6.9 329.08 1.09 341.65 0ZM394.67 0h21.87c0 5.81.01 11.62-.03 17.44-7.52-.14-15.07.33-22.57-.35 7.37-1.04 14.82-.32 22.23-.61-7.26-.12-14.53.12-21.78-.34.46-5.37.29-10.76.28-16.14ZM460.85 0h9.03c10.23.85 19.84 5.71 26.84 13.18-4.15 4.25-8.37 8.45-12.63 12.59-4.09-4.16-9.16-7.96-15.17-8.43-4.42-.26-9.42-.64-13.15 2.23-2.76 1.93-3.17 5.82-2.12 8.8 1.54 3.33 5.29 4.65 8.52 5.78 9.81 3.19 20.51 4.43 29.23 10.36 5.17 3.34 8.98 8.79 10.03 14.89 1.41 8.32.03 17.73-6.09 23.96-7.46 7.83-19 9.61-29.34 9.29-14.77.24-29.96-5.88-38.97-17.89 4.81-3.72 9.88-7.09 14.89-10.54 7.3 10.38 21.57 13.76 33.34 10.15 4.32-1.23 7.42-6 6.03-10.44-.91-3.26-4.18-4.88-7.11-5.95-9.41-3.41-19.67-4.62-28.39-9.82-5.62-3.24-10.1-8.68-11.46-15.09-1.8-8.08-.53-17.34 5.19-23.63C444.89 3.4 453.05.86 460.85 0ZM553.54 0h9.19c11.66 1.05 23.28 6.24 30.54 15.65 8.52 10.63 11.18 24.76 10.58 38.09-23.95-.01-47.9-.05-71.85.02 1.4 5.58 3.9 11.11 8.45 14.82 7.23 6.2 17.44 6.94 26.49 5.7 6.96-.99 13.31-4.42 18.57-8.98 4.25 4.44 8.7 8.72 12.64 13.46-7.24 6.21-15.7 11.3-25.22 12.9-15.52 2.64-32.69.76-45.53-9.01-20.22-14.31-22.82-46.09-7.69-64.99C527.76 7.24 540.49.99 553.54 0Zm-21.53 38.67c16.67.08 33.34.06 50.01.01-1.17-6.98-4.6-14.1-11-17.64-6.92-3.82-15.48-3.64-22.91-1.64-8.67 2.57-14.38 10.68-16.1 19.27ZM394.67 28.36c7.29-.02 14.59-.01 21.88-.01-.03 20.77 0 41.55-.01 62.32-7.29.01-14.57.01-21.85 0-.02-20.77.01-41.54-.02-62.31ZM146.67 160.22c2.83 0 5.66.01 8.5.06-.01 43.82-.01 87.64-.01 131.46-2.83.04-5.67.05-8.51.05-.07-7 .49-13.99.08-20.98-7.19 16.34-26.56 25.24-43.83 22.17-13.64-1.97-25.74-11.38-31.38-23.89-4.47-9.14-5.22-19.66-3.74-29.61 2.1-12.34 9.45-23.9 20.34-30.27 9.16-5.51 20.42-6.98 30.83-4.96 11.87 2.23 22.5 10.35 27.59 21.32.3-21.78.05-43.56.13-65.35Zm-47.09 52.5c-5.34 1.67-10.18 4.83-14 8.89-11.14 12.52-12.62 32.13-4.82 46.74 4.92 9.42 14.7 16.13 25.28 17.18 5.95.33 12.13.47 17.78-1.73 9.99-3.33 17.98-11.74 21.25-21.7 3.68-10.89 2.84-23.38-2.7-33.5-4.59-8.44-12.97-14.56-22.32-16.64-6.74-1-13.9-1.3-20.47.76ZM363.79 160.33c2.84-.02 5.67-.03 8.51-.03.02 14.4-.02 28.79.02 43.19 8.37-.01 16.74-.01 25.11 0-.01 2.35-.01 4.7-.01 7.05-8.36 0-16.71.02-25.07-.02-.07 20.13-.07 40.26-.01 60.39.24 5.46 1.66 12.36 7.51 14.4 4.94.79 10.75.84 14.62-2.85 1.25-.72 2.24-2.82 3.92-2.13 1.76 1.32 3.22 2.98 4.75 4.56-6.24 7.84-17.4 10.58-26.75 7.4-5.47-1.94-9.53-6.85-11.07-12.36-2.03-6.77-1.47-13.91-1.53-20.89-.03-16.17.07-32.34-.05-48.51-4.47.02-8.94.01-13.4.02-.01-2.36-.02-4.71-.01-7.07 4.46 0 8.92-.02 13.38.05.19-14.4.03-28.8.08-43.2ZM522.73 160.22c2.84 0 5.67 0 8.51.01v131.55c-2.84 0-5.68.01-8.51 0 .01-43.85 0-87.71 0-131.56ZM182.14 203.29c2.82 0 5.63.01 8.45.02 0 2.45 0 4.9.01 7.36-.66.05-1.99.16-2.65.21-1.86.21-3.73.37-5.59.52-.15-2.7-.2-5.4-.22-8.11ZM325.36 203.48h8.45c-.01 2.64-.03 5.28-.07 7.92-2.78-.02-5.55-.02-8.33-.01-.04-2.64-.05-5.27-.05-7.91ZM229.46 210.46c12.04-8.17 28.35-9.28 41.56-3.38 8.45 3.81 14.96 10.88 19.45 18.85-.13-6.84-.29-13.67-.34-20.5h8.38c.01 26.87 0 53.75.01 80.62 0 7.01.14 14.07-1 21.01-1.31 8.58-5.07 17.04-11.73 22.78-6.47 5.76-15.12 8.28-23.57 9.16h-10.66c-16.06-.98-31.14-10.7-38.34-25.13 2.31-1.34 4.63-2.66 6.97-3.96 3.7 6.35 8.43 12.3 14.78 16.17 9.76 5.98 21.99 6.68 32.95 4.18 8.79-1.97 16.39-8.46 19.25-17.06 4.58-13.48 2.46-27.94 2.99-41.9-3.82 6.56-8.87 12.52-15.52 16.34-16.64 10.32-40.38 6.76-53.09-8.2-17.39-19.57-14.36-54.31 7.91-68.98Zm2.98 7.94c-13.94 11.29-16.61 32.59-9.19 48.3 5.29 11.68 17.87 19.63 30.73 19 9.53.54 19.19-3.11 25.94-9.84 13.31-13.45 14.22-36.66 2.91-51.62-4.82-6.45-12.14-10.46-19.79-12.54-5.68-.57-11.41-.57-17.09-.01-4.79 1.56-9.67 3.32-13.51 6.71ZM441.96 205c11.86-3.24 25.34-1.69 35.45 5.6 5.83 3.91 10.21 9.64 13.21 15.93-.24-7.04-.04-14.08-.18-21.11 2.75.01 5.5.01 8.25 0 .06 28.79-.01 57.58.04 86.36-2.78 0-5.56.01-8.33.02.22-7.02-.06-14.04.25-21.06-4.72 9.29-12.92 16.91-22.8 20.37-11.12 3.91-23.91 3.1-34.26-2.62-9.62-5.23-16.84-14.45-20.06-24.87-4.4-13.79-2.59-29.58 5.35-41.75 5.49-7.99 13.6-14.42 23.08-16.87Zm1.6 7.72c-10.07 3.08-18.02 11.5-21.19 21.46-3.71 11.32-3 24.25 2.79 34.77 5.15 9.34 15.08 16 25.79 16.64 5.57.22 11.35.35 16.63-1.77 10.75-3.54 18.98-13.03 21.75-23.91 4.21-15.11-.48-33.35-13.68-42.6-9.14-6.66-21.45-7.49-32.09-4.59ZM325.37 221.4h8.42c.02 24.02.01 48.04.01 72.06h-8.44c0-24.02-.01-48.04.01-72.06ZM182.18 221.4h8.4c.02 24.02.01 48.04 0 72.06-2.8 0-5.6 0-8.4.01-.02-24.02-.01-48.04 0-72.07Z" fill="#040707"/><path d="M611.56 73.07c.11-7.47 6.92-14.17 14.48-13.65 6.38-.4 11.99 4.38 13.96 10.23v7.65c-2.02 5.84-7.66 10.5-14 10.25-7.73.33-14.86-6.71-14.44-14.48Z" fill="#F47920"/></svg>