<svg fill="none" xmlns="http://www.w3.org/2000/svg" viewBox="0 0 116 28">
  <path
    d="M0 17.343C0 11.83 4.868 7.215 10.612 7.215c2.936 0 5.381 1.111 7.207 2.896a.536.536 0 0 1 .01.747l-.031.032-2.723 2.33a.712.712 0 0 1-.929-.011 5.583 5.583 0 0 0-3.576-1.368c-2.85 0-5.253 2.51-5.253 5.48 0 3.045 2.402 5.588 5.285 5.588 1.302 0 2.647-.566 3.651-1.442a.7.7 0 0 1 .929-.011l2.722 2.297a.525.525 0 0 1 .064.737l-.032.032c-1.868 1.859-4.355 3.002-7.366 3.002C4.836 27.514 0 22.855 0 17.343ZM32.232 7.76v3.558a.527.527 0 0 1-.502.523c-3.758.182-6.139 2.468-6.139 5.95v8.74a.524.524 0 0 1-.523.523h-4.42a.524.524 0 0 1-.523-.523V8.188c0-.289.235-.524.523-.524h4.42c.289 0 .523.235.523.524v3.076c1.196-2.35 3.363-3.846 6.065-4.038a.526.526 0 0 1 .566.48c.01.022.01.044.01.054ZM94.028 1.361v25.17a.524.524 0 0 1-.524.523h-4.42a.524.524 0 0 1-.523-.523v-2.255c-1.537 2.03-3.79 3.227-6.523 3.227-5.178 0-8.926-4.199-8.926-10.17 0-5.93 3.748-10.128 8.926-10.128 2.733 0 4.986 1.196 6.523 3.226v-9.08c0-.29.235-.524.523-.524h4.42a.54.54 0 0 1 .523.534ZM88.55 17.343c0-3.226-2.06-5.512-4.943-5.512-3.032 0-5.178 2.286-5.178 5.512 0 3.258 2.135 5.555 5.178 5.555 2.883 0 4.944-2.286 4.944-5.555ZM111.548 21.413l2.658 2.714a.525.525 0 0 1-.011.748l-.021.02c-1.804 1.582-4.868 2.618-7.506 2.618-5.776 0-10.27-4.241-10.27-10.202 0-5.854 4.313-10.096 9.972-10.096 5.925 0 9.459 4.391 9.63 11.389a.535.535 0 0 1-.513.544h-13.463c.395 2.02 2.328 3.526 4.612 3.526 1.335 0 2.915-.534 3.993-1.336a.69.69 0 0 1 .919.075Zm-9.545-6.207h8.904c-.427-1.912-2.114-3.376-4.324-3.376-2.061 0-4.206 1.272-4.58 3.376ZM60.781 7.215s-5.306-.224-7.922 4.199l-6.064 9.337s-.427.716-.961 1.121c-.512.396-1.43.791-2.84.791-2.285 0-4.228-1.496-4.612-3.525h6.513a.563.563 0 0 0 .48-.267l4.74-7.308a.599.599 0 0 0 .022-.598c-2.317-4.027-7.41-3.771-7.41-3.771-5.658 0-9.972 4.241-9.972 10.096 0 5.96 4.495 10.202 10.271 10.202h.15c.128 0 .256-.01.384-.021 1.313-.118 4.751-.663 6.769-3.376l6.822-10.46.096-.138c.416-.641 1.559-1.677 3.523-1.677 2.883 0 5.328 2.51 5.328 5.512s-2.434 5.555-5.328 5.555a4.836 4.836 0 0 1-2.167-.587c-.886-.48-1.815-1.293-2.584-2.404a.174.174 0 0 0-.245-.053.13.13 0 0 0-.054.053l-2.37 3.654a.467.467 0 0 0 .022.534c2.722 3.6 7.356 3.419 7.388 3.419 5.733 0 10.537-4.648 10.537-10.17 0-5.524-4.772-10.118-10.516-10.118ZM42.973 11.83c2.21 0 3.907 1.443 4.324 3.376h-8.894c.331-2.04 2.392-3.376 4.57-3.376Z"
    fill="#fff"
  />
</svg>
