<svg width="71" height="17" viewBox="0 0 71 17" fill="none" xmlns="http://www.w3.org/2000/svg">
<path d="M2.66899e-08 10.0648C1.21625e-08 6.7055 2.96683 3.89307 6.46717 3.89307C8.25637 3.89307 9.7463 4.57013 10.8589 5.65735C10.9825 5.78104 10.989 5.98286 10.8654 6.11306C10.8589 6.11958 10.8524 6.12609 10.8458 6.1326L9.18676 7.55183C9.02411 7.68855 8.78338 7.68855 8.62072 7.54532C8.01564 7.01799 7.24141 6.72503 6.44114 6.71201C4.70399 6.71201 3.24009 8.24192 3.24009 10.0518C3.24009 11.9072 4.70399 13.4566 6.46066 13.4566C7.25442 13.4566 8.0742 13.1116 8.68578 12.5778C8.84844 12.4345 9.08917 12.428 9.25182 12.5712L10.9109 13.9709C11.0475 14.0881 11.0605 14.2899 10.9499 14.4202C10.9434 14.4267 10.9369 14.4332 10.9304 14.4397C9.79184 15.5725 8.27589 16.2691 6.44114 16.2691C2.94731 16.2626 4.12173e-08 13.4241 2.66899e-08 10.0648Z" fill="white"/>
<path d="M19.6422 4.22509L19.6422 6.39301C19.6422 6.56227 19.5056 6.7055 19.3364 6.71201C17.0462 6.82268 15.5953 8.21588 15.5953 10.3382L15.5953 15.6636C15.5953 15.8394 15.4522 15.9826 15.2765 15.9826L12.583 15.9826C12.4073 15.9826 12.2642 15.8394 12.2642 15.6636L12.2642 4.4855C12.2642 4.30972 12.4073 4.1665 12.583 4.1665L15.2765 4.1665C15.4522 4.1665 15.5953 4.30972 15.5953 4.4855L15.5953 6.36046C16.324 4.9282 17.6448 4.01676 19.2909 3.89958C19.4665 3.88656 19.6227 4.01676 19.6357 4.19254C19.6422 4.20556 19.6422 4.21858 19.6422 4.22509Z" fill="white"/>
<path d="M57.3001 0.325513L57.3001 15.6637C57.3001 15.8395 57.157 15.9827 56.9813 15.9827L54.2877 15.9827C54.1121 15.9827 53.9689 15.8395 53.9689 15.6637L53.9689 14.29C53.032 15.527 51.6592 16.2561 49.9936 16.2561C46.8381 16.2561 44.5544 13.6976 44.5544 10.0584C44.5544 6.44516 46.8381 3.88663 49.9936 3.88663C51.6592 3.88663 53.032 4.61578 53.9689 5.85273L53.9689 0.319003C53.9689 0.143226 54.1121 -4.13323e-08 54.2877 -4.2092e-08L56.9813 -5.37404e-08C57.157 0.00651021 57.3001 0.149736 57.3001 0.325513ZM53.9624 10.0649C53.9624 8.09877 52.7067 6.70557 50.95 6.70557C49.1023 6.70557 47.7945 8.09877 47.7945 10.0649C47.7945 12.0505 49.0958 13.4502 50.95 13.4502C52.7067 13.4502 53.9624 12.057 53.9624 10.0649Z" fill="white"/>
<path d="M67.9768 12.5452L69.5968 14.1988C69.7205 14.3225 69.7205 14.5308 69.5903 14.6545C69.5838 14.661 69.5838 14.661 69.5773 14.6675C68.4778 15.6311 66.6105 16.2626 65.0035 16.2626C61.4836 16.2626 58.7445 13.678 58.7445 10.0453C58.7445 6.47764 61.373 3.89307 64.8213 3.89307C68.4322 3.89307 70.5858 6.56878 70.6899 10.833C70.6964 11.0088 70.5533 11.1585 70.3776 11.165L70.3711 11.165L62.1733 11.165C62.414 12.3955 63.5916 13.3134 64.984 13.3134C65.7972 13.3134 66.7601 12.9879 67.4173 12.4996C67.5864 12.3694 67.8272 12.389 67.9768 12.5452ZM62.1603 8.76274L67.5864 8.76274C67.3262 7.5974 66.2982 6.7055 64.9514 6.7055C63.6957 6.7055 62.388 7.48022 62.1603 8.76274Z" fill="white"/>
<path d="M37.0398 3.89319C37.0398 3.89319 33.8063 3.75647 32.2122 6.45172L28.5167 12.1417C28.5167 12.1417 28.2565 12.5779 27.9312 12.8253C27.6189 13.0661 27.0593 13.307 26.2005 13.307C24.8082 13.307 23.6241 12.3956 23.3898 11.1586L27.3586 11.1586C27.4757 11.1586 27.5863 11.1 27.6514 10.9959L30.5401 6.54286C30.6117 6.43219 30.6117 6.29547 30.5532 6.17829C29.1413 3.72392 26.0379 3.88017 26.0379 3.88017C22.5896 3.88017 19.9611 6.46474 19.9611 10.0324C19.9611 13.6651 22.7002 16.2497 26.22 16.2497C26.22 16.2497 26.2526 16.2497 26.3111 16.2497C26.3892 16.2497 26.4673 16.2431 26.5453 16.2366C27.3456 16.165 29.4406 15.833 30.6703 14.1794L34.8277 7.80585L34.8863 7.72122C35.14 7.3306 35.8362 6.69911 37.0333 6.69911C38.79 6.69911 40.2799 8.22902 40.2799 10.0584C40.2799 11.8878 38.7965 13.4437 37.0333 13.4437C36.5714 13.4307 36.1225 13.307 35.7126 13.0857C35.1726 12.7927 34.6065 12.2979 34.1381 11.6209C34.1055 11.5688 34.0405 11.5558 33.9884 11.5883C33.9754 11.5948 33.9624 11.6078 33.9559 11.6209L32.5115 13.8474C32.4465 13.945 32.453 14.0752 32.5245 14.1729C34.1836 16.3668 37.0073 16.2562 37.0268 16.2562C40.5207 16.2562 43.4485 13.4242 43.4485 10.0584C43.4485 6.6926 40.5402 3.89319 37.0398 3.89319ZM26.1875 6.70562C27.5343 6.70562 28.5688 7.5845 28.8225 8.76286L23.4028 8.76286C23.6045 7.5194 24.8602 6.70562 26.1875 6.70562Z" fill="white"/>
</svg>
