<svg fill="none" xmlns="http://www.w3.org/2000/svg" viewBox="0 0 429 450"><path d="M21.719 370V95h55.937c14.167 0 25.313 2.917 33.438 8.75 8.229 5.833 14.062 14.219 17.5 25.156 3.541 10.834 5.312 23.854 5.312 39.063l.156 122.187c0 18.334-1.927 33.386-5.781 45.156-3.75 11.771-9.843 20.521-18.281 26.25-8.438 5.626-19.635 8.438-33.594 8.438H21.72Zm36.25-28.75H73.28c5.521 0 10.052-1.146 13.594-3.438 3.646-2.395 6.354-6.666 8.125-12.812 1.875-6.146 2.813-15 2.813-26.562l-.157-130.469c0-15.938-1.927-27.344-5.781-34.219-3.75-6.875-10.104-10.312-19.063-10.312H57.97V341.25ZM159.219 370l40.625-275h45.781l43.906 275h-34.062l-7.344-51.094h-47.5L193.906 370h-34.687Zm45.156-80.312h39.531l-20.312-142.344h-.469l-18.75 142.344Zm160 83.437c-11.25 0-20.521-1.927-27.813-5.781-7.187-3.854-12.812-9.375-16.874-16.563-4.063-7.187-6.876-15.781-8.438-25.781-1.562-10-2.344-21.198-2.344-33.594v-25.781h34.844v27.813c0 17.395 1.302 29.843 3.906 37.343 2.709 7.5 8.282 11.25 16.719 11.25 5.729 0 10-1.354 12.813-4.062 2.812-2.709 4.635-7.031 5.468-12.969.834-5.938 1.25-13.802 1.25-23.594 0-11.458-2.187-21.51-6.562-30.156-4.271-8.75-10.573-17.448-18.906-26.094l-19.063-19.062a235.24 235.24 0 0 1-15.313-17.969c-4.791-6.458-8.697-13.698-11.718-21.719-3.021-8.021-4.532-17.135-4.532-27.344 0-14.062 1.615-26.145 4.844-36.25 3.229-10.104 8.802-17.812 16.719-23.124 8.021-5.417 19.219-8.126 33.594-8.126 11.146 0 20.156 1.876 27.031 5.626 6.875 3.645 12.135 8.906 15.781 15.781 3.646 6.875 6.146 15.104 7.5 24.687 1.354 9.584 2.031 20.313 2.031 32.188v16.562H381.25V167.5c0-10-.469-18.281-1.406-24.844-.834-6.666-2.552-11.666-5.156-15-2.605-3.333-6.511-5-11.719-5-4.896 0-8.854 1.146-11.875 3.438-3.021 2.291-5.209 5.833-6.563 10.625-1.354 4.687-2.031 10.781-2.031 18.281 0 6.667.781 12.24 2.344 16.719 1.666 4.479 4.166 8.75 7.5 12.812 3.437 3.959 7.604 8.542 12.5 13.75L385.156 220c10.313 10.938 18.542 22.76 24.688 35.469 6.25 12.708 9.375 27.187 9.375 43.437 0 15.729-1.615 29.115-4.844 40.156-3.229 11.042-8.802 19.48-16.719 25.313-7.916 5.833-19.01 8.75-33.281 8.75Z" fill="#000"/><path d="M12.435 426.217h404.13" stroke="#DE4827" stroke-width="47"/></svg>