<svg width="429" height="450" viewBox="0 0 429 450" fill="none" xmlns="http://www.w3.org/2000/svg">
<path d="M21.7188 370V95H77.6562C91.8229 95 102.969 97.9167 111.094 103.75C119.323 109.583 125.156 117.969 128.594 128.906C132.135 139.74 133.906 152.76 133.906 167.969L134.062 290.156C134.062 308.49 132.135 323.542 128.281 335.312C124.531 347.083 118.438 355.833 110 361.562C101.562 367.188 90.3646 370 76.4062 370H21.7188ZM57.9688 341.25H73.2812C78.8021 341.25 83.3333 340.104 86.875 337.812C90.5208 335.417 93.2292 331.146 95 325C96.875 318.854 97.8125 310 97.8125 298.438L97.6562 167.969C97.6562 152.031 95.7292 140.625 91.875 133.75C88.125 126.875 81.7708 123.438 72.8125 123.438H57.9688V341.25ZM159.219 370L199.844 95H245.625L289.531 370H255.469L248.125 318.906H200.625L193.906 370H159.219ZM204.375 289.688H243.906L223.594 147.344H223.125L204.375 289.688ZM364.375 373.125C353.125 373.125 343.854 371.198 336.562 367.344C329.375 363.49 323.75 357.969 319.688 350.781C315.625 343.594 312.812 335 311.25 325C309.688 315 308.906 303.802 308.906 291.406V265.625H343.75V293.438C343.75 310.833 345.052 323.281 347.656 330.781C350.365 338.281 355.938 342.031 364.375 342.031C370.104 342.031 374.375 340.677 377.188 337.969C380 335.26 381.823 330.938 382.656 325C383.49 319.062 383.906 311.198 383.906 301.406C383.906 289.948 381.719 279.896 377.344 271.25C373.073 262.5 366.771 253.802 358.438 245.156L339.375 226.094C334.062 220.469 328.958 214.479 324.062 208.125C319.271 201.667 315.365 194.427 312.344 186.406C309.323 178.385 307.812 169.271 307.812 159.062C307.812 145 309.427 132.917 312.656 122.812C315.885 112.708 321.458 105 329.375 99.6875C337.396 94.2708 348.594 91.5625 362.969 91.5625C374.115 91.5625 383.125 93.4375 390 97.1875C396.875 100.833 402.135 106.094 405.781 112.969C409.427 119.844 411.927 128.073 413.281 137.656C414.635 147.24 415.312 157.969 415.312 169.844V186.406H381.25V167.5C381.25 157.5 380.781 149.219 379.844 142.656C379.01 135.99 377.292 130.99 374.688 127.656C372.083 124.323 368.177 122.656 362.969 122.656C358.073 122.656 354.115 123.802 351.094 126.094C348.073 128.385 345.885 131.927 344.531 136.719C343.177 141.406 342.5 147.5 342.5 155C342.5 161.667 343.281 167.24 344.844 171.719C346.51 176.198 349.01 180.469 352.344 184.531C355.781 188.49 359.948 193.073 364.844 198.281L385.156 220C395.469 230.938 403.698 242.76 409.844 255.469C416.094 268.177 419.219 282.656 419.219 298.906C419.219 314.635 417.604 328.021 414.375 339.062C411.146 350.104 405.573 358.542 397.656 364.375C389.74 370.208 378.646 373.125 364.375 373.125Z" fill="black"/>
<path d="M12.4346 426.217H416.565" stroke="#DE4827" stroke-width="47"/>
</svg>
