<?xml version="1.0" encoding="UTF-8"?>
<svg xmlns="http://www.w3.org/2000/svg" xmlns:xlink="http://www.w3.org/1999/xlink" width="1200px" height="226px" viewBox="0 0 1202 226" version="1.1">
<g id="surface1">
<path style=" stroke:none;fill-rule:nonzero;fill:rgb(0%,0%,0%);fill-opacity:1;" d="M 395.039062 38.210938 C 392.789062 38.785156 390.792969 39.90625 389.117188 41.558594 C 384.136719 46.449219 384.320312 54.527344 389.554688 59.183594 C 392.007812 61.363281 394.921875 62.421875 398.570312 62.421875 C 402.792969 62.421875 405.753906 61.203125 408.347656 58.449219 C 410.066406 56.636719 411.03125 54.824219 411.535156 52.414062 C 412.15625 49.476562 411.902344 47.207031 410.640625 44.636719 C 409.308594 41.925781 406.648438 39.632812 403.550781 38.554688 C 401.667969 37.886719 397.054688 37.703125 395.039062 38.210938 Z M 395.039062 38.210938 "/>
<path style=" stroke:none;fill-rule:nonzero;fill:rgb(0%,0%,0%);fill-opacity:1;" d="M 536.933594 38.234375 C 533.652344 39.082031 530.1875 41.765625 528.8125 44.453125 C 527.527344 47 527.160156 50.554688 527.871094 53.355469 C 528.949219 57.488281 532.550781 60.929688 537.050781 62.078125 C 538.632812 62.488281 542.121094 62.535156 543.863281 62.167969 C 548.246094 61.25 551.988281 57.738281 553.316406 53.265625 C 553.847656 51.496094 553.800781 47.941406 553.25 46.148438 C 552.078125 42.363281 548.523438 39.21875 544.253906 38.210938 C 542.417969 37.773438 538.609375 37.796875 536.933594 38.234375 Z M 536.933594 38.234375 "/>
<path style=" stroke:none;fill-rule:nonzero;fill:rgb(0%,0%,0%);fill-opacity:1;" d="M 731.058594 103.730469 L 731.058594 164.773438 L 751.480469 164.773438 L 751.480469 42.683594 L 731.058594 42.683594 Z M 731.058594 103.730469 "/>
<path style=" stroke:none;fill-rule:nonzero;fill:rgb(0%,0%,0%);fill-opacity:1;" d="M 1026.140625 103.730469 L 1026.140625 164.773438 L 1034.378906 164.773438 L 1034.449219 138.886719 L 1034.519531 113.023438 L 1035.046875 110.542969 C 1036.398438 104.1875 1038.898438 99.183594 1042.800781 95.007812 C 1046.058594 91.566406 1050.257812 88.925781 1054.824219 87.480469 C 1063.453125 84.726562 1073.960938 85.1875 1080.824219 88.605469 C 1089.222656 92.78125 1093.625 100.261719 1094.519531 111.761719 C 1094.660156 113.621094 1094.75 124.863281 1094.75 139.804688 L 1094.75 164.773438 L 1102.78125 164.773438 L 1102.78125 137.371094 C 1102.78125 114.214844 1102.734375 109.535156 1102.4375 107.308594 C 1100.097656 89.476562 1088.394531 79.082031 1069.855469 78.324219 C 1054.503906 77.726562 1042.019531 83.71875 1035.367188 94.894531 L 1034.402344 96.5 L 1034.402344 42.683594 L 1026.140625 42.683594 Z M 1026.140625 103.730469 "/>
<path style=" stroke:none;fill-rule:nonzero;fill:rgb(0%,0%,0%);fill-opacity:1;" d="M 260.894531 107.171875 L 260.894531 164.796875 L 290.105469 164.703125 C 316.402344 164.636719 319.566406 164.589844 322.046875 164.222656 C 330.8125 162.960938 337.808594 160.824219 344.535156 157.40625 C 353.574219 152.816406 360.847656 146.160156 366.125 137.648438 C 371.976562 128.214844 374.800781 115.9375 374.019531 103.363281 C 373.492188 94.710938 371.863281 88.238281 368.511719 81.308594 C 363.394531 70.726562 355.386719 62.605469 344.648438 57.140625 C 335.90625 52.714844 327.230469 50.464844 316.308594 49.800781 C 314.085938 49.683594 301.371094 49.570312 286.664062 49.570312 L 260.894531 49.570312 Z M 314.726562 67.929688 C 326.269531 68.847656 335.054688 72.5625 341.917969 79.402344 C 344.921875 82.410156 347.011719 85.347656 348.753906 89.0625 C 353.894531 100.011719 353.871094 114.789062 348.6875 125.621094 C 343.132812 137.210938 331.890625 144.578125 317.160156 146.296875 C 314.839844 146.574219 310.941406 146.644531 298.367188 146.644531 L 282.464844 146.644531 L 282.464844 67.699219 L 297.125 67.699219 C 305.179688 67.699219 313.097656 67.8125 314.726562 67.929688 Z M 314.726562 67.929688 "/>
<path style=" stroke:none;fill-rule:nonzero;fill:rgb(0%,0%,0%);fill-opacity:1;" d="M 775.273438 49.707031 C 775.183594 49.800781 775.113281 75.730469 775.113281 107.332031 L 775.113281 164.773438 L 783.605469 164.773438 L 783.605469 127.136719 L 801.824219 127.136719 C 820.5 127.136719 823.714844 127.023438 828.691406 126.195312 C 847.003906 123.1875 859.074219 112.703125 862.078125 97.140625 C 863.25 91.152344 863.042969 83.191406 861.597656 77.519531 C 859.464844 69.074219 854.324219 62.007812 846.820312 57.1875 C 842.757812 54.574219 836.769531 52.207031 831.308594 51.085938 C 824.929688 49.753906 824.699219 49.730469 799.09375 49.636719 C 786.082031 49.59375 775.367188 49.617188 775.273438 49.707031 Z M 824.90625 57.691406 C 834.269531 59.023438 840.691406 61.710938 845.648438 66.34375 C 849.917969 70.316406 852.554688 75.296875 853.726562 81.582031 C 854.070312 83.351562 854.164062 84.933594 854.164062 88.46875 C 854.164062 92 854.070312 93.585938 853.726562 95.351562 C 851.820312 105.542969 845.949219 112.519531 836.035156 116.417969 C 833.464844 117.429688 830.023438 118.300781 826.167969 118.945312 C 823.347656 119.402344 822.175781 119.425781 803.40625 119.496094 L 783.605469 119.585938 L 783.605469 57.097656 L 802.945312 57.210938 C 819.308594 57.28125 822.679688 57.371094 824.90625 57.691406 Z M 824.90625 57.691406 "/>
<path style=" stroke:none;fill-rule:nonzero;fill:rgb(0%,0%,0%);fill-opacity:1;" d="M 215.117188 54.160156 C 214.175781 54.320312 211.035156 54.984375 204.449219 56.363281 C 200.25 57.257812 198.367188 57.648438 191.828125 58.976562 C 189.371094 59.460938 185.863281 60.195312 184.027344 60.585938 C 182.191406 60.953125 178.957031 61.640625 176.796875 62.078125 C 174.664062 62.511719 171.910156 63.085938 170.71875 63.339844 C 168.46875 63.796875 156.925781 66.207031 155.136719 66.574219 C 154.585938 66.6875 154.082031 66.828125 154.035156 66.871094 C 153.945312 66.941406 168.746094 75.730469 168.949219 75.730469 C 169.019531 75.730469 169.730469 75.433594 170.535156 75.066406 C 171.335938 74.699219 173.171875 73.871094 174.617188 73.207031 C 176.0625 72.542969 177.898438 71.714844 178.703125 71.347656 C 179.507812 70.980469 180.195312 70.683594 180.21875 70.683594 C 180.261719 70.683594 181.363281 70.175781 182.671875 69.558594 C 183.980469 68.9375 185.929688 68.066406 187.007812 67.585938 C 188.085938 67.101562 189.921875 66.277344 191.09375 65.726562 C 192.285156 65.175781 193.273438 64.714844 193.320312 64.714844 C 193.367188 64.714844 194.214844 64.347656 195.199219 63.890625 C 197.265625 62.925781 199.652344 61.824219 200.664062 61.386719 C 201.050781 61.226562 201.96875 60.792969 202.726562 60.46875 C 203.484375 60.125 204.515625 59.667969 205.023438 59.4375 C 205.527344 59.207031 206.71875 58.679688 207.660156 58.222656 C 210.390625 56.957031 211.492188 56.453125 214.429688 55.167969 C 217.046875 54 217.207031 53.769531 215.117188 54.160156 Z M 215.117188 54.160156 "/>
<path style=" stroke:none;fill-rule:nonzero;fill:rgb(0%,0%,0%);fill-opacity:1;" d="M 222.230469 56.15625 C 221.472656 56.589844 219.660156 57.578125 218.214844 58.335938 C 216.769531 59.117188 215.484375 59.804688 215.347656 59.894531 C 215.234375 59.988281 214.085938 60.609375 212.824219 61.273438 C 211.5625 61.9375 207.179688 64.28125 203.070312 66.503906 C 198.964844 68.707031 193.503906 71.644531 190.910156 73.023438 C 188.316406 74.421875 186.113281 75.640625 185.976562 75.730469 C 185.863281 75.824219 184.875 76.351562 183.796875 76.878906 C 182.71875 77.429688 181.179688 78.253906 180.355469 78.714844 C 179.527344 79.171875 177.875 80.070312 176.683594 80.710938 C 172.09375 83.144531 170.304688 84.085938 168.421875 85.140625 C 167.34375 85.738281 165.667969 86.65625 164.707031 87.183594 C 161.21875 89.019531 159.453125 89.980469 157.707031 90.898438 C 156.722656 91.429688 155.503906 92.09375 155 92.367188 C 154.496094 92.644531 153.210938 93.355469 152.132812 93.90625 C 151.054688 94.480469 149.355469 95.375 148.34375 95.925781 C 147.335938 96.476562 145.84375 97.257812 145.019531 97.714844 C 144.191406 98.152344 143.113281 98.726562 142.609375 99.023438 C 142.105469 99.300781 140.773438 100.035156 139.625 100.628906 C 135.632812 102.765625 131.570312 104.921875 130.449219 105.566406 C 128.542969 106.621094 126.203125 107.859375 123.90625 109.074219 C 122.714844 109.695312 121.269531 110.476562 120.695312 110.796875 C 117.644531 112.496094 115.671875 113.550781 112.207031 115.386719 C 111.011719 116.007812 109.660156 116.71875 109.222656 116.96875 C 108.785156 117.222656 107.5 117.910156 106.355469 118.53125 C 105.230469 119.128906 103.667969 119.953125 102.914062 120.367188 C 102.15625 120.78125 100.710938 121.558594 99.699219 122.085938 C 98.691406 122.636719 96.96875 123.578125 95.890625 124.175781 C 94.8125 124.773438 93.113281 125.667969 92.105469 126.195312 C 87.515625 128.558594 86.621094 129.132812 86.550781 129.796875 C 86.507812 130.144531 86.621094 131.65625 86.828125 133.195312 C 87.21875 136.363281 87.628906 139.710938 88.457031 147.101562 C 89.351562 155.042969 89.695312 158.003906 90.0625 160.871094 C 90.40625 163.578125 91.714844 175.078125 91.945312 177.464844 C 92.011719 178.199219 92.152344 178.839844 92.242188 178.886719 C 92.378906 178.976562 99.242188 171.128906 103.257812 166.308594 C 103.832031 165.621094 109.3125 159.195312 110.691406 157.636719 C 111.082031 157.175781 111.816406 156.304688 112.320312 155.707031 C 112.824219 155.089844 113.351562 154.492188 113.46875 154.355469 C 115.050781 152.609375 116.359375 150.933594 116.289062 150.683594 C 116.222656 150.40625 112.207031 146.136719 104.542969 138.222656 C 103.417969 137.050781 102.589844 136.085938 102.730469 136.085938 C 102.867188 136.085938 105.070312 137.210938 107.640625 138.566406 C 110.210938 139.941406 113.511719 141.6875 114.960938 142.441406 C 116.40625 143.199219 118.332031 144.210938 119.203125 144.691406 C 120.097656 145.152344 121.75 146.046875 122.875 146.644531 C 124.023438 147.238281 125.765625 148.179688 126.777344 148.707031 C 127.785156 149.234375 129.644531 150.222656 130.90625 150.886719 C 132.167969 151.554688 133.867188 152.449219 134.691406 152.886719 C 135.519531 153.320312 137.539062 154.375 139.167969 155.25 C 140.820312 156.097656 142.265625 156.878906 142.378906 156.96875 C 142.515625 157.0625 144.582031 158.140625 146.96875 159.378906 C 149.378906 160.617188 151.441406 161.699219 151.558594 161.8125 C 151.695312 161.902344 153.347656 162.777344 155.230469 163.738281 C 157.132812 164.726562 158.761719 165.621094 158.878906 165.714844 C 159.015625 165.828125 159.175781 165.921875 159.269531 165.921875 C 159.429688 165.921875 162.160156 161.398438 165.324219 155.9375 C 168.378906 150.683594 172.988281 142.765625 180.996094 129.179688 C 182.535156 126.5625 184.003906 124.039062 184.277344 123.554688 C 184.53125 123.050781 185.402344 121.582031 186.183594 120.25 C 186.988281 118.921875 188.433594 116.441406 189.417969 114.742188 C 190.40625 113.046875 191.644531 110.910156 192.171875 110.039062 C 192.699219 109.144531 193.570312 107.652344 194.121094 106.710938 C 194.671875 105.769531 195.316406 104.667969 195.546875 104.300781 C 195.933594 103.683594 199.722656 97.210938 203.507812 90.648438 C 204.355469 89.203125 206.675781 85.207031 208.691406 81.8125 C 210.691406 78.394531 212.570312 75.15625 212.890625 74.582031 C 213.214844 74.011719 213.972656 72.746094 214.589844 71.761719 C 215.1875 70.773438 215.691406 69.925781 215.691406 69.878906 C 215.691406 69.832031 216.449219 68.523438 217.367188 66.964844 C 218.308594 65.402344 219.707031 62.996094 220.511719 61.617188 C 221.3125 60.21875 222.253906 58.632812 222.597656 58.058594 C 224.480469 54.984375 224.457031 54.847656 222.230469 56.15625 Z M 222.230469 56.15625 "/>
<path style=" stroke:none;fill-rule:nonzero;fill:rgb(0%,0%,0%);fill-opacity:1;" d="M 577.320312 67.585938 L 577.320312 77.566406 L 562.863281 77.566406 L 562.863281 94.089844 L 577.320312 94.089844 L 577.320312 116.578125 C 577.320312 131.40625 577.410156 139.851562 577.570312 141.410156 C 578.996094 154.675781 586.636719 162.914062 599.828125 165.371094 C 602.445312 165.851562 609.445312 166.058594 612.382812 165.714844 C 615.25 165.371094 618.738281 164.542969 621.078125 163.625 C 622.777344 162.984375 625.710938 161.375 626.8125 160.480469 L 627.34375 160.066406 L 624.566406 152.953125 C 623.027344 149.03125 621.695312 145.769531 621.628906 145.679688 C 621.535156 145.585938 621.007812 145.816406 620.457031 146.183594 C 618.988281 147.171875 616.488281 148.15625 614.445312 148.570312 C 612.21875 149.03125 608.183594 149.03125 606.277344 148.59375 C 603.179688 147.859375 600.726562 145.929688 599.394531 143.199219 C 597.949219 140.285156 597.972656 140.722656 597.972656 116.28125 L 597.972656 94.089844 L 621.375 94.089844 L 621.375 77.566406 L 597.972656 77.566406 L 597.972656 57.601562 L 577.320312 57.601562 Z M 577.320312 67.585938 "/>
<path style=" stroke:none;fill-rule:nonzero;fill:rgb(0%,0%,0%);fill-opacity:1;" d="M 971.988281 69.535156 L 971.988281 78.945312 L 956.386719 78.945312 L 956.386719 86.058594 L 971.96875 86.058594 L 972.058594 116.050781 C 972.152344 148.523438 972.128906 147.332031 973.390625 151.210938 C 976.554688 160.847656 984.65625 165.828125 996.542969 165.390625 C 1002.417969 165.1875 1007.257812 163.71875 1011.136719 160.984375 C 1013.269531 159.449219 1013.269531 159.722656 1011.410156 156.601562 C 1010.515625 155.109375 1009.757812 153.824219 1009.714844 153.804688 C 1009.691406 153.757812 1009 154.171875 1008.199219 154.742188 C 1005.558594 156.601562 1002.921875 157.660156 999.730469 158.140625 C 997.414062 158.460938 992.800781 158.300781 990.921875 157.796875 C 984.746094 156.144531 981.261719 151.578125 980.480469 144.117188 C 980.34375 142.808594 980.25 130.898438 980.25 113.988281 L 980.25 86.058594 L 1007.554688 86.058594 L 1007.554688 78.945312 L 980.25 78.945312 L 980.25 60.125 L 971.988281 60.125 Z M 971.988281 69.535156 "/>
<path style=" stroke:none;fill-rule:nonzero;fill:rgb(0%,0%,0%);fill-opacity:1;" d="M 142.839844 69.648438 C 142.21875 69.808594 140.292969 70.269531 138.59375 70.683594 C 135.472656 71.417969 129.140625 72.929688 119.890625 75.15625 C 117.117188 75.824219 113.445312 76.695312 111.746094 77.085938 C 107.339844 78.140625 105.644531 78.53125 99.816406 79.953125 C 96.96875 80.640625 94.054688 81.332031 93.320312 81.492188 C 92.585938 81.652344 91.945312 81.835938 91.898438 81.925781 C 91.851562 81.996094 93.023438 82.777344 94.492188 83.648438 C 100.089844 86.953125 104.769531 89.707031 108.785156 92.023438 C 111.058594 93.355469 113.285156 94.664062 113.71875 94.9375 C 114.15625 95.214844 115.050781 95.765625 115.714844 96.132812 C 116.359375 96.5 117.230469 96.980469 117.644531 97.210938 C 118.355469 97.625 118.355469 97.625 120.398438 96.796875 C 124.597656 95.054688 131.847656 92 132.285156 91.796875 C 132.535156 91.679688 134.761719 90.738281 137.214844 89.730469 C 139.671875 88.71875 141.898438 87.777344 142.148438 87.664062 C 142.402344 87.527344 143.480469 87.089844 144.558594 86.65625 C 145.636719 86.21875 148.484375 85.046875 150.871094 84.039062 C 153.277344 83.027344 156.605469 81.628906 158.257812 80.941406 C 162.410156 79.195312 162.183594 79.402344 160.78125 78.578125 C 160.140625 78.1875 158.304688 77.109375 156.722656 76.191406 C 155.136719 75.273438 152.773438 73.871094 151.441406 73.09375 C 144.445312 68.9375 144.878906 69.121094 142.839844 69.648438 Z M 142.839844 69.648438 "/>
<path style=" stroke:none;fill-rule:nonzero;fill:rgb(0%,0%,0%);fill-opacity:1;" d="M 460.984375 76.234375 C 454.101562 76.878906 446.621094 79.335938 441.019531 82.824219 C 436.660156 85.53125 432.460938 89.476562 429.480469 93.632812 C 427.597656 96.269531 425.003906 101.433594 424.0625 104.441406 C 421.308594 113.183594 421.355469 123.785156 424.179688 132.390625 C 426.335938 138.976562 430.648438 145.542969 435.742188 149.992188 C 439.621094 153.390625 445.585938 156.761719 450.660156 158.4375 C 457.152344 160.597656 465.136719 161.375 472.320312 160.527344 C 481.015625 159.515625 488.425781 156.28125 494.003906 151.09375 L 495.929688 149.304688 L 495.792969 154.214844 C 495.679688 159.699219 495.21875 162.707031 494.027344 165.988281 C 492.03125 171.40625 488.976562 174.871094 484.042969 177.28125 C 479.273438 179.621094 474.246094 180.492188 466.605469 180.308594 C 461.375 180.171875 458.734375 179.828125 454.351562 178.75 C 447.605469 177.074219 441.25 174.25 436.914062 170.992188 C 436.226562 170.464844 435.605469 170.050781 435.535156 170.050781 C 435.46875 170.050781 433.355469 173.492188 430.878906 177.667969 C 425.625 186.503906 425.785156 185.265625 429.546875 187.765625 C 437.464844 193.070312 448.777344 196.535156 461.625 197.613281 C 465.734375 197.957031 476.21875 197.75 479.570312 197.269531 C 493.359375 195.316406 502.929688 189.992188 508.964844 180.996094 C 513.277344 174.527344 515.59375 166.90625 516.285156 156.695312 C 516.421875 154.765625 516.511719 137.648438 516.511719 115.132812 L 516.511719 76.878906 L 506.714844 76.925781 L 496.894531 76.992188 L 496.824219 82.660156 L 496.78125 88.328125 L 494.644531 86.21875 C 486.867188 78.507812 474.796875 74.929688 460.984375 76.234375 Z M 476.128906 94.066406 C 481.222656 95.101562 485.328125 97.1875 488.839844 100.539062 C 493.222656 104.691406 495.539062 109.605469 496.089844 115.914062 C 496.871094 124.933594 493.476562 133.011719 486.773438 138.058594 C 482.347656 141.386719 477.367188 143.0625 471.082031 143.359375 C 457.359375 144.003906 446.6875 136.867188 443.5 124.886719 C 442.902344 122.617188 442.671875 116.785156 443.085938 114.03125 C 443.796875 109.167969 445.792969 105.015625 449.144531 101.503906 C 453.34375 97.074219 458.6875 94.480469 465.480469 93.632812 C 467.914062 93.332031 473.628906 93.5625 476.128906 94.066406 Z M 476.128906 94.066406 "/>
<path style=" stroke:none;fill-rule:nonzero;fill:rgb(0%,0%,0%);fill-opacity:1;" d="M 669.332031 76.097656 C 659.972656 76.765625 650.929688 79.105469 644.023438 82.660156 C 641.660156 83.878906 637.851562 86.289062 637.574219 86.722656 C 637.460938 86.90625 644.046875 99.597656 645.21875 101.386719 C 645.355469 101.617188 645.949219 101.320312 647.671875 100.148438 C 654.210938 95.695312 662.976562 93.171875 671.902344 93.171875 C 685.898438 93.171875 693.265625 99.09375 693.816406 110.773438 L 693.953125 113.574219 L 678.375 113.664062 C 664.789062 113.734375 662.472656 113.804688 660.269531 114.148438 C 654.832031 115.042969 649.621094 116.71875 646.523438 118.578125 C 641.9375 121.332031 638.21875 125.574219 636.519531 129.960938 C 635.144531 133.492188 634.824219 135.351562 634.84375 139.644531 C 634.84375 143.109375 634.914062 143.796875 635.464844 145.839844 C 638.378906 156.902344 648.292969 164.269531 662.195312 165.714844 C 665.523438 166.058594 673.074219 165.875 675.871094 165.371094 C 680.738281 164.472656 684.753906 163.027344 688.078125 160.964844 C 689.777344 159.90625 693.496094 156.488281 694.527344 155.019531 L 695.007812 154.332031 L 695.03125 159.539062 L 695.03125 164.773438 L 714.558594 164.773438 L 714.46875 136.132812 C 714.398438 110.199219 714.351562 107.285156 714.007812 105.105469 C 712.976562 98.976562 711.253906 94.320312 708.5 90.1875 C 707.011719 87.941406 703.203125 84.175781 700.882812 82.640625 C 696.132812 79.519531 690.304688 77.453125 683.558594 76.535156 C 681.011719 76.191406 671.996094 75.914062 669.332031 76.097656 Z M 693.886719 132.347656 L 693.886719 137.578125 L 693.195312 139.046875 C 690.238281 145.265625 684.085938 149.441406 676.078125 150.660156 C 668.921875 151.738281 662.128906 150.246094 658.363281 146.757812 C 655.082031 143.707031 654.097656 138.957031 655.816406 134.367188 C 657.171875 130.738281 661.761719 128.101562 667.957031 127.390625 C 668.898438 127.273438 675.117188 127.183594 681.792969 127.160156 L 693.886719 127.136719 Z M 693.886719 132.347656 "/>
<path style=" stroke:none;fill-rule:nonzero;fill:rgb(0%,0%,0%);fill-opacity:1;" d="M 388.246094 120.824219 L 388.246094 164.773438 L 408.898438 164.773438 L 408.898438 76.878906 L 388.246094 76.878906 Z M 388.246094 120.824219 "/>
<path style=" stroke:none;fill-rule:nonzero;fill:rgb(0%,0%,0%);fill-opacity:1;" d="M 530.28125 120.824219 L 530.28125 164.773438 L 550.933594 164.773438 L 550.886719 120.871094 L 550.816406 76.992188 L 540.558594 76.925781 L 530.28125 76.878906 Z M 530.28125 120.824219 "/>
<path style=" stroke:none;fill-rule:nonzero;fill:rgb(0%,0%,0%);fill-opacity:1;" d="M 908.039062 78.507812 C 899.871094 79.242188 891.128906 82.109375 884.679688 86.171875 C 881.972656 87.894531 879.058594 90.234375 879.171875 90.601562 C 879.242188 90.761719 880.136719 92.117188 881.167969 93.609375 C 883.027344 96.292969 883.074219 96.339844 883.554688 95.972656 C 888.078125 92.414062 891.128906 90.601562 895.488281 88.859375 C 901.132812 86.632812 906.503906 85.597656 912.675781 85.597656 C 925.777344 85.597656 933.761719 90.53125 936.953125 100.628906 C 937.871094 103.476562 938.121094 105.769531 938.121094 111.417969 L 938.144531 116.925781 L 919.671875 117.039062 C 901.820312 117.175781 901.109375 117.199219 898.449219 117.679688 C 891.609375 118.964844 887.34375 120.824219 883.855469 124.105469 C 881.515625 126.308594 880.136719 128.144531 878.921875 130.695312 C 877.222656 134.296875 876.878906 135.972656 876.902344 141.019531 C 876.902344 144.761719 876.992188 145.632812 877.40625 147.214844 C 879.839844 156.074219 887.480469 162.476562 898.21875 164.636719 C 903.75 165.738281 911.34375 165.738281 916.917969 164.636719 C 925.5 162.9375 932.796875 158.324219 937.089844 151.921875 L 938.488281 149.832031 L 938.488281 164.773438 L 946.519531 164.773438 L 946.519531 136.820312 C 946.519531 119.472656 946.429688 107.859375 946.265625 106.136719 C 945.832031 101.042969 944.800781 97.050781 942.941406 93.332031 C 941.585938 90.601562 940.804688 89.523438 938.535156 87.160156 C 933.671875 82.109375 927.128906 79.3125 918.296875 78.507812 C 915.3125 78.234375 911.160156 78.234375 908.039062 78.507812 Z M 938.257812 131.472656 L 938.257812 139.460938 L 937.570312 140.976562 C 933.304688 150.40625 925.683594 156.351562 915.542969 158.164062 C 910.378906 159.082031 902.738281 158.738281 898.355469 157.382812 C 891.886719 155.386719 887.59375 151.644531 885.851562 146.414062 C 884.980469 143.820312 884.75 139.414062 885.347656 136.636719 C 886.492188 131.382812 890.210938 127.226562 895.488281 125.324219 C 897.210938 124.703125 901.0625 123.832031 903.152344 123.625 C 903.589844 123.578125 911.664062 123.511719 921.117188 123.511719 L 938.257812 123.464844 Z M 938.257812 131.472656 "/>
<path style=" stroke:none;fill-rule:nonzero;fill:rgb(0%,0%,0%);fill-opacity:1;" d="M 1148.558594 78.394531 C 1138.898438 79.171875 1131.761719 82.019531 1126.738281 87.089844 C 1124.007812 89.84375 1122.378906 92.597656 1121.320312 96.316406 C 1120.632812 98.726562 1120.566406 104.714844 1121.207031 107.46875 C 1121.871094 110.269531 1123.410156 113.113281 1125.429688 115.226562 C 1130.867188 120.917969 1135.203125 122.570312 1154.640625 126.332031 C 1159.964844 127.367188 1165.722656 128.835938 1167.878906 129.683594 C 1171.6875 131.199219 1175.0625 133.882812 1176.277344 136.386719 C 1178.550781 141.089844 1177.699219 147.492188 1174.257812 151.417969 C 1171.253906 154.789062 1166.527344 156.878906 1159.710938 157.796875 C 1156.542969 158.210938 1149.246094 158.277344 1146.265625 157.910156 C 1137.726562 156.832031 1129.148438 153.621094 1122.90625 149.097656 C 1122.054688 148.480469 1121.300781 148.019531 1121.230469 148.089844 C 1121.160156 148.15625 1120.289062 149.625 1119.304688 151.324219 L 1117.511719 154.445312 L 1118.453125 155.273438 C 1124.28125 160.25 1135.527344 164.289062 1146.378906 165.253906 C 1150.121094 165.574219 1157.621094 165.390625 1161.0625 164.886719 C 1174.328125 162.9375 1182.839844 156.671875 1185.203125 147.148438 C 1185.617188 145.542969 1185.707031 144.507812 1185.683594 141.824219 C 1185.664062 135.742188 1184.355469 132.117188 1180.867188 128.628906 C 1176.070312 123.832031 1171.160156 121.949219 1155.671875 118.875 C 1148.628906 117.476562 1141.722656 115.777344 1139.152344 114.765625 C 1135.203125 113.253906 1131.511719 110.359375 1130.25 107.789062 C 1128.964844 105.152344 1128.574219 101.296875 1129.285156 98.242188 C 1130.59375 92.691406 1135.546875 88.375 1142.546875 86.65625 C 1146.492188 85.667969 1154.019531 85.277344 1158.539062 85.828125 C 1165.515625 86.675781 1172.214844 88.949219 1177.21875 92.183594 C 1178.089844 92.734375 1178.871094 93.125 1178.984375 93.011719 C 1179.191406 92.804688 1182.632812 86.816406 1182.632812 86.675781 C 1182.632812 86.425781 1179.488281 84.566406 1177.125 83.441406 C 1172.722656 81.332031 1167.007812 79.65625 1161.246094 78.828125 C 1158.929688 78.484375 1150.832031 78.210938 1148.558594 78.394531 Z M 1148.558594 78.394531 "/>
<path style=" stroke:none;fill-rule:nonzero;fill:rgb(0%,0%,0%);fill-opacity:1;" d="M 77.558594 85.253906 C 73.3125 86.308594 72.785156 86.425781 66.65625 87.894531 C 59.589844 89.59375 59.109375 89.707031 57.019531 90.1875 C 55.894531 90.464844 53.304688 91.0625 51.285156 91.566406 C 49.265625 92.046875 46.074219 92.828125 44.171875 93.265625 C 42.289062 93.722656 38.386719 94.664062 35.542969 95.351562 C 32.675781 96.039062 30.175781 96.613281 29.992188 96.613281 C 29.140625 96.613281 29.484375 97.050781 30.816406 97.601562 C 32.949219 98.496094 38.503906 100.929688 39.878906 101.546875 C 40.523438 101.871094 41.714844 102.398438 42.519531 102.71875 C 44.078125 103.382812 45.523438 104.003906 46.925781 104.648438 C 47.429688 104.875 48.921875 105.542969 50.25 106.09375 C 51.582031 106.667969 54.359375 107.859375 56.445312 108.777344 C 58.535156 109.695312 61.402344 110.933594 62.847656 111.554688 C 64.292969 112.195312 65.808594 112.839844 66.175781 113.023438 C 66.566406 113.207031 68.425781 114.007812 70.304688 114.835938 L 73.726562 116.328125 L 79.371094 114.078125 C 95.867188 107.46875 102.980469 104.601562 103.601562 104.324219 C 103.992188 104.164062 105.6875 103.476562 107.386719 102.8125 C 109.085938 102.144531 110.578125 101.527344 110.691406 101.410156 C 110.78125 101.320312 110.53125 101.066406 110.117188 100.835938 C 109.292969 100.425781 101.191406 95.71875 98.09375 93.859375 C 94.238281 91.542969 91.53125 89.960938 91.460938 89.960938 C 91.417969 89.960938 89.789062 89.019531 87.859375 87.871094 C 85.910156 86.699219 83.867188 85.507812 83.292969 85.1875 C 82.71875 84.886719 82.167969 84.542969 82.054688 84.429688 C 81.78125 84.175781 82.308594 84.085938 77.558594 85.253906 Z M 77.558594 85.253906 "/>
</g>
</svg>
