<?xml version="1.0" encoding="UTF-8"?>
<svg xmlns="http://www.w3.org/2000/svg" xmlns:xlink="http://www.w3.org/1999/xlink" width="500px" height="90px" viewBox="0 0 501 90" version="1.1">
<g id="surface1">
<rect x="0" y="0" width="501" height="90" style="fill:rgb(0.392157%,0.392157%,0.784314%);fill-opacity:1;stroke:none;"/>
<path style=" stroke:none;fill-rule:nonzero;fill:rgb(0.392157%,73.333333%,90.980392%);fill-opacity:1;" d="M 66.207031 23.695312 C 67.207031 24.992188 69.238281 26.050781 70.609375 26.957031 C 70.996094 27.214844 71.640625 27.941406 72.113281 27.960938 C 72.671875 27.984375 73.308594 27.523438 73.792969 27.292969 C 74.90625 26.761719 76.042969 26.269531 77.164062 25.75 C 81.050781 23.953125 85 22.28125 88.867188 20.441406 C 90.007812 19.898438 91.179688 19.382812 92.332031 18.871094 C 92.816406 18.65625 93.445312 18.546875 93.738281 18.074219 L 89.804688 18.871094 L 82.875 20.300781 L 66.207031 23.695312 M 75.289062 30.0625 L 75.289062 30.34375 C 77.699219 31.683594 79.96875 33.550781 82.195312 35.179688 C 83.253906 35.953125 84.511719 37.179688 85.777344 37.554688 L 88.070312 33.621094 L 93.832031 23.695312 L 95.824219 20.324219 L 96.640625 18.730469 L 93.550781 20.273438 L 89.351562 22.527344 Z M 75.289062 30.0625 "/>
<path style=" stroke:none;fill-rule:nonzero;fill:rgb(100%,100%,100%);fill-opacity:1;" d="M 169.027344 18.773438 C 165.417969 19.335938 163.214844 23.566406 165.449219 26.691406 C 166.730469 28.484375 168.972656 29.136719 171.089844 28.804688 C 174.761719 28.230469 176.742188 23.730469 174.484375 20.695312 C 173.273438 19.070312 170.96875 18.46875 169.027344 18.773438 M 226.996094 18.773438 C 223.050781 19.386719 220.957031 24.179688 223.828125 27.25 C 225.144531 28.65625 227.199219 29.097656 229.054688 28.804688 C 232.347656 28.285156 234.496094 24.371094 232.847656 21.351562 C 231.726562 19.300781 229.230469 18.421875 226.996094 18.773438 M 305.5625 20.695312 L 305.5625 70.613281 L 314.085938 70.613281 L 314.085938 20.695312 L 305.5625 20.695312 M 425.992188 20.695312 L 425.992188 70.613281 L 429.457031 70.613281 L 429.457031 55.160156 C 429.457031 51.480469 429.320312 47.679688 431.277344 44.390625 C 435.441406 37.394531 448.105469 35.527344 452.464844 43.453125 C 454.238281 46.6875 453.992188 50.386719 453.992188 53.945312 L 453.992188 70.613281 L 457.457031 70.613281 L 457.457031 53.101562 C 457.457031 48.847656 457.542969 44.417969 455.042969 40.738281 C 450.929688 34.679688 441.574219 33.773438 435.355469 36.875 C 433.046875 38.027344 430.46875 40.003906 429.550781 42.519531 L 429.457031 42.519531 L 429.457031 20.695312 L 425.992188 20.695312 M 113.777344 23.507812 L 113.777344 70.613281 L 130.167969 70.613281 C 135.933594 70.613281 141.566406 70.613281 146.929688 68.148438 C 151.367188 66.113281 155.054688 62.847656 157.386719 58.53125 C 162.882812 48.371094 159.996094 34.238281 150.207031 27.847656 C 143.851562 23.699219 136.640625 23.507812 129.324219 23.507812 L 113.777344 23.507812 M 323.636719 23.507812 L 323.636719 70.613281 L 327.101562 70.613281 L 327.101562 55.253906 L 338.527344 55.253906 C 343.113281 55.253906 347.90625 55.128906 352.011719 52.78125 C 354.472656 51.371094 356.554688 49.449219 357.878906 46.917969 C 361.480469 40.054688 359.375 30.480469 352.667969 26.429688 C 348 23.609375 342.589844 23.507812 337.308594 23.507812 Z M 323.636719 23.507812 "/>
<path style=" stroke:none;fill-rule:nonzero;fill:rgb(0.392157%,57.254902%,70.588235%);fill-opacity:1;" d="M 65.269531 23.882812 C 65.589844 24.441406 66.328125 24.695312 66.863281 25.011719 C 68.199219 25.8125 69.761719 27.140625 71.265625 27.535156 C 70.964844 26.980469 70.269531 26.683594 69.773438 26.320312 C 68.511719 25.382812 66.863281 23.648438 65.269531 23.882812 M 45.699219 28.65625 C 46.019531 29.222656 46.667969 29.519531 47.1875 29.878906 C 48.011719 30.449219 48.800781 31.0625 49.632812 31.625 C 50.910156 32.484375 52.132812 33.4375 53.40625 34.316406 C 53.890625 34.652344 54.46875 35.246094 55.0625 35.355469 C 56.039062 35.542969 57.703125 34.332031 58.621094 33.988281 C 62.164062 32.667969 65.617188 31.046875 69.109375 29.59375 L 69.109375 29.40625 C 67.351562 28.40625 65.613281 27.359375 63.867188 26.339844 C 63.15625 25.925781 62.339844 25.1875 61.523438 25.03125 C 60.148438 24.765625 58.007812 25.707031 56.65625 26.046875 C 53.070312 26.941406 49.355469 28.121094 45.699219 28.65625 Z M 45.699219 28.65625 "/>
<path style=" stroke:none;fill-rule:nonzero;fill:rgb(0.392157%,0.392157%,0.784314%);fill-opacity:1;" d="M 327.101562 26.691406 L 327.101562 52.070312 L 338.433594 52.070312 C 342.300781 52.070312 346.21875 52.039062 349.761719 50.265625 C 357.59375 46.351562 358.15625 33.734375 350.699219 29.109375 C 347.847656 27.339844 344.6875 27 341.429688 26.777344 C 336.691406 26.453125 331.855469 26.691406 327.101562 26.691406 Z M 327.101562 26.691406 "/>
<path style=" stroke:none;fill-rule:nonzero;fill:rgb(100%,100%,100%);fill-opacity:1;" d="M 242.820312 26.785156 L 242.820312 34.933594 L 236.921875 34.933594 L 236.921875 41.769531 L 242.820312 41.769531 L 242.820312 56.566406 C 242.820312 60.328125 242.871094 64.273438 245.394531 67.335938 C 248.476562 71.082031 254.449219 71.765625 258.929688 70.742188 C 260.074219 70.476562 261.183594 70.097656 262.207031 69.515625 C 262.542969 69.324219 263.050781 69.101562 263.230469 68.730469 C 263.449219 68.273438 262.933594 67.484375 262.773438 67.054688 C 262.226562 65.597656 261.492188 64.15625 261.082031 62.652344 C 260.390625 62.832031 259.792969 63.351562 259.117188 63.609375 C 257.605469 64.179688 255.570312 64.34375 254.058594 63.695312 C 251.59375 62.636719 251.34375 60.027344 251.34375 57.691406 L 251.34375 41.769531 L 260.988281 41.769531 L 260.988281 34.933594 L 251.34375 34.933594 L 251.34375 26.785156 Z M 242.820312 26.785156 "/>
<path style=" stroke:none;fill-rule:nonzero;fill:rgb(0.392157%,57.254902%,70.588235%);fill-opacity:1;" d="M 71.265625 27.535156 L 71.265625 27.628906 L 71.730469 27.816406 Z M 71.265625 27.535156 "/>
<path style=" stroke:none;fill-rule:nonzero;fill:rgb(100%,100%,100%);fill-opacity:1;" d="M 403.984375 27.816406 L 403.984375 35.496094 L 397.523438 35.496094 L 397.523438 38.492188 L 403.984375 38.492188 L 403.984375 56.941406 C 403.984375 60.265625 403.566406 63.867188 405.28125 66.867188 C 407.503906 70.75 412.785156 71.621094 416.8125 70.519531 C 417.914062 70.21875 418.953125 69.816406 419.902344 69.175781 C 420.164062 69 420.695312 68.714844 420.722656 68.359375 C 420.753906 67.953125 419.667969 66.066406 419.238281 66.109375 C 418.488281 66.1875 417.507812 67.210938 416.71875 67.476562 C 413.550781 68.542969 409.683594 67.839844 408.128906 64.621094 C 406.925781 62.128906 407.449219 58.789062 407.449219 56.097656 L 407.449219 38.492188 L 418.59375 38.492188 L 418.59375 35.496094 L 407.449219 35.496094 L 407.449219 27.816406 Z M 403.984375 27.816406 "/>
<path style=" stroke:none;fill-rule:nonzero;fill:rgb(0.392157%,36.862745%,45.490196%);fill-opacity:1;" d="M 37.738281 30.53125 L 38.863281 31.417969 L 42.046875 33.28125 L 47.289062 36.351562 L 49.632812 37.625 L 51.222656 37.074219 L 55.0625 35.402344 C 52.785156 33.863281 50.558594 32.246094 48.320312 30.652344 C 47.59375 30.132812 46.398438 28.863281 45.503906 28.769531 C 44.691406 28.683594 43.664062 29.140625 42.890625 29.355469 C 41.222656 29.8125 39.449219 30.28125 37.738281 30.53125 Z M 37.738281 30.53125 "/>
<path style=" stroke:none;fill-rule:nonzero;fill:rgb(0.392157%,57.254902%,70.588235%);fill-opacity:1;" d="M 59.558594 38.492188 C 59.832031 38.988281 60.425781 39.273438 60.871094 39.617188 C 61.988281 40.480469 63.191406 41.238281 64.335938 42.070312 C 67.375 44.261719 70.445312 46.414062 73.511719 48.574219 C 74.792969 49.480469 76.164062 50.851562 77.632812 51.414062 C 80.128906 46.742188 83.492188 42.382812 85.683594 37.554688 L 79.316406 33.0625 L 75.289062 30.15625 L 70.984375 32.398438 L 63.304688 36.515625 Z M 59.558594 38.492188 "/>
<path style=" stroke:none;fill-rule:nonzero;fill:rgb(0.392157%,0.392157%,0.784314%);fill-opacity:1;" d="M 122.582031 31 L 122.582031 63.121094 L 131.570312 63.121094 C 135.535156 63.121094 139.363281 63.039062 142.996094 61.222656 C 153.011719 56.214844 154.105469 40.46875 144.867188 34.09375 C 138.535156 29.722656 129.859375 31 122.582031 31 Z M 122.582031 31 "/>
<path style=" stroke:none;fill-rule:nonzero;fill:rgb(0.392157%,36.862745%,45.490196%);fill-opacity:1;" d="M 13.390625 36.335938 C 13.71875 36.90625 14.414062 37.230469 14.929688 37.621094 C 16.226562 38.597656 17.566406 39.554688 18.917969 40.457031 C 19.492188 40.84375 20.75 41.46875 20.976562 42.144531 L 27.25 44.800781 L 29.964844 45.945312 L 31.558594 45.355469 L 35.117188 43.921875 L 46.542969 39.335938 L 46.542969 39.148438 C 43.371094 37.648438 40.402344 35.5625 37.363281 33.808594 C 36.261719 33.171875 34.808594 31.863281 33.523438 31.699219 C 32.785156 31.605469 31.796875 31.96875 31.089844 32.164062 C 29.847656 32.507812 28.585938 32.734375 27.34375 33.085938 C 24.515625 33.886719 21.582031 34.390625 18.730469 35.109375 C 17.054688 35.53125 15.117188 36.300781 13.390625 36.335938 Z M 13.390625 36.335938 "/>
<path style=" stroke:none;fill-rule:nonzero;fill:rgb(100%,100%,100%);fill-opacity:1;" d="M 209.578125 64.339844 L 209.671875 64.339844 C 209.671875 67.273438 209.574219 70.296875 207.964844 72.863281 C 204.78125 77.929688 197.054688 77.375 192.066406 76.058594 C 190.414062 75.621094 188.769531 74.953125 187.289062 74.105469 C 186.710938 73.773438 185.789062 72.824219 185.144531 72.757812 C 184.707031 72.714844 184.292969 73.765625 184.105469 74.078125 C 183.414062 75.230469 182.738281 76.390625 182.046875 77.542969 C 181.832031 77.898438 181.289062 78.511719 181.320312 78.941406 C 181.363281 79.511719 182.640625 80.105469 183.074219 80.371094 C 185.011719 81.558594 187.148438 82.410156 189.351562 82.964844 C 197.085938 84.90625 208.027344 85.347656 213.867188 78.855469 C 218.078125 74.179688 218.097656 67.902344 218.097656 61.996094 L 218.097656 34.652344 L 210.046875 34.652344 L 210.046875 39.335938 C 207.132812 35.757812 202.355469 34.277344 197.871094 34.277344 C 194.347656 34.277344 190.839844 35.003906 187.757812 36.765625 C 179.34375 41.582031 176.976562 53.320312 182.242188 61.34375 C 184.292969 64.472656 187.414062 66.773438 190.941406 67.984375 C 195.492188 69.542969 200.859375 69.460938 205.269531 67.511719 C 206.703125 66.875 208.816406 65.773438 209.578125 64.339844 M 267.355469 38.679688 L 270.632812 44.953125 C 271.902344 44.386719 272.976562 43.398438 274.285156 42.839844 C 279.085938 40.785156 287.882812 39.964844 290.011719 46.171875 C 290.386719 47.269531 290.488281 48.480469 290.488281 49.636719 C 285.332031 49.636719 279.800781 49.066406 274.753906 50.257812 C 272.257812 50.847656 269.976562 52.027344 268.335938 54.039062 C 265.34375 57.707031 265.734375 63.4375 268.707031 66.960938 C 272.976562 72.023438 282.628906 72.398438 288.050781 69.167969 C 289.230469 68.464844 290.066406 67.511719 290.953125 66.492188 L 290.953125 70.613281 L 298.914062 70.613281 L 298.914062 53.757812 C 298.914062 49.777344 299.164062 45.804688 297.601562 42.050781 C 294.289062 34.089844 283.828125 33.40625 276.535156 34.859375 C 275.03125 35.15625 273.5625 35.550781 272.132812 36.097656 C 270.414062 36.75 268.871094 37.648438 267.355469 38.679688 M 165.75 34.652344 L 165.75 70.613281 L 174.179688 70.613281 L 174.179688 34.652344 L 165.75 34.652344 M 223.625 34.652344 L 223.625 70.613281 L 232.144531 70.613281 L 232.144531 34.652344 L 223.625 34.652344 M 390.125 51.039062 L 376.828125 51.039062 C 374.816406 51.042969 372.714844 51.425781 370.832031 52.136719 C 364.765625 54.421875 363.203125 62.519531 367.394531 67.242188 C 371.46875 71.832031 380.113281 71.898438 385.253906 69.324219 C 387.167969 68.371094 389.453125 66.710938 390.21875 64.621094 L 390.3125 64.621094 L 390.3125 70.613281 L 393.589844 70.613281 L 393.589844 49.917969 C 393.589844 45.839844 393.339844 41.339844 390.03125 38.425781 C 385.183594 34.152344 377.363281 34.605469 371.675781 36.75 C 370.113281 37.34375 368.621094 38.144531 367.273438 39.136719 C 366.945312 39.378906 365.996094 39.878906 366.082031 40.367188 C 366.15625 40.789062 367.304688 42.585938 367.75 42.59375 C 368.070312 42.597656 368.441406 42.171875 368.679688 41.992188 C 369.339844 41.492188 370.015625 41.035156 370.738281 40.632812 C 372.816406 39.472656 375.203125 38.65625 377.574219 38.414062 C 382.296875 37.933594 387.707031 38.988281 389.496094 44.015625 C 390.300781 46.28125 390.125 48.679688 390.125 51.039062 M 464.851562 63.589844 C 464.542969 64.25 463.265625 65.660156 463.429688 66.390625 C 463.5625 66.964844 464.667969 67.503906 465.132812 67.785156 C 467.003906 68.914062 469.109375 69.683594 471.222656 70.203125 C 477.113281 71.65625 486.539062 71.640625 490.117188 65.742188 C 490.871094 64.503906 491.261719 63.070312 491.261719 61.625 C 491.261719 60.5 491.226562 59.429688 490.882812 58.34375 C 489.992188 55.546875 487.347656 53.976562 484.707031 53.132812 C 481.371094 52.066406 477.863281 51.734375 474.5 50.800781 C 472.679688 50.292969 470.921875 49.777344 469.535156 48.417969 C 466.90625 45.839844 468.070312 41.714844 470.941406 39.867188 C 473.5625 38.179688 477.207031 38.058594 480.210938 38.425781 C 482.152344 38.660156 484.042969 39.179688 485.828125 39.976562 C 486.722656 40.375 487.59375 41.210938 488.546875 41.394531 C 488.820312 40.804688 490.109375 39.332031 489.910156 38.695312 C 489.75 38.183594 488.621094 37.71875 488.171875 37.496094 C 486.328125 36.574219 484.296875 35.964844 482.269531 35.613281 C 476.601562 34.625 468.234375 35.089844 465.40625 41.113281 C 464.773438 42.453125 464.433594 44.132812 464.625 45.609375 C 464.804688 46.957031 464.988281 48.152344 465.683594 49.355469 C 468.355469 53.96875 475.308594 54.238281 479.929688 55.234375 C 482.539062 55.796875 485.859375 56.441406 487.28125 59 C 489.398438 62.824219 485.898438 66.464844 482.363281 67.347656 C 477.863281 68.472656 472.886719 67.828125 468.691406 65.902344 C 467.304688 65.265625 466.164062 64.335938 464.851562 63.589844 Z M 464.851562 63.589844 "/>
<path style=" stroke:none;fill-rule:nonzero;fill:rgb(0.392157%,36.862745%,45.490196%);fill-opacity:1;" d="M 43.359375 55.066406 L 49.097656 58.070312 L 61.347656 64.519531 L 66.113281 67.066406 L 67.863281 67.832031 L 68.636719 66.773438 L 70.390625 63.777344 L 77.632812 51.414062 C 76.011719 50.515625 74.5625 49.234375 73.042969 48.179688 C 70.214844 46.214844 67.398438 44.230469 64.613281 42.203125 C 63.472656 41.371094 62.265625 40.628906 61.148438 39.761719 C 60.703125 39.417969 60.058594 38.742188 59.464844 38.710938 C 59.054688 38.691406 58.683594 39.035156 58.339844 39.214844 C 57.394531 39.710938 56.46875 40.230469 55.53125 40.734375 C 52.167969 42.554688 48.796875 44.367188 45.417969 46.160156 C 42.890625 47.5 40.355469 48.839844 37.839844 50.207031 C 37.289062 50.503906 35.566406 51.101562 35.515625 51.792969 C 35.441406 52.757812 37.757812 53.792969 38.433594 54.3125 C 40.9375 56.238281 43.660156 57.875 46.167969 59.789062 C 46.777344 60.257812 47.40625 60.695312 48.039062 61.128906 C 48.222656 61.253906 48.511719 61.511719 48.746094 61.359375 C 49.207031 61.054688 48.527344 60.511719 48.328125 60.304688 C 47.515625 59.464844 46.710938 58.613281 45.898438 57.769531 C 45.054688 56.890625 44.121094 56.019531 43.359375 55.066406 Z M 43.359375 55.066406 "/>
<path style=" stroke:none;fill-rule:nonzero;fill:rgb(0.392157%,0.392157%,0.784314%);fill-opacity:1;" d="M 198.058594 41.527344 C 195.863281 41.816406 193.808594 42.21875 191.972656 43.5625 C 187.234375 47.023438 186.625 54.652344 190.863281 58.785156 C 193.535156 61.394531 197.347656 62.175781 200.960938 61.691406 C 202.402344 61.496094 203.84375 60.996094 205.082031 60.234375 C 209.9375 57.257812 211.285156 50.351562 207.980469 45.703125 C 205.859375 42.714844 201.6875 41.050781 198.058594 41.527344 M 390.125 53.757812 L 379.542969 53.757812 C 376.863281 53.757812 373.992188 53.679688 371.582031 55.054688 C 368 57.105469 367.507812 62.398438 370.207031 65.367188 C 371.867188 67.191406 374.464844 67.835938 376.828125 68 C 382.078125 68.367188 386.9375 66.429688 389.535156 61.625 C 390.710938 59.441406 390.125 56.183594 390.125 53.757812 M 43.265625 54.972656 L 43.359375 55.066406 L 43.265625 54.972656 M 290.488281 55.253906 L 282.996094 55.253906 C 281.609375 55.253906 280.238281 55.257812 278.875 55.535156 C 277.726562 55.769531 276.535156 56.171875 275.707031 57.042969 C 274.214844 58.617188 274.304688 61.480469 275.792969 63.023438 C 276.875 64.148438 278.402344 64.609375 279.90625 64.820312 C 283.59375 65.332031 288.007812 64.027344 289.894531 60.59375 C 290.785156 58.972656 290.488281 57.050781 290.488281 55.253906 Z M 290.488281 55.253906 "/>
</g>
</svg>
