<svg xmlns="http://www.w3.org/2000/svg" fill="none" viewBox="0 0 1155 160"><path fill="#000" d="M365.383.335a12.835 12.835 0 0 0-5.913 3.343c-4.972 4.882-4.789 12.946.437 17.596 2.449 2.176 5.358 3.232 9 3.232 4.216 0 7.172-1.217 9.762-3.966 1.715-1.81 2.678-3.62 3.181-6.025.62-2.932.367-5.198-.892-7.764-1.33-2.707-3.987-4.996-7.078-6.072-1.88-.667-6.486-.85-8.498-.344h.001Zm141.658.023c-3.277.847-6.735 3.527-8.108 6.21-1.284 2.542-1.65 6.09-.94 8.886 1.076 4.126 4.672 7.563 9.164 8.709 1.58.41 5.062.456 6.801.09 4.376-.917 8.112-4.423 9.437-8.888.531-1.767.485-5.316-.066-7.106-1.17-3.778-4.719-6.918-8.981-7.924-1.832-.437-5.635-.413-7.307.023Zm193.802 65.388v60.941h20.387V4.8h-20.386l-.001 60.946Zm294.59 0v60.941h8.227l.07-25.843.07-25.821.52-2.476c1.35-6.345 3.85-11.34 7.75-15.509 3.3-3.475 7.43-6.06 12-7.515 8.61-2.749 19.1-2.29 25.96 1.123 8.38 4.169 12.78 11.637 13.67 23.118.14 1.857.23 13.08.23 27.996v24.927h8.02V99.331c0-23.118-.05-27.79-.35-30.013-2.33-17.802-14.02-28.18-32.53-28.936-15.32-.596-27.78 5.386-34.43 16.542l-.96 1.604V4.8h-8.246l-.001 60.945Zm-763.972 3.436v57.529l29.161-.094c26.254-.066 29.412-.113 31.889-.479 8.751-1.26 15.736-3.394 22.451-6.806 9.025-4.582 16.286-11.227 21.554-19.725 5.842-9.417 8.661-21.674 7.882-34.228-.527-8.638-2.154-15.1-5.499-22.017-5.109-10.565-13.103-18.673-23.824-24.128-8.728-4.419-17.389-6.665-28.293-7.328-2.219-.117-14.912-.23-29.595-.23H231.46l.001 57.506Zm53.742-39.177c11.524.917 20.295 4.624 27.146 11.453 2.999 3.003 5.086 5.936 6.825 9.644 5.131 10.932 5.108 25.684-.067 36.5-5.545 11.569-16.768 18.924-31.475 20.64-2.316.276-6.208.347-18.761.347h-15.876V29.774h14.636c8.041 0 15.946.115 17.572.231Zm459.78-18.193c-.09.094-.16 25.98-.16 57.53v57.345h8.478V89.114h18.19c18.644 0 21.853-.114 26.821-.94 18.283-3.003 30.333-13.47 33.332-29.007 1.17-5.979.963-13.926-.48-19.588-2.129-8.432-7.261-15.486-14.753-20.298-4.055-2.61-10.033-4.973-15.485-6.092-6.37-1.33-6.599-1.354-32.162-1.447-12.99-.042-23.688-.02-23.781.07Zm49.55 7.971c9.349 1.33 15.759 4.013 20.708 8.639 4.263 3.965 6.895 8.938 8.066 15.212.342 1.767.436 3.347.436 6.876 0 3.525-.094 5.108-.436 6.871-1.904 10.174-7.766 17.14-17.663 21.031-2.566 1.01-6.002 1.88-9.851 2.523-2.815.456-3.985.48-22.724.55l-19.767.09V19.191l19.308.113c16.336.07 19.701.16 21.923.48Zm-608.774-3.525c-.939.16-4.075.823-10.65 2.2-4.192.893-6.072 1.282-12.599 2.609a624.99 624.99 0 0 0-7.789 1.606c-1.833.367-5.062 1.054-7.218 1.49-2.024.412-4.047.832-6.068 1.26-2.246.456-13.77 2.862-15.556 3.228-.55.114-1.053.254-1.1.297-.09.07 14.686 8.845 14.889 8.845.07 0 .78-.296 1.583-.664.799-.366 2.633-1.193 4.075-1.856 1.444-.663 3.276-1.49 4.08-1.857.803-.366 1.489-.661 1.513-.661.043 0 1.142-.508 2.449-1.124a230.945 230.945 0 0 1 4.329-1.97 305.045 305.045 0 0 0 4.079-1.856c1.189-.55 2.176-1.01 2.222-1.01.047 0 .894-.366 1.877-.822 2.063-.964 4.445-2.064 5.455-2.5.387-.16 1.303-.593 2.06-.916.755-.344 1.786-.8 2.292-1.03.503-.23 1.693-.757 2.633-1.213a268.06 268.06 0 0 1 6.758-3.05c2.613-1.166 2.773-1.395.686-1.006Zm7.101 1.993a158.43 158.43 0 0 1-4.008 2.176c-1.443.78-2.726 1.467-2.862 1.556-.114.093-1.26.713-2.52 1.376-1.26.663-5.635 3.003-9.738 5.221-4.098 2.2-9.55 5.134-12.14 6.51-2.589 1.396-4.789 2.613-4.924 2.702-.114.094-1.101.621-2.177 1.147a125.255 125.255 0 0 0-3.436 1.833c-.827.456-2.476 1.353-3.665 1.993-4.582 2.43-6.369 3.37-8.248 4.422-1.076.596-2.75 1.513-3.709 2.04-3.482 1.833-5.245 2.791-6.988 3.708-.983.531-2.2 1.194-2.703 1.467-.503.277-1.787.986-2.862 1.536-1.076.573-2.773 1.466-3.784 2.017-1.005.549-2.496 1.33-3.317 1.785-.828.437-1.904 1.01-2.406 1.306-.504.278-1.834 1.01-2.98 1.604-3.986 2.133-8.042 4.286-9.161 4.928-1.903 1.054-4.239 2.29-6.532 3.503a162.368 162.368 0 0 0-3.205 1.72c-3.046 1.697-5.015 2.75-8.475 4.582-1.193.62-2.542 1.33-2.979 1.58-.437.253-1.72.939-2.863 1.559-1.123.597-2.682 1.42-3.434 1.833-.758.413-2.2 1.19-3.21 1.716-1.007.549-2.726 1.49-3.803 2.087a212.033 212.033 0 0 1-3.78 2.016c-4.582 2.36-5.474 2.932-5.544 3.594-.043.349.07 1.857.277 3.394.389 3.162.798 6.505 1.626 13.883.893 7.928 1.236 10.884 1.603 13.747.343 2.702 1.65 14.183 1.879 16.566.067.733.207 1.373.297 1.419.136.09 6.988-7.745 10.997-12.557.573-.686 6.045-7.102 7.42-8.657.391-.46 1.124-1.33 1.628-1.927.502-.616 1.028-1.213 1.146-1.35 1.58-1.743 2.885-3.415 2.816-3.665-.066-.277-4.076-4.539-11.727-12.44-1.123-1.17-1.95-2.133-1.81-2.133.137 0 2.336 1.123 4.902 2.476 2.43 1.3 4.866 2.589 7.308 3.868 1.443.757 3.366 1.767 4.236 2.246.893.461 2.543 1.354 3.666 1.951 1.146.592 2.885 1.533 3.895 2.059 1.006.526 2.863 1.513 4.123 2.176 1.259.667 2.955 1.559 3.778 1.997.828.432 2.843 1.485 4.469 2.359 1.65.846 3.093 1.626 3.205 1.716.138.094 2.2 1.17 4.582 2.406 2.406 1.236 4.466 2.316 4.583 2.43.137.09 1.787.962 3.666 1.922 1.9.987 3.526 1.88 3.643 1.973.136.113.296.207.389.207.16 0 2.886-4.516 6.045-9.967a4748.371 4748.371 0 0 1 15.646-26.714 710.61 710.61 0 0 0 3.275-5.616c.254-.503 1.124-1.97 1.904-3.299a418.781 418.781 0 0 0 3.229-5.499c.986-1.692 2.223-3.826 2.749-4.695.526-.892 1.396-2.383 1.947-3.322.549-.94 1.192-2.04 1.423-2.406.386-.616 4.169-7.079 7.946-13.63.847-1.443 3.164-5.433 5.176-8.821a914.662 914.662 0 0 0 4.193-7.219 93.95 93.95 0 0 1 1.696-2.815c.596-.988 1.099-1.833 1.099-1.88 0-.047.757-1.354 1.673-2.91.941-1.56 2.336-3.962 3.14-5.338.799-1.396 1.739-2.98 2.083-3.552 1.879-3.07 1.856-3.206-.368-1.9Zm354.499 11.41v9.964h-14.433v16.496h14.433v22.451c0 14.803.09 23.235.25 24.791 1.424 13.244 9.052 21.468 22.221 23.921 2.613.479 9.601.687 12.534.343 2.862-.343 6.345-1.17 8.681-2.086 1.697-.639 4.625-2.246 5.725-3.14l.529-.413-2.772-7.101c-1.537-3.916-2.865-7.171-2.932-7.261-.094-.094-.62.135-1.17.503-1.467.986-3.963 1.969-6.002 2.382-2.223.46-6.251.46-8.155.024-3.092-.734-5.541-2.66-6.87-5.386-1.444-2.909-1.42-2.472-1.42-26.873V56.122h23.363V39.624h-23.363v-19.93h-20.619v9.967Zm394.012 1.946v9.395h-15.575v7.102h15.556l.09 29.942c.092 32.418.069 31.229 1.329 35.101 3.159 9.621 11.247 14.593 23.114 14.157 5.865-.203 10.697-1.669 14.57-4.4 2.129-1.532 2.129-1.259.272-4.374-.892-1.491-1.649-2.774-1.692-2.793-.024-.047-.714.367-1.514.936-2.635 1.857-5.268 2.913-8.454 3.393-2.313.319-6.919.16-8.794-.343-6.165-1.65-9.644-6.209-10.424-13.658-.136-1.306-.23-13.197-.23-30.079V48.103h27.26v-7.101h-27.26V22.213h-8.248v9.394Zm-827.769.113c-.62.16-2.542.621-4.239 1.035a4482.058 4482.058 0 0 0-18.671 4.464c-2.77.667-6.436 1.538-8.132 1.927-4.399 1.053-6.09 1.442-11.91 2.862-2.159.526-4.32 1.038-6.485 1.537-.733.16-1.373.343-1.42.433-.046.07 1.123.85 2.59 1.719 5.589 3.3 10.26 6.049 14.269 8.361 2.27 1.33 4.493 2.637 4.926 2.91.436.277 1.33.827 1.992 1.193.643.367 1.513.846 1.927 1.076.71.414.71.414 2.749-.413 4.193-1.74 11.431-4.789 11.867-4.992.25-.117 2.473-1.057 4.922-2.063a360.64 360.64 0 0 0 4.925-2.063c.253-.137 1.329-.573 2.406-1.006a592.39 592.39 0 0 0 6.302-2.613 2859.11 2859.11 0 0 1 7.375-3.093c4.145-1.743 3.919-1.536 2.519-2.359a326.379 326.379 0 0 0-4.052-2.383c-1.583-.916-3.943-2.316-5.273-3.092-6.984-4.149-6.551-3.966-8.587-3.44Zm317.615 6.575c-6.871.644-14.339 3.097-19.931 6.58-4.353 2.702-8.546 6.641-11.521 10.79-1.878 2.633-4.468 7.787-5.409 10.79-2.748 8.729-2.702 19.312.118 27.904 2.153 6.575 6.457 13.13 11.543 17.572 3.874 3.393 9.828 6.758 14.893 8.431 6.481 2.157 14.453 2.933 21.624 2.087 8.682-1.01 16.079-4.24 21.648-9.418l1.923-1.787-.137 4.901c-.113 5.476-.573 8.479-1.763 11.755-1.993 5.409-5.042 8.868-9.967 11.274-4.762 2.336-9.781 3.206-17.409 3.023-5.222-.137-7.857-.479-12.233-1.556-6.736-1.674-13.08-4.493-17.409-7.745-.686-.527-1.307-.94-1.377-.94-.066 0-2.176 3.435-4.648 7.604-5.245 8.822-5.085 7.586-1.33 10.082 7.905 5.295 19.198 8.755 32.025 9.83 4.103.344 14.57.137 17.915-.342 13.767-1.951 23.321-7.266 29.346-16.247 4.305-6.458 6.618-14.067 7.308-24.26.137-1.926.227-19.016.227-41.494V38.94l-9.781.047-9.804.066-.07 5.659-.044 5.658-2.132-2.106c-7.765-7.697-19.816-11.27-33.605-9.968Zm15.12 17.803c5.085 1.034 9.184 3.115 12.689 6.462 4.376 4.145 6.689 9.05 7.238 15.35.78 9.004-2.608 17.069-9.301 22.107-4.418 3.323-9.39 4.996-15.665 5.292-13.7.643-24.353-6.482-27.536-18.442-.597-2.266-.827-8.088-.413-10.838.709-4.855 2.702-9 6.049-12.506 4.192-4.422 9.527-7.012 16.308-7.858 2.429-.3 8.135-.07 10.631.433ZM639.218 38.16c-9.344.666-18.371 3.002-25.267 6.55-2.359 1.218-6.16 3.624-6.438 4.057-.113.182 6.462 12.853 7.632 14.64.136.229.729-.067 2.449-1.238 6.528-4.445 15.28-6.964 24.19-6.964 13.973 0 21.328 5.912 21.878 17.572l.136 2.796-15.552.09c-13.563.07-15.875.14-18.075.483-5.429.894-10.631 2.566-13.724 4.423-4.578 2.75-8.29 6.984-9.986 11.364-1.373 3.525-1.693 5.38-1.673 9.668 0 3.458.07 4.145.619 6.184 2.91 11.044 12.807 18.4 26.686 19.842 3.323.344 10.862.16 13.653-.343 4.859-.897 8.869-2.34 12.187-4.399 1.697-1.057 5.409-4.469 6.439-5.935l.48-.687.023 5.199v5.225h19.495l-.09-28.592c-.07-25.891-.117-28.8-.46-30.977-1.029-6.118-2.749-10.767-5.499-14.893-1.485-2.242-5.288-6.001-7.604-7.533-4.742-3.116-10.561-5.18-17.295-6.096-2.543-.344-11.544-.62-14.204-.436Zm24.514 56.156v5.221l-.69 1.467c-2.952 6.208-9.095 10.376-17.089 11.593-7.144 1.077-13.927-.413-17.685-3.895-3.276-3.046-4.258-7.788-2.543-12.37 1.354-3.623 5.936-6.255 12.121-6.965.939-.118 7.148-.207 13.813-.23l12.073-.023v5.202ZM358.6 82.81v43.877h20.618v-87.75H358.6V82.81Zm141.799 0v43.877h20.618l-.047-43.83-.069-43.806-10.241-.066-10.261-.047V82.81Zm377.13-42.246c-8.155.733-16.883 3.596-23.321 7.652-2.702 1.72-5.612 4.055-5.499 4.422.07.16.964 1.513 1.993 3.002 1.857 2.68 1.903 2.726 2.383 2.36 4.515-3.553 7.561-5.362 11.913-7.102 5.636-2.222 10.998-3.255 17.159-3.255 13.08 0 21.051 4.924 24.237 15.005.917 2.844 1.166 5.133 1.166 10.772l.024 5.498-18.442.113c-17.823.137-18.532.16-21.188.64-6.829 1.283-11.086 3.139-14.57 6.415-2.336 2.2-3.711 4.033-4.924 6.579-1.698 3.596-2.04 5.269-2.017 10.307 0 3.736.09 4.606.503 6.185 2.43 8.845 10.057 15.237 20.778 17.393 5.522 1.099 13.104 1.099 18.668 0 8.568-1.697 15.853-6.302 20.139-12.694l1.395-2.086v14.916h8.019V98.78c0-17.318-.09-28.911-.253-30.632-.434-5.085-1.463-9.07-3.32-12.783-1.353-2.726-2.132-3.803-4.399-6.162-4.855-5.042-11.387-7.834-20.204-8.638-2.98-.273-7.124-.273-10.24 0Zm30.168 52.877v7.975l-.687 1.514c-4.258 9.414-11.866 15.349-21.99 17.158-5.156.916-12.784.573-17.16-.78-6.457-1.992-10.743-5.728-12.482-10.951-.87-2.589-1.1-6.988-.503-9.76 1.142-5.245 4.855-9.395 10.123-11.294 1.72-.62 5.565-1.49 7.651-1.697.438-.046 8.498-.112 17.935-.112l17.112-.047.001 7.994Zm209.953-52.99c-9.65.776-16.77 3.62-21.79 8.681-2.72 2.75-4.35 5.499-5.41 9.21-.68 2.407-.75 8.386-.11 11.135.66 2.796 2.2 5.635 4.22 7.745 5.43 5.682 9.75 7.331 29.16 11.087 5.32 1.033 11.06 2.5 13.22 3.346 3.8 1.513 7.17 4.192 8.38 6.692 2.27 4.695 1.42 11.087-2.02 15.006-2.99 3.366-7.71 5.451-14.52 6.369-3.16.413-10.45.479-13.42.112-8.53-1.076-17.09-4.282-23.32-8.797-.85-.617-1.6-1.076-1.68-1.006-.07.066-.93 1.532-1.92 3.228l-1.79 3.116.94.827c5.82 4.968 17.05 9.001 27.88 9.963 3.74.321 11.22.138 14.66-.365 13.24-1.947 21.74-8.202 24.1-17.71.41-1.602.5-2.635.48-5.315-.02-6.072-1.33-9.69-4.81-13.173-4.79-4.789-9.69-6.669-25.15-9.738-7.03-1.395-13.93-3.093-16.49-4.103-3.95-1.508-7.63-4.398-8.89-6.964-1.28-2.633-1.67-6.482-.96-9.531 1.3-5.541 6.25-9.851 13.24-11.567 3.93-.986 11.45-1.377 15.96-.827 6.97.847 13.65 3.116 18.65 6.346.87.549 1.65.94 1.76.826.21-.206 3.65-6.185 3.65-6.325 0-.25-3.14-2.107-5.5-3.23-4.4-2.105-10.1-3.779-15.86-4.605-2.31-.343-10.39-.616-12.66-.432ZM48.43 47.3c-4.239 1.053-4.766 1.17-10.885 2.636-7.054 1.697-7.534 1.81-9.62 2.289-1.123.278-3.709.875-5.725 1.378-2.017.479-5.202 1.259-7.101 1.696-1.88.456-5.776 1.396-8.615 2.082-2.862.686-5.358 1.26-5.54 1.26-.851 0-.509.437.82.987 2.13.892 7.676 3.322 9.049 3.938.643.324 1.833.85 2.635 1.17 1.558.663 3 1.283 4.4 1.927.503.226 1.993.892 3.318 1.443 1.33.573 4.104 1.762 6.185 2.678 2.087.917 4.949 2.153 6.392 2.773 1.443.64 2.956 1.283 3.323 1.466.39.184 2.246.983 4.122 1.81l3.416 1.49 5.635-2.247c16.468-6.599 23.57-9.46 24.19-9.737.39-.16 2.083-.846 3.78-1.509 1.695-.667 3.185-1.284 3.298-1.4.09-.09-.16-.344-.573-.574-.823-.409-8.911-5.108-12.003-6.965-3.85-2.312-6.552-3.892-6.622-3.892-.043 0-1.67-.939-3.596-2.086a235.41 235.41 0 0 0-4.559-2.679c-.573-.3-1.123-.644-1.236-.756-.273-.254.254-.344-4.488.822Z"/></svg>