<?xml version="1.0" encoding="utf-8"?>
<!-- Generator: Adobe Illustrator 26.0.1, SVG Export Plug-In . SVG Version: 6.00 Build 0)  -->
<svg version="1.1" id="Layer_1" xmlns="http://www.w3.org/2000/svg" xmlns:xlink="http://www.w3.org/1999/xlink" x="0px" y="0px"
	 viewBox="0 0 1413.8 413.8" style="enable-background:new 0 0 1413.8 413.8;" xml:space="preserve">
<style type="text/css">
	.st0{fill:#FFFFFF;}
</style>
<rect width="1413.8" height="413.8"/>
<g>
	<g>
		<path class="st0" d="M261.3,134c18.7,17.1,28,40.8,28,71.2c0,30.4-9.1,54.5-27.3,72.2C243.8,295.1,216,304,178.7,304h-66.9V108.4
			H181C215.8,108.4,242.6,116.9,261.3,134z M229.2,250.3c10.7-10.1,16.1-24.7,16.1-43.9c0-19.2-5.4-34-16.1-44.4
			c-10.7-10.4-27.2-15.5-49.4-15.5h-24.3v118.9h27.7C203.1,265.4,218.5,260.3,229.2,250.3z"/>
		<path class="st0" d="M307.4,108.4h43.7V304h-43.7V108.4z"/>
		<path class="st0" d="M386.9,145.9v-37.5h101.8V236c0,23.3-6,39.5-18,51c-12,11.6-27.5,18.6-46.3,18.6c-23.5,0-44-9-61.5-27.1
			l22.7-31.3c11.8,12.7,24.1,19,36.9,19c6.2,0,11.4-2.4,15.8-7.1c4.4-4.8,6.6-11.9,6.6-21.4v-91.8L386.9,145.9L386.9,145.9z"/>
		<path class="st0" d="M515.6,108.4h43.7V304h-43.7V108.4z"/>
		<path class="st0" d="M670.6,146.2V304h-43.7V146.2h-55.4v-37.8H726v37.8L670.6,146.2L670.6,146.2z"/>
		<path class="st0" d="M863.4,304l-18.2-42.2h-82L745,304h-46.5L783,108.4h42.2L909.8,304H863.4z M804.3,166.6l-24.6,56.8h49
			L804.3,166.6z"/>
		<path class="st0" d="M912.9,304V108.4h43.7v156.7h83.4V304H912.9z"/>
		<path class="st0" d="M1052.2,304V108.4h43.7v156.7h83.4V304H1052.2z"/>
		<path class="st0" d="M1258.7,304H1215v-77.2l-67.7-118.4h47.3l42.2,72.8l42.2-72.8l47.3-1.3l-67.7,119.6L1258.7,304L1258.7,304z"
			/>
	</g>
</g>
</svg>
