<svg fill="none" xmlns="http://www.w3.org/2000/svg" viewBox="0 0 120 17">
  <path
    d="M31.532.401a4.418 4.418 0 0 0-1.645.291 3.35 3.35 0 0 0-1.221.815c-.343.36-.603.79-.761 1.263a4.842 4.842 0 0 0-.257 1.616v.892h-1.613v2.644h1.613v7.619h3.108V7.909h2.207V5.265h-2.207V4.49c-.01-.241.036-.482.133-.702.076-.164.188-.309.327-.423.125-.102.272-.173.429-.206.144-.033.291-.051.439-.053.195-.003.39.008.583.032.114.014.227.038.337.072V.63a2.485 2.485 0 0 0-.613-.164A5.411 5.411 0 0 0 31.532.4ZM43.608 13.918v-5a4.751 4.751 0 0 0-.237-1.504 3.184 3.184 0 0 0-.783-1.263 3.866 3.866 0 0 0-1.412-.863 6.11 6.11 0 0 0-2.102-.32 5.305 5.305 0 0 0-1.958.33c-.502.19-.966.468-1.37.821-.347.306-.63.676-.834 1.09-.183.36-.295.75-.33 1.15l2.72.565c.031-.393.203-.762.485-1.038.294-.308.716-.462 1.267-.462.494 0 .87.11 1.13.329a1.005 1.005 0 0 1 .378.78.653.653 0 0 1-.166.453.944.944 0 0 1-.577.246l-2.415.363a4.88 4.88 0 0 0-1.183.338c-.353.15-.677.359-.96.617a2.77 2.77 0 0 0-.648.913 3 3 0 0 0 .69 3.37c.322.3.7.535 1.114.689.482.18.993.267 1.508.258a3.624 3.624 0 0 0 1.75-.391 2.982 2.982 0 0 0 1.132-1.047c-.005.27.009.542.041.812.013.114.034.227.063.338h2.827a6.982 6.982 0 0 1-.071-.534 9.5 9.5 0 0 1-.059-1.04Zm-3.05-2.425c.011.337-.045.673-.166.987-.093.237-.237.451-.422.626-.169.157-.374.27-.598.33a2.599 2.599 0 0 1-.69.093c-.44 0-.754-.106-.942-.32-.182-.199-.281-.46-.279-.729a.937.937 0 0 1 .33-.791c.241-.18.525-.297.824-.338l1.937-.309.006.451ZM54.966 6.56a4.257 4.257 0 0 0-1.495-1.113 4.809 4.809 0 0 0-2.004-.402 4.318 4.318 0 0 0-1.846.377c-.445.178-.836.47-1.133.845V1.362H45.42v14.192h3.034v-1.155c.267.428.65.771 1.105.989a3.81 3.81 0 0 0 1.786.392c.678.008 1.35-.13 1.97-.402a4.632 4.632 0 0 0 1.547-1.113 5.072 5.072 0 0 0 1.012-1.698 6.304 6.304 0 0 0 .36-2.166 6.62 6.62 0 0 0-.33-2.134 5.048 5.048 0 0 0-.938-1.707Zm-2.054 4.971c-.11.3-.281.575-.504.804-.21.21-.465.373-.744.475-.28.103-.577.155-.876.155-.3 0-.598-.056-.878-.166a2.125 2.125 0 0 1-.744-.485 2.394 2.394 0 0 1-.515-.794 2.903 2.903 0 0 1-.19-1.113c-.01-.386.054-.77.19-1.132a2.28 2.28 0 0 1 .515-.795 2.1 2.1 0 0 1 .744-.464 2.591 2.591 0 0 1 1.754 0c.277.101.53.26.744.464.224.225.395.497.504.795.249.729.249 1.52 0 2.249v.007ZM62.814 5.28c-.258.05-.51.129-.75.236a2.608 2.608 0 0 0-.688.454c-.22.203-.399.448-.524.721v-1.38h-3.015v10.23h3.13v-4.466a3.82 3.82 0 0 1 .188-1.298c.109-.323.288-.618.523-.864a1.94 1.94 0 0 1 .76-.473 2.82 2.82 0 0 1 .904-.145c.15 0 .306 0 .471.021.173.015.344.043.513.083V5.31a2.951 2.951 0 0 0-.82-.104 3.64 3.64 0 0 0-.692.074ZM69.373 5.287h-3.205v10.254h3.205V5.287ZM81.545 5.3h-4.069l-3.121 3.442v-7.38h-3.14v14.179h3.14v-2.515l1.013-1.091 2.418 3.606h3.843l-4.091-5.934L81.545 5.3ZM91.508 13.908V8.913a4.757 4.757 0 0 0-.238-1.502 3.16 3.16 0 0 0-.783-1.262 3.859 3.859 0 0 0-1.414-.861 6.129 6.129 0 0 0-2.104-.32 5.31 5.31 0 0 0-1.959.33c-.503.19-.968.467-1.372.82a3.559 3.559 0 0 0-.837 1.089 3.19 3.19 0 0 0-.33 1.149l2.724.563c.031-.392.204-.76.485-1.036a1.68 1.68 0 0 1 1.269-.462c.495 0 .87.109 1.132.328a.993.993 0 0 1 .377.78.654.654 0 0 1-.164.452.958.958 0 0 1-.578.246l-2.414.375a4.915 4.915 0 0 0-1.187.338 3.41 3.41 0 0 0-.959.616 2.723 2.723 0 0 0-.649.913 3.097 3.097 0 0 0 0 2.38c.16.373.395.709.691.986.322.3.7.533 1.114.687.483.18.994.267 1.51.258a3.637 3.637 0 0 0 1.753-.391 2.97 2.97 0 0 0 1.132-1.046c-.004.271.01.542.042.811.015.114.036.227.062.338h2.831a5.86 5.86 0 0 1-.074-.533c-.039-.349-.06-.7-.06-1.051Zm-3.05-2.43c.011.336-.045.671-.164.986a1.76 1.76 0 0 1-.423.625c-.17.156-.374.27-.598.329a2.64 2.64 0 0 1-.693.094c-.44 0-.754-.107-.944-.32-.18-.2-.28-.46-.277-.728a.939.939 0 0 1 .329-.79c.242-.18.527-.297.826-.339l1.944-.308v.451ZM97.74 2.323h-2.798V3.64c.016.43-.122.853-.39 1.192-.26.314-.658.471-1.192.471h-.516v2.734h1.81v4.375c0 1.028.301 1.833.905 2.416.604.582 1.44.873 2.51.872.38.013.761-.029 1.13-.122.26-.083.425-.138.492-.166v-2.588a3.252 3.252 0 0 1-.822.103 1.416 1.416 0 0 1-.822-.216c-.206-.145-.309-.43-.309-.853V8.036h1.995V5.303H97.74v-2.98ZM68.909 1.214a1.86 1.86 0 0 0-.569-.362 1.85 1.85 0 0 0-1.941.362c-.167.154-.301.34-.397.545a1.66 1.66 0 0 0 .397 1.937 1.8 1.8 0 0 0 .575.346c.44.165.926.165 1.366 0 .21-.08.403-.196.569-.346a1.693 1.693 0 0 0 .396-1.937 1.754 1.754 0 0 0-.396-.545ZM4.013 12.92a2.363 2.363 0 0 0-2.537-.488 2.367 2.367 0 0 0-1.274 1.224 2.298 2.298 0 0 0-.158 1.393 2.27 2.27 0 0 0 1.433 1.687 2.488 2.488 0 0 0 1.791 0c.275-.107.528-.265.745-.467.342-.327.575-.754.668-1.222a2.344 2.344 0 0 0-.148-1.39 2.368 2.368 0 0 0-.52-.736ZM8.35 11.757a3.347 3.347 0 0 0 2.144-3.147 3.175 3.175 0 0 0-.28-1.331A3.484 3.484 0 0 0 8.35 5.474a3.532 3.532 0 0 0-2.692 0c-.826.345-1.489.99-1.854 1.805a3.176 3.176 0 0 0-.279 1.332 3.297 3.297 0 0 0 1.011 2.409c.318.31.693.558 1.103.73.428.179.887.27 1.35.266.467.002.928-.086 1.36-.259ZM11.93 6.54c.348.343.763.612 1.218.79.973.374 2.05.374 3.023 0a3.604 3.604 0 0 0 2.033-1.984 3.862 3.862 0 0 0 .3-1.542 3.82 3.82 0 0 0-1.114-2.732A3.56 3.56 0 0 0 16.17.28a4.223 4.223 0 0 0-3.023 0 3.523 3.523 0 0 0-1.218.792 3.812 3.812 0 0 0-1.115 2.732 3.86 3.86 0 0 0 .298 1.542c.191.448.469.854.817 1.195ZM108.735 4.085a1.505 1.505 0 0 0 1.113-.46 1.559 1.559 0 0 0 .459-1.132 1.611 1.611 0 0 0-.114-.618 1.59 1.59 0 0 0-.345-.522 1.493 1.493 0 0 0-1.113-.471 1.458 1.458 0 0 0-1.103.471 1.608 1.608 0 0 0-.449 1.14 1.55 1.55 0 0 0 .449 1.132c.144.15.316.268.506.347.189.079.393.117.597.113ZM104.169 4.085a1.509 1.509 0 0 0 1.113-.46 1.559 1.559 0 0 0 .459-1.132 1.569 1.569 0 0 0-.459-1.14 1.488 1.488 0 0 0-1.113-.471 1.47 1.47 0 0 0-1.102.471 1.573 1.573 0 0 0-.449 1.14 1.533 1.533 0 0 0 .449 1.132 1.488 1.488 0 0 0 1.102.46ZM110.258 6.503a5.177 5.177 0 0 0-1.709-1.134 5.831 5.831 0 0 0-4.258 0 5.193 5.193 0 0 0-1.711 1.134 5.345 5.345 0 0 0-1.145 1.714 5.535 5.535 0 0 0-.419 2.19 5.602 5.602 0 0 0 .423 2.2 5.157 5.157 0 0 0 2.856 2.852 5.832 5.832 0 0 0 4.258 0 5.13 5.13 0 0 0 1.716-1.133 5.188 5.188 0 0 0 1.14-1.719 5.638 5.638 0 0 0 .42-2.2 5.572 5.572 0 0 0-.42-2.19 5.337 5.337 0 0 0-1.151-1.714Zm-1.744 5.04c-.117.297-.29.567-.511.796-.205.209-.453.371-.726.476a2.423 2.423 0 0 1-1.704 0 1.993 1.993 0 0 1-.735-.476 2.407 2.407 0 0 1-.511-.805 3.35 3.35 0 0 1 0-2.253c.114-.298.288-.569.511-.795.209-.206.46-.365.735-.465a2.448 2.448 0 0 1 1.704 0c.272.103.521.262.73.466.222.227.396.498.51.796.134.362.199.747.188 1.134.011.384-.053.766-.186 1.126h-.005ZM119.196 5.207a3.687 3.687 0 0 0-.69.074 3.373 3.373 0 0 0-.753.235 2.66 2.66 0 0 0-.69.454c-.221.203-.4.448-.525.721v-1.38h-3.027v10.23h3.131v-4.466c-.014-.44.049-.88.188-1.298.11-.322.288-.617.524-.864.211-.213.469-.375.753-.473.292-.097.598-.146.906-.145.151 0 .309 0 .473.021.173.015.345.042.514.083V5.311a2.961 2.961 0 0 0-.804-.104Z"
    fill="#fff"
  />
</svg>
