<svg width="1739" height="669" viewBox="0 0 1739 669" fill="none" xmlns="http://www.w3.org/2000/svg">
<path d="M514.629 234.007C507.616 233.899 500.647 235.13 494.087 237.637C488.326 239.853 483.121 243.327 478.844 247.81C474.566 252.293 471.322 257.676 469.343 263.572C467.14 270.065 466.059 276.891 466.145 283.754V294.882H446V327.89H466.145V423H504.942V327.725H532.486V294.717H504.942V285.051C504.816 282.037 505.383 279.035 506.599 276.28C507.549 274.231 508.946 272.426 510.684 270.999C512.241 269.73 514.072 268.849 516.03 268.429C517.83 268.015 519.669 267.794 521.515 267.769C523.949 267.736 526.382 267.869 528.798 268.17C530.222 268.344 531.628 268.644 533 269.066V236.859C530.544 235.85 527.971 235.161 525.343 234.808C521.798 234.257 518.216 233.989 514.629 234.007V234.007Z" fill="#011E41"/>
<path d="M665.376 402.747V340.325C665.404 333.95 664.402 327.611 662.411 321.552C660.447 315.602 657.101 310.198 652.646 305.782C647.62 300.964 641.607 297.289 635.02 295.011C626.576 292.159 617.695 290.808 608.782 291.022C600.445 290.84 592.149 292.233 584.332 295.129C578.066 297.51 572.273 300.982 567.225 305.384C562.903 309.202 559.37 313.826 556.823 318.994C554.537 323.473 553.139 328.349 552.705 333.356L586.662 340.396C587.047 335.492 589.195 330.893 592.71 327.442C596.381 323.594 601.652 321.669 608.523 321.669C614.689 321.669 619.395 323.038 622.642 325.776C624.105 326.947 625.286 328.429 626.1 330.114C626.915 331.799 627.341 333.644 627.349 335.515C627.406 337.594 626.665 339.617 625.278 341.17C623.3 342.985 620.759 344.07 618.077 344.244L587.933 348.774C582.847 349.553 577.882 350.972 573.155 352.998C568.755 354.87 564.705 357.473 561.177 360.695C557.729 363.907 554.974 367.788 553.082 372.099C550.031 379.15 549.221 386.963 550.761 394.486C552.301 402.01 556.117 408.882 561.695 414.175C565.72 417.92 570.446 420.839 575.602 422.764C581.62 425.001 588.006 426.091 594.427 425.979C602.01 426.21 609.529 424.531 616.289 421.098C622.063 418.051 626.932 413.543 630.408 408.027C630.345 411.414 630.518 414.801 630.926 418.165C631.084 419.589 631.344 421.001 631.702 422.389H667C666.835 421.708 666.529 419.479 666.106 415.724C665.625 411.415 665.382 407.083 665.376 402.747V402.747ZM627.302 372.475C627.442 376.678 626.738 380.867 625.231 384.795C624.069 387.753 622.27 390.421 619.96 392.609C617.85 394.569 615.287 395.98 612.5 396.716C609.695 397.492 606.798 397.886 603.887 397.889C598.397 397.889 594.475 396.56 592.121 393.9C589.856 391.408 588.612 388.158 588.639 384.795C588.491 382.941 588.787 381.078 589.503 379.36C590.219 377.642 591.334 376.119 592.757 374.915C595.773 372.666 599.31 371.213 603.04 370.691L627.231 366.843L627.302 372.475Z" fill="#011E41"/>
<path d="M807.158 310.886C802.04 304.932 795.666 300.187 788.493 296.99C780.614 293.546 772.086 291.835 763.487 291.973C755.551 291.827 747.68 293.436 740.438 296.684C734.884 298.907 730.008 302.545 726.297 307.235V246H688V423.158H725.873V408.744C729.197 414.088 733.981 418.37 739.66 421.085C746.583 424.504 754.236 426.186 761.955 425.984C770.42 426.077 778.808 424.367 786.56 420.967C793.888 417.722 800.461 412.99 805.862 407.072C811.423 400.902 815.715 393.7 818.494 385.875C821.565 377.195 823.088 368.043 822.996 358.837C823.088 349.793 821.695 340.794 818.871 332.2C816.389 324.403 812.41 317.163 807.158 310.886V310.886ZM781.517 372.945C780.152 376.696 778.007 380.115 775.224 382.978C772.599 385.61 769.43 387.636 765.938 388.913C762.434 390.191 758.733 390.844 755.003 390.844C751.252 390.845 747.535 390.142 744.044 388.772C740.556 387.431 737.392 385.368 734.758 382.719C731.974 379.875 729.786 376.504 728.324 372.804C726.637 368.37 725.836 363.649 725.968 358.908C725.836 354.09 726.636 349.292 728.324 344.777C729.751 341.058 731.943 337.68 734.758 334.861C737.411 332.298 740.575 330.324 744.044 329.068C751.12 326.523 758.862 326.523 765.938 329.068C769.404 330.33 772.568 332.303 775.224 334.861C778.018 337.67 780.165 341.054 781.517 344.777C784.627 353.877 784.627 363.751 781.517 372.851V372.945Z" fill="#011E41"/>
<path d="M905.133 294.921C901.904 295.529 898.757 296.515 895.758 297.859C892.618 299.28 889.722 301.192 887.18 303.524C884.425 306.059 882.202 309.119 880.641 312.526V295.297H843V423H882.07V367.246C881.913 361.752 882.706 356.273 884.414 351.051C885.78 347.018 888.012 343.335 890.953 340.262C893.616 337.581 896.866 335.561 900.445 334.362C904.08 333.149 907.888 332.538 911.719 332.552C913.594 332.552 915.539 332.552 917.602 332.811C919.757 332.998 921.895 333.344 924 333.845V295.297C920.663 294.387 917.215 293.952 913.758 294.004C910.86 294.034 907.972 294.341 905.133 294.921V294.921Z" fill="#011E41"/>
<path d="M987 295H947V423H987V295Z" fill="#011E41"/>
<path d="M1138.96 295.156H1088.16L1049.2 338.124V246H1010V423H1049.2V391.61L1061.84 377.985L1092.03 423H1140L1088.93 348.924L1138.96 295.156Z" fill="#011E41"/>
<path d="M1263.33 402.611V340.266C1263.35 333.897 1262.35 327.566 1260.36 321.515C1258.4 315.568 1255.05 310.169 1250.58 305.764C1245.55 300.947 1239.53 297.276 1232.93 295.006C1224.48 292.157 1215.59 290.809 1206.66 291.022C1198.33 290.839 1190.03 292.231 1182.21 295.124C1175.93 297.499 1170.13 300.967 1165.08 305.366C1160.75 309.18 1157.2 313.797 1154.64 318.96C1152.37 323.441 1150.98 328.307 1150.52 333.304L1184.52 340.336C1184.91 335.441 1187.06 330.85 1190.57 327.398C1192.67 325.396 1195.15 323.849 1197.88 322.856C1200.61 321.864 1203.51 321.447 1206.41 321.632C1212.6 321.632 1217.27 322.992 1220.54 325.734C1222.01 326.9 1223.2 328.38 1224.01 330.064C1224.83 331.747 1225.25 333.592 1225.25 335.461C1225.31 337.533 1224.58 339.549 1223.2 341.109C1221.22 342.909 1218.68 343.991 1215.99 344.18L1185.86 348.867C1180.76 349.646 1175.78 351.063 1171.04 353.086C1166.65 354.959 1162.6 357.558 1159.07 360.774C1155.61 363.97 1152.85 367.85 1150.97 372.165C1147.01 381.68 1147.01 392.369 1150.97 401.885C1152.95 406.539 1155.89 410.73 1159.59 414.19C1163.61 417.93 1168.34 420.845 1173.49 422.768C1179.52 425.002 1185.91 426.091 1192.34 425.979C1199.93 426.21 1207.46 424.533 1214.23 421.104C1220.01 418.067 1224.89 413.563 1228.36 408.049C1228.31 411.432 1228.49 414.814 1228.88 418.174C1229.07 419.593 1229.33 421.001 1229.66 422.393H1265C1264.81 421.713 1264.51 419.487 1264.08 415.737C1263.59 411.379 1263.33 406.997 1263.33 402.611V402.611ZM1225.25 372.282C1225.39 376.478 1224.69 380.659 1223.2 384.587C1222.03 387.537 1220.23 390.2 1217.93 392.392C1215.81 394.345 1213.25 395.753 1210.46 396.494C1207.64 397.267 1204.73 397.661 1201.81 397.666C1196.31 397.666 1192.39 396.338 1190.03 393.681C1187.78 391.184 1186.54 387.942 1186.57 384.587C1186.42 382.737 1186.71 380.878 1187.42 379.162C1188.14 377.446 1189.25 375.924 1190.67 374.72C1193.7 372.473 1197.25 371.022 1200.99 370.501L1225.25 366.657V372.282Z" fill="#011E41"/>
<path d="M1341.12 258H1306.19V274.425C1306.39 279.803 1304.67 285.077 1301.33 289.301C1298.07 293.228 1293.11 295.191 1286.44 295.191H1280V329.308H1302.6V383.933C1302.6 396.76 1306.36 406.81 1313.9 414.084C1321.43 421.358 1331.88 424.987 1345.23 424.972C1349.98 425.131 1354.73 424.617 1359.33 423.447C1362.57 422.414 1364.64 421.734 1365.48 421.382V389.071C1364.01 389.473 1362.51 389.771 1361 389.963C1359.08 390.234 1357.15 390.367 1355.22 390.362C1351.6 390.537 1348.02 389.594 1344.95 387.664C1342.38 385.849 1341.1 382.298 1341.1 377.011V329.308H1366V295.191H1341.12V258Z" fill="#011E41"/>
<path d="M981.21 244.146C979.144 242.225 976.74 240.696 974.118 239.633C968.644 237.456 962.533 237.456 957.059 239.633C954.406 240.687 951.971 242.217 949.878 244.146C947.802 246.08 946.122 248.393 944.931 250.958C943.06 254.987 942.531 259.501 943.421 263.847C944.31 268.192 946.571 272.146 949.878 275.136C951.976 277.011 954.412 278.476 957.059 279.455C962.555 281.515 968.622 281.515 974.118 279.455C976.734 278.468 979.14 277.003 981.21 275.136C984.462 272.11 986.685 268.158 987.571 263.827C988.457 259.496 987.963 255 986.157 250.958C984.967 248.393 983.287 246.08 981.21 244.146V244.146Z" fill="#011E41"/>
<path d="M171.098 390.29C168.389 387.699 165.238 385.636 161.799 384.203C154.622 381.266 146.61 381.266 139.433 384.203C135.954 385.625 132.762 387.688 130.018 390.29C127.295 392.899 125.093 396.019 123.532 399.479C121.079 404.913 120.386 411.001 121.551 416.863C122.717 422.725 125.682 428.057 130.018 432.091C132.768 434.619 135.963 436.596 139.433 437.917C146.639 440.694 154.593 440.694 161.799 437.917C165.229 436.585 168.384 434.609 171.098 432.091C175.362 428.009 178.276 422.678 179.437 416.837C180.599 410.995 179.952 404.93 177.584 399.479C176.023 396.019 173.82 392.899 171.098 390.29V390.29Z" fill="#011E41"/>
<path d="M225.228 375.767C230.386 373.738 235.102 370.74 239.119 366.937C243.234 362.998 246.498 358.267 248.712 353.032C250.926 347.797 252.044 342.167 251.998 336.487C252.053 330.759 250.864 325.087 248.514 319.857C243.959 309.643 235.618 301.572 225.228 297.325C219.903 295.13 214.194 294 208.429 294C202.665 294 196.956 295.13 191.631 297.325C181.316 301.634 173.04 309.692 168.487 319.857C166.136 325.087 164.948 330.759 165.002 336.487C164.947 342.089 166.038 347.644 168.207 352.814C170.377 357.984 173.58 362.661 177.622 366.562C181.595 370.435 186.268 373.526 191.395 375.673C196.73 377.906 202.465 379.038 208.253 378.999C214.068 379.023 219.833 377.925 225.228 375.767V375.767Z" fill="#011E41"/>
<path d="M269.92 310.647C274.271 314.92 279.446 318.274 285.132 320.507C297.276 325.164 310.725 325.164 322.869 320.507C328.568 318.312 333.757 314.984 338.121 310.725C342.484 306.467 345.929 301.368 348.246 295.739C350.803 289.644 352.079 283.093 351.996 276.488C352.053 270.17 350.853 263.902 348.465 258.048C346.077 252.193 342.547 246.867 338.081 242.377C333.748 238.074 328.569 234.709 322.869 232.493C310.725 227.836 297.276 227.836 285.132 232.493C279.425 234.698 274.244 238.064 269.92 242.377C265.442 246.858 261.905 252.183 259.516 258.04C257.127 263.896 255.933 270.168 256.005 276.488C255.913 283.091 257.182 289.643 259.731 295.739C262.115 301.324 265.576 306.389 269.92 310.647V310.647Z" fill="#011E41"/>
<path d="M1478.38 279.996C1480.96 280.042 1483.52 279.558 1485.9 278.571C1488.29 277.585 1490.46 276.117 1492.27 274.256C1494.13 272.427 1495.59 270.228 1496.58 267.796C1497.56 265.364 1498.05 262.75 1498 260.119C1498.04 257.476 1497.55 254.851 1496.57 252.404C1495.58 249.958 1494.12 247.741 1492.27 245.887C1490.48 243.983 1488.32 242.478 1485.93 241.465C1483.54 240.452 1480.97 239.955 1478.38 240.003C1475.81 239.954 1473.26 240.452 1470.89 241.465C1468.52 242.478 1466.38 243.984 1464.61 245.887C1462.79 247.756 1461.36 249.979 1460.39 252.424C1459.43 254.868 1458.96 257.485 1459 260.119C1458.95 262.741 1459.41 265.346 1460.38 267.777C1461.34 270.207 1462.78 272.412 1464.61 274.256C1466.4 276.119 1468.55 277.59 1470.92 278.577C1473.28 279.564 1475.83 280.047 1478.38 279.996V279.996Z" fill="#011E41"/>
<path d="M1421.37 279.996C1423.95 280.044 1426.51 279.561 1428.9 278.574C1431.29 277.588 1433.45 276.118 1435.27 274.255C1437.13 272.427 1438.59 270.228 1439.58 267.796C1440.56 265.363 1441.05 262.75 1441 260.119C1441.04 257.475 1440.56 254.848 1439.57 252.401C1438.59 249.954 1437.12 247.737 1435.27 245.888C1433.48 243.984 1431.32 242.478 1428.92 241.465C1426.53 240.453 1423.96 239.955 1421.37 240.004C1418.8 239.952 1416.25 240.448 1413.88 241.462C1411.51 242.475 1409.38 243.983 1407.62 245.888C1405.79 247.753 1404.35 249.975 1403.39 252.421C1402.42 254.866 1401.95 257.485 1402.01 260.119C1401.94 262.741 1402.4 265.349 1403.37 267.781C1404.33 270.213 1405.78 272.417 1407.62 274.255C1409.4 276.122 1411.54 277.596 1413.91 278.583C1416.27 279.571 1418.82 280.052 1421.37 279.996V279.996Z" fill="#011E41"/>
<path d="M1497.39 310.179C1491.28 304.08 1484.03 299.268 1476.05 296.025C1458.96 289.325 1439.99 289.325 1422.9 296.025C1414.92 299.267 1407.66 304.079 1401.54 310.179C1395.44 316.302 1390.58 323.571 1387.25 331.576C1383.67 340.233 1381.88 349.538 1382.01 358.917C1381.9 368.337 1383.71 377.68 1387.3 386.377C1390.55 394.424 1395.39 401.725 1401.52 407.843C1407.64 413.96 1414.93 418.767 1422.95 421.975C1440.04 428.675 1459.01 428.675 1476.1 421.975C1484.11 418.758 1491.4 413.947 1497.52 407.831C1503.65 401.715 1508.48 394.418 1511.75 386.377C1515.32 377.673 1517.1 368.333 1517 358.917C1517.11 349.539 1515.32 340.236 1511.75 331.576C1508.4 323.566 1503.52 316.297 1497.39 310.179V310.179ZM1475.61 373.095C1474.15 376.797 1471.99 380.172 1469.23 383.027C1466.67 385.639 1463.58 387.667 1460.17 388.972C1453.31 391.547 1445.76 391.547 1438.9 388.972C1435.44 387.697 1432.31 385.667 1429.72 383.027C1426.95 380.14 1424.78 376.723 1423.35 372.977C1420.1 363.889 1420.1 353.945 1423.35 344.857C1424.77 341.139 1426.94 337.757 1429.72 334.926C1432.34 332.357 1435.47 330.379 1438.9 329.122C1445.77 326.575 1453.31 326.575 1460.17 329.122C1463.57 330.413 1466.67 332.397 1469.28 334.949C1472.06 337.78 1474.23 341.162 1475.65 344.881C1477.33 349.403 1478.13 354.209 1478 359.035C1478.13 363.829 1477.34 368.604 1475.68 373.095H1475.61Z" fill="#011E41"/>
<path d="M1608.96 294.002C1606.07 294.036 1603.19 294.343 1600.35 294.918C1597.12 295.526 1593.96 296.512 1590.95 297.857C1587.8 299.284 1584.9 301.195 1582.34 303.521C1579.58 306.057 1577.35 309.117 1575.78 312.524V295.294H1538V423H1577.08V367.245C1576.91 361.751 1577.7 356.269 1579.43 351.05C1580.8 347.023 1583.03 343.341 1585.97 340.261C1588.6 337.595 1591.82 335.576 1595.37 334.361C1599.02 333.149 1602.84 332.538 1606.68 332.551C1608.56 332.551 1610.54 332.551 1612.58 332.809C1614.74 332.993 1616.89 333.338 1619 333.844V295.294C1615.73 294.405 1612.35 293.97 1608.96 294.002V294.002Z" fill="#011E41"/>
</svg>
