<svg fill="none" xmlns="http://www.w3.org/2000/svg" viewBox="0 0 1739 669"><path d="M514.629 234.007a55.152 55.152 0 0 0-20.542 3.63 41.825 41.825 0 0 0-15.243 10.173 42.347 42.347 0 0 0-9.501 15.762 60.46 60.46 0 0 0-3.198 20.182v11.128H446v33.008h20.145V423h38.797v-95.275h27.544v-33.008h-27.544v-9.666a19.688 19.688 0 0 1 1.657-8.771 14.99 14.99 0 0 1 4.085-5.281 12.667 12.667 0 0 1 5.346-2.57c1.8-.414 3.639-.635 5.485-.66 2.434-.033 4.867.1 7.283.401a24.33 24.33 0 0 1 4.202.896v-32.207a31.013 31.013 0 0 0-7.657-2.051 67.546 67.546 0 0 0-10.714-.801ZM665.376 402.747v-62.422a59.302 59.302 0 0 0-2.965-18.773 39.75 39.75 0 0 0-9.765-15.77 48.266 48.266 0 0 0-17.626-10.771 76.277 76.277 0 0 0-26.238-3.989 66.221 66.221 0 0 0-24.45 4.107 56.64 56.64 0 0 0-17.107 10.255 44.279 44.279 0 0 0-10.402 13.61 38.999 38.999 0 0 0-4.118 14.362l33.957 7.04a20.39 20.39 0 0 1 6.048-12.954c3.671-3.848 8.942-5.773 15.813-5.773 6.166 0 10.872 1.369 14.119 4.107a12.547 12.547 0 0 1 4.707 9.739 8.155 8.155 0 0 1-2.071 5.655 11.779 11.779 0 0 1-7.201 3.074l-30.144 4.53a60.925 60.925 0 0 0-14.778 4.224 42.347 42.347 0 0 0-11.978 7.697 34.58 34.58 0 0 0-8.095 11.404 37.452 37.452 0 0 0-2.321 22.387 37.513 37.513 0 0 0 10.934 19.689 41.964 41.964 0 0 0 13.907 8.589 51.457 51.457 0 0 0 18.825 3.215 45.243 45.243 0 0 0 21.862-4.881 37.218 37.218 0 0 0 14.119-13.071 72.93 72.93 0 0 0 .518 10.138c.158 1.424.418 2.836.776 4.224H667c-.165-.681-.471-2.91-.894-6.665a118.45 118.45 0 0 1-.73-12.977Zm-38.074-30.272a31.469 31.469 0 0 1-2.071 12.32 21.683 21.683 0 0 1-5.271 7.814 17.544 17.544 0 0 1-7.46 4.107 32.427 32.427 0 0 1-8.613 1.173c-5.49 0-9.412-1.329-11.766-3.989a13.378 13.378 0 0 1-3.482-9.105 11.706 11.706 0 0 1 .864-5.435 11.736 11.736 0 0 1 3.254-4.445 22.394 22.394 0 0 1 10.283-4.224l24.191-3.848.071 5.632ZM807.158 310.886a53.135 53.135 0 0 0-18.665-13.896 60.03 60.03 0 0 0-25.006-5.017 53.903 53.903 0 0 0-23.049 4.711 34.273 34.273 0 0 0-14.141 10.551V246H688v177.158h37.873v-14.414a32.997 32.997 0 0 0 13.787 12.341 47.544 47.544 0 0 0 22.295 4.899 59.628 59.628 0 0 0 24.605-5.017 57.836 57.836 0 0 0 19.302-13.895 63.306 63.306 0 0 0 12.632-21.197 78.707 78.707 0 0 0 4.502-27.038 82.634 82.634 0 0 0-4.125-26.637 62.992 62.992 0 0 0-11.713-21.314Zm-25.641 62.059a28.258 28.258 0 0 1-6.293 10.033 25.469 25.469 0 0 1-9.286 5.935 31.912 31.912 0 0 1-10.935 1.931 29.976 29.976 0 0 1-10.959-2.072 26.511 26.511 0 0 1-9.286-6.053 29.863 29.863 0 0 1-6.434-9.915 36.241 36.241 0 0 1-2.356-13.896 37.425 37.425 0 0 1 2.356-14.131 28.465 28.465 0 0 1 6.434-9.916 26.203 26.203 0 0 1 9.286-5.793 32.346 32.346 0 0 1 21.894 0 26.413 26.413 0 0 1 9.286 5.793 27.25 27.25 0 0 1 6.293 9.916 43.404 43.404 0 0 1 0 28.074v.094ZM905.133 294.921a41.87 41.87 0 0 0-9.375 2.938 32.529 32.529 0 0 0-8.578 5.665 28.187 28.187 0 0 0-6.539 9.002v-17.229H843V423h39.07v-55.754a47.712 47.712 0 0 1 2.344-16.195 29.109 29.109 0 0 1 6.539-10.789 24.225 24.225 0 0 1 9.492-5.9 35.21 35.21 0 0 1 11.274-1.81c1.875 0 3.82 0 5.883.259 2.155.187 4.293.533 6.398 1.034v-38.548a36.825 36.825 0 0 0-10.242-1.293c-2.898.03-5.786.337-8.625.917ZM987 295h-40v128h40V295ZM1138.96 295.156h-50.8l-38.96 42.968V246H1010v177h39.2v-31.39l12.64-13.625L1092.03 423H1140l-51.07-74.076 50.03-53.768ZM1263.33 402.611v-62.345c.02-6.369-.98-12.7-2.97-18.751a39.449 39.449 0 0 0-9.78-15.751 48.161 48.161 0 0 0-17.65-10.758 76.51 76.51 0 0 0-26.27-3.984 66.293 66.293 0 0 0-24.45 4.102 56.507 56.507 0 0 0-17.13 10.242 44.422 44.422 0 0 0-10.44 13.594 39.799 39.799 0 0 0-4.12 14.344l34 7.032a20.426 20.426 0 0 1 6.05-12.938 20.978 20.978 0 0 1 15.84-5.766c6.19 0 10.86 1.36 14.13 4.102a12.39 12.39 0 0 1 3.47 4.33 12.314 12.314 0 0 1 1.24 5.397 8.16 8.16 0 0 1-2.05 5.648 11.96 11.96 0 0 1-7.21 3.071l-30.13 4.687a61.357 61.357 0 0 0-14.82 4.219 42.601 42.601 0 0 0-11.97 7.688 33.998 33.998 0 0 0-8.1 11.391 38.66 38.66 0 0 0 0 29.72 36.327 36.327 0 0 0 8.62 12.305 41.963 41.963 0 0 0 13.9 8.578 51.658 51.658 0 0 0 18.85 3.211 45.4 45.4 0 0 0 21.89-4.875 37.058 37.058 0 0 0 14.13-13.055c-.05 3.383.13 6.765.52 10.125.19 1.419.45 2.827.78 4.219H1265c-.19-.68-.49-2.906-.92-6.656-.49-4.358-.75-8.74-.75-13.126Zm-38.08-30.329c.14 4.196-.56 8.377-2.05 12.305a21.982 21.982 0 0 1-5.27 7.805 17.741 17.741 0 0 1-7.47 4.102 32.94 32.94 0 0 1-8.65 1.172c-5.5 0-9.42-1.328-11.78-3.985a13.411 13.411 0 0 1-3.46-9.094c-.15-1.85.14-3.709.85-5.425a11.806 11.806 0 0 1 3.25-4.442 22.55 22.55 0 0 1 10.32-4.219l24.26-3.844v5.625ZM1341.12 258h-34.93v16.425a22.624 22.624 0 0 1-4.86 14.876c-3.26 3.927-8.22 5.89-14.89 5.89H1280v34.117h22.6v54.625c0 12.827 3.76 22.877 11.3 30.151 7.53 7.274 17.98 10.903 31.33 10.888 4.75.159 9.5-.355 14.1-1.525 3.24-1.033 5.31-1.713 6.15-2.065v-32.311c-1.47.402-2.97.7-4.48.892-1.92.271-3.85.404-5.78.399-3.62.175-7.2-.768-10.27-2.698-2.57-1.815-3.85-5.366-3.85-10.653v-47.703h24.9v-34.117h-24.88V258ZM981.21 244.146a23.231 23.231 0 0 0-7.092-4.513 23.095 23.095 0 0 0-17.059 0 23.277 23.277 0 0 0-7.181 4.513 21.94 21.94 0 0 0-4.947 6.812 20.72 20.72 0 0 0-1.51 12.889 20.86 20.86 0 0 0 6.457 11.289 22.473 22.473 0 0 0 7.181 4.319 24.317 24.317 0 0 0 17.059 0 22.388 22.388 0 0 0 7.092-4.319 21.276 21.276 0 0 0 6.361-11.309 21.143 21.143 0 0 0-1.414-12.869 21.909 21.909 0 0 0-4.947-6.812ZM171.098 390.29a30.34 30.34 0 0 0-9.299-6.087 29.489 29.489 0 0 0-22.366 0 30.403 30.403 0 0 0-9.415 6.087 29.552 29.552 0 0 0-6.486 9.189 28.692 28.692 0 0 0-1.981 17.384c1.166 5.862 4.131 11.194 8.467 15.228a29.341 29.341 0 0 0 9.415 5.826 31.064 31.064 0 0 0 22.366 0 29.236 29.236 0 0 0 9.299-5.826c4.264-4.082 7.178-9.413 8.339-15.254a29.267 29.267 0 0 0-1.853-17.358 29.569 29.569 0 0 0-6.486-9.189ZM225.228 375.767a43.212 43.212 0 0 0 13.891-8.83 41.777 41.777 0 0 0 9.593-13.905 41.608 41.608 0 0 0 3.286-16.545 39.643 39.643 0 0 0-3.484-16.63 43.5 43.5 0 0 0-23.286-22.532 44.086 44.086 0 0 0-33.597 0 43.873 43.873 0 0 0-23.144 22.532 39.644 39.644 0 0 0-3.485 16.63 41.157 41.157 0 0 0 3.205 16.327 41.347 41.347 0 0 0 9.415 13.748 44.172 44.172 0 0 0 13.773 9.111 42.916 42.916 0 0 0 16.858 3.326 45.21 45.21 0 0 0 16.975-3.232ZM269.92 310.647a45.389 45.389 0 0 0 15.212 9.86 52.712 52.712 0 0 0 37.737 0 44.982 44.982 0 0 0 15.252-9.782 44.732 44.732 0 0 0 10.125-14.986 48.191 48.191 0 0 0 3.75-19.251 47.681 47.681 0 0 0-3.531-18.44 47.849 47.849 0 0 0-10.384-15.671 44.439 44.439 0 0 0-15.212-9.884 52.712 52.712 0 0 0-37.737 0 43.984 43.984 0 0 0-15.212 9.884 47.585 47.585 0 0 0-10.404 15.663 47.409 47.409 0 0 0-3.511 18.448 48.162 48.162 0 0 0 3.726 19.251 46.363 46.363 0 0 0 10.189 14.908ZM1478.38 279.996c2.58.046 5.14-.438 7.52-1.425a18.994 18.994 0 0 0 6.37-4.315 19.192 19.192 0 0 0 4.31-6.46 19.565 19.565 0 0 0 1.42-7.677c.04-2.643-.45-5.268-1.43-7.715a19.662 19.662 0 0 0-4.3-6.517 18.745 18.745 0 0 0-6.34-4.422 18.461 18.461 0 0 0-7.55-1.462c-2.57-.049-5.12.449-7.49 1.462a18.525 18.525 0 0 0-6.28 4.422 19.851 19.851 0 0 0-4.22 6.537 20.215 20.215 0 0 0-1.39 7.695c-.05 2.622.41 5.227 1.38 7.658.96 2.43 2.4 4.635 4.23 6.479a18.756 18.756 0 0 0 6.31 4.321c2.36.987 4.91 1.47 7.46 1.419ZM1421.37 279.996a18.8 18.8 0 0 0 7.53-1.422 19.076 19.076 0 0 0 6.37-4.319 19.178 19.178 0 0 0 4.31-6.459 19.568 19.568 0 0 0 1.42-7.677c.04-2.644-.44-5.271-1.43-7.718a19.433 19.433 0 0 0-4.3-6.513 18.69 18.69 0 0 0-6.35-4.423 18.46 18.46 0 0 0-7.55-1.461c-2.57-.052-5.12.444-7.49 1.458a18.335 18.335 0 0 0-6.26 4.426 19.498 19.498 0 0 0-4.23 6.533 19.666 19.666 0 0 0-1.38 7.698c-.07 2.622.39 5.23 1.36 7.662a19.03 19.03 0 0 0 4.25 6.474 18.54 18.54 0 0 0 6.29 4.328c2.36.988 4.91 1.469 7.46 1.413ZM1497.39 310.179a64.67 64.67 0 0 0-21.34-14.154 72.784 72.784 0 0 0-53.15 0 64.825 64.825 0 0 0-21.36 14.154 66.527 66.527 0 0 0-14.29 21.397 69.057 69.057 0 0 0-5.24 27.341 69.853 69.853 0 0 0 5.29 27.46 64.407 64.407 0 0 0 14.22 21.466 63.87 63.87 0 0 0 21.43 14.132c17.09 6.7 36.06 6.7 53.15 0a64.112 64.112 0 0 0 21.42-14.144 64.73 64.73 0 0 0 14.23-21.454 70.393 70.393 0 0 0 5.25-27.46 69.612 69.612 0 0 0-5.25-27.341 66.455 66.455 0 0 0-14.36-21.397Zm-21.78 62.916a30.228 30.228 0 0 1-6.38 9.932 25.398 25.398 0 0 1-9.06 5.945 30.248 30.248 0 0 1-21.27 0 24.936 24.936 0 0 1-9.18-5.945 29.948 29.948 0 0 1-6.37-10.05 41.77 41.77 0 0 1 0-28.12c1.42-3.718 3.59-7.1 6.37-9.931a25.791 25.791 0 0 1 9.18-5.804 30.56 30.56 0 0 1 21.27 0c3.4 1.291 6.5 3.275 9.11 5.827a28.877 28.877 0 0 1 6.37 9.932 37.732 37.732 0 0 1 2.35 14.154c.13 4.794-.66 9.569-2.32 14.06h-.07ZM1608.96 294.002c-2.89.034-5.77.341-8.61.916a42.185 42.185 0 0 0-9.4 2.939 33.126 33.126 0 0 0-8.61 5.664 28.325 28.325 0 0 0-6.56 9.003v-17.23H1538V423h39.08v-55.755a46.858 46.858 0 0 1 2.35-16.195 29.282 29.282 0 0 1 6.54-10.789 24.22 24.22 0 0 1 9.4-5.9 35.51 35.51 0 0 1 11.31-1.81c1.88 0 3.86 0 5.9.258 2.16.184 4.31.529 6.42 1.035v-38.55a36.95 36.95 0 0 0-10.04-1.292Z" fill="#011E41"/></svg>