<svg fill="none" xmlns="http://www.w3.org/2000/svg" viewBox="0 0 947 239">
  <path
    d="M.63 52.01C30.75 34.67 60.79 17.19 90.99 0c11.57 6.79 23.22 13.46 34.85 20.16C95.81 37.5 65.7 54.7 35.8 72.25c.06 34.65.05 69.29 0 103.93-11.72-6.76-23.45-13.51-35.15-20.3C.61 121.26.64 86.63.63 52.01ZM261.631 73.16h34.37v12.83c-7 0-14 0-21 .01-.01 4.05 0 8.1 0 12.16h21V111c-7-.01-14-.01-21-.01-.01 10.34.01 20.67-.01 31.01-4.45-.01-8.9 0-13.35-.01-.03-22.94 0-45.88-.01-68.83ZM306.36 73.17c4.49-.02 8.98-.01 13.48-.01-.01 22.95 0 45.89-.01 68.83-4.49.01-8.97.01-13.46-.01-.02-22.94.01-45.87-.01-68.81ZM334.16 73.16c4.29 0 8.58-.01 12.87.01 9.61 14.81 19.38 29.52 28.97 44.35V73.16h13.37c-.01 22.95.02 45.89-.01 68.83-4.28 0-8.55.02-12.82-.02-9.58-14.82-19.36-29.52-28.95-44.34.09 14.78.03 29.57.04 44.35-4.49.02-8.98.02-13.46.01-.01-22.94 0-45.88-.01-68.83ZM425.43 73.18c4.55-.04 9.11-.01 13.67-.03 8.84 22.93 17.72 45.84 26.44 68.82-4.68.05-9.37.01-14.05.03-1.77-4.74-3.57-9.48-5.38-14.21-9.22 0-18.45.02-27.67-.01-1.88 4.75-3.58 9.58-5.61 14.26-4.66-.1-9.31-.01-13.96-.07 8.78-22.95 17.81-45.82 26.56-68.79Zm6.87 18.91c-2.92 7.59-5.94 15.13-8.91 22.7 5.95 0 11.9-.01 17.85 0-3.05-7.54-5.95-15.14-8.94-22.7ZM475.16 73.17c4.4-.01 8.81-.01 13.21-.01-.01 18.67.01 37.33 0 55.99 6.42.02 12.84 0 19.27.02-.01 4.27 0 8.54-.01 12.81-10.82.03-21.64.01-32.46.01-.01-22.94 0-45.88-.01-68.82Z"
    fill="#fff"
  />
  <path
    d="M73.51 94.03c29.9-17.42 59.92-34.6 89.82-52.01 5.89 3.11 11.54 6.65 17.36 9.88.05 34.69.04 69.38.01 104.07-24.12 13.95-48.27 27.84-72.41 41.75-.06 6.83-.01 13.67-.03 20.51-11.57 6.7-23.14 13.4-34.77 20.01.03-26.86.03-53.71 0-80.56 5.77 3.33 11.55 6.65 17.31 10.01 18.43-10.55 36.75-21.28 55.16-31.86.09-14.52.02-29.04.04-43.56-24.22 13.88-48.3 27.98-72.51 41.85.04-13.36-.01-26.73.02-40.09ZM662.31 71.54c15.84-1.96 31.67 8.51 36.92 23.39 2.93 8.38 2.81 17.84-.26 26.18-4.17 10.6-13.69 19.08-24.86 21.57-8.49 1.77-17.7.93-25.4-3.19-8.97-4.96-15.75-13.83-17.94-23.87-1.76-8.7-.78-18.11 3.65-25.9 5.57-10.14 16.36-17.21 27.89-18.18Zm-1.79 13.42c-4.78 1.01-9.06 3.84-12.12 7.61-5.37 6.53-6.34 15.99-3.57 23.82 3.69 10.23 15.63 16.41 26.14 13.74 8.67-2.12 15.57-9.94 16.69-18.79 1.23-7.54-1.31-15.69-7-20.88-5.18-5.18-13.06-7.17-20.14-5.5ZM842.99 88.2c6.73-10.7 19.44-17.14 32.01-16.79 11.3-.05 22.24 5.31 29.64 13.76-3.12 3.07-6.29 6.09-9.54 9.01-5.9-6.87-15.17-11.11-24.28-9.73-6.86.81-13.01 5.14-16.56 10.98-4.37 7.33-4.18 17.04.08 24.37 5.04 8.64 16.03 12.53 25.59 10.36 6.11-1.12 10.98-5.26 15.41-9.35 2.98 3.16 5.94 6.33 9.01 9.41-5.68 5.63-12.39 10.7-20.39 12.32-10.02 2.1-21.09 1.15-29.91-4.36-7.44-4.68-13.1-12.23-15.07-20.84-2.16-9.74-1.36-20.54 4.01-29.14ZM524.51 73.16c8.16.19 16.38-.48 24.51.54 5.58.6 11.14 3.49 13.86 8.57 4.74 8.49 3.44 21.08-5.17 26.65-5.78 4.22-13.22 3.65-19.98 4.01-.02 9.66-.02 19.31 0 28.96-4.41-.02-8.82-.01-13.23 0 .02-22.91-.01-45.82.01-68.73Zm13.22 12.68c-.02 4.69-.02 9.37-.01 14.05 3.94-.14 8.18.56 11.88-1.16 4.35-2.38 4.11-9.83-.62-11.65-3.59-1.28-7.5-1.02-11.25-1.24ZM579.001 73.16c8.97.25 18.05-.72 26.92.98 6.69 1.21 12.02 6.89 13.38 13.47 1.25 5.94.69 12.72-3.19 17.63-2.28 2.95-5.66 4.7-8.99 6.18 5.26 10.2 10.81 20.26 16.07 30.46-4.87 0-9.73.01-14.6-.02-4.59-8.81-9.34-17.54-13.93-26.36-.57-1.15-1.4-2.13-2.26-3.06-.3 9.81-.05 19.63-.14 29.44h-13.25c-.02-22.91-.01-45.81-.01-68.72Zm13.26 26.74c4.24-.08 8.88.47 12.71-1.77 3.32-3.01 2.61-9.46-1.73-11.18-3.51-1.17-7.31-.81-10.95-1.14-.05 4.7-.02 9.4-.03 14.09ZM713.51 73.16c10.69.28 21.58-.92 32.09 1.55 6.23 1.38 11.78 5.26 15.45 10.46 7.09 9.52 8.4 22.35 5.78 33.68-2.52 10.69-11.05 20.53-22.29 22.1-10.28 1.38-20.7.79-31.04.94.01-22.91 0-45.82.01-68.73Zm13.22 12.73c-.02 14.33-.01 28.67-.01 43 6.09-.07 12.45.49 18.25-1.78 5.75-2.59 8.76-8.96 9.48-14.95.93-7.66-.58-16.47-6.79-21.66-5.88-4.64-13.81-4.74-20.93-4.61ZM779.74 73.17c4.41-.02 8.83-.01 13.26-.01.02 14.67-.03 29.33.02 43.99.2 3.16-.01 6.58 1.59 9.44 3.74 5.87 13.82 5.4 17.15-.69 1.15-2.38 1.1-5.13 1.24-7.72 0-15-.01-30.01 0-45.02 4.42 0 8.84-.01 13.26.01.02 14.31-.01 28.63.02 42.94.01 6.24.03 13.13-4.03 18.28-8.45 12.32-28.96 12.14-38.01.64-4.14-5.35-4.18-12.44-4.5-18.87-.02-14.33 0-28.66 0-42.99ZM909.001 73.16h38v13c-4.18 0-8.35-.01-12.51.02.02 18.57 0 37.14.01 55.71-4.51-.01-9-.01-13.49-.01-.02-18.57 0-37.15-.01-55.72h-12c-.01-4.33-.01-8.67 0-13Z"
    fill="#FBAF17"
  />
</svg>
