<?xml version="1.0" standalone="no"?>
<!DOCTYPE svg PUBLIC "-//W3C//DTD SVG 20010904//EN"
 "http://www.w3.org/TR/2001/REC-SVG-20010904/DTD/svg10.dtd">
<svg version="1.0" xmlns="http://www.w3.org/2000/svg"
 width="1500.000000pt" height="1500.000000pt" viewBox="0 0 1500.000000 1500.000000"
 preserveAspectRatio="xMidYMid meet">
<metadata>
Created by potrace 1.16, written by Peter Selinger 2001-2019
</metadata>
<g transform="translate(0.000000,1500.000000) scale(0.100000,-0.100000)"
fill="#000000" stroke="none">
<path d="M3955 8387 c-126 -74 -299 -173 -382 -221 l-153 -88 0 -446 0 -447
133 -77 c72 -42 140 -80 149 -83 17 -7 18 20 20 440 l3 446 370 214 c204 118
376 218 383 222 8 5 -36 36 -131 91 -79 45 -148 82 -153 82 -5 0 -112 -60
-239 -133z"/>
<path d="M5670 7600 l0 -300 55 0 55 0 0 135 0 135 90 0 90 0 0 55 0 55 -90 0
-90 0 0 55 0 55 90 0 90 0 0 55 0 55 -145 0 -145 0 0 -300z"/>
<path d="M6060 7601 l0 -301 55 0 55 0 -2 298 -3 297 -52 3 -53 3 0 -300z"/>
<path d="M6297 7893 c-4 -3 -7 -138 -7 -300 l0 -293 55 0 55 0 0 190 c0 105 3
190 8 190 4 0 63 -86 130 -190 l124 -190 54 0 54 0 -2 298 -3 297 -52 3 -53 3
0 -190 c0 -105 -4 -191 -8 -191 -4 0 -63 86 -131 190 l-123 190 -47 0 c-26 0
-51 -3 -54 -7z"/>
<path d="M6976 7612 c-60 -158 -111 -293 -114 -300 -3 -10 9 -12 54 -10 l58 3
21 55 21 55 124 3 125 3 21 -58 20 -58 58 -3 c45 -2 57 0 54 10 -3 7 -54 142
-113 301 l-109 287 -55 0 -56 0 -109 -288z m208 19 c20 -51 36 -95 36 -97 0
-2 -36 -4 -80 -4 l-79 0 25 66 c37 100 54 138 58 133 2 -2 20 -46 40 -98z"/>
<path d="M7517 7893 c-4 -3 -7 -138 -7 -300 l0 -293 140 0 140 0 0 55 0 55
-85 0 -85 0 0 245 0 245 -48 0 c-27 0 -52 -3 -55 -7z"/>
</g>
</svg>
