<svg fill="none" xmlns="http://www.w3.org/2000/svg" viewBox="0 0 578 160"><path d="M4.507 18.693c6.16-5.893 11.746-12.36 17.96-18.2 25.613 26.974 51.973 53.24 77.626 80.174-5.426 6.32-11.933 11.64-17.133 18.16C56.427 72.52 30.813 45.24 4.507 18.693ZM.36 75.547c5.613-6.4 11.973-12.067 17.627-18.414 17.266 18.16 35.04 35.84 52.28 54.027-5.587 6.267-11.774 11.96-17.467 18.133C35.213 111.48 17.92 93.387.36 75.547ZM18.32 119.493c7.173 7.36 14.467 14.614 21.44 22.187-5.533 6.307-11.853 11.867-17.4 18.16-7.333-7.213-14.293-14.787-21.6-22.027 5.56-6.373 11.88-12.04 17.56-18.32Z" fill="#5EB7E7"/><path d="M157.013 27.666c5.974-7.12 15.24-10.613 24.36-10.96-.026 4.427-.04 8.84-.053 13.267-4.613.627-9.387 1.76-12.96 4.92-5.867 4.974-7.72 13.053-7.8 20.427 3.36.013 6.733.013 10.107.026v13.32h-10c-.014 21.667.013 43.334-.014 65.001-4.333 0-8.653 0-12.986-.014 0-21.653.013-43.32 0-64.973-3.774-.014-7.56-.014-11.334-.027V55.346c3.747-.013 7.494-.013 11.24-.013-.053-9.92 2.72-20.173 9.44-27.666ZM193.24 26.787c4.293-2.334 10.293.96 10.467 5.88.746 4.733-3.654 9.44-8.494 8.373-6.986-.667-8.4-11.56-1.973-14.253ZM190 55.333c4.333-.013 8.667 0 13 .014-.013 26.106 0 52.213 0 78.306-4.333.013-8.667.013-12.987.013-.026-26.106-.013-52.213-.013-78.333ZM223.667 55.346c4.333-.013 8.666-.026 13-.013 0 2.24-.014 4.467-.014 6.707 12.36-10.587 33.734-8.774 43.68 4.32 6.2 7.733 8.414 17.946 8.347 27.68-.04 13.213.013 26.413-.027 39.626-4.333 0-8.653 0-12.986-.013-.014-14.12.026-28.253 0-42.373-.2-8.174-3.414-17.467-11.334-21.147-7.213-3-16.76-1.907-21.92 4.387-4.693 5.8-5.693 13.56-5.76 20.786 0 12.787.04 25.574 0 38.36-4.333 0-8.653 0-12.986-.013 0-26.093.013-52.2 0-78.307ZM325.133 57.36c11.947-4 26.814-2.934 35.907 6.64-.04-2.88-.04-5.773-.053-8.654 4.333-.013 8.666-.026 13.013-.013 0 26.12.013 52.227-.013 78.333-4.334 0-8.667 0-12.987-.013 0-2.88 0-5.773.053-8.667-5.64 5.787-13.613 9.054-21.706 8.734-10.467.573-21.52-3.32-28.147-11.694-8.36-10.373-9.813-24.666-7.747-37.44 1.88-11.96 9.894-23.373 21.68-27.226Zm5.454 12.227c-6.374 1.68-11.334 6.973-13.254 13.2-2.293 7.466-2.293 15.666-.106 23.159 1.746 6.2 6.64 11.494 12.84 13.374 9.64 2.84 22.106.813 27.293-8.72 5.04-9.787 5.013-22.28.053-32.08-5.04-9.427-17.28-11.614-26.826-8.933ZM392.333 55.346a710.81 710.81 0 0 1 13.067.027c-.067 2.174-.12 4.347-.187 6.507 12.627-10.454 34.12-8.547 43.947 4.88 5.907 7.813 7.933 17.786 8.08 27.4.24 13.16.013 26.32.107 39.48-4.334.027-8.667.04-13 .013-.04-12.8 0-25.586-.014-38.386-.093-6.56-.88-13.454-4.533-19.08-6.413-10.294-23.827-10.24-30.213.066-3.08 4.84-4.294 10.694-4.267 16.373.027 13.681.027 27.361 0 41.041h-12.973c-.027-26.107-.014-52.214-.014-78.32ZM488.747 59.493c16.48-8.92 40.56-4.093 49.253 13.494-3.907 1.933-7.853 3.8-11.8 5.653-6.013-10.6-20.693-12.493-30.96-7.533-7.507 3.72-10.627 12.44-11.053 20.32-.667 9.493 1.4 20.893 10.293 26.106 10.36 5.454 25.747 3.707 31.773-7.333 3.96 1.867 7.92 3.72 11.854 5.627-5.6 11.373-18.134 18.4-30.72 17.893-10.16.573-20.694-3.347-27.28-11.267-8.187-9.626-10.067-23.106-8.534-35.293 1.174-11.133 7.12-22.227 17.174-27.667ZM543 55.346c4.333-.026 8.68-.026 13.013.014 0 3-.026 6.013-.066 9.026 5.4-5.88 13.146-8.92 21.04-9.173.013 4.413.013 8.84.026 13.253-4.28.747-8.786 1.52-12.226 4.36-6.52 4.84-8.614 13.374-8.76 21.107-.067 13.227-.014 26.467-.014 39.707-4.333.026-8.666.04-13 .026-.026-26.106-.013-52.213-.013-78.32Z" fill="#0B1839"/></svg>