<svg fill="none" xmlns="http://www.w3.org/2000/svg" viewBox="0 0 568 138">
  <path
    d="M61.065 16.226H.866v81.036H14.99V64.268h40.865v-12.85H14.99V29.076h46.075v-12.85Zm127.427 56.03-43.316-56.03h-13.178v81.036h14.124V39.61l44.589 57.652h11.904V16.226h-14.123v56.03Zm116.445 13.776V51.997H270.44v12.387h20.722v15.243c-2.47 1.87-5.383 3.357-8.74 4.495-3.358 1.12-6.966 1.679-10.825 1.679-4.167 0-7.93-.734-11.287-2.2-3.357-1.466-6.251-3.511-8.682-6.097-2.431-2.585-4.303-5.653-5.615-9.222-1.312-3.55-1.968-7.43-1.968-11.596 0-3.936.675-7.66 2.026-11.133 1.35-3.493 3.203-6.54 5.557-9.165a25.92 25.92 0 0 1 8.335-6.213c3.203-1.505 6.656-2.257 10.361-2.257 2.547 0 4.882.212 7.004.637 2.122.424 4.071 1.003 5.846 1.736a29.364 29.364 0 0 1 5.094 2.72 51.046 51.046 0 0 1 4.746 3.59l9.03-10.767a51.325 51.325 0 0 0-6.425-4.69 40.608 40.608 0 0 0-7.004-3.414c-2.47-.926-5.151-1.64-8.046-2.141-2.894-.502-6.116-.753-9.666-.753-6.097 0-11.712 1.12-16.844 3.357-5.133 2.239-9.55 5.268-13.255 9.088-3.705 3.82-6.58 8.277-8.625 13.37-2.045 5.095-3.068 10.497-3.068 16.208 0 5.943 1.004 11.46 3.01 16.555 2.007 5.094 4.843 9.512 8.509 13.255 3.666 3.743 8.084 6.676 13.255 8.798 5.171 2.123 10.92 3.184 17.25 3.184 3.55 0 6.945-.328 10.187-.984 3.241-.656 6.27-1.563 9.087-2.72a50.356 50.356 0 0 0 7.873-4.053 60.388 60.388 0 0 0 6.656-4.862h-.001Zm69.676-70.385h-13.197l-35.657 81.615h14.587l8.335-19.565H387l8.22 19.565h15.049l-35.656-81.615Zm7.177 49.432h-27.9l13.892-32.415 14.008 32.415Zm75.464-35.656h25.7V16.226H417.2v13.197h25.7v67.839h14.355l-.001-67.84Zm109.962-13.197H507.25v81.036h60.545v-12.85h-46.422v-21.65h40.634v-12.85h-40.634V29.077h45.843v-12.85Z"
    fill="#7F7F7F"
  />
  <path
    fill-rule="evenodd"
    clip-rule="evenodd"
    d="m107.044 6.294 4.487 2.094c-16.709 36.65-57.406 63.105-95.364 81.259C55.883 73.053 98.88 47.976 117.019 10.995l3.741 2.02L118.785.751l-11.741 5.543ZM55.865 97.262V72.327a296.008 296.008 0 0 1-14.123 7.64v17.295h14.123Z"
    fill="#F60"
  />
  <path
    fill-rule="evenodd"
    clip-rule="evenodd"
    d="M64.303 67.237v30.025h14.124V57.566a217.424 217.424 0 0 1-14.124 9.67Z"
    fill="#F60"
  />
  <path
    fill-rule="evenodd"
    clip-rule="evenodd"
    d="M86.865 50.881v46.38h14.123v-59.87c-4.349 4.76-9.09 9.251-14.123 13.49Zm0-10.893c5.227-5.326 9.992-10.97 14.123-16.947v-6.815H86.865v23.762Z"
    fill="#7F7F7F"
  />
  <path
    d="M6.174 118.227c0-.83.356-1.536 1.068-2.118.712-.581 1.71-.872 2.99-.872 1.14 0 2.267.22 3.382.659 1.116.44 2.243 1.074 3.382 1.904l2.35-3.31a14.659 14.659 0 0 0-4.112-2.332c-1.46-.534-3.103-.801-4.93-.801-1.234 0-2.373.172-3.412.516-1.044.344-1.934.837-2.676 1.477a7.01 7.01 0 0 0-1.75 2.296c-.42.89-.635 1.882-.635 2.973 0 1.163.184 2.148.552 2.955a5.677 5.677 0 0 0 1.608 2.065c.7.57 1.572 1.044 2.604 1.424 1.04.38 2.22.724 3.554 1.032 1.164.285 2.107.558 2.837.819.724.261 1.293.54 1.714.837.416.296.7.622.855.979.154.356.231.759.231 1.21 0 .973-.398 1.744-1.192 2.314-.796.57-1.87.855-3.222.855-1.567 0-2.967-.28-4.2-.837-1.235-.558-2.458-1.36-3.668-2.403L.87 133.002c1.495 1.352 3.121 2.355 4.877 3.007 1.757.654 3.596.98 5.518.98 1.305 0 2.504-.167 3.596-.499 1.085-.332 2.023-.818 2.794-1.459a6.75 6.75 0 0 0 1.821-2.35c.434-.926.653-1.981.653-3.169 0-1.044-.172-1.951-.516-2.723a5.856 5.856 0 0 0-1.519-2.029c-.664-.581-1.507-1.074-2.515-1.477-1.009-.404-2.172-.772-3.477-1.104-.995-.23-1.979-.503-2.95-.818-.77-.262-1.376-.546-1.82-.855-.44-.308-.742-.64-.908-.997-.167-.356-.25-.783-.25-1.282Zm56.927 5.91c0-1.756-.32-3.418-.962-4.984a12.594 12.594 0 0 0-2.67-4.094c-1.139-1.163-2.504-2.082-4.094-2.758-1.59-.677-3.346-1.015-5.269-1.015-1.922 0-3.678.344-5.268 1.032-1.59.689-2.967 1.62-4.13 2.794a12.522 12.522 0 0 0-2.705 4.112 13.035 13.035 0 0 0-.962 4.985c0 1.756.32 3.417.962 4.983a12.594 12.594 0 0 0 2.67 4.094c1.14 1.164 2.504 2.083 4.094 2.76 1.59.676 3.346 1.014 5.268 1.014 1.923 0 3.68-.344 5.27-1.032 1.59-.689 2.966-1.62 4.13-2.795a12.525 12.525 0 0 0 2.704-4.112c.644-1.582.971-3.276.962-4.984Zm-4.593.072c0 1.21-.208 2.355-.623 3.435a8.689 8.689 0 0 1-1.726 2.812 8.058 8.058 0 0 1-2.652 1.887c-1.033.463-2.166.694-3.4.694s-2.374-.237-3.418-.712a8.304 8.304 0 0 1-2.688-1.922 8.728 8.728 0 0 1-1.744-2.83 9.488 9.488 0 0 1-.623-3.436c0-1.21.208-2.355.623-3.435a8.67 8.67 0 0 1 1.727-2.812 8.05 8.05 0 0 1 2.651-1.887c1.033-.463 2.166-.695 3.4-.695s2.374.238 3.418.713a8.306 8.306 0 0 1 2.688 1.922 8.714 8.714 0 0 1 1.744 2.83 9.494 9.494 0 0 1 .623 3.436Zm22.75 12.424h17.444v-3.952h-13.1v-20.968H81.26v24.92Zm55.11-24.92h-4.342v14.347c0 2.302-.564 4.034-1.686 5.197-1.121 1.163-2.657 1.745-4.615 1.745-1.982 0-3.53-.606-4.652-1.816-1.122-1.21-1.685-2.978-1.685-5.304v-14.169h-4.344v14.347c0 1.803.25 3.388.748 4.752.498 1.365 1.21 2.51 2.136 3.435.926.926 2.041 1.62 3.347 2.083 1.305.463 2.764.694 4.379.694 1.637 0 3.114-.231 4.431-.694 1.318-.463 2.44-1.163 3.365-2.1.925-.938 1.643-2.107 2.153-3.507s.765-3.026.765-4.877v-14.133Zm29.408 4.058h7.903v-4.058h-20.22v4.058h7.903v20.862h4.414v-20.862Zm25.634-4.058v24.92h4.343v-24.92h-4.343Zm48.845 12.424c0-1.756-.32-3.418-.961-4.984a12.586 12.586 0 0 0-2.67-4.094c-1.14-1.163-2.504-2.082-4.094-2.758-1.59-.677-3.346-1.015-5.269-1.015-1.922 0-3.678.344-5.269 1.032-1.59.689-2.966 1.62-4.13 2.794a12.522 12.522 0 0 0-2.705 4.112 13.043 13.043 0 0 0-.961 4.985c0 1.756.32 3.417.961 4.983a12.586 12.586 0 0 0 2.67 4.094c1.14 1.164 2.504 2.083 4.094 2.76 1.59.676 3.346 1.014 5.269 1.014 1.922 0 3.678-.344 5.269-1.032 1.59-.689 2.966-1.62 4.13-2.795a12.522 12.522 0 0 0 2.705-4.112c.644-1.582.97-3.276.961-4.984Zm-4.593.072c0 1.21-.207 2.355-.622 3.435a8.7 8.7 0 0 1-1.727 2.812 8.062 8.062 0 0 1-2.652 1.887c-1.033.463-2.166.694-3.4.694s-2.373-.237-3.417-.712a8.301 8.301 0 0 1-2.688-1.922 8.726 8.726 0 0 1-1.744-2.83 9.492 9.492 0 0 1-.623-3.436c0-1.21.207-2.355.623-3.435a8.67 8.67 0 0 1 1.726-2.812 8.052 8.052 0 0 1 2.652-1.887c1.033-.463 2.165-.695 3.4-.695 1.234 0 2.373.238 3.417.713a8.301 8.301 0 0 1 2.688 1.922 8.718 8.718 0 0 1 1.745 2.83 9.49 9.49 0 0 1 .622 3.436Zm40.124 4.734-13.32-17.23h-4.053v24.92h4.343v-17.729l13.712 17.729h3.66v-24.92h-4.342v17.23Zm27.272-10.716c0-.83.356-1.536 1.067-2.118.713-.581 1.71-.872 2.99-.872 1.14 0 2.267.22 3.383.659 1.115.44 2.243 1.074 3.382 1.904l2.35-3.31a14.667 14.667 0 0 0-4.113-2.332c-1.46-.534-3.103-.801-4.93-.801-1.234 0-2.373.172-3.412.516-1.044.344-1.934.837-2.676 1.477a7.016 7.016 0 0 0-1.75 2.296c-.421.89-.635 1.882-.635 2.973 0 1.163.184 2.148.552 2.955a5.677 5.677 0 0 0 1.608 2.065c.7.57 1.572 1.044 2.604 1.424 1.04.38 2.22.724 3.555 1.032 1.163.285 2.106.558 2.836.819.724.261 1.293.54 1.715.837.415.296.7.622.854.979.154.356.232.759.232 1.21 0 .973-.399 1.744-1.193 2.314-.795.57-1.869.855-3.222.855-1.566 0-2.966-.28-4.2-.837-1.235-.558-2.457-1.36-3.667-2.403l-2.635 3.133c1.495 1.352 3.121 2.355 4.877 3.007 1.757.654 3.596.98 5.519.98 1.304 0 2.503-.167 3.595-.499 1.086-.332 2.023-.818 2.794-1.459a6.753 6.753 0 0 0 1.822-2.35c.433-.926.653-1.981.653-3.169 0-1.044-.173-1.951-.517-2.723a5.854 5.854 0 0 0-1.518-2.029c-.665-.581-1.508-1.074-2.516-1.477-1.009-.404-2.172-.772-3.477-1.104a35.004 35.004 0 0 1-2.95-.818c-.77-.262-1.376-.546-1.82-.855-.44-.308-.742-.64-.908-.997-.167-.356-.25-.783-.25-1.282h.001Zm42.65 18.406h17.444v-3.952h-13.1v-20.968h-4.344v24.92Zm35.139-24.92v24.92h4.343v-24.92h-4.343Zm44.039 7.048v17.872h4.343v-24.92h-4.664l-7.582 11.783-7.583-11.783h-4.663v24.92h4.342v-17.8l7.797 11.676h.143l7.867-11.748Zm23.854-7.048v24.92h4.343v-24.92h-4.343Zm34.427 4.058h7.903v-4.058h-20.22v4.058h7.902v20.862h4.415v-20.862Zm43.825-4.058h-18.44v24.92h18.618v-3.952h-14.276v-6.657h12.496v-3.952h-12.496v-6.407h14.098v-3.952Zm40.8 12.424c0-1.756-.321-3.394-.962-4.913a11.602 11.602 0 0 0-2.723-3.951c-1.175-1.116-2.575-1.987-4.2-2.617-1.626-.629-3.412-.943-5.358-.943h-9.292v24.92h9.292c1.946 0 3.732-.32 5.357-.961 1.626-.641 3.026-1.52 4.201-2.635a11.574 11.574 0 0 0 2.723-3.97c.641-1.53.962-3.174.962-4.93Zm-4.593.072c0 1.24-.208 2.379-.623 3.411a7.902 7.902 0 0 1-1.75 2.682c-.748.754-1.661 1.335-2.73 1.756-1.073.416-2.26.623-3.571.623H549.6v-17.016h4.925c1.311 0 2.498.213 3.572.64 1.068.434 1.981 1.027 2.729 1.792a8.102 8.102 0 0 1 1.75 2.7c.415 1.032.623 2.171.623 3.412"
    fill="#F60"
  />
</svg>
