<svg fill="none" xmlns="http://www.w3.org/2000/svg" viewBox="0 0 568 98">
  <path
    d="M61.065 15.475H.866v81.036H14.99V63.517h40.865v-12.85H14.99V28.325h46.075v-12.85Zm127.427 56.03-43.316-56.03h-13.178v81.036h14.124V38.859l44.589 57.652h11.904V15.475h-14.123v56.03Zm116.445 13.776V51.246H270.44v12.387h20.722v15.243c-2.47 1.871-5.383 3.357-8.74 4.495-3.358 1.12-6.966 1.679-10.825 1.679-4.167 0-7.93-.734-11.287-2.2-3.357-1.466-6.251-3.511-8.682-6.097-2.431-2.585-4.303-5.653-5.615-9.222-1.312-3.55-1.968-7.429-1.968-11.596 0-3.936.675-7.66 2.026-11.133 1.35-3.493 3.203-6.54 5.557-9.165a25.917 25.917 0 0 1 8.335-6.213c3.203-1.505 6.656-2.257 10.361-2.257 2.547 0 4.882.212 7.004.637 2.122.424 4.071 1.003 5.846 1.736a29.357 29.357 0 0 1 5.094 2.72 51.046 51.046 0 0 1 4.746 3.59l9.03-10.767a51.305 51.305 0 0 0-6.425-4.689 40.593 40.593 0 0 0-7.004-3.415c-2.47-.926-5.151-1.64-8.046-2.141-2.894-.502-6.116-.753-9.666-.753-6.097 0-11.712 1.12-16.844 3.357-5.133 2.239-9.55 5.268-13.255 9.088-3.705 3.82-6.58 8.277-8.625 13.371-2.045 5.094-3.068 10.496-3.068 16.207 0 5.943 1.004 11.461 3.01 16.555 2.007 5.094 4.843 9.512 8.509 13.255 3.666 3.743 8.084 6.676 13.255 8.798 5.171 2.123 10.92 3.184 17.25 3.184 3.55 0 6.945-.328 10.187-.984 3.241-.656 6.27-1.563 9.087-2.72a50.373 50.373 0 0 0 7.873-4.053 60.401 60.401 0 0 0 6.656-4.862h-.001Zm69.676-70.385h-13.197l-35.657 81.615h14.587l8.335-19.565H387l8.22 19.565h15.049l-35.656-81.615Zm7.177 49.432h-27.9l13.892-32.415 14.008 32.415Zm75.464-35.656h25.7V15.475H417.2v13.197h25.7v67.839h14.355l-.001-67.839Zm109.962-13.197H507.25v81.036h60.545v-12.85h-46.422V62.012h40.634v-12.85h-40.634V28.325h45.843v-12.85Z"
    fill="#fff"
  />
  <path
    fill-rule="evenodd"
    clip-rule="evenodd"
    d="m107.044 5.543 4.487 2.094c-16.709 36.65-57.406 63.105-95.364 81.259C55.883 72.302 98.88 47.225 117.019 10.244l3.741 2.02L118.785 0l-11.741 5.543ZM55.865 96.511V71.576a296.008 296.008 0 0 1-14.123 7.64v17.295h14.123Z"
    fill="#fff"
  />
  <path
    fill-rule="evenodd"
    clip-rule="evenodd"
    d="M64.303 66.486V96.51h14.124V56.815a217.424 217.424 0 0 1-14.124 9.67ZM86.865 50.13v46.38h14.123V36.64c-4.349 4.76-9.09 9.251-14.123 13.49Zm0-10.893c5.227-5.326 9.992-10.97 14.123-16.947v-6.815H86.865v23.762Z"
    fill="#fff"
  />
</svg>
