<?xml version="1.0" standalone="no"?>
<!DOCTYPE svg PUBLIC "-//W3C//DTD SVG 20010904//EN"
 "http://www.w3.org/TR/2001/REC-SVG-20010904/DTD/svg10.dtd">
<svg version="1.0" xmlns="http://www.w3.org/2000/svg"
 width="2362.000000pt" height="568.000000pt" viewBox="0 0 2362.000000 568.000000"
 preserveAspectRatio="xMidYMid meet">

<g transform="translate(0.000000,568.000000) scale(0.100000,-0.100000)"
fill="#000000" stroke="none">
<path d="M4673 5562 c-123 -59 -223 -109 -223 -113 0 -3 36 -23 80 -43 44 -21
80 -44 80 -51 0 -43 -225 -442 -358 -635 -304 -441 -740 -900 -1232 -1296
-520 -419 -1199 -852 -1905 -1216 -104 -54 -187 -98 -184 -98 15 0 386 172
634 296 1360 675 2348 1449 2952 2314 95 137 214 332 273 450 23 47 43 86 45
88 1 1 37 -16 79 -39 74 -40 77 -40 72 -18 -3 13 -19 112 -36 219 -38 239 -40
250 -48 249 -4 0 -107 -49 -229 -107z"/>
<path d="M3085 3199 c-77 -55 -206 -143 -287 -196 l-148 -96 0 -624 0 -623
290 0 290 0 0 820 c0 451 -1 820 -2 820 -2 0 -66 -45 -143 -101z"/>
<path d="M2159 2617 c-69 -40 -199 -110 -287 -157 l-162 -84 0 -358 0 -358
290 0 290 0 0 515 c0 283 -1 515 -2 514 -2 0 -60 -33 -129 -72z"/>
<path d="M312 1059 c-162 -28 -263 -142 -263 -294 0 -143 72 -225 246 -276
291 -86 305 -93 325 -154 29 -88 -35 -162 -149 -172 -109 -10 -210 20 -312 92
l-47 33 -29 -31 c-15 -18 -39 -44 -52 -59 l-23 -27 28 -25 c37 -32 143 -88
214 -112 42 -15 84 -19 180 -19 117 0 129 2 187 29 141 65 210 207 170 347
-34 113 -107 163 -337 229 -202 57 -230 77 -230 163 0 83 60 127 173 127 79 0
145 -19 219 -64 64 -38 58 -41 117 46 l31 47 -32 24 c-106 80 -281 120 -416
96z"/>
<path d="M1960 1063 c-215 -36 -390 -204 -435 -418 -18 -88 -18 -132 0 -220
22 -105 68 -190 144 -265 232 -230 628 -198 817 65 255 358 -3 852 -441 843
-33 0 -71 -3 -85 -5z m232 -181 c65 -28 143 -104 172 -167 96 -201 18 -435
-172 -523 -64 -29 -176 -35 -249 -14 -225 66 -321 373 -182 581 44 66 96 106
172 133 69 25 192 20 259 -10z"/>
<path d="M9325 1060 c-130 -28 -248 -102 -326 -207 -56 -73 -86 -150 -102
-254 -37 -259 142 -517 403 -579 75 -18 205 -16 276 5 135 39 258 133 322 246
38 67 72 192 72 263 -1 129 -60 281 -146 370 -57 60 -135 110 -215 136 -71 24
-218 35 -284 20z m258 -184 c273 -133 269 -558 -7 -682 -81 -37 -192 -39 -279
-5 -112 44 -198 158 -215 287 -26 198 69 363 243 421 67 22 192 12 258 -21z"/>
<path d="M12681 1059 c-110 -19 -208 -92 -248 -186 -20 -49 -21 -166 -1 -214
41 -95 108 -136 328 -199 202 -57 232 -79 232 -165 0 -93 -58 -130 -202 -130
-82 1 -103 4 -154 28 -32 15 -81 43 -108 63 -28 19 -51 34 -52 32 -1 -2 -24
-29 -51 -61 l-49 -58 30 -25 c45 -37 182 -102 254 -120 99 -25 246 -16 326 20
114 51 177 146 178 266 1 84 -16 129 -66 180 -50 52 -126 87 -292 134 -186 53
-216 74 -216 159 0 83 60 127 173 127 79 0 145 -19 219 -64 l58 -34 44 61 c40
56 43 64 30 78 -31 34 -159 90 -239 104 -90 16 -117 17 -194 4z"/>
<path d="M3350 535 l0 -515 360 0 360 0 0 80 0 80 -270 0 -270 0 0 435 0 435
-90 0 -90 0 0 -515z"/>
<path d="M4760 728 c0 -351 7 -417 55 -515 34 -67 119 -145 193 -174 49 -20
75 -23 192 -23 119 0 142 3 195 23 84 34 174 124 204 206 37 99 41 145 41 481
l0 324 -84 0 -85 0 -3 -347 c-3 -329 -4 -350 -24 -393 -46 -98 -121 -142 -243
-142 -86 0 -128 14 -179 57 -80 67 -92 135 -92 522 l0 303 -85 0 -85 0 0 -322z"/>
<path d="M6360 970 l0 -80 165 0 165 0 0 -435 0 -435 90 0 90 0 0 435 0 435
165 0 165 0 0 80 0 80 -420 0 -420 0 0 -80z"/>
<path d="M7940 535 l0 -515 90 0 90 0 0 515 0 515 -90 0 -90 0 0 -515z"/>
<path d="M10730 535 l0 -515 90 0 90 0 2 371 3 371 285 -371 285 -370 73 -1
72 0 0 515 0 515 -85 0 -85 0 0 -355 c0 -195 -3 -355 -7 -355 -5 0 -131 160
-282 355 l-274 355 -84 0 -83 0 0 -515z"/>
<path d="M14370 535 l0 -515 360 0 360 0 0 80 0 80 -275 0 -275 0 0 435 0 435
-85 0 -85 0 0 -515z"/>
<path d="M15840 535 l0 -515 85 0 85 0 0 515 0 515 -85 0 -85 0 0 -515z"/>
<path d="M16830 535 l0 -515 85 0 85 0 0 370 c0 204 3 370 8 370 4 0 79 -108
166 -240 87 -132 160 -240 161 -240 1 0 74 108 161 240 87 132 162 240 167
240 4 0 7 -166 7 -370 l0 -370 85 0 85 0 0 515 0 515 -93 0 -92 0 -155 -241
c-85 -132 -157 -242 -161 -245 -4 -2 -77 106 -164 241 l-157 245 -94 0 -94 0
0 -515z"/>
<path d="M18660 535 l0 -515 90 0 90 0 0 515 0 515 -90 0 -90 0 0 -515z"/>
<path d="M19590 970 l0 -80 160 0 160 0 0 -435 0 -435 90 0 90 0 0 435 0 435
165 0 165 0 0 80 0 80 -415 0 -415 0 0 -80z"/>
<path d="M21160 535 l0 -515 380 0 380 0 0 80 0 80 -295 0 -295 0 0 140 0 140
260 0 260 0 0 80 0 80 -260 0 -260 0 0 140 0 140 295 0 295 0 0 75 0 75 -380
0 -380 0 0 -515z"/>
<path d="M22690 535 l0 -515 209 0 c245 0 329 13 436 65 173 86 276 251 277
445 1 148 -46 266 -146 365 -73 72 -138 109 -242 135 -66 17 -111 20 -306 20
l-228 0 0 -515z m522 335 c75 -28 150 -96 185 -168 26 -52 28 -66 28 -167 -1
-91 -4 -118 -22 -157 -33 -70 -94 -131 -166 -164 -59 -27 -71 -29 -219 -32
l-158 -4 0 363 0 362 148 -6 c117 -4 159 -9 204 -27z"/>
</g>
</svg>
