<svg fill="none" xmlns="http://www.w3.org/2000/svg" viewBox="0 0 110 16">
  <path
    d="M19.847 12.98h2.323V8.267h3.648l.566-1.785H22.17V3.305c2.492-.706 5.924 0 5.924 0V1.059c-2.497-.545-5.5-.406-8.246.16v11.76ZM31.65 4.133h-2.322v8.847h2.323V4.133ZM39.169 3.959c-1.343 0-2.433.695-3.018 2.101V4.133l-2.291.237v8.61h2.306V8.51c0-1.628.696-2.623 1.975-2.623 1.343 0 1.912.822 1.912 2.228v4.865h2.306V7.466c0-1.058-.285-1.895-.869-2.544-.584-.647-1.358-.963-2.321-.963ZM63.52 4.039c-1.39 0-2.48.632-3.064 1.911V4.133h-2.291v11.618l2.306-.23v-4.263c.52 1.138 1.469 1.817 2.86 1.817 2.101 0 3.823-1.611 3.823-4.582 0-3.048-1.659-4.454-3.634-4.454Zm-.963 7.156c-1.643 0-2.243-1.059-2.243-2.639 0-1.564.679-2.685 2.243-2.685 1.596 0 2.243 1.106 2.243 2.685 0 1.564-.647 2.639-2.243 2.639ZM73.27 5.624l.175-1.895c-1.067-.008-2.433.295-2.433.295V.69L68.88.897l-.031 9.16c0 2.006.837 3.08 2.86 3.08.742 0 1.248-.142 1.737-.411v-1.832c-.443.19-.71.284-1.17.284-.821 0-1.264-.426-1.264-1.39v-3.87c.001.002.927-.28 2.258-.294ZM107.567.69l-2.133.207-.031 9.16c0 2.006.837 3.08 2.86 3.08.742 0 1.248-.142 1.737-.411v-1.832c-.442.19-.711.284-1.169.284-.822 0-1.265-.426-1.265-1.39V.689h.001ZM77.553 4.133H75.23v8.847h2.323V4.133ZM90.664 3.959c-1.327 0-2.37.71-2.954 2.038-.395-1.264-1.375-2.038-2.766-2.038-1.327 0-2.259.664-2.812 2.053V4.133l-2.29.24v8.607h2.306V8.51c0-1.628.505-2.623 1.769-2.623 1.31 0 1.69.822 1.69 2.228v4.865h2.306V8.51c0-1.628.506-2.623 1.77-2.623 1.31 0 1.69.822 1.69 2.228v4.865h2.306V7.466c.003-2.101-1.118-3.507-3.015-3.507ZM103.587 7.292c0-2.26-1.469-3.333-3.665-3.333-1.959 0-3.618.9-4.36 2.844l2.084.6c.316-1.011 1.027-1.642 2.165-1.642 1.137 0 1.579.457 1.579 1.026 0 .268-.11.474-.331.648-.205.158-.679.316-1.406.457-1.706.332-2.576.601-3.207.995-.647.427-1.09 1.012-1.09 2.022 0 1.391 1.09 2.228 2.797 2.228 1.456 0 2.722-.74 3.301-1.937v1.85h2.142c0-1.298-.009-5.758-.009-5.758Zm-4.534 4.156c-.9 0-1.374-.3-1.374-.949 0-.758.615-1.026 2.148-1.359.932-.205 1.422-.379 1.627-.632v.538c0 .964-.805 2.402-2.4 2.402ZM30.486 3.036h.01a1.282 1.282 0 1 0-.01-2.564h-.01a1.282 1.282 0 0 0 .01 2.564ZM76.37 3.036h.01a1.282 1.282 0 1 0-.01-2.564h-.01a1.282 1.282 0 0 0 .01 2.564ZM50.263.693a6.161 6.161 0 0 0-6.155 6.154 6.161 6.161 0 0 0 6.155 6.155 6.161 6.161 0 0 0 6.155-6.155A6.161 6.161 0 0 0 50.263.693Zm0 10.11a3.961 3.961 0 0 1-3.956-3.956 3.962 3.962 0 0 1 3.956-3.956 3.961 3.961 0 0 1 3.956 3.956 3.962 3.962 0 0 1-3.956 3.957ZM3.003 10.268V2.94c3.195 0 4.907-1.848 6.973-1.848v2.413c-1.97.098-2.97 1.236-4.681 1.364v.965c1.905 0 2.776-1.206 4.681-1.3v2.22c-1.356 0-2.776 1.3-4.713 1.3l.033 1.828s3.261-.387 6.134 1.905l-1.389 1.84s-3.906-3.326-8.651 0L0 11.785s1.323-1.098 3.003-1.518Z"
    fill="#22154F"
  />
</svg>
