<svg fill="none" xmlns="http://www.w3.org/2000/svg" viewBox="0 0 171 25">
  <path
    d="M30.853 19.89h3.61v-7.327h5.671l.882-2.775h-6.554v-4.94c3.875-1.097 9.21 0 9.21 0V1.358c-3.881-.847-8.55-.63-12.819.25V19.89ZM49.202 6.136h-3.61V19.89h3.61V6.136ZM60.89 5.865c-2.088 0-3.782 1.081-4.692 3.267V6.136l-3.561.368v13.385h3.585v-6.95c0-2.53 1.08-4.077 3.07-4.077 2.087 0 2.972 1.278 2.972 3.464v7.563h3.585v-8.571c0-1.646-.443-2.947-1.35-3.955-.909-1.006-2.112-1.498-3.61-1.498ZM98.745 5.989c-2.162 0-3.856.983-4.764 2.972V6.136h-3.562v18.06l3.585-.356v-6.628c.81 1.769 2.284 2.824 4.446 2.824 3.267 0 5.944-2.504 5.944-7.122 0-4.74-2.579-6.925-5.649-6.925Zm-1.498 11.125c-2.553 0-3.487-1.645-3.487-4.102 0-2.431 1.056-4.175 3.487-4.175 2.48 0 3.487 1.72 3.487 4.175 0 2.431-1.006 4.102-3.487 4.102ZM113.901 8.454l.272-2.946c-1.658-.012-3.781.459-3.781.459V.782l-3.316.324-.049 14.239c0 3.12 1.301 4.788 4.446 4.788 1.153 0 1.94-.22 2.7-.639v-2.848c-.687.295-1.104.442-1.818.442-1.277 0-1.965-.662-1.965-2.162V8.912c.002.001 1.44-.437 3.511-.458ZM167.218.782l-3.315.324-.05 14.239c0 3.12 1.302 4.788 4.446 4.788 1.154 0 1.94-.22 2.701-.639v-2.848c-.688.295-1.105.442-1.818.442-1.277 0-1.965-.662-1.965-2.162V.782h.001ZM120.559 6.136h-3.61V19.89h3.61V6.136ZM140.942 5.865c-2.064 0-3.684 1.105-4.594 3.169-.613-1.966-2.136-3.169-4.298-3.169-2.064 0-3.512 1.032-4.371 3.192v-2.92l-3.562.372v13.38h3.585v-6.95c0-2.53.786-4.077 2.75-4.077 2.038 0 2.628 1.278 2.628 3.464v7.563h3.585v-6.95c0-2.53.786-4.077 2.75-4.077 2.038 0 2.628 1.278 2.628 3.464v7.563h3.585v-8.571c.005-3.267-1.738-5.453-4.686-5.453ZM161.031 11.046c0-3.512-2.284-5.18-5.698-5.18-3.045 0-5.624 1.399-6.779 4.42l3.241.933c.492-1.572 1.596-2.553 3.365-2.553 1.769 0 2.455.712 2.455 1.596 0 .417-.171.737-.515 1.006-.319.246-1.056.492-2.186.712-2.651.515-4.003.934-4.984 1.547-1.007.662-1.695 1.572-1.695 3.143 0 2.162 1.695 3.463 4.348 3.463 2.264 0 4.232-1.15 5.132-3.01v2.874H161.044c0-2.018-.013-8.95-.013-8.95Zm-7.049 6.46c-1.399 0-2.136-.465-2.136-1.473 0-1.18.957-1.596 3.339-2.113 1.449-.319 2.211-.59 2.53-.983v.836c0 1.499-1.252 3.734-3.733 3.734ZM47.391 4.43h.015a1.992 1.992 0 1 0-.015-3.985h-.015a1.993 1.993 0 0 0 .015 3.985ZM118.721 4.43h.015a1.993 1.993 0 1 0-.015-3.985h-.015a1.993 1.993 0 0 0 .015 3.985ZM78.136.788c-5.276 0-9.568 4.291-9.568 9.567s4.292 9.568 9.568 9.568 9.567-4.292 9.567-9.568S83.412.788 78.136.788Zm0 15.718a6.157 6.157 0 0 1-6.15-6.15c0-3.391 2.76-6.151 6.15-6.151 3.392 0 6.15 2.76 6.15 6.15 0 3.39-2.76 6.15-6.15 6.15ZM4.668 15.674V4.28c4.967 0 7.628-2.873 10.84-2.873v3.75C12.446 5.312 10.89 7.08 8.23 7.28v1.5c2.962 0 4.315-1.874 7.277-2.02v3.451c-2.108 0-4.315 2.02-7.326 2.02l.05 2.841s5.07-.601 9.536 2.962l-2.159 2.86s-6.072-5.17-13.449 0L0 18.032s2.057-1.706 4.668-2.358Z"
    fill="#fff"
  />
</svg>
