<svg xmlns="http://www.w3.org/2000/svg" fill="none" viewBox="0 0 274 118">
  <path
    fill="#fff"
    d="M110.664 85.755c-10.807 21.496-36.194 36.324-64.21 30.418-27.328-5.762-47.647-30.634-46.2-60.174C1.64 27.702 23.008 4.776 50.547.98c28.598-3.942 51.45 12.937 60.336 31.643-.183.221-.442.126-.662.127-2.289.008-4.578-.018-6.868.02-.59.01-.913-.177-1.22-.681a48.553 48.553 0 0 0-7.578-9.518C86.902 15.096 77.82 10.305 67.257 8.594c-14.627-2.368-27.98.899-39.736 9.94-10.216 7.856-16.68 18.221-18.961 30.93-2.981 16.62 1.228 31.371 12.512 43.94 7.61 8.478 17.188 13.637 28.377 15.779 3.05.577 6.147.859 9.25.842 7.795-.024 15.226-1.692 22.25-5.1a50.898 50.898 0 0 0 13.199-9.227 50.962 50.962 0 0 0 7.694-9.424c.218-.345.418-.596.903-.59 2.529.027 5.061.014 7.592.018.087 0 .175.028.327.053Z"
  />
  <path
    fill="#fff"
    d="M108.294 71.267c2.746-11.545 1.706-22.69-3.069-33.46.183-.268.409-.196.601-.196 2.23-.005 4.46.015 6.688-.017.548-.008.795.182.98.681a59.612 59.612 0 0 1 3.184 12.576c.512 3.681.671 7.376.484 11.083a57.746 57.746 0 0 1-3.852 18.109c-.373.96-.261.793-1.149.797-2.139.01-4.279-.022-6.416.019-.649.012-1.027-.213-1.395-.736-5.345-7.617-10.712-15.221-16.074-22.827a4087.12 4087.12 0 0 0-4.9-6.937c-.164-.232-.29-.507-.68-.752v30.45c-.011.777-.011.783-.796.785-1.959.005-3.917.005-5.875-.002-.65-.002-.652-.017-.676-.641-.008-.21-.004-.423-.004-.633 0-13.618-.001-27.235.001-40.852 0-1.258-.112-1.1 1.115-1.106 1.807-.006 3.616.028 5.423-.017.618-.015.977.21 1.334.687 4.5 5.998 9.02 11.984 13.535 17.972 3.625 4.81 7.251 9.622 10.881 14.428.155.205.247.488.66.589ZM237.93 59.214c0-6.868-.001-13.736.001-20.604.002-1.123-.118-.999 1.024-1.002 1.778-.005 3.555-.004 5.332 0 1.011.002.934-.088.934.912.002 5.483.001 10.966 0 16.448 0 1.319-.002 1.319 1.35 1.319h18.887c.151 0 .301.003.452 0 .751-.012.757-.012.763-.73.006-.843.001-1.687.001-2.531V38.838c0-.211.021-.424-.004-.632-.056-.483.163-.611.62-.607 2.019.019 4.036.019 6.055.001.45-.004.685.114.624.603-.022.177-.003.361-.003.541v41.03c-.012 1.21.105 1.06-1.057 1.066-1.748.007-3.495.007-5.242.001-1.069-.002-.989.114-.99-.951-.004-2.713-.003-5.423-.003-8.135 0-2.59.001-5.18-.001-7.77 0-.822-.006-.827-.85-.827-6.566-.002-13.133 0-19.7-.003-.994 0-.901-.015-.901.963 0 5.212.003 10.422-.003 15.634-.001 1.243.13 1.082-1.125 1.088-1.807.007-3.614.007-5.421 0-.727-.002-.739-.012-.739-.75-.005-4.158-.004-8.315-.004-12.472v-8.404ZM158.203 59.174V38.477c.006-.945-.066-.868.888-.87h23.138c1.898 0 3.796-.005 5.694.003.632.003.647.019.65.662.008 1.867-.007 3.736.009 5.602.004.45-.119.663-.607.639-.632-.032-1.265-.008-1.897-.008h-19.795c-.777.01-.785.01-.786.802a5293.5 5293.5 0 0 0 0 9.762c.001.821.008.826.853.826 6.265.003 12.532 0 18.799.002 1.192.001 1.072-.107 1.076 1.056.005 1.566.005 3.133-.002 4.7-.002.736-.012.748-.749.748-4.309.004-8.617.001-12.925.001-2.079 0-4.158-.003-6.236.001-.806.003-.815.01-.816.774-.004 3.314-.003 6.628 0 9.942.001.818.009.824.857.824 7.261.002 14.521-.002 21.783.004 1.385.002 1.18-.165 1.19 1.202.012 1.686-.008 3.374.008 5.061.004.443-.108.69-.602.636-.208-.024-.422-.004-.632-.004l-28.832.001h-.182c-.924 0-.882.068-.882-.881V59.174h-.002ZM232.145 73.707c-1.855 2.107-3.944 3.805-6.351 5.105-3.707 2-7.684 2.715-11.863 2.484-4.109-.226-7.968-1.27-11.404-3.584-5.558-3.741-8.862-8.901-9.617-15.613-.487-4.33-.12-8.575 1.763-12.543 3.154-6.65 8.378-10.84 15.578-12.424 4.552-1 9.1-.858 13.538.704 3.361 1.184 6.198 3.172 8.633 5.758.245.261.335.433.048.741-1.436 1.541-2.851 3.103-4.303 4.69-.33-.125-.534-.382-.773-.595-1.924-1.718-3.952-3.304-6.495-3.962-5.902-1.525-11.357-.792-16.012 3.472-2.372 2.174-3.789 4.888-4.292 8.055-.517 3.253-.205 6.423 1.164 9.452 1.895 4.188 6.856 8.997 14.039 8.744 3.789-.135 7.032-1.44 9.899-3.832.485-.405.96-.824 1.436-1.24.174-.155.333-.245.536-.035 1.481 1.535 2.965 3.064 4.476 4.623ZM24.91 59.216c0-6.868-.002-13.735 0-20.603 0-1.133-.065-1.005 1.034-1.005 8.916-.003 17.83-.002 26.746-.002h.182c.872.006.874.006.87.868l-.03 5.06c-.006.794.165.88-.894.88-6.085-.004-12.169-.002-18.253-.002-.482 0-.964-.003-1.445.001-.85.01-.857.01-.859.838-.004 2.288-.001 4.577-.001 6.866 0 1.146-.007 2.29.001 3.434.004.688.015.7.703.703 2.29.007 4.578.003 6.868.003 3.584 0 7.168-.001 10.753.002.828 0 .835.006.836.837.004 1.717.004 3.434-.001 5.15-.002.774-.01.786-.8.787-5.723.004-11.445.003-17.168.003-1.401 0-1.188-.07-1.19 1.225-.006 5.09-.002 10.181-.004 15.27 0 .182.003.363 0 .543-.012.752-.013.763-.725.766-1.958.005-3.915.005-5.873 0-.735-.003-.747-.012-.75-.75-.005-2.53 0-5.06 0-7.592V59.216ZM132.959 62.495c0-5.693.002-11.388-.001-17.081-.001-1.255.115-1.083-1.127-1.086-3.614-.006-7.23-.002-10.845-.002-.21 0-.422-.014-.632.001-.352.024-.477-.137-.476-.477.007-1.93.01-3.858-.001-5.786-.003-.361.16-.477.491-.456.18.012.361 0 .542 0h31.452c.18 0 .361.012.541 0 .339-.022.486.11.484.464a655.977 655.977 0 0 0-.001 5.784c.001.348-.141.483-.484.472-.483-.016-.964-.002-1.447-.002h-10.122c-.211 0-.422.006-.632.002-.259-.005-.388.114-.387.375.001.272-.005.543-.005.813 0 11.388.001 22.776-.003 34.164 0 1.302.164 1.158-1.147 1.163-1.748.008-3.494.004-5.242.001-1.035 0-.956.072-.958-.996V62.495ZM59.166 59.184c0-6.865 0-13.73.002-20.596 0-1.038-.119-.978.965-.98 1.897-.001 3.795-.004 5.69.004.642.003.643.018.665.65.005.15.001.3.001.452l-.001 41.011c0 1.317.068 1.11-1.104 1.117-1.776.01-3.554.005-5.33.002-.88-.001-.886-.005-.886-.882l-.002-20.778ZM179.75 96.186c0 .994.017 1.987-.008 2.98-.011.438.155.578.577.572 1.415-.018 2.83.011 4.244-.024.536-.014 1.079-.046 1.611-.174 1.633-.392 2.363-1.18 2.573-2.83.314-2.46-.685-3.711-3.149-3.944-1.741-.163-3.488-.04-5.232-.086-.456-.012-.643.132-.627.617.034.963.011 1.927.011 2.89Zm8.272 6.122 5.04 7.018c-.28.255-.564.159-.824.164-.812.014-1.628-.037-2.437.019-.675.048-1.099-.165-1.488-.739-1.215-1.794-2.511-3.533-3.739-5.318-.327-.476-.676-.686-1.259-.655-.901.048-1.806.008-2.709.013-.847.006-.853.01-.856.831-.004 1.687.003 3.373-.003 5.059-.002.782-.009.788-.793.794-.692.007-1.385-.009-2.077.004-.375.007-.568-.128-.531-.525.015-.149.001-.301.001-.451V90.545c0-1.067-.061-1.002.963-.992 2.859.03 5.72-.099 8.576.136.931.07 1.849.257 2.733.556 1.898.652 3.062 1.953 3.452 3.93a9.31 9.31 0 0 1-.037 3.942c-.404 1.753-1.416 3.029-3.063 3.783-.273.125-.552.237-.949.408ZM259.655 99.487v-8.855c0-.21.007-.421.001-.632-.006-.29.106-.457.419-.447.181.006.361-.002.543-.002h12.108c.149 0 .301.009.45 0 .34-.023.495.125.491.472-.009.752-.013 1.505.003 2.258.009.412-.199.502-.562.496-.873-.014-1.746-.004-2.62-.004-2.228 0-4.457-.002-6.686.003-.73.001-.738.01-.742.747-.005 1.265-.006 2.53.002 3.794.004.684.014.696.7.698 2.59.005 5.181.002 7.77.002.211 0 .422.007.632.003.252-.005.408.096.408.36.003.783.003 1.565-.006 2.348-.003.209-.131.323-.348.323-.212 0-.423.005-.634.005-2.589.001-5.18-.001-7.77.003-.742 0-.75.009-.754.725a436.657 436.657 0 0 0 0 3.796c.006.712.015.72.771.721 3.012.004 6.024.002 9.035.002.212 0 .422.014.633 0 .351-.024.476.136.469.477a68.046 68.046 0 0 0-.001 2.259c.007.364-.173.472-.501.456-.271-.012-.543 0-.814 0-4.005 0-8.012-.002-12.017.001-1.133 0-.977-.007-.979-.973-.004-3.012-.001-6.024-.001-9.036ZM220.246 104.012c.631.613 1.221 1.17 1.792 1.748.445.449.447.474-.013.93-1.4 1.384-3.019 2.408-4.97 2.787-3.574.695-6.828.032-9.586-2.46a9.247 9.247 0 0 1-3.047-5.792c-.405-3.05.111-5.886 2.128-8.319 1.907-2.297 4.371-3.528 7.344-3.754 3.087-.235 5.851.512 8.152 2.672.131.123.256.255.393.37.268.23.235.435.004.68a87.516 87.516 0 0 0-1.58 1.737c-.204.226-.373.22-.606.018a17.432 17.432 0 0 0-1.343-1.065c-2.409-1.695-7.289-1.808-9.793 1.717-1.71 2.408-1.78 5.053-.375 7.589 1.38 2.494 3.609 3.695 6.524 3.522 1.471-.087 2.747-.61 3.891-1.504.353-.278.7-.564 1.085-.876ZM144.203 104.054c.607.596 1.196 1.199 1.814 1.77.324.3.284.492-.014.798-2.216 2.29-4.933 3.292-8.076 3.094-3.6-.227-6.525-1.771-8.329-4.946-3.657-6.438.015-15.028 8.311-15.621 2.709-.195 5.202.37 7.376 2.081 1.516 1.195 1.525 1.195.24 2.563-.326.345-.563.917-1.018.959-.409.036-.704-.495-1.056-.768-3.441-2.667-8.622-1.842-10.735 1.804-1.414 2.436-1.354 4.989.128 7.37 1.449 2.328 3.622 3.414 6.417 3.227 1.645-.111 2.998-.797 4.234-1.815.228-.188.411-.446.708-.516ZM238.415 97.96c0 2.499-.002 4.999.002 7.497.001.839.008.846.845.847 2.499.003 4.997-.003 7.497.003.738.001.743.012.751.744.007.602-.023 1.206.009 1.806.026.459-.117.68-.6.643-.269-.021-.541-.003-.812-.003h-10.028c-.18 0-.361-.013-.541.002-.408.033-.532-.178-.501-.547.012-.149 0-.3 0-.451V90.435c.006-.876.006-.878.885-.882.543-.002 1.084-.004 1.627 0 .858.006.864.007.865.91.004 2.288.001 4.576.001 6.865v.632ZM158.959 99.454v-8.842c0-.242 0-.482.01-.723.008-.213.126-.33.341-.33.903-.002 1.805-.002 2.708.002.212.001.331.12.339.334.006.211.008.422.008.633 0 5.985.002 11.971-.003 17.957-.001 1.016.188 1.014-1.027 1.012-.601-.002-1.204-.018-1.804.004-.424.016-.586-.135-.578-.572.022-1.172.006-2.346.006-3.519v-5.956Z"
  />
</svg>
