<?xml version="1.0" encoding="UTF-8" standalone="no"?>
<svg
   xmlns:dc="http://purl.org/dc/elements/1.1/"
   xmlns:cc="http://creativecommons.org/ns#"
   xmlns:rdf="http://www.w3.org/1999/02/22-rdf-syntax-ns#"
   xmlns:svg="http://www.w3.org/2000/svg"
   xmlns="http://www.w3.org/2000/svg"
   viewBox="0 0 340.16 207.88"
   height="207.88"
   width="340.16"
   xml:space="preserve"
   id="svg2"
   version="1.1"><metadata
     id="metadata8"><rdf:RDF><cc:Work
         rdf:about=""><dc:format>image/svg+xml</dc:format><dc:type
           rdf:resource="http://purl.org/dc/dcmitype/StillImage" /></cc:Work></rdf:RDF></metadata><defs
     id="defs6"><clipPath
       id="clipPath18"
       clipPathUnits="userSpaceOnUse"><path
         id="path16"
         d="M 0,155.91 H 255.12 V 0 H 0 Z" /></clipPath></defs><g
     transform="matrix(1.3333333,0,0,-1.3333333,0,207.88)"
     id="g10"><g
       id="g12"><g
         clip-path="url(#clipPath18)"
         id="g14"><g
           transform="translate(107.7475,57.8439)"
           id="g20"><path
             id="path22"
             style="fill:#000000;fill-opacity:1;fill-rule:nonzero;stroke:none"
             d="m 0,0 c -8.105,-16.122 -27.145,-27.243 -48.157,-22.813 -20.496,4.321 -35.736,22.975 -34.651,45.13 1.04,21.223 17.067,38.418 37.721,41.265 21.449,2.957 38.588,-9.702 45.252,-23.732 -0.137,-0.166 -0.331,-0.094 -0.496,-0.095 -1.717,-0.006 -3.434,0.013 -5.151,-0.015 -0.443,-0.007 -0.685,0.133 -0.915,0.511 -1.593,2.617 -3.493,4.998 -5.684,7.138 -5.74,5.606 -12.552,9.199 -20.474,10.482 -10.97,1.776 -20.985,-0.674 -29.802,-7.455 -7.662,-5.892 -12.51,-13.666 -14.221,-23.198 -2.236,-12.464 0.921,-23.528 9.384,-32.955 5.707,-6.358 12.891,-10.227 21.283,-11.834 2.29,-0.439 4.609,-0.638 6.938,-0.631 5.846,0.018 11.419,1.269 16.687,3.825 3.667,1.78 6.965,4.088 9.899,6.92 2.204,2.128 4.132,4.48 5.771,7.068 0.163,0.259 0.313,0.447 0.677,0.443 C -4.042,0.033 -2.143,0.043 -0.245,0.04 -0.18,0.04 -0.114,0.019 0,0" /></g><g
           transform="translate(105.9713,68.7104)"
           id="g24"><path
             id="path26"
             style="fill:#000000;fill-opacity:1;fill-rule:nonzero;stroke:none"
             d="m 0,0 c 2.059,8.659 1.279,17.018 -2.302,25.095 0.137,0.201 0.307,0.147 0.451,0.147 1.672,0.004 3.345,-0.011 5.016,0.013 C 3.576,25.261 3.761,25.118 3.9,24.744 5.036,21.685 5.838,18.545 6.288,15.312 6.672,12.551 6.791,9.78 6.651,7 6.414,2.321 5.46,-2.212 3.762,-6.582 3.482,-7.302 3.566,-7.177 2.9,-7.18 c -1.604,-0.007 -3.209,0.017 -4.812,-0.014 -0.487,-0.009 -0.77,0.16 -1.046,0.552 -4.009,5.713 -8.034,11.416 -12.056,17.12 -1.223,1.735 -2.447,3.47 -3.674,5.203 -0.124,0.174 -0.218,0.38 -0.51,0.564 v -0.739 c 0,-7.298 0,-14.596 0,-21.894 0,-0.068 0.001,-0.136 0,-0.204 -0.009,-0.583 -0.009,-0.588 -0.598,-0.589 -1.469,-0.003 -2.938,-0.005 -4.406,0.001 -0.487,0.002 -0.489,0.013 -0.507,0.481 -0.006,0.158 -0.003,0.317 -0.003,0.475 0,10.213 -0.001,20.426 0.001,30.639 0,0.943 -0.084,0.825 0.836,0.829 1.355,0.005 2.712,-0.021 4.067,0.013 0.464,0.011 0.733,-0.158 1.001,-0.515 3.375,-4.499 6.765,-8.988 10.151,-13.479 C -5.937,7.655 -3.218,4.046 -0.495,0.442 -0.379,0.288 -0.31,0.076 0,0" /></g><g
           transform="translate(203.1983,77.75)"
           id="g28"><path
             id="path30"
             style="fill:#000000;fill-opacity:1;fill-rule:nonzero;stroke:none"
             d="m 0,0 c 0,5.151 -0.001,10.302 0.001,15.453 0.001,0.842 -0.089,0.749 0.768,0.751 1.333,0.004 2.666,0.003 3.999,0 0.758,-0.001 0.7,0.066 0.7,-0.684 0.002,-4.112 0.001,-8.224 0,-12.336 0,-0.989 -0.001,-0.989 1.013,-0.989 4.722,0 9.444,0 14.165,0 0.113,0 0.226,-0.002 0.339,0 0.563,0.009 0.568,0.009 0.572,0.548 0.005,0.632 0.001,1.265 0.001,1.898 0,3.547 0,7.094 0,10.641 0,0.158 0.016,0.318 -0.003,0.474 -0.042,0.362 0.122,0.458 0.465,0.455 1.514,-0.014 3.027,-0.014 4.541,-10e-4 0.338,0.003 0.514,-0.085 0.468,-0.452 -0.016,-0.133 -0.002,-0.271 -0.002,-0.406 0,-10.167 0,-20.334 0,-30.501 0,-0.09 0,-0.18 0,-0.271 -0.009,-0.908 0.079,-0.796 -0.793,-0.8 -1.311,-0.006 -2.621,-0.004 -3.931,-0.001 -0.802,0.002 -0.742,-0.085 -0.743,0.714 -0.003,2.034 -0.002,4.067 -0.002,6.101 0,1.942 0.001,3.885 -0.001,5.828 0,0.616 -0.004,0.62 -0.637,0.62 -4.925,0.001 -9.85,0 -14.775,0.002 -0.746,0 -0.676,0.011 -0.676,-0.722 0,-3.909 0.002,-7.817 -0.002,-11.726 -10e-4,-0.932 0.097,-0.811 -0.844,-0.816 -1.355,-0.007 -2.711,-0.004 -4.066,0 -0.545,0.002 -0.554,0.009 -0.554,0.563 C -0.001,-12.539 0,-9.421 0,-6.303 0,-4.202 0,-2.101 0,0" /></g><g
           transform="translate(143.4034,77.7801)"
           id="g32"><path
             id="path34"
             style="fill:#000000;fill-opacity:1;fill-rule:nonzero;stroke:none"
             d="m 0,0 v 15.252 c 0,0.09 0,0.181 0,0.271 0.004,0.709 -0.05,0.651 0.666,0.652 5.784,10e-4 11.569,0 17.353,0 1.424,0 2.847,0.004 4.271,-0.002 0.474,-0.002 0.485,-0.014 0.487,-0.496 0.006,-1.401 -0.005,-2.802 0.007,-4.202 0.003,-0.338 -0.089,-0.497 -0.455,-0.479 -0.474,0.024 -0.949,0.006 -1.423,0.006 -4.859,0 -9.717,0 -14.575,0 -0.09,0 -0.18,10e-4 -0.271,0 C 5.477,10.994 5.471,10.994 5.47,10.4 5.468,7.96 5.468,5.52 5.47,3.079 5.471,2.463 5.476,2.459 6.11,2.459 c 4.699,-0.002 9.399,0 14.099,-10e-4 0.894,-0.001 0.804,0.08 0.807,-0.792 C 21.02,0.491 21.02,-0.684 21.015,-1.859 21.013,-2.411 21.006,-2.42 20.453,-2.42 17.221,-2.423 13.99,-2.421 10.759,-2.421 9.2,-2.421 7.641,-2.419 6.082,-2.422 5.478,-2.424 5.471,-2.429 5.47,-3.002 c -0.003,-2.486 -0.002,-4.971 0,-7.457 0.001,-0.613 0.007,-0.618 0.643,-0.618 5.446,-10e-4 10.891,0.002 16.337,-0.003 1.039,-10e-4 0.885,0.124 0.893,-0.901 0.009,-1.265 -0.006,-2.531 0.006,-3.796 0.003,-0.332 -0.081,-0.518 -0.452,-0.477 -0.156,0.018 -0.316,0.003 -0.474,0.003 -7.208,-10e-4 -14.416,-10e-4 -21.624,-10e-4 -0.045,0 -0.09,10e-4 -0.136,0 -0.693,0 -0.662,-0.051 -0.662,0.661 0,5.197 0,10.394 0,15.591 z" /></g><g
           transform="translate(198.8587,66.8805)"
           id="g36"><path
             id="path38"
             style="fill:#000000;fill-opacity:1;fill-rule:nonzero;stroke:none"
             d="m 0,0 c -1.391,-1.58 -2.958,-2.854 -4.763,-3.829 -2.78,-1.5 -5.763,-2.036 -8.897,-1.863 -3.082,0.17 -5.976,0.953 -8.553,2.688 -4.169,2.806 -6.647,6.676 -7.213,11.71 -0.365,3.248 -0.09,6.431 1.322,9.407 2.366,4.988 6.284,8.131 11.684,9.318 3.414,0.751 6.825,0.644 10.153,-0.528 2.521,-0.888 4.649,-2.379 6.475,-4.318 0.184,-0.196 0.251,-0.325 0.036,-0.556 -1.077,-1.156 -2.138,-2.327 -3.227,-3.518 -0.248,0.094 -0.401,0.287 -0.58,0.447 -1.443,1.288 -2.964,2.478 -4.871,2.971 -4.427,1.144 -8.518,0.594 -12.009,-2.604 -1.779,-1.63 -2.842,-3.666 -3.219,-6.041 -0.388,-2.44 -0.154,-4.817 0.873,-7.089 1.421,-3.141 5.142,-6.748 10.529,-6.558 2.842,0.101 5.274,1.08 7.424,2.874 0.364,0.304 0.72,0.618 1.077,0.93 0.131,0.116 0.25,0.184 0.402,0.026 C -2.246,2.316 -1.133,1.169 0,0" /></g><g
           transform="translate(43.4321,77.748)"
           id="g40"><path
             id="path42"
             style="fill:#000000;fill-opacity:1;fill-rule:nonzero;stroke:none"
             d="m 0,0 c 0,5.151 -0.001,10.301 0.001,15.452 0,0.85 -0.049,0.754 0.775,0.754 6.687,0.002 13.373,0.001 20.06,0.001 0.045,0 0.091,0 0.136,0 0.654,-0.004 0.656,-0.004 0.653,-0.651 -0.007,-1.265 -0.016,-2.529 -0.023,-3.794 -0.004,-0.596 0.124,-0.661 -0.67,-0.661 -4.564,0.003 -9.127,0.002 -13.69,0.002 -0.362,0 -0.723,0.002 -1.084,-10e-4 C 5.52,11.095 5.515,11.094 5.514,10.474 5.511,8.758 5.513,7.041 5.513,5.324 5.513,4.465 5.508,3.607 5.514,2.749 5.517,2.233 5.525,2.223 6.041,2.221 7.758,2.216 9.475,2.219 11.192,2.219 c 2.688,0 5.376,0.001 8.065,-10e-4 0.621,0 0.626,-0.005 0.627,-0.628 0.003,-1.288 0.003,-2.575 -0.001,-3.863 -10e-4,-0.58 -0.007,-0.589 -0.6,-0.59 -4.292,-0.003 -8.584,-0.002 -12.876,-0.002 -1.051,0 -0.891,0.053 -0.892,-0.919 -0.005,-3.818 -0.002,-7.636 -0.003,-11.453 0,-0.136 0.002,-0.272 0,-0.407 -0.009,-0.564 -0.01,-0.572 -0.544,-0.574 -1.468,-0.004 -2.937,-0.004 -4.405,0 -0.551,0.002 -0.56,0.009 -0.562,0.563 C -0.003,-13.758 0,-11.86 0,-9.962 0,-6.642 0,-3.321 0,0" /></g><g
           transform="translate(124.4694,75.2907)"
           id="g44"><path
             id="path46"
             style="fill:#000000;fill-opacity:1;fill-rule:nonzero;stroke:none"
             d="m 0,0 c 0,4.27 0.001,8.541 -0.001,12.811 -0.001,0.941 0.086,0.812 -0.845,0.814 -2.711,0.005 -5.423,0.002 -8.134,0.002 -0.158,0 -0.317,0.01 -0.474,-0.001 -0.264,-0.018 -0.358,0.103 -0.357,0.358 0.005,1.447 0.007,2.893 -10e-4,4.339 -0.002,0.271 0.12,0.358 0.368,0.342 0.135,-0.009 0.271,0 0.407,0 7.863,0 15.726,0 23.589,0 0.135,0 0.271,-0.009 0.406,0 0.254,0.017 0.364,-0.082 0.363,-0.348 -0.007,-1.446 -0.007,-2.892 -10e-4,-4.338 10e-4,-0.261 -0.106,-0.362 -0.363,-0.354 -0.362,0.012 -0.723,0.002 -1.085,0.002 -2.53,0 -5.061,0 -7.592,0 -0.158,0 -0.316,-0.005 -0.474,-0.002 -0.194,0.004 -0.291,-0.085 -0.29,-0.281 0.001,-0.204 -0.004,-0.407 -0.004,-0.61 0,-8.541 0.001,-17.082 -0.002,-25.623 0,-0.976 0.123,-0.868 -0.86,-0.872 -1.311,-0.006 -2.621,-0.003 -3.932,-0.001 -0.776,0 -0.717,-0.054 -0.718,0.747 C 0,-8.676 0,-4.338 0,0" /></g><g
           transform="translate(69.125,77.7735)"
           id="g48"><path
             id="path50"
             style="fill:#000000;fill-opacity:1;fill-rule:nonzero;stroke:none"
             d="m 0,0 c 0,5.149 -0.001,10.298 0.001,15.447 0,0.779 -0.089,0.734 0.724,0.735 1.423,0.001 2.846,0.003 4.268,-0.003 0.481,-0.002 0.482,-0.013 0.498,-0.487 0.004,-0.113 0.001,-0.226 0.001,-0.339 0,-10.253 0,-20.506 -0.001,-30.759 0,-0.987 0.051,-0.832 -0.828,-0.837 -1.332,-0.008 -2.665,-0.004 -3.997,-0.002 -0.661,0.001 -0.665,0.004 -0.665,0.662 C 0,-10.389 0,-5.194 0,0" /></g><g
           transform="translate(159.5629,50.0206)"
           id="g52"><path
             id="path54"
             style="fill:#000000;fill-opacity:1;fill-rule:nonzero;stroke:none"
             d="m 0,0 c 0,-0.745 0.013,-1.49 -0.006,-2.235 -0.008,-0.328 0.116,-0.433 0.433,-0.429 1.061,0.014 2.122,-0.008 3.183,0.018 0.402,0.011 0.809,0.035 1.208,0.131 1.225,0.294 1.772,0.885 1.93,2.122 C 6.983,1.452 6.234,2.391 4.386,2.565 3.08,2.688 1.77,2.595 0.462,2.63 0.12,2.639 -0.02,2.531 -0.008,2.167 0.017,1.445 0,0.722 0,0 M 6.204,-4.591 C 7.492,-6.385 8.739,-8.121 9.984,-9.855 9.774,-10.046 9.561,-9.974 9.366,-9.978 8.757,-9.988 8.145,-9.95 7.538,-9.992 7.032,-10.028 6.714,-9.868 6.422,-9.438 5.511,-8.092 4.539,-6.788 3.618,-5.449 3.373,-5.092 3.111,-4.935 2.674,-4.958 1.998,-4.994 1.319,-4.964 0.642,-4.968 0.007,-4.972 0.002,-4.975 0,-5.591 c -0.003,-1.265 0.002,-2.53 -0.002,-3.794 -0.002,-0.587 -0.007,-0.591 -0.595,-0.596 -0.519,-0.005 -1.039,0.007 -1.558,-0.003 -0.281,-0.005 -0.426,0.096 -0.398,0.394 0.011,0.112 10e-4,0.226 10e-4,0.338 0,4.495 -10e-4,8.989 0,13.483 0,0.8 -0.046,0.752 0.722,0.744 C 0.314,4.953 2.46,5.049 4.602,4.873 5.303,4.815 5.987,4.685 6.652,4.456 8.075,3.967 8.948,2.991 9.241,1.509 9.436,0.522 9.44,-0.467 9.213,-1.448 8.91,-2.763 8.151,-3.72 6.916,-4.285 6.711,-4.379 6.502,-4.463 6.204,-4.591" /></g><g
           transform="translate(219.4923,47.5446)"
           id="g56"><path
             id="path58"
             style="fill:#000000;fill-opacity:1;fill-rule:nonzero;stroke:none"
             d="M 0,0 C 0,2.214 0,4.427 0,6.641 0,6.799 0.005,6.957 0.001,7.115 -0.004,7.333 0.08,7.458 0.315,7.45 0.451,7.446 0.586,7.452 0.722,7.452 c 3.027,0 6.054,0 9.081,0 0.112,0 0.226,-0.007 0.338,0 0.255,0.017 0.371,-0.094 0.368,-0.354 C 10.502,6.534 10.499,5.969 10.511,5.404 10.518,5.095 10.362,5.028 10.09,5.032 9.435,5.043 8.78,5.035 8.125,5.035 6.454,5.035 4.782,5.037 3.11,5.033 2.563,5.032 2.557,5.025 2.554,4.473 2.55,3.524 2.549,2.575 2.555,1.627 2.558,1.114 2.566,1.105 3.08,1.104 5.023,1.1 6.966,1.102 8.908,1.102 9.066,1.102 9.224,1.097 9.382,1.1 9.571,1.104 9.688,1.028 9.688,0.83 9.69,0.243 9.69,-0.344 9.683,-0.931 9.681,-1.088 9.585,-1.173 9.422,-1.173 c -0.159,0 -0.317,-0.004 -0.475,-0.004 -1.942,-10e-4 -3.885,0.001 -5.828,-0.002 -0.556,0 -0.562,-0.007 -0.565,-0.544 -0.004,-0.949 -0.005,-1.898 0,-2.847 0.004,-0.534 0.011,-0.54 0.578,-0.541 2.259,-0.003 4.518,-0.001 6.776,-0.001 0.159,0 0.317,-0.011 0.475,0 0.263,0.018 0.357,-0.102 0.352,-0.358 -0.01,-0.565 -0.01,-1.13 -10e-4,-1.694 0.005,-0.273 -0.13,-0.354 -0.376,-0.342 -0.203,0.009 -0.407,0 -0.61,0 -3.004,0 -6.009,0.001 -9.013,-10e-4 -0.85,0 -0.733,0.005 -0.734,0.73 C -0.002,-4.518 0,-2.259 0,0" /></g><g
           transform="translate(189.9349,44.152)"
           id="g60"><path
             id="path62"
             style="fill:#000000;fill-opacity:1;fill-rule:nonzero;stroke:none"
             d="m 0,0 c 0.473,-0.46 0.916,-0.878 1.344,-1.311 0.334,-0.337 0.335,-0.356 -0.01,-0.698 -1.05,-1.038 -2.264,-1.806 -3.727,-2.09 -2.681,-0.521 -5.121,-0.024 -7.19,1.845 -1.289,1.164 -2.056,2.625 -2.285,4.344 -0.304,2.287 0.083,4.415 1.596,6.239 1.43,1.723 3.278,2.646 5.508,2.816 2.315,0.176 4.388,-0.384 6.114,-2.004 C 1.448,9.049 1.542,8.95 1.645,8.863 1.846,8.691 1.821,8.537 1.648,8.353 1.245,7.926 0.854,7.489 0.463,7.051 0.31,6.881 0.183,6.886 0.008,7.037 -0.316,7.317 -0.649,7.589 -0.999,7.836 -2.806,9.107 -6.466,9.192 -8.344,6.548 -9.626,4.742 -9.679,2.758 -8.625,0.856 c 1.035,-1.87 2.707,-2.771 4.893,-2.641 1.103,0.065 2.06,0.457 2.918,1.128 C -0.549,-0.449 -0.289,-0.234 0,0" /></g><g
           transform="translate(132.9032,44.1192)"
           id="g64"><path
             id="path66"
             style="fill:#000000;fill-opacity:1;fill-rule:nonzero;stroke:none"
             d="m 0,0 c 0.455,-0.447 0.897,-0.899 1.36,-1.327 0.243,-0.225 0.213,-0.369 -0.01,-0.599 -1.662,-1.717 -3.7,-2.469 -6.057,-2.32 -2.7,0.17 -4.894,1.328 -6.247,3.709 -2.743,4.829 0.011,11.271 6.233,11.716 2.032,0.146 3.902,-0.277 5.532,-1.561 C 1.948,8.722 1.955,8.722 0.991,7.696 0.747,7.437 0.569,7.008 0.228,6.977 -0.079,6.95 -0.3,7.348 -0.564,7.553 -3.145,9.553 -7.031,8.934 -8.616,6.2 -9.676,4.373 -9.631,2.458 -8.52,0.672 c 1.087,-1.746 2.717,-2.56 4.813,-2.42 1.234,0.083 2.249,0.598 3.176,1.361 C -0.36,-0.246 -0.223,-0.052 0,0" /></g><g
           transform="translate(203.5624,48.691)"
           id="g68"><path
             id="path70"
             style="fill:#000000;fill-opacity:1;fill-rule:nonzero;stroke:none"
             d="M 0,0 C 0,-1.874 -0.002,-3.749 0.001,-5.623 0.002,-6.252 0.007,-6.257 0.635,-6.258 2.509,-6.26 4.383,-6.256 6.258,-6.26 6.811,-6.261 6.815,-6.269 6.821,-6.818 6.826,-7.27 6.804,-7.723 6.828,-8.173 6.847,-8.517 6.74,-8.683 6.378,-8.655 c -0.202,0.016 -0.406,0.002 -0.609,0.002 -2.507,0 -5.014,0 -7.521,0 -0.135,0 -0.271,0.01 -0.406,-10e-4 -0.306,-0.025 -0.399,0.133 -0.376,0.41 0.009,0.112 0,0.225 0,0.338 0,4.494 0,8.988 0,13.482 0,0.023 0,0.045 0,0.068 0.005,0.657 0.005,0.658 0.664,0.661 0.407,0.002 0.813,0.003 1.22,0 C -0.006,6.301 -0.002,6.3 -0.001,5.623 0.002,3.907 0,2.191 0,0.474 0,0.316 0,0.158 0,0" /></g><g
           transform="translate(143.9693,47.5706)"
           id="g72"><path
             id="path74"
             style="fill:#000000;fill-opacity:1;fill-rule:nonzero;stroke:none"
             d="M 0,0 C 0,2.211 0,4.422 0,6.632 0,6.813 0,6.993 0.007,7.174 0.013,7.334 0.102,7.421 0.263,7.421 0.94,7.423 1.617,7.423 2.294,7.42 2.453,7.419 2.542,7.33 2.548,7.169 2.553,7.011 2.554,6.853 2.554,6.695 2.554,2.206 2.556,-2.284 2.552,-6.773 2.551,-7.535 2.693,-7.534 1.782,-7.532 1.331,-7.531 0.879,-7.519 0.429,-7.535 0.111,-7.547 -0.011,-7.434 -0.005,-7.106 0.012,-6.227 0,-5.347 0,-4.467 0,-2.978 0,-1.489 0,0" /></g></g></g></g></svg>