<svg fill="none" xmlns="http://www.w3.org/2000/svg" viewBox="0 0 276 92">
  <path
    d="M15.69.68C34.64.65 53.58.68 72.53.66c0 5.21.02 10.42-.02 15.62-13.26.03-26.52-.08-39.77.06.05 6.6-.07 13.2.03 19.8.18.34.56 1 .75 1.34.32.17.97.52 1.3.69 11.61.08 23.22-.03 34.83.04 0 5.15.01 10.3-.01 15.45-11.71.02-23.42.07-35.13-.01-.35-.19-1.04-.58-1.39-.77-1-4.79-.02-9.76-.39-14.62-5.67-.16-11.36.02-17.03 0 .01 5.12.02 10.24-.01 15.36 5.39.33 10.91-.52 16.23.46.19.35.59 1.06.79 1.41.08 11.97.01 23.95.02 35.92-5.68 0-11.36.02-17.04-.02-.02-12.57.03-25.15-.02-37.72-5.1.02-10.19 0-15.28.02-.01-5.17-.01-10.34 0-15.5 5.09.01 10.18-.01 15.27.02.07-12.51.01-25.02.03-37.53ZM87.26.66c10.65.09 21.299-.17 31.949.14.32 5.13 1.86 10.06 2.67 15.11 4.23 21.25 8.24 42.55 12.73 63.74l2.21-.08c5.28-26.3 10.37-52.63 15.69-78.91 10.6.02 21.2-.01 31.8.01 0 30.25-.01 60.49 0 90.73-5.55.02-11.09.01-16.64.01-.01-26.04.04-52.08-.03-78.13-.94.15-1.87.29-2.81.43-1.54 11.76-4.47 23.32-6.52 35.01-3.19 14.18-5.36 28.58-8.74 42.7-9.3-.02-18.6-.01-27.9 0-3.76-17.04-6.83-34.22-10.33-51.32-1.83-8.82-3.61-17.65-5.14-26.53-.88-.05-1.76-.11-2.64-.16.01 26 .01 52 0 78-5.43 0-10.87 0-16.3.01-.01-30.26-.01-60.51 0-90.76ZM201.341.67c19.1 0 38.2-.01 57.29 0-.46 5.02 1 10.49-.74 15.22-9.12.92-18.42.12-27.62.39-.01 19.84.01 39.68 0 59.52 9.19.23 18.46-.45 27.61.34.18.34.55 1.02.73 1.37.12 4.63-.01 9.26.03 13.89-19.1.03-38.2.01-57.3.01-.02-5.02-.03-10.03.02-15.05 3.86 0 7.72 0 11.58-.01.61-13.1.09-26.24.26-39.35-.18-7.09.41-14.22-.37-21.28-3.83.01-7.66.01-11.48 0-.03-5.02-.03-10.03-.01-15.05Z"
    fill="#fff"
  />
  <path
    d="M259.17 16.23c5.46-.05 10.93.09 16.39.02.02 19.86.01 39.73.01 59.59-5.47-.1-10.95.14-16.41-.05-.12-.33-.38-.99-.5-1.32-.06-18.98-.06-37.97 0-56.95.13-.32.38-.97.51-1.29Z"
    fill="#fff"
  />
</svg>
