<?xml version="1.0" encoding="utf-8"?>
<!-- Generator: Adobe Illustrator 24.0.2, SVG Export Plug-In . SVG Version: 6.00 Build 0)  -->
<svg version="1.1" id="Layer_1" xmlns="http://www.w3.org/2000/svg" xmlns:xlink="http://www.w3.org/1999/xlink" x="0px" y="0px"
	 viewBox="0 0 832.42 146.2" style="enable-background:new 0 0 832.42 146.2;" xml:space="preserve">
<style type="text/css">
	.st0{fill:#FFFFFF;}
</style>
<g>
	<path class="st0" d="M3.63,119.32h21.31V76.08h33.47l5.2-16.38H24.94l0-29.15c22.87-6.48,54.36,0,54.36,0V9.94
		c-22.91-5-50.46-3.72-75.66,1.48L3.63,119.32z"/>
	<rect x="90.63" y="38.15" class="st0" width="21.31" height="81.17"/>
	<path class="st0" d="M180.92,36.55c-12.32,0-22.32,6.38-27.69,19.28V38.15l-21.02,2.17v79h21.16V78.3
		c0-14.93,6.38-24.06,18.12-24.06c12.32,0,17.54,7.54,17.54,20.44v44.64h21.16V68.73c0-9.71-2.61-17.39-7.97-23.34
		C196.86,39.45,189.76,36.55,180.92,36.55z"/>
	<path class="st0" d="M404.35,37.28c-12.76,0-22.76,5.8-28.12,17.54V38.15h-21.02v106.59l21.16-2.1v-39.12
		c4.78,10.44,13.48,16.67,26.24,16.67c19.28,0,35.08-14.78,35.08-42.04C437.69,50.18,422.47,37.28,404.35,37.28z M395.51,102.94
		c-15.07,0-20.58-9.71-20.58-24.21c0-14.35,6.23-24.64,20.58-24.64c14.64,0,20.58,10.15,20.58,24.64
		C416.09,93.08,410.15,102.94,395.51,102.94z"/>
	<path class="st0" d="M493.79,51.83l1.61-17.39c-9.79-0.07-22.32,2.71-22.32,2.71l0-30.6l-19.57,1.91l-0.29,84.04
		c0,18.41,7.68,28.26,26.24,28.26c6.81,0,11.45-1.3,15.94-3.77v-16.81c-4.06,1.74-6.52,2.61-10.73,2.61
		c-7.54,0-11.6-3.91-11.6-12.76l0-35.5C473.08,54.54,481.57,51.95,493.79,51.83z"/>
	<path class="st0" d="M808.48,6.55l-19.57,1.91l-0.29,84.04c0,18.41,7.68,28.26,26.24,28.26c6.81,0,11.45-1.3,15.94-3.77v-16.81
		c-4.06,1.74-6.52,2.61-10.73,2.61c-7.54,0-11.6-3.91-11.6-12.76V6.55z"/>
	<rect x="511.78" y="38.15" class="st0" width="21.31" height="81.17"/>
	<path class="st0" d="M653.4,36.55c-12.18,0-21.74,6.52-27.11,18.7c-3.62-11.6-12.61-18.7-25.37-18.7
		c-12.18,0-20.73,6.09-25.8,18.84V38.15l-21.02,2.2v78.97h21.16V78.3c0-14.93,4.64-24.06,16.23-24.06
		c12.03,0,15.51,7.54,15.51,20.44v44.64h21.16V78.3c0-14.93,4.64-24.06,16.23-24.06c12.03,0,15.51,7.54,15.51,20.44v44.64h21.16
		V68.73C681.08,49.45,670.79,36.55,653.4,36.55z"/>
	<path class="st0" d="M771.96,67.13c0-20.73-13.48-30.58-33.63-30.58c-17.97,0-33.19,8.26-40.01,26.09l19.13,5.51
		c2.9-9.28,9.42-15.07,19.86-15.07c10.44,0,14.49,4.2,14.49,9.42c0,2.46-1.01,4.35-3.04,5.94c-1.88,1.45-6.23,2.9-12.9,4.2
		c-15.65,3.04-23.63,5.51-29.42,9.13c-5.94,3.91-10,9.28-10,18.55c0,12.76,10,20.44,25.66,20.44c13.36,0,24.98-6.79,30.29-17.77
		v16.97H772v0c0.01,0,0.03,0,0.04,0C772.04,108.05,771.96,67.13,771.96,67.13z M730.36,105.26c-8.26,0-12.61-2.75-12.61-8.7
		c0-6.96,5.65-9.42,19.71-12.47c8.55-1.88,13.05-3.48,14.93-5.8v4.93C752.39,92.07,745,105.26,730.36,105.26z"/>
	<path class="st0" d="M101.25,28.08h0.09c6.5,0,11.76-5.27,11.76-11.76v0c0-6.53-5.32-11.81-11.85-11.76l-0.09,0
		c-6.46,0.05-11.67,5.3-11.67,11.76v0C89.48,22.81,94.75,28.08,101.25,28.08z"/>
	<path class="st0" d="M522.25,28.08h0.09c6.5,0,11.76-5.27,11.76-11.76v0c0-6.53-5.32-11.81-11.85-11.76l-0.09,0
		c-6.46,0.05-11.67,5.3-11.67,11.76v0C510.48,22.81,515.75,28.08,522.25,28.08z"/>
	<path class="st0" d="M282.7,6.58c-31.14,0-56.47,25.33-56.47,56.47s25.33,56.47,56.47,56.47s56.47-25.33,56.47-56.47
		S313.84,6.58,282.7,6.58z M282.7,99.35c-20.02,0-36.3-16.29-36.3-36.3s16.29-36.3,36.3-36.3c20.02,0,36.3,16.29,36.3,36.3
		S302.72,99.35,282.7,99.35z"/>
</g>
</svg>
