<?xml version="1.0" encoding="utf-8"?>
<!-- Generator: Adobe Illustrator 24.0.2, SVG Export Plug-In . SVG Version: 6.00 Build 0)  -->
<svg version="1.1" id="Layer_1" xmlns="http://www.w3.org/2000/svg" xmlns:xlink="http://www.w3.org/1999/xlink" x="0px" y="0px"
	 viewBox="0 0 1011.88 146.2" style="enable-background:new 0 0 1011.88 146.2;" xml:space="preserve">
<style type="text/css">
	.st0{fill:#22154F;}
</style>
<g>
	<path class="st0" d="M183.1,119.32h21.31V76.08h33.47l5.2-16.38h-38.68l0-29.15c22.87-6.48,54.36,0,54.36,0V9.94
		c-22.91-5-50.46-3.72-75.66,1.48L183.1,119.32z"/>
	<rect x="270.09" y="38.15" class="st0" width="21.31" height="81.17"/>
	<path class="st0" d="M360.38,36.55c-12.32,0-22.32,6.38-27.69,19.28V38.15l-21.02,2.17v79h21.16V78.3
		c0-14.93,6.38-24.06,18.12-24.06c12.32,0,17.54,7.54,17.54,20.44v44.64h21.16V68.73c0-9.71-2.61-17.39-7.97-23.34
		C376.32,39.45,369.22,36.55,360.38,36.55z"/>
	<path class="st0" d="M583.81,37.28c-12.76,0-22.76,5.8-28.12,17.54V38.15h-21.02v106.59l21.16-2.1v-39.12
		c4.78,10.44,13.48,16.67,26.24,16.67c19.28,0,35.08-14.78,35.08-42.04C617.15,50.18,601.93,37.28,583.81,37.28z M574.97,102.94
		c-15.07,0-20.58-9.71-20.58-24.21c0-14.35,6.23-24.64,20.58-24.64c14.64,0,20.58,10.15,20.58,24.64
		C595.55,93.08,589.61,102.94,574.97,102.94z"/>
	<path class="st0" d="M673.26,51.83l1.61-17.39c-9.79-0.07-22.32,2.71-22.32,2.71l0-30.6l-19.57,1.91l-0.29,84.04
		c0,18.41,7.68,28.26,26.24,28.26c6.81,0,11.45-1.3,15.94-3.77v-16.81c-4.06,1.74-6.52,2.61-10.73,2.61
		c-7.54,0-11.6-3.91-11.6-12.76l0-35.5C652.55,54.54,661.04,51.95,673.26,51.83z"/>
	<path class="st0" d="M987.95,6.55l-19.57,1.91l-0.29,84.04c0,18.41,7.68,28.26,26.24,28.26c6.81,0,11.45-1.3,15.94-3.77v-16.81
		c-4.06,1.74-6.52,2.61-10.73,2.61c-7.54,0-11.6-3.91-11.6-12.76V6.55z"/>
	<rect x="691.25" y="38.15" class="st0" width="21.31" height="81.17"/>
	<path class="st0" d="M832.86,36.55c-12.18,0-21.74,6.52-27.11,18.7c-3.62-11.6-12.61-18.7-25.37-18.7
		c-12.18,0-20.73,6.09-25.8,18.84V38.15l-21.02,2.2v78.97h21.16V78.3c0-14.93,4.64-24.06,16.23-24.06
		c12.03,0,15.51,7.54,15.51,20.44v44.64h21.16V78.3c0-14.93,4.64-24.06,16.23-24.06c12.03,0,15.51,7.54,15.51,20.44v44.64h21.16
		V68.73C860.55,49.45,850.26,36.55,832.86,36.55z"/>
	<path class="st0" d="M951.43,67.13c0-20.73-13.48-30.58-33.63-30.58c-17.97,0-33.19,8.26-40.01,26.09l19.13,5.51
		c2.9-9.28,9.42-15.07,19.86-15.07c10.44,0,14.49,4.2,14.49,9.42c0,2.46-1.01,4.35-3.04,5.94c-1.88,1.45-6.23,2.9-12.9,4.2
		c-15.65,3.04-23.63,5.51-29.42,9.13c-5.94,3.91-10,9.28-10,18.55c0,12.76,10,20.44,25.66,20.44c13.36,0,24.98-6.79,30.29-17.77
		v16.97h19.61v0c0.01,0,0.03,0,0.04,0C951.51,108.05,951.43,67.13,951.43,67.13z M909.83,105.26c-8.26,0-12.61-2.75-12.61-8.7
		c0-6.96,5.65-9.42,19.71-12.47c8.55-1.88,13.05-3.48,14.93-5.8v4.93C931.86,92.07,924.47,105.26,909.83,105.26z"/>
	<path class="st0" d="M280.71,28.08h0.09c6.5,0,11.76-5.27,11.76-11.76v0c0-6.53-5.32-11.81-11.85-11.76l-0.09,0
		c-6.46,0.05-11.67,5.3-11.67,11.76v0C268.95,22.81,274.21,28.08,280.71,28.08z"/>
	<path class="st0" d="M701.71,28.08h0.09c6.5,0,11.76-5.27,11.76-11.76v0c0-6.53-5.32-11.81-11.85-11.76l-0.09,0
		c-6.46,0.05-11.67,5.3-11.67,11.76v0C689.95,22.81,695.21,28.08,701.71,28.08z"/>
	<path class="st0" d="M462.17,6.58c-31.14,0-56.47,25.33-56.47,56.47s25.33,56.47,56.47,56.47s56.47-25.33,56.47-56.47
		S493.31,6.58,462.17,6.58z M462.17,99.35c-20.02,0-36.3-16.29-36.3-36.3s16.29-36.3,36.3-36.3c20.02,0,36.3,16.29,36.3,36.3
		S482.18,99.35,462.17,99.35z"/>
</g>
<path class="st0" d="M28.55,94.44V27.2c29.32,0,45.02-16.96,63.98-16.96v22.14C74.46,33.28,65.28,43.72,49.58,44.9v8.85
	c17.48,0,25.47-11.06,42.95-11.92V62.2c-12.44,0-25.47,11.92-43.24,11.92l0.3,16.77c0,0,29.92-3.55,56.28,17.48l-12.74,16.88
	c0,0-35.84-30.51-79.38,0L1,108.36C1,108.36,13.14,98.29,28.55,94.44z"/>
</svg>
