<?xml version="1.0" encoding="utf-8"?>
<!-- Generator: Adobe Illustrator 26.0.1, SVG Export Plug-In . SVG Version: 6.00 Build 0)  -->
<svg version="1.1" id="foresight-logo-footer" xmlns="http://www.w3.org/2000/svg" xmlns:xlink="http://www.w3.org/1999/xlink"
	 x="0px" y="0px" viewBox="0 0 80.6 86.5" style="enable-background:new 0 0 80.6 86.5;" xml:space="preserve">
<style type="text/css">
	.st0{fill:none;}
	.st1{fill:url(#Path_774_00000008869808557960409230000016018356421842704544_);}
</style>
<g id="Layer_1">
	<line id="Line_202" class="st0" x1="7.9" y1="58.9" x2="7.9" y2="58.9"/>
	
		<linearGradient id="Path_774_00000169517206241574907780000009341805755686597014_" gradientUnits="userSpaceOnUse" x1="-337.7455" y1="719.7103" x2="-339.0616" y2="718.6903" gradientTransform="matrix(80.56 0 0 -86.48 27289.0801 62231.957)">
		<stop  offset="0" style="stop-color:#FF92B5"/>
		<stop  offset="0.23" style="stop-color:#EF78D6"/>
		<stop  offset="0.36" style="stop-color:#E86EE3"/>
		<stop  offset="0.4" style="stop-color:#E06CE5"/>
		<stop  offset="0.68" style="stop-color:#A75CF3"/>
		<stop  offset="0.89" style="stop-color:#8352FC"/>
		<stop  offset="1" style="stop-color:#764EFF"/>
	</linearGradient>
	<path id="Path_774" style="fill:url(#Path_774_00000169517206241574907780000009341805755686597014_);" d="M29.9,0
		C18.3,0,8.9,9.4,8.9,21.1v0.7L20,36.2c-8.7,2.2-15,9.6-15.8,18.5L0,86l2,0.3c1,0.1,1.9,0.2,2.9,0.2c4.6,0,9-1.5,12.6-4.3
		c4.4-3.4,7.4-8.4,8.1-13.9l1.3-9.5h15.7c5.9,0,10.9-4.3,11.8-10.1c0.1-0.5,0.1-0.9,0.1-1.4l0,0v-0.1c0-2.7-0.9-5.2-2.6-7.3
		L39.1,23.1h20.4c11.6,0,21.1-9.4,21.1-21.1V0H29.9z M21.6,67.7c-0.6,4.5-2.9,8.5-6.5,11.2c-3,2.3-6.7,3.5-10.5,3.4l3.2-23.6h15.1
		L21.6,67.7z M42.7,54.6H8.3c0.9-8,7.4-14.3,15.5-14.9h19.3c4.1,0,7.4,3.3,7.4,7.4c0,0.3,0,0.7-0.1,1C49.8,51.9,46.5,54.7,42.7,54.6
		z M43.6,35.6H24.7l-9.6-12.5H34L43.6,35.6z M59.5,19H13.1c1.1-8.5,8.3-14.9,16.9-14.9h46.4C75.3,12.6,68.1,19,59.5,19z"/>
</g>
</svg>
