<?xml version="1.0" encoding="utf-8"?>
<!-- Generator: Adobe Illustrator 26.3.1, SVG Export Plug-In . SVG Version: 6.00 Build 0)  -->
<svg version="1.1" id="Layer_1" xmlns="http://www.w3.org/2000/svg" xmlns:xlink="http://www.w3.org/1999/xlink" x="0px" y="0px"
	 viewBox="0 0 271.1 86.5" style="enable-background:new 0 0 271.1 86.5;" xml:space="preserve">
<style type="text/css">
	.st0{fill:#B05BE1;}
	.st1{fill:url(#SVGID_1_);}
	.st2{fill:url(#SVGID_00000014593135579681661000000012589413548151206302_);}
</style>
<g>
	<g>
		<path class="st0" d="M91.4,38.4h-2.8v-3.5h2.8v-1.1c0-7.5,5.7-8.4,8.5-8.4c1,0,1.7,0.1,1.7,0.1v3.7c0,0-0.4-0.1-1.1-0.1
			c-1.7,0-4.8,0.5-4.8,4.8v1h5.4v3.5h-5.4v18.9h-4.3V38.4z"/>
		<path class="st0" d="M115.8,34.1c6.8,0,12.3,5,12.3,11.9c0,6.9-5.5,11.9-12.3,11.9c-6.8,0-12.3-5-12.3-11.9
			C103.6,39,109.1,34.1,115.8,34.1z M115.8,54.1c4.3,0,7.8-3.4,7.8-8.2c0-4.7-3.5-8.1-7.8-8.1c-4.3,0-7.8,3.4-7.8,8.1
			C108,50.7,111.6,54.1,115.8,54.1z"/>
		<path class="st0" d="M133.3,34.6h4.2v4c0,0.9-0.1,1.7-0.1,1.7h0.1c1-3.3,3.7-5.9,7.2-5.9c0.6,0,1.1,0.1,1.1,0.1v4.3
			c0,0-0.6-0.1-1.3-0.1c-2.8,0-5.3,2-6.4,5.3c-0.4,1.3-0.5,2.7-0.5,4.1v9.3h-4.4V34.6z"/>
		<path class="st0" d="M159.8,34.1c6.4,0,9.8,4.8,9.8,10.6c0,0.6-0.1,1.9-0.1,1.9h-16.6c0.2,5,3.8,7.5,7.8,7.5
			c3.9,0,6.7-2.6,6.7-2.6l1.8,3.2c0,0-3.4,3.2-8.8,3.2c-7.1,0-12-5.2-12-11.9C148.4,38.7,153.3,34.1,159.8,34.1z M165.2,43.3
			c-0.1-3.9-2.6-5.8-5.5-5.8c-3.3,0-6,2.1-6.6,5.8H165.2z"/>
		<path class="st0" d="M175.2,51.4c0,0,2.6,2.6,6.5,2.6c1.9,0,3.8-1,3.8-2.8c0-4.2-11.7-3.3-11.7-10.7c0-4.1,3.7-6.5,8.2-6.5
			c5,0,7.3,2.5,7.3,2.5l-1.8,3.3c0,0-2-2-5.6-2c-1.9,0-3.7,0.8-3.7,2.8c0,4.1,11.7,3.2,11.7,10.6c0,3.8-3.2,6.6-8.2,6.6
			c-5.6,0-8.6-3.3-8.6-3.3L175.2,51.4z"/>
		<path class="st0" d="M195,25.6h4.4v4.4H195V25.6z M195,34.6h4.4v22.7H195V34.6z"/>
		<path class="st0" d="M214.5,63c4,0,7.2-1.8,7.2-6.4v-1.7c0-0.7,0-1.4,0-1.4h-0.1c-1.3,2.2-3.5,3.5-6.7,3.5
			c-6.3,0-10.1-5.1-10.1-11.6c0-6.5,3.6-11.4,9.9-11.4c5.5,0,7.1,3.4,7.1,3.4h0.1c0,0,0-0.3,0-0.7v-2.1h4.2v21.8
			c0,7.5-5.7,10.4-11.5,10.4c-2.7,0-5.6-0.8-7.8-1.9l1.4-3.4C208.2,61.5,211,63,214.5,63z M221.7,45.5c0-5.9-2.9-7.6-6.4-7.6
			c-4,0-6.2,2.9-6.2,7.5c0,4.7,2.5,7.9,6.6,7.9C218.9,53.3,221.7,51.4,221.7,45.5z"/>
		<path class="st0" d="M232.8,25.6h4.4v11.6c0,1.1-0.1,1.9-0.1,1.9h0.1c1-2.2,3.9-5.1,8.4-5.1c5.3,0,7.8,2.9,7.8,8.7v14.6H249V43.8
			c0-3.2-0.7-5.7-4.3-5.7c-3.4,0-6.2,2.3-7.2,5.6c-0.3,0.9-0.4,1.9-0.4,3v10.6h-4.4V25.6z"/>
		<path class="st0" d="M260.9,38.4h-3v-3.5h3.1v-6.6h4.2v6.6h5.5v3.5h-5.5v10.1c0,4.5,3.2,5.1,4.9,5.1c0.6,0,1-0.1,1-0.1v3.9
			c0,0-0.6,0.1-1.5,0.1c-2.9,0-8.7-0.9-8.7-8.5V38.4z"/>
	</g>
	<g>
		<g>
			<g>
				<linearGradient id="SVGID_1_" gradientUnits="userSpaceOnUse" x1="15.7003" y1="52.4167" x2="0.1591" y2="65.342">
					<stop  offset="0" style="stop-color:#FF92B5"/>
					<stop  offset="0.2305" style="stop-color:#EF78D6"/>
					<stop  offset="0.3634" style="stop-color:#E86EE3"/>
					<stop  offset="0.4012" style="stop-color:#E06CE5"/>
					<stop  offset="0.6811" style="stop-color:#A75CF3"/>
					<stop  offset="0.8889" style="stop-color:#8352FC"/>
					<stop  offset="1" style="stop-color:#764EFF"/>
				</linearGradient>
				<line class="st1" x1="7.9" y1="58.9" x2="7.9" y2="58.9"/>
			</g>
		</g>
		
			<linearGradient id="SVGID_00000088848148983992621060000009708055465539912358_" gradientUnits="userSpaceOnUse" x1="80.3064" y1="-8.577" x2="-25.7304" y2="79.612">
			<stop  offset="0" style="stop-color:#FF92B5"/>
			<stop  offset="0.2305" style="stop-color:#EF78D6"/>
			<stop  offset="0.3634" style="stop-color:#E86EE3"/>
			<stop  offset="0.4012" style="stop-color:#E06CE5"/>
			<stop  offset="0.6811" style="stop-color:#A75CF3"/>
			<stop  offset="0.8889" style="stop-color:#8352FC"/>
			<stop  offset="1" style="stop-color:#764EFF"/>
		</linearGradient>
		<path style="fill:url(#SVGID_00000088848148983992621060000009708055465539912358_);" d="M29.9,0C18.3,0,8.9,9.5,8.9,21.1v0.7
			L20,36.2C11.5,38.3,5,45.6,4.2,54.7L0,86l2,0.3c1,0.1,2,0.2,2.9,0.2c4.6,0,9-1.5,12.6-4.3c4.5-3.4,7.3-8.3,8.1-13.9l1.3-9.5h15.7
			c5.9,0,11-4.4,11.8-10.1c0.1-0.5,0.1-0.9,0.1-1.4h0c0,0,0-0.1,0-0.1c0-2.7-0.9-5.2-2.5-7.3L39.1,23.1h20.4
			c11.6,0,21.1-9.5,21.1-21.1V0H29.9z M21.6,67.7c-0.6,4.5-2.9,8.5-6.5,11.2c-3,2.3-6.7,3.5-10.5,3.4l3.2-23.6h15.1L21.6,67.7z
			 M42.7,54.6H8.3c1-8.1,7.4-14.3,15.5-14.9l19.3,0c4.1,0,7.4,3.3,7.4,7.4c0,0.3,0,0.6-0.1,1C49.9,51.8,46.6,54.6,42.7,54.6z
			 M43.6,35.6c-0.2,0-18.9,0-18.9,0l-9.7-12.5H34L43.6,35.6z M59.5,19H13.1c1-8.4,8.2-14.9,16.8-14.9h46.4
			C75.3,12.5,68.2,19,59.5,19z"/>
	</g>
</g>
</svg>
