<svg version="1.1" id="Layer_1" xmlns="http://www.w3.org/2000/svg" x="0" y="0" viewBox="0 0 1464 223.2" style="enable-background:new 0 0 1464 223.2" xml:space="preserve"><style>.st0,.st1,.st15,.st23,.st25,.st3,.st8{fill-rule:evenodd;clip-rule:evenodd;fill:#2e3191}.st1,.st15,.st23,.st25,.st3,.st8{fill:#2e3192}.st15,.st23,.st25,.st3,.st8{fill:#2d3091}.st15,.st23,.st25,.st8{fill:#292b8e}.st15,.st23,.st25{fill:#25288d}.st23,.st25{fill:#21248a}.st25{fill:#2e3091}.st33,.st39,.st40,.st43,.st58,.st60{fill-rule:evenodd;clip-rule:evenodd;fill:#26288d}.st39,.st40,.st43,.st58,.st60{fill:#22258b}.st40,.st43,.st58,.st60{fill:#151585}.st43,.st58,.st60{fill:#23268c}.st58,.st60{fill:#171885}.st60{fill:#fefefe}.st64{fill:#241888}.st64,.st71,.st74,.st75{fill-rule:evenodd;clip-rule:evenodd}.st74,.st75{fill:#171986}.st75{fill:#191a86}</style><path class="st0" d="M138.4 3.6c38.3 11 64.8 34.7 78.1 72.7-.7 3.9 2.1 7.2 1.9 11 0 .1.1.3.2.3.2 0 .3-.1.5-.1 2.7 4 1.7 8.8 2.8 13.1-.6 7.4-.6 14.7 0 22.1-2.6 21.8-10.1 41.6-24 58.6-13.7 16.7-30.4 29.5-51.6 35.6-2.2.5-4.6.4-6.8 1.4-.4.2-1 .1-.6.8-3.4 1.9-7.3 2-11 2.6-10.9 0-21.7.5-32.6 0-3.8-.5-7.6-.8-11.1-2.6-2.1-2-5-1.4-7.5-2.2-12.6-3.1-23.5-9.7-33.6-17.5-17.2-13.3-29-30.6-36.6-50.8-.2-.5 0-1 0-1.6-1.2-7.8-3.2-15.4-4.7-23.2-1-9.2 0-18.3-.3-27.5C7.9 54.8 30.8 25.9 68.8 8.6c.4-.2 1-.1 1.5-.2 2.2-.3 4.3-1 6.4-1.5.1 0 .2-.2.2-.2 0-.2-.1-.3-.2-.5 4-2.9 8.9-2 13.3-3.3 1.7-.5 3.1-2 5.1-1.6 6.4 1.2 12.9-.9 19.3-.1 5 .6 10.1-.4 14.9 2 1.3 0 2.6.1 3.9.1 1.7.6 3.4.6 5.2.3zM1206 97.3c-5.7 0-11.3-.1-16.9 0-1.8 0-2.4-1-2.8-2.5-2.3-7.3-7.3-11.5-14.8-12.4-8.8-1-16.4 1.3-21.7 9-7.5 11-7.6 31.3 0 42.2 6 8.6 14.7 10.4 24.3 8.8 8.4-1.4 13.1-6.9 15-15 .7-2.8.1-3.8-2.9-3.6-4.4.2-8.8 0-13.2.1-2.2.1-3.4-.5-3.1-2.9v-1.1c-.3-10.9-.3-10.9 10.5-10.9 7.7 0 15.5.1 23.2-.1 2.8-.1 4 .6 3.9 3.7-.2 13.7-.2 27.5 0 41.2 0 2.9-.8 4.3-3.8 3.8-.7-.1-1.4-.1-2.1 0-5.6 1.2-8.1-1.3-8.1-6.8 0-.5-.3-1-.5-1.5-.1-.1-.3-.2-.7-.5-3.8 3.3-7.6 6.9-12.7 8.7-16.7 5.7-37.1-1.1-47.1-15.9-12.1-17.9-10.7-45.6 3-62.2 14.8-17.9 45.7-19.2 61.8-2.5 5.1 5.6 7.9 12.3 8.7 20.4z"/><path class="st1" d="M1372.7 149.3c-6.7 8.7-15.4 11-25.4 9.5-9.9-1.4-15.9-6.6-17.1-16.5-1.8-15.8-.4-31.7-.8-47.5 0-1.7.5-2.7 2.4-2.6h.5c14.7-1.5 14.6-1.5 14.7 13.1.1 9.3-.5 18.7.5 28 .8 8.1 3.8 11.4 10.2 11.6 8 .3 12.3-2.9 13.6-10.8 2-11.9.8-23.9.8-35.9 0-4.6.9-6.3 6-6.1 12 .4 12 .1 12 12.2 0 16.4-.1 32.8.1 49.2 0 3.1-.7 4.6-4.1 4.2-1.6-.2-3.2 0-4.8 0-7.8-.1-7.8-.1-8.6-8.4z"/><path class="st0" d="m272.7 119.5-1 1c-.6.7-1 1.5-1 2.4-.1 10.9-.2 21.8 0 32.7 0 .7.3 1.4.7 2-6.2 1.2-12.3 1.2-18.5 0 1.2-2.1.8-4.5.8-6.7V74.4c0-2.2-.6-4.6.8-6.7 6.5-1 13-.3 19.5-.4 12.3-.1 24.7 0 37-.1 1.7 0 3.5.6 5.1-.6 1.6 5.2 1.9 10.5-.1 15.7-14.4-.3-28.8-.7-43.2.2l-.3.2h-.4c-1.7 1-1.5 2.7-1.4 4.1.4 5.6-1.2 11.4 1 16.9.3.2.3.4.1.6 1.3 1.9 3.2.9 4.8.9 11 .2 22.1-.2 33.1.3 1.3 3.9.5 7.9.4 11.9-1.3 2-3.4 1.6-5.2 1.6H278c-1.9 0-3.7-.5-5.3.5zM548.8 111.8c1 1.4.9 3 .9 4.5 0 12.6-.1 25.3.1 37.9 0 3.2-.9 4.4-4.1 4.1-4.5-.5-10.3 1.9-13.2-.9-2.7-2.6-.7-8.3-.8-12.7-.1-9.1.1-18.2.2-27.3.8-.3 1.2 0 1.4.8.1 12.3.1 24.6 0 32.9-.3-8.7.6-21.4-.4-34-1.5-1.3.5-3.8-1.7-4.8-2.1-7.3-7.5-9.1-14.3-8.7-.2-1.6.8-1.5 1-1.4-1 .2-2.6.5-4 1.7-7 3.1-8.1 9.7-9.5 16.1-1.5 1.8-.7 3.9-.7 5.9.2 10.6-.6 21.2.4 31.9-5.5 1.2-11.1 1.3-16.6 0 .7-18.9.1-37.7.3-56.6 0-2.6-.3-5.2.3-7.8 5.1-.8 10.1-.9 15.2.1.1.7.1 1.4.3 2.1.3 1.4-1 3.4 1.1 4.1 1.7.6 2.1-1.4 3.1-2.2 3-2.6 6.1-5.3 10.3-5.9 5.7.1 11.4-1 17 .8 8.4 1.4 12 7.1 13.3 14.9-.7 16 .1 32-.2 42.4v-32.4c0-2.1-.6-3.9.6-5.5zM395.3 91.2c2.2 2 6 .9 7.7 3.9.1 1.2.8 1.9 2 2 1.4 1.2 2.4 2.7 2.8 4.5.7 3.1.3 6.4 1.5 9.4l-.1-.1c.9 11.2.1 22.4.4 33.5.1 4.4-.5 8.7.4 13.1-5.5 1.3-11.1 1.2-16.6 0 1-1.2.9-2.6.9-4v-33.3c0-1.3.5-2.9-1.1-3.7-1.2-5.1-2.5-10.1-7.6-12.7-4.6-1.8-6.5-1.8-11.2.3-3.3 2-5.6 4.8-7.4 8.1-2.6 3.8-2.7 8.2-2.8 12.5-.1 9.8 0 19.6 0 29.4 0-9.8-.1-19.6.1-29.4 0-1.4-1.4-3.7 1.4-4.3.1 11.4.1 22.8.2 34.2 0 2.7-.7 3.9-3.6 3.5-4.4-.5-9 .8-13.4-.8 1.3-1.9.9-4 .9-6.1v-52c0-2.1-.4-4.2.6-6.2 3.7-1.5 7.6-.7 11.3-.6 4.1 0 1.3 4 2.7 5.7.9 3 1.7 2.1 3.2.2 2.6-3.3 5.6-6.1 10.1-6.7 6-1.7 11.8-.3 17.6-.4zM596.5 91.9c10.6-.1 19.9 6.1 22.9 17 .1 4-2 5.1-5.8 4.8-3.3-.3-6.6-.4-9.9.2-1.7-4.1-3.6-8-7.6-10.2-4.6-2.6-9.1-2.7-13.5.4-3.7 2.6-6.2 6.2-8.2 10.1-3 5.8-3.6 11.7-1.3 17.9 2.2 4.3 3.4 9.2 7.3 12.5 4.2 3.9 12.3 4.2 16.8.6 2.2-2.5 4.9-4.7 5.9-8 2.7-3.3 12.8-4.5 16.4-2 .6.4.1.9.1 1.4-1.7 11.4-8.7 18.1-19.3 21.5-1.3 0-2.8-1-3.9.4-.8.3-1.6.5-2.4.8-3.2-.9-6.5-.2-9.7-.4-1.9-.8-3.9-1.5-6-.8-10.8-3.2-17.9-10-20.9-20.9-.9-8.1-.5-16.1 0-24.2 3.3-12.4 11.8-19.3 24-22.2 5 1 10.2-.9 15.1 1.1z"/><path class="st1" d="M1234.7 102.7c5.5-7.5 11.6-12.2 20.6-12 3 .1 4.3.9 3.8 3.9v.5c0 3.9 1.2 8.4-.4 11.4-1.7 3.1-6.6.6-10.1 1.2-6.8 1.2-11.7 6.4-12.8 14.2-1.4 10.1-.8 20.4-.7 30.6 0 3.6-.5 5.2-4.7 5.1-13-.2-13 0-13-13.2 0-15.7.2-31.3-.1-47-.1-4.5 1.4-6 5.7-5.3.3.1.7 0 1.1 0 9.7.1 9.7.1 10.6 10.6z"/><path class="st0" d="M738.9 67.7c.1 29 .1 58 .3 87.1 0 2.7-.8 3.9-3.6 3.6-4.4-.5-9 .8-13.4-.8.7-1.9.4-3.8.4-5.8V73.6c0-1.9-.2-3.9.2-5.8 4.7-1.1 9.4-.8 14.2-.2.7 2.6.3 5.2.3 7.9v73.8c0 1.8.4 3.6 0 4.5 0-27.8-.1-56.6.1-85.3.2-.8.7-1.1 1.5-.8zM338.4 157.7c-5.6.8-11.2 1.2-16.8-.2.7-15 .1-29.9.3-44.9.1-6.5-.3-13 .3-19.5 5-1 10.1-.7 15.2-.2 1.4 1.9.9 4 .9 6.1.1 19.2 0 38.5.1 57.7v1zM643.6 157.6c-5.5 1.1-11 1.3-16.5 0 .8-10.7.2-21.5.4-32.2.2-10.7-.3-21.5.3-32.2 4.7-1 9.4-.7 14.1-.2 1.4 1.9.9 4.1.9 6.1v52.3c0 2.1-.4 4.2.8 6.2z"/><path d="M254.8 67.7c0 28.2 0 56.3-.1 84.5 0 1.9 1.2 4.4-1.8 5.4-.1-10.3-.3-20.7-.3-31 0-19.6.1-39.3.2-58.9.6-.6 1.3-.6 2 0z" style="fill-rule:evenodd;clip-rule:evenodd;fill:#252a8f"/><path class="st3" d="M337.2 80.3c-5.2-.3-10.6 1.6-15.7-1 .1-.5.3-1 .3-1.5.4-3.4-1.7-8.2 1-9.9 3.3-2.1 8.1-.5 12.3-.7 1.9-.1 3 .9 3 2.8 0 3.5.9 7-.9 10.3z"/><path class="st0" d="M643.8 67.7v10.6c-5.3 1.7-10.7 1.6-16 .1-1.2-11.2-1.2-11.2 9.8-11.2 2.1 0 4.2-.5 6.2.5z"/><path d="M643.6 157.6c-3.1-.9-1.9-3.5-1.9-5.3-.1-19.7-.1-39.4-.1-59.1.7-.6 1.4-.6 2.1 0 .3 21.4.7 42.9-.1 64.4z" style="fill-rule:evenodd;clip-rule:evenodd;fill:#2b2d8e"/><path d="M351 93.1c0 19.7 0 39.5-.1 59.2 0 1.9 1.2 4.4-1.9 5.3-.9-12.9-.2-25.8-.4-38.8-.1-8.6.1-17.1.2-25.7.7-.6 1.4-.6 2.2 0z" style="fill-rule:evenodd;clip-rule:evenodd;fill:#272c91"/><path d="M723.1 67.7v83.7c0 2 .7 4.2-.9 6.1-.1-3.3-.4-6.6-.4-9.9 0-26.6.1-53.3.2-79.9.4-.4.8-.4 1.1 0z" style="fill-rule:evenodd;clip-rule:evenodd;fill:#2c288c"/><path d="M393.1 116.6c.2-.5.6-1.8.9-1.1.9 1.6 1.4 3.5 1.3 5.5-.1 10.8 0 21.6-.1 32.4 0 1.6.6 3.7-1.9 4.2-.7-13.7-.2-27.4-.2-41z" style="fill-rule:evenodd;clip-rule:evenodd;fill:#292e91"/><path class="st8" d="M271.4 157.6c-1.9-.3-1.9-1.8-1.9-3.2v-30.3c0-1.6-.1-3.2 2.1-3.5.1 12.3.6 24.6-.2 37z"/><path class="st0" d="M338.2 92.3c1.3.8 1 2.1 1 3.3v59.3c0 1 .3 2.1-.8 2.8-.1-.2-.2-.3-.3-.5-.7-15.9-.1-31.9-.3-47.8-.1-5.1 0-10.2 0-15.2-.1-.7.1-1.3.4-1.9z"/><path d="M628 93.1c0 19.6 0 39.2-.1 58.9 0 1.9.6 3.9-.8 5.5-.7-21.5-.4-43-.2-64.4.4-.4.7-.4 1.1 0z" style="fill-rule:evenodd;clip-rule:evenodd;fill:#281c89"/><path d="M488.4 93.1c0 19.6 0 39.2-.1 58.8 0 1.9.6 3.9-.8 5.6 0-21.5-.1-43-.1-64.4.4-.4.7-.4 1 0z" style="fill-rule:evenodd;clip-rule:evenodd;fill:#232388"/><path d="M322.5 93.1c0 19.6 0 39.2-.1 58.8 0 1.9.6 3.9-.8 5.6 0-21.5-.1-43-.1-64.4.3-.4.6-.4 1 0z" style="fill-rule:evenodd;clip-rule:evenodd;fill:#291386"/><path d="M254.8 67.7h-2c.1-1.6 1.3-1.4 2.3-1.4 20.4.1 40.7.2 61.1.2-1.5 1.9-3.6 1.1-5.4 1.1-18.8.1-37.4.1-56 .1z" style="fill-rule:evenodd;clip-rule:evenodd;fill:#1f2189"/><path d="M712.7 150.8c-1.2.5-1.2.5-1.2-.3v-24.2c0-9 .3-18-1.2-26.9 1.9 2.2 2.5 4.9 2.5 7.7 0 14.7 0 29.2-.1 43.7z" style="fill-rule:evenodd;clip-rule:evenodd;fill:#222990"/><path d="M365.7 120.6c-1.8 2.2-.9 4.7-.9 7.1-.1 9.6 0 19.2-.6 28.8.1-13.7-1.8-27.5.6-41.2.2-1.1-.3-3.3 2.2-3-.5 2.8-.9 5.5-1.3 8.3z" style="fill-rule:evenodd;clip-rule:evenodd;fill:#26278c"/><path class="st15" d="M129.3 3.1c-9.3-1.9-18.7-.5-28.1-1-2-.1-4.2.7-6-.9C105.1 0 115-.6 125 .9c1.7.3 3.5.1 4.3 2.2z"/><path d="M548.8 111.8v44.6h-1.2c0-11.8-.1-23.7.1-35.5.1-4.7-1-9.4.7-14 .1 1.7.3 3.3.4 4.9z" style="fill-rule:evenodd;clip-rule:evenodd;fill:#28288b"/><path d="M95.2 221.7c10.9-1.2 21.7-1.2 32.6 0-10.9 1.8-21.7 2.1-32.6 0z" style="fill-rule:evenodd;clip-rule:evenodd;fill:#26298d"/><path d="M478.3 152.2c-1.4-.5-1.5-1.8-1.5-3v-42.1c0-.8.6-1.6.9-2.4.2 15.9.4 31.7.6 47.5z" style="fill-rule:evenodd;clip-rule:evenodd;fill:#1e2490"/><path d="M410 157.5c-1.2-1.1-.9-2.6-.9-4 0-14.2.1-28.4.1-42.7 1 .4 1.1 1.2 1.1 2.1-.1 15-.2 29.8-.3 44.6z" style="fill-rule:evenodd;clip-rule:evenodd;fill:#192594"/><path class="st15" d="M1.3 96.3c1.8 9.5.3 19 .8 28.5.7 1.3 1.3 2.6-.9 3.1-1.1-10.5-2.1-21 .1-31.6z"/><path d="M272.8 82.4c.9-1.1 2.2-1 3.4-1h36.9c1.1 0 2.1 0 3 .8-14.5.1-28.9.2-43.3.2z" style="fill-rule:evenodd;clip-rule:evenodd;fill:#202389"/><path class="st8" d="M271.6 103.7c-1.1-.2-2-.7-2-2V84.8c0-1.5 1-2.1 2.4-2.1-.1 6.9-.2 13.9-.4 21z"/><path d="M337.2 80.3v-3.7c-.1-10.1 1.3-8.5-8.3-9-5.5-.3-7.3 1.5-6.6 6.7.2 1.6.6 3.5-.8 5-1-12.9-1-12.9 11.5-12.9 1.7 0 3.5.2 5.2.3 1 4.4.7 8.7.2 13.1-.2.5-.5.7-1.2.5z" style="fill-rule:evenodd;clip-rule:evenodd;fill:#271186"/><path d="M504.2 157.5c-1.4-1.2-.9-2.9-.9-4.4v-32.9c0-1-.2-3.3 1.2-.4-.2 12.6-.2 25.2-.3 37.7z" style="fill-rule:evenodd;clip-rule:evenodd;fill:#1c1b89"/><path class="st23" d="M272.7 119.5c1.5-1.8 3.6-1 5.4-1.1 8.5-.1 17 0 25.6 0 2.1 0 4.2.1 6.1-1.1.4.3.7.6 1 1.1-.2 1.6-1.4 1.2-2.4 1.2-11.9.1-23.8 0-35.7-.1z"/><path d="M309.7 105.7c-11.1 0-22.2.1-33.3 0-1.6 0-3.6.7-4.7-1.4 10.7.1 21.5.2 32.2.4 1.9 0 3.8.2 5.8.3v.7z" style="fill-rule:evenodd;clip-rule:evenodd;fill:#202186"/><path class="st25" d="M1.2 127.9c1.1-.8.9-2 .9-3.1.4.3 1.2.6 1.2.9.4 7.2 3.6 14 3 21.3-2.8-6.1-3.7-12.6-5.1-19.1z"/><path d="M619.7 136.9c-5.6-2.4-11.1-2.6-16.6.5.1-3.2 1.7-4.5 4.9-4.2 3.3.3 6.5.1 9.8 0 3.4 0 3.7 1.2 1.9 3.7z" style="fill-rule:evenodd;clip-rule:evenodd;fill:#21238d"/><path d="M557.4 113.2c.5 8.1.5 16.1 0 24.2-2.5-8-2-16.1 0-24.2z" style="fill-rule:evenodd;clip-rule:evenodd;fill:#26268b"/><path d="M573.1 132.2c-4.5-3.9-1.9-8.8-1.6-13.3.1-1.3 1-3.7 2.9-4.6-1.4 5.9-1.4 11.9-1.3 17.9z" style="fill-rule:evenodd;clip-rule:evenodd;fill:#282b8f"/><path d="M652.5 132.3c1.8 6.4-.2 13 1.7 19.4-4.2-6.2-4.3-12.7-1.7-19.4z" style="fill-rule:evenodd;clip-rule:evenodd;fill:#272a8f"/><path d="M628 78.3h15.8c.6 2.8-1.5 2.2-2.9 2.2-4.3 0-8.7-.1-13-.2-.6-.7-.5-1.4.1-2z" style="fill-rule:evenodd;clip-rule:evenodd;fill:#25298d"/><path d="M628 78.3v2c-2.8-4.1-.5-8.6-1.1-12.9 0-.3.7-1 1-.9 5.3.6 10.9-1.7 16 1.3h-5.2c-10.8-.1-10.8-.1-10.7 10.5z" style="fill-rule:evenodd;clip-rule:evenodd;fill:#221d89"/><path d="M535.1 92c-5.7-.5-11.4 1-17-.8 5.7-1.8 11.5-2.5 17 .8z" style="fill-rule:evenodd;clip-rule:evenodd;fill:#24278c"/><path class="st33" d="M596.5 91.9c-5-.3-10.1 1.2-15-.9 5-.9 10.2-3 15 .9zM597.2 145.4c-3.6 4.6-13.6 4.2-16.8-.6 5.5 2.9 11.1 2.9 16.8.6z"/><path d="M603.7 114c2.9-1.7 6.1-.9 9-.7 3.6.2 5.7-.9 6.7-4.3.4 1.7.7 3.3 1.1 5h-16.8z" style="fill-rule:evenodd;clip-rule:evenodd;fill:#191c88"/><path d="M221.8 122.6c-1.5-7.4-1.5-14.7 0-22.1.5 7.4.5 14.8 0 22.1z" style="fill-rule:evenodd;clip-rule:evenodd;fill:#1b1d87"/><path d="M395.3 91.2c-5.7 1.5-11.6-.5-17.4.7 5.7-3 11.5-2.4 17.4-.7z" style="fill-rule:evenodd;clip-rule:evenodd;fill:#24268c"/><path d="M351 93.1h-2.2c4.9-2.7 10.1-1.1 15.1-.9 1.9.1.7 3.9.7 6.1-.6-4.9-3.5-5.9-7.9-5.3-1.9.3-3.8.1-5.7.1z" style="fill-rule:evenodd;clip-rule:evenodd;fill:#161687"/><path d="M653.4 107.9c1.7 2.7 4.5 2.1 7 2.1h9.9c-5.3 2.9-11 .9-16.5 1.1-1.2.1-.5-2-.4-3.2z" style="fill-rule:evenodd;clip-rule:evenodd;fill:#20218a"/><path class="st15" d="M374.3 104.2c3.5-3.6 7.5-3.2 11.6-1.1 0 0 0 .3-.1.5l-.4.4c-3.6-.4-7.4-.5-11.1.2z"/><path class="st39" d="M582.6 104.2c3.8-3.6 10.5-3.8 13.5-.4-4.5-.9-9.1-1.7-13.5.4z"/><path class="st40" d="M322.5 93.1c-.3 0-.7 0-1-.1 5.5-2.3 11.2-.9 16.8-.8-.1.2-.1.5-.2.7-.2.6-.5.6-.9.1-4.9.1-9.8.1-14.7.1z"/><path d="M488.4 93.1c-.3 0-.7 0-1-.1 5.3-1.9 10.6-2 15.9.1h-14.9z" style="fill-rule:evenodd;clip-rule:evenodd;fill:#141485"/><path class="st40" d="M628 93.1c-.4 0-.7 0-1.1-.1 5.6-1.9 11.3-2 16.9 0h-2.1c-4.6.1-9.1.1-13.7.1z"/><path d="M723.1 67.7H722c5.6-2.2 11.3-2.2 16.9 0h-1c-.4.5-.7.5-1.1 0h-13.7z" style="fill-rule:evenodd;clip-rule:evenodd;fill:#1e2089"/><path class="st43" d="M219.1 87.4c-2.7-3.3-3.7-7-2.6-11.2 1 3.7 3 7.2 2.6 11.2z"/><path d="M664 158.4c4.7-1.4 9.1.3 13.6 1.2-4.6.4-9.2.7-13.6-1.2z" style="fill-rule:evenodd;clip-rule:evenodd;fill:#22258a"/><path d="M863.9 127c-1.4-3.1 1.3-4 2.9-5.5 2.1 3.5-.4 4.5-2.9 5.5z" style="fill-rule:evenodd;clip-rule:evenodd;fill:#8b969b"/><path d="M309.7 105.7v-.7c2.4 4.3.7 9 1 13.5-.3-.4-.6-.7-1-1.1v-11.7z" style="fill-rule:evenodd;clip-rule:evenodd;fill:#222e9b"/><path class="st3" d="M338.4 79.7c-.1-4.4-.1-8.7-.2-13.1 1.8 4.4 1.4 8.7.2 13.1z"/><path d="M797.2 132.3c-.4-1-1.3-1-2.1-1.2.4-.4.7-.9 1.1-1.1 1.5-.7 3.3-3.1 4.4-1.2.9 1.9-1.7 2.8-3.4 3.5z" style="fill-rule:evenodd;clip-rule:evenodd;fill:#454444"/><path d="M416.8 134.4c1.6 4.3.5 8.7.7 13.1-2.1-4.3-1.2-8.7-.7-13.1z" style="fill-rule:evenodd;clip-rule:evenodd;fill:#191e8b"/><path class="st43" d="M76.6 216.9c3-.6 5.9.1 8.5 1.2 1.3.6-.6.6-1 1-2.8.1-5.2-.7-7.5-2.2z"/><path class="st39" d="M138.9 219.1c-.3-.4-2.4-.4-.8-1.1 2.5-1 5.3-1.8 8.2-1.1-2.3 1.6-4.9 1.8-7.4 2.2z"/><path class="st23" d="M583.5 158.6c3.5.4 7.2-1 10.5.9-3.5.4-7 .4-10.5 0-.3-.2-.4-.4-.3-.6.1-.2.2-.3.3-.3z"/><path d="M409.3 111c-1.7-3-2.3-6.1-1.5-9.4 1.9 2.9 1.6 6.2 1.5 9.4z" style="fill-rule:evenodd;clip-rule:evenodd;fill:#20238c"/><path d="M514 103.8c1.6-3.1 4.5-1.9 7.7-2.3-1.6 1.8-3.8.5-4.7 2.1-1 0-2 .1-3 .2z" style="fill-rule:evenodd;clip-rule:evenodd;fill:#22248c"/><path d="M862.5 131c-1.1 1.5-2.5 2.6-5 3 1.1-2.2 2.2-3.5 4-4l1 1z" style="fill-rule:evenodd;clip-rule:evenodd;fill:#6e716f"/><path class="st43" d="M76.7 6.2c-1.4 2.9-4 2.3-6.4 2.2 1.9-1.5 4.1-2.2 6.4-2.2z"/><path d="M460.3 106.9c2.5 2.4 2.5 4.8 0 7.3.6-2.5.6-4.9 0-7.3z" style="fill-rule:evenodd;clip-rule:evenodd;fill:#201f8a"/><path d="M583.5 158.6v.9c-1.7-.4-3.5-.8-5.2-1.2 1.8-1.1 3.6-1.3 5.2.3z" style="fill-rule:evenodd;clip-rule:evenodd;fill:#21258b"/><path d="M779 100.4c0 .4.1.8.1 1.2-.7 1.1-1.7 1.6-3.3 1.3.3-1.9 1.7-2.3 3.2-2.5z" style="fill-rule:evenodd;clip-rule:evenodd;fill:#777675"/><path class="st39" d="M138.4 3.6c-1.8 1-3.6 1.3-5.2-.3 1.8-.9 3.5-.2 5.2.3z"/><path d="M1116.3 115.2v-1.1c1-1.4 2.3-1 4-.9-1.1 1.6-2.5 2-4 2z" style="fill-rule:evenodd;clip-rule:evenodd;fill:#79787d"/><path d="M405 97.1c-.7 1.1-1.3.6-1.9 0-.6-.6-1.2-1.3-.1-2 1 .2 1.7.9 2 2z" style="fill-rule:evenodd;clip-rule:evenodd;fill:#23258c"/><path class="st23" d="M596.5 158.8c1.1-2.2 2.5-1.3 3.9-.4-1.3.1-2.6.2-3.9.4z"/><path d="M677.6 91v1.1c-1.9 0-3.9-.1-5.8-.1 1.7-1.9 3.9-1 5.8-1z" style="fill-rule:evenodd;clip-rule:evenodd;fill:#191b87"/><path class="st58" d="M456.7 92v-1c1.8-.2 3.5-.4 5.2.3-1.6 1.3-3.5.5-5.2.7z"/><path d="M531.3 112.2c2.1.8 1.4 2.6 1.5 4.2.3.2.4.5.3.7-.1.2-.2.3-.3.3h-1c-.1-1.7-.3-3.5-.5-5.2z" style="fill-rule:evenodd;clip-rule:evenodd;fill:#1e1c8a"/><path class="st60" d="M141.6 115.2c-7.2 13.3-12.5 27.5-18.1 41.5-3.9 9.8-8.1 19.5-13.5 28.6-.9 1.5-1.7 3.1-2.8 4.4-2.6 3.1-4.7 7.6-10.1 4.9-4.5-2.2-6-6.1-3.7-12.2 2.8-7.6 6.3-14.9 9.4-22.3 11.8-27.5 23.5-54.9 35.2-82.4 1.4-3.4 2.5-7 3.5-10.5.7-2.4-.2-3.3-2.7-2.2-3.2 1.4-6.5 2.6-9.7 3.9-.5-.4-.5-.9-.2-1.5 6-4.2 12.6-7.6 19.1-11 2.6-1.3 5.3-1.9 7.9.1 2.7 2.1 3.2 4.9 2.6 8-.8 4.3-1.7 8.5-2.7 13.4 5.7-2.1 10.7-3.9 15.7-5.7 3.7-1.3 7.5-1.9 11.4-1.9 11.2 0 18.3 8.5 16.3 19.5-1.1 6-4.2 11.1-7.8 15.9-1 1.1-1.9 2.3-3.3 3-6.5 5.9-14.2 9.4-22.3 12.5-.1.2-.3.4-.4.6-1.6.8-3.4.8-5.1 1.5-.5.1-1.1.1-1.6.1h-6.5c-2.8-.1-4.8-1.6-6.1-4-1.2-3.8-.1-7.2 1.8-10.5 2.1-3 4.1-6.1 6.8-8.5 4.4-2.9 8.9-5.7 14-7.4 2.5-.8 6.1-4 7.9-.4 1.4 2.9-2.8 4.3-5.1 5.7-3.1 2-6.2 4-9.1 6.3-.9.7-2.2 1.3-1.9 2.9 1.5 1 2.7.1 3.9-.5 5.4-2.8 9.9-6.7 14.2-10.9 2.7-2.6 4.6-6.1.5-9.5-2.2-1.3-4.4-.9-6.7-.1-13.3 3.9-22.6 12.1-28 24.9-.7 1.5-1.3 3.1-2.8 3.8zM71.7 78c-1.3 6.2-.2 12.6-.6 18.9-.2 3.1 2 2.7 3.9 2.7 11.1 0 22.2.2 33.3-.1 4.1-.1 5 1.3 5 5.1-.1 12.9 0 12.9-12.8 12.9-7.9 0-15.9-.1-23.8 0-1.7 0-3.5-.8-5 .8.4 12 0 23.9.2 35.9.1 3.7-1.3 5.6-5.2 5.4-4.7-.1-9.5-.1-14.3 0-3 0-4.4-1-4.4-4.3.1-31.3.1-62.7 0-94 0-4.4 2.7-4.2 5.5-4.2h54.4c14 0 12.4-1.5 12.5 12.4v4.2c.1 3.1-1.4 4.5-4.5 4.5-14.7-.1-29.5.4-44.2-.2z"/><path d="M71.7 78c1.5-1.5 3.3-.8 5-.8 12.8-.1 25.7-.2 38.5 0 3.5.1 4.7-1 4.4-4.5-.4-4.7 1.9-10.7-.9-13.8-2.9-3.1-9-.9-13.7-1-17.2-.1-34.5 0-51.7-.1-3.6 0-4.8.9-4.8 4.7.2 30.6.1 61.2 0 91.8 0 3.4.9 4.8 4.4 4.4 5.9-.5 13.6 2.4 17.2-1.3 2.9-3 .7-10.7 1-16.3.3-7.7-.8-15.4.6-23l.4.3c.3 13.3.6 26.5-.1 39.8-.4.5-.9.9-1.3 1.4-7.3.7-14.6.7-21.9 0-1.8-1.5-1.2-3.6-1.2-5.4V62.3c0-1.8-.7-3.9 1.2-5.4 4-.9 8-.4 12.1-.4 17.7-.1 35.5 0 53.2 0 1.7 0 3.5-.3 5.2.4.4.4.9.8 1.3 1.3.7 6.3.8 12.6 0 18.9l-1.2 1.2c-10 1-19.9.3-29.9.4-5.8.1-11.6.4-17.3-.2-.3-.1-.4-.3-.5-.5z" style="fill-rule:evenodd;clip-rule:evenodd;fill:#303896"/><path class="st25" d="M147 119.5c1.2 2 3.1 2.8 5.2 3.1 2.5.9 5 1 7.4 0l.3-.2.3.2c1.7-1.1 4 .5 5.6-1.2h-.1c2.7 1 1.4 1.7-.2 2.3-8.8 3.2-15.8 1.2-21.8-6.1-.7-.8-2.5-.6-2.3-2.4 5.5-14.8 14.6-25.9 30.6-29.7.4.3.6.8.7 1.3-.3 2.6-2.5 3-4.5 3.7-4.9 1.6-8.6 5-12.8 7.8-2.4 1.6.6 2.4-.2 3.4-2 2.5-4.1 5-6.1 7.4-2.7 3-3.6 6.5-2.1 10.4z"/><path d="M119.3 57H48.8c1.1-1.3 2.6-.9 3.9-1h62.7c1.3.1 2.8-.3 3.9 1z" style="fill-rule:evenodd;clip-rule:evenodd;fill:#1e2087"/><path class="st58" d="M72.1 78.5c15.7-.1 31.5-.1 47.2-.2-1.6 1.7-3.6 1-5.4 1-13.6.1-27.3.1-40.9.1-.4.5-.6.5-.9-.1-.1-.3-.1-.5 0-.8z"/><path d="M72.9 118.6h38.9v1H73c-.3-.2-.4-.4-.3-.6 0-.3.1-.4.2-.4z" style="fill-rule:evenodd;clip-rule:evenodd;fill:#1f228a"/><path class="st15" d="M72.9 97.3h38.9v1.1H72.9c-.3-.2-.4-.5-.3-.7.1-.3.2-.4.3-.4z"/><path class="st64" d="M72.9 118.6v1c0 11.3 0 22.6-.1 33.9 0 1.7.7 3.5-.9 4.9 0-13.3.1-26.5.1-39.8.4 0 .6-.1.9 0z"/><path d="M48.7 159.8h21.9c-7.3 1.6-14.6 1.6-21.9 0z" style="fill-rule:evenodd;clip-rule:evenodd;fill:#22248b"/><path d="M120.5 77.2V58.3c1.6 6.3 1.7 12.6 0 18.9z" style="fill-rule:evenodd;clip-rule:evenodd;fill:#251c89"/><path class="st64" d="M72.9 97.3v1.1c-2-6.3-.6-12.7-.8-19.1.3 0 .6.1.9.1 0 5.9-.1 11.9-.1 17.9z"/><path d="M114.4 115.8v-15.1h.5v15.6c-.2-.2-.4-.3-.5-.5z" style="fill-rule:evenodd;clip-rule:evenodd;fill:#241b89"/><path d="M127.9 69.8c-1.3.9-2.6 2.9-4.1 1.2-.8-1 .9-1.8 2.1-2.1.6.4 1.6.1 2 .9z" style="fill-rule:evenodd;clip-rule:evenodd;fill:#aeb1d0"/><path d="M127.9 69.8c-.8-.2-1.7 0-2.1-1 1-.5 2-1 3-1.4.1.5.1 1 .2 1.5-.4.3-.7.6-1.1.9z" style="fill-rule:evenodd;clip-rule:evenodd;fill:#f3f5f7"/><path d="m188.1 108.9 3.3-3c-.3 2-1.3 3-3.3 3z" style="fill-rule:evenodd;clip-rule:evenodd;fill:#433e94"/><path class="st71" d="M1116.4 114.2c-4 .3-7.1-1.9-10.3-3.6-7.5-3.9-14.8-5.1-22.3.2-2.1 1.4-4.8 4.4-6.8 3-2.6-1.8.6-4.6 1.1-7 .7-3.6-.6-6.2-3.8-7.8-3.6-1.8-5.2.6-6.4 3.3-.9 2.1-1.9 4.2-2.5 6.3-2.1 7.6-4.2 15.2-6.2 22.8-.4 1.4-.5 3-1.9 3.6-6.4 2.8-12.4 6.5-19.7 6.9-3.5.2-4.9-.7-2.6-4.5-4.8 2.8-6.8 2-8.1-2.6-1.5-5.1.9-10.6 4.6-10.3 9.1.7 15.7-4.5 21.6-10.2 3.8-3.7 2.9-9 .8-13.4-1.9-3.9-6-3.6-9.7-2.8-13.6 3-21.7 11.9-26.5 24.5-.7 1.8-.1 4.3-2.4 5.5-1.8-1.4-.9-3.3-1.2-4.9-1-5.1-2.1-10.4-7.2-12.7-5.5-2.4-10.8-.7-15.6 3-4.5 3.4-8.6 7.2-12.6 11.2-1 1-1.7 2.7-4.6 2.1 3-6.3 6-12.3 8.9-18.4 1.1-2.3 2.9-4.8.1-7.1-3-2.4-6.7-2.4-9.1.4-4 4.6-8.4 9.1-11.3 14.6 2.9 1 2.3 3 1.5 5.1-2.1 5.9-3.5 12.1-4.9 18.3-.5-1.1-1-2-1.4-2.9-1.1-2.5-.4-5.1-.7-7.6-.3-3 .1-6.2-2.3-8.6-1.4-8.1-6.2-11.9-13.6-10.7-4.6.7-8 3.4-11.4 6.2-4.4 3.6-8.6 7.4-12.7 12.2-1-2.7-.2-4.1.5-5.5 2.4-4.9 4.7-9.8 7-14.7 1-2.1 3-4.5.1-6.5-2.8-1.9-5.9-2.6-8.7-.2-1.3 1.1-2.3 2.7-3.4 3.9-4.1 4.5-7.4 9.8-12.6 13.2-1 .6-1.7 2.3-3 1-4.9-4.5-9.4-1.2-14.1.6-7.3 2.8-13.4 7.5-20.3 11.1-.5.5-1.3.8-1.7.5-.3-.3.6-.9.7-1.5l2.4-3c.4-2.1 2.4-3.4 2.9-5.5 3.6-4.4 8.5-7.2 13.3-10.2 3.5-2.1 6.7-3.7 10.4-.1 1.6 1.5 4 1.3 5.8-.2 1.9-1.5 1.2-3.3.5-5.3-2.9-7.5-9.1-10-17.2-6.4-9.8 4.3-18.7 10-25.7 18-6.2 7.2-13.3 13.8-16 23.7-1 3.5-5.5 5-9.3 4.3-4.2-.8-3.1-4.6-2.6-7.4 3-16.7 8.3-32.6 15.6-47.8 4.2-8.7 8.4-17.4 12.4-26.1.9-2.1 2.1-4.6-1-6.4-3.2-1.9-5.1.2-6.5 2.3-2.6 3.7-5.1 7.6-7.3 11.6-6.6 11.8-11.4 24.5-15.6 37.3-1 2.9-1.8 5-5 1.5-3-3.4-7.4-3-11.4-2.2-4.5.9-8.7 2.6-12.7 4.8-.9.5-1.8 1.6-2.8.9-1.3-.8-.5-2.2-.3-3.4.5-3.1 1.4-6.2 1.6-9.3.3-5.4-2.4-7.2-7.2-4.9-2.3 1.2-4.5 2.7-6.7 4.1-.1 0-.2.1-.2.4-.1.3.1.5.3.8 2.2-.3 3.5.3 2.8 2.8-.5 1.9-.9 3.7-1.6 5.5-10.6 28.8-21.3 57.6-32 86.4-1 2.8-2.4 5.5-2.1 8.6.2 2.5 1.3 4.3 3.8 5.2 2.5.8 3.6-1.1 4.6-2.6 3.3-4.6 5.5-9.8 7.6-15 6.8-16.9 12-34.5 19.1-51.2 4.4-10.2 10.1-18.9 21.2-22.7 3.2-1.1 6-1.3 8.1 1.5 2.1 2.7 1.3 5.6-.5 8.3-3.1 4.7-7.3 8.1-11.9 11-1.9 1.2-4.2 2-5.6-.1-1.4-2.1 1-3.4 2.2-4.7.7-.8 1.5-1.5 2.3-2.2.1-1.8-.8-2-2.1-1.2-3.8 2.7-6.7 6.2-8.6 10.5-2.2 4.9-.2 8 5.1 7.8 7.3-.2 13.5-3.3 19.2-7.7 1-.8 1.9-2.7 3.4-1.8 1.5.8.5 2.5.5 3.8.2 9.8 6.1 14.1 15.3 11 2.9-.9 5.5-2.2 8-3.9.8-.6 1.9-1.5 2.7-1.4 8.6 1.3 15.1-3.3 21.8-7.3 4.8-2.9 9.4-6.1 14.1-9.2 2.6-1.7 5.6-1.9 6.8 1.1 3.5 8.5 8.5 14.3 17.8 17.6 4.5 1.6 6.6 1.4 9.3-1.3 1.6-1.6 2.8-3.6 4.2-5.4 6.3-8 12.7-15.9 22.2-20.7 5-2.5 6.1-2.1 6.9 3.3.7 4.7 1.6 9.4 1.9 14.1.7 10.9 9.1 10.6 16.5 11.7 4.7.7 6.7-2.9 9.1-6 6.9-8.7 13.4-17.6 23.6-23 5.3-2.8 6.6-2.4 7.6 3.7.8 5 .7 10.2 2.1 15.1 2.8 9.9 8.1 12 16.9 6.9 1.4-.8 2.6-2 4.8-1.1 9.3 3.6 17.5.8 25.1-4.8 1.2-.9 2.1-2.5 4.1-2.2.7 3-1.1 5.4-2 7.9-1.3 3.6-1.4 6.9 2.7 8.3 3.9 1.4 6.2-.7 7.5-4.5 1.9-5.5 4.1-10.8 6.2-16.2 5.2-13.3 15.3-20.2 29.7-20 5.7.1 11.2-.6 16.6-2.2.1 0 .2-.1.3-.3 0-.4-.1-.7-.3-.9zm-73.8-6.7c1.5-.1 2.4.6 2.5 2 .2 2-5.9 6.7-8.6 6.8-1.1 0-2.1-.1-2.2-1.6-.1-2.1 5.6-7.1 8.3-7.2z"/><path class="st71" d="M1040.2 131c-2.3 1.4-3.3 2.6-4.2 5.3 2.6-1.3 3.6-2.5 4.2-5.3z"/><path d="M1015.8 131.4c.2 1.6.3 3.1.6 4.7.2 1.3 1.2 2.5-.1 4.3-1.6-3.3-1.8-6.3-.5-9z" style="fill-rule:evenodd;clip-rule:evenodd;fill:#483432"/><path class="st0" d="M1462.4 112.5c-5.3-22.5-32.6-29-47.6-12.9 2.6-8.2-2.2-7.5-6.7-7.4-1.6.1-3.2.2-4.7 0-4.1-.6-5.4 1-5.3 5.2.2 23.6.1 47.2.1 70.8 0 12.3 0 12.1 12.4 12.3 4 .1 5.5-.8 5.3-5.2-.4-8.1-.1-16.3-.1-25.2 13.8 15.6 41.1 11.4 47-13 1.8-8.3 1.5-16.4-.4-24.6zm-19.3 26c-2.3 4.8-6.7 6.9-12.1 6.9-5.6 0-9.8-2.3-12.6-7.1-2.3-4.1-3-8.5-2.9-13.5-.2-4.1.4-8.5 2.4-12.4 2.4-4.6 5.9-7.6 11.5-7.9 5.8-.3 10.5 1.7 13.2 6.8 4.8 8.9 4.9 18.2.5 27.2zM1290.6 90.8c-21.4 0-34.4 13.1-34.3 34.6.1 20.6 13.2 33.7 33.6 33.8 20.8 0 33.7-13 33.7-34.1 0-21-12.8-34.3-33-34.3zm14 43.1c-2.1 7.5-7 11.4-14.4 11.5-7.7.1-12.5-3.4-14.7-11.1-1.8-6.2-1.7-12.6 0-18.8 2.2-7.7 7.3-11.2 15.2-11 7 .2 11.8 4.2 13.8 11.6.8 2.9 1.3 5.9.9 8.6.4 3.3 0 6.2-.8 9.2z"/><path d="M460.8 135.1V127c2.6 3.3.7 6.9.5 10.4-.3-.8-.4-1.5-.5-2.3z" style="fill-rule:evenodd;clip-rule:evenodd;fill:#212089"/><path class="st74" d="M478.3 152.2c-.4-.3-1-.3-1-1.1.1-15.5-.6-30.9.4-46.4-2-6.6-5.4-11.6-13.2-12-.9 0-1.7-1-2.6-1.5-1.6.3-3.2.3-4.8.2v.2c-.1.2-.2.4-.3.4-5.3-.6-10.7 1.2-15.9-1-1.2 0-2.1.8-3.4.8-8.6.2-16.2 6.6-18.5 15.1.8 2.1 2 3.5 4.6 3.1 4.2-.6 8.7 1.3 12.5-2.1 1.5-3 4.2-4.7 7-6.4 3.9-1.8 7.7-1.8 11.6 0 2.2 1.5 4.6 2.8 5.8 5.3 1.8 2.4 1.9 4.8 0 7.3-1.9 1.4-3.9 2.8-5.8 4.2-.6 1.7-2 2-3.6 2.4-5.4 1.1-10.9 1.5-16.4.9-9.9.8-15.4 4.8-17.7 12.8.8 4.3-.4 8.8.7 13.1 1.5 6.3 5.8 9.5 11.8 10.9 4.6-2 9.1 1.4 13.7.2.1-.1.2-.2.3-.2 1.9-1.4 3.9-1.1 5.9 0 3.3-.3 5.8-2.4 8.5-4 1.3-.8 3.7-2 3.8.1.2 5.5 4 3.7 6.7 3.8 3.7.2 7.4 0 11.4 0-.6-2.1-1.1-4.1-1.5-6.1zm-30.4-2.2H442v-.5h6c0 .2 0 .3-.1.5zm12.9-14.9c-3.5 10.4-7.3 13.5-16 13.4-4.7-.1-8.6-1.5-11-5.8-2.2-2-2-4.1-.2-6.2 3.3-6.6 10-6.6 15.9-8.4 1.2-1.9 2.6-1.4 4-.3 2.5.2 4.7-2.2 7.3-.8 1.1 2.7 1 5.4 0 8.1z"/><path class="st74" d="M434.5 121.6c6.7-.9 13.7 0 20.1-3.3-6.7 1.3-13.7.8-20.1 3.3zM455.9 91.4c.4 0 .8.1 1.2.1 0-.2-.1-.3-.4-.5-5.3-1.9-10.6-1.6-15.8 0 4.9.5 10-.7 15 .4zM431 110.6c-2.8-.3-5.6-.3-8.4 0-2.9.3-3.6-1.3-3.7-3.7-.3 1.6-1.8 4 .7 4.3 4.8.5 9.8.3 14.7.1 2-.1 1.3-2.1 1.7-3.3-1.2 1.8-2.6 2.8-5 2.6zM442.3 159.1c-4.4.7-8.7-1-13.1-.7 4.9 1.6 9.9 2.6 14.8.3h-.9c-.2.1-.5.2-.8.4zM443 101.6h11.6c-3.9-1-7.8-1-11.6 0zM443.8 158.4c.1.1.2.1.3.3 1.7.4 3.4.4 5.1-.3-1.8-.4-3.6-.6-5.4 0zM443.8 158.4c-.2-.1-.4-.1-.5 0-.1.1-.2.2-.3.2h.3c.1 0 .3-.1.5-.2zM433.6 136.5c-1 2.1-1.3 4.2.2 6.2-.1-2.1-.2-4.2-.2-6.2zM449.4 128.1c1.3-.1 2.7-.2 4-.3-1.3-.4-2.7-.8-4 .3z"/><g><path class="st75" d="M712.7 150.8c-1.7-4-.4-8.1-.7-12.2-.8-13.1 1.7-26.3-1.8-39.2-.8-2.1-2.8-2.9-4.1-4.5-2.6-3-6.8-1.5-9.5-3.7-1.6 1.4-3.5.6-5.2.8h-13.8c-.2-.2-.4-.3-.4-.5-1.8.1-3.7-.2-5.4.4-9.7 1.2-15.9 6.5-18.4 16 .5 1.3.8 2.7 2.7 2.6 4.7-.3 9.5.5 14.2-.5 1.1-4 3.8-6.5 7.3-8.4 3.9-2 7.7-1.8 11.6-.1 8.5 5.5 8.5 11.6 0 16.8-5.1 4.9-11 3.6-16.9 2.3-2.8 1-5.7 2.5-8.6 2.7-6 .4-9.2 3.9-11.3 8.9-.3 6.5-1 13.1 1.7 19.4 2.2 3.7 5.5 5.8 9.7 6.7 4.6.1 9.1.9 13.6 1.2 1 .2 1.9.3 2.6-.7.9-2.6 2.4-1.2 3.7-.5 3.3-.6 6.3-2 8.9-4.2 2-1.7 3.6-2.6 3.9 1.2.1 1.6.7 3 2.9 3 5-.1 9.9 0 15.8 0-1.8-2.8-.7-5.5-2.5-7.5zm-17.4-16.4c-1 10.2-7.4 15.2-17.6 14-4.6-.5-8.2-2.5-9.1-7.3-1-5.1 1.7-8.3 6.1-10.5l3.3-1.5c-.3-.1-.7-.1-1-.3-.5-.3-.6-.8.1-.8 1.6 0 3.4-.6 4.7.8.9.2 1.7-.2 2.3-.8 1.2-2 2.6-1.4 4-.3 8-1.5 8-1.5 7.2 6.7z"/><path class="st75" d="M689.2 118.4c-5.6.8-11.2 1.5-16.9 2.3 5.9.6 11.6.4 16.9-2.3zM690.4 91.4c.3 0 .6.1 1 .1V91c-4.6-1.7-9.2-1.8-13.7 0-.1 0-.2.1-.3.3v.2h.2c4.2-.7 8.5-.8 12.8-.1zM677.7 101.7c3.9 0 7.7-.1 11.6-.1-3.9-.9-7.8-1-11.6.1zM680.2 158.9c1.3-.2 2.5-.3 3.7-.5-1.3.1-2.7-1.3-3.7.5z"/><path class="st75" d="M691.8 91.5c1.6.1 3.2.1 4.8-.2-1.7-.1-3.5-.2-5.2-.3.2.1.4.3.4.5zM691.7 91.7v-.2h-.4v.6c.2-.1.3-.2.4-.4zM677.9 129.2l3.9-.3c-1.3-.4-2.6-.9-3.9.3zM684.2 128.1c1.3-.1 2.7-.2 4-.3-1.4-.4-2.8-.8-4 .3z"/></g><path d="M532.8 117.4v-1c.3.6.9 1.2.9 1.8.1 12.7 0 25.5-1 38.2.1-13 .1-26 .1-39z" style="fill-rule:evenodd;clip-rule:evenodd;fill:#202d92"/><path d="M736.8 67.7h1.1v88.5h-1.1V67.7z" style="fill-rule:evenodd;clip-rule:evenodd;fill:#2a2a8b"/><path d="M337.2 93.1c.3 0 .6-.1.9-.1v64.2c-1.6-1.6-.8-3.7-.8-5.5-.1-19.5-.1-39-.1-58.6z" style="fill-rule:evenodd;clip-rule:evenodd;fill:#222087"/><path class="st1" d="M155.4 101.6c-2.1-.8-3.9-1.5-1-3.9 4.5-3.7 8.9-7.4 14.6-8.8 1.5-.4 2.7-.7 3.3-2.2 2.3-1.8 4.9-.7 7.4-1.1 4.2 2.1 4.3 5.5 2 8.8-4.6 6.6-11 11.2-18.1 14.7-1.7.8-4.1 1.6-5.3-.3-1.4-2.2 1.2-3.4 2.5-4.4 5.2-3.8 10.6-7.3 15.7-11.3-8.2 0-14.4 4.9-21.1 8.5z"/><path d="M179.7 85.7c-2.2 2.1-5 .7-7.4 1.1 0-.4-.1-.9-.1-1.3 2.5-1.2 5.1-1.6 7.5.2z" style="fill-rule:evenodd;clip-rule:evenodd;fill:#1a1c87"/><path class="st0" d="M147 119.5c-1.9-4.1-1.9-7.7 2.3-10.5-1.7 3.3-3.3 6.7-2.3 10.5zM159.6 122.6c-2.5 1.8-4.9 1.7-7.4 0h7.4zM165.9 121.4c-1.5 2.2-3.7 1-5.6 1.2 1.8-.8 3.6-1.3 5.6-1.2z"/></svg>