<?xml version="1.0" encoding="utf-8"?>
<!-- Generator: Adobe Illustrator 26.5.0, SVG Export Plug-In . SVG Version: 6.00 Build 0)  -->
<svg version="1.1" id="Layer_1" xmlns="http://www.w3.org/2000/svg" xmlns:xlink="http://www.w3.org/1999/xlink" x="0px" y="0px"
	 viewBox="0 0 1411.16 229.64" style="enable-background:new 0 0 1411.16 229.64;" xml:space="preserve">
<style type="text/css">
	.st0{fill-rule:evenodd;clip-rule:evenodd;fill:#2E3191;}
	.st1{fill-rule:evenodd;clip-rule:evenodd;fill:#2E3192;}
	.st2{fill-rule:evenodd;clip-rule:evenodd;fill:#252A8F;}
	.st3{fill-rule:evenodd;clip-rule:evenodd;fill:#2D3091;}
	.st4{fill-rule:evenodd;clip-rule:evenodd;fill:#2B2D8E;}
	.st5{fill-rule:evenodd;clip-rule:evenodd;fill:#272C91;}
	.st6{fill-rule:evenodd;clip-rule:evenodd;fill:#2C288C;}
	.st7{fill-rule:evenodd;clip-rule:evenodd;fill:#292E91;}
	.st8{fill-rule:evenodd;clip-rule:evenodd;fill:#292B8E;}
	.st9{fill-rule:evenodd;clip-rule:evenodd;fill:#281C89;}
	.st10{fill-rule:evenodd;clip-rule:evenodd;fill:#232388;}
	.st11{fill-rule:evenodd;clip-rule:evenodd;fill:#291386;}
	.st12{fill-rule:evenodd;clip-rule:evenodd;fill:#1F2189;}
	.st13{fill-rule:evenodd;clip-rule:evenodd;fill:#222990;}
	.st14{fill-rule:evenodd;clip-rule:evenodd;fill:#26278C;}
	.st15{fill-rule:evenodd;clip-rule:evenodd;fill:#25288D;}
	.st16{fill-rule:evenodd;clip-rule:evenodd;fill:#28288B;}
	.st17{fill-rule:evenodd;clip-rule:evenodd;fill:#26298D;}
	.st18{fill-rule:evenodd;clip-rule:evenodd;fill:#1E2490;}
	.st19{fill-rule:evenodd;clip-rule:evenodd;fill:#192594;}
	.st20{fill-rule:evenodd;clip-rule:evenodd;fill:#202389;}
	.st21{fill-rule:evenodd;clip-rule:evenodd;fill:#271186;}
	.st22{fill-rule:evenodd;clip-rule:evenodd;fill:#1C1B89;}
	.st23{fill-rule:evenodd;clip-rule:evenodd;fill:#21248A;}
	.st24{fill-rule:evenodd;clip-rule:evenodd;fill:#202186;}
	.st25{fill-rule:evenodd;clip-rule:evenodd;fill:#2E3091;}
	.st26{fill-rule:evenodd;clip-rule:evenodd;fill:#21238D;}
	.st27{fill-rule:evenodd;clip-rule:evenodd;fill:#26268B;}
	.st28{fill-rule:evenodd;clip-rule:evenodd;fill:#282B8F;}
	.st29{fill-rule:evenodd;clip-rule:evenodd;fill:#272A8F;}
	.st30{fill-rule:evenodd;clip-rule:evenodd;fill:#25298D;}
	.st31{fill-rule:evenodd;clip-rule:evenodd;fill:#221D89;}
	.st32{fill-rule:evenodd;clip-rule:evenodd;fill:#24278C;}
	.st33{fill-rule:evenodd;clip-rule:evenodd;fill:#26288D;}
	.st34{fill-rule:evenodd;clip-rule:evenodd;fill:#191C88;}
	.st35{fill-rule:evenodd;clip-rule:evenodd;fill:#1B1D87;}
	.st36{fill-rule:evenodd;clip-rule:evenodd;fill:#24268C;}
	.st37{fill-rule:evenodd;clip-rule:evenodd;fill:#161687;}
	.st38{fill-rule:evenodd;clip-rule:evenodd;fill:#20218A;}
	.st39{fill-rule:evenodd;clip-rule:evenodd;fill:#22258B;}
	.st40{fill-rule:evenodd;clip-rule:evenodd;fill:#151585;}
	.st41{fill-rule:evenodd;clip-rule:evenodd;fill:#141485;}
	.st42{fill-rule:evenodd;clip-rule:evenodd;fill:#1E2089;}
	.st43{fill-rule:evenodd;clip-rule:evenodd;fill:#23268C;}
	.st44{fill-rule:evenodd;clip-rule:evenodd;fill:#22258A;}
	.st45{fill-rule:evenodd;clip-rule:evenodd;fill:#8B969B;}
	.st46{fill-rule:evenodd;clip-rule:evenodd;fill:#222E9B;}
	.st47{fill-rule:evenodd;clip-rule:evenodd;fill:#454444;}
	.st48{fill-rule:evenodd;clip-rule:evenodd;fill:#191E8B;}
	.st49{fill-rule:evenodd;clip-rule:evenodd;fill:#20238C;}
	.st50{fill-rule:evenodd;clip-rule:evenodd;fill:#22248C;}
	.st51{fill-rule:evenodd;clip-rule:evenodd;fill:#6E716F;}
	.st52{fill-rule:evenodd;clip-rule:evenodd;fill:#201F8A;}
	.st53{fill-rule:evenodd;clip-rule:evenodd;fill:#21258B;}
	.st54{fill-rule:evenodd;clip-rule:evenodd;fill:#777675;}
	.st55{fill-rule:evenodd;clip-rule:evenodd;fill:#79787D;}
	.st56{fill-rule:evenodd;clip-rule:evenodd;fill:#23258C;}
	.st57{fill-rule:evenodd;clip-rule:evenodd;fill:#191B87;}
	.st58{fill-rule:evenodd;clip-rule:evenodd;fill:#171885;}
	.st59{fill-rule:evenodd;clip-rule:evenodd;fill:#1E1C8A;}
	.st60{fill-rule:evenodd;clip-rule:evenodd;fill:#FEFEFE;}
	.st61{fill-rule:evenodd;clip-rule:evenodd;fill:#303896;}
	.st62{fill-rule:evenodd;clip-rule:evenodd;fill:#1E2087;}
	.st63{fill-rule:evenodd;clip-rule:evenodd;fill:#1F228A;}
	.st64{fill-rule:evenodd;clip-rule:evenodd;fill:#241888;}
	.st65{fill-rule:evenodd;clip-rule:evenodd;fill:#22248B;}
	.st66{fill-rule:evenodd;clip-rule:evenodd;fill:#251C89;}
	.st67{fill-rule:evenodd;clip-rule:evenodd;fill:#241B89;}
	.st68{fill-rule:evenodd;clip-rule:evenodd;fill:#AEB1D0;}
	.st69{fill-rule:evenodd;clip-rule:evenodd;fill:#F3F5F7;}
	.st70{fill-rule:evenodd;clip-rule:evenodd;fill:#433E94;}
	.st71{fill-rule:evenodd;clip-rule:evenodd;}
	.st72{fill-rule:evenodd;clip-rule:evenodd;fill:#483432;}
	.st73{fill-rule:evenodd;clip-rule:evenodd;fill:#212089;}
	.st74{fill-rule:evenodd;clip-rule:evenodd;fill:#171986;}
	.st75{fill-rule:evenodd;clip-rule:evenodd;fill:#191A86;}
	.st76{fill-rule:evenodd;clip-rule:evenodd;fill:#202D92;}
	.st77{fill-rule:evenodd;clip-rule:evenodd;fill:#2A2A8B;}
	.st78{fill-rule:evenodd;clip-rule:evenodd;fill:#222087;}
	.st79{fill-rule:evenodd;clip-rule:evenodd;fill:#1A1C87;}
</style>
<g>
	<g>
		<path class="st0" d="M138.55,11.17c36.23,10.43,61.29,32.86,73.83,68.74c-0.65,3.69,1.94,6.82,1.8,10.43
			c0,0.09,0.14,0.25,0.21,0.25c0.15,0,0.31-0.08,0.47-0.13c2.51,3.8,1.6,8.32,2.62,12.43c-0.62,6.97-0.61,13.94,0,20.92
			c-2.43,20.59-9.51,39.38-22.71,55.46c-12.98,15.82-28.74,27.94-48.78,33.69c-2.12,0.5-4.36,0.39-6.4,1.3
			c-0.37,0.17-0.96,0.08-0.6,0.78c-3.26,1.77-6.92,1.86-10.45,2.49c-10.28,0.04-20.57,0.43-30.85,0c-3.58-0.46-7.2-0.75-10.49-2.47
			c-2.01-1.93-4.77-1.36-7.13-2.11c-11.96-2.91-22.2-9.18-31.78-16.57c-16.3-12.57-27.41-28.95-34.67-48.07
			c-0.16-0.43-0.01-0.98-0.01-1.48c-1.15-7.38-3.07-14.61-4.47-21.95c-0.96-8.66,0-17.33-0.24-25.99
			c6.22-39.25,27.87-66.65,63.85-83.01c0.42-0.19,0.97-0.12,1.45-0.17c2.06-0.26,4.03-0.91,6.03-1.45c0.09-0.02,0.23-0.16,0.22-0.23
			c-0.03-0.15-0.13-0.29-0.21-0.43c3.74-2.78,8.44-1.88,12.61-3.09c1.6-0.46,2.97-1.87,4.81-1.55c6.09,1.15,12.16-0.81,18.23-0.12
			c4.7,0.53,9.59-0.36,14.06,1.87l3.68,0.12C135.25,11.46,136.89,11.52,138.55,11.17z M1148.4,99.83c-5.44,0-10.73-0.05-16.02,0.03
			c-1.74,0.02-2.24-0.98-2.68-2.35c-2.2-6.86-6.9-10.88-14.04-11.72c-8.36-0.98-15.53,1.21-20.53,8.48
			c-7.14,10.39-7.17,29.62-0.03,39.87c5.68,8.15,13.86,9.87,22.98,8.32c7.94-1.35,12.37-6.51,14.21-14.23
			c0.63-2.65,0.14-3.6-2.74-3.44c-4.15,0.22-8.33-0.03-12.49,0.09c-2.06,0.06-3.21-0.5-2.96-2.76c0.04-0.33,0.01-0.67,0-1
			c-0.32-10.27-0.32-10.27,9.91-10.27c7.33,0,14.66,0.11,21.98-0.06c2.69-0.06,3.75,0.54,3.71,3.51
			c-0.16,12.99-0.14,25.98-0.01,38.97c0.03,2.79-0.72,4.02-3.58,3.59c-0.65-0.1-1.35-0.13-1.99,0c-5.31,1.15-7.64-1.2-7.65-6.39
			c0-0.46-0.26-0.94-0.45-1.39c-0.05-0.12-0.27-0.18-0.69-0.43c-3.64,3.11-7.17,6.55-12.01,8.21c-15.81,5.42-35.06-1.01-44.57-15.09
			c-11.41-16.89-10.15-43.14,2.83-58.86c14.01-16.97,43.23-18.13,58.41-2.32C1145.03,85.84,1147.67,92.14,1148.4,99.83L1148.4,99.83
			z"/>
		<path class="st1" d="M1306.04,149.03c-6.31,8.27-14.56,10.37-24.06,9.01c-9.4-1.35-15.04-6.24-16.14-15.62
			c-1.75-14.92-0.42-29.96-0.72-44.94c-0.03-1.56,0.52-2.59,2.3-2.46c0.17,0.01,0.33,0.01,0.5-0.01
			c13.88-1.37,13.82-1.37,13.9,12.35c0.05,8.82-0.46,17.66,0.46,26.47c0.79,7.65,3.56,10.79,9.64,11.02
			c7.54,0.28,11.61-2.71,12.85-10.24c1.85-11.24,0.74-22.61,0.75-33.92c0-4.38,0.86-5.96,5.63-5.8
			c11.32,0.38,11.33,0.11,11.33,11.55c0,15.5-0.07,31,0.06,46.49c0.03,2.98-0.63,4.4-3.83,3.95c-1.47-0.2-2.99-0.04-4.49-0.04
			C1306.83,156.84,1306.83,156.84,1306.04,149.03L1306.04,149.03z"/>
		<path class="st0" d="M265.62,120.87c-0.33,0.32-0.66,0.65-0.99,0.97c-0.55,0.65-0.93,1.39-0.94,2.25
			c-0.1,10.3-0.14,20.59,0.03,30.89c0.01,0.67,0.32,1.28,0.67,1.85c-5.84,1.12-11.68,1.14-17.51,0c1.16-2.01,0.73-4.23,0.74-6.35
			c0.03-24.13,0-48.25,0.05-72.38c0-2.12-0.53-4.35,0.77-6.32c6.12-0.93,12.28-0.33,18.41-0.39c11.66-0.11,23.32-0.01,34.98-0.06
			c1.61-0.01,3.34,0.55,4.84-0.57c1.49,4.95,1.77,9.9-0.1,14.82c-13.64-0.31-27.27-0.64-40.9,0.17l-0.32,0.23l-0.39-0.03
			c-1.65,0.9-1.39,2.52-1.28,3.92c0.42,5.32-1.12,10.75,0.94,15.97c0.25,0.17,0.28,0.37,0.1,0.61c1.21,1.78,3.02,0.83,4.52,0.86
			c10.43,0.22,20.86-0.22,31.29,0.26c1.19,3.72,0.52,7.5,0.37,11.26c-1.23,1.91-3.18,1.48-4.97,1.49
			c-8.48,0.02-16.96-0.02-25.45,0.04C268.86,120.36,267.15,119.86,265.62,120.87L265.62,120.87z M526.76,113.59
			c0.95,1.3,0.86,2.8,0.85,4.3c-0.01,11.94-0.1,23.89,0.07,35.82c0.04,3.07-0.82,4.19-3.92,3.85c-4.24-0.47-9.71,1.79-12.44-0.88
			c-2.52-2.46-0.69-7.88-0.72-11.99c-0.06-8.62,0.09-17.24,0.15-25.86c0.71-0.25,1.15-0.01,1.31,0.73
			c0.08,11.63,0.09,23.26,0.03,31.12c-0.29-8.21,0.59-20.21-0.34-32.19c-1.4-1.22,0.44-3.56-1.58-4.57
			c-1.99-6.88-7.11-8.62-13.53-8.2c-0.2-1.52,0.71-1.4,0.98-1.35c-0.94,0.16-2.5,0.44-3.8,1.59c-6.62,2.92-7.62,9.17-9.03,15.19
			c-1.41,1.7-0.66,3.71-0.63,5.54c0.16,10.04-0.61,20.1,0.38,30.13c-5.23,1.12-10.46,1.23-15.69-0.04
			c0.67-17.84,0.1-35.69,0.31-53.53c0.03-2.47-0.33-4.96,0.28-7.4c4.79-0.75,9.57-0.85,14.35,0.06c0.08,0.65,0.1,1.32,0.24,1.96
			c0.31,1.33-0.92,3.25,0.99,3.92c1.58,0.56,2.03-1.3,2.97-2.12c2.86-2.49,5.73-4.99,9.7-5.58c5.37,0.07,10.79-0.9,16.09,0.78
			c7.93,1.34,11.32,6.75,12.59,14.06c-0.65,15.11,0.05,30.24-0.23,40.15c0-6.75-0.02-18.7,0.03-30.65
			C526.18,116.8,525.63,115.08,526.76,113.59L526.76,113.59z M381.58,94.06c2.1,1.86,5.66,0.82,7.25,3.68
			c0.12,1.16,0.73,1.81,1.91,1.88c1.33,1.15,2.28,2.54,2.64,4.29c0.66,2.94,0.29,6.04,1.42,8.9l-0.09-0.11
			c0.89,10.57,0.13,21.16,0.42,31.73c0.11,4.12-0.45,8.27,0.34,12.37c-5.23,1.19-10.46,1.13-15.7,0.02
			c0.92-1.13,0.85-2.48,0.85-3.81c0.01-10.48,0.04-20.97-0.03-31.45c-0.01-1.21,0.52-2.72-1.07-3.5c-1.11-4.79-2.32-9.52-7.23-12.03
			c-4.38-1.74-6.17-1.69-10.56,0.3c-3.09,1.87-5.34,4.51-6.99,7.69c-2.42,3.61-2.57,7.75-2.6,11.85c-0.08,9.26-0.02,18.53-0.01,27.8
			c0.02-9.26-0.05-18.52,0.08-27.78c0.02-1.34-1.33-3.46,1.33-4.05c0.06,10.78,0.05,21.57,0.22,32.35c0.04,2.56-0.69,3.65-3.37,3.35
			c-4.2-0.46-8.49,0.74-12.64-0.72c1.27-1.77,0.86-3.82,0.87-5.77c0.03-16.38,0-32.76,0.04-49.14c0-1.96-0.36-3.98,0.56-5.86
			c3.49-1.45,7.15-0.63,10.72-0.6c3.9,0.03,1.21,3.8,2.6,5.36c0.86,2.82,1.65,1.98,3.06,0.2c2.46-3.09,5.31-5.81,9.55-6.29
			C370.56,92.82,376.1,94.18,381.58,94.06L381.58,94.06z M571.88,94.76c9.99-0.1,18.8,5.74,21.68,16.11
			c0.06,3.82-1.93,4.82-5.51,4.54c-3.09-0.24-6.25-0.41-9.35,0.2c-1.57-3.84-3.37-7.52-7.2-9.69c-4.34-2.42-8.6-2.59-12.77,0.41
			c-3.51,2.45-5.82,5.88-7.77,9.59c-2.83,5.47-3.43,11.1-1.2,16.93c2.07,4.09,3.23,8.72,6.92,11.86c3.96,3.68,11.67,3.97,15.85,0.6
			c2.12-2.33,4.59-4.4,5.6-7.56c2.59-3.08,12.1-4.23,15.56-1.87c0.56,0.38,0.12,0.89,0.1,1.35c-1.59,10.8-8.21,17.08-18.23,20.32
			c-1.25,0-2.61-0.97-3.7,0.43c-0.75,0.24-1.51,0.48-2.26,0.72c-3.03-0.81-6.13-0.17-9.19-0.39c-1.83-0.79-3.69-1.41-5.71-0.75
			c-10.18-3.01-16.89-9.5-19.8-19.79c-0.87-7.62-0.52-15.24,0.02-22.86c3.16-11.77,11.18-18.29,22.73-21
			C562.37,94.58,567.23,92.87,571.88,94.76L571.88,94.76z"/>
		<path class="st1" d="M1175.56,104.94c5.17-7.12,10.95-11.58,19.48-11.33c2.8,0.08,4.05,0.86,3.6,3.71c-0.03,0.16,0,0.33,0,0.5
			c-0.02,3.66,1.16,7.99-0.39,10.8c-1.65,2.98-6.29,0.57-9.58,1.16c-6.44,1.15-11.04,6.02-12.1,13.45
			c-1.37,9.6-0.72,19.27-0.68,28.9c0.02,3.45-0.45,4.9-4.49,4.83c-12.29-0.22-12.3-0.01-12.3-12.48c0-14.81,0.17-29.63-0.1-44.43
			c-0.08-4.3,1.33-5.72,5.35-5.05c0.32,0.05,0.67,0.01,1,0.01C1174.69,95,1174.69,95,1175.56,104.94L1175.56,104.94z"/>
		<path class="st0" d="M706.59,71.84c0.07,27.45,0.11,54.9,0.26,82.35c0.01,2.59-0.76,3.65-3.4,3.37c-4.21-0.46-8.52,0.8-12.66-0.75
			c0.68-1.78,0.35-3.63,0.35-5.44c0.03-24.65,0.01-49.3,0.03-73.94c0-1.82-0.21-3.66,0.21-5.48c4.46-1.02,8.93-0.78,13.4-0.15
			c0.71,2.45,0.32,4.96,0.32,7.43c0.04,23.28,0.03,46.56,0,69.84c0,1.71,0.37,3.45,0.04,4.24c0.04-26.32-0.06-53.53,0.06-80.73
			C705.38,71.8,705.85,71.55,706.59,71.84L706.59,71.84z M327.76,156.99c-5.32,0.78-10.63,1.12-15.92-0.2
			c0.69-14.14,0.1-28.29,0.31-42.44c0.09-6.15-0.32-12.31,0.25-18.46c4.77-0.99,9.56-0.64,14.35-0.19c1.35,1.76,0.84,3.82,0.85,5.75
			c0.07,18.19-0.04,36.38,0.08,54.57C327.71,156.35,327.73,156.67,327.76,156.99z M616.45,156.83c-5.22,1.07-10.43,1.23-15.65-0.04
			c0.79-10.14,0.15-20.29,0.34-30.44c0.19-10.15-0.32-20.31,0.26-30.46c4.45-0.96,8.91-0.68,13.38-0.18
			c1.33,1.78,0.82,3.85,0.83,5.8c0.04,16.49,0.01,32.98,0.04,49.47C615.65,152.96,615.26,155.02,616.45,156.83z"/>
		<path class="st2" d="M248.64,71.85c0,26.63,0.02,53.27-0.06,79.9c-0.01,1.76,1.17,4.17-1.7,5.07c-0.11-9.77-0.3-19.53-0.3-29.3
			c-0.01-18.56,0.1-37.13,0.15-55.69C247.37,71.26,248.01,71.28,248.64,71.85L248.64,71.85z"/>
		<path class="st3" d="M326.66,83.74c-4.94-0.26-10.02,1.5-14.82-0.95c0.13-0.48,0.24-0.95,0.31-1.44c0.41-3.21-1.61-7.71,0.95-9.36
			c3.11-1.99,7.68-0.46,11.61-0.62c1.83-0.08,2.83,0.88,2.82,2.65C327.5,77.27,328.3,80.62,326.66,83.74L326.66,83.74z"/>
		<path class="st0" d="M616.65,71.84l0,10c-5.04,1.6-10.09,1.47-15.16,0.12c-1.15-10.6-1.15-10.63,9.27-10.57
			C612.71,71.4,614.74,70.9,616.65,71.84z"/>
		<path class="st4" d="M616.45,156.83c-2.92-0.84-1.76-3.27-1.77-5.02c-0.08-18.65-0.05-37.29-0.06-55.94
			c0.67-0.6,1.34-0.58,2.02-0.02C616.86,116.18,617.24,136.51,616.45,156.83L616.45,156.83z"/>
		<path class="st5" d="M339.64,95.87c0,18.66,0.02,37.33-0.06,55.99c-0.01,1.75,1.14,4.21-1.83,4.98
			c-0.88-12.22-0.22-24.45-0.35-36.67c-0.09-8.1,0.11-16.2,0.18-24.31C338.27,95.3,338.96,95.26,339.64,95.87L339.64,95.87z"/>
		<path class="st6" d="M691.64,71.86c0,26.4,0.01,52.8-0.04,79.2c0,1.92,0.69,4.01-0.82,5.74c-0.13-3.13-0.37-6.26-0.37-9.39
			c0.04-25.19,0.12-50.38,0.19-75.57C690.96,71.49,691.31,71.48,691.64,71.86L691.64,71.86z"/>
		<path class="st7" d="M379.52,118.07c0.21-0.47,0.54-1.67,0.88-1.04c0.83,1.55,1.28,3.32,1.27,5.2
			c-0.07,10.22-0.01,20.44-0.05,30.66c-0.01,1.54,0.58,3.47-1.83,3.94C378.98,143.92,379.47,130.99,379.52,118.07z"/>
		<path class="st8" d="M264.4,156.83c-1.76-0.33-1.77-1.66-1.77-3.02c0.01-9.55,0.01-19.1,0-28.65c0-1.52-0.08-3.07,2-3.32
			C264.69,133.51,265.14,145.17,264.4,156.83L264.4,156.83z"/>
		<path class="st0" d="M327.59,95.08c1.19,0.79,0.93,2.02,0.93,3.15c0.01,18.69,0.01,37.38-0.01,56.07c0,0.95,0.28,2.01-0.76,2.69
			c-0.11-0.15-0.21-0.31-0.31-0.46c-0.68-15.06-0.12-30.13-0.29-45.19c-0.05-4.8-0.01-9.61-0.01-14.41
			C327.1,96.26,327.25,95.65,327.59,95.08L327.59,95.08z"/>
		<path class="st9" d="M601.66,95.88c-0.01,18.56,0,37.11-0.06,55.67c-0.01,1.76,0.6,3.67-0.8,5.24
			c-0.64-20.32-0.34-40.64-0.15-60.96C601.01,95.47,601.34,95.49,601.66,95.88L601.66,95.88z"/>
		<path class="st10" d="M469.66,95.89c-0.01,18.54,0,37.09-0.06,55.63c-0.01,1.76,0.58,3.66-0.76,5.26
			c-0.04-20.31-0.08-40.63-0.13-60.94C469.06,95.46,469.37,95.48,469.66,95.89z"/>
		<path class="st11" d="M312.67,95.88c-0.01,18.55-0.01,37.1-0.07,55.65c-0.01,1.76,0.59,3.67-0.76,5.26
			c-0.04-20.32-0.08-40.64-0.12-60.96C312.06,95.45,312.38,95.49,312.67,95.88z"/>
		<path class="st12" d="M248.64,71.85c-0.64-0.01-1.27-0.01-1.91-0.02c0.05-1.51,1.19-1.31,2.14-1.31
			c19.26,0.07,38.53,0.15,57.79,0.22c-1.41,1.75-3.39,1.05-5.12,1.06C283.9,71.87,266.27,71.85,248.64,71.85L248.64,71.85z"/>
		<path class="st13" d="M681.82,150.48c-1.15,0.44-1.18,0.44-1.18-0.29c-0.01-7.63-0.03-15.27,0-22.9
			c0.04-8.49,0.24-16.98-1.15-25.4c1.84,2.1,2.4,4.63,2.4,7.32C681.88,122.96,681.84,136.72,681.82,150.48L681.82,150.48z"/>
		<path class="st14" d="M353.55,121.85c-1.71,2.04-0.84,4.47-0.87,6.7c-0.11,9.08-0.05,18.15-0.57,27.23
			c0.12-12.99-1.68-26,0.56-38.95c0.19-1.09-0.31-3.15,2.08-2.8C354.35,116.64,353.95,119.24,353.55,121.85L353.55,121.85z"/>
		<path class="st15" d="M129.96,10.73c-8.82-1.76-17.73-0.49-26.6-0.91c-1.91-0.09-3.98,0.68-5.69-0.84
			c9.38-1.23,18.77-1.77,28.19-0.3C127.51,8.94,129.25,8.72,129.96,10.73z"/>
		<path class="st16" d="M526.76,113.59v42.17c-0.38,0-0.75,0-1.12,0c0-11.2-0.11-22.4,0.06-33.6c0.07-4.41-0.93-8.91,0.68-13.25
			C526.5,110.47,526.63,112.03,526.76,113.59z"/>
		<path class="st17" d="M97.7,217.53c10.28-1.13,20.57-1.13,30.85,0C118.27,219.18,107.98,219.48,97.7,217.53z"/>
		<path class="st18" d="M460.07,151.75c-1.37-0.51-1.43-1.67-1.43-2.86c0-13.26-0.01-26.53,0.04-39.79c0-0.74,0.55-1.49,0.84-2.23
			C459.7,121.83,459.88,136.79,460.07,151.75z"/>
		<path class="st19" d="M395.48,156.81c-1.12-1.06-0.84-2.45-0.83-3.75c0.02-13.45,0.05-26.9,0.08-40.35
			c0.94,0.36,1.04,1.18,1.04,2.01C395.67,128.75,395.57,142.78,395.48,156.81L395.48,156.81z"/>
		<path class="st15" d="M8.91,98.9c1.67,8.94,0.25,17.97,0.73,26.94c0.69,1.27,1.21,2.49-0.86,2.96
			C7.79,118.84,6.8,108.86,8.91,98.9z"/>
		<path class="st20" d="M265.66,85.75c0.87-1.03,2.07-0.91,3.22-0.91c11.63,0,23.25,0,34.88,0c1,0,2-0.03,2.8,0.74
			C292.92,85.64,279.29,85.69,265.66,85.75z"/>
		<path class="st8" d="M264.61,105.84c-1.08-0.18-1.91-0.68-1.91-1.89c-0.03-5.32-0.03-10.65-0.02-15.97c0-1.46,0.91-2.02,2.27-2.03
			L264.61,105.84z"/>
		<path class="st21" d="M326.66,83.74c0-1.16,0-2.31-0.01-3.47c-0.13-9.58,1.19-8.01-7.88-8.56c-5.17-0.31-6.89,1.4-6.2,6.35
			c0.21,1.54,0.57,3.32-0.73,4.73c-0.98-12.23-0.98-12.24,10.84-12.22c1.64,0,3.29,0.16,4.93,0.25c0.95,4.12,0.62,8.25,0.16,12.38
			C327.58,83.76,327.23,83.99,326.66,83.74z"/>
		<path class="st22" d="M484.54,156.81c-1.31-1.17-0.9-2.74-0.9-4.17c-0.03-10.37-0.02-20.74,0-31.11c0-0.98-0.17-3.15,1.15-0.38
			L484.54,156.81L484.54,156.81z"/>
		<path class="st23" d="M265.62,120.87c1.43-1.66,3.37-0.99,5.1-1c8.06-0.07,16.12-0.04,24.18-0.02c1.98,0,3.96,0.1,5.73-1.01
			c0.41,0.24,0.71,0.58,0.9,1.02c-0.16,1.51-1.34,1.16-2.23,1.16C288.07,120.98,276.85,120.92,265.62,120.87z"/>
		<path class="st24" d="M300.59,107.78c-10.49,0.02-20.98,0.07-31.48,0.04c-1.55,0-3.43,0.65-4.41-1.36
			c10.15,0.12,20.3,0.23,30.45,0.36c1.82,0.02,3.64,0.18,5.46,0.27C300.61,107.32,300.6,107.55,300.59,107.78L300.59,107.78z"/>
		<path class="st25" d="M8.79,128.81c1.04-0.77,0.81-1.91,0.86-2.96c0.4,0.29,1.14,0.56,1.16,0.87c0.34,6.8,3.41,13.21,2.83,20.12
			C10.95,141.12,10.11,134.9,8.79,128.81z"/>
		<path class="st26" d="M593.78,137.24c-5.3-2.31-10.53-2.42-15.66,0.52c0.08-3.07,1.59-4.22,4.68-3.96
			c3.08,0.26,6.19,0.12,9.29,0.04C595.25,133.76,595.53,134.97,593.78,137.24L593.78,137.24z"/>
		<path class="st27" d="M534.92,114.91c0.43,7.62,0.47,15.24-0.02,22.86C532.5,130.15,532.96,122.53,534.92,114.91z"/>
		<path class="st28" d="M549.75,132.85c-4.24-3.68-1.8-8.35-1.54-12.54c0.08-1.26,0.93-3.49,2.74-4.38
			C549.7,121.51,549.68,127.17,549.75,132.85z"/>
		<path class="st29" d="M624.88,132.9c1.72,6.01-0.15,12.34,1.62,18.34C622.5,145.44,622.44,139.28,624.88,132.9z"/>
		<path class="st30" d="M601.65,81.83l14.99,0.01c0.53,2.61-1.42,2.04-2.74,2.04c-4.09,0.01-8.18-0.09-12.28-0.15
			C601.05,83.09,601.07,82.46,601.65,81.83L601.65,81.83z"/>
		<path class="st31" d="M601.65,81.83c-0.01,0.63-0.02,1.27-0.02,1.9c-2.62-3.87-0.47-8.16-1.05-12.22
			c-0.04-0.26,0.65-0.91,0.94-0.88c5.03,0.59,10.28-1.63,15.12,1.2c-1.64,0-3.27,0-4.91,0C601.59,71.84,601.59,71.84,601.65,81.83
			L601.65,81.83z"/>
		<path class="st32" d="M513.79,94.86c-5.35-0.49-10.8,0.95-16.09-0.78C503.16,92.36,508.56,91.73,513.79,94.86z"/>
		<path class="st33" d="M571.88,94.76c-4.74-0.32-9.59,1.12-14.23-0.85C562.47,92.98,567.34,91.03,571.88,94.76z M572.52,145.32
			c-3.41,4.38-12.85,4.02-15.85-0.6C561.86,147.5,567.15,147.53,572.52,145.32z"/>
		<path class="st34" d="M578.7,115.61c2.73-1.6,5.74-0.84,8.55-0.66c3.39,0.22,5.41-0.85,6.31-4.08c0.34,1.56,0.68,3.13,1.03,4.74
			H578.7L578.7,115.61z"/>
		<path class="st35" d="M217.49,123.8c-1.41-6.97-1.41-13.94,0-20.92C217.97,109.86,217.97,116.83,217.49,123.8z"/>
		<path class="st36" d="M381.58,94.06c-5.43,1.46-10.99-0.47-16.44,0.66C370.52,91.89,376.03,92.46,381.58,94.06z"/>
		<path class="st37" d="M339.64,95.87c-0.69-0.01-1.38-0.01-2.06-0.01c4.6-2.52,9.58-1.04,14.28-0.81c1.76,0.08,0.64,3.73,0.67,5.77
			c-0.52-4.59-3.34-5.62-7.45-5.01C343.3,96.07,341.46,95.86,339.64,95.87z"/>
		<path class="st38" d="M625.74,109.87c1.64,2.58,4.24,1.95,6.64,1.97c3.11,0.03,6.23,0.03,9.35,0.04
			c-5.03,2.76-10.43,0.85-15.64,1.04C624.97,112.96,625.63,110.96,625.74,109.87z"/>
		<path class="st15" d="M361.73,106.34c3.36-3.41,7.1-3.01,10.98-1.08c0.05,0.02,0.01,0.31-0.06,0.44
			c-0.07,0.14-0.23,0.23-0.35,0.34C368.77,105.82,365.24,105.69,361.73,106.34L361.73,106.34z"/>
		<path class="st39" d="M558.73,106.33c3.55-3.39,9.96-3.6,12.77-0.41C567.21,105.09,562.93,104.36,558.73,106.33z"/>
		<path class="st40" d="M312.67,95.88c-0.31-0.02-0.63-0.04-0.94-0.05c5.2-2.19,10.56-0.87,15.86-0.74
			c-0.08,0.22-0.13,0.45-0.15,0.69c-0.22,0.55-0.5,0.58-0.84,0.1C321.96,95.88,317.31,95.88,312.67,95.88L312.67,95.88z"/>
		<path class="st41" d="M469.66,95.89c-0.31-0.02-0.62-0.04-0.94-0.05c5.03-1.8,10.05-1.88,15.07,0.07
			C479.08,95.9,474.37,95.89,469.66,95.89L469.66,95.89z"/>
		<path class="st40" d="M601.66,95.88c-0.34-0.02-0.67-0.03-1.01-0.05c5.33-1.82,10.66-1.85,15.99,0.01l-2.02,0.02
			C610.31,95.87,605.98,95.88,601.66,95.88z"/>
		<path class="st42" d="M691.64,71.86c-0.34-0.01-0.69-0.01-1.03-0.02c5.33-2.12,10.65-2.11,15.98,0c-0.32,0-0.63,0.01-0.95,0.02
			c-0.34,0.49-0.67,0.49-1.01,0C700.3,71.86,695.97,71.86,691.64,71.86L691.64,71.86z"/>
		<path class="st43" d="M214.86,90.46c-2.57-3.11-3.47-6.61-2.48-10.55C213.41,83.38,215.29,86.65,214.86,90.46z"/>
		<path class="st44" d="M635.69,157.59c4.45-1.35,8.64,0.31,12.9,1.12C644.23,159.11,639.87,159.42,635.69,157.59z"/>
		<path class="st45" d="M824.81,127.96c-1.35-2.94,1.21-3.8,2.77-5.19C829.57,126.05,827.18,127,824.81,127.96z"/>
		<path class="st46" d="M300.59,107.78c0-0.23,0.01-0.46,0.03-0.69c2.31,4.11,0.63,8.51,0.91,12.77c-0.3-0.34-0.6-0.68-0.9-1.02
			C300.62,115.15,300.61,111.46,300.59,107.78z"/>
		<path class="st3" d="M327.76,83.2l-0.16-12.38C329.22,74.93,328.91,79.06,327.76,83.2z"/>
		<path class="st47" d="M761.74,132.98c-0.39-0.9-1.22-0.97-2.03-1.1c0.34-0.35,0.62-0.82,1.04-1.01c1.37-0.64,3.09-2.95,4.13-1.11
			C765.8,131.39,763.29,132.31,761.74,132.98L761.74,132.98z"/>
		<path class="st48" d="M401.9,134.92c1.52,4.06,0.44,8.26,0.63,12.39C400.54,143.27,401.41,139.09,401.9,134.92z"/>
		<path class="st43" d="M80.08,212.96c2.81-0.57,5.59,0.08,8.05,1.11c1.26,0.53-0.61,0.59-0.92,0.99
			C84.6,215.17,82.25,214.38,80.08,212.96L80.08,212.96z"/>
		<path class="st39" d="M139,215.04c-0.26-0.4-2.3-0.37-0.78-1.01c2.36-0.99,5.06-1.65,7.77-1.07
			C143.91,214.47,141.44,214.7,139,215.04L139,215.04z"/>
		<path class="st23" d="M559.63,157.85c3.31,0.37,6.77-0.9,9.96,0.86c-3.32,0.41-6.64,0.4-9.96-0.03c-0.29-0.18-0.39-0.37-0.29-0.55
			C559.44,157.94,559.53,157.85,559.63,157.85z"/>
		<path class="st49" d="M394.81,112.81c-1.56-2.79-2.13-5.74-1.42-8.9C395.21,106.66,394.94,109.75,394.81,112.81z"/>
		<path class="st50" d="M493.83,105.96c1.55-2.96,4.27-1.81,7.29-2.21c-1.55,1.72-3.61,0.46-4.47,1.98
			C495.71,105.8,494.77,105.88,493.83,105.96L493.83,105.96z"/>
		<path class="st51" d="M823.52,131.73c-1.04,1.44-2.36,2.43-4.77,2.85c1.04-2.06,2.05-3.27,3.81-3.77
			C822.88,131.12,823.2,131.42,823.52,131.73L823.52,131.73z"/>
		<path class="st43" d="M80.25,13.62c-1.32,2.71-3.76,2.18-6.04,2.11C75.98,14.31,78.02,13.69,80.25,13.62z"/>
		<path class="st52" d="M443.09,108.92c2.32,2.29,2.33,4.58-0.02,6.87C443.64,113.49,443.59,111.21,443.09,108.92z"/>
		<path class="st53" d="M559.63,157.85c0,0.28,0,0.55,0,0.83l-4.94-1.12C556.41,156.53,558.07,156.32,559.63,157.85z"/>
		<path class="st54" d="M744.5,102.73c0.04,0.38,0.09,0.77,0.13,1.15c-0.67,1.02-1.58,1.51-3.11,1.26
			C741.78,103.3,743.11,102.97,744.5,102.73z"/>
		<path class="st39" d="M138.55,11.17c-1.71,0.96-3.37,1.2-4.92-0.31C135.33,10.08,136.94,10.69,138.55,11.17z"/>
		<path class="st55" d="M1063.6,116.8c0.01-0.34,0.02-0.67,0.04-1.01c0.95-1.3,2.2-0.96,3.75-0.83
			C1066.27,116.43,1065.02,116.8,1063.6,116.8z"/>
		<path class="st56" d="M390.75,99.62c-0.64,1.07-1.26,0.54-1.84-0.04c-0.57-0.57-1.14-1.19-0.08-1.85
			C389.84,97.98,390.47,98.63,390.75,99.62L390.75,99.62z"/>
		<path class="st23" d="M571.86,157.99c1.01-2.05,2.36-1.2,3.7-0.43C574.32,157.7,573.09,157.84,571.86,157.99z"/>
		<path class="st57" d="M648.63,93.83l-0.02,1c-1.83-0.03-3.66-0.06-5.49-0.09C644.73,93.02,646.75,93.85,648.63,93.83L648.63,93.83
			z"/>
		<path class="st58" d="M439.65,94.83c-0.01-0.33-0.02-0.66-0.02-0.99c1.65-0.18,3.31-0.35,4.92,0.3
			C443.06,95.37,441.29,94.64,439.65,94.83L439.65,94.83z"/>
		<path class="st59" d="M510.18,113.93c2.03,0.73,1.29,2.5,1.47,3.93c0.27,0.22,0.36,0.44,0.27,0.65c-0.09,0.22-0.18,0.32-0.28,0.32
			l-0.44,0l-0.44,0C510.56,117.2,510.37,115.56,510.18,113.93L510.18,113.93z"/>
		<path class="st60" d="M141.55,116.75c-6.82,12.6-11.84,25.99-17.13,39.25c-3.7,9.28-7.71,18.41-12.73,27.06
			c-0.84,1.44-1.6,2.96-2.67,4.21c-2.5,2.9-4.43,7.19-9.59,4.67c-4.28-2.08-5.66-5.77-3.49-11.54c2.69-7.15,5.93-14.09,8.93-21.11
			c11.12-25.98,22.27-51.95,33.33-77.97c1.36-3.2,2.33-6.58,3.28-9.93c0.64-2.27-0.16-3.17-2.58-2.12
			c-3.04,1.32-6.15,2.49-9.22,3.72c-0.46-0.41-0.51-0.88-0.15-1.38c5.71-4.02,11.89-7.22,18.1-10.36c2.45-1.24,5.02-1.79,7.51,0.13
			c2.58,1.99,3,4.68,2.46,7.61c-0.75,4.04-1.64,8.04-2.59,12.67c5.39-1.95,10.11-3.65,14.82-5.36c3.47-1.26,7.08-1.81,10.75-1.83
			c10.56-0.04,17.32,8.07,15.46,18.46c-1.02,5.72-3.94,10.51-7.35,15.06c-0.94,1.05-1.78,2.22-3.12,2.83
			c-6.12,5.55-13.46,8.91-21.07,11.82c-0.13,0.2-0.26,0.4-0.38,0.61c-1.51,0.76-3.24,0.79-4.79,1.46c-0.5,0.07-0.99,0.11-1.5,0.13
			c-2.07,0.02-4.13,0.04-6.19-0.01c-2.67-0.12-4.51-1.51-5.74-3.8c-1.15-3.61-0.07-6.84,1.73-9.94c1.97-2.83,3.83-5.74,6.42-8.08
			c4.16-2.77,8.45-5.42,13.2-7c2.4-0.8,5.82-3.77,7.44-0.39c1.32,2.76-2.67,4.03-4.81,5.36c-2.98,1.85-5.87,3.8-8.6,5.98
			c-0.86,0.68-2.09,1.21-1.79,2.72c1.38,0.94,2.58,0.08,3.7-0.49c5.08-2.61,9.39-6.33,13.39-10.27c2.52-2.48,4.35-5.81,0.5-9.03
			c-2.09-1.23-4.21-0.88-6.33-0.11c-12.56,3.65-21.38,11.49-26.52,23.51C143.63,114.63,143.04,116.06,141.55,116.75L141.55,116.75z
			 M75.45,81.6c-1.23,5.91-0.23,11.89-0.56,17.83c-0.16,2.93,1.9,2.55,3.73,2.55c10.5,0,21,0.17,31.49-0.09
			c3.87-0.1,4.73,1.2,4.69,4.85c-0.12,12.23,0.02,12.23-12.12,12.23c-7.5,0-15-0.05-22.5,0.04c-1.56,0.02-3.34-0.76-4.7,0.73
			c0.33,11.32,0,22.65,0.18,33.97c0.05,3.54-1.2,5.26-4.93,5.14c-4.49-0.14-8.99-0.06-13.49-0.02c-2.83,0.02-4.16-0.93-4.15-4.08
			c0.09-29.65,0.11-59.3,0-88.94c-0.02-4.19,2.52-3.96,5.25-3.96c17.16-0.01,34.31-0.04,51.47,0.01
			c13.21,0.03,11.73-1.38,11.82,11.69c0.01,1.33-0.04,2.67-0.01,4c0.07,2.9-1.28,4.3-4.21,4.27C103.42,81.71,89.43,82.13,75.45,81.6
			L75.45,81.6z"/>
		<path class="st61" d="M75.45,81.6c1.38-1.46,3.14-0.71,4.71-0.72c12.15-0.07,24.3-0.15,36.45,0.03c3.31,0.05,4.48-0.98,4.18-4.26
			c-0.42-4.43,1.81-10.15-0.87-13.01c-2.73-2.91-8.5-0.89-12.93-0.93c-16.31-0.12-32.62,0.04-48.93-0.12
			c-3.44-0.03-4.52,0.88-4.5,4.45c0.14,28.96,0.13,57.92,0.01,86.88c-0.01,3.24,0.83,4.5,4.16,4.19c5.57-0.51,12.88,2.31,16.25-1.22
			c2.7-2.83,0.69-10.09,0.91-15.38c0.29-7.26-0.76-14.55,0.6-21.77l0.4,0.28c0.32,12.54,0.54,25.08-0.11,37.62
			c-0.42,0.43-0.85,0.86-1.27,1.3c-6.92,0.63-13.84,0.65-20.75-0.02c-1.75-1.41-1.1-3.38-1.1-5.13c-0.04-28.98-0.04-57.95,0-86.93
			c0-1.74-0.65-3.72,1.13-5.11c3.78-0.84,7.6-0.35,11.4-0.37c16.79-0.06,33.58-0.04,50.37-0.01c1.64,0,3.33-0.33,4.93,0.36
			c0.41,0.4,0.82,0.8,1.23,1.21c0.64,5.95,0.73,11.89-0.03,17.84c-0.38,0.37-0.77,0.74-1.15,1.12c-9.42,0.97-18.86,0.27-28.29,0.39
			c-5.46,0.07-10.94,0.33-16.4-0.21C75.69,81.93,75.56,81.77,75.45,81.6L75.45,81.6z"/>
		<path class="st25" d="M146.66,120.85c1.12,1.88,2.89,2.68,4.96,2.96c2.35,0.84,4.69,0.91,7.02-0.03l0.3-0.2l0.32,0.16
			c1.63-1.02,3.8,0.52,5.3-1.12c0,0-0.08,0.01-0.08,0.01c2.59,0.92,1.35,1.6-0.17,2.15c-8.29,2.98-14.96,1.11-20.62-5.79
			c-0.66-0.8-2.41-0.56-2.14-2.23c5.22-13.96,13.78-24.47,28.99-28.14c0.36,0.32,0.58,0.73,0.64,1.21
			c-0.32,2.48-2.39,2.85-4.23,3.46c-4.61,1.52-8.12,4.76-12.08,7.35c-2.27,1.48,0.56,2.28-0.23,3.26c-1.93,2.35-3.87,4.69-5.81,7.04
			C146.1,113.8,145.33,117.09,146.66,120.85L146.66,120.85z"/>
		<path class="st62" d="M120.47,61.74c-22.23,0.01-44.47,0.01-66.7,0.02c0.99-1.27,2.41-0.9,3.69-0.9c19.77-0.02,39.54-0.02,59.31,0
			C118.05,60.86,119.47,60.47,120.47,61.74L120.47,61.74z"/>
		<path class="st58" d="M75.83,82.08l44.69-0.19c-1.48,1.63-3.42,0.9-5.15,0.91c-12.9,0.07-25.8,0.06-38.7,0.07
			c-0.33,0.49-0.61,0.44-0.84-0.09C75.78,82.55,75.79,82.32,75.83,82.08z"/>
		<path class="st63" d="M76.62,119.98h36.76l0.01,0.9H76.67c-0.31-0.19-0.42-0.38-0.33-0.59C76.43,120.09,76.52,119.98,76.62,119.98
			L76.62,119.98z"/>
		<path class="st15" d="M76.66,99.83h36.76c0,0.33,0.01,0.67,0.01,1h-36.8c-0.26-0.23-0.34-0.46-0.24-0.68
			C76.47,99.93,76.57,99.83,76.66,99.83L76.66,99.83z"/>
		<path class="st64" d="M76.62,119.98c0.01,0.3,0.03,0.6,0.05,0.9c-0.01,10.7,0,21.4-0.06,32.1c-0.01,1.57,0.63,3.32-0.83,4.66
			c0.04-12.54,0.07-25.09,0.11-37.62C76.12,119.94,76.37,119.93,76.62,119.98L76.62,119.98z"/>
		<path class="st65" d="M53.75,158.92c6.92,0.01,13.84,0.01,20.76,0.02C67.58,160.43,60.66,160.46,53.75,158.92z"/>
		<path class="st66" d="M121.67,80.78c0.01-5.95,0.02-11.89,0.03-17.84C123.19,68.89,123.25,74.84,121.67,80.78z"/>
		<path class="st64" d="M76.66,99.83c-0.01,0.33-0.02,0.67-0.03,1c-1.92-5.94-0.54-12.02-0.79-18.03c0.28,0.04,0.56,0.07,0.85,0.09
			C76.67,88.53,76.66,94.18,76.66,99.83z"/>
		<path class="st67" d="M115.85,117.36v-14.32l0.48,0v14.75C116.17,117.65,116.01,117.51,115.85,117.36L115.85,117.36z"/>
		<path class="st68" d="M128.66,73.86c-1.2,0.89-2.5,2.75-3.92,1.1c-0.79-0.93,0.85-1.72,1.97-2.01
			C127.3,73.39,128.25,73.05,128.66,73.86L128.66,73.86z"/>
		<path class="st69" d="M128.66,73.86c-0.71-0.16-1.57-0.03-1.95-0.91c0.94-0.45,1.88-0.9,2.82-1.35c0.05,0.46,0.1,0.92,0.15,1.38
			C129.34,73.28,129,73.57,128.66,73.86L128.66,73.86z"/>
		<path class="st70" d="M185.55,110.81c1.04-0.94,2.08-1.89,3.12-2.83C188.47,109.84,187.47,110.83,185.55,110.81z"/>
		<path class="st71" d="M1063.63,115.79c-3.74,0.29-6.68-1.76-9.75-3.37c-7.06-3.71-13.99-4.82-21.07,0.15
			c-1.95,1.37-4.5,4.21-6.47,2.82c-2.44-1.72,0.61-4.37,1.08-6.65c0.69-3.39-0.59-5.87-3.62-7.39c-3.38-1.7-4.88,0.53-6.04,3.15
			c-0.87,1.96-1.81,3.93-2.4,5.98c-2.03,7.17-3.93,14.38-5.82,21.59c-0.34,1.31-0.47,2.81-1.79,3.4
			c-6.02,2.68-11.75,6.13-18.64,6.48c-3.34,0.17-4.59-0.65-2.48-4.3c-4.54,2.62-6.43,1.87-7.66-2.46c-1.38-4.84,0.84-10,4.32-9.75
			c8.65,0.63,14.83-4.23,20.4-9.65c3.59-3.49,2.77-8.54,0.78-12.67c-1.79-3.71-5.7-3.41-9.17-2.65
			c-12.88,2.81-20.57,11.25-25.1,23.19c-0.65,1.7-0.11,4.05-2.26,5.19c-1.75-1.29-0.83-3.11-1.12-4.63c-0.92-4.8-1.94-9.87-6.8-12
			c-5.23-2.29-10.24-0.62-14.76,2.84c-4.24,3.24-8.15,6.83-11.88,10.63c-0.97,0.99-1.65,2.59-4.38,1.95
			c2.85-5.92,5.64-11.67,8.39-17.42c1.06-2.22,2.78-4.57,0.06-6.69c-2.87-2.24-6.3-2.26-8.59,0.38c-3.8,4.39-7.94,8.57-10.73,13.77
			c2.76,0.94,2.15,2.85,1.44,4.85c-2,5.6-3.28,11.41-4.65,17.28c-0.44-1.01-0.91-1.89-1.34-2.78c-1.02-2.32-0.42-4.79-0.67-7.19
			c-0.29-2.83,0.14-5.88-2.21-8.17c-1.31-7.7-5.9-11.21-12.9-10.15c-4.36,0.66-7.56,3.21-10.77,5.84
			c-4.16,3.41-8.16,7.01-11.97,11.5c-0.93-2.57-0.2-3.84,0.46-5.18c2.26-4.61,4.49-9.24,6.65-13.9c0.93-2.01,2.87-4.23,0.1-6.17
			c-2.61-1.83-5.54-2.46-8.26-0.16c-1.24,1.05-2.14,2.51-3.24,3.73c-3.86,4.27-6.96,9.27-11.92,12.5c-0.91,0.59-1.59,2.13-2.84,0.99
			c-4.67-4.28-8.93-1.14-13.31,0.55c-6.86,2.64-12.7,7.14-19.16,10.49c-0.47,0.43-1.25,0.78-1.59,0.46
			c-0.33-0.31,0.54-0.83,0.63-1.38c0.75-0.95,1.5-1.9,2.26-2.85c0.37-2.02,2.26-3.24,2.77-5.19c3.42-4.2,8-6.86,12.54-9.6
			c3.31-2,6.36-3.5,9.87-0.13c1.51,1.45,3.79,1.23,5.53-0.18c1.78-1.44,1.12-3.16,0.43-4.98c-2.71-7.1-8.57-9.43-16.27-6.06
			c-9.22,4.04-17.65,9.43-24.27,17.07c-5.91,6.82-12.62,13.08-15.16,22.43c-0.91,3.35-5.22,4.74-8.76,4.04
			c-3.93-0.78-2.91-4.32-2.44-7c2.79-15.77,7.82-30.82,14.76-45.25c3.95-8.22,7.93-16.43,11.7-24.73c0.9-1.97,2.02-4.36-0.97-6.08
			c-3.07-1.76-4.78,0.18-6.19,2.19c-2.47,3.53-4.8,7.19-6.9,10.95c-6.25,11.2-10.77,23.15-14.76,35.3
			c-0.92,2.79-1.74,4.76-4.75,1.38c-2.87-3.22-7.01-2.86-10.76-2.12c-4.22,0.83-8.24,2.5-12.05,4.57c-0.86,0.47-1.69,1.49-2.66,0.87
			c-1.21-0.78-0.5-2.08-0.3-3.19c0.52-2.94,1.33-5.86,1.49-8.82c0.27-5.11-2.31-6.81-6.78-4.61c-2.22,1.09-4.26,2.57-6.37,3.88
			c-0.08,0-0.14,0.14-0.2,0.41c-0.05,0.26,0.06,0.51,0.32,0.74c2.08-0.33,3.31,0.24,2.69,2.64c-0.46,1.76-0.88,3.54-1.5,5.24
			c-10.07,27.24-20.18,54.47-30.27,81.71c-0.98,2.64-2.24,5.21-2,8.15c0.19,2.38,1.24,4.11,3.57,4.9c2.32,0.78,3.38-1.02,4.38-2.42
			c3.1-4.36,5.24-9.24,7.21-14.18c6.39-16.02,11.32-32.59,18.11-48.47c4.12-9.64,9.55-17.86,20.09-21.5c3-1.04,5.66-1.2,7.66,1.43
			c1.96,2.59,1.25,5.26-0.45,7.85c-2.9,4.41-6.88,7.62-11.28,10.38c-1.79,1.12-3.95,1.93-5.32-0.09c-1.36-2.01,0.92-3.18,2.08-4.47
			c0.66-0.74,1.43-1.38,2.15-2.06c0.06-1.73-0.72-1.89-2.03-1.1c-3.61,2.56-6.3,5.87-8.1,9.91c-2.04,4.59-0.22,7.54,4.87,7.4
			c6.89-0.19,12.79-3.11,18.16-7.24c0.99-0.76,1.76-2.52,3.25-1.72c1.38,0.74,0.48,2.41,0.5,3.63c0.17,9.29,5.78,13.34,14.51,10.44
			c2.7-0.9,5.23-2.09,7.57-3.7c0.8-0.55,1.8-1.45,2.57-1.33c8.1,1.24,14.29-3.14,20.64-6.94c4.55-2.73,8.9-5.79,13.36-8.67
			c2.44-1.57,5.26-1.79,6.43,1.02c3.33,7.99,8.03,13.54,16.81,16.67c4.26,1.52,6.23,1.3,8.81-1.22c1.53-1.49,2.65-3.4,3.98-5.09
			c5.98-7.6,12.06-15.08,20.95-19.6c4.71-2.39,5.77-2.02,6.55,3.09c0.68,4.44,1.47,8.88,1.75,13.35
			c0.66,10.3,8.58,10.06,15.65,11.08c4.46,0.64,6.38-2.78,8.65-5.63c6.52-8.19,12.72-16.68,22.33-21.73
			c5.03-2.65,6.29-2.23,7.2,3.46c0.76,4.74,0.64,9.6,1.99,14.28c2.69,9.32,7.68,11.36,15.96,6.51c1.34-0.79,2.43-1.87,4.49-1.06
			c8.79,3.41,16.58,0.78,23.76-4.58c1.16-0.86,1.94-2.38,3.87-2.12c0.66,2.81-1.04,5.08-1.9,7.49c-1.21,3.37-1.31,6.52,2.54,7.88
			c3.64,1.28,5.88-0.66,7.12-4.24c1.79-5.18,3.83-10.26,5.82-15.37c4.88-12.56,14.45-19.1,28.09-18.95
			c5.37,0.06,10.58-0.58,15.71-2.1c0.09,0,0.18-0.11,0.27-0.33C1063.96,116.25,1063.88,116.03,1063.63,115.79L1063.63,115.79z
			 M993.89,109.47c1.37-0.06,2.26,0.53,2.39,1.91c0.17,1.93-5.55,6.38-8.17,6.42c-1.05,0-2-0.13-2.09-1.49
			C985.86,114.27,991.26,109.59,993.89,109.47L993.89,109.47z"/>
		<path class="st71" d="M991.53,131.74c-2.13,1.33-3.08,2.42-3.95,5C990.07,135.46,991.02,134.37,991.53,131.74z"/>
		<path class="st72" d="M968.49,132.07c0.18,1.47,0.32,2.94,0.53,4.41c0.18,1.21,1.13,2.38-0.12,4.06
			C967.41,137.45,967.28,134.62,968.49,132.07L968.49,132.07z"/>
		<path class="st0" d="M1390.89,114.18c-5.01-21.24-30.86-27.38-45.03-12.21c2.49-7.73-2.09-7.14-6.34-6.98
			c-1.5,0.06-3.02,0.19-4.49-0.02c-3.91-0.57-5.06,0.91-5.03,4.89c0.19,22.32,0.09,44.65,0.09,66.97c0,11.62,0,11.47,11.76,11.63
			c3.81,0.05,5.23-0.8,5.04-4.9c-0.35-7.68-0.1-15.39-0.1-23.88c13.02,14.76,38.92,10.77,44.41-12.31
			C1393.06,129.62,1392.73,121.95,1390.89,114.18L1390.89,114.18z M1372.65,138.81c-2.22,4.56-6.31,6.49-11.43,6.53
			c-5.33,0.04-9.28-2.15-11.88-6.72c-2.2-3.85-2.84-8.09-2.7-12.78c-0.22-3.9,0.35-8.01,2.28-11.77c2.25-4.37,5.62-7.16,10.9-7.44
			c5.53-0.29,9.96,1.57,12.51,6.39C1376.77,121.45,1376.82,130.25,1372.65,138.81L1372.65,138.81z M1228.45,93.68
			c-20.23-0.03-32.54,12.39-32.48,32.75c0.06,19.45,12.46,31.91,31.81,31.95c19.69,0.04,31.84-12.28,31.84-32.28
			C1259.63,106.25,1247.57,93.71,1228.45,93.68L1228.45,93.68z M1241.69,134.41c-1.96,7.1-6.6,10.82-13.59,10.9
			c-7.24,0.07-11.79-3.19-13.86-10.47c-1.67-5.86-1.65-11.89,0.01-17.75c2.06-7.24,6.89-10.57,14.4-10.4
			c6.58,0.15,11.17,4.01,13.05,10.93c0.74,2.75,1.19,5.53,0.88,8.14C1242.83,128.86,1242.44,131.66,1241.69,134.41L1241.69,134.41z"
			/>
		<path class="st73" d="M443.48,135.58l-0.02-7.69c2.42,3.11,0.7,6.53,0.43,9.88C443.75,137.04,443.62,136.31,443.48,135.58z"/>
		<g>
			<path class="st74" d="M460.07,151.75c-0.38-0.26-0.91-0.32-0.9-1c0.14-14.63-0.52-29.26,0.35-43.88
				c-1.89-6.28-5.14-11.01-12.51-11.32c-0.84-0.03-1.64-0.92-2.46-1.42c-1.51,0.3-3.03,0.27-4.55,0.18c0,0.06-0.01,0.12-0.03,0.18
				c-0.1,0.22-0.21,0.33-0.32,0.33c-4.99-0.52-10.11,1.15-15-0.94c-1.1,0.02-1.94,0.73-3.18,0.77c-8.14,0.23-15.33,6.23-17.54,14.26
				c0.76,2.01,1.88,3.29,4.35,2.96c3.95-0.52,8.27,1.21,11.79-1.94c0,0,0,0,0,0c0,0,0,0,0,0c1.4-2.87,3.95-4.49,6.58-6.02
				c3.66-1.73,7.32-1.74,10.98,0c2.06,1.41,4.32,2.6,5.47,5c1.72,2.29,1.75,4.58-0.02,6.87c-1.82,1.31-3.65,2.62-5.47,3.93
				c-0.56,1.65-1.92,1.92-3.44,2.23c-5.15,1.06-10.31,1.4-15.54,0.85c-9.37,0.79-14.6,4.58-16.72,12.12
				c0.77,4.1-0.34,8.3,0.63,12.39c1.42,5.92,5.5,8.97,11.16,10.3c4.35-1.85,8.61,1.32,12.95,0.23c0.11-0.12,0.22-0.19,0.32-0.23
				c1.8-1.33,3.68-1.04,5.59-0.05c3.12-0.32,5.5-2.23,8.05-3.76c1.27-0.76,3.52-1.89,3.61,0.05c0.23,5.21,3.76,3.51,6.37,3.63
				c3.48,0.16,6.97,0.04,10.79,0.04C460.92,155.53,460.49,153.64,460.07,151.75L460.07,151.75z M431.37,149.67h-5.59
				c0-0.15-0.01-0.31-0.01-0.46h5.68C431.43,149.37,431.4,149.52,431.37,149.67z M443.48,135.58c-3.33,9.88-6.91,12.81-15.16,12.71
				c-4.48-0.06-8.11-1.45-10.38-5.53c0,0,0,0,0,0c-2.04-1.9-1.86-3.86-0.15-5.86c3.1-6.22,9.49-6.26,14.99-7.95
				c1.14-1.82,2.45-1.31,3.8-0.28c2.34,0.18,4.42-2.04,6.88-0.78C444.55,130.45,444.5,133.01,443.48,135.58L443.48,135.58z"/>
			<path class="st74" d="M418.62,122.8c6.36-0.82,12.99,0,18.98-3.08C431.3,120.95,424.73,120.46,418.62,122.8z M438.86,94.24
				c0.38,0.03,0.76,0.05,1.14,0.08c-0.01-0.16-0.13-0.32-0.37-0.48c-5-1.83-10-1.55-14.99,0.04
				C429.38,94.39,434.15,93.18,438.86,94.24L438.86,94.24z M415.33,112.39c-2.62-0.25-5.3-0.25-7.92-0.01
				c-2.77,0.25-3.43-1.2-3.49-3.46c-0.33,1.48-1.69,3.79,0.66,4.05c4.57,0.5,9.24,0.27,13.86,0.11c1.86-0.07,1.19-2.02,1.63-3.14
				C418.94,111.62,417.59,112.6,415.33,112.39z M426.04,158.3c-4.17,0.64-8.21-0.95-12.35-0.69c4.65,1.48,9.32,2.41,14.04,0.27
				c-0.28-0.01-0.56-0.02-0.84-0.03C426.61,157.98,426.32,158.12,426.04,158.3z M426.65,103.91c3.66,0,7.32,0,10.98,0
				C433.96,102.98,430.3,102.98,426.65,103.91z M427.47,157.64c0.09,0.05,0.18,0.13,0.27,0.24c1.64,0.36,3.25,0.38,4.82-0.32
				C430.82,157.25,429.1,157.1,427.47,157.64L427.47,157.64z"/>
			<path class="st74" d="M427.47,157.64c-0.16-0.1-0.33-0.1-0.5-0.03c-0.11,0.08-0.21,0.14-0.32,0.23l0.25,0.01
				C427.08,157.77,427.27,157.7,427.47,157.64L427.47,157.64z M417.79,136.89c-0.93,1.98-1.22,3.94,0.15,5.86l0,0
				C417.89,140.8,417.84,138.84,417.79,136.89L417.79,136.89z M432.78,128.94c1.27-0.09,2.53-0.19,3.8-0.28
				C435.28,128.33,433.98,127.94,432.78,128.94z"/>
		</g>
		<g>
			<path class="st75" d="M681.82,150.48c-1.65-3.75-0.42-7.68-0.67-11.52c-0.78-12.35,1.57-24.84-1.66-37.08
				c-0.73-1.94-2.66-2.78-3.91-4.23c-2.42-2.8-6.39-1.43-9.03-3.54c-1.48,1.28-3.27,0.52-4.91,0.72c-4.34,0-8.69,0-13.03,0
				c-0.23-0.16-0.34-0.32-0.35-0.48c-1.72,0.07-3.46-0.23-5.14,0.39c-9.19,1.14-15.03,6.13-17.39,15.12
				c0.48,1.22,0.79,2.56,2.6,2.46c4.46-0.26,8.95,0.51,13.39-0.45c1.04-3.75,3.58-6.18,6.93-7.92c3.65-1.85,7.3-1.72,10.97-0.08
				c8.03,5.18,8.03,10.98-0.02,15.87c-4.79,4.67-10.37,3.45-15.96,2.15c-2.69,0.9-5.35,2.39-8.09,2.58
				c-5.69,0.4-8.68,3.65-10.67,8.43c-0.25,6.18-0.9,12.4,1.62,18.34c2.11,3.49,5.24,5.51,9.19,6.35c4.33,0.07,8.59,0.87,12.9,1.12
				c0.91,0.2,1.8,0.31,2.42-0.64c0.86-2.45,2.26-1.1,3.55-0.49c3.16-0.55,5.94-1.91,8.38-3.97c1.85-1.56,3.38-2.47,3.7,1.15
				c0.13,1.49,0.7,2.84,2.73,2.8c4.7-0.07,9.4-0.02,14.93-0.02C682.43,154.92,683.49,152.36,681.82,150.48L681.82,150.48z
				 M665.32,134.96c-0.96,9.61-7.01,14.4-16.69,13.27c-4.36-0.51-7.72-2.4-8.61-6.94c-0.94-4.8,1.63-7.88,5.75-9.9
				c1.03-0.51,2.09-0.95,3.14-1.42c-0.3-0.09-0.65-0.1-0.9-0.27c-0.45-0.3-0.56-0.8,0.11-0.8c1.53,0,3.19-0.58,4.48,0.79
				c0.89,0.21,1.57-0.22,2.21-0.75c1.12-1.88,2.43-1.31,3.78-0.29C666.1,127.13,666.1,127.13,665.32,134.96L665.32,134.96z"/>
			<path class="st75" d="M659.61,119.75c-5.32,0.72-10.64,1.43-15.96,2.15C649.15,122.55,654.54,122.33,659.61,119.75z M660.73,94.2
				c0.3,0.03,0.61,0.05,0.91,0.08c0-0.15-0.01-0.3-0.01-0.45c-4.33-1.62-8.66-1.72-13,0c-0.11,0-0.22,0.11-0.33,0.33
				c-0.03,0.06-0.04,0.13-0.04,0.19c0.07,0,0.14,0,0.21-0.01C652.55,93.65,656.64,93.6,660.73,94.2L660.73,94.2z M648.66,103.96
				c3.66-0.02,7.31-0.05,10.97-0.08C655.96,103.03,652.31,102.92,648.66,103.96z M651.01,158.08c1.18-0.16,2.36-0.33,3.55-0.49
				C653.37,157.71,651.98,156.39,651.01,158.08z"/>
			<path class="st75" d="M662,94.32c1.52,0.12,3.04,0.13,4.56-0.21c-1.64-0.09-3.28-0.18-4.93-0.27
				C661.87,93.99,661.99,94.15,662,94.32z"/>
			<path class="st75" d="M661.97,94.49c0.03-0.06,0.04-0.12,0.03-0.18c-0.12-0.01-0.24-0.02-0.36-0.03c0,0.18,0.01,0.36,0.01,0.54
				C661.76,94.83,661.86,94.72,661.97,94.49L661.97,94.49z M648.91,129.99c1.23-0.09,2.46-0.19,3.69-0.28
				C651.33,129.32,650.07,128.91,648.91,129.99z M654.81,128.95c1.26-0.1,2.52-0.19,3.78-0.29
				C657.29,128.34,655.99,127.93,654.81,128.95z"/>
		</g>
		<path class="st76" d="M511.63,118.83c0-0.33,0-0.65,0.01-0.98c0.31,0.56,0.89,1.12,0.9,1.68c0.05,12.05,0.04,24.1-0.9,36.16
			C511.63,143.41,511.63,131.12,511.63,118.83L511.63,118.83z"/>
		<path class="st77" d="M704.62,71.85h1.01v83.75l-1.01,0V71.85z"/>
		<path class="st78" d="M326.6,95.88c0.28-0.02,0.56-0.05,0.84-0.1c0,20.25,0,40.5,0.01,60.75c-1.53-1.55-0.77-3.48-0.77-5.22
			C326.6,132.83,326.61,114.36,326.6,95.88L326.6,95.88z"/>
		<path class="st1" d="M154.64,103.89c-1.97-0.79-3.64-1.46-0.95-3.67c4.22-3.46,8.38-6.97,13.82-8.31
			c1.38-0.34,2.51-0.71,3.12-2.06c2.14-1.71,4.67-0.71,7.01-1.03c3.93,2.01,4.07,5.18,1.9,8.3c-4.33,6.24-10.39,10.56-17.14,13.87
			c-1.6,0.78-3.92,1.52-5.06-0.27c-1.34-2.12,1.1-3.23,2.4-4.17c4.92-3.55,10-6.89,14.81-10.71
			C166.82,95.86,160.98,100.49,154.64,103.89L154.64,103.89z"/>
		<path class="st79" d="M177.64,88.81c-2.1,1.98-4.69,0.62-7.01,1.03c-0.03-0.41-0.06-0.82-0.09-1.23
			C172.94,87.52,175.32,87.13,177.64,88.81L177.64,88.81z"/>
		<path class="st0" d="M146.66,120.85c-1.82-3.86-1.76-7.32,2.18-9.92C147.26,114.05,145.76,117.19,146.66,120.85z M158.65,123.78
			c-2.33,1.68-4.67,1.64-7.02,0.03C153.96,123.8,156.31,123.79,158.65,123.78z M164.57,122.62c-1.4,2.1-3.49,0.93-5.3,1.12
			C160.97,123.05,162.7,122.52,164.57,122.62z"/>
	</g>
</g>
</svg>
