<svg xmlns="http://www.w3.org/2000/svg" xml:space="preserve" viewBox="0 0 1464 354"><switch><g><g fill-rule="evenodd" clip-rule="evenodd"><path fill="#2E3191" d="M174.922 79.326c36.231 10.433 61.29 32.865 73.831 68.742-.652 3.69 1.94 6.824 1.796 10.431-.003.085.139.25.215.251.155.001.311-.083.467-.132 2.511 3.797 1.603 8.316 2.624 12.428-.615 6.972-.611 13.943-.002 20.916-2.432 20.591-9.511 39.378-22.706 55.462-12.981 15.823-28.737 27.94-48.783 33.687-2.118.502-4.36.385-6.397 1.305-.366.165-.959.082-.6.778-3.261 1.767-6.919 1.863-10.451 2.495-10.283.039-20.566.429-30.849.001-3.582-.456-7.202-.747-10.487-2.467-2.014-1.932-4.767-1.363-7.132-2.106-11.956-2.908-22.196-9.178-31.781-16.567C68.369 251.985 57.252 235.603 50 216.478c-.164-.431-.014-.98-.011-1.475-1.155-7.383-3.073-14.61-4.474-21.949-.96-8.659-.003-17.331-.241-25.992 6.225-39.251 27.87-66.646 63.846-83.01.423-.192.967-.119 1.454-.17 2.063-.261 4.034-.907 6.03-1.446.092-.024.231-.164.219-.228-.027-.151-.131-.289-.205-.432 3.742-2.777 8.438-1.878 12.607-3.087 1.601-.465 2.973-1.87 4.808-1.548 6.087 1.151 12.157-.811 18.233-.121 4.696.531 9.585-.357 14.055 1.872l3.682.123c1.611.605 3.252.661 4.919.311zM1184.763 167.991c-5.438 0-10.731-.048-16.022.026-1.738.024-2.244-.983-2.683-2.349-2.202-6.86-6.896-10.881-14.043-11.722-8.356-.981-15.532 1.212-20.525 8.48-7.138 10.389-7.167 29.625-.026 39.869 5.683 8.153 13.865 9.866 22.979 8.317 7.938-1.349 12.374-6.509 14.211-14.225.63-2.646.137-3.596-2.74-3.445-4.152.216-8.327-.026-12.487.087-2.062.057-3.213-.499-2.963-2.761.036-.329.01-.666-.001-.998-.318-10.271-.318-10.271 9.91-10.271 7.328 0 14.659.106 21.984-.056 2.695-.06 3.748.541 3.712 3.508-.159 12.99-.144 25.983-.009 38.974.029 2.786-.718 4.023-3.582 3.587-.65-.1-1.355-.134-1.992.004-5.312 1.152-7.636-1.198-7.645-6.389 0-.464-.262-.938-.448-1.387-.052-.124-.272-.177-.693-.429-3.642 3.114-7.167 6.555-12.011 8.215-15.812 5.421-35.065-1.015-44.57-15.086-11.413-16.894-10.149-43.142 2.833-58.864 14.009-16.967 43.227-18.129 58.413-2.319 5.032 5.243 7.67 11.544 8.398 19.234z"/><path fill="#2E3192" d="M1342.403 217.188c-6.309 8.272-14.56 10.37-24.057 9.01-9.397-1.347-15.044-6.239-16.144-15.623-1.748-14.923-.421-29.956-.721-44.938-.031-1.563.519-2.587 2.3-2.464.165.012.334.008.499-.009 13.882-1.373 13.821-1.373 13.903 12.346.053 8.824-.457 17.662.456 26.47.793 7.655 3.557 10.793 9.639 11.019 7.544.28 11.61-2.71 12.853-10.242 1.853-11.241.741-22.612.749-33.92.002-4.381.861-5.963 5.629-5.802 11.318.383 11.327.113 11.327 11.554 0 15.498-.074 30.997.065 46.494.026 2.978-.628 4.395-3.834 3.951-1.472-.204-2.995-.035-4.495-.035-7.373 0-7.373 0-8.169-7.811z"/><path fill="#2E3191" d="M301.99 189.031c-.329.323-.657.646-.986.969-.548.652-.931 1.388-.939 2.249-.1 10.297-.144 20.594.026 30.89.011.672.322 1.279.672 1.852-5.838 1.118-11.677 1.136-17.515-.003 1.159-2.011.733-4.225.736-6.355.03-24.126.003-48.252.045-72.378.004-2.115-.534-4.345.773-6.32 6.12-.926 12.277-.327 18.415-.386 11.658-.112 23.317-.009 34.976-.062 1.611-.007 3.338.546 4.836-.573 1.489 4.952 1.768 9.896-.104 14.824-13.635-.308-27.269-.636-40.899.172l-.318.229-.391-.03c-1.649.902-1.391 2.524-1.282 3.923.415 5.317-1.121 10.752.942 15.968.248.17.28.374.097.612 1.212 1.778 3.021.827 4.522.858 10.43.216 20.865-.218 31.294.258 1.191 3.72.518 7.499.37 11.262-1.229 1.914-3.185 1.479-4.966 1.485-8.482.025-16.965-.019-25.447.037-1.619.009-3.331-.492-4.857.519zM563.125 181.748c.95 1.301.856 2.804.855 4.299-.006 11.942-.103 23.886.065 35.825.043 3.071-.823 4.191-3.916 3.852-4.238-.466-9.706 1.787-12.44-.884-2.518-2.46-.687-7.88-.716-11.988-.061-8.619.088-17.24.151-25.86.711-.249 1.146-.005 1.306.73.08 11.629.095 23.26.032 31.117-.293-8.215.592-20.205-.339-32.186-1.404-1.218.438-3.56-1.58-4.567-1.992-6.885-7.107-8.62-13.527-8.203-.204-1.521.711-1.4.979-1.352-.936.162-2.501.443-3.801 1.587-6.619 2.917-7.622 9.173-9.026 15.189-1.411 1.699-.662 3.708-.633 5.535.163 10.042-.606 20.098.375 30.128-5.232 1.122-10.463 1.227-15.69-.036.671-17.84.095-35.688.31-53.53.029-2.467-.329-4.956.28-7.403 4.786-.747 9.57-.848 14.35.062.077.653.096 1.319.243 1.956.31 1.332-.92 3.247.995 3.918 1.584.557 2.027-1.299 2.97-2.122 2.856-2.494 5.734-4.991 9.696-5.579 5.372.072 10.795-.901 16.089.779 7.932 1.341 11.321 6.749 12.589 14.058-.654 15.112.052 30.236-.228 40.151 0-6.752-.023-18.703.028-30.655.009-1.607-.543-3.331.583-4.821zM417.95 162.216c2.095 1.861 5.659.823 7.25 3.678.117 1.157.73 1.81 1.913 1.885 1.327 1.155 2.282 2.541 2.642 4.292.66 2.938.289 6.04 1.42 8.901l-.089-.106c.893 10.568.13 21.157.415 31.732.111 4.122-.452 8.266.343 12.368-5.23 1.191-10.462 1.126-15.696.024.915-1.128.849-2.478.85-3.808.009-10.484.035-20.969-.033-31.452-.008-1.207.52-2.723-1.074-3.503-1.106-4.792-2.318-9.521-7.228-12.026-4.383-1.744-6.173-1.693-10.562.298-3.09 1.871-5.339 4.506-6.986 7.688-2.417 3.609-2.566 7.75-2.603 11.854-.083 9.265-.025 18.53-.011 27.796.015-9.259-.047-18.519.084-27.776.019-1.339-1.329-3.459 1.331-4.052.057 10.785.052 21.572.216 32.355.039 2.563-.688 3.645-3.37 3.349-4.196-.463-8.495.745-12.643-.724 1.269-1.775.863-3.824.867-5.775.031-16.381.003-32.763.035-49.144.004-1.961-.362-3.981.559-5.864 3.495-1.446 7.154-.629 10.717-.602 3.902.029 1.213 3.799 2.599 5.364.855 2.819 1.654 1.975 3.063.203 2.456-3.088 5.309-5.812 9.554-6.294 5.411-1.9 10.954-.535 16.437-.661zM608.246 162.915c9.989-.105 18.799 5.741 21.676 16.111.062 3.823-1.931 4.816-5.505 4.54-3.087-.238-6.247-.411-9.351.201-1.574-3.843-3.37-7.521-7.198-9.69-4.339-2.421-8.605-2.591-12.771.41-3.512 2.452-5.819 5.88-7.772 9.594-2.825 5.471-3.433 11.098-1.204 16.927 2.072 4.092 3.231 8.716 6.922 11.864 3.955 3.678 11.668 3.973 15.849.604 2.12-2.332 4.592-4.404 5.604-7.558 2.585-3.082 12.1-4.231 15.559-1.868.559.382.123.894.097 1.349-1.594 10.796-8.213 17.083-18.23 20.319-1.249-.002-2.608-.974-3.696.425-.754.24-1.509.481-2.263.723-3.034-.808-6.13-.168-9.187-.394-1.831-.79-3.687-1.411-5.71-.754-10.183-3.014-16.893-9.5-19.796-19.793-.866-7.62-.518-15.239.021-22.858 3.164-11.774 11.184-18.295 22.728-21 4.718.673 9.58-1.044 14.227.848z"/><path fill="#2E3192" d="M1211.928 173.097c5.169-7.119 10.952-11.582 19.478-11.331 2.797.082 4.046.864 3.598 3.711-.025.163-.002.333-.003.499-.021 3.661 1.162 7.986-.392 10.801-1.646 2.979-6.286.566-9.584 1.158-6.438 1.155-11.036 6.017-12.097 13.447-1.369 9.6-.719 19.269-.68 28.903.015 3.452-.448 4.904-4.491 4.833-12.293-.219-12.297-.011-12.297-12.479 0-14.812.167-29.628-.104-44.435-.079-4.299 1.331-5.717 5.347-5.05.324.054.665.007.998.007 9.361-.003 9.361-.003 10.227 9.936z"/><path fill="#2E3191" d="M742.957 139.995c.071 27.449.115 54.897.259 82.347.014 2.593-.758 3.653-3.401 3.366-4.206-.458-8.518.797-12.665-.75.685-1.776.347-3.628.349-5.441.025-24.647.012-49.296.027-73.944.001-1.824-.209-3.664.213-5.475 4.457-1.021 8.929-.784 13.404-.152.706 2.449.317 4.957.321 7.433.036 23.28.031 46.56.001 69.84-.002 1.705.373 3.447.044 4.242.045-26.321-.062-53.526.061-80.731.182-.777.645-1.021 1.387-.735zM364.127 225.145c-5.316.782-10.626 1.116-15.916-.2.688-14.142.095-28.293.312-42.438.094-6.153-.319-12.313.25-18.461 4.772-.991 9.562-.637 14.353-.187 1.345 1.758.838 3.818.846 5.754.074 18.191-.043 36.383.075 54.574.028.32.054.638.08.958zM652.817 224.991c-5.218 1.065-10.434 1.227-15.645-.04.789-10.139.146-20.292.336-30.438.189-10.151-.322-20.31.258-30.458 4.447-.965 8.911-.677 13.378-.18 1.327 1.781.822 3.854.827 5.804.045 16.49.012 32.981.042 49.472.005 1.968-.384 4.022.804 5.84z"/><path fill="#252A8F" d="M285.009 140.012c-.003 26.634.017 53.268-.061 79.901-.005 1.756 1.168 4.172-1.7 5.074-.107-9.767-.3-19.533-.303-29.3-.006-18.564.096-37.128.152-55.691.642-.577 1.279-.559 1.912.016z"/><path fill="#2D3091" d="M363.024 151.895c-4.944-.258-10.017 1.5-14.822-.946.129-.475.244-.946.308-1.442.409-3.208-1.613-7.715.951-9.357 3.11-1.993 7.68-.457 11.614-.621 1.833-.077 2.832.875 2.819 2.645-.024 3.257.773 6.603-.87 9.721z"/><path fill="#2E3191" d="m653.013 139.996-.003 10.003c-5.041 1.595-10.095 1.473-15.158.116-1.151-10.603-1.15-10.633 9.265-10.573 1.963.011 3.994-.487 5.896.454z"/><path fill="#2B2D8E" d="M652.817 224.991c-2.925-.835-1.759-3.269-1.767-5.022-.084-18.647-.054-37.295-.056-55.942.666-.602 1.34-.584 2.019-.021.212 20.328.59 40.658-.196 60.985z"/><path fill="#272C91" d="M376.008 164.024c-.003 18.663.024 37.327-.059 55.99-.008 1.754 1.145 4.205-1.831 4.976-.883-12.217-.22-24.449-.353-36.674-.088-8.101.109-16.203.178-24.306.693-.557 1.381-.588 2.065.014z"/><path fill="#2C288C" d="M728.01 140.019c-.003 26.399.009 52.8-.043 79.199-.003 1.919.689 4.008-.817 5.74-.128-3.129-.372-6.258-.367-9.387.038-25.191.123-50.383.193-75.574.351-.346.697-.356 1.034.022z"/><path fill="#292E91" d="M415.891 186.228c.214-.472.538-1.672.875-1.042.825 1.546 1.278 3.316 1.266 5.203-.067 10.219-.014 20.438-.05 30.658-.005 1.54.58 3.473-1.833 3.943-.804-12.916-.312-25.841-.258-38.762z"/><path fill="#292B8E" d="M300.764 224.99c-1.756-.327-1.767-1.656-1.766-3.024.008-9.549.006-19.099.002-28.648 0-1.517-.084-3.069 2.004-3.317.052 11.663.508 23.33-.24 34.989z"/><path fill="#2E3191" d="M363.96 163.242c1.186.788.93 2.02.93 3.146.009 18.689.01 37.378-.005 56.067 0 .945.276 2.015-.758 2.689a9.6469 9.6469 0 0 1-.314-.463c-.681-15.06-.125-30.127-.29-45.19-.053-4.804-.013-9.609-.005-14.413-.047-.659.101-1.27.442-1.836z"/><path fill="#281C89" d="M638.029 164.04c-.01 18.557-.003 37.114-.057 55.671-.005 1.758.604 3.672-.801 5.24-.64-20.319-.343-40.641-.153-60.961.357-.364.694-.347 1.011.05z"/><path fill="#232388" d="M506.031 164.045c-.01 18.544-.003 37.089-.056 55.633-.005 1.761.584 3.665-.755 5.257-.043-20.314-.085-40.629-.128-60.943.337-.376.649-.358.939.053z"/><path fill="#291386" d="M349.039 164.034c-.013 18.552-.009 37.103-.066 55.653-.005 1.761.588 3.667-.761 5.256-.039-20.319-.077-40.639-.116-60.959.335-.376.649-.341.943.05z"/><path fill="#1F2189" d="M285.009 140.012c-.637-.005-1.274-.011-1.911-.016.049-1.515 1.191-1.31 2.136-1.306 19.265.066 38.53.146 57.795.223-1.413 1.753-3.388 1.051-5.125 1.057-17.632.053-35.263.038-52.895.042z"/><path fill="#222990" d="M718.187 218.639c-1.145.438-1.18.438-1.181-.291-.009-7.635-.035-15.27.002-22.904.042-8.489.24-16.982-1.15-25.405 1.84 2.102 2.401 4.633 2.399 7.325-.013 13.758-.045 27.517-.07 41.275z"/><path fill="#26278C" d="M389.915 190.01c-1.714 2.041-.842 4.467-.869 6.7-.108 9.076-.045 18.155-.57 27.226.123-12.987-1.684-26.001.562-38.948.188-1.087-.313-3.15 2.075-2.8-.399 2.607-.799 5.214-1.198 7.822z"/><path fill="#25288D" d="M166.325 78.892c-8.816-1.757-17.734-.494-26.595-.912-1.911-.09-3.983.684-5.693-.839 9.385-1.229 18.771-1.772 28.194-.304 1.649.257 3.39.038 4.094 2.055z"/><path fill="#28288B" d="M563.125 181.748v42.173c-.375.001-.75.002-1.125.004 0-11.202-.115-22.405.058-33.604.067-4.411-.932-8.909.685-13.249.127 1.559.254 3.117.382 4.676z"/><path fill="#26298D" d="M134.069 285.689c10.283-1.133 20.566-1.133 30.849-.001-10.283 1.649-20.566 1.949-30.849.001z"/><path fill="#1E2490" d="M496.434 219.911c-1.37-.505-1.431-1.669-1.431-2.857 0-13.264-.013-26.527.04-39.791.003-.745.547-1.488.84-2.231.183 14.959.367 29.919.551 44.879z"/><path fill="#192594" d="M431.844 224.966c-1.116-1.062-.837-2.451-.835-3.751.015-13.449.048-26.899.077-40.35.942.364 1.043 1.175 1.037 2.015-.089 14.029-.185 28.058-.279 42.086z"/><path fill="#25288D" d="M45.276 167.061c1.669 8.942.253 17.968.733 26.942.687 1.27 1.208 2.49-.856 2.965-.991-9.974-1.988-19.947.123-29.907z"/><path fill="#202389" d="M302.025 153.909c.87-1.026 2.065-.907 3.221-.907 11.626-.003 23.252-.002 34.878-.003.999 0 2.004-.028 2.8.738-13.633.057-27.266.115-40.899.172z"/><path fill="#292B8E" d="M300.977 173.998c-1.083-.18-1.906-.676-1.913-1.892-.026-5.324-.034-10.648-.019-15.973.004-1.464.914-2.023 2.271-2.026l-.339 19.891z"/><path fill="#271186" d="M363.024 151.895c-.004-1.156.002-2.312-.014-3.468-.128-9.576 1.188-8.012-7.876-8.559-5.172-.312-6.89 1.401-6.197 6.354.215 1.538.565 3.322-.734 4.727-.984-12.232-.984-12.242 10.837-12.219 1.645.003 3.289.163 4.934.25.955 4.115.616 8.246.157 12.379-.184.561-.531.785-1.107.536z"/><path fill="#1C1B89" d="M520.911 224.971c-1.313-1.17-.895-2.74-.898-4.173-.027-10.372-.021-20.743.003-31.115.003-.98-.167-3.147 1.153-.375l-.258 35.663z"/><path fill="#21248A" d="M301.99 189.031c1.431-1.665 3.371-.989 5.096-1.004 8.058-.067 16.117-.04 24.176-.022 1.979.004 3.958.103 5.733-1.012.408.244.709.583.904 1.017-.159 1.509-1.343 1.161-2.235 1.159-11.225-.028-22.449-.087-33.674-.138z"/><path fill="#202186" d="M336.961 175.933c-10.492.022-20.984.07-31.476.042-1.555-.004-3.43.65-4.411-1.364 10.15.118 20.301.226 30.451.364 1.822.025 3.642.177 5.462.27-.008.229-.017.458-.026.688z"/><path fill="#2E3091" d="M45.153 196.968c1.04-.771.809-1.908.856-2.965.402.291 1.141.564 1.157.874.341 6.796 3.414 13.207 2.826 20.125-2.676-5.727-3.519-11.944-4.839-18.034z"/><path fill="#21238D" d="M630.151 205.399c-5.301-2.313-10.528-2.417-15.655.52.078-3.072 1.585-4.216 4.678-3.959 3.077.255 6.194.12 9.291.04 3.149-.082 3.428 1.124 1.686 3.399z"/><path fill="#26268B" d="M571.291 183.067c.428 7.62.465 15.239-.021 22.858-2.407-7.621-1.939-15.24.021-22.858z"/><path fill="#282B8F" d="M586.121 201.008c-4.242-3.678-1.801-8.35-1.536-12.544.08-1.265.927-3.486 2.74-4.383-1.258 5.582-1.275 11.251-1.204 16.927z"/><path fill="#272A8F" d="M661.25 201.061c1.716 6.01-.15 12.337 1.624 18.342-4.002-5.808-4.066-11.965-1.624-18.342z"/><path fill="#25298D" d="m638.018 149.987 14.992.012c.533 2.607-1.421 2.036-2.737 2.038-4.093.007-8.185-.091-12.277-.147-.576-.641-.56-1.275.022-1.903z"/><path fill="#221D89" d="M638.018 149.987c-.008.634-.015 1.269-.022 1.902-2.616-3.868-.475-8.163-1.048-12.218-.037-.259.651-.915.942-.88 5.027.593 10.284-1.628 15.123 1.204-1.635.001-3.271.003-4.906.003-10.145-.003-10.145-.003-10.089 9.989z"/><path fill="#24278C" d="M550.153 163.015c-5.352-.493-10.797.945-16.089-.779 5.459-1.714 10.866-2.351 16.089.779z"/><path fill="#26288D" d="M608.246 162.915c-4.741-.315-9.586 1.119-14.228-.848 4.815-.931 9.691-2.882 14.228.848zM608.892 213.477c-3.414 4.38-12.847 4.02-15.849-.604 5.184 2.789 10.474 2.816 15.849.604z"/><path fill="#191C88" d="M615.066 183.768c2.731-1.596 5.74-.837 8.549-.658 3.394.216 5.411-.849 6.307-4.083.34 1.564.68 3.13 1.03 4.741h-15.886z"/><path fill="#1B1D87" d="M253.854 191.962c-1.411-6.973-1.414-13.944.002-20.916.478 6.972.483 13.943-.002 20.916z"/><path fill="#24268C" d="M417.95 162.216c-5.429 1.464-10.995-.466-16.437.663 5.374-2.833 10.885-2.259 16.437-.663z"/><path fill="#161687" d="M376.008 164.024c-.688-.005-1.376-.009-2.063-.014 4.6-2.519 9.577-1.038 14.283-.813 1.764.084.638 3.731.668 5.772-.523-4.59-3.344-5.624-7.45-5.012-1.777.266-3.623.06-5.438.067z"/><path fill="#20218A" d="M662.112 178.026c1.641 2.583 4.244 1.947 6.639 1.971 3.115.031 6.231.027 9.347.039-5.032 2.761-10.426.847-15.639 1.037-1.125.041-.463-1.957-.347-3.047z"/><path fill="#25288D" d="M398.1 174.499c3.357-3.411 7.096-3.005 10.975-1.078.045.022.005.312-.063.439-.074.136-.229.229-.349.341-3.53-.223-7.058-.357-10.563.298z"/><path fill="#22258B" d="M595.098 174.487c3.548-3.39 9.957-3.596 12.771-.41-4.289-.827-8.573-1.559-12.771.41z"/><path fill="#151585" d="M349.039 164.034a36.965 36.965 0 0 0-.943-.05c5.197-2.189 10.558-.873 15.864-.742-.08.224-.131.453-.154.689-.216.548-.497.583-.841.105-4.642 0-9.284-.001-13.926-.002z"/><path fill="#141485" d="M506.031 164.045c-.312-.023-.625-.041-.938-.054 5.031-1.802 10.055-1.88 15.067.071-4.709-.005-9.419-.011-14.129-.017z"/><path fill="#151585" d="M638.029 164.04c-.337-.017-.674-.033-1.011-.05 5.333-1.824 10.665-1.849 15.995.015l-2.019.021c-4.321.005-8.642.009-12.965.014z"/><path fill="#1E2089" d="M728.01 140.019c-.345-.008-.689-.015-1.034-.021 5.327-2.116 10.654-2.108 15.981-.002-.316.004-.634.009-.951.017-.337.493-.675.493-1.014 0-4.327.001-8.654.004-12.982.006z"/><path fill="#23268C" d="M251.231 158.618c-2.566-3.108-3.468-6.606-2.478-10.55 1.021 3.471 2.906 6.739 2.478 10.55z"/><path fill="#22258A" d="M672.062 225.748c4.451-1.354 8.64.311 12.902 1.124-4.368.396-8.729.708-12.902-1.124z"/><path fill="#8B969B" d="M861.181 196.115c-1.347-2.941 1.214-3.796 2.771-5.187 1.986 3.283-.404 4.229-2.771 5.187z"/><path fill="#222E9B" d="M336.961 175.933c.003-.229.012-.459.027-.688 2.312 4.111.633 8.509.912 12.766-.301-.339-.603-.678-.904-1.017-.012-3.687-.023-7.375-.035-11.061z"/><path fill="#2D3091" d="m364.13 151.358-.156-12.379c1.61 4.107 1.303 8.238.156 12.379z"/><path fill="#454444" d="M798.104 201.139c-.385-.902-1.223-.971-2.027-1.101.343-.346.625-.821 1.039-1.014 1.372-.637 3.085-2.953 4.132-1.108.923 1.628-1.593 2.547-3.144 3.223z"/><path fill="#191E8B" d="M438.266 203.078c1.522 4.062.443 8.258.631 12.389-1.988-4.039-1.118-8.224-.631-12.389z"/><path fill="#23268C" d="M116.45 281.116c2.81-.568 5.588.082 8.049 1.114 1.259.528-.614.588-.916.992-2.618.11-4.967-.687-7.133-2.106z"/><path fill="#22258B" d="M175.368 283.193c-.258-.403-2.298-.373-.777-1.01 2.359-.988 5.057-1.655 7.774-1.073-2.086 1.522-4.559 1.744-6.997 2.083z"/><path fill="#21248A" d="M596 226.006c3.312.374 6.769-.905 9.962.86-3.321.411-6.642.396-9.96-.031-.294-.184-.393-.368-.295-.553.097-.184.194-.276.293-.276z"/><path fill="#20238C" d="M431.175 180.972c-1.563-2.793-2.132-5.745-1.42-8.901 1.822 2.751 1.55 5.838 1.42 8.901z"/><path fill="#22248C" d="M530.195 174.118c1.549-2.964 4.273-1.811 7.291-2.213-1.553 1.718-3.615.459-4.47 1.978-.94.078-1.88.157-2.821.235z"/><path fill="#6E716F" d="M859.887 199.889c-1.043 1.443-2.359 2.427-4.772 2.847 1.042-2.06 2.049-3.273 3.812-3.768.319.306.639.614.96.921z"/><path fill="#23268C" d="M116.622 81.775c-1.316 2.707-3.761 2.176-6.044 2.105 1.765-1.415 3.811-2.028 6.044-2.105z"/><path fill="#201F8A" d="M479.459 177.073c2.321 2.295 2.332 4.584-.021 6.865.572-2.286.518-4.575.021-6.865z"/><path fill="#21258B" d="M596 226.006c0 .276 0 .553.002.829l-4.937-1.116c1.71-1.028 3.373-1.244 4.935.287z"/><path fill="#777675" d="M780.872 170.883c.043.384.086.768.128 1.151-.671 1.016-1.575 1.513-3.11 1.259.256-1.84 1.588-2.161 2.982-2.41z"/><path fill="#22258B" d="M174.922 79.326c-1.706.955-3.366 1.199-4.916-.312 1.695-.778 3.302-.167 4.916.312z"/><path fill="#79787D" d="M1099.965 184.959c.012-.336.023-.673.036-1.009.95-1.303 2.205-.962 3.752-.832-1.118 1.466-2.366 1.839-3.788 1.841z"/><path fill="#23258C" d="M427.113 167.778c-.635 1.074-1.258.542-1.838-.039-.573-.573-1.14-1.188-.075-1.846 1.012.249 1.633.894 1.913 1.885z"/><path fill="#21248A" d="M608.225 226.144c1.013-2.051 2.358-1.202 3.696-.425-1.233.141-2.464.283-3.696.425z"/><path fill="#191B87" d="m685.001 161.988-.015 1c-1.829-.028-3.657-.057-5.486-.085 1.598-1.723 3.619-.899 5.501-.915z"/><path fill="#171885" d="M476.017 162.987c-.009-.328-.015-.657-.017-.986 1.655-.185 3.311-.35 4.916.296-1.492 1.233-3.261.501-4.899.69z"/><path fill="#1E1C8A" d="M546.544 182.086c2.03.733 1.287 2.501 1.465 3.926.272.22.362.438.27.654-.092.217-.184.325-.276.325l-.438.001-.438-.001c-.196-1.635-.39-3.27-.583-4.905z"/><path fill="#FEFEFE" d="M177.922 184.909c-6.818 12.602-11.84 25.987-17.13 39.254-3.699 9.278-7.707 18.408-12.732 27.06-.835 1.438-1.601 2.959-2.674 4.205-2.499 2.899-4.433 7.185-9.594 4.669-4.279-2.085-5.664-5.766-3.488-11.535 2.694-7.146 5.928-14.087 8.935-21.114 11.119-25.984 22.27-51.955 33.327-77.966 1.36-3.199 2.333-6.579 3.283-9.933.642-2.27-.161-3.166-2.576-2.117-3.039 1.32-6.145 2.486-9.222 3.719-.462-.415-.514-.877-.155-1.385 5.709-4.02 11.893-7.218 18.1-10.36 2.451-1.241 5.02-1.786 7.509.128 2.582 1.986 2.998 4.682 2.455 7.61-.748 4.035-1.639 8.044-2.593 12.668 5.39-1.949 10.108-3.647 14.82-5.361 3.474-1.264 7.083-1.814 10.75-1.829 10.564-.043 17.32 8.069 15.462 18.458-1.023 5.72-3.943 10.508-7.354 15.059-.941 1.053-1.78 2.218-3.121 2.83-6.12 5.548-13.463 8.915-21.067 11.817-.128.201-.256.402-.383.606-1.512.757-3.243.795-4.79 1.457-.498.073-.994.111-1.496.126-2.066.021-4.128.035-6.193-.006-2.671-.123-4.508-1.506-5.745-3.797-1.15-3.612-.074-6.837 1.725-9.936 1.967-2.826 3.831-5.741 6.423-8.076 4.164-2.775 8.446-5.42 13.196-7.003 2.401-.801 5.817-3.766 7.438-.389 1.324 2.758-2.669 4.03-4.809 5.361-2.977 1.852-5.868 3.804-8.605 5.982-.859.684-2.09 1.209-1.79 2.722 1.385.936 2.584.084 3.7-.489 5.077-2.609 9.387-6.328 13.393-10.271 2.525-2.484 4.352-5.813.504-9.027-2.089-1.228-4.206-.884-6.331-.111-12.559 3.646-21.376 11.486-26.518 23.507-.578 1.345-1.17 2.774-2.654 3.467zM111.814 149.757c-1.234 5.911-.229 11.892-.56 17.83-.163 2.928 1.903 2.553 3.728 2.552 10.499 0 21.001.173 31.494-.092 3.871-.098 4.73 1.2 4.694 4.853-.121 12.229.021 12.23-12.121 12.23-7.5 0-14.999-.051-22.497.041-1.563.02-3.338-.755-4.702.734.332 11.323.004 22.65.175 33.974.053 3.538-1.197 5.262-4.925 5.144-4.492-.142-8.994-.062-13.49-.024-2.829.023-4.159-.929-4.149-4.083.092-29.647.106-59.296-.005-88.944-.016-4.187 2.519-3.96 5.249-3.962 17.156-.013 34.312-.039 51.468.006 13.206.034 11.732-1.378 11.823 11.693.009 1.333-.041 2.666-.01 3.997.068 2.899-1.281 4.299-4.21 4.275-13.988-.113-27.977.308-41.962-.224z"/><path fill="#303896" d="M111.814 149.757c1.375-1.458 3.145-.712 4.709-.721 12.149-.07 24.301-.146 36.447.032 3.313.049 4.484-.98 4.175-4.256-.419-4.433 1.81-10.152-.871-13.007-2.732-2.909-8.501-.894-12.927-.926-16.31-.123-32.621.038-48.93-.12-3.439-.034-4.523.88-4.505 4.45.144 28.958.129 57.918.013 86.877-.013 3.235.833 4.498 4.163 4.193 5.573-.511 12.88 2.306 16.251-1.223 2.702-2.827.695-10.09.908-15.379.292-7.256-.761-14.549.603-21.773l.398.276c.325 12.541.537 25.082-.108 37.62-.424.432-.848.863-1.272 1.296-6.919.627-13.837.652-20.755-.018-1.749-1.408-1.097-3.381-1.099-5.128-.037-28.977-.037-57.953 0-86.93.002-1.745-.649-3.723 1.129-5.111 3.777-.835 7.604-.354 11.404-.369 16.789-.062 33.579-.037 50.368-.011 1.642.003 3.328-.329 4.926.364.41.402.819.804 1.229 1.205.642 5.947.733 11.894-.033 17.838-.383.372-.766.744-1.148 1.116-9.417.97-18.859.266-28.289.392-5.461.072-10.937.333-16.396-.206a3.293 3.293 0 0 1-.39-.481z"/><path fill="#2E3091" d="M183.028 189.009c1.125 1.875 2.891 2.676 4.963 2.964 2.345.844 4.687.908 7.023-.033l.297-.204.321.165c1.63-1.024 3.804.517 5.303-1.124 0 0-.081.009-.082.009 2.59.921 1.354 1.599-.168 2.146-8.293 2.984-14.958 1.113-20.624-5.79-.66-.804-2.407-.557-2.14-2.232 5.218-13.956 13.778-24.471 28.986-28.137.364.325.576.729.64 1.213-.32 2.484-2.389 2.852-4.233 3.459-4.607 1.518-8.124 4.759-12.076 7.346-2.267 1.484.561 2.283-.23 3.258-1.935 2.347-3.871 4.694-5.806 7.042-2.73 2.865-3.509 6.16-2.174 9.918z"/><path fill="#1E2087" d="M156.839 129.896c-22.234.006-44.467.012-66.699.016.994-1.271 2.414-.898 3.695-.899 19.769-.019 39.538-.02 59.308.001 1.278 0 2.699-.387 3.696.882z"/><path fill="#171885" d="m112.201 150.24 44.687-.186c-1.477 1.627-3.422.9-5.15.91-12.898.074-25.797.058-38.696.068-.334.49-.613.436-.844-.086-.046-.234-.045-.47.003-.706z"/><path fill="#1F228A" d="M112.988 188.138h36.758l.009.904h-36.72c-.31-.186-.419-.382-.33-.588.09-.211.185-.316.283-.316z"/><path fill="#25288D" d="M113.023 167.983h36.76c.002.333.005.666.007.999h-36.801c-.259-.23-.34-.456-.244-.675.095-.215.188-.324.278-.324z"/><path fill="#241888" d="M112.988 188.138c.012.301.027.603.046.903-.011 10.702.005 21.403-.063 32.104-.01 1.567.63 3.325-.832 4.659.036-12.544.071-25.085.107-37.624.244-.082.491-.097.742-.042z"/><path fill="#22248B" d="M90.113 227.08c6.919.005 13.839.01 20.757.017-6.922 1.49-13.84 1.521-20.757-.017z"/><path fill="#251C89" d="M158.035 148.938c.011-5.947.021-11.894.033-17.839 1.491 5.951 1.549 11.896-.033 17.839z"/><path fill="#241888" d="M113.023 167.983c-.011.333-.022.666-.034.999-1.916-5.938-.54-12.022-.793-18.034.281.038.562.066.845.085-.005 5.651-.011 11.301-.018 16.95z"/><path fill="#241B89" d="M152.215 185.52v-14.321l.481.003v14.748c-.159-.144-.32-.287-.481-.43z"/><path fill="#AEB1D0" d="M165.024 142.022c-1.201.891-2.504 2.754-3.917 1.098-.794-.932.853-1.72 1.971-2.006.589.432 1.536.093 1.946.908z"/><path fill="#F3F5F7" d="M165.024 142.022c-.714-.164-1.565-.031-1.946-.908.939-.449 1.878-.899 2.817-1.349.051.462.103.924.155 1.385-.342.291-.684.581-1.026.872z"/><path fill="#433E94" d="M221.921 178.968c1.041-.943 2.081-1.887 3.121-2.831-.208 1.861-1.204 2.853-3.121 2.831z"/><path d="M1100.001 183.95c-3.736.285-6.681-1.758-9.751-3.371-7.062-3.71-13.993-4.817-21.066.154-1.947 1.369-4.497 4.206-6.473 2.817-2.441-1.718.61-4.368 1.078-6.653.693-3.389-.591-5.871-3.619-7.392-3.382-1.698-4.878.533-6.041 3.153-.872 1.964-1.815 3.927-2.396 5.984-2.026 7.174-3.933 14.383-5.825 21.594-.343 1.306-.468 2.811-1.788 3.397-6.022 2.675-11.752 6.126-18.635 6.481-3.343.173-4.592-.647-2.482-4.298-4.543 2.622-6.426 1.874-7.662-2.461-1.379-4.836.836-10.001 4.323-9.748 8.652.627 14.833-4.23 20.404-9.646 3.593-3.491 2.767-8.545.777-12.667-1.789-3.706-5.701-3.408-9.169-2.649-12.877 2.814-20.565 11.253-25.104 23.192-.647 1.703-.106 4.051-2.262 5.195-1.747-1.286-.831-3.114-1.12-4.629-.917-4.803-1.94-9.87-6.805-12.004-5.231-2.295-10.236-.623-14.761 2.836-4.245 3.245-8.145 6.831-11.877 10.631-.975.992-1.647 2.59-4.377 1.948 2.854-5.923 5.635-11.666 8.388-17.421 1.061-2.216 2.776-4.573.062-6.694-2.87-2.241-6.299-2.263-8.585.376-3.799 4.387-7.938 8.575-10.727 13.772 2.756.94 2.149 2.853 1.438 4.845-2.002 5.605-3.275 11.413-4.652 17.283-.443-1.015-.905-1.891-1.339-2.778-1.015-2.318-.423-4.79-.672-7.186-.294-2.832.136-5.881-2.205-8.168-1.31-7.704-5.903-11.211-12.899-10.151-4.36.66-7.562 3.209-10.774 5.84-4.163 3.409-8.161 7.012-11.966 11.503-.931-2.567-.2-3.841.456-5.183 2.256-4.613 4.488-9.239 6.646-13.899.93-2.007 2.87-4.228.098-6.168-2.613-1.828-5.541-2.465-8.261-.158-1.242 1.054-2.138 2.509-3.245 3.732-3.864 4.271-6.959 9.269-11.923 12.503-.906.59-1.595 2.135-2.844.99-4.675-4.283-8.931-1.139-13.313.548-6.86 2.64-12.695 7.14-19.165 10.486-.473.427-1.251.781-1.594.455-.325-.31.544-.827.633-1.376.752-.951 1.503-1.901 2.255-2.853.374-2.022 2.257-3.239 2.771-5.188 3.416-4.203 8.003-6.856 12.545-9.602 3.312-2.002 6.361-3.498 9.867-.129 1.505 1.445 3.792 1.228 5.526-.175 1.775-1.436 1.124-3.159.43-4.976-2.712-7.097-8.568-9.43-16.269-6.058-9.223 4.039-17.648 9.434-24.265 17.073-5.908 6.823-12.621 13.08-15.162 22.435-.911 3.354-5.215 4.745-8.763 4.041-3.935-.78-2.915-4.324-2.44-7.001 2.795-15.77 7.82-30.825 14.76-45.253 3.953-8.22 7.933-16.429 11.702-24.732.895-1.971 2.021-4.364-.974-6.081-3.067-1.76-4.778.18-6.192 2.194-2.474 3.528-4.796 7.186-6.895 10.949-6.249 11.204-10.766 23.15-14.764 35.305-.916 2.785-1.739 4.756-4.746 1.385-2.87-3.219-7.014-2.859-10.762-2.123-4.224.83-8.245 2.499-12.053 4.569-.859.467-1.692 1.493-2.658.865-1.207-.784-.496-2.082-.301-3.187.52-2.938 1.332-5.861 1.486-8.818.267-5.113-2.31-6.808-6.78-4.606-2.222 1.094-4.255 2.573-6.373 3.879-.078 0-.144.137-.196.41-.052.265.057.512.324.741 2.081-.328 3.31.243 2.687 2.636-.458 1.759-.875 3.541-1.503 5.241-10.073 27.243-20.182 54.473-30.268 81.711-.977 2.637-2.236 5.211-2.004 8.155.188 2.38 1.237 4.11 3.572 4.899 2.32.784 3.384-1.02 4.383-2.425 3.097-4.357 5.242-9.242 7.211-14.178 6.394-16.021 11.323-32.589 18.108-48.472 4.12-9.644 9.546-17.859 20.09-21.502 3-1.036 5.662-1.204 7.658 1.429 1.962 2.587 1.247 5.262-.452 7.846-2.904 4.415-6.883 7.622-11.28 10.385-1.786 1.122-3.954 1.931-5.323-.085-1.361-2.006.92-3.18 2.075-4.472.66-.738 1.43-1.379 2.149-2.064.063-1.729-.723-1.893-2.027-1.101-3.611 2.56-6.303 5.869-8.102 9.911-2.042 4.59-.217 7.539 4.866 7.396 6.891-.194 12.786-3.112 18.164-7.243.991-.761 1.759-2.522 3.251-1.723 1.377.738.48 2.409.504 3.631.175 9.287 5.78 13.335 14.509 10.439 2.699-.896 5.226-2.088 7.572-3.697.804-.552 1.796-1.451 2.569-1.332 8.105 1.244 14.295-3.138 20.636-6.936 4.551-2.726 8.899-5.789 13.358-8.669 2.438-1.575 5.259-1.787 6.429 1.022 3.327 7.994 8.027 13.535 16.812 16.674 4.26 1.522 6.233 1.299 8.812-1.216 1.529-1.491 2.651-3.396 3.985-5.092 5.979-7.605 12.06-15.081 20.954-19.603 4.71-2.394 5.767-2.016 6.546 3.09.678 4.437 1.469 8.878 1.754 13.347.657 10.304 8.579 10.064 15.653 11.078 4.462.64 6.378-2.782 8.648-5.633 6.521-8.186 12.717-16.683 22.325-21.735 5.031-2.646 6.288-2.23 7.201 3.46.761 4.742.64 9.605 1.988 14.281 2.689 9.325 7.683 11.362 15.955 6.507 1.341-.787 2.426-1.867 4.495-1.063 8.79 3.412 16.578.784 23.763-4.577 1.158-.864 1.94-2.381 3.868-2.116.66 2.812-1.038 5.077-1.902 7.495-1.206 3.374-1.314 6.518 2.542 7.878 3.643 1.284 5.88-.657 7.117-4.236 1.789-5.175 3.832-10.262 5.817-15.367 4.884-12.558 14.454-19.102 28.086-18.952 5.371.059 10.583-.578 15.71-2.098.086 0 .176-.109.267-.327.096-.215.02-.442-.227-.676zm-69.747-6.325c1.374-.062 2.261.532 2.385 1.91.174 1.93-5.553 6.384-8.172 6.423-1.05-.004-1.996-.133-2.095-1.495-.147-2.039 5.252-6.72 7.882-6.838z"/><path d="M1027.896 199.895c-2.134 1.329-3.08 2.417-3.952 4.999 2.492-1.276 3.447-2.371 3.952-4.999z"/><path fill="#483432" d="M1004.855 200.226c.176 1.469.322 2.942.535 4.406.177 1.208 1.128 2.382-.117 4.062-1.494-3.089-1.629-5.921-.418-8.468z"/><path fill="#2E3191" d="M1427.262 182.341c-5.006-21.241-30.864-27.384-45.029-12.206 2.493-7.728-2.092-7.141-6.342-6.98-1.497.056-3.023.187-4.492-.025-3.912-.567-5.062.914-5.028 4.894.189 22.321.091 44.646.091 66.969 0 11.619.003 11.468 11.762 11.634 3.805.055 5.228-.803 5.041-4.898-.351-7.68-.101-15.386-.101-23.876 13.017 14.757 38.922 10.771 44.412-12.307 1.848-7.771 1.518-15.434-.314-23.205zm-18.248 24.63c-2.221 4.562-6.312 6.49-11.431 6.526-5.331.037-9.276-2.149-11.883-6.717-2.197-3.851-2.839-8.087-2.705-12.78-.217-3.898.346-8.015 2.278-11.772 2.249-4.374 5.624-7.159 10.895-7.439 5.528-.294 9.964 1.573 12.511 6.388 4.463 8.434 4.505 17.227.335 25.794zM1264.818 161.838c-20.228-.03-32.538 12.386-32.476 32.753.059 19.455 12.459 31.906 31.815 31.947 19.685.042 31.839-12.279 31.842-32.277.003-19.849-12.063-32.395-31.181-32.423zm13.236 40.725c-1.959 7.101-6.604 10.825-13.591 10.896-7.238.073-11.791-3.194-13.865-10.473-1.669-5.86-1.654-11.888.01-17.75 2.057-7.241 6.89-10.574 14.404-10.397 6.58.155 11.174 4.011 13.048 10.932.745 2.753 1.187 5.534.884 8.141.25 3.11-.132 5.902-.89 8.651z"/><path fill="#212089" d="m479.85 203.735-.021-7.694c2.423 3.112.704 6.531.428 9.881-.137-.729-.272-1.457-.407-2.187z"/><g fill="#171986"><path d="M496.434 219.911c-.38-.26-.909-.323-.902-1.001.137-14.626-.521-29.259.352-43.88-1.895-6.279-5.143-11.012-12.506-11.316-.839-.034-1.642-.924-2.461-1.417-1.513.305-3.03.273-4.548.179a.3671.3671 0 0 1-.034.178c-.104.223-.21.334-.317.334-4.988-.523-10.114 1.153-15.004-.941-1.104.021-1.943.731-3.185.768-8.142.233-15.328 6.229-17.538 14.26.757 2.005 1.878 3.289 4.353 2.961 3.955-.524 8.27 1.214 11.794-1.944 0 .001 0 .002-.001.002.001 0 .001-.001.002-.002 1.4-2.871 3.947-4.491 6.576-6.021 3.658-1.734 7.316-1.738 10.975.002 2.056 1.413 4.315 2.604 5.471 5.002 1.721 2.294 1.754 4.583-.022 6.865-1.824 1.312-3.647 2.622-5.472 3.934-.56 1.654-1.918 1.919-3.437 2.232-5.148 1.064-10.314 1.404-15.541.851-9.37.788-14.596 4.577-16.722 12.123.765 4.102-.343 8.299.631 12.39 1.425 5.92 5.499 8.972 11.162 10.3 4.352-1.855 8.612 1.322 12.95.234.109-.115.216-.187.322-.233 1.801-1.326 3.679-1.039 5.59-.046 3.119-.321 5.496-2.23 8.054-3.756 1.271-.759 3.523-1.889 3.607.052.226 5.213 3.763 3.509 6.372 3.628 3.478.158 6.967.039 10.788.039-.453-1.998-.881-3.887-1.309-5.777zm-28.696-2.08h-5.587c-.004-.154-.009-.308-.013-.461h5.682c-.027.153-.054.307-.082.461zm12.112-14.096c-3.328 9.882-6.909 12.812-15.16 12.706-4.477-.059-8.109-1.449-10.378-5.53-.001-.001-.001-.002-.002-.003-2.04-1.902-1.859-3.862-.151-5.863 3.104-6.224 9.486-6.26 14.994-7.947 1.139-1.823 2.448-1.314 3.796-.278 2.343.176 4.415-2.039 6.88-.778 1.084 2.561 1.036 5.126.021 7.693z"/><path d="M454.987 190.955c6.359-.821 12.986.003 18.978-3.083-6.293 1.231-12.864.746-18.978 3.083zM475.229 162.398c.379.028.759.053 1.139.077-.009-.16-.13-.318-.368-.475-5.001-1.833-9.996-1.552-14.987.045 4.73.502 9.503-.711 14.216.353zM451.7 180.544c-2.619-.253-5.299-.247-7.921-.008-2.769.252-3.432-1.198-3.489-3.463-.328 1.482-1.686 3.793.658 4.051 4.572.503 9.241.273 13.861.111 1.859-.065 1.194-2.021 1.626-3.144-1.128 1.685-2.473 2.671-4.735 2.453zM462.409 226.458c-4.167.638-8.207-.952-12.351-.69 4.654 1.482 9.319 2.414 14.044.271-.28-.009-.56-.019-.839-.028-.287.126-.572.27-.854.447zM463.014 172.069c3.658.001 7.316.001 10.975.002-3.659-.935-7.317-.931-10.975-.002zM463.833 225.796c.091.055.181.135.27.243 1.637.356 3.251.375 4.818-.316-1.734-.317-3.449-.467-5.088.073z"/><path d="M463.833 225.796c-.164-.1-.332-.103-.502-.027-.107.079-.215.143-.322.233l.254.009c.189-.083.379-.153.57-.215zM454.158 205.045c-.934 1.98-1.222 3.943.151 5.863l.003.003c-.051-1.955-.103-3.91-.154-5.866zM469.152 197.098c1.266-.093 2.531-.186 3.796-.278-1.296-.329-2.596-.718-3.796.278z"/></g><g fill="#191A86"><path d="M718.187 218.639c-1.646-3.752-.424-7.679-.666-11.518-.778-12.35 1.572-24.84-1.663-37.083-.731-1.942-2.657-2.777-3.906-4.227-2.416-2.803-6.391-1.433-9.026-3.544-1.483 1.281-3.266.522-4.907.719-4.344.001-8.688.002-13.031.002-.228-.16-.341-.319-.351-.477-1.716.071-3.459-.227-5.136.392-9.187 1.143-15.03 6.129-17.387 15.123.485 1.22.789 2.563 2.598 2.459 4.458-.258 8.951.507 13.388-.449 1.04-3.749 3.583-6.184 6.926-7.919 3.645-1.854 7.302-1.724 10.97-.076 8.035 5.182 8.028 10.979-.018 15.866-4.789 4.673-10.369 3.451-15.961 2.146-2.694.9-5.347 2.387-8.09 2.579-5.69.398-8.676 3.65-10.675 8.429-.249 6.184-.9 12.403 1.624 18.342 2.11 3.494 5.238 5.515 9.188 6.346 4.327.067 8.591.87 12.902 1.124.913.196 1.805.31 2.416-.639.863-2.452 2.256-1.104 3.546-.493 3.158-.552 5.937-1.913 8.375-3.972 1.854-1.564 3.382-2.471 3.7 1.153.131 1.492.701 2.837 2.729 2.805 4.697-.073 9.396-.023 14.931-.023-1.867-2.627-.803-5.187-2.476-7.065zm-16.504-15.518c-.961 9.61-7.007 14.396-16.688 13.275-4.365-.506-7.717-2.396-8.606-6.937-.938-4.796 1.632-7.879 5.748-9.897 1.031-.506 2.093-.948 3.141-1.419-.305-.085-.652-.104-.903-.27-.449-.298-.558-.802.115-.804 1.525-.003 3.188-.579 4.479.795.894.211 1.568-.216 2.206-.754 1.121-1.878 2.431-1.309 3.775-.292 7.516-1.531 7.516-1.531 6.733 6.303z"/><path d="M695.976 187.907c-5.32.716-10.641 1.431-15.961 2.146 5.504.654 10.89.43 15.961-2.146zM697.096 162.36c.304.031.608.055.912.081-.002-.15-.006-.299-.008-.449-4.332-1.624-8.665-1.718-12.998-.004-.109 0-.22.11-.329.329-.033.064-.041.129-.037.194.07-.003.141-.002.21-.007 4.076-.701 8.16-.742 12.25-.144zM685.023 172.117c3.657-.025 7.313-.051 10.97-.076-3.662-.853-7.319-.964-10.97.076zM687.38 226.233c1.183-.164 2.364-.328 3.546-.493-1.188.123-2.575-1.192-3.546.493z"/><path d="M698.369 162.473c1.521.115 3.041.127 4.556-.205-1.642-.092-3.284-.184-4.926-.275.241.157.362.317.37.48z"/><path d="M698.334 162.649a.374.374 0 0 0 .035-.177c-.121-.009-.241-.021-.361-.032.003.182.005.364.01.545.107.001.212-.111.316-.336zM685.277 198.144c1.23-.093 2.46-.186 3.69-.278-1.266-.387-2.533-.799-3.69.278zM691.174 197.111c1.259-.097 2.518-.194 3.775-.292-1.291-.319-2.589-.734-3.775.292z"/></g><path fill="#202D92" d="M548.002 186.991c-.001-.327.001-.653.007-.979.312.56.892 1.118.895 1.68.052 12.053.039 24.105-.901 36.164-.001-12.289-.001-24.577-.001-36.865z"/><path fill="#2A2A8B" d="M740.992 140.012h1.014v83.754l-1.014.003v-83.757z"/><path fill="#222087" d="M362.965 164.037c.283-.018.564-.053.842-.104.001 20.251.004 40.502.006 60.752-1.531-1.546-.768-3.484-.775-5.221-.073-18.476-.061-36.951-.073-55.427z"/><path fill="#2E3192" d="M191.009 172.048c-1.969-.788-3.643-1.46-.953-3.668 4.218-3.463 8.38-6.974 13.821-8.314 1.38-.34 2.515-.709 3.122-2.061 2.136-1.714 4.673-.708 7.013-1.033 3.928 2.01 4.065 5.182 1.902 8.297-4.333 6.24-10.388 10.563-17.144 13.87-1.596.782-3.921 1.524-5.058-.272-1.341-2.119 1.1-3.229 2.405-4.17 4.922-3.554 10.002-6.887 14.808-10.714-7.738.037-13.58 4.666-19.916 8.065z"/><path fill="#1A1C87" d="M214.012 156.972c-2.097 1.979-4.686.62-7.013 1.033-.031-.411-.061-.821-.091-1.232 2.401-1.099 4.781-1.486 7.104.199z"/><path fill="#2E3191" d="M183.028 189.009c-1.818-3.864-1.763-7.317 2.175-9.919-1.58 3.119-3.08 6.255-2.175 9.919zM195.014 191.939c-2.333 1.681-4.674 1.642-7.023.033 2.341-.01 4.682-.021 7.023-.033zM200.936 190.776c-1.4 2.101-3.495.928-5.301 1.124 1.698-.693 3.431-1.226 5.301-1.124z"/></g></g></switch></svg>