<svg fill="none" xmlns="http://www.w3.org/2000/svg" viewBox="0 0 424 108">
  <path
    d="M29.55 36.58v.29h12.77v22.79H29.55v45.43H.09V35.71c0-22.5 13.64-34.4 39.33-34.4h2.9v25h-1.88c-7.12-.03-10.89 3.6-10.89 10.27Zm67.92-1.3v25.25c-11.33 0-18.15 4.79-18.15 17.13v27.43H49.86V38.33l27.72-2.62V46.6c3.48-7.55 9.72-11.32 19.89-11.32Zm43.81 69.81-.87-4.21a25.337 25.337 0 0 1-17.56 6.53c-14.08 0-25.4-10-25.4-23.66 0-13.2 10.89-23.22 26.71-23.22a40.797 40.797 0 0 1 14.8 2.76c-.14-6-4.06-9-14.8-9-5.513 0-10.995.832-16.26 2.47l2.76-19.16a89.735 89.735 0 0 1 20.61-2.32c21.77 0 34.54 8 34.54 27.14v31.35l.59 11.32h-25.12Zm-1.74-22.64c0-3.92-3.19-6.82-7.25-6.82-4.06 0-7.26 2.9-7.26 6.82 0 3.92 3.19 6.82 7.26 6.82s7.25-2.9 7.25-6.82ZM206 59.66V73c0 5.07 2.47 8.12 8 8.12a27.7 27.7 0 0 0 7.55-1.3v23.65a47.067 47.067 0 0 1-16 2.62c-20.18 0-29-11.32-29-28.89V26.28L206 12.49v24.38h15.53v22.79H206Zm84.31 17.71 7.4 20a57.241 57.241 0 0 1-31.64 10c-22.21 0-39-15.67-39-36.28s15.67-36.58 37.44-36.58c16.12 0 29.47 8.71 34.26 25.26l-37.31 26.12a16.73 16.73 0 0 0 4.94.73c6.06.04 14.04-2.28 23.91-9.25Zm-39.48-6.68c-.027.826.02 1.653.14 2.47l21.78-15.24a12.3 12.3 0 0 0-8-2.61c-8.26 0-13.92 6.53-13.92 15.38ZM306.69 7.9l29.46-3v100.2h-29.46V7.9Zm42.22-4.41 29.47-2.9v104.5h-29.47V3.49Zm42.23 59.08 29.46-2.91v45.43h-29.46V62.57Z"
    fill="#1D1D1B"
  />
  <path
    d="M391.25 34.46c3.25-8.86 13.49-13.61 23.44-10 7.5 2.74 11 9.73 8.37 16.82-2.63 7.09-8.31 9.17-15.86 10-5.3.54-9.76.91-14.7 1.73l-1.13-.72c-1.56-4.61-2.46-11.43-.12-17.83Z"
    fill="#00BB81"
  />
</svg>
