<svg xmlns="http://www.w3.org/2000/svg" viewBox="0 0 500 500"><defs><style>.cls-1{fill:#1d1d1b;}.cls-2{fill:#00bb81;}</style></defs><g id="Layer_2" data-name="Layer 2"><path class="cls-1" d="M67.55,232.58v.29H80.32v22.79H67.55v45.43H38.09V231.71c0-22.5,13.64-34.4,39.33-34.4h2.9v25H78.44C71.32,222.28,67.55,225.91,67.55,232.58Z"/><path class="cls-1" d="M135.47,231.28v25.25c-11.33,0-18.15,4.79-18.15,17.13v27.43H87.86V234.33l27.72-2.62V242.6C119.06,235.05,125.3,231.28,135.47,231.28Z"/><path class="cls-1" d="M179.28,301.09l-.87-4.21a25.34,25.34,0,0,1-17.56,6.53c-14.08,0-25.4-10-25.4-23.66,0-13.2,10.89-23.22,26.71-23.22a40.8,40.8,0,0,1,14.8,2.76c-.14-6-4.06-9-14.8-9a54.71,54.71,0,0,0-16.26,2.47l2.76-19.16a89.74,89.74,0,0,1,20.61-2.32c21.77,0,34.54,8,34.54,27.14v31.35l.59,11.32Zm-1.74-22.64c0-3.92-3.19-6.82-7.25-6.82s-7.26,2.9-7.26,6.82,3.19,6.82,7.26,6.82S177.54,282.37,177.54,278.45Z"/><path class="cls-1" d="M244,255.66V269c0,5.07,2.47,8.12,8,8.12a27.7,27.7,0,0,0,7.55-1.3v23.65a47.06,47.06,0,0,1-16,2.62c-20.18,0-29-11.32-29-28.89V222.28L244,208.49v24.38h15.53v22.79Z"/><path class="cls-1" d="M328.31,273.37l7.4,20a57.24,57.24,0,0,1-31.64,10c-22.21,0-39-15.67-39-36.28s15.67-36.58,37.44-36.58c16.12,0,29.47,8.71,34.26,25.26l-37.31,26.12a16.73,16.73,0,0,0,4.94.73C310.46,282.66,318.44,280.34,328.31,273.37Zm-39.48-6.68a13.82,13.82,0,0,0,.14,2.47l21.78-15.24a12.3,12.3,0,0,0-8-2.61C294.49,251.31,288.83,257.84,288.83,266.69Z"/><path class="cls-1" d="M344.69,203.9l29.46-3v100.2H344.69Z"/><path class="cls-1" d="M386.91,199.49l29.47-2.9v104.5H386.91Z"/><path class="cls-1" d="M429.14,258.57l29.46-2.91v45.43H429.14Z"/><path class="cls-2" d="M429.25,230.46c3.25-8.86,13.49-13.61,23.44-10,7.5,2.74,11,9.73,8.37,16.82s-8.31,9.17-15.86,10c-5.3.54-9.76.91-14.7,1.73l-1.13-.72C427.81,243.68,426.91,236.86,429.25,230.46Z"/></g></svg>