<svg fill="none" xmlns="http://www.w3.org/2000/svg" viewBox="0 0 1104 231">
  <path
    d="M88.18 3.03c7.17-1.51 14.43-2.9 21.77-2.97 46.7.04 93.4.02 140.1.02 2.5.01 5 .09 7.49.22 0 9.87.13 19.75-.07 29.62-48.84.07-97.68.01-146.51.02-19.27 1.3-38.48 8.5-52.8 21.67-16.51 14.24-26.35 35.27-28.49 56.81-1.49 20.1 4.65 40.56 16.57 56.76 11.81 16.15 29.48 27.93 49.02 32.34 6.15 1.32 12.4 2.46 18.71 2.48 42.52.03 85.03-.05 127.55.04.54-2.82.98-5.66.99-8.53-.04-18.37-.1-36.73.02-55.1-.1-1.88.111-3.92-.889-5.6-1.25-1.08-3.061-.74-4.581-.93-31.49.07-62.99-.04-94.48.04-.15-9.87-.01-19.74-.05-29.61 3.49-.24 6.98-.33 10.47-.3 39.79.11 79.58-.09 119.37.09.05 39.45 0 78.91.03 118.36.04 3.81.01 7.63-.31 11.43-49.36-.13-98.73-.03-148.09-.06-7.26-.07-14.58.46-21.78-.74-28.41-2.88-55.38-17.2-74.09-38.7C12.75 173.22 3.2 151.06.61 128.2c-.39-8.51-.38-17.06-.07-25.58 2.59-24.86 13.12-49.01 30.54-67.06C46.53 19.65 66.35 7.59 88.18 3.03Z"
    fill="#fff"
  />
  <path
    d="M785.65 0c12.64.1 25.29.05 37.94.02.15 42.15.019 84.3.069 126.45-.1 7.23.331 14.53-1.029 21.68-2.05 18.51-8.32 37.04-20.73 51.23-11.62 12.93-27.731 20.97-44.341 25.38-13.55 3.75-27.58 5.15-41.56 6.06-20.52.38-41.229.5-61.409-3.7-19.72-3.79-39.831-11.51-53.531-26.74-4.85-6.34-9.579-12.88-12.799-20.22-7.4-16.14-9.12-34.15-9.73-51.69.07-42.47-.14-84.95.1-127.43 13.19-.35 26.389-.06 39.589-.21.47 43.56.02 87.13.22 130.69.27 14.77 3.56 30.46 13.99 41.54 7.51 8.15 18.07 12.69 28.67 15.24 19.14 4.66 39.02 4.45 58.57 3.53 17.53-1.41 36.491-4.42 49.921-16.8 11.89-11.02 15.689-27.87 15.949-43.51.12-43.55-.099-87.1.101-130.65l.01-.87ZM318.829.12c13.25-.13 26.5-.11 39.75 0 .15 72.45-.07 144.9.11 217.35-.093 2.795-.111 11.28-.111 11.28h-1.659s-25.2.11-37.79.04c-.75-4.74-.49-9.54-.51-14.32.01-46.33 0-92.67 0-139 .14-25.12-.28-50.24.21-75.35ZM502.339.09c13.14-.06 26.29-.08 39.44 0 .3 2.44.55 4.9.55 7.37-.02 68.67 0 137.34-.01 206.01-.03 5.11.2 10.25-.4 15.35-13.19.08-26.38.12-39.57-.01-.08-27.45-.02-54.89-.04-82.34-.05-5.5.34-11.05-.64-16.5-37.26.03-74.52.04-111.78 0-1.81.26-2.45-2.05-2.31-3.46.07-10.36-.14-20.74.1-31.1 1.04-1.36 2.74-1.3 4.28-1.31 36.68.02 73.35.06 110.03-.01.74-16.52.12-33.08.32-49.62.01-14.79-.02-29.59.03-44.38ZM859.41.14C909.6-.07 959.8.11 1010 .05c12.16.16 24.45-.76 36.47 1.66 14 2.41 28.19 7.62 38.22 18.07 10.69 10.08 15.49 25.23 14.97 39.68.43 12.35-2.86 25.22-10.93 34.8-4.77 6.02-11.64 9.77-18.49 12.93 2.36 2.56 6.02 3.29 8.89 5.18 11.22 6.85 20.07 18.02 22.94 31 1.78 5.87 1.64 12.03 1.6 18.1.26 8.94-2.04 17.76-5.17 26.07-5.75 14.58-17.46 26.57-31.71 33.02-9.95 4.59-20.87 6.66-31.74 7.42-58.54-.05-117.08.12-175.62-.09-.06-75.92-.02-151.83-.02-227.75Zm39.15 38.93c-.15 4.47-.21 8.93-.18 13.4.14 45.47-.15 90.94.14 136.41 38.16.14 76.32-.02 114.48.08 10.51.28 21.14-1.02 31.13-4.4 8.85-3.15 17.21-10.06 19.15-19.64 2.01-10.65-.79-23.1-9.81-29.85-6.52-4.53-14.56-6.6-22.41-6.98-34.17-.12-68.34.17-102.51-.13-.15-10.63-.22-21.25.04-31.87 27.47-.24 54.94-.02 82.41-.1 12.19-.12 25.07 1.25 36.45-4.13 6.4-2.9 10.52-9.35 11.67-16.14 1.69-9.45.96-20.81-6.94-27.41-9.65-8.28-23.16-8.19-35.15-9.21-39.49-.14-78.98-.06-118.47-.03ZM91.61 48.05c8.93-3.92 18.68-5.6 28.38-5.92 29.34.02 58.68.01 88.01.01 5.53.05 11.12-.35 16.59.71-.17 9.73.09 19.46-.17 29.18-35.14-.09-70.29.01-105.43-.05-19.83-.03-38.31 15.86-41.35 35.44-.5 7.96-.95 16.4 2.6 23.8 6.34 15.16 21.93 27.01 38.77 26.01 34.94-.01 69.88.09 104.83-.05 1.47 9.85.36 19.92.68 29.86-35.84.1-71.68.01-107.51.04-14.64.28-28.83-5.56-40.51-14.08-14.71-10.88-24.87-27.56-28.05-45.55-2.74-15.93-.15-32.75 7.61-46.96 7.79-14.36 20.45-26.11 35.55-32.44Z"
    fill="#726866"
  />
</svg>
