<svg width="217" height="55" viewBox="0 0 217 55" fill="none" xmlns="http://www.w3.org/2000/svg">
<g clip-path="url(#clip0)">
<path d="M15.7971 31.9879C17.075 31.5079 19.4902 30.5639 19.4902 30.5639C19.7337 30.5434 19.9765 30.6117 20.1733 30.7559C23.6212 32.7879 27.0597 34.8279 30.4888 36.8759C30.6031 36.9449 30.7012 37.0373 30.7767 37.1469C30.8522 37.2566 30.9034 37.381 30.9269 37.5119C30.9269 41.4479 30.9269 45.3679 30.8264 49.2879C30.7868 50.3865 30.4327 51.451 29.8057 52.3559C29.4878 52.8352 29.0739 53.2439 28.5898 53.5564C28.1057 53.8689 27.562 54.0785 26.9927 54.1719C24.588 54.5994 22.109 54.1597 20.0005 52.9319L19.9603 52.9079L8.39905 46.0159C6.97248 44.9439 5.40526 44.0159 4.13942 42.7639C1.32646 39.9639 0.357996 36.3639 0.321829 32.5319C0.257533 26.1719 0.297718 19.7919 0.321829 13.4239C0.316477 12.8306 0.371678 12.2382 0.486587 11.6559C1.38674 7.25594 5.27264 5.43194 9.22686 7.69594C14.4791 10.6879 19.6991 13.7519 24.8227 16.9599C26.4839 17.9539 27.9207 19.2789 29.043 20.8517C30.1654 22.4246 30.949 24.2114 31.3448 26.0999L27.5513 27.5319C27.9532 27.7759 28.355 27.9799 28.6765 28.1559C31.7185 29.8919 34.7404 31.6399 37.8026 33.3559C38.0434 33.4573 38.2445 33.6339 38.3757 33.859C38.5069 34.0841 38.561 34.3455 38.5299 34.6039C38.4857 37.9639 38.5299 41.3239 38.5018 44.6879C38.4817 46.9039 37.9713 48.9679 36.0666 50.3559C35.2806 50.8536 34.4148 51.2135 33.5068 51.4199C34.9414 49.1679 34.6922 46.7319 34.7123 44.3399C34.7123 41.6719 34.6922 38.9999 34.7123 36.3399C34.7438 36.0833 34.6941 35.8233 34.5702 35.596C34.4464 35.3688 34.2544 35.1856 34.0211 35.0719C30.6576 33.0999 27.3303 31.0719 23.8101 28.9599L27.5634 27.5439C26.611 24.1879 24.9353 21.3639 21.8531 19.5439C18.6784 17.6719 15.5078 15.7719 12.3533 13.9039C12.2287 13.8319 12.0921 13.7679 11.8309 13.6319V14.5399C11.8309 19.8799 11.863 25.2199 11.8309 30.5399C11.8309 34.0639 13.2534 36.7159 16.3919 38.4119C16.9223 38.6959 17.4327 39.0199 17.9471 39.3199L27.2258 44.7639C27.2258 42.8959 27.2258 41.1319 27.2017 39.3559C27.2017 39.1279 26.8722 38.9039 26.6431 38.7479L15.7971 31.9879ZM8.01327 22.3479C8.01327 18.9279 8.01327 15.5039 8.01327 12.0759C8.04068 11.8314 7.98463 11.5848 7.85415 11.3759C7.72367 11.1669 7.52636 11.0077 7.29396 10.9239C5.51375 10.0839 4.58548 10.5479 4.20372 12.5239C4.1282 12.8603 4.08647 13.2033 4.07914 13.5479C4.07914 19.9239 3.9827 26.3079 4.11129 32.6839C4.19166 36.5679 5.80711 39.8439 9.23088 41.9319C14.0129 44.8559 18.8753 47.6719 23.6976 50.4919C24.2507 50.7959 24.8701 50.9606 25.5019 50.9719C26.4382 50.9959 26.6873 50.1999 26.9284 49.4559C27.1695 48.7119 26.8119 48.4439 26.2332 48.1479C25.1683 47.6039 24.1275 47.0119 23.0948 46.4039C19.5143 44.2839 15.9097 42.2239 12.3814 40.0439C9.38359 38.1839 7.92888 35.4199 7.98112 31.8879C8.03738 28.6959 8.03738 25.5239 8.01327 22.3479Z" fill="#42445C"/>
<path d="M11.0107 5.13202C11.8734 4.46782 12.9134 4.07114 14.0011 3.99147C15.0887 3.9118 16.1759 4.15267 17.1269 4.68402C19.1121 5.73602 20.9686 6.96802 22.8774 8.14002C26.0119 10.0734 29.1396 12.0173 32.2607 13.972C35.6804 16.116 37.5531 18.8 38.5014 22.616C38.5493 22.81 38.5248 23.0147 38.4324 23.192C38.34 23.3694 38.186 23.5072 37.9991 23.58L34.8647 24.78C34.3262 22.504 33.7636 20.78 32.4536 18.98C30.5407 16.44 27.9207 14.9 25.3167 13.3C21.7 11.1 18.1396 8.86801 14.5149 6.71601C13.4379 6.07201 12.2284 5.70002 11.0107 5.13202Z" fill="#42445C"/>
<path d="M34.853 24.7637C35.2549 25.0117 35.9702 25.5637 36.2756 25.7197C39.3136 27.4557 42.3395 29.1997 45.3976 30.9197C45.6391 31.0204 45.8412 31.1967 45.9731 31.4218C46.1051 31.647 46.1598 31.9088 46.129 32.1677C46.0848 35.5317 46.129 38.3277 46.1008 41.6877C46.0807 43.9037 45.5704 45.9637 43.6656 47.3557C42.8799 47.8546 42.0141 48.2158 41.1058 48.4237C42.5404 46.1717 42.3114 43.7317 42.3114 41.3397C42.3114 38.6717 42.3114 36.5677 42.3114 33.8957C42.345 33.6393 42.2963 33.379 42.1721 33.1519C42.0479 32.9248 41.8547 32.7427 41.6202 32.6317C38.2567 30.6597 34.849 28.2317 31.3408 26.1077L34.853 24.7637Z" fill="#42445C"/>
<path d="M19.751 2.04428C20.6147 1.38036 21.6556 0.984219 22.7439 0.905262C23.8323 0.826305 24.9199 1.06803 25.8712 1.60028C27.8483 2.62028 28.1899 3.11628 30.0946 4.28828C33.2264 6.21628 36.3528 8.15895 39.4739 10.1163C42.8936 12.2643 44.7703 14.9603 45.7146 18.7643C45.7618 18.9587 45.736 19.1636 45.642 19.3405C45.548 19.5173 45.3923 19.6538 45.2043 19.7243L42.0779 20.9243C41.5354 18.6443 40.9728 16.9243 39.6426 15.1163C37.774 12.6003 35.1499 11.0363 32.5379 9.44428C28.9212 7.26028 26.8798 5.76829 23.2511 3.62828C22.1822 2.97628 20.9686 2.58028 19.751 2.04428Z" fill="#42445C"/>
<path d="M27.5473 27.5319C26.5949 24.1759 24.9192 21.3519 21.837 19.5319C18.6623 17.6599 15.4917 15.7599 12.3372 13.8919C12.2126 13.8199 12.076 13.7559 11.8148 13.6199L7.31003 10.9239C5.52983 10.0839 4.60155 10.5439 4.21979 12.5239C4.14427 12.8603 4.10255 13.2033 4.09522 13.5479C4.09522 19.9239 3.99877 26.3079 4.12736 32.6799C4.20773 36.5679 5.82318 39.8439 9.24696 41.9319C14.029 44.8559 18.8914 47.668 23.7136 50.492C24.2682 50.7905 24.8875 50.9497 25.5179 50.956C26.4543 50.98 26.7034 50.184 26.9445 49.44L27.1977 44.7879C27.1977 42.9199 27.1977 41.1559 27.1736 39.3799C27.1736 39.1519 26.844 38.9279 26.615 38.7719L15.7851 31.9719C17.063 31.4919 19.4781 30.5479 19.4781 30.5479C19.7217 30.5274 19.9644 30.5957 20.1613 30.7399C23.6091 32.7719 27.0477 34.8119 30.4768 36.8599C30.591 36.9289 30.6891 37.0213 30.7647 37.131C30.8402 37.2406 30.8914 37.3651 30.9148 37.4959C30.9148 41.4319 30.9148 45.3519 30.8143 49.2719C30.7748 50.3705 30.4206 51.435 29.7936 52.34C29.4758 52.8192 29.0618 53.2279 28.5777 53.5404C28.0937 53.8529 27.5499 54.0625 26.9807 54.156C24.576 54.5834 22.0969 54.1438 19.9885 52.916L19.9483 52.892L8.39905 46.0159C6.97248 44.9439 5.40526 44.0159 4.13942 42.764C1.32646 39.9639 0.357996 36.3639 0.321829 32.5319C0.257533 26.1719 0.297718 19.7919 0.321829 13.4239C0.316477 12.8306 0.371678 12.2382 0.486587 11.6559C1.38674 7.25594 5.27264 5.43194 9.22686 7.69594C14.4791 10.6879 19.6991 13.7519 24.8227 16.9599C26.4839 17.9539 27.9207 19.2789 29.043 20.8517C30.1654 22.4246 30.949 24.2114 31.3448 26.0999L27.5513 27.5319" fill="#42445C"/>
<path d="M11.0107 5.13202C11.8734 4.46782 12.9134 4.07114 14.0011 3.99147C15.0887 3.9118 16.1759 4.15267 17.1269 4.68402C19.1121 5.73602 20.9686 6.96802 22.8774 8.14002C26.0119 10.0734 29.1396 12.0173 32.2607 13.972C35.6804 16.116 37.5531 18.8 38.5014 22.616C38.5493 22.81 38.5248 23.0147 38.4324 23.192C38.34 23.3694 38.186 23.5072 37.9991 23.58L34.8647 24.78C34.3262 22.504 33.7636 20.78 32.4536 18.98C30.5407 16.44 27.9207 14.9 25.3167 13.3C21.7 11.1 18.1396 8.86801 14.5149 6.71601C13.4379 6.07201 12.2284 5.70002 11.0107 5.13202Z" fill="#42445C"/>
<path d="M19.751 2.04428C20.6147 1.38036 21.6556 0.984219 22.7439 0.905262C23.8323 0.826305 24.9199 1.06803 25.8712 1.60028C27.8483 2.62028 28.1899 3.11628 30.0946 4.28828C33.2264 6.21628 36.3528 8.15895 39.4739 10.1163C42.8936 12.2643 44.7703 14.9603 45.7146 18.7643C45.7618 18.9587 45.736 19.1636 45.642 19.3405C45.548 19.5173 45.3923 19.6538 45.2043 19.7243L42.0779 20.9243C41.5354 18.6443 40.9728 16.9243 39.6426 15.1163C37.774 12.6003 35.1499 11.0363 32.5379 9.44428C28.9212 7.26028 26.8798 5.76829 23.2511 3.62828C22.1822 2.97628 20.9686 2.58028 19.751 2.04428Z" fill="#42445C"/>
<path d="M83.4487 29.5281V30.2361C83.4487 36.1441 79.591 40.8721 73.2417 40.8721C70.4442 40.8181 67.7796 39.674 65.8204 37.6856C63.8612 35.6972 62.7637 33.0232 62.7637 30.2381C62.7637 27.453 63.8612 24.779 65.8204 22.7906C67.7796 20.8022 70.4442 19.6581 73.2417 19.6041C75.1674 19.5698 77.0607 20.1003 78.6857 21.1295C80.3106 22.1587 81.5954 23.6412 82.3798 25.3921C82.4401 25.5721 82.5004 25.7481 82.2633 25.7481L79.7115 26.1041C79.6297 26.1398 79.5383 26.1474 79.4517 26.1257C79.3652 26.104 79.2883 26.0542 79.2333 25.9841C78.6335 24.9629 77.7765 24.1151 76.7469 23.5244C75.7173 22.9338 74.5506 22.6207 73.3623 22.6161C68.97 22.6161 66.0606 26.2161 66.0606 30.2361C66.0606 34.2561 68.8495 37.8361 73.3623 37.8361C78.0479 37.8361 80.0049 34.3521 80.0049 31.9881C80.0049 31.8121 79.9486 31.6961 79.7115 31.6961H73.7762C73.7055 31.7029 73.635 31.6821 73.5795 31.6381C73.524 31.594 73.4879 31.5302 73.4788 31.4601V29.5081C73.472 29.4378 73.4929 29.3676 73.5371 29.3123C73.5814 29.2571 73.6455 29.2211 73.7159 29.2121H83.0911C83.3282 29.1561 83.4487 29.2721 83.4487 29.5081V29.5281Z" fill="#42445C"/>
<path d="M105.763 38.0363V40.4363C105.77 40.5073 105.748 40.578 105.703 40.6334C105.658 40.6887 105.593 40.7243 105.522 40.7323H93.2976C93.2274 40.7391 93.1573 40.7181 93.1024 40.674C93.0476 40.6299 93.0123 40.5661 93.0042 40.4963V19.9603C92.9974 19.89 93.0183 19.8198 93.0625 19.7646C93.1068 19.7093 93.1709 19.6734 93.2413 19.6644H105.168C105.239 19.6575 105.309 19.6784 105.365 19.7224C105.42 19.7665 105.457 19.8303 105.466 19.9004V22.3803C105.472 22.4507 105.452 22.5209 105.407 22.5761C105.363 22.6314 105.299 22.6673 105.229 22.6764H96.6811C96.6105 22.6695 96.54 22.6904 96.4845 22.7344C96.429 22.7785 96.3928 22.8423 96.3838 22.9124V28.6443C96.3769 28.7147 96.3979 28.7849 96.4421 28.8401C96.4864 28.8954 96.5505 28.9313 96.6209 28.9404H102.793C102.864 28.9335 102.935 28.9544 102.99 28.9984C103.046 29.0425 103.082 29.1063 103.091 29.1763V31.6563C103.098 31.7267 103.077 31.7969 103.032 31.8521C102.988 31.9074 102.924 31.9433 102.854 31.9523H96.6811C96.6105 31.9455 96.54 31.9664 96.4845 32.0104C96.429 32.0545 96.3928 32.1183 96.3838 32.1883V37.4443C96.3769 37.5147 96.3979 37.5849 96.4421 37.6401C96.4864 37.6954 96.5505 37.7313 96.6209 37.7403H105.462C105.539 37.7451 105.612 37.7778 105.667 37.8323C105.721 37.8868 105.754 37.9594 105.759 38.0363H105.763Z" fill="#42445C"/>
<path d="M134.424 19.7237H136.087C136.158 19.7169 136.229 19.7377 136.284 19.7818C136.34 19.8258 136.376 19.8897 136.385 19.9597V40.4557C136.392 40.5261 136.371 40.5963 136.326 40.6515C136.282 40.7068 136.218 40.7427 136.148 40.7517H133.299C133.227 40.7551 133.158 40.7306 133.104 40.6835C133.051 40.6364 133.018 40.5705 133.013 40.4997V27.7397C133.013 27.5037 132.836 27.3877 132.656 27.6237L126.129 38.0237C126.009 38.2597 125.832 38.2597 125.728 38.0237L119.202 27.6237C119.081 27.3877 118.844 27.5037 118.844 27.7397V40.4397C118.851 40.5101 118.83 40.5803 118.786 40.6355C118.741 40.6908 118.677 40.7267 118.607 40.7357H115.734C115.663 40.7425 115.592 40.7217 115.537 40.6777C115.481 40.6336 115.445 40.5698 115.436 40.4997V20.0197C115.428 19.9492 115.449 19.8784 115.493 19.8229C115.538 19.7675 115.602 19.7318 115.673 19.7237H117.393C117.469 19.7233 117.544 19.7388 117.613 19.7691C117.682 19.7994 117.744 19.8439 117.795 19.8997L125.687 32.6597C125.698 32.6876 125.715 32.7129 125.736 32.7341C125.757 32.7552 125.783 32.7718 125.811 32.7827C125.839 32.7936 125.868 32.7986 125.898 32.7974C125.928 32.7962 125.958 32.7888 125.985 32.7757C126.016 32.7748 126.045 32.7624 126.068 32.7409C126.09 32.7195 126.103 32.6905 126.105 32.6597L133.998 19.8997C134.126 19.7237 134.247 19.6637 134.424 19.7237Z" fill="#42445C"/>
<path d="M147.126 40.4561V19.9601C147.119 19.8897 147.14 19.8195 147.185 19.7643C147.229 19.709 147.293 19.6731 147.363 19.6641H155.195C158.993 19.6641 161.368 21.5561 161.368 25.4521C161.407 26.2675 161.23 27.0789 160.855 27.8048C160.48 28.5308 159.919 29.1457 159.23 29.5881C159.053 29.7041 159.053 29.8241 159.23 29.9441C160.18 30.3741 160.98 31.0749 161.529 31.9578C162.079 32.8408 162.353 33.8661 162.316 34.9041C162.316 38.6841 160.062 40.7521 155.73 40.7521H147.363C147.243 40.6921 147.126 40.6321 147.126 40.4561ZM154.898 28.6441C157.273 28.6441 158.342 27.2241 158.342 25.6881C158.342 23.6881 156.799 22.7361 155.127 22.7361H150.743C150.672 22.7292 150.602 22.7501 150.546 22.7941C150.491 22.8382 150.455 22.902 150.446 22.9721V28.3481C150.439 28.419 150.46 28.4898 150.505 28.5451C150.55 28.6005 150.616 28.636 150.687 28.6441H154.898ZM155.79 37.7401C157.627 37.7401 159.351 37.0321 159.351 34.7281C159.351 32.8961 157.807 31.5961 155.79 31.5961H150.803C150.733 31.5893 150.662 31.6101 150.607 31.6541C150.551 31.6982 150.515 31.762 150.506 31.8321V37.4321C150.499 37.5024 150.52 37.5726 150.564 37.6279C150.608 37.6831 150.673 37.7191 150.743 37.7281H155.79V37.7401Z" fill="#42445C"/>
<path d="M179.821 19.7236H181.236C181.313 19.7133 181.392 19.7316 181.457 19.775C181.522 19.8185 181.569 19.8841 181.589 19.9596L190.551 40.4556C190.611 40.6916 190.551 40.8116 190.314 40.8116H187.665C187.587 40.8222 187.508 40.804 187.442 40.7606C187.376 40.7172 187.328 40.6515 187.308 40.5756L185.656 36.7956C185.625 36.7267 185.575 36.6679 185.512 36.6261C185.448 36.5844 185.374 36.5613 185.298 36.5596H175.67C175.592 36.5482 175.512 36.566 175.446 36.6095C175.38 36.6531 175.332 36.7194 175.312 36.7956L173.653 40.5756C173.622 40.6446 173.571 40.7034 173.508 40.7451C173.445 40.7869 173.371 40.81 173.295 40.8116H170.567C170.329 40.8116 170.269 40.6916 170.329 40.4556L179.347 19.9596C179.528 19.7836 179.628 19.6636 179.821 19.7236ZM177.093 33.5436H183.86C184.097 33.5436 184.153 33.4276 184.097 33.1916L180.713 25.2156C180.713 25.0996 180.593 25.0396 180.476 25.0396C180.36 25.0396 180.356 25.0996 180.299 25.2156L176.916 33.1916C176.815 33.4276 176.916 33.5436 177.093 33.5436Z" fill="#42445C"/>
<path d="M213.885 19.7239H216.674C216.745 19.7171 216.815 19.7379 216.871 19.782C216.926 19.826 216.962 19.8898 216.972 19.9599V40.4559C216.978 40.5262 216.957 40.5965 216.913 40.6517C216.869 40.707 216.805 40.7429 216.734 40.7519H213.885C213.815 40.7587 213.744 40.7379 213.689 40.6939C213.633 40.6498 213.597 40.586 213.588 40.5159V32.5399C213.595 32.4696 213.574 32.3994 213.53 32.3441C213.485 32.2889 213.421 32.2529 213.351 32.2439H203.501C203.43 32.2372 203.359 32.2585 203.303 32.3034C203.248 32.3483 203.212 32.4131 203.204 32.4839V40.4559C203.211 40.5262 203.19 40.5965 203.146 40.6517C203.102 40.707 203.037 40.7429 202.967 40.7519H200.122C200.051 40.7587 199.981 40.7379 199.925 40.6939C199.87 40.6498 199.834 40.586 199.825 40.5159V20.0199C199.818 19.9496 199.839 19.8794 199.883 19.8241C199.927 19.7689 199.991 19.7329 200.062 19.7239H202.911C202.981 19.7171 203.052 19.7379 203.107 19.782C203.163 19.826 203.199 19.8898 203.208 19.9599V28.9399C203.201 29.0098 203.222 29.0796 203.267 29.1342C203.311 29.1888 203.375 29.2239 203.445 29.2319H213.295C213.365 29.2398 213.437 29.2194 213.492 29.1751C213.548 29.1309 213.584 29.0664 213.592 28.9959V20.0199C213.59 19.9804 213.596 19.9409 213.61 19.904C213.624 19.867 213.646 19.8334 213.674 19.8054C213.702 19.7775 213.736 19.7558 213.773 19.7417C213.81 19.7277 213.85 19.7216 213.889 19.7239H213.885Z" fill="#42445C"/>
</g>
<defs>
<clipPath id="clip0">
<rect width="217" height="54" fill="white" transform="translate(0 0.5)"/>
</clipPath>
</defs>
</svg>
