<svg fill="none" xmlns="http://www.w3.org/2000/svg" viewBox="0 0 97 24">
  <path
    d="M7.061 13.958c.572-.21 1.651-.621 1.651-.621a.461.461 0 0 1 .306.084c1.54.886 3.078 1.777 4.61 2.67a.416.416 0 0 1 .197.278c0 1.717 0 3.428-.045 5.138a2.47 2.47 0 0 1-.457 1.34c-.142.208-.327.387-.543.523-.217.136-.46.228-.714.269a4.705 4.705 0 0 1-3.126-.541l-.018-.011-5.168-3.007c-.637-.468-1.338-.873-1.904-1.42C.593 17.44.16 15.869.144 14.197c-.029-2.776-.01-5.56 0-8.338a3.72 3.72 0 0 1 .074-.772C.62 3.166 2.357 2.37 4.124 3.358a196.139 196.139 0 0 1 6.972 4.043 6.222 6.222 0 0 1 1.886 1.698 6.025 6.025 0 0 1 1.03 2.29l-1.696.625c.18.106.359.195.502.272 1.36.758 2.711 1.52 4.08 2.27a.534.534 0 0 1 .256.219.51.51 0 0 1 .069.325c-.02 1.466 0 2.932-.012 4.4-.01.967-.238 1.868-1.09 2.473a3.698 3.698 0 0 1-1.143.465c.641-.983.53-2.046.539-3.09 0-1.164-.01-2.33 0-3.49a.53.53 0 0 0-.064-.325.552.552 0 0 0-.245-.229c-1.504-.86-2.991-1.745-4.565-2.667l1.678-.618c-.426-1.464-1.175-2.697-2.553-3.49C8.35 7.71 6.932 6.881 5.522 6.066c-.056-.031-.117-.06-.234-.119v.397c0 2.33.015 4.66 0 6.981 0 1.538.636 2.695 2.04 3.436.236.123.465.265.694.396l4.148 2.375c0-.815 0-1.585-.01-2.36 0-.1-.148-.197-.25-.265l-4.849-2.95ZM3.582 9.752V5.269a.467.467 0 0 0-.071-.305.49.49 0 0 0-.25-.197c-.796-.367-1.211-.164-1.382.698a2.208 2.208 0 0 0-.056.447c0 2.782-.043 5.568.015 8.35.036 1.695.758 3.124 2.288 4.035 2.138 1.276 4.311 2.505 6.467 3.736.247.132.524.204.806.21.419.01.53-.338.638-.662.108-.325-.052-.442-.31-.571a26.939 26.939 0 0 1-1.404-.761c-1.6-.925-3.211-1.824-4.788-2.775-1.34-.812-1.99-2.018-1.967-3.56.025-1.392.025-2.776.014-4.162ZM4.922 2.24a2.542 2.542 0 0 1 2.734-.195c.887.458 1.717.996 2.57 1.507 1.401.844 2.8 1.692 4.195 2.545 1.528.936 2.365 2.107 2.79 3.772a.35.35 0 0 1-.031.251.367.367 0 0 1-.194.17l-1.401.523c-.241-.993-.493-1.745-1.078-2.53-.855-1.11-2.026-1.781-3.19-2.48C9.7 4.844 8.108 3.87 6.488 2.932c-.481-.281-1.022-.444-1.566-.691Z"
    fill="#fff"
  />
  <path
    d="M15.58 10.806c.18.108.499.349.635.417 1.358.758 2.711 1.519 4.078 2.27.108.043.198.12.257.218a.511.511 0 0 1 .07.326c-.02 1.468 0 2.688-.013 4.154-.009.967-.237 1.866-1.088 2.473a3.705 3.705 0 0 1-1.144.466c.64-.982.538-2.047.538-3.09v-3.25a.522.522 0 0 0-.062-.324.543.543 0 0 0-.247-.227c-1.503-.86-3.026-1.92-4.595-2.847l1.57-.586ZM8.829.892a2.544 2.544 0 0 1 2.736-.194c.883.445 1.036.662 1.887 1.173 1.4.842 2.798 1.69 4.193 2.543 1.529.938 2.367 2.114 2.79 3.774a.349.349 0 0 1-.033.252.365.365 0 0 1-.196.167l-1.397.524c-.242-.995-.494-1.746-1.089-2.535-.835-1.098-2.008-1.78-3.175-2.475-1.617-.953-2.53-1.604-4.152-2.538-.477-.284-1.02-.457-1.564-.69Z"
    fill="#fff"
  />
  <path
    d="M12.314 12.014c-.426-1.465-1.175-2.697-2.553-3.491-1.419-.817-2.836-1.646-4.246-2.461-.056-.032-.117-.06-.234-.119L3.268 4.767c-.796-.367-1.211-.166-1.382.698a2.208 2.208 0 0 0-.055.447c0 2.782-.044 5.568.014 8.348.036 1.697.758 3.126 2.288 4.037 2.138 1.276 4.312 2.503 6.467 3.736.248.13.525.2.807.202.418.01.53-.337.637-.661l.114-2.03c0-.815 0-1.585-.011-2.36 0-.1-.148-.197-.25-.265L7.056 13.95c.571-.21 1.65-.621 1.65-.621a.461.461 0 0 1 .306.084 926.36 926.36 0 0 1 4.611 2.67.416.416 0 0 1 .196.278c0 1.717 0 3.428-.045 5.138-.017.48-.176.944-.456 1.34-.142.208-.327.387-.544.523-.216.136-.46.228-.713.269a4.706 4.706 0 0 1-3.126-.541l-.018-.01-5.163-3.001c-.637-.468-1.338-.873-1.904-1.42C.593 17.44.16 15.869.144 14.197c-.029-2.776-.01-5.56 0-8.338a3.72 3.72 0 0 1 .074-.772C.62 3.166 2.357 2.37 4.124 3.358a196.139 196.139 0 0 1 6.972 4.043 6.222 6.222 0 0 1 1.886 1.698 6.025 6.025 0 0 1 1.03 2.29l-1.696.625M4.922 2.24a2.542 2.542 0 0 1 2.734-.195c.887.458 1.717.996 2.57 1.507 1.401.844 2.8 1.692 4.195 2.545 1.528.936 2.365 2.107 2.79 3.772a.35.35 0 0 1-.031.251.367.367 0 0 1-.194.17l-1.401.523c-.241-.993-.493-1.745-1.078-2.53-.855-1.11-2.026-1.781-3.19-2.48C9.7 4.844 8.108 3.87 6.488 2.932c-.481-.281-1.022-.444-1.566-.691ZM8.829.892a2.544 2.544 0 0 1 2.736-.194c.883.445 1.036.662 1.887 1.173 1.4.842 2.798 1.69 4.193 2.543 1.529.938 2.367 2.114 2.79 3.774a.349.349 0 0 1-.033.252.365.365 0 0 1-.196.167l-1.397.524c-.242-.995-.494-1.746-1.089-2.535-.835-1.098-2.008-1.78-3.175-2.475-1.617-.953-2.53-1.604-4.152-2.538-.477-.284-1.02-.457-1.564-.69ZM37.302 12.885v.31c0 2.577-1.724 4.64-4.563 4.64a4.844 4.844 0 0 1-3.317-1.39 4.574 4.574 0 0 1-1.366-3.25c0-1.215.49-2.382 1.366-3.25a4.844 4.844 0 0 1 3.317-1.39 4.482 4.482 0 0 1 2.434.665 4.3 4.3 0 0 1 1.651 1.86c.027.079.054.156-.052.156l-1.14.155a.184.184 0 0 1-.214-.052 3.014 3.014 0 0 0-1.112-1.074 3.122 3.122 0 0 0-1.513-.396c-1.963 0-3.264 1.57-3.264 3.325 0 1.754 1.247 3.316 3.264 3.316 2.095 0 2.97-1.52 2.97-2.551 0-.077-.026-.128-.132-.128h-2.653a.124.124 0 0 1-.088-.025.118.118 0 0 1-.045-.078v-.852a.117.117 0 0 1 .026-.085.124.124 0 0 1 .08-.044h4.191c.106-.024.16.026.16.13v.008ZM47.277 16.598v1.047a.116.116 0 0 1-.027.086.123.123 0 0 1-.081.043h-5.464a.123.123 0 0 1-.088-.025.116.116 0 0 1-.044-.078V8.71a.116.116 0 0 1 .026-.085.123.123 0 0 1 .08-.044h5.332a.125.125 0 0 1 .088.025c.024.02.04.047.045.078v1.082a.117.117 0 0 1-.027.085.122.122 0 0 1-.08.044h-3.82a.124.124 0 0 0-.088.026.118.118 0 0 0-.045.077V12.5a.116.116 0 0 0 .026.086c.02.024.048.04.08.044h2.759a.124.124 0 0 1 .088.025c.025.02.041.047.045.078v1.082a.115.115 0 0 1-.026.085.122.122 0 0 1-.08.044h-2.76a.124.124 0 0 0-.087.025.118.118 0 0 0-.045.078v2.293a.116.116 0 0 0 .026.086c.02.024.048.04.08.044h3.952a.138.138 0 0 1 .133.13h.002ZM60.088 8.607h.743a.125.125 0 0 1 .089.025c.025.02.04.047.045.078v8.944a.115.115 0 0 1-.027.085.122.122 0 0 1-.08.044h-1.273a.125.125 0 0 1-.087-.03.118.118 0 0 1-.04-.08v-5.568c0-.103-.08-.154-.16-.051l-2.918 4.538c-.053.103-.133.103-.179 0l-2.917-4.538c-.054-.103-.16-.052-.16.05v5.543a.116.116 0 0 1-.026.085.124.124 0 0 1-.08.044h-1.284a.124.124 0 0 1-.088-.026.117.117 0 0 1-.046-.077V8.736a.115.115 0 0 1 .026-.086.122.122 0 0 1 .08-.043h.77a.246.246 0 0 1 .179.077l3.528 5.568a.096.096 0 0 0 .055.053.097.097 0 0 0 .078-.003.057.057 0 0 0 .037-.015.054.054 0 0 0 .017-.035l3.528-5.568c.057-.077.111-.103.19-.077ZM65.766 17.654V8.71a.115.115 0 0 1 .026-.085.122.122 0 0 1 .08-.044h3.5c1.699 0 2.76.825 2.76 2.526.018.355-.061.71-.23 1.026a2.055 2.055 0 0 1-.725.778c-.08.05-.08.103 0 .156.424.187.782.493 1.027.878.246.386.369.833.352 1.286 0 1.65-1.007 2.552-2.944 2.552h-3.74c-.054-.026-.106-.053-.106-.13Zm3.474-5.155c1.062 0 1.54-.62 1.54-1.29 0-.872-.69-1.288-1.438-1.288h-1.96a.125.125 0 0 0-.087.026.118.118 0 0 0-.045.077v2.346a.116.116 0 0 0 .026.086c.02.024.05.04.082.043h1.882Zm.399 3.97c.821 0 1.592-.31 1.592-1.315 0-.8-.69-1.367-1.592-1.367h-2.23a.124.124 0 0 0-.087.026.117.117 0 0 0-.045.077v2.444a.116.116 0 0 0 .026.086c.02.024.049.04.08.043h2.256v.005ZM80.38 8.607h.633a.147.147 0 0 1 .1.022.14.14 0 0 1 .058.08l4.006 8.944c.027.103 0 .156-.106.156h-1.184a.149.149 0 0 1-.1-.023.14.14 0 0 1-.06-.08l-.738-1.65a.177.177 0 0 0-.16-.103h-4.304a.147.147 0 0 0-.1.022.14.14 0 0 0-.06.081l-.741 1.65a.178.178 0 0 1-.16.103h-1.22c-.106 0-.133-.053-.106-.156l4.03-8.943c.082-.077.126-.13.213-.103Zm-1.219 6.03h3.025c.106 0 .131-.05.106-.153l-1.513-3.48c0-.051-.053-.078-.105-.078s-.054.027-.08.077l-1.512 3.48c-.045.104 0 .154.08.154ZM95.608 8.607h1.246a.12.12 0 0 1 .133.103v8.943a.119.119 0 0 1-.026.086.122.122 0 0 1-.08.044h-1.273a.124.124 0 0 1-.088-.026.117.117 0 0 1-.045-.077V14.2a.117.117 0 0 0-.026-.086.125.125 0 0 0-.08-.044h-4.403a.125.125 0 0 0-.089.026.119.119 0 0 0-.044.079v3.478a.117.117 0 0 1-.026.086.123.123 0 0 1-.08.044h-1.272a.125.125 0 0 1-.088-.026.118.118 0 0 1-.044-.077V8.736a.116.116 0 0 1 .026-.086.123.123 0 0 1 .08-.043h1.273a.124.124 0 0 1 .088.025c.025.02.04.047.045.078v3.918c-.003.03.006.061.026.085a.12.12 0 0 0 .08.043h4.403a.122.122 0 0 0 .088-.025.116.116 0 0 0 .045-.078V8.736a.123.123 0 0 1 .036-.094.128.128 0 0 1 .096-.035h-.001Z"
    fill="#fff"
  />
</svg>
