<svg width="97" height="24" viewBox="0 0 97 24" fill="none" xmlns="http://www.w3.org/2000/svg">
<path d="M7.06138 13.9583C7.63261 13.7488 8.71221 13.3369 8.71221 13.3369C8.82106 13.328 8.92959 13.3578 9.01756 13.4207C10.5588 14.3074 12.0958 15.1976 13.6286 16.0912C13.6797 16.1214 13.7236 16.1617 13.7573 16.2095C13.7911 16.2574 13.814 16.3117 13.8245 16.3688C13.8245 18.0863 13.8245 19.7968 13.7795 21.5074C13.7618 21.9868 13.6036 22.4513 13.3233 22.8462C13.1812 23.0553 12.9962 23.2336 12.7798 23.37C12.5634 23.5064 12.3203 23.5978 12.0659 23.6386C10.991 23.8251 9.88283 23.6333 8.94032 23.0975L8.92235 23.087L3.75442 20.0796C3.11673 19.6118 2.41618 19.2069 1.85034 18.6606C0.592936 17.4387 0.160028 15.8678 0.143862 14.1957C0.115121 11.4204 0.133084 8.63641 0.143862 5.85765C0.141469 5.59875 0.166144 5.34025 0.217509 5.08616C0.619882 3.16618 2.3569 2.37025 4.12445 3.35818C6.47223 4.66376 8.80559 6.00078 11.0959 7.40063C11.8384 7.83438 12.4807 8.41256 12.9824 9.09887C13.4841 9.78523 13.8343 10.5649 14.0113 11.389L12.3156 12.0139C12.4952 12.1203 12.6748 12.2094 12.8185 12.2862C14.1783 13.0437 15.5291 13.8064 16.8979 14.5552C17.0056 14.5995 17.0955 14.6766 17.1541 14.7748C17.2128 14.873 17.2369 14.9871 17.223 15.0998C17.2033 16.566 17.223 18.0322 17.2105 19.5001C17.2015 20.4671 16.9733 21.3678 16.1219 21.9734C15.7706 22.1906 15.3836 22.3477 14.9777 22.4377C15.619 21.455 15.5076 20.392 15.5166 19.3483C15.5166 18.184 15.5076 17.0181 15.5166 15.8574C15.5306 15.7454 15.5084 15.6319 15.453 15.5327C15.3977 15.4336 15.3119 15.3537 15.2076 15.304C13.7041 14.4435 12.2168 13.5586 10.6432 12.637L12.321 12.0191C11.8952 10.5547 11.1462 9.32238 9.76844 8.52819C8.34933 7.71132 6.93206 6.88223 5.52198 6.0671C5.46629 6.03569 5.40523 6.00776 5.28847 5.94841V6.34463C5.28847 8.67481 5.30282 11.005 5.28847 13.3264C5.28847 14.8642 5.92433 16.0214 7.32726 16.7615C7.56435 16.8854 7.7925 17.0268 8.02244 17.1577L12.1701 19.5333C12.1701 18.7182 12.1701 17.9484 12.1593 17.1734C12.1593 17.0739 12.012 16.9762 11.9096 16.9081L7.06138 13.9583ZM3.58197 9.75176C3.58197 8.25939 3.58197 6.76529 3.58197 5.26943C3.59422 5.16274 3.56917 5.05513 3.51084 4.96398C3.45252 4.87278 3.36432 4.80331 3.26044 4.76674C2.46467 4.40019 2.04973 4.60267 1.87908 5.46492C1.84533 5.61171 1.82667 5.76139 1.8234 5.91176C1.8234 8.69401 1.78029 11.4798 1.83777 14.262C1.87369 15.9568 2.59581 17.3864 4.12625 18.2975C6.26383 19.5734 8.43735 20.8022 10.5929 22.0328C10.8402 22.1654 11.1171 22.2373 11.3995 22.2422C11.818 22.2527 11.9293 21.9054 12.0371 21.5807C12.1449 21.256 11.985 21.1391 11.7264 21.0099C11.2503 20.7726 10.7851 20.5142 10.3235 20.2489C8.72299 19.3238 7.11171 18.4249 5.53455 17.4736C4.19451 16.662 3.54425 15.4559 3.5676 13.9147C3.59275 12.5218 3.59275 11.1376 3.58197 9.75176Z" fill="white"/>
<path d="M4.92183 2.23955C5.30746 1.94972 5.77234 1.77662 6.25855 1.74186C6.74471 1.70709 7.2307 1.8122 7.6558 2.04406C8.54319 2.50312 9.37306 3.04072 10.2263 3.55213C11.6274 4.39579 13.0255 5.24404 14.4207 6.097C15.9493 7.03256 16.7864 8.20376 17.2103 9.86892C17.2317 9.95358 17.2208 10.0429 17.1795 10.1203C17.1382 10.1977 17.0693 10.2578 16.9858 10.2896L15.5847 10.8132C15.344 9.82005 15.0925 9.06776 14.5069 8.28231C13.6518 7.17394 12.4807 6.50194 11.3167 5.80376C9.7 4.84376 8.10848 3.8698 6.48822 2.93075C6.0068 2.64973 5.46615 2.48741 4.92183 2.23955Z" fill="white"/>
<path d="M15.5795 10.8059C15.7591 10.9141 16.0789 11.155 16.2154 11.2231C17.5734 11.9806 18.926 12.7416 20.2929 13.4922C20.4009 13.5361 20.4912 13.613 20.5502 13.7113C20.6092 13.8095 20.6337 13.9238 20.6199 14.0367C20.6001 15.5047 20.6199 16.7247 20.6073 18.1909C20.5983 19.1579 20.3702 20.0568 19.5187 20.6642C19.1675 20.8819 18.7805 21.0396 18.3745 21.1303C19.0158 20.1476 18.9134 19.0829 18.9134 18.0391C18.9134 16.8749 18.9134 15.9567 18.9134 14.7908C18.9284 14.6789 18.9066 14.5653 18.8511 14.4662C18.7956 14.3671 18.7093 14.2877 18.6044 14.2392C17.1009 13.3787 15.5777 12.3192 14.0095 11.3924L15.5795 10.8059Z" fill="white"/>
<path d="M8.8288 0.892085C9.21487 0.602375 9.68016 0.429513 10.1666 0.395059C10.6532 0.360605 11.1393 0.466085 11.5646 0.69834C12.4483 1.14343 12.601 1.35987 13.4524 1.87128C14.8524 2.71259 16.2499 3.5603 17.645 4.41442C19.1736 5.35173 20.0125 6.52817 20.4346 8.18809C20.4557 8.27292 20.4442 8.36233 20.4022 8.43953C20.3602 8.51668 20.2906 8.57624 20.2065 8.607L18.809 9.13064C18.5665 8.13573 18.315 7.38518 17.7204 6.59624C16.8852 5.49835 15.7122 4.81588 14.5446 4.12118C12.9279 3.16816 12.0154 2.51711 10.3934 1.58328C9.91555 1.29878 9.37307 1.12598 8.8288 0.892085Z" fill="white"/>
<path d="M12.3138 12.0139C11.888 10.5494 11.139 9.31714 9.76124 8.52296C8.34214 7.70609 6.92486 6.87699 5.51479 6.06187C5.45909 6.03045 5.39803 6.00252 5.28127 5.94318L3.26762 4.76674C2.47186 4.40019 2.05692 4.60092 1.88627 5.46492C1.85251 5.61171 1.83386 5.76139 1.83058 5.91176C1.83058 8.69401 1.78747 11.4798 1.84495 14.2603C1.88088 15.9568 2.60299 17.3864 4.13344 18.2975C6.27103 19.5734 8.44455 20.8005 10.6001 22.0328C10.848 22.1631 11.1248 22.2325 11.4066 22.2353C11.8252 22.2458 11.9365 21.8984 12.0443 21.5738L12.1575 19.5438C12.1575 18.7286 12.1575 17.9589 12.1467 17.1839C12.1467 17.0844 11.9994 16.9867 11.897 16.9186L7.05602 13.9513C7.62724 13.7419 8.7068 13.3299 8.7068 13.3299C8.81569 13.321 8.92418 13.3508 9.0122 13.4137C10.5534 14.3004 12.0904 15.1906 13.6233 16.0843C13.6743 16.1144 13.7182 16.1547 13.752 16.2026C13.7857 16.2504 13.8086 16.3047 13.8191 16.3618C13.8191 18.0793 13.8191 19.7899 13.7741 21.5004C13.7565 21.9798 13.5982 22.4443 13.3179 22.8392C13.1758 23.0483 12.9908 23.2267 12.7744 23.363C12.558 23.4994 12.3149 23.5909 12.0605 23.6317C10.9856 23.8182 9.87742 23.6263 8.93495 23.0906L8.91698 23.0801L3.75442 20.0796C3.11673 19.6118 2.41618 19.2069 1.85034 18.6606C0.592936 17.4387 0.160028 15.8678 0.143862 14.1957C0.115121 11.4204 0.133084 8.63641 0.143862 5.85765C0.141469 5.59875 0.166144 5.34025 0.217509 5.08616C0.619882 3.16618 2.3569 2.37025 4.12445 3.35818C6.47223 4.66376 8.80559 6.00078 11.0959 7.40063C11.8384 7.83438 12.4807 8.41256 12.9824 9.09887C13.4841 9.78523 13.8343 10.5649 14.0113 11.389L12.3156 12.0139" fill="white"/>
<path d="M4.92183 2.23955C5.30746 1.94972 5.77234 1.77662 6.25855 1.74186C6.74471 1.70709 7.2307 1.8122 7.6558 2.04406C8.54319 2.50312 9.37306 3.04072 10.2263 3.55213C11.6274 4.39579 13.0255 5.24404 14.4207 6.097C15.9493 7.03256 16.7864 8.20376 17.2103 9.86892C17.2317 9.95358 17.2208 10.0429 17.1795 10.1203C17.1382 10.1977 17.0693 10.2578 16.9858 10.2896L15.5847 10.8132C15.344 9.82005 15.0925 9.06776 14.5069 8.28231C13.6518 7.17394 12.4807 6.50194 11.3167 5.80376C9.7 4.84376 8.10848 3.8698 6.48822 2.93075C6.0068 2.64973 5.46615 2.48741 4.92183 2.23955Z" fill="white"/>
<path d="M8.8288 0.892085C9.21487 0.602375 9.68016 0.429513 10.1666 0.395059C10.6532 0.360605 11.1393 0.466085 11.5646 0.69834C12.4483 1.14343 12.601 1.35987 13.4524 1.87128C14.8524 2.71259 16.2499 3.5603 17.645 4.41442C19.1736 5.35173 20.0125 6.52817 20.4346 8.18809C20.4557 8.27292 20.4442 8.36233 20.4022 8.43953C20.3602 8.51668 20.2906 8.57624 20.2065 8.607L18.809 9.13064C18.5665 8.13573 18.315 7.38518 17.7204 6.59624C16.8852 5.49835 15.7122 4.81588 14.5446 4.12118C12.9279 3.16816 12.0154 2.51711 10.3934 1.58328C9.91555 1.29878 9.37307 1.12598 8.8288 0.892085Z" fill="white"/>
<path d="M37.302 12.8851V13.1941C37.302 15.7721 35.5775 17.8352 32.7394 17.8352C31.4889 17.8117 30.2978 17.3124 29.422 16.4447C28.5463 15.5771 28.0557 14.4102 28.0557 13.1949C28.0557 11.9796 28.5463 10.8128 29.422 9.94511C30.2978 9.07745 31.4889 8.5782 32.7394 8.55464C33.6002 8.53967 34.4465 8.77116 35.1729 9.22027C35.8992 9.66937 36.4735 10.3163 36.8242 11.0803C36.8511 11.1589 36.8781 11.2357 36.7721 11.2357L35.6314 11.391C35.5948 11.4066 35.554 11.4099 35.5153 11.4004C35.4766 11.391 35.4422 11.3692 35.4177 11.3386C35.1495 10.893 34.7665 10.5231 34.3062 10.2653C33.846 10.0076 33.3245 9.87097 32.7933 9.86897C30.8299 9.86897 29.5294 11.4399 29.5294 13.1941C29.5294 14.9482 30.776 16.5104 32.7933 16.5104C34.8878 16.5104 35.7626 14.9901 35.7626 13.9586C35.7626 13.8818 35.7374 13.8311 35.6314 13.8311H32.9783C32.9467 13.8341 32.9152 13.825 32.8904 13.8058C32.8656 13.7866 32.8494 13.7588 32.8454 13.7282V12.8764C32.8423 12.8457 32.8517 12.8151 32.8714 12.7909C32.8912 12.7669 32.9199 12.7511 32.9513 12.7472H37.1421C37.2481 12.7228 37.302 12.7734 37.302 12.8764V12.8851Z" fill="white"/>
<path d="M47.2766 16.5977V17.645C47.2797 17.676 47.2699 17.7068 47.2497 17.731C47.2296 17.7551 47.2006 17.7707 47.1688 17.7742H41.7045C41.6731 17.7771 41.6418 17.768 41.6172 17.7487C41.5927 17.7295 41.5769 17.7016 41.5733 17.6712V8.71001C41.5703 8.67933 41.5796 8.6487 41.5994 8.62461C41.6192 8.60048 41.6478 8.58481 41.6793 8.58089H47.0106C47.0423 8.57788 47.0736 8.587 47.0986 8.6062C47.1232 8.62544 47.1398 8.65328 47.1438 8.68387V9.76601C47.1465 9.79673 47.1375 9.82736 47.1174 9.85145C47.0978 9.87558 47.0691 9.89124 47.0379 9.89521H43.2169C43.1853 9.8922 43.1538 9.90132 43.129 9.92052C43.1042 9.93977 43.088 9.96761 43.084 9.9982V12.4994C43.0809 12.5301 43.0903 12.5607 43.1101 12.5848C43.1299 12.609 43.1585 12.6246 43.19 12.6286H45.949C45.9807 12.6256 46.0124 12.6347 46.037 12.6539C46.062 12.6731 46.0781 12.701 46.0822 12.7315V13.8137C46.0853 13.8444 46.0759 13.8751 46.0558 13.8992C46.0361 13.9233 46.0075 13.939 45.9762 13.9429H43.2169C43.1853 13.9399 43.1538 13.949 43.129 13.9682C43.1042 13.9875 43.088 14.0153 43.084 14.0459V16.3394C43.0809 16.3701 43.0903 16.4007 43.1101 16.4248C43.1299 16.449 43.1585 16.4646 43.19 16.4686H47.142C47.1764 16.4706 47.2091 16.4849 47.2336 16.5087C47.2578 16.5325 47.2725 16.5642 47.2748 16.5977H47.2766Z" fill="white"/>
<path d="M60.0881 8.60677H60.8315C60.8632 8.6038 60.895 8.61288 60.9196 8.63212C60.9446 8.65132 60.9607 8.67921 60.9647 8.70975V17.6535C60.9678 17.6842 60.9585 17.7148 60.9383 17.7389C60.9187 17.763 60.8901 17.7787 60.8588 17.7826H59.5853C59.5531 17.7841 59.5222 17.7734 59.4981 17.7529C59.4744 17.7323 59.4597 17.7036 59.4574 17.6727V12.1047C59.4574 12.0017 59.3783 11.9511 59.2978 12.054L56.3802 16.5922C56.3266 16.6952 56.2475 16.6952 56.201 16.5922L53.2838 12.054C53.2298 11.9511 53.1238 12.0017 53.1238 12.1047V17.6465C53.1269 17.6772 53.1176 17.7078 53.0979 17.7319C53.0778 17.756 53.0492 17.7717 53.0179 17.7756H51.7336C51.7019 17.7786 51.6702 17.7695 51.6456 17.7503C51.6205 17.7311 51.6044 17.7032 51.6004 17.6727V8.73593C51.5968 8.70517 51.6062 8.67428 51.6259 8.65006C51.646 8.62588 51.6746 8.6103 51.7064 8.60677H52.4752C52.5092 8.60659 52.5427 8.61336 52.5735 8.62658C52.6044 8.6398 52.6321 8.65922 52.6549 8.68357L56.1827 14.2516C56.1876 14.2637 56.1952 14.2748 56.2046 14.284C56.214 14.2932 56.2256 14.3005 56.2381 14.3052C56.2506 14.31 56.2636 14.3122 56.277 14.3117C56.2904 14.3111 56.3038 14.3079 56.3159 14.3022C56.3297 14.3018 56.3427 14.2964 56.353 14.287C56.3628 14.2777 56.3686 14.265 56.3695 14.2516L59.8977 8.68357C59.9549 8.60677 60.009 8.58059 60.0881 8.60677Z" fill="white"/>
<path d="M65.766 17.6537V8.70997C65.7629 8.67925 65.7723 8.64862 65.7924 8.62453C65.812 8.6004 65.8407 8.58474 65.8719 8.58081H69.3729C71.0706 8.58081 72.1322 9.40641 72.1322 11.1065C72.1497 11.4623 72.0706 11.8164 71.9029 12.1331C71.7353 12.4499 71.4845 12.7182 71.1765 12.9113C71.0974 12.9619 71.0974 13.0143 71.1765 13.0666C71.6012 13.2543 71.9588 13.5601 72.2042 13.9453C72.4501 14.3306 72.5725 14.778 72.556 15.231C72.556 16.8804 71.5485 17.7828 69.612 17.7828H65.8719C65.8183 17.7567 65.766 17.7305 65.766 17.6537ZM69.2401 12.4994C70.3018 12.4994 70.7796 11.8797 70.7796 11.2095C70.7796 10.3367 70.0899 9.92132 69.3425 9.92132H67.3828C67.3511 9.91831 67.3198 9.92743 67.2948 9.94663C67.2702 9.96587 67.2541 9.99371 67.2501 10.0243V12.3702C67.2469 12.4011 67.2563 12.432 67.2764 12.4562C67.2965 12.4803 67.326 12.4958 67.3578 12.4994H69.2401ZM69.6388 16.4685C70.46 16.4685 71.2306 16.1596 71.2306 15.1542C71.2306 14.3548 70.5405 13.7875 69.6388 13.7875H67.4096C67.3783 13.7845 67.3466 13.7936 67.322 13.8128C67.297 13.8321 67.2809 13.8599 67.2769 13.8905V16.3341C67.2737 16.3648 67.2831 16.3954 67.3028 16.4196C67.3225 16.4436 67.3515 16.4594 67.3828 16.4633H69.6388V16.4685Z" fill="white"/>
<path d="M80.3808 8.60667H81.0133C81.0477 8.60218 81.0831 8.61016 81.1121 8.6291C81.1412 8.64808 81.1622 8.67671 81.1711 8.70966L85.1772 17.6534C85.204 17.7563 85.1772 17.8087 85.0712 17.8087H83.8871C83.8522 17.8133 83.8169 17.8054 83.7874 17.7865C83.7579 17.7675 83.7365 17.7388 83.7275 17.7057L82.9891 16.0563C82.9752 16.0262 82.9529 16.0006 82.9247 15.9823C82.8961 15.9641 82.863 15.954 82.8291 15.9533H78.5253C78.4904 15.9483 78.4547 15.9561 78.4252 15.9751C78.3957 15.9941 78.3742 16.023 78.3653 16.0563L77.6237 17.7057C77.6098 17.7358 77.587 17.7615 77.5589 17.7797C77.5307 17.7979 77.4976 17.808 77.4637 17.8087H76.2442C76.1378 17.8087 76.111 17.7563 76.1378 17.6534L80.1689 8.70966C80.2498 8.63286 80.2945 8.58049 80.3808 8.60667ZM79.1614 14.6372H82.1863C82.2922 14.6372 82.3172 14.5866 82.2922 14.4836L80.7795 11.0032C80.7795 10.9526 80.7259 10.9264 80.6736 10.9264C80.6217 10.9264 80.62 10.9526 80.5945 11.0032L79.0823 14.4836C79.0371 14.5866 79.0823 14.6372 79.1614 14.6372Z" fill="white"/>
<path d="M95.6076 8.60675H96.8543C96.886 8.60379 96.9173 8.61286 96.9423 8.63211C96.9669 8.65131 96.983 8.67915 96.9875 8.70973V17.6534C96.9902 17.6841 96.9808 17.7148 96.9611 17.7389C96.9414 17.763 96.9128 17.7787 96.8811 17.7826H95.6076C95.5763 17.7856 95.5445 17.7765 95.52 17.7573C95.4949 17.7381 95.4788 17.7102 95.4748 17.6796V14.1992C95.4779 14.1685 95.4685 14.1379 95.4489 14.1138C95.4288 14.0897 95.4002 14.074 95.3689 14.07H90.9659C90.9341 14.0671 90.9024 14.0764 90.8774 14.096C90.8528 14.1156 90.8367 14.1439 90.8331 14.1748V17.6534C90.8362 17.6841 90.8268 17.7148 90.8072 17.7389C90.7875 17.763 90.7585 17.7787 90.7272 17.7826H89.4554C89.4237 17.7856 89.3924 17.7765 89.3674 17.7573C89.3428 17.7381 89.3267 17.7102 89.3227 17.6796V8.73592C89.3195 8.70524 89.3289 8.67461 89.3486 8.65048C89.3683 8.62639 89.3969 8.61068 89.4286 8.60675H90.7021C90.7334 8.60379 90.7652 8.61286 90.7897 8.63211C90.8148 8.65131 90.8309 8.67915 90.8349 8.70973V12.6283C90.8318 12.6588 90.8412 12.6892 90.8613 12.7131C90.8809 12.7369 90.9095 12.7522 90.9408 12.7557H95.3438C95.3751 12.7591 95.4073 12.7502 95.4319 12.7309C95.4569 12.7116 95.473 12.6835 95.4766 12.6527V8.73592C95.4757 8.71868 95.4784 8.70144 95.4846 8.68534C95.4909 8.6692 95.5007 8.65454 95.5132 8.64232C95.5258 8.63014 95.541 8.62067 95.5575 8.61452C95.574 8.60841 95.5919 8.60575 95.6094 8.60675H95.6076Z" fill="white"/>
</svg>
