<svg id="svg" version="1.1" xmlns="http://www.w3.org/2000/svg" xmlns:xlink="http://www.w3.org/1999/xlink" width="400" height="86.34192932187202" viewBox="0, 0, 400,86.34192932187202"><g id="svgg"><path id="path0" d="M7.000 43.417 L 7.000 80.833 44.500 80.833 L 82.000 80.833 82.000 43.417 L 82.000 6.000 54.083 6.000 L 26.167 6.000 26.167 23.333 L 26.167 40.667 21.583 40.667 L 17.000 40.667 17.000 23.333 L 17.000 6.000 12.000 6.000 L 7.000 6.000 7.000 43.417 M52.262 16.905 C 52.455 17.098,52.500 17.889,52.500 21.071 L 52.500 25.000 50.833 25.000 C 49.833 25.000,49.167 25.067,49.167 25.167 C 49.167 25.259,48.722 25.333,48.167 25.333 C 47.389 25.333,47.167 25.389,47.167 25.583 C 47.167 25.769,46.972 25.833,46.417 25.833 C 46.004 25.833,45.667 25.908,45.667 26.000 C 45.667 26.092,45.479 26.167,45.250 26.167 C 45.021 26.167,44.833 26.242,44.833 26.333 C 44.833 26.425,44.683 26.500,44.500 26.500 C 44.315 26.500,44.167 26.611,44.167 26.750 C 44.167 26.887,44.054 27.000,43.917 27.000 C 43.779 27.000,43.667 27.075,43.667 27.167 C 43.667 27.258,43.553 27.333,43.415 27.333 C 43.072 27.333,42.167 28.222,42.167 28.560 C 42.167 28.710,42.092 28.833,42.000 28.833 C 41.908 28.833,41.833 29.021,41.833 29.250 C 41.833 29.479,41.758 29.667,41.667 29.667 C 41.564 29.667,41.500 30.472,41.500 31.750 C 41.500 33.028,41.564 33.833,41.667 33.833 C 41.758 33.833,41.833 33.983,41.833 34.167 C 41.833 34.350,41.908 34.500,42.000 34.500 C 42.092 34.500,42.167 34.612,42.167 34.750 C 42.167 34.887,42.263 35.000,42.380 35.000 C 42.497 35.000,42.701 35.150,42.833 35.333 C 42.965 35.517,43.199 35.667,43.352 35.667 C 43.506 35.667,43.674 35.779,43.727 35.917 C 43.780 36.054,43.975 36.167,44.161 36.167 C 44.348 36.167,44.500 36.242,44.500 36.333 C 44.500 36.425,44.688 36.500,44.917 36.500 C 45.146 36.500,45.333 36.575,45.333 36.667 C 45.333 36.758,45.596 36.833,45.917 36.833 C 46.237 36.833,46.500 36.908,46.500 37.000 C 46.500 37.092,46.725 37.167,47.000 37.167 C 47.333 37.167,47.500 37.250,47.500 37.417 C 47.500 37.591,47.676 37.667,48.083 37.667 C 48.404 37.667,48.667 37.742,48.667 37.833 C 48.667 37.926,49.111 38.000,49.667 38.000 C 50.222 38.000,50.667 38.074,50.667 38.167 C 50.667 38.258,51.004 38.333,51.417 38.333 C 51.972 38.333,52.167 38.398,52.167 38.583 C 52.167 38.775,52.380 38.833,53.083 38.833 C 53.587 38.833,54.000 38.908,54.000 39.000 C 54.000 39.093,54.444 39.167,55.000 39.167 C 55.556 39.167,56.000 39.241,56.000 39.333 C 56.000 39.425,56.329 39.500,56.732 39.500 C 57.229 39.500,57.495 39.580,57.560 39.750 C 57.624 39.915,57.885 40.000,58.328 40.000 C 58.698 40.000,59.000 40.075,59.000 40.167 C 59.000 40.258,59.262 40.333,59.583 40.333 C 59.904 40.333,60.167 40.408,60.167 40.500 C 60.167 40.592,60.504 40.667,60.917 40.667 C 61.329 40.667,61.667 40.742,61.667 40.833 C 61.667 40.925,61.929 41.000,62.250 41.000 C 62.657 41.000,62.833 41.075,62.833 41.250 C 62.833 41.406,62.991 41.500,63.250 41.500 C 63.479 41.500,63.667 41.575,63.667 41.667 C 63.667 41.758,63.929 41.833,64.250 41.833 C 64.571 41.833,64.833 41.908,64.833 42.000 C 64.833 42.092,64.983 42.167,65.167 42.167 C 65.352 42.167,65.500 42.278,65.500 42.417 C 65.500 42.566,65.653 42.667,65.880 42.667 C 66.089 42.667,66.368 42.817,66.500 43.000 C 66.632 43.183,66.911 43.333,67.120 43.333 C 67.329 43.333,67.500 43.408,67.500 43.500 C 67.500 43.592,67.650 43.667,67.833 43.667 C 68.017 43.667,68.167 43.747,68.167 43.845 C 68.167 44.039,68.577 44.500,68.750 44.500 C 68.889 44.500,69.333 44.944,69.333 45.083 C 69.333 45.220,69.777 45.667,69.912 45.667 C 70.085 45.667,70.833 46.473,70.833 46.659 C 70.833 46.755,70.946 46.833,71.083 46.833 C 71.222 46.833,71.333 46.981,71.333 47.167 C 71.333 47.350,71.408 47.500,71.500 47.500 C 71.592 47.500,71.667 47.612,71.667 47.750 C 71.667 47.887,71.742 48.000,71.833 48.000 C 71.925 48.000,72.000 48.150,72.000 48.333 C 72.000 48.517,72.075 48.667,72.167 48.667 C 72.258 48.667,72.333 48.929,72.333 49.250 C 72.333 49.657,72.409 49.833,72.583 49.833 C 72.758 49.833,72.833 50.009,72.833 50.417 C 72.833 50.737,72.908 51.000,73.000 51.000 C 73.092 51.000,73.167 51.413,73.167 51.917 C 73.167 52.421,73.242 52.833,73.333 52.833 C 73.433 52.833,73.500 53.472,73.500 54.417 C 73.500 55.361,73.433 56.000,73.333 56.000 C 73.242 56.000,73.167 56.413,73.167 56.917 C 73.167 57.421,73.092 57.833,73.000 57.833 C 72.908 57.833,72.833 58.163,72.833 58.566 C 72.833 59.063,72.753 59.328,72.583 59.394 C 72.446 59.446,72.333 59.642,72.333 59.828 C 72.333 60.014,72.258 60.167,72.167 60.167 C 72.075 60.167,72.000 60.354,72.000 60.583 C 72.000 60.813,71.925 61.000,71.833 61.000 C 71.742 61.000,71.667 61.150,71.667 61.333 C 71.667 61.517,71.592 61.667,71.500 61.667 C 71.408 61.667,71.333 61.854,71.333 62.083 C 71.333 62.313,71.253 62.500,71.155 62.500 C 70.885 62.500,70.500 62.941,70.500 63.250 C 70.500 63.519,70.126 64.000,69.917 64.000 C 69.778 64.000,69.333 64.444,69.333 64.583 C 69.333 64.720,68.890 65.167,68.754 65.167 C 68.582 65.167,67.833 65.973,67.833 66.159 C 67.833 66.255,67.662 66.333,67.453 66.333 C 67.245 66.333,66.965 66.483,66.833 66.667 C 66.701 66.850,66.422 67.000,66.213 67.000 C 65.987 67.000,65.833 67.101,65.833 67.250 C 65.833 67.387,65.700 67.500,65.537 67.500 C 65.374 67.500,65.132 67.650,65.000 67.833 C 64.844 68.050,64.569 68.167,64.213 68.167 C 63.913 68.167,63.667 68.242,63.667 68.333 C 63.667 68.425,63.479 68.500,63.250 68.500 C 62.991 68.500,62.833 68.594,62.833 68.750 C 62.833 68.925,62.657 69.000,62.250 69.000 C 61.929 69.000,61.667 69.075,61.667 69.167 C 61.667 69.258,61.404 69.333,61.083 69.333 C 60.762 69.333,60.500 69.408,60.500 69.500 C 60.500 69.592,60.163 69.667,59.750 69.667 C 59.194 69.667,59.000 69.731,59.000 69.917 C 59.000 70.109,58.787 70.167,58.083 70.167 C 57.579 70.167,57.167 70.242,57.167 70.333 C 57.167 70.440,55.528 70.500,52.583 70.500 C 49.639 70.500,48.000 70.440,48.000 70.333 C 48.000 70.241,47.556 70.167,47.000 70.167 C 46.222 70.167,46.000 70.111,46.000 69.917 C 46.000 69.742,45.824 69.667,45.417 69.667 C 45.096 69.667,44.833 69.592,44.833 69.500 C 44.833 69.408,44.571 69.333,44.250 69.333 C 43.929 69.333,43.667 69.258,43.667 69.167 C 43.667 69.075,43.450 69.000,43.184 69.000 C 42.910 69.000,42.661 68.893,42.606 68.750 C 42.554 68.612,42.358 68.500,42.172 68.500 C 41.986 68.500,41.833 68.425,41.833 68.333 C 41.833 68.242,41.646 68.167,41.417 68.167 C 41.188 68.167,41.000 68.092,41.000 68.000 C 41.000 67.908,40.850 67.833,40.667 67.833 C 40.483 67.833,40.333 67.758,40.333 67.667 C 40.333 67.575,40.146 67.500,39.917 67.500 C 39.657 67.500,39.500 67.406,39.500 67.250 C 39.500 67.111,39.352 67.000,39.167 67.000 C 38.983 67.000,38.833 66.925,38.833 66.833 C 38.833 66.742,38.721 66.667,38.583 66.667 C 38.446 66.667,38.333 66.592,38.333 66.500 C 38.333 66.408,38.183 66.333,38.000 66.333 C 37.815 66.333,37.667 66.222,37.667 66.083 C 37.667 65.946,37.589 65.833,37.494 65.833 C 37.270 65.833,36.167 64.730,36.167 64.506 C 36.167 64.411,36.088 64.333,35.992 64.333 C 35.766 64.333,35.000 63.567,35.000 63.341 C 35.000 63.245,34.920 63.167,34.821 63.167 C 34.539 63.167,34.167 62.720,34.167 62.382 C 34.167 62.212,34.017 61.965,33.833 61.833 C 33.650 61.701,33.500 61.460,33.500 61.297 C 33.500 61.133,33.387 61.000,33.250 61.000 C 33.094 61.000,33.000 60.843,33.000 60.583 C 33.000 60.354,32.925 60.167,32.833 60.167 C 32.742 60.167,32.667 59.979,32.667 59.750 C 32.667 59.521,32.592 59.333,32.500 59.333 C 32.408 59.333,32.333 59.183,32.333 59.000 C 32.333 58.815,32.222 58.667,32.083 58.667 C 31.909 58.667,31.833 58.491,31.833 58.083 C 31.833 57.762,31.758 57.500,31.667 57.500 C 31.575 57.500,31.500 57.087,31.500 56.583 C 31.500 56.079,31.425 55.667,31.333 55.667 C 31.238 55.667,31.167 55.167,31.167 54.500 L 31.167 53.333 35.512 53.333 C 40.567 53.333,40.333 53.257,40.333 54.905 C 40.333 55.524,40.406 56.000,40.500 56.000 C 40.592 56.000,40.667 56.150,40.667 56.333 C 40.667 56.517,40.742 56.667,40.833 56.667 C 40.925 56.667,41.000 56.854,41.000 57.083 C 41.000 57.343,41.094 57.500,41.250 57.500 C 41.391 57.500,41.500 57.649,41.500 57.841 C 41.500 58.151,42.175 59.000,42.421 59.000 C 42.557 59.000,43.000 59.447,43.000 59.583 C 43.000 59.793,43.481 60.167,43.750 60.167 C 44.059 60.167,44.500 60.551,44.500 60.821 C 44.500 60.920,44.688 61.000,44.917 61.000 C 45.146 61.000,45.333 61.075,45.333 61.167 C 45.333 61.258,45.596 61.333,45.917 61.333 C 46.237 61.333,46.500 61.408,46.500 61.500 C 46.500 61.592,46.725 61.667,47.000 61.667 C 47.275 61.667,47.500 61.742,47.500 61.833 C 47.500 61.925,47.875 62.000,48.333 62.000 C 48.963 62.000,49.167 62.061,49.167 62.250 C 49.167 62.463,49.630 62.500,52.339 62.500 C 55.004 62.500,55.526 62.460,55.606 62.250 C 55.678 62.064,55.974 62.000,56.768 62.000 C 57.367 62.000,57.833 61.927,57.833 61.833 C 57.833 61.742,58.096 61.667,58.417 61.667 C 58.737 61.667,59.000 61.592,59.000 61.500 C 59.000 61.408,59.262 61.333,59.583 61.333 C 59.904 61.333,60.167 61.258,60.167 61.167 C 60.167 61.075,60.319 61.000,60.505 61.000 C 60.691 61.000,60.887 60.887,60.940 60.750 C 60.992 60.612,61.161 60.500,61.314 60.500 C 61.468 60.500,61.701 60.350,61.833 60.167 C 61.965 59.983,62.170 59.833,62.287 59.833 C 62.404 59.833,62.500 59.755,62.500 59.659 C 62.500 59.433,63.266 58.667,63.492 58.667 C 63.588 58.667,63.667 58.479,63.667 58.250 C 63.667 58.021,63.742 57.833,63.833 57.833 C 63.925 57.833,64.000 57.683,64.000 57.500 C 64.000 57.317,64.075 57.167,64.167 57.167 C 64.269 57.167,64.333 56.333,64.333 55.000 C 64.333 53.667,64.269 52.833,64.167 52.833 C 64.075 52.833,64.000 52.683,64.000 52.500 C 64.000 52.317,63.925 52.167,63.833 52.167 C 63.742 52.167,63.667 51.979,63.667 51.750 C 63.667 51.491,63.572 51.333,63.417 51.333 C 63.279 51.333,63.167 51.258,63.167 51.167 C 63.167 51.075,63.017 51.000,62.833 51.000 C 62.650 51.000,62.500 50.925,62.500 50.833 C 62.500 50.742,62.387 50.667,62.250 50.667 C 62.112 50.667,62.000 50.554,62.000 50.417 C 62.000 50.278,61.852 50.167,61.667 50.167 C 61.483 50.167,61.333 50.092,61.333 50.000 C 61.333 49.908,61.146 49.833,60.917 49.833 C 60.688 49.833,60.500 49.758,60.500 49.667 C 60.500 49.575,60.350 49.500,60.167 49.500 C 59.983 49.500,59.833 49.425,59.833 49.333 C 59.833 49.242,59.646 49.167,59.417 49.167 C 59.157 49.167,59.000 49.072,59.000 48.917 C 59.000 48.731,58.806 48.667,58.250 48.667 C 57.837 48.667,57.500 48.592,57.500 48.500 C 57.500 48.408,57.237 48.333,56.917 48.333 C 56.596 48.333,56.333 48.258,56.333 48.167 C 56.333 48.075,55.996 48.000,55.583 48.000 C 55.028 48.000,54.833 47.935,54.833 47.750 C 54.833 47.556,54.611 47.500,53.833 47.500 C 53.278 47.500,52.833 47.426,52.833 47.333 C 52.833 47.242,52.496 47.167,52.083 47.167 C 51.671 47.167,51.333 47.092,51.333 47.000 C 51.333 46.908,50.929 46.833,50.434 46.833 C 49.789 46.833,49.509 46.763,49.440 46.583 C 49.370 46.403,49.088 46.333,48.422 46.333 C 47.915 46.333,47.500 46.258,47.500 46.167 C 47.500 46.075,47.237 46.000,46.917 46.000 C 46.596 46.000,46.333 45.925,46.333 45.833 C 46.333 45.742,45.996 45.667,45.583 45.667 C 45.171 45.667,44.833 45.592,44.833 45.500 C 44.833 45.408,44.571 45.333,44.250 45.333 C 43.843 45.333,43.667 45.258,43.667 45.083 C 43.667 44.917,43.500 44.833,43.167 44.833 C 42.892 44.833,42.667 44.758,42.667 44.667 C 42.667 44.575,42.479 44.500,42.250 44.500 C 42.021 44.500,41.833 44.425,41.833 44.333 C 41.833 44.242,41.646 44.167,41.417 44.167 C 41.157 44.167,41.000 44.072,41.000 43.917 C 41.000 43.778,40.852 43.667,40.667 43.667 C 40.483 43.667,40.333 43.592,40.333 43.500 C 40.333 43.408,40.146 43.333,39.917 43.333 C 39.688 43.333,39.500 43.258,39.500 43.167 C 39.500 43.075,39.350 43.000,39.167 43.000 C 38.983 43.000,38.833 42.925,38.833 42.833 C 38.833 42.742,38.646 42.667,38.417 42.667 C 38.188 42.667,38.000 42.586,38.000 42.488 C 38.000 42.294,37.590 41.833,37.417 41.833 C 37.244 41.833,36.833 41.373,36.833 41.179 C 36.833 41.080,36.683 41.000,36.500 41.000 C 36.317 41.000,36.167 40.925,36.167 40.833 C 36.167 40.742,36.054 40.667,35.917 40.667 C 35.778 40.667,35.667 40.519,35.667 40.333 C 35.667 40.150,35.592 40.000,35.500 40.000 C 35.408 40.000,35.333 39.920,35.333 39.821 C 35.333 39.627,34.923 39.167,34.750 39.167 C 34.518 39.167,34.167 38.672,34.167 38.345 C 34.167 38.155,34.092 38.000,34.000 38.000 C 33.908 38.000,33.833 37.854,33.833 37.677 C 33.833 37.499,33.758 37.307,33.667 37.250 C 33.575 37.193,33.500 37.001,33.500 36.823 C 33.500 36.646,33.387 36.500,33.250 36.500 C 33.075 36.500,33.000 36.324,33.000 35.917 C 33.000 35.596,32.925 35.333,32.833 35.333 C 32.738 35.333,32.667 34.833,32.667 34.167 C 32.667 33.500,32.595 33.000,32.500 33.000 C 32.403 33.000,32.333 32.444,32.333 31.667 C 32.333 30.889,32.403 30.333,32.500 30.333 C 32.595 30.333,32.667 29.833,32.667 29.167 C 32.667 28.500,32.738 28.000,32.833 28.000 C 32.925 28.000,33.000 27.850,33.000 27.667 C 33.000 27.481,33.111 27.333,33.250 27.333 C 33.425 27.333,33.500 27.157,33.500 26.750 C 33.500 26.429,33.575 26.167,33.667 26.167 C 33.758 26.167,33.833 25.996,33.833 25.787 C 33.833 25.578,33.983 25.299,34.167 25.167 C 34.350 25.035,34.500 24.827,34.500 24.705 C 34.500 24.584,34.688 24.310,34.917 24.098 C 35.146 23.886,35.333 23.589,35.333 23.439 C 35.333 23.289,35.408 23.167,35.500 23.167 C 35.592 23.167,35.667 23.054,35.667 22.917 C 35.667 22.779,35.745 22.667,35.841 22.667 C 36.027 22.667,36.833 21.918,36.833 21.746 C 36.833 21.528,37.324 21.167,37.618 21.167 C 37.788 21.167,38.035 21.017,38.167 20.833 C 38.299 20.650,38.578 20.500,38.787 20.500 C 38.996 20.500,39.167 20.420,39.167 20.321 C 39.167 20.027,39.619 19.667,39.988 19.667 C 40.178 19.667,40.333 19.592,40.333 19.500 C 40.333 19.408,40.483 19.333,40.667 19.333 C 40.852 19.333,41.000 19.222,41.000 19.083 C 41.000 18.928,41.157 18.833,41.417 18.833 C 41.646 18.833,41.833 18.758,41.833 18.667 C 41.833 18.575,42.096 18.500,42.417 18.500 C 42.737 18.500,43.000 18.425,43.000 18.333 C 43.000 18.242,43.262 18.167,43.583 18.167 C 43.904 18.167,44.167 18.092,44.167 18.000 C 44.167 17.908,44.394 17.833,44.672 17.833 C 44.967 17.833,45.217 17.729,45.273 17.583 C 45.342 17.404,45.623 17.333,46.268 17.333 C 46.762 17.333,47.167 17.258,47.167 17.167 C 47.167 17.068,47.778 17.000,48.667 17.000 C 49.556 17.000,50.167 16.932,50.167 16.833 C 50.167 16.569,51.988 16.631,52.262 16.905 M341.500 25.931 C 341.500 26.750,341.865 26.922,341.974 26.154 C 342.006 25.932,342.099 25.668,342.181 25.568 C 342.368 25.340,342.205 25.167,341.806 25.167 C 341.554 25.167,341.500 25.301,341.500 25.931 M147.727 35.917 C 147.654 36.107,147.341 36.167,146.409 36.167 C 145.736 36.167,145.140 36.242,145.083 36.333 C 145.027 36.425,144.797 36.500,144.573 36.500 C 144.350 36.500,144.167 36.575,144.167 36.667 C 144.167 36.758,143.997 36.833,143.790 36.833 C 143.583 36.833,143.211 37.021,142.964 37.250 C 142.717 37.479,142.399 37.667,142.257 37.667 C 142.116 37.667,142.000 37.742,142.000 37.833 C 142.000 37.925,141.920 38.000,141.821 38.000 C 141.630 38.000,141.167 38.409,141.167 38.579 C 141.167 38.636,140.979 38.869,140.750 39.098 C 140.521 39.328,140.333 39.624,140.333 39.758 C 140.333 39.891,140.258 40.000,140.167 40.000 C 140.075 40.000,140.000 40.150,140.000 40.333 C 140.000 40.517,139.925 40.667,139.833 40.667 C 139.742 40.667,139.667 40.929,139.667 41.250 C 139.667 41.571,139.592 41.833,139.500 41.833 C 139.401 41.833,139.333 42.444,139.333 43.333 C 139.333 44.222,139.401 44.833,139.500 44.833 C 139.592 44.833,139.667 45.096,139.667 45.417 C 139.667 45.737,139.742 46.000,139.833 46.000 C 139.925 46.000,140.000 46.155,140.000 46.345 C 140.000 46.535,140.094 46.795,140.208 46.923 C 140.657 47.423,140.833 47.657,140.833 47.751 C 140.833 47.919,141.643 48.667,141.826 48.667 C 141.922 48.667,142.000 48.742,142.000 48.833 C 142.000 48.925,142.103 49.000,142.230 49.000 C 142.356 49.000,142.553 49.112,142.667 49.250 C 142.781 49.387,143.015 49.500,143.187 49.500 C 143.359 49.500,143.500 49.575,143.500 49.667 C 143.500 49.758,143.762 49.833,144.083 49.833 C 144.404 49.833,144.667 49.908,144.667 50.000 C 144.667 50.092,144.807 50.167,144.980 50.167 C 145.152 50.167,145.386 50.279,145.500 50.417 C 145.633 50.576,146.001 50.667,146.520 50.667 C 146.968 50.667,147.333 50.742,147.333 50.833 C 147.333 50.925,147.671 51.000,148.083 51.000 C 148.496 51.000,148.833 51.075,148.833 51.167 C 148.833 51.258,149.238 51.333,149.732 51.333 C 150.377 51.333,150.658 51.404,150.727 51.583 C 150.783 51.729,151.033 51.833,151.328 51.833 C 151.606 51.833,151.833 51.908,151.833 52.000 C 151.833 52.092,152.021 52.167,152.250 52.167 C 152.479 52.167,152.667 52.242,152.667 52.333 C 152.667 52.425,152.817 52.500,153.000 52.500 C 153.183 52.500,153.333 52.575,153.333 52.667 C 153.333 52.758,153.446 52.833,153.583 52.833 C 153.739 52.833,153.833 52.991,153.833 53.250 C 153.833 53.479,153.908 53.667,154.000 53.667 C 154.092 53.667,154.167 53.854,154.167 54.083 C 154.167 54.313,154.092 54.500,154.000 54.500 C 153.908 54.500,153.833 54.610,153.833 54.744 C 153.833 55.070,152.912 56.000,152.589 56.000 C 152.448 56.000,152.333 56.075,152.333 56.167 C 152.333 56.258,152.071 56.333,151.750 56.333 C 151.429 56.333,151.167 56.408,151.167 56.500 C 151.167 56.600,150.476 56.667,149.427 56.667 C 148.446 56.667,147.641 56.594,147.583 56.500 C 147.527 56.408,147.260 56.333,146.990 56.333 C 146.721 56.333,146.500 56.258,146.500 56.167 C 146.500 56.075,146.345 56.000,146.155 56.000 C 145.806 56.000,145.333 55.644,145.333 55.382 C 145.333 55.304,145.183 55.132,145.000 55.000 C 144.817 54.868,144.667 54.635,144.667 54.484 C 144.667 54.332,144.554 54.114,144.417 54.000 C 144.273 53.881,144.167 53.517,144.167 53.146 L 144.167 52.500 141.500 52.500 L 138.833 52.500 138.833 53.922 C 138.833 55.032,138.888 55.365,139.083 55.440 C 139.238 55.499,139.333 55.752,139.333 56.101 C 139.333 56.412,139.408 56.667,139.500 56.667 C 139.592 56.667,139.667 56.820,139.667 57.008 C 139.667 57.195,139.854 57.536,140.083 57.765 C 140.313 57.994,140.500 58.235,140.500 58.299 C 140.501 58.590,141.324 59.333,141.644 59.333 C 141.840 59.333,142.000 59.414,142.000 59.512 C 142.000 59.743,142.424 60.167,142.655 60.167 C 142.753 60.167,142.833 60.242,142.833 60.333 C 142.833 60.425,142.951 60.500,143.095 60.500 C 143.239 60.500,143.470 60.612,143.607 60.750 C 143.745 60.887,144.039 61.000,144.262 61.000 C 144.485 61.000,144.667 61.075,144.667 61.167 C 144.667 61.258,144.854 61.333,145.083 61.333 C 145.313 61.333,145.500 61.408,145.500 61.500 C 145.500 61.606,146.861 61.667,149.250 61.667 C 151.639 61.667,153.000 61.606,153.000 61.500 C 153.000 61.408,153.262 61.333,153.583 61.333 C 153.904 61.333,154.167 61.258,154.167 61.167 C 154.167 61.075,154.349 61.000,154.571 61.000 C 154.794 61.000,155.089 60.887,155.226 60.750 C 155.364 60.612,155.594 60.500,155.738 60.500 C 155.882 60.500,156.000 60.425,156.000 60.333 C 156.000 60.242,156.095 60.167,156.210 60.167 C 156.326 60.167,156.562 59.979,156.734 59.750 C 156.906 59.521,157.114 59.333,157.197 59.333 C 157.417 59.333,157.893 58.818,158.158 58.292 C 158.286 58.040,158.452 57.833,158.528 57.833 C 158.604 57.833,158.667 57.691,158.667 57.518 C 158.667 57.344,158.779 57.159,158.917 57.106 C 159.054 57.054,159.167 56.836,159.167 56.622 C 159.167 56.408,159.246 56.154,159.343 56.057 C 159.753 55.647,159.341 50.667,158.898 50.667 C 158.771 50.667,158.667 50.510,158.667 50.318 C 158.667 49.882,156.759 48.000,156.318 48.000 C 156.143 48.000,156.000 47.930,156.000 47.846 C 156.000 47.626,155.023 47.167,154.558 47.167 C 154.343 47.167,154.167 47.092,154.167 47.000 C 154.167 46.908,153.904 46.833,153.583 46.833 C 153.262 46.833,153.000 46.765,153.000 46.682 C 153.000 46.599,152.625 46.480,152.167 46.417 C 151.709 46.354,151.292 46.234,151.240 46.151 C 151.189 46.068,150.776 46.000,150.323 46.000 C 149.871 46.000,149.500 45.925,149.500 45.833 C 149.500 45.742,149.162 45.667,148.750 45.667 C 148.337 45.667,148.000 45.592,148.000 45.500 C 148.000 45.408,147.746 45.333,147.434 45.333 C 147.086 45.333,146.832 45.238,146.773 45.083 C 146.720 44.946,146.484 44.833,146.248 44.833 C 145.574 44.833,145.000 44.143,145.000 43.333 C 145.000 42.661,145.548 41.833,145.992 41.833 C 146.088 41.833,146.167 41.758,146.167 41.667 C 146.167 41.575,146.345 41.500,146.563 41.500 C 146.781 41.500,147.053 41.387,147.167 41.250 C 147.405 40.963,150.573 40.880,150.743 41.156 C 150.796 41.242,151.251 41.513,151.753 41.759 C 152.256 42.005,152.667 42.309,152.667 42.436 C 152.667 42.563,152.742 42.667,152.833 42.667 C 152.925 42.667,153.000 42.850,153.000 43.073 C 153.000 43.297,153.075 43.527,153.167 43.583 C 153.258 43.640,153.333 43.860,153.333 44.073 C 153.333 44.769,153.637 44.846,156.189 44.796 L 158.583 44.750 158.631 43.292 C 158.662 42.363,158.617 41.833,158.506 41.833 C 158.411 41.833,158.333 41.650,158.333 41.427 C 158.333 41.203,158.258 40.973,158.167 40.917 C 158.075 40.860,158.000 40.675,158.000 40.504 C 158.000 40.334,157.750 39.938,157.444 39.623 C 157.139 39.308,156.840 38.925,156.781 38.772 C 156.722 38.618,156.541 38.442,156.379 38.381 C 156.216 38.320,155.894 38.070,155.663 37.825 C 155.432 37.580,155.076 37.327,154.872 37.262 C 154.667 37.197,154.500 37.074,154.500 36.989 C 154.500 36.903,154.350 36.833,154.167 36.833 C 153.983 36.833,153.833 36.758,153.833 36.667 C 153.833 36.575,153.646 36.500,153.417 36.500 C 153.188 36.500,153.000 36.425,153.000 36.333 C 153.000 36.239,152.524 36.167,151.905 36.167 C 151.153 36.167,150.731 36.088,150.560 35.917 C 150.382 35.739,149.949 35.667,149.066 35.667 C 148.115 35.667,147.800 35.725,147.727 35.917 M181.774 35.917 C 181.599 36.091,181.172 36.167,180.355 36.167 C 179.712 36.167,179.140 36.242,179.083 36.333 C 179.027 36.425,178.797 36.500,178.573 36.500 C 178.350 36.500,178.167 36.575,178.167 36.667 C 178.167 36.758,177.969 36.833,177.727 36.833 C 177.473 36.833,177.126 37.009,176.902 37.250 C 176.690 37.479,176.400 37.667,176.258 37.667 C 176.116 37.667,176.000 37.742,176.000 37.833 C 176.000 37.925,175.887 38.000,175.750 38.000 C 175.612 38.000,175.500 38.075,175.500 38.167 C 175.500 38.258,175.404 38.333,175.287 38.333 C 175.170 38.333,174.959 38.465,174.819 38.625 C 174.679 38.785,174.363 39.066,174.116 39.248 C 173.869 39.430,173.667 39.674,173.667 39.790 C 173.667 39.905,173.592 40.000,173.500 40.000 C 173.408 40.000,173.333 40.150,173.333 40.333 C 173.333 40.517,173.234 40.667,173.111 40.667 C 172.989 40.667,172.789 40.854,172.667 41.083 C 172.544 41.313,172.381 41.500,172.305 41.500 C 172.229 41.500,172.167 41.646,172.167 41.823 C 172.167 42.001,172.096 42.190,172.011 42.243 C 171.755 42.402,171.333 43.355,171.333 43.776 C 171.333 43.991,171.258 44.167,171.167 44.167 C 171.075 44.167,171.000 44.429,171.000 44.750 C 171.000 45.071,170.925 45.333,170.833 45.333 C 170.727 45.333,170.667 46.639,170.667 48.917 C 170.667 51.194,170.727 52.500,170.833 52.500 C 170.925 52.500,171.000 52.762,171.000 53.083 C 171.000 53.404,171.075 53.667,171.167 53.667 C 171.258 53.667,171.333 53.848,171.333 54.070 C 171.333 54.496,171.830 55.497,172.042 55.499 C 172.110 55.500,172.167 55.636,172.167 55.802 C 172.167 55.968,172.317 56.265,172.500 56.462 C 172.683 56.658,172.833 56.898,172.833 56.993 C 172.833 57.089,172.946 57.167,173.083 57.167 C 173.221 57.167,173.333 57.300,173.333 57.463 C 173.333 57.626,173.483 57.868,173.667 58.000 C 173.850 58.132,174.000 58.324,174.000 58.425 C 174.000 58.527,174.188 58.711,174.417 58.833 C 174.646 58.956,174.833 59.119,174.833 59.195 C 174.833 59.271,174.983 59.333,175.167 59.333 C 175.352 59.333,175.500 59.444,175.500 59.583 C 175.500 59.721,175.612 59.833,175.750 59.833 C 175.887 59.833,176.000 59.908,176.000 60.000 C 176.000 60.092,176.150 60.167,176.333 60.167 C 176.517 60.167,176.667 60.242,176.667 60.333 C 176.667 60.425,176.779 60.500,176.917 60.500 C 177.054 60.500,177.167 60.570,177.167 60.655 C 177.167 60.741,177.335 60.858,177.542 60.916 C 177.944 61.029,178.572 61.281,179.039 61.519 C 179.450 61.728,185.833 61.710,185.833 61.500 C 185.833 61.408,186.009 61.333,186.224 61.333 C 186.681 61.333,187.610 60.898,188.073 60.467 C 188.251 60.302,188.495 60.167,188.615 60.167 C 188.735 60.167,188.833 60.092,188.833 60.000 C 188.833 59.310,189.323 59.962,189.366 60.708 L 189.417 61.583 191.719 61.630 C 194.959 61.695,194.654 62.437,194.661 54.466 C 194.665 49.915,194.610 47.891,194.473 47.591 L 194.280 47.167 188.557 47.167 L 182.833 47.167 182.833 49.667 L 182.833 52.167 185.917 52.167 L 189.000 52.167 189.000 52.543 C 189.000 52.751,188.813 53.122,188.583 53.369 C 188.354 53.617,188.167 53.940,188.167 54.088 C 188.167 54.351,187.792 54.833,187.588 54.833 C 187.475 54.833,187.187 55.060,186.583 55.625 C 186.362 55.831,186.028 56.000,185.841 56.000 C 185.653 56.000,185.500 56.075,185.500 56.167 C 185.500 56.258,185.317 56.333,185.093 56.333 C 184.869 56.333,184.640 56.408,184.583 56.500 C 184.526 56.593,183.748 56.667,182.823 56.667 C 181.830 56.667,181.167 56.600,181.167 56.500 C 181.167 56.408,180.942 56.333,180.667 56.333 C 180.392 56.333,180.167 56.258,180.167 56.167 C 180.167 56.075,180.011 56.000,179.821 56.000 C 179.452 56.000,179.000 55.639,179.000 55.345 C 179.000 55.247,178.944 55.167,178.875 55.166 C 178.706 55.166,177.833 54.407,177.833 54.260 C 177.833 54.079,177.379 53.667,177.179 53.667 C 177.080 53.667,177.000 53.521,177.000 53.343 C 177.000 53.165,176.925 52.973,176.833 52.917 C 176.742 52.860,176.667 52.668,176.667 52.490 C 176.667 52.312,176.592 52.167,176.500 52.167 C 176.408 52.167,176.333 51.871,176.333 51.510 C 176.333 51.149,176.258 50.807,176.167 50.750 C 176.073 50.692,176.000 49.890,176.000 48.917 C 176.000 47.943,176.073 47.141,176.167 47.083 C 176.258 47.027,176.333 46.685,176.333 46.323 C 176.333 45.962,176.408 45.667,176.500 45.667 C 176.592 45.667,176.667 45.479,176.667 45.250 C 176.667 45.021,176.742 44.833,176.833 44.833 C 176.925 44.833,177.000 44.683,177.000 44.500 C 177.000 44.315,177.111 44.167,177.250 44.167 C 177.387 44.167,177.500 44.054,177.500 43.917 C 177.500 43.779,177.557 43.667,177.626 43.667 C 177.695 43.667,177.844 43.460,177.956 43.207 C 178.068 42.953,178.423 42.604,178.746 42.430 C 179.069 42.256,179.333 42.051,179.333 41.974 C 179.333 41.897,179.434 41.833,179.558 41.833 C 179.892 41.833,180.833 41.332,180.833 41.154 C 180.833 40.871,184.284 40.964,184.394 41.250 C 184.446 41.387,184.642 41.500,184.828 41.500 C 185.014 41.500,185.167 41.575,185.167 41.667 C 185.167 41.758,185.317 41.833,185.500 41.833 C 185.683 41.833,185.833 41.908,185.833 42.000 C 185.833 42.092,185.911 42.167,186.007 42.167 C 186.205 42.167,186.562 42.439,186.970 42.900 C 187.124 43.074,187.381 43.355,187.542 43.525 C 187.702 43.695,187.833 43.908,187.833 44.000 C 187.833 44.092,187.908 44.167,188.000 44.167 C 188.092 44.167,188.167 44.317,188.167 44.500 C 188.167 44.820,188.278 44.833,191.000 44.833 L 193.833 44.833 193.833 44.093 C 193.833 43.686,193.758 43.307,193.667 43.250 C 193.575 43.193,193.500 42.964,193.500 42.740 C 193.500 42.516,193.425 42.333,193.333 42.333 C 193.242 42.333,193.167 42.181,193.167 41.995 C 193.167 41.809,193.054 41.613,192.917 41.560 C 192.779 41.508,192.667 41.360,192.667 41.232 C 192.667 41.104,192.592 41.000,192.500 41.000 C 192.408 41.000,192.333 40.881,192.333 40.735 C 192.333 40.403,189.568 37.667,189.232 37.667 C 189.002 37.667,188.832 37.558,188.256 37.042 C 188.128 36.927,187.868 36.833,187.679 36.833 C 187.489 36.833,187.333 36.758,187.333 36.667 C 187.333 36.575,187.071 36.500,186.750 36.500 C 186.429 36.500,186.167 36.425,186.167 36.333 C 186.167 36.237,185.635 36.167,184.905 36.167 C 184.005 36.167,183.571 36.095,183.393 35.917 C 183.255 35.779,182.891 35.667,182.583 35.667 C 182.276 35.667,181.911 35.779,181.774 35.917 M255.894 35.917 C 255.821 36.105,255.516 36.167,254.649 36.167 C 253.994 36.167,253.500 36.238,253.500 36.333 C 253.500 36.425,253.237 36.500,252.917 36.500 C 252.596 36.500,252.333 36.575,252.333 36.667 C 252.333 36.758,252.218 36.833,252.077 36.833 C 251.841 36.833,251.027 37.276,250.833 37.510 C 250.787 37.565,250.506 37.716,250.208 37.846 C 249.910 37.975,249.667 38.119,249.666 38.166 C 249.666 38.238,249.355 38.640,248.670 39.451 C 248.576 39.562,248.500 39.731,248.500 39.826 C 248.500 39.922,248.425 40.000,248.333 40.000 C 248.242 40.000,248.167 40.225,248.167 40.500 C 248.167 40.775,248.092 41.000,248.000 41.000 C 247.908 41.000,247.833 41.369,247.833 41.819 C 247.833 42.296,247.752 42.666,247.639 42.704 C 247.532 42.739,247.444 43.023,247.444 43.333 C 247.444 43.644,247.532 43.927,247.639 43.963 C 247.752 44.001,247.833 44.371,247.833 44.847 C 247.833 45.298,247.908 45.667,248.000 45.667 C 248.092 45.667,248.167 45.902,248.167 46.189 C 248.167 46.484,248.299 46.828,248.470 46.980 C 248.637 47.129,248.910 47.484,249.076 47.770 C 249.243 48.055,249.628 48.387,249.933 48.506 C 250.237 48.626,250.524 48.823,250.571 48.945 C 250.618 49.067,250.771 49.167,250.911 49.167 C 251.052 49.167,251.167 49.242,251.167 49.333 C 251.167 49.425,251.279 49.500,251.417 49.500 C 251.554 49.500,251.667 49.575,251.667 49.667 C 251.667 49.758,251.892 49.833,252.167 49.833 C 252.442 49.833,252.667 49.908,252.667 50.000 C 252.667 50.092,252.921 50.167,253.232 50.167 C 253.581 50.167,253.834 50.262,253.894 50.417 C 253.957 50.581,254.217 50.667,254.652 50.667 C 255.016 50.667,255.360 50.742,255.417 50.833 C 255.473 50.925,255.853 51.000,256.260 51.000 C 256.667 51.000,257.000 51.075,257.000 51.167 C 257.000 51.258,257.404 51.333,257.899 51.333 C 258.544 51.333,258.825 51.404,258.894 51.583 C 258.950 51.729,259.199 51.833,259.495 51.833 C 259.773 51.833,260.000 51.908,260.000 52.000 C 260.000 52.092,260.151 52.167,260.336 52.167 C 260.762 52.167,261.269 52.458,261.864 53.047 C 262.402 53.580,262.556 54.833,262.083 54.833 C 261.946 54.833,261.833 54.890,261.833 54.958 C 261.832 55.419,260.566 56.333,259.929 56.333 C 259.704 56.333,259.473 56.408,259.417 56.500 C 259.358 56.595,258.526 56.667,257.490 56.667 C 256.386 56.667,255.667 56.601,255.667 56.500 C 255.667 56.408,255.442 56.333,255.167 56.333 C 254.892 56.333,254.667 56.258,254.667 56.167 C 254.667 56.075,254.511 56.000,254.321 56.000 C 253.952 56.000,253.500 55.639,253.500 55.345 C 253.500 55.247,253.425 55.167,253.333 55.167 C 253.242 55.167,253.167 55.052,253.167 54.911 C 253.167 54.771,253.054 54.613,252.917 54.560 C 252.767 54.503,252.667 54.251,252.667 53.932 C 252.667 53.639,252.573 53.198,252.458 52.951 L 252.250 52.503 249.625 52.501 L 247.000 52.500 247.000 53.740 C 247.000 54.422,247.075 55.027,247.167 55.083 C 247.258 55.140,247.333 55.444,247.333 55.760 C 247.333 56.159,247.410 56.333,247.583 56.333 C 247.739 56.333,247.833 56.491,247.833 56.750 C 247.833 56.979,247.908 57.167,248.000 57.167 C 248.092 57.167,248.167 57.317,248.167 57.500 C 248.167 57.683,248.229 57.833,248.305 57.833 C 248.381 57.833,248.544 58.021,248.667 58.250 C 248.789 58.479,248.955 58.667,249.036 58.667 C 249.241 58.667,250.000 59.448,250.000 59.659 C 250.000 59.755,250.112 59.833,250.250 59.833 C 250.387 59.833,250.500 59.908,250.500 60.000 C 250.500 60.092,250.650 60.167,250.833 60.167 C 251.017 60.167,251.167 60.242,251.167 60.333 C 251.167 60.425,251.247 60.500,251.345 60.500 C 251.443 60.500,251.636 60.612,251.774 60.750 C 251.911 60.887,252.164 61.000,252.335 61.000 C 252.507 61.000,252.693 61.075,252.750 61.167 C 252.807 61.258,253.074 61.333,253.343 61.333 C 253.613 61.333,253.833 61.408,253.833 61.500 C 253.833 61.606,255.191 61.667,257.573 61.667 C 259.887 61.667,261.353 61.603,261.417 61.500 C 261.473 61.408,261.698 61.333,261.917 61.333 C 262.135 61.333,262.360 61.258,262.417 61.167 C 262.473 61.075,262.668 61.000,262.848 61.000 C 263.029 61.000,263.220 60.887,263.273 60.750 C 263.326 60.612,263.548 60.500,263.768 60.500 C 263.987 60.500,264.167 60.425,264.167 60.333 C 264.167 60.242,264.269 60.167,264.394 60.167 C 264.716 60.167,266.500 58.468,266.500 58.162 C 266.500 58.022,266.650 57.799,266.833 57.667 C 267.050 57.510,267.167 57.235,267.167 56.880 C 267.167 56.505,267.245 56.333,267.417 56.333 C 267.610 56.333,267.667 56.115,267.667 55.367 C 267.667 54.835,267.749 54.318,267.849 54.218 C 267.980 54.086,267.980 53.942,267.849 53.696 C 267.749 53.508,267.667 52.935,267.667 52.422 C 267.667 51.747,267.598 51.463,267.417 51.394 C 267.274 51.339,267.167 51.090,267.167 50.816 C 267.167 50.550,267.092 50.333,267.000 50.333 C 266.908 50.333,266.833 50.255,266.833 50.159 C 266.833 49.933,266.067 49.167,265.841 49.167 C 265.745 49.167,265.667 49.088,265.667 48.992 C 265.667 48.689,264.862 48.000,264.508 48.000 C 264.316 48.000,264.167 47.891,264.167 47.750 C 264.167 47.594,264.009 47.500,263.750 47.500 C 263.521 47.500,263.333 47.425,263.333 47.333 C 263.333 47.242,263.108 47.167,262.833 47.167 C 262.558 47.167,262.333 47.092,262.333 47.000 C 262.333 46.908,262.071 46.833,261.750 46.833 C 261.429 46.833,261.167 46.765,261.167 46.682 C 261.167 46.599,260.792 46.480,260.333 46.417 C 259.875 46.354,259.500 46.234,259.500 46.151 C 259.500 46.068,259.162 46.000,258.750 46.000 C 258.337 46.000,258.000 45.925,258.000 45.833 C 258.000 45.742,257.587 45.667,257.083 45.667 C 256.579 45.667,256.167 45.592,256.167 45.500 C 256.167 45.408,255.912 45.333,255.601 45.333 C 255.252 45.333,254.999 45.238,254.940 45.083 C 254.887 44.946,254.728 44.833,254.586 44.833 C 254.309 44.833,253.729 44.538,253.381 44.220 C 252.804 43.692,253.456 41.833,254.218 41.833 C 254.362 41.833,254.527 41.758,254.583 41.667 C 254.640 41.575,254.832 41.500,255.010 41.500 C 255.188 41.500,255.333 41.387,255.333 41.250 C 255.333 41.052,255.574 41.000,256.500 41.000 L 257.667 41.000 257.667 38.333 L 257.667 35.667 256.828 35.667 C 256.236 35.667,255.961 35.740,255.894 35.917 M279.894 35.917 C 279.822 36.102,279.527 36.167,278.742 36.167 C 278.161 36.167,277.640 36.242,277.583 36.333 C 277.527 36.425,277.335 36.500,277.157 36.500 C 276.979 36.500,276.833 36.575,276.833 36.667 C 276.833 36.758,276.614 36.833,276.345 36.833 C 276.024 36.833,275.746 36.975,275.530 37.250 C 275.350 37.479,275.061 37.667,274.888 37.667 C 274.715 37.667,274.465 37.817,274.333 38.000 C 274.201 38.183,274.002 38.333,273.891 38.333 C 273.608 38.333,271.833 40.081,271.833 40.359 C 271.833 40.485,271.646 40.728,271.417 40.900 C 271.188 41.073,271.000 41.353,271.000 41.523 C 271.000 41.694,270.944 41.834,270.875 41.835 C 270.709 41.836,270.333 42.658,270.333 43.019 C 270.333 43.177,270.277 43.331,270.208 43.361 C 269.960 43.472,269.500 44.538,269.500 45.004 C 269.500 45.266,269.425 45.527,269.333 45.583 C 269.232 45.646,269.167 46.915,269.167 48.833 C 269.167 50.752,269.232 52.021,269.333 52.083 C 269.425 52.140,269.502 52.426,269.505 52.718 C 269.508 53.011,269.621 53.396,269.755 53.574 C 269.890 53.751,270.000 54.033,270.000 54.199 C 270.000 54.364,270.075 54.500,270.167 54.500 C 270.258 54.500,270.333 54.650,270.333 54.833 C 270.333 55.017,270.408 55.167,270.500 55.167 C 270.592 55.167,270.667 55.354,270.667 55.583 C 270.667 55.813,270.742 56.000,270.833 56.000 C 270.925 56.000,271.000 56.115,271.000 56.255 C 271.000 56.396,271.112 56.554,271.250 56.606 C 271.387 56.659,271.500 56.790,271.500 56.898 C 271.500 57.005,271.650 57.201,271.833 57.333 C 272.017 57.465,272.167 57.672,272.167 57.792 C 272.167 57.912,272.279 58.054,272.417 58.106 C 272.554 58.159,272.668 58.288,272.669 58.393 C 272.671 58.596,273.713 59.333,273.998 59.333 C 274.091 59.333,274.167 59.414,274.167 59.512 C 274.167 59.806,274.619 60.167,274.988 60.167 C 275.178 60.167,275.333 60.242,275.333 60.333 C 275.333 60.425,275.475 60.500,275.649 60.500 C 275.822 60.500,276.008 60.612,276.060 60.750 C 276.113 60.887,276.309 61.000,276.495 61.000 C 276.681 61.000,276.833 61.075,276.833 61.167 C 276.833 61.258,277.096 61.333,277.417 61.333 C 277.737 61.333,278.000 61.408,278.000 61.500 C 278.000 61.606,279.219 61.667,281.323 61.667 C 283.359 61.667,284.687 61.602,284.750 61.500 C 284.807 61.408,284.999 61.333,285.177 61.333 C 285.354 61.333,285.500 61.258,285.500 61.167 C 285.500 61.075,285.727 61.000,286.005 61.000 C 286.301 61.000,286.550 60.896,286.606 60.750 C 286.659 60.612,286.865 60.500,287.064 60.500 C 287.263 60.500,287.535 60.350,287.667 60.167 C 287.799 59.983,288.022 59.833,288.163 59.833 C 288.304 59.833,288.644 59.572,288.918 59.254 C 289.192 58.935,289.510 58.672,289.625 58.670 C 289.740 58.668,289.833 58.603,289.833 58.525 C 289.833 58.447,290.058 58.147,290.333 57.860 C 290.608 57.572,290.833 57.272,290.833 57.194 C 290.833 57.116,291.021 56.834,291.250 56.568 C 291.479 56.301,291.666 55.952,291.666 55.792 C 291.667 55.631,291.742 55.500,291.833 55.500 C 291.925 55.500,292.000 55.322,292.000 55.104 C 292.000 54.886,292.112 54.614,292.250 54.500 C 292.592 54.216,292.582 53.067,292.236 52.934 C 291.343 52.592,286.667 52.871,286.667 53.268 C 286.667 53.393,286.535 53.653,286.375 53.845 C 286.215 54.038,285.952 54.350,285.792 54.540 C 285.631 54.729,285.500 54.948,285.500 55.026 C 285.500 55.103,285.398 55.167,285.273 55.167 C 285.149 55.167,284.906 55.354,284.734 55.583 C 284.561 55.813,284.251 56.000,284.044 56.000 C 283.836 56.000,283.667 56.075,283.667 56.167 C 283.667 56.258,283.517 56.333,283.333 56.333 C 283.150 56.333,283.000 56.408,283.000 56.500 C 283.000 56.601,282.306 56.667,281.250 56.667 C 280.194 56.667,279.500 56.601,279.500 56.500 C 279.500 56.408,279.313 56.333,279.083 56.333 C 278.854 56.333,278.667 56.258,278.667 56.167 C 278.667 56.075,278.517 56.000,278.333 56.000 C 278.150 56.000,278.000 55.925,278.000 55.833 C 278.000 55.742,277.887 55.667,277.750 55.667 C 277.612 55.667,277.500 55.588,277.500 55.492 C 277.500 55.266,276.734 54.500,276.508 54.500 C 276.412 54.500,276.333 54.387,276.333 54.250 C 276.333 54.112,276.258 54.000,276.167 54.000 C 276.075 54.000,276.000 53.918,276.000 53.817 C 276.000 53.717,275.861 53.436,275.691 53.192 C 275.521 52.949,275.332 52.544,275.271 52.292 C 275.210 52.040,275.087 51.833,274.997 51.833 C 274.907 51.833,274.833 51.538,274.833 51.177 C 274.833 50.815,274.758 50.473,274.667 50.417 C 274.575 50.360,274.500 49.648,274.500 48.833 C 274.500 48.019,274.575 47.307,274.667 47.250 C 274.758 47.193,274.833 46.921,274.833 46.645 C 274.833 46.369,274.946 46.030,275.083 45.893 C 275.221 45.755,275.333 45.461,275.333 45.238 C 275.333 45.015,275.390 44.833,275.459 44.833 C 275.529 44.833,275.687 44.603,275.811 44.323 C 276.050 43.782,277.572 42.167,277.841 42.167 C 277.929 42.167,278.000 42.092,278.000 42.000 C 278.000 41.908,278.150 41.833,278.333 41.833 C 278.517 41.833,278.667 41.758,278.667 41.667 C 278.667 41.575,278.819 41.500,279.005 41.500 C 279.191 41.500,279.387 41.387,279.440 41.250 C 279.516 41.051,279.874 41.000,281.196 41.000 C 282.450 41.000,282.918 41.061,283.107 41.250 C 283.245 41.387,283.502 41.500,283.679 41.500 C 283.855 41.500,284.000 41.575,284.000 41.667 C 284.000 41.758,284.112 41.833,284.250 41.833 C 284.387 41.833,284.500 41.908,284.500 42.000 C 284.500 42.092,284.607 42.167,284.737 42.167 C 285.045 42.167,286.000 43.122,286.000 43.429 C 286.000 43.560,286.075 43.667,286.167 43.667 C 286.258 43.667,286.333 43.779,286.333 43.917 C 286.333 44.054,286.403 44.167,286.489 44.167 C 286.574 44.167,286.692 44.317,286.750 44.500 C 286.926 45.054,292.491 45.014,292.518 44.458 C 292.557 43.682,292.469 43.244,292.238 43.065 C 292.107 42.963,292.000 42.719,292.000 42.523 C 292.000 42.327,291.925 42.167,291.833 42.167 C 291.742 42.167,291.667 42.017,291.667 41.833 C 291.667 41.650,291.592 41.500,291.500 41.500 C 291.408 41.500,291.333 41.360,291.333 41.188 C 291.333 41.016,291.071 40.652,290.750 40.377 C 290.429 40.103,290.167 39.763,290.167 39.620 C 290.167 39.477,289.923 39.209,289.625 39.024 C 289.327 38.839,288.973 38.533,288.838 38.344 C 288.703 38.155,288.497 38.000,288.380 38.000 C 288.263 38.000,288.167 37.925,288.167 37.833 C 288.167 37.742,288.051 37.667,287.910 37.667 C 287.768 37.667,287.487 37.512,287.285 37.322 C 287.082 37.132,286.710 36.935,286.458 36.884 C 286.206 36.833,286.000 36.726,286.000 36.646 C 286.000 36.566,285.737 36.500,285.417 36.500 C 285.096 36.500,284.833 36.425,284.833 36.333 C 284.833 36.238,284.339 36.167,283.684 36.167 C 282.817 36.167,282.512 36.105,282.440 35.917 C 282.367 35.727,282.059 35.667,281.167 35.667 C 280.274 35.667,279.966 35.727,279.894 35.917 M380.735 35.895 C 380.651 36.114,380.377 36.167,379.316 36.167 C 378.550 36.167,378.000 36.236,378.000 36.333 C 378.000 36.425,377.817 36.500,377.593 36.500 C 377.369 36.500,377.140 36.575,377.083 36.667 C 377.027 36.758,376.797 36.833,376.573 36.833 C 376.350 36.833,376.167 36.903,376.167 36.989 C 376.167 37.074,375.998 37.197,375.792 37.263 C 375.585 37.328,375.295 37.520,375.147 37.691 C 374.999 37.861,374.774 38.002,374.647 38.005 C 374.384 38.011,373.833 38.395,373.833 38.572 C 373.833 38.720,373.395 39.167,373.250 39.167 C 373.094 39.167,372.667 39.619,372.667 39.785 C 372.667 39.863,372.517 40.035,372.333 40.167 C 372.150 40.299,372.000 40.540,372.000 40.703 C 372.000 40.867,371.887 41.000,371.750 41.000 C 371.613 41.000,371.500 41.112,371.500 41.250 C 371.500 41.387,371.425 41.500,371.333 41.500 C 371.242 41.500,371.167 41.650,371.167 41.833 C 371.167 42.017,371.092 42.167,371.000 42.167 C 370.908 42.167,370.833 42.319,370.833 42.505 C 370.833 42.691,370.721 42.887,370.583 42.940 C 370.446 42.992,370.333 43.215,370.333 43.434 C 370.333 43.654,370.258 43.833,370.167 43.833 C 370.075 43.833,370.000 44.054,370.000 44.323 C 370.000 44.593,369.925 44.860,369.833 44.917 C 369.742 44.973,369.667 45.450,369.667 45.977 C 369.667 46.503,369.586 47.014,369.487 47.113 C 369.245 47.355,369.241 50.307,369.482 50.548 C 369.583 50.650,369.667 51.206,369.667 51.783 C 369.667 52.372,369.740 52.833,369.833 52.833 C 369.925 52.833,370.000 53.096,370.000 53.417 C 370.000 53.737,370.075 54.000,370.167 54.000 C 370.258 54.000,370.333 54.188,370.333 54.417 C 370.333 54.676,370.428 54.833,370.583 54.833 C 370.722 54.833,370.833 54.981,370.833 55.167 C 370.833 55.350,370.908 55.500,371.000 55.500 C 371.092 55.500,371.167 55.670,371.167 55.877 C 371.167 56.085,371.354 56.395,371.583 56.567 C 371.813 56.739,372.000 56.994,372.000 57.133 C 372.000 57.398,374.432 59.833,374.696 59.833 C 374.779 59.833,375.008 59.983,375.205 60.167 C 375.402 60.350,375.667 60.500,375.793 60.500 C 375.920 60.500,376.136 60.612,376.274 60.750 C 376.411 60.887,376.706 61.000,376.929 61.000 C 377.151 61.000,377.333 61.075,377.333 61.167 C 377.333 61.258,377.479 61.333,377.657 61.333 C 377.835 61.333,378.027 61.408,378.083 61.500 C 378.146 61.602,379.474 61.667,381.510 61.667 C 383.614 61.667,384.833 61.606,384.833 61.500 C 384.833 61.408,385.021 61.333,385.250 61.333 C 385.479 61.333,385.667 61.267,385.667 61.185 C 385.667 61.104,385.913 60.991,386.214 60.934 C 386.515 60.878,386.869 60.682,387.001 60.499 C 387.132 60.316,387.369 60.167,387.527 60.167 C 387.685 60.167,387.860 60.092,387.917 60.000 C 388.151 59.621,388.319 59.885,388.366 60.708 L 388.417 61.583 390.570 61.630 C 392.181 61.665,392.758 61.623,392.859 61.464 C 392.934 61.346,392.996 58.081,392.997 54.208 L 393.000 47.167 387.417 47.167 L 381.833 47.167 381.833 49.667 L 381.833 52.167 384.917 52.167 C 387.858 52.167,388.000 52.182,388.000 52.490 C 388.000 52.668,387.925 52.860,387.833 52.917 C 387.742 52.973,387.667 53.165,387.667 53.343 C 387.667 53.521,387.554 53.667,387.417 53.667 C 387.279 53.667,387.167 53.727,387.167 53.801 C 387.167 54.014,386.058 55.167,385.853 55.167 C 385.750 55.167,385.667 55.247,385.667 55.345 C 385.667 55.639,385.214 56.000,384.845 56.000 C 384.655 56.000,384.500 56.075,384.500 56.167 C 384.500 56.258,384.275 56.333,384.000 56.333 C 383.725 56.333,383.500 56.408,383.500 56.500 C 383.500 56.600,382.809 56.667,381.760 56.667 C 380.780 56.667,379.975 56.594,379.917 56.500 C 379.860 56.408,379.668 56.333,379.490 56.333 C 379.312 56.333,379.167 56.258,379.167 56.167 C 379.167 56.075,378.997 56.000,378.790 56.000 C 378.582 56.000,378.272 55.813,378.100 55.583 C 377.927 55.354,377.685 55.167,377.560 55.167 C 377.435 55.167,377.333 55.092,377.333 55.000 C 377.333 54.908,377.221 54.833,377.083 54.833 C 376.944 54.833,376.833 54.685,376.833 54.500 C 376.833 54.317,376.758 54.167,376.667 54.167 C 376.575 54.167,376.500 54.054,376.500 53.917 C 376.500 53.779,376.425 53.667,376.333 53.667 C 376.242 53.667,376.167 53.552,376.167 53.411 C 376.167 53.271,376.054 53.113,375.917 53.060 C 375.779 53.008,375.667 52.827,375.667 52.659 C 375.667 52.491,375.592 52.307,375.500 52.250 C 375.408 52.193,375.333 51.931,375.333 51.667 C 375.333 51.402,375.258 51.140,375.167 51.083 C 375.069 51.023,375.000 50.082,375.000 48.823 C 375.000 47.497,375.064 46.667,375.167 46.667 C 375.258 46.667,375.333 46.367,375.333 46.000 C 375.333 45.633,375.408 45.333,375.500 45.333 C 375.592 45.333,375.668 45.202,375.670 45.042 C 375.671 44.881,375.859 44.573,376.086 44.358 C 376.314 44.142,376.500 43.855,376.500 43.721 C 376.500 43.450,376.891 43.000,377.127 43.000 C 377.209 43.000,377.377 42.813,377.500 42.583 C 377.623 42.354,377.860 42.167,378.028 42.167 C 378.196 42.167,378.333 42.092,378.333 42.000 C 378.333 41.908,378.446 41.833,378.583 41.833 C 378.721 41.833,378.833 41.758,378.833 41.667 C 378.833 41.575,378.983 41.500,379.167 41.500 C 379.352 41.500,379.500 41.389,379.500 41.250 C 379.500 41.042,379.822 41.000,381.399 41.000 C 382.933 41.000,383.316 41.048,383.394 41.250 C 383.446 41.387,383.642 41.500,383.828 41.500 C 384.014 41.500,384.167 41.575,384.167 41.667 C 384.167 41.758,384.305 41.833,384.474 41.833 C 384.851 41.833,386.833 43.734,386.833 44.096 C 386.833 44.748,387.206 44.833,390.060 44.833 C 392.624 44.833,392.818 44.812,392.912 44.514 C 393.034 44.130,392.856 43.333,392.649 43.333 C 392.567 43.333,392.500 43.183,392.500 43.000 C 392.500 42.817,392.425 42.667,392.333 42.667 C 392.242 42.667,392.167 42.479,392.167 42.250 C 392.167 42.021,392.092 41.833,392.000 41.833 C 391.908 41.833,391.833 41.717,391.833 41.575 C 391.833 41.433,391.646 41.144,391.417 40.931 C 391.188 40.719,391.000 40.422,391.000 40.273 C 391.000 40.123,390.925 40.000,390.833 40.000 C 390.742 40.000,390.667 39.887,390.667 39.750 C 390.667 39.612,390.600 39.500,390.519 39.500 C 390.437 39.500,390.028 39.162,389.610 38.750 C 389.191 38.337,388.733 38.000,388.591 38.000 C 388.449 38.000,388.333 37.937,388.333 37.860 C 388.333 37.782,388.071 37.578,387.750 37.405 C 387.429 37.232,387.167 37.033,387.167 36.962 C 387.167 36.891,386.904 36.833,386.583 36.833 C 386.262 36.833,386.000 36.758,386.000 36.667 C 386.000 36.575,385.854 36.500,385.677 36.500 C 385.499 36.500,385.307 36.425,385.250 36.333 C 385.193 36.242,384.558 36.167,383.837 36.167 C 383.034 36.167,382.504 36.096,382.467 35.984 C 382.358 35.658,380.856 35.581,380.735 35.895 M106.041 48.708 L 106.083 61.250 108.833 61.250 L 111.583 61.250 111.626 48.708 L 111.669 36.167 108.833 36.167 L 105.998 36.167 106.041 48.708 M115.167 48.883 C 115.167 58.293,115.215 61.315,115.367 61.467 C 115.504 61.604,116.330 61.667,118.000 61.667 C 119.670 61.667,120.496 61.604,120.633 61.467 C 120.783 61.317,120.839 59.276,120.856 53.425 C 120.869 49.112,120.911 45.752,120.951 45.958 C 120.991 46.165,121.093 46.333,121.178 46.333 C 121.264 46.333,121.333 46.446,121.333 46.583 C 121.333 46.721,121.408 46.833,121.500 46.833 C 121.592 46.833,121.667 46.983,121.667 47.167 C 121.667 47.350,121.742 47.500,121.833 47.500 C 121.925 47.500,122.000 47.652,122.000 47.839 C 122.000 48.025,122.112 48.220,122.250 48.273 C 122.388 48.326,122.500 48.511,122.500 48.684 C 122.500 48.858,122.575 49.000,122.667 49.000 C 122.758 49.000,122.833 49.112,122.833 49.250 C 122.833 49.387,122.908 49.500,123.000 49.500 C 123.092 49.500,123.167 49.650,123.167 49.833 C 123.167 50.019,123.278 50.167,123.417 50.167 C 123.572 50.167,123.667 50.324,123.667 50.583 C 123.667 50.813,123.742 51.000,123.833 51.000 C 123.925 51.000,124.000 51.150,124.000 51.333 C 124.000 51.517,124.075 51.667,124.167 51.667 C 124.258 51.667,124.333 51.779,124.333 51.917 C 124.333 52.054,124.408 52.167,124.500 52.167 C 124.592 52.167,124.667 52.317,124.667 52.500 C 124.667 52.685,124.778 52.833,124.917 52.833 C 125.072 52.833,125.167 52.991,125.167 53.250 C 125.167 53.479,125.228 53.667,125.302 53.667 C 125.377 53.667,125.541 53.929,125.667 54.250 C 125.793 54.571,125.994 54.833,126.114 54.833 C 126.235 54.833,126.333 54.983,126.333 55.167 C 126.333 55.350,126.408 55.500,126.500 55.500 C 126.592 55.500,126.667 55.688,126.667 55.917 C 126.667 56.146,126.742 56.333,126.833 56.333 C 126.925 56.333,127.000 56.428,127.000 56.543 C 127.000 56.659,127.188 56.956,127.417 57.203 C 127.646 57.450,127.833 57.768,127.833 57.909 C 127.833 58.051,127.908 58.167,128.000 58.167 C 128.092 58.167,128.167 58.320,128.167 58.507 C 128.167 58.695,128.354 59.050,128.583 59.297 C 128.813 59.544,129.000 59.841,129.000 59.957 C 129.000 60.072,129.075 60.167,129.167 60.167 C 129.258 60.167,129.336 60.298,129.339 60.458 C 129.345 60.819,129.721 61.333,129.977 61.333 C 130.081 61.333,130.167 61.410,130.167 61.504 C 130.167 61.615,131.190 61.659,133.125 61.629 L 136.083 61.583 136.126 49.042 L 136.169 36.500 133.334 36.500 L 130.500 36.500 130.500 44.167 C 130.500 51.333,130.413 52.790,130.068 51.417 C 130.011 51.188,129.897 51.000,129.815 51.000 C 129.734 51.000,129.667 50.890,129.667 50.756 C 129.667 50.463,128.842 48.940,128.641 48.861 C 128.564 48.831,128.500 48.699,128.500 48.569 C 128.500 48.440,128.425 48.333,128.333 48.333 C 128.242 48.333,128.167 48.209,128.167 48.057 C 128.167 47.786,127.389 46.636,127.132 46.528 C 127.059 46.497,127.000 46.291,127.000 46.069 C 127.000 45.848,126.925 45.667,126.833 45.667 C 126.742 45.667,126.667 45.552,126.667 45.411 C 126.667 45.175,126.224 44.360,125.990 44.167 C 125.935 44.121,125.784 43.840,125.654 43.542 C 125.525 43.244,125.362 43.000,125.293 43.000 C 125.223 43.000,125.167 42.848,125.167 42.661 C 125.167 42.475,125.054 42.280,124.917 42.227 C 124.779 42.174,124.667 41.989,124.667 41.816 C 124.667 41.642,124.592 41.500,124.500 41.500 C 124.408 41.500,124.333 41.387,124.333 41.250 C 124.333 41.112,124.258 41.000,124.167 41.000 C 124.075 41.000,124.000 40.850,124.000 40.667 C 124.000 40.483,123.926 40.333,123.837 40.333 C 123.747 40.333,123.626 40.146,123.568 39.917 C 123.511 39.688,123.397 39.500,123.315 39.500 C 123.234 39.500,123.167 39.350,123.167 39.167 C 123.167 38.983,123.092 38.833,123.000 38.833 C 122.908 38.833,122.833 38.721,122.833 38.583 C 122.833 38.446,122.758 38.333,122.667 38.333 C 122.575 38.333,122.500 38.183,122.500 38.000 C 122.500 37.815,122.389 37.667,122.250 37.667 C 122.108 37.667,122.000 37.517,122.000 37.321 C 122.000 36.561,121.728 36.500,118.345 36.500 L 115.167 36.500 115.167 48.883 M162.367 36.700 C 162.215 36.852,162.167 39.800,162.167 48.950 C 162.167 63.375,161.752 61.696,165.296 61.629 L 167.750 61.583 167.793 49.042 L 167.835 36.500 165.201 36.500 C 163.374 36.500,162.505 36.561,162.367 36.700 M197.707 49.042 L 197.750 61.583 200.333 61.583 L 202.917 61.583 202.961 56.458 L 203.005 51.333 207.711 51.333 L 212.417 51.333 212.370 56.125 C 212.335 59.616,212.377 61.018,212.523 61.292 C 212.787 61.786,217.713 61.888,217.899 61.403 C 217.954 61.258,218.000 55.594,218.000 48.816 L 218.000 36.492 215.208 36.538 L 212.417 36.583 212.372 41.292 L 212.328 46.000 207.664 46.000 L 203.000 46.000 203.000 41.250 L 203.000 36.500 200.332 36.500 L 197.665 36.500 197.707 49.042 M219.833 38.994 C 219.833 42.060,219.548 41.833,223.406 41.833 L 226.333 41.833 226.333 51.486 C 226.333 56.796,226.379 61.258,226.434 61.403 C 226.521 61.628,226.916 61.667,229.101 61.667 L 231.667 61.667 231.667 51.754 L 231.667 41.841 234.875 41.795 L 238.083 41.750 238.129 39.125 L 238.175 36.500 229.004 36.500 L 219.833 36.500 219.833 38.994 M300.500 36.750 C 300.500 36.887,300.425 37.000,300.333 37.000 C 300.242 37.000,300.167 37.292,300.167 37.649 C 300.167 38.072,300.080 38.331,299.917 38.394 C 299.779 38.446,299.667 38.637,299.667 38.818 C 299.667 38.999,299.592 39.193,299.500 39.250 C 299.408 39.307,299.333 39.607,299.333 39.917 C 299.333 40.227,299.258 40.527,299.167 40.583 C 299.075 40.640,299.000 40.837,299.000 41.022 C 299.000 41.206,298.887 41.470,298.750 41.607 C 298.612 41.745,298.500 42.039,298.500 42.262 C 298.500 42.485,298.425 42.667,298.333 42.667 C 298.242 42.667,298.167 42.887,298.167 43.157 C 298.167 43.426,298.092 43.693,298.000 43.750 C 297.908 43.807,297.833 44.074,297.833 44.343 C 297.833 44.613,297.758 44.833,297.667 44.833 C 297.575 44.833,297.500 45.050,297.500 45.316 C 297.500 45.590,297.393 45.839,297.250 45.894 C 297.093 45.954,297.000 46.209,297.000 46.578 C 297.000 46.902,296.925 47.167,296.833 47.167 C 296.742 47.167,296.667 47.354,296.667 47.583 C 296.667 47.813,296.592 48.000,296.500 48.000 C 296.408 48.000,296.333 48.230,296.333 48.512 C 296.333 48.793,296.221 49.136,296.083 49.274 C 295.946 49.411,295.833 49.706,295.833 49.929 C 295.833 50.151,295.758 50.333,295.667 50.333 C 295.575 50.333,295.500 50.558,295.500 50.833 C 295.500 51.108,295.425 51.333,295.333 51.333 C 295.242 51.333,295.167 51.596,295.167 51.917 C 295.167 52.237,295.100 52.500,295.019 52.500 C 294.937 52.500,294.821 52.762,294.761 53.083 C 294.701 53.404,294.580 53.667,294.492 53.667 C 294.405 53.667,294.333 53.929,294.333 54.250 C 294.333 54.571,294.258 54.833,294.167 54.833 C 294.075 54.833,294.000 55.021,294.000 55.250 C 294.000 55.479,293.925 55.667,293.833 55.667 C 293.742 55.667,293.667 55.920,293.667 56.230 C 293.667 56.539,293.554 56.886,293.417 57.000 C 293.279 57.114,293.167 57.344,293.167 57.511 C 293.167 57.677,293.092 57.860,293.000 57.917 C 292.908 57.973,292.833 58.236,292.833 58.500 C 292.833 58.764,292.758 59.027,292.667 59.083 C 292.575 59.140,292.500 59.407,292.500 59.677 C 292.500 59.946,292.430 60.167,292.345 60.167 C 292.109 60.167,291.973 60.751,292.095 61.236 L 292.203 61.667 294.831 61.667 C 297.714 61.667,297.644 61.690,298.013 60.583 C 298.135 60.217,298.294 59.845,298.367 59.758 C 298.440 59.671,298.502 59.409,298.505 59.175 C 298.508 58.941,298.621 58.604,298.755 58.426 C 298.890 58.249,299.000 57.967,299.000 57.801 C 299.000 57.636,299.075 57.500,299.167 57.500 C 299.258 57.500,299.333 57.313,299.333 57.083 L 299.333 56.667 303.917 56.667 L 308.500 56.667 308.500 57.250 C 308.500 57.571,308.575 57.833,308.667 57.833 C 308.758 57.833,308.833 58.088,308.833 58.399 C 308.833 58.748,308.929 59.001,309.083 59.060 C 309.229 59.116,309.333 59.366,309.333 59.661 C 309.333 59.939,309.408 60.167,309.500 60.167 C 309.592 60.167,309.667 60.402,309.667 60.690 C 309.667 61.564,309.961 61.655,312.792 61.661 L 315.333 61.667 315.333 60.583 C 315.333 59.972,315.261 59.500,315.167 59.500 C 315.075 59.500,315.000 59.313,315.000 59.083 C 315.000 58.854,314.925 58.667,314.833 58.667 C 314.742 58.667,314.667 58.404,314.667 58.083 C 314.667 57.676,314.591 57.500,314.417 57.500 C 314.242 57.500,314.167 57.324,314.167 56.917 C 314.167 56.596,314.092 56.333,314.000 56.333 C 313.908 56.333,313.833 56.071,313.833 55.750 C 313.833 55.429,313.758 55.167,313.667 55.167 C 313.575 55.167,313.500 54.988,313.500 54.770 C 313.500 54.552,313.387 54.281,313.250 54.167 C 313.112 54.053,313.000 53.743,313.000 53.480 C 313.000 53.216,312.925 53.000,312.833 53.000 C 312.742 53.000,312.667 52.813,312.667 52.583 C 312.667 52.354,312.592 52.167,312.500 52.167 C 312.408 52.167,312.332 51.960,312.331 51.708 C 312.328 51.109,311.919 49.945,311.684 49.867 C 311.583 49.833,311.500 49.549,311.500 49.236 C 311.500 48.923,311.425 48.667,311.333 48.667 C 311.242 48.667,311.167 48.446,311.167 48.177 C 311.167 47.907,311.092 47.640,311.000 47.583 C 310.908 47.527,310.833 47.260,310.833 46.990 C 310.833 46.666,310.749 46.500,310.583 46.500 C 310.409 46.500,310.333 46.324,310.333 45.917 C 310.333 45.596,310.258 45.333,310.167 45.333 C 310.075 45.333,310.000 45.113,310.000 44.843 C 310.000 44.574,309.925 44.307,309.833 44.250 C 309.742 44.193,309.667 43.931,309.667 43.667 C 309.667 43.402,309.592 43.140,309.500 43.083 C 309.408 43.027,309.333 42.844,309.333 42.677 C 309.333 42.511,309.221 42.281,309.083 42.167 C 308.946 42.053,308.833 41.706,308.833 41.396 C 308.833 41.087,308.758 40.833,308.667 40.833 C 308.575 40.833,308.500 40.646,308.500 40.417 C 308.500 40.188,308.425 40.000,308.333 40.000 C 308.242 40.000,308.167 39.746,308.167 39.434 C 308.167 39.086,308.071 38.832,307.917 38.773 C 307.771 38.717,307.667 38.467,307.667 38.172 C 307.667 37.894,307.592 37.667,307.500 37.667 C 307.408 37.667,307.333 37.404,307.333 37.083 L 307.333 36.500 303.917 36.500 C 300.991 36.500,300.500 36.536,300.500 36.750 M317.374 49.042 L 317.417 61.583 326.083 61.583 L 334.750 61.583 334.796 58.958 L 334.842 56.333 328.754 56.333 L 322.667 56.333 322.667 46.417 L 322.667 36.500 319.999 36.500 L 317.331 36.500 317.374 49.042 M336.874 49.042 L 336.917 61.583 339.466 61.629 C 341.520 61.666,342.062 61.628,342.258 61.433 C 342.465 61.225,342.500 59.426,342.500 48.845 L 342.500 36.500 339.666 36.500 L 336.831 36.500 336.874 49.042 M346.041 49.042 L 346.083 61.583 348.667 61.583 L 351.250 61.583 351.293 53.625 C 351.321 48.512,351.396 45.667,351.502 45.667 C 351.592 45.667,351.667 45.817,351.667 46.000 C 351.667 46.183,351.742 46.333,351.833 46.333 C 351.925 46.333,352.000 46.473,352.000 46.643 C 352.000 46.814,352.188 47.094,352.417 47.266 C 352.646 47.439,352.833 47.749,352.833 47.956 C 352.833 48.164,352.908 48.333,353.000 48.333 C 353.092 48.333,353.167 48.475,353.167 48.649 C 353.167 48.822,353.279 49.008,353.417 49.060 C 353.554 49.113,353.667 49.292,353.667 49.458 C 353.667 49.624,353.817 49.868,354.000 50.000 C 354.183 50.132,354.333 50.411,354.333 50.620 C 354.333 50.829,354.408 51.000,354.500 51.000 C 354.592 51.000,354.667 51.142,354.667 51.316 C 354.667 51.489,354.779 51.674,354.917 51.727 C 355.054 51.780,355.167 51.959,355.167 52.125 C 355.167 52.291,355.317 52.535,355.500 52.667 C 355.683 52.799,355.833 53.078,355.833 53.287 C 355.833 53.513,355.934 53.667,356.083 53.667 C 356.221 53.667,356.333 53.812,356.333 53.990 C 356.333 54.168,356.408 54.360,356.500 54.417 C 356.592 54.473,356.667 54.665,356.667 54.843 C 356.667 55.021,356.733 55.167,356.814 55.167 C 356.896 55.167,357.087 55.429,357.239 55.750 C 357.391 56.071,357.587 56.333,357.674 56.333 C 357.762 56.333,357.833 56.521,357.833 56.750 C 357.833 56.979,357.908 57.167,358.000 57.167 C 358.092 57.167,358.167 57.285,358.167 57.429 C 358.167 57.573,358.260 57.795,358.375 57.923 C 358.870 58.474,359.000 58.663,359.000 58.826 C 359.000 58.922,359.075 59.000,359.167 59.000 C 359.258 59.000,359.333 59.115,359.333 59.256 C 359.333 59.512,359.531 59.878,360.299 61.042 L 360.712 61.667 363.669 61.667 C 365.959 61.667,366.668 61.616,366.814 61.440 C 366.951 61.275,366.991 57.857,366.959 48.898 L 366.917 36.583 364.083 36.583 L 361.250 36.583 361.207 44.208 C 361.179 49.100,361.104 51.833,360.998 51.833 C 360.908 51.833,360.833 51.678,360.833 51.488 C 360.833 51.298,360.740 51.038,360.625 50.911 C 360.130 50.359,360.000 50.171,360.000 50.007 C 360.000 49.911,359.925 49.833,359.833 49.833 C 359.742 49.833,359.667 49.683,359.667 49.500 C 359.667 49.317,359.592 49.167,359.500 49.167 C 359.408 49.167,359.333 48.997,359.333 48.790 C 359.333 48.582,359.146 48.272,358.917 48.100 C 358.688 47.927,358.500 47.647,358.500 47.477 C 358.500 47.306,358.425 47.167,358.333 47.167 C 358.242 47.167,358.167 47.017,358.167 46.833 C 358.167 46.650,358.092 46.500,358.000 46.500 C 357.908 46.500,357.833 46.348,357.833 46.161 C 357.833 45.975,357.721 45.780,357.583 45.727 C 357.446 45.674,357.333 45.489,357.333 45.316 C 357.333 45.142,357.276 45.000,357.206 45.000 C 357.136 45.000,356.948 44.719,356.789 44.375 C 356.480 43.710,356.146 43.137,355.987 43.000 C 355.933 42.954,355.784 42.673,355.654 42.375 C 355.525 42.077,355.362 41.833,355.293 41.833 C 355.223 41.833,355.167 41.681,355.167 41.495 C 355.167 41.309,355.054 41.113,354.917 41.060 C 354.779 41.008,354.667 40.822,354.667 40.649 C 354.667 40.475,354.606 40.333,354.531 40.333 C 354.457 40.333,354.293 40.071,354.167 39.750 C 354.041 39.429,353.839 39.167,353.719 39.167 C 353.597 39.167,353.500 38.983,353.500 38.750 C 353.500 38.521,353.425 38.333,353.333 38.333 C 353.242 38.333,353.167 38.183,353.167 38.000 C 353.167 37.817,353.092 37.667,353.000 37.667 C 352.908 37.667,352.833 37.517,352.833 37.333 C 352.833 37.150,352.758 37.000,352.667 37.000 C 352.575 37.000,352.500 36.887,352.500 36.750 C 352.500 36.536,352.028 36.500,349.249 36.500 L 345.998 36.500 346.041 49.042 M304.177 44.500 C 304.263 44.500,304.333 44.762,304.333 45.083 C 304.333 45.404,304.408 45.667,304.500 45.667 C 304.592 45.667,304.667 45.855,304.667 46.086 C 304.667 46.504,304.700 46.597,305.222 47.639 C 305.375 47.944,305.500 48.375,305.500 48.597 C 305.500 48.819,305.575 49.000,305.667 49.000 C 305.758 49.000,305.833 49.256,305.833 49.569 C 305.833 49.883,305.896 50.164,305.974 50.194 C 306.051 50.225,306.161 50.494,306.219 50.792 L 306.325 51.333 303.746 51.333 C 301.326 51.333,301.167 51.314,301.167 51.018 C 301.167 50.844,301.279 50.659,301.417 50.606 C 301.563 50.550,301.667 50.301,301.667 50.005 C 301.667 49.727,301.742 49.500,301.833 49.500 C 301.925 49.500,302.000 49.237,302.000 48.917 C 302.000 48.596,302.075 48.333,302.167 48.333 C 302.258 48.333,302.333 48.079,302.333 47.768 C 302.333 47.419,302.429 47.166,302.583 47.106 C 302.729 47.050,302.833 46.801,302.833 46.505 C 302.833 46.227,302.908 46.000,303.000 46.000 C 303.092 46.000,303.167 45.737,303.167 45.417 C 303.167 45.096,303.242 44.833,303.333 44.833 C 303.425 44.833,303.500 44.605,303.500 44.326 C 303.500 43.547,303.902 43.210,303.968 43.934 C 303.997 44.245,304.091 44.500,304.177 44.500 " stroke="none" fill="#040404" fill-rule="evenodd"></path><path id="path1" d="" stroke="none" fill="#080404" fill-rule="evenodd"></path><path id="path2" d="" stroke="none" fill="#080404" fill-rule="evenodd"></path><path id="path3" d="" stroke="none" fill="#080404" fill-rule="evenodd"></path><path id="path4" d="" stroke="none" fill="#080404" fill-rule="evenodd"></path></g></svg>