<?xml version="1.0" encoding="utf-8"?>
<!-- Generator: Adobe Adobe Illustrator 24.2.0, SVG Export Plug-In . SVG Version: 6.00 Build 0)  -->
<svg version="1.1" id="Layer_1" xmlns="http://www.w3.org/2000/svg" xmlns:xlink="http://www.w3.org/1999/xlink" x="0px" y="0px"
	 width="720px" height="720px" viewBox="0 0 720 720" style="enable-background:new 0 0 720 720;" xml:space="preserve">
<style type="text/css">
	.st0{fill:#FEFEFE;}
	.st1{fill:#E3831D;}
	.st2{fill:#FFFFFF;}
	.st3{fill:#E4821C;}
	.st4{fill:#E2831E;}
	.st5{fill:#E4821B;}
	.st6{fill:#F9F9F9;}
	.st7{fill:#FCFCFB;}
</style>
<path class="st0" d="M537.27,523.45c-179.52,0-358.35,0-537.27,0c0-120.95,0-241.9,0-363c239.95,0,479.99,0,720,0
	c0,121.02,0,242.01,0,363C659.3,523.45,598.63,523.45,537.27,523.45z M293.35,243.23c13.6,18.56,27.16,37.15,40.85,55.65
	c1.14,1.54,3.04,3.36,4.68,3.46c6.72,0.39,13.47,0.16,20.38,0.16c0-34.99,0-68.99,0-103.27c-8.03,0-15.63,0-24.05,0
	c0,20.15,0,39.9,0,61.57c-13.82-18.87-26.44-36.08-39.04-53.32c-6.41-8.76-18.14-11.7-29.3-6.2c0,33.55,0,67.11,0,100.65
	c8.56,0,16.34,0,24.45,0c0-18-0.06-35.39,0.08-52.77C291.42,246.87,292.5,244.59,293.35,243.23z M646.62,441.9
	c-8.92-1.71-17.85-3.42-27.54-5.29c-1.97,4.09-4.67,9.69-7.62,15.81c18.85,11.1,37.93,14.1,57.58,4.84
	c12.43-5.86,18.63-16.67,18.61-31.05c-0.03-17.64,0.01-35.28,0.01-52.92c0-6.5,0-13,0-19.59c-8.66,0-16.52,0-24.92,0
	c0,2.72,0,5.14,0,7.58c-4.48-2.65-8.28-5.78-12.6-7.28c-18.37-6.41-36.21,4.11-41,23.72c-5.8,23.75,5.34,46.36,24.44,49.96
	c10.9,2.06,20.48-0.4,28.76-8.77C663.57,434.33,660.21,439.4,646.62,441.9z M440.68,302.75c7.82-3.08,15.71-5.97,23.39-9.39
	c1.69-0.75,3.69-3.31,3.74-5.09c0.32-12.63,0.17-25.28,0.17-38.19c-7.78,0-14.88,0-22.39,0c0,7.56,0.3,14.62-0.18,21.63
	c-0.15,2.18-1.97,5.2-3.82,6.14c-12.7,6.39-26.28,3.67-34.75-6.49c-8.65-10.37-9.68-26.71-2.42-38.15
	c7.3-11.5,20.64-16.01,34.29-10.93c5.63,2.09,10.79,5.53,16.45,8.5c4.56-5.82,9.22-11.76,14.18-18.09
	c-16.53-13.34-34.41-17.83-54.24-14.14c-20.56,3.82-37.55,20.72-41.31,40.9c-4.38,23.45,4.5,44.93,23.68,57.01
	C410.58,304.72,424.79,305.78,440.68,302.75z M85.97,391.13c4.83,1.92,10.02,3.23,14.33,6.01c2.08,1.34,3.81,5.7,3.32,8.2
	c-0.48,2.48-3.89,6.05-6.12,6.14c-6.64,0.25-13.71,0.2-19.91-1.91c-7.95-2.71-15.23-7.55-23-11.58c-3.04,6.47-6.17,13.13-9.88,21.03
	c8.45,4.14,15.89,8.81,23.94,11.53c16.66,5.61,33.48,6.46,49.32-3.23c10.28-6.28,14.1-16.05,13.15-28.12
	c-0.86-10.91-6.27-18.6-15.88-22.66c-8.37-3.53-17.07-6.25-25.63-9.3c-8.24-2.94-12.46-7.46-10.64-12.25
	c2.78-7.29,9.33-6.35,14.61-5.06c9.37,2.3,18.46,5.85,28.4,9.13c2.77-5.99,5.94-12.86,9.94-21.53c-10.21-3.24-19.45-7.17-29.07-8.99
	c-14.59-2.77-29.14-1.84-41.36,8.43c-16.18,13.59-12.84,38.85,6.16,47.43C73.25,386.93,79.16,388.7,85.97,391.13z M589.96,246.33
	c-0.26-1.86-0.46-3.73-0.79-5.58c-4.86-27.51-29.41-46.43-56.09-43.24c-26.77,3.2-47.41,28.09-45.62,55.01
	c1.94,29.19,23.71,51.31,51.38,50.2c10.69-0.43,21.22-4.96,34.07-8.19c2.78,3.09,7.27,8.39,12.1,13.34
	c3.55,3.63,7.92,4.01,11.58,0.35c3.92-3.92,3.56-8.4-0.25-12.44c-3.65-3.87-7.23-7.84-11.13-11.42c-3-2.76-2.94-4.95-1.64-9.01
	C586.46,266.35,587.94,256.86,589.96,246.33z M180.63,433.5c2.27-0.06,4.54-0.02,6.8-0.21c18.78-1.58,33.1-15.54,35.11-34.19
	c2.32-21.57-7.61-39.06-26.3-44.36c-7.05-2-14.83-2.52-22.15-1.94c-17.11,1.35-29.88,12.41-33.87,27.89
	C132.81,409.51,149.66,432.27,180.63,433.5z M517.77,429.26c0.96,1.19,1.89,3.38,2.9,3.42c7.19,0.3,14.4,0.16,21.89,0.16
	c0.1-2.3,0.23-3.9,0.23-5.5c0.02-12-0.2-24.01,0.1-36.01c0.23-9.48,7.19-16.28,15.67-16.03c7.94,0.23,12.53,5.8,12.91,15.79
	c0.12,3.06,0.03,6.12,0.03,9.18c0,10.72,0,21.45,0,32.16c8.77,0,16.62,0,24.58,0c0-18.51,0.51-36.63-0.16-54.7
	c-0.55-14.96-11.48-24.86-25.89-25.52c-10.84-0.49-19.67,3.51-27,13.23c-0.21-4.93-0.35-8.33-0.49-11.51c-8.58,0-16.61,0-24.78,0
	C517.77,378.95,517.77,403.41,517.77,429.26z M258.27,353.6c-7.87,0-15.75,0-24.16,0c0,17.62-0.08,34.74,0.03,51.86
	c0.08,12.84,6.27,22.64,16.56,26.7c11.12,4.39,24.66,1.01,32.45-8.03c0.76-0.88,1.74-1.55,3.57-3.13c0,4.72,0,8.12,0,11.49
	c8.42,0,16.28,0,24.38,0c0-26.38,0-52.39,0-78.71c-8.32,0-16.34,0-24.79,0c0,6.67,0.04,12.99-0.01,19.3
	c-0.07,7.76,0.26,15.57-0.45,23.27c-0.86,9.3-7.54,14.99-15.51,14.26c-7.37-0.68-11.19-5.92-11.23-15.63
	C259.05,381.55,259.08,368.13,258.27,353.6z M175.81,274.89c-7.17,8.22-12.63,7.23-30.44-5.77c-3.85,5.92-7.69,11.83-11.42,17.56
	c9.41,11.39,20.99,17.02,34.43,17.09c19.62,0.09,33.94-11.18,34.59-29.3c0.89-24.64,0.25-49.34,0.23-74.01
	c0-0.36-0.48-0.73-0.75-1.11c-13.72,0-27.43,0-41.11,0c0,7.48,0,14.43,0,21.99c5.33,0,10.24,0,14.95,0
	C176.29,239.26,176.29,256.54,175.81,274.89z M458.12,413.13c-5.09-3.03-10.19-6.05-15.2-9.03c-8.69,9.4-18.36,11.23-25.3,5.02
	c-7.25-6.49-8.18-21.63-1.84-29.75c6.24-7.99,14.94-7.38,27.55,2.11c5.63-3.47,11.34-6.99,17.07-10.52
	c-10.81-16.95-31.99-23.27-50.62-15.75c-16.5,6.66-25.54,24.04-23.25,43.29c1.83,15.39,8.73,26.9,22.91,32.08
	c15.3,5.58,30.41,4.62,43.78-6.15c2.61-2.11,4.52-5.2,6.54-8.01C460.1,415.94,459.33,414.6,458.12,413.13z M221.18,298.8
	c1.23,1.24,2.42,3.49,3.71,3.55c7.2,0.35,14.42,0.17,21.85,0.17c0-34.83,0-68.98,0-103.32c-8.66,0-16.73,0-25.57,0
	C221.17,232.22,221.17,264.86,221.18,298.8z M367.7,377.5c4.38-0.72,8.77-1.43,13.37-2.18c0-7.56,0-15.01,0-22.77
	c-10.58-0.98-17.87,4.8-25.3,13.5c0-5.45,0-8.88,0-12.34c-8.36,0-16.2,0-24.06,0c0,26.51,0,52.7,0,78.68c8.38,0,16.23,0,24.37,0
	c0-12.22,0.12-23.98-0.04-35.73C355.92,388.06,358.88,381.57,367.7,377.5z M478.19,432.84c6.5,0,12.99,0,19.44,0
	c0-26.92,0-52.92,0-78.98c-8.33,0-16.32,0-24.66,0c0,25.33-0.06,50.21,0.17,75.08C473.14,430.25,475.57,431.54,478.19,432.84z
	 M494.32,319.94c-7.18-4.76-13.62-4.64-18.53,0.34c-4.29,4.35-5.17,12.12-1.98,17.55c3.09,5.25,9.51,7.68,15.42,5.83
	C498.39,340.8,501.06,330.24,494.32,319.94z"/>
<path class="st1" d="M267.3,200.32c10.74-4.54,22.47-1.6,28.88,7.16c12.6,17.23,25.22,34.45,39.04,53.32c0-21.67,0-41.42,0-61.57
	c8.42,0,16.02,0,24.05,0c0,34.27,0,68.28,0,103.27c-6.9,0-13.66,0.23-20.38-0.16c-1.64-0.09-3.54-1.92-4.68-3.46
	c-13.69-18.49-27.25-37.08-41.28-56.48c-1.57,1.17-3.66,3.14-3.72,5.17c-0.31,12.24-0.15,24.49-0.15,36.73
	c0,16.14,0,15.93-15.3,16.02c-5.02,0.03-6.67-1.39-6.62-6.75C267.37,262.49,267.28,231.4,267.3,200.32z"/>
<path class="st2" d="M647.22,441.81c12.98-2.4,16.35-7.48,15.12-22.89c-8.28,8.36-17.85,10.83-28.76,8.77
	c-19.1-3.6-30.24-26.21-24.44-49.96c4.79-19.62,22.63-30.13,41-23.72c4.32,1.51,8.12,4.64,12.6,7.28c0-2.45,0-4.86,0-7.58
	c8.4,0,16.26,0,24.92,0c0,6.59,0,13.09,0,19.59c-0.01,17.64-0.04,35.28-0.01,52.92c0.02,14.38-6.17,25.18-18.61,31.05
	c-19.65,9.26-38.73,6.26-57.58-4.84c2.95-6.12,5.64-11.72,7.62-15.81C628.78,438.48,637.7,440.19,647.22,441.81z M639.48,407.59
	c6.56,2.86,12.82,2.83,18.22-2.57c5.16-5.16,6.71-15.42,3.58-23.03c-2.63-6.36-7.05-10.02-14.08-10.09
	c-7.01-0.07-11.56,3.47-14.35,9.73C628.96,390.33,631.24,400.14,639.48,407.59z"/>
<path class="st3" d="M440.11,302.86c-15.31,2.92-29.53,1.86-42.65-6.4c-19.18-12.08-28.06-33.56-23.68-57.01
	c3.77-20.18,20.76-37.08,41.31-40.9c19.83-3.69,37.71,0.8,54.24,14.14c-4.96,6.33-9.62,12.27-14.18,18.09
	c-5.66-2.97-10.82-6.4-16.45-8.5c-13.65-5.08-26.99-0.57-34.29,10.93c-7.27,11.44-6.23,27.78,2.42,38.15
	c8.47,10.16,22.05,12.89,34.75,6.49c1.85-0.93,3.67-3.96,3.82-6.14c0.48-7,0.18-14.06,0.18-21.63c7.51,0,14.61,0,22.39,0
	c0,12.9,0.15,25.55-0.17,38.19c-0.05,1.78-2.05,4.34-3.74,5.09C456.39,296.78,448.49,299.67,440.11,302.86z"/>
<path class="st2" d="M85.45,390.97c-6.29-2.27-12.2-4.05-17.79-6.57c-19-8.58-22.33-33.84-6.16-47.43
	c12.22-10.27,26.77-11.2,41.36-8.43c9.62,1.82,18.86,5.75,29.07,8.99c-4,8.67-7.17,15.53-9.94,21.53
	c-9.94-3.27-19.03-6.83-28.4-9.13c-5.28-1.29-11.83-2.23-14.61,5.06c-1.82,4.79,2.4,9.31,10.64,12.25
	c8.56,3.06,17.25,5.77,25.63,9.3c9.61,4.06,15.02,11.75,15.88,22.66c0.95,12.07-2.88,21.84-13.15,28.12
	c-15.84,9.68-32.66,8.83-49.32,3.23c-8.05-2.71-15.49-7.38-23.94-11.53c3.71-7.9,6.84-14.56,9.88-21.03
	c7.77,4.03,15.05,8.87,23,11.58c6.21,2.12,13.27,2.17,19.91,1.91c2.23-0.09,5.63-3.66,6.12-6.14c0.49-2.5-1.24-6.86-3.32-8.2
	C95.99,394.36,90.8,393.04,85.45,390.97z"/>
<path class="st4" d="M589.97,246.95c-2.04,9.91-3.52,19.4-6.41,28.4c-1.3,4.05-1.37,6.24,1.64,9.01c3.9,3.59,7.48,7.56,11.13,11.42
	c3.81,4.03,4.17,8.52,0.25,12.44c-3.65,3.66-8.03,3.28-11.58-0.35c-4.84-4.94-9.33-10.25-12.1-13.34
	c-12.85,3.23-23.38,7.76-34.07,8.19c-27.67,1.11-49.45-21.01-51.38-50.2c-1.79-26.92,18.86-51.81,45.62-55.01
	c26.68-3.19,51.23,15.73,56.09,43.24C589.49,242.6,589.69,244.47,589.97,246.95z M560.41,220.28c-15.66-10.73-33.72-9.7-46.3,2.66
	c-12.02,11.81-15.03,31.35-6.6,45.93c7.84,13.57,19.81,20,34.92,18.33c15.32-1.7,26.33-10.42,30.91-25.84
	C578.07,245.4,573.4,231.77,560.41,220.28z"/>
<path class="st2" d="M179.98,433.5c-30.31-1.23-47.17-23.98-39.76-52.8c3.98-15.49,16.75-26.54,33.87-27.89
	c7.32-0.58,15.1-0.06,22.15,1.94c18.69,5.3,28.62,22.79,26.3,44.36c-2.01,18.65-16.33,32.61-35.11,34.19
	C185.17,433.48,182.9,433.44,179.98,433.5z M172.11,375.63c-1.47,1.45-3.22,2.7-4.35,4.4c-4.77,7.15-5.1,14.95-2.08,22.81
	c2.35,6.12,6.86,9.8,13.39,10.41c7.24,0.67,13.01-2.58,16.25-9.1c3.87-7.79,2.84-19.1-2.29-25.27
	C188.42,373.34,181.63,372.06,172.11,375.63z"/>
<path class="st2" d="M517.77,428.57c0-25.16,0-49.62,0-74.63c8.18,0,16.2,0,24.78,0c0.14,3.18,0.28,6.58,0.49,11.51
	c7.33-9.72,16.17-13.72,27-13.23c14.41,0.66,25.34,10.56,25.89,25.52c0.67,18.07,0.16,36.19,0.16,54.7c-7.97,0-15.81,0-24.58,0
	c0-10.71,0-21.44,0-32.16c0-3.06,0.08-6.12-0.03-9.18c-0.38-9.99-4.97-15.56-12.91-15.79c-8.47-0.24-15.43,6.55-15.67,16.03
	c-0.3,12-0.07,24-0.1,36.01c0,1.6-0.13,3.2-0.23,5.5c-7.5,0-14.7,0.14-21.89-0.16C519.66,432.64,518.73,430.45,517.77,428.57z"/>
<path class="st2" d="M258.67,354.16c0.41,13.97,0.38,27.39,0.43,40.8c0.04,9.72,3.86,14.95,11.23,15.63
	c7.97,0.73,14.65-4.96,15.51-14.26c0.71-7.7,0.38-15.51,0.45-23.27c0.05-6.31,0.01-12.62,0.01-19.3c8.45,0,16.47,0,24.79,0
	c0,26.32,0,52.33,0,78.71c-8.1,0-15.97,0-24.38,0c0-3.37,0-6.78,0-11.49c-1.82,1.59-2.81,2.25-3.57,3.13
	c-7.79,9.05-21.33,12.42-32.45,8.03c-10.29-4.06-16.48-13.86-16.56-26.7c-0.1-17.12-0.03-34.24-0.03-51.86
	C242.52,353.6,250.39,353.6,258.67,354.16z"/>
<path class="st5" d="M176.05,274.36c0.24-17.82,0.24-35.1,0.24-53.02c-4.72,0-9.62,0-14.95,0c0-7.56,0-14.5,0-21.99
	c13.68,0,27.39,0,41.11,0c0.27,0.39,0.75,0.75,0.75,1.11c0.02,24.67,0.66,49.37-0.23,74.01c-0.65,18.12-14.98,29.39-34.59,29.3
	c-13.43-0.06-25.02-5.69-34.43-17.09c3.73-5.74,7.57-11.64,11.42-17.56C163.17,282.13,168.64,283.11,176.05,274.36z"/>
<path class="st2" d="M458.59,413.4c0.73,1.21,1.51,2.54,1.17,3.02c-2.01,2.81-3.92,5.9-6.54,8.01
	c-13.37,10.78-28.48,11.74-43.78,6.15c-14.18-5.17-21.08-16.69-22.91-32.08c-2.29-19.25,6.75-36.63,23.25-43.29
	c18.63-7.52,39.81-1.2,50.62,15.75c-5.73,3.53-11.44,7.05-17.07,10.52c-12.61-9.49-21.3-10.1-27.55-2.11
	c-6.35,8.12-5.41,23.26,1.84,29.75c6.94,6.21,16.62,4.38,25.3-5.02C447.93,407.08,453.03,410.1,458.59,413.4z"/>
<path class="st1" d="M221.18,298.15c0-33.29,0-65.93,0-98.95c8.84,0,16.91,0,25.57,0c0,34.33,0,68.49,0,103.32
	c-7.43,0-14.65,0.18-21.85-0.17C223.6,302.29,222.41,300.04,221.18,298.15z"/>
<path class="st2" d="M367.18,377.69c-8.3,3.87-11.26,10.37-11.14,18.97c0.17,11.76,0.04,23.52,0.04,35.73c-8.15,0-15.99,0-24.37,0
	c0-25.98,0-52.17,0-78.68c7.86,0,15.7,0,24.06,0c0,3.46,0,6.89,0,12.34c7.43-8.7,14.72-14.49,25.3-13.5c0,7.76,0,15.21,0,22.77
	C376.47,376.07,372.08,376.78,367.18,377.69z"/>
<path class="st2" d="M477.53,432.84c-1.96-1.3-4.39-2.59-4.4-3.9c-0.23-24.88-0.17-49.75-0.17-75.08c8.34,0,16.33,0,24.66,0
	c0,26.06,0,52.07,0,78.98C491.18,432.84,484.68,432.84,477.53,432.84z"/>
<path class="st2" d="M494.68,320.31c6.37,9.93,3.71,20.49-5.45,23.35c-5.92,1.85-12.33-0.57-15.42-5.83
	c-3.19-5.43-2.31-13.2,1.98-17.55C480.71,315.3,487.14,315.18,494.68,320.31z"/>
<path class="st4" d="M267.09,200.8c0.19,30.6,0.29,61.69,0.04,92.77c-0.04,5.36,1.61,6.78,6.62,6.75c15.3-0.09,15.3,0.12,15.3-16.02
	c0-12.25-0.16-24.49,0.15-36.73c0.05-2.03,2.14-4.01,3.58-5.64c-0.29,2.66-1.37,4.94-1.38,7.22c-0.14,17.39-0.08,34.78-0.08,52.77
	c-8.12,0-15.89,0-24.45,0C266.87,268.39,266.87,234.84,267.09,200.8z"/>
<path class="st6" d="M639.02,407.31c-7.77-7.17-10.05-16.98-6.17-25.68c2.8-6.26,7.34-9.8,14.35-9.73
	c7.03,0.07,11.45,3.73,14.08,10.09c3.14,7.61,1.59,17.86-3.58,23.03C652.3,410.42,646.04,410.45,639.02,407.31z"/>
<path class="st7" d="M560.79,220.6c12.6,11.17,17.28,24.79,12.54,40.75c-4.58,15.42-15.59,24.14-30.91,25.84
	c-15.11,1.67-27.08-4.76-34.92-18.33c-8.42-14.58-5.42-34.12,6.6-45.93C526.69,210.58,544.75,209.54,560.79,220.6z M560,249.63
	c-2.27,16.42-7.49,21.19-26.5,24.17c-1.44,4.27,0.16,5.87,4.39,6.05c13.39,0.57,27.5-12.6,28.28-26.37
	C566.43,248.85,564.82,247.38,560,249.63z"/>
<path class="st2" d="M172.59,375.37c9.04-3.31,15.83-2.03,20.43,3.5c5.13,6.17,6.16,17.48,2.29,25.27
	c-3.24,6.52-9.01,9.77-16.25,9.1c-6.52-0.6-11.03-4.28-13.39-10.41c-3.02-7.86-2.69-15.66,2.08-22.81
	C168.89,378.33,170.65,377.08,172.59,375.37z"/>
<path class="st4" d="M560.32,249.15c4.5-1.78,6.11-0.31,5.85,4.32c-0.78,13.77-14.88,26.94-28.28,26.37
	c-4.23-0.18-5.83-1.78-4.39-6.05C552.51,270.82,557.73,266.04,560.32,249.15z"/>
</svg>
