<svg fill="none" xmlns="http://www.w3.org/2000/svg" viewBox="0 0 600 76">
  <path
    fill-rule="evenodd"
    clip-rule="evenodd"
    d="M491.15 0h1.95c2.71 1 5.21 3.13 5.64 6.13.88 4.06-2.47 8.57-6.73 8.42-5.19.73-9.21-5.86-6.79-10.3.96-2.48 3.51-3.64 5.93-4.25ZM260.71 16.7c2.27-5.45 7.77-8.89 13.38-10.06 9.68-1.93 20.11-.04 28.44 5.28-1.78 3.71-3.54 7.42-5.3 11.14-5.86-3.14-12.34-6.19-19.16-5.55-2.64-.11-4.8 3.26-3.03 5.43 1.655 2.342 4.4 3.143 7.067 3.921.863.252 1.717.501 2.523.8.791.283 1.597.556 2.407.831 4.359 1.48 8.857 3.006 12.053 6.438 3.85 3.89 4.05 10.07 2.64 15.06-2.14 6-8.35 9.4-14.28 10.62-10.89 1.93-22.39-1.23-31.1-7.95.444-.873.881-1.75 1.319-2.627 1.379-2.761 2.76-5.527 4.331-8.183 4.28 3.44 9.31 5.85 14.57 7.4 2.99.67 6.4 1.12 9.23-.38 2.67-1.55 2.49-5.92-.24-7.3-2.745-1.407-5.744-2.31-8.743-3.212-4.693-1.413-9.383-2.824-13.087-6.168-4.33-3.8-4.68-10.33-3.02-15.49Zm83.53 6.99c-6.19-5.31-15.12-5.59-22.75-4.03-6.36 1.55-11.99 6.4-13.93 12.73-2.39 7.76-1.07 17.2 5.22 22.79 5.96 5.56 14.75 6.36 22.44 5 7.64-1.45 14.03-7.68 15.77-15.24 1.93-7.61-.6-16.27-6.75-21.25Zm-23.98 18.47c-.71-4.35.61-9.93 5.14-11.68 3.13-1.31 7.01-.65 9.59 1.54 4.6 5.29 3.61 16.08-4.03 17.97-5.13 1.69-10.2-2.83-10.7-7.83Zm37.16-22.97c4.42.12 8.85.11 13.27 0 .06 2.795.064 5.591.068 8.387.008 5.157.015 10.314.372 15.463.03 3.43 3.6 6.16 6.92 5.71 4.15-.48 7.57-4.55 7.29-8.72.01-1.736.016-3.472.023-5.207v-.004c.018-5.213.037-10.424.157-15.63 4.43.12 8.85.1 13.28.02.055 8.335.047 16.664.039 24.995v.008c-.006 5.392-.011 10.784.001 16.178l-1.673-.004c-3.902-.01-7.804-.02-11.697.024-.025-1.025-.037-2.05-.05-3.075a242.55 242.55 0 0 0-.05-3.075c-3.1 3.17-6.68 6.32-11.35 6.56-7.83 1.74-16.27-4.81-16.36-12.86-.354-7.064-.311-14.14-.268-21.213v-.001c.015-2.52.031-5.038.028-7.556Zm65.25 0c-4.42.11-8.84.12-13.25 0-.06 13.74-.06 27.49 0 41.24 4.4-.08 8.81-.09 13.21.03.154-2.862.125-5.737.096-8.612-.048-4.798-.096-9.594.704-14.328 1.5-5.4 7.79-6.91 12.72-6.73l.002-4.17v-.014c.002-2.776.005-5.55-.002-8.326-5.26.51-10.01 3.07-13.37 7.13-.03-2.07-.07-4.15-.11-6.22Zm25.32 2.7c6.2-3.62 14.06-3.87 20.79-1.63 3.985 1.259 6.898 4.39 9.674 7.374l.406.436c-2.267 1.568-4.646 2.954-7.028 4.341-.959.559-1.919 1.118-2.872 1.69-2.66-2.84-6.71-5.36-10.69-3.71-8.09 3-7.68 17.05.75 19.26 4 1.1 7.68-1.29 10.09-4.29 3.36 1.83 6.72 3.71 9.67 6.17-3.9 5.79-10.72 9.37-17.73 9.08-7.71.93-15.83-2.92-19.72-9.68-4.81-9.55-2.79-23.07 6.66-29.04Zm50.58-2.71c-4.46.13-8.92.11-13.37.03-.058 8.787-.05 17.57-.042 26.353.005 4.942.009 9.884.002 14.827 4.47-.02 8.94-.04 13.42.04.06-13.75.06-27.5-.01-41.25Zm10.63.03c4.46.09 8.92.1 13.38-.03.005 1.02.005 2.042.005 3.064v.018c0 1.027 0 2.054.005 3.078 5.06-6.9 15.22-8.67 22.43-4.21 3.94 2.59 5.86 7.31 6.08 11.89.356 6.014.317 12.037.277 18.06v.005a527.023 527.023 0 0 0-.007 9.325c-4.56-.05-9.11-.04-13.67-.01-.065-3.19-.082-6.383-.099-9.577-.025-4.626-.049-9.253-.221-13.873.07-2.17-1.1-4.21-3-5.25-4.58-2.85-11.38.9-11.52 6.26-.198 5.484-.218 10.979-.239 16.468-.007 1.998-.015 3.996-.031 5.992-4.48-.06-8.95-.05-13.43-.03.007-4.943.003-9.885-.002-14.826-.008-8.784-.016-17.567.042-26.354Zm77.41 4.43c-4.61-4.87-11.78-5.36-17.96-3.96-5.45 1.85-9.54 6.78-10.72 12.37-1.32 6.81-.83 14.57 3.83 20.08 5.99 7.45 18.58 8.01 25 .78-.014.387-.022.785-.031 1.19-.073 3.424-.156 7.336-3.519 9.16-6.18 3.33-13.72 1.23-19.45-2.11a664.814 664.814 0 0 0-3.858 8.021l-.642 1.349c7.59 4.64 16.91 6.26 25.62 4.41 7.41-1.77 14.46-7.49 15.12-15.52V19.25c-4.4.03-8.8.03-13.19-.03-.079 1.443-.138 2.896-.197 4.34l-.003.08Zm-9.65 24.4c-8.79-1.25-9.5-15.51-1.61-18.57 5.6-2.54 11.46 2.88 11.2 8.55.67 5.37-3.85 11.22-9.59 10.02Z"
    fill="#fff"
  />
  <path
    fill-rule="evenodd"
    clip-rule="evenodd"
    d="M225.74 5.29c-7.99-2.65-17.28-1.71-24.18 3.27-8.79 5.83-13.59 17.1-11.59 27.47 1.63 9.23 8.32 17.34 17.13 20.6 8.63 3.34 19 1.85 26.43-3.65.883.851 1.739 1.755 2.598 2.661 2.369 2.5 4.762 5.025 7.822 6.559 3.68 1.36 6.76-3.73 4.38-6.5-1.418-1.87-3.095-3.507-4.773-5.144-1.327-1.296-2.656-2.593-3.857-4.006 5.24-8.44 6.09-19.7 1.31-28.52-3.65-5.6-8.68-10.8-15.27-12.74ZM197.8 32.01c-.49-8.57 5.36-17.1 13.73-19.32 11.38-3.69 24.1 5.54 24.73 17.34.81 10.33-8.03 19.89-18.31 20.26-10.24.87-20.06-7.99-20.15-18.28ZM160.743 4.094c-4.978-.129-10.157-.263-14.833 1.706-7.13 2.98-13.43 8.61-16.15 15.95-2.61 7.15-2.15 15.4 1.3 22.2 4.16 8.67 13.4 14.5 22.96 14.94 8.84.38 17.9-1.81 25.27-6.8-.051-4.518-.045-9.031-.039-13.546v-.001c.003-2.58.006-5.161-.001-7.743-3.053.015-6.1.013-9.145.011h-.001l-3.044-.001.006 2.138c.011 3.917.022 7.833-.046 11.742-4.66 2.17-10.15 3.3-15.1 1.38-6.18-2.54-9.92-9.37-9.23-15.96.06-7.85 7.29-14.96 15.22-14.39 5.239-.226 9.679 2.792 13.82 5.607l.24.163c.524-.652 1.045-1.306 1.566-1.96 2.085-2.618 4.17-5.236 6.434-7.7-5.47-4.2-11.98-7.5-18.99-7.73l-.237-.006ZM19.612 4.51c5.955.014 11.915.029 17.868-.05.01 11.51.01 23.01 0 34.51l-.002.213c-.039 4.03-.08 8.357-2.478 11.787-4.18 6.76-13.13 8.7-20.5 7.4C8.81 57.52 3.96 54.11 0 50.1v-1.33l.01 1.33c2.32-3.09 4.53-6.26 6.66-9.48.335.266.674.538 1.016.813 3.277 2.64 6.877 5.54 11.314 4.997 2.78-.11 4.4-2.93 4.34-5.48.242-5.565.262-11.139.283-16.715.01-2.732.02-5.463.057-8.195-2.94.08-5.88.11-8.82.13v-.001c0-3.89 0-7.78-.01-11.669 1.587.002 3.174.006 4.761.01ZM60.94 4.5c-4.59.02-9.18.02-13.77 0 .013 7.642.01 15.283.006 22.924-.005 10.187-.01 20.373.024 30.556 4.57-.07 9.14-.07 13.71 0 .034-10.182.03-20.368.025-30.555v-.001c-.004-7.641-.008-15.282.005-22.924Zm10.59-.05c3.028.074 6.051.071 9.077.069 1.08 0 2.161-.002 3.243 0 2.352 3.114 4.689 6.24 7.026 9.364 5.674 7.587 11.349 15.175 17.234 22.597.177-9.453-.015-18.906-.207-28.36l-.073-3.62c4.37.02 8.74.02 13.11 0-.028 7.04-.016 14.078-.005 21.116.018 10.697.036 21.394-.085 32.094-1.146.02-2.293.035-3.44.05-2.866.038-5.733.076-8.59.19-4.683-5.909-9.236-11.92-13.79-17.93v-.001c-3.468-4.58-6.936-9.157-10.46-13.689.048 5.615 0 11.228-.048 16.84-.043 4.953-.086 9.905-.062 14.86-4.31-.15-8.62-.15-12.93 0-.03-17.86-.03-35.72 0-53.58Zm160.19 25.48c-.801.01-2.4.03-3.19.05-.69 3.77-1.76 7.93-5.01 10.34-2.444 1.937-5.559 2.303-8.56 2.655-.375.044-.749.088-1.12.135-.01.8-.05 2.4-.07 3.19 9.44 1.59 18.74-6.78 17.95-16.37Z"
    fill="#E58016"
  />
</svg>
