<svg fill="none" xmlns="http://www.w3.org/2000/svg" viewBox="0 0 600 76">
  <path
    d="M491.15 0h1.95c2.71 1 5.21 3.13 5.64 6.13.88 4.06-2.47 8.57-6.73 8.42-5.19.73-9.21-5.86-6.79-10.3.96-2.48 3.51-3.64 5.93-4.25ZM260.71 16.7c2.27-5.45 7.77-8.89 13.38-10.06 9.68-1.93 20.11-.04 28.44 5.28-1.78 3.71-3.54 7.42-5.3 11.14-5.86-3.14-12.34-6.19-19.16-5.55-2.64-.11-4.8 3.26-3.03 5.43 2.19 3.1 6.29 3.5 9.59 4.72 5.05 1.81 10.67 3.2 14.46 7.27 3.85 3.89 4.05 10.07 2.64 15.06-2.14 6-8.35 9.4-14.28 10.62-10.89 1.93-22.39-1.23-31.1-7.95 1.84-3.62 3.58-7.31 5.65-10.81 4.28 3.44 9.31 5.85 14.57 7.4 2.99.67 6.4 1.12 9.23-.38 2.67-1.55 2.49-5.92-.24-7.3-7.04-3.61-15.76-3.9-21.83-9.38-4.33-3.8-4.68-10.33-3.02-15.49ZM321.49 19.66c7.63-1.56 16.56-1.28 22.75 4.03 6.15 4.98 8.68 13.64 6.75 21.25-1.74 7.56-8.13 13.79-15.77 15.24-7.69 1.36-16.48.56-22.44-5-6.29-5.59-7.61-15.03-5.22-22.79 1.94-6.33 7.57-11.18 13.93-12.73Zm3.91 10.82c-4.53 1.75-5.85 7.33-5.14 11.68.5 5 5.57 9.52 10.7 7.83 7.64-1.89 8.63-12.68 4.03-17.97-2.58-2.19-6.46-2.85-9.59-1.54ZM357.42 19.19c4.42.12 8.85.11 13.27 0 .17 7.95-.11 15.91.44 23.85.03 3.43 3.6 6.16 6.92 5.71 4.15-.48 7.57-4.55 7.29-8.72.04-6.95.02-13.9.18-20.84 4.43.12 8.85.1 13.28.02.09 13.73.01 27.45.04 41.18-4.46-.01-8.92-.03-13.37.02-.05-2.05-.05-4.1-.1-6.15-3.1 3.17-6.68 6.32-11.35 6.56-7.83 1.74-16.27-4.81-16.36-12.86-.48-9.58-.23-19.18-.24-28.77ZM409.42 19.19c4.41.12 8.83.11 13.25 0 .04 2.07.08 4.15.11 6.22 3.36-4.06 8.11-6.62 13.37-7.13.01 4.17 0 8.34 0 12.51-4.93-.18-11.22 1.33-12.72 6.73-1.28 7.57-.39 15.3-.8 22.94-4.4-.12-8.81-.11-13.21-.03-.06-13.75-.06-27.5 0-41.24ZM447.99 21.89c6.2-3.62 14.06-3.87 20.79-1.63 4.18 1.32 7.18 4.7 10.08 7.81-3.18 2.2-6.58 4.04-9.9 6.03-2.66-2.84-6.71-5.36-10.69-3.71-8.09 3-7.68 17.05.75 19.26 4 1.1 7.68-1.29 10.09-4.29 3.36 1.83 6.72 3.71 9.67 6.17-3.9 5.79-10.72 9.37-17.73 9.08-7.71.93-15.83-2.92-19.72-9.68-4.81-9.55-2.79-23.07 6.66-29.04ZM485.2 19.21c4.45.08 8.91.1 13.37-.03.07 13.75.07 27.5.01 41.25-4.48-.08-8.95-.06-13.42-.04.02-13.73-.05-27.45.04-41.18ZM509.2 19.21c4.46.09 8.92.1 13.38-.03.01 2.05 0 4.11.01 6.16 5.06-6.9 15.22-8.67 22.43-4.21 3.94 2.59 5.86 7.31 6.08 11.89.54 9.12.17 18.26.27 27.39-4.56-.05-9.11-.04-13.67-.01-.16-7.81-.03-15.64-.32-23.45.07-2.17-1.1-4.21-3-5.25-4.58-2.85-11.38.9-11.52 6.26-.27 7.48-.21 14.98-.27 22.46-4.48-.06-8.95-.05-13.43-.03.02-13.73-.05-27.45.04-41.18ZM568.65 19.68c6.18-1.4 13.35-.91 17.96 3.96.06-1.47.12-2.95.2-4.42 4.39.06 8.79.06 13.19.03v40.16c-.66 8.03-7.71 13.75-15.12 15.52-8.71 1.85-18.03.23-25.62-4.41 1.49-3.13 2.97-6.26 4.5-9.37 5.73 3.34 13.27 5.44 19.45 2.11 3.76-2.04 3.42-6.69 3.55-10.35-6.42 7.23-19.01 6.67-25-.78-4.66-5.51-5.15-13.27-3.83-20.08 1.18-5.59 5.27-10.52 10.72-12.37Zm6.7 9.79c-7.89 3.06-7.18 17.32 1.61 18.57 5.74 1.2 10.26-4.65 9.59-10.02.26-5.67-5.6-11.09-11.2-8.55Z"
    fill="#000"
  />
  <path
    d="M145.91 5.8c4.75-2 10.02-1.83 15.07-1.7 7.01.23 13.52 3.53 18.99 7.73-2.83 3.08-5.38 6.4-8 9.66-4.21-2.86-8.72-6-14.06-5.77-7.93-.57-15.16 6.54-15.22 14.39-.69 6.59 3.05 13.42 9.23 15.96 4.95 1.92 10.44.79 15.1-1.38.08-4.62.05-9.25.04-13.88 4.06 0 8.12.01 12.19-.01.02 7.1-.04 14.19.04 21.29-7.37 4.99-16.43 7.18-25.27 6.8-9.56-.44-18.8-6.27-22.96-14.94-3.45-6.8-3.91-15.05-1.3-22.2 2.72-7.34 9.02-12.97 16.15-15.95ZM201.56 8.56c6.9-4.98 16.19-5.92 24.18-3.27 6.59 1.94 11.62 7.14 15.27 12.74 4.78 8.82 3.93 20.08-1.31 28.52 2.72 3.2 6.09 5.8 8.63 9.15 2.38 2.77-.7 7.86-4.38 6.5-4.17-2.09-7.1-6.02-10.42-9.22-7.43 5.5-17.8 6.99-26.43 3.65-8.81-3.26-15.5-11.37-17.13-20.6-2-10.37 2.8-21.64 11.59-27.47Zm9.97 4.13c-8.37 2.22-14.22 10.75-13.73 19.32.09 10.29 9.91 19.15 20.15 18.28 10.28-.37 19.12-9.93 18.31-20.26-.63-11.8-13.35-21.03-24.73-17.34ZM14.85 4.5c7.54.01 15.09.06 22.63-.04.01 11.51.01 23.01 0 34.51-.04 4.09-.04 8.51-2.48 12-4.18 6.76-13.13 8.7-20.5 7.4C8.81 57.52 3.96 54.11 0 50.1v-1.33l.01 1.33c2.32-3.09 4.53-6.26 6.66-9.48 3.55 2.81 7.43 6.41 12.33 5.81 2.78-.11 4.4-2.93 4.34-5.48.36-8.29.23-16.6.34-24.91-2.94.08-5.88.11-8.82.13 0-3.89 0-7.78-.01-11.67ZM47.17 4.5c4.59.02 9.18.02 13.77 0-.03 17.83.03 35.66-.03 53.48-4.57-.07-9.14-.07-13.71 0-.06-17.82 0-35.65-.03-53.48ZM71.53 4.45c4.11.1 8.21.06 12.32.07C91.91 15.19 99.8 26 108.11 36.48c.2-10.66-.07-21.32-.28-31.98 4.37.02 8.74.02 13.11 0-.07 17.74.11 35.47-.09 53.21-4.01.07-8.03.08-12.03.24-8.25-10.41-16.1-21.14-24.25-31.62.09 10.57-.16 21.13-.11 31.7-4.31-.15-8.62-.15-12.93 0-.03-17.86-.03-35.72 0-53.58Z"
    fill="#E58016"
  />
  <path
    d="M228.53 29.98c.79-.02 2.39-.04 3.19-.05.79 9.59-8.51 17.96-17.95 16.37.02-.79.06-2.39.07-3.19 3.33-.42 6.93-.61 9.68-2.79 3.25-2.41 4.32-6.57 5.01-10.34Z"
    fill="#E58016"
  />
</svg>
