<?xml version="1.0" standalone="yes"?>
<svg xmlns="http://www.w3.org/2000/svg" width="5350" height="961">
<path style="fill:#010102; stroke:none;" d="M0 0L0 961L5350 961L5350 0L0 0z"/>
<path style="fill:#01bbe8; stroke:none;" d="M707 253C717.698 266.875 739.383 278.176 753.999 287.861C758.124 290.595 765.03 298.366 770.054 298.562C776.03 298.795 782.816 293.9 788 291.428C799.915 285.747 812.019 280.5 824 274.962C865.516 255.771 907.67 237.917 949 218.262C961.179 212.47 973.677 206.975 986 201.498C991.17 199.2 997.863 198.031 1001 193L959 201.486L885 216.765L707 253M804 321L804 324C829.71 338.328 853.954 358.245 877.714 375.631C889.031 383.912 902.485 396.995 916 401L940.475 359L1002.01 253L1023.28 217L1032 200L999 216.486L954.17 240.558L804 321z"/>
<path style="fill:#ffffff; stroke:none;" d="M1805 200.439C1766.44 206.462 1742.92 251.622 1766.78 284.999C1780.46 304.13 1804.38 311.095 1827 307.561C1866.2 301.439 1887.38 253.396 1863.24 221C1850.31 203.646 1825.71 197.204 1805 200.439M2424 200.439C2381.86 207.02 2359.54 258.198 2390.17 290.961C2404.22 305.985 2426.19 310.679 2446 307.561C2481.16 302.026 2504.12 260.248 2486.48 228C2474.51 206.103 2447.86 196.712 2424 200.439M3263 221L3263 754L3354 754L3354 221L3263 221M4549 221L4549 754L4586 754L4586 589C4586 549.694 4584.57 509.109 4605.45 474C4649.91 399.271 4785.17 379.358 4831.69 464C4850.66 498.513 4848 538.006 4848 576L4848 754L4885 754L4885 567C4885 521.577 4885.94 474.299 4859.25 435C4815.31 370.292 4715.4 360.634 4649 393.753C4624.34 406.053 4596.83 427.139 4587 454L4586 454L4586 221L4549 221M1215 251L1215 754L1390 754C1451.6 754 1511.73 753.984 1569 727.691C1616.41 705.926 1655.78 671.062 1680.69 625C1739.38 516.492 1708.54 365.584 1604 297.344C1536.16 253.058 1459.15 251 1381 251L1215 251M3456 251L3456 754L3493 754L3493 590L3615 590C3664 590 3715.16 588.651 3759 563.573C3785.28 548.539 3807.5 528.02 3821.68 501C3860.14 427.71 3837.65 325.467 3766 282.204C3716.15 252.104 3658.41 251 3602 251L3456 251z"/>
<path style="fill:#0192b4; stroke:none;" d="M697 255C700.394 260.983 708.309 263.687 714 267.089C728.26 275.615 744.942 289.784 761 294C757.819 288.103 750.379 284.939 745.089 281.026C731.6 271.045 713.99 252.504 697 255M488 306C491.418 312.014 498.344 315.213 503.91 319.05C512.705 325.111 521.13 331.69 530 337.67C543.658 346.877 556.723 357.029 570.286 366.405C575.479 369.995 581.652 376.331 588 377.538C598.426 379.52 616.2 366.588 626 362.937C663.848 348.836 700.713 331.524 738 316L738 314C719.225 303.315 700.663 292.151 682.001 281.254C674.435 276.836 665.689 268.952 657 267.275C642.287 264.435 619.432 274.492 605 278.105C566.718 287.688 527.041 300.256 488 306z"/>
<path style="fill:#010102; stroke:none;" d="M3493 285L3493 556L3614 556C3655.29 556 3697.13 555.665 3735 536.73C3818.62 494.913 3824.63 360.191 3745 310.814C3714.54 291.927 3680.79 288.293 3646 285.911C3595.39 282.444 3543.77 285 3493 285z"/>
<path style="fill:#ffffff; stroke:none;" d="M2593 286L2593 373L2530 373L2530 446L2593 446L2593 604C2593 644.176 2593.55 686.316 2620.46 719C2653.41 759.015 2717.19 766.304 2765 755.349C2777.23 752.546 2789.07 748.494 2800 742.279C2803.6 740.23 2809.03 737.839 2810.93 733.907C2813.29 729.027 2807.77 720.597 2806.05 716C2800.23 700.431 2792.38 685.031 2788 669C2780.62 670.9 2774.23 676.437 2767 679.186C2750.88 685.309 2729.14 687.052 2713 680.121C2686.69 668.82 2684 640.945 2684 616L2684 446L2787 446L2787 373L2684 373L2684 286L2593 286z"/>
<path style="fill:#0192b4; stroke:none;" d="M761 294L761 295L766 297L761 294z"/>
<path style="fill:#ffffff; stroke:none;" d="M4314 297L4314 379L4245 379L4245 411L4314 411L4314 608C4314 643.503 4309.53 681.941 4327.87 714C4351.59 755.459 4407.99 764.774 4451 752.989C4462.74 749.773 4473.86 745.476 4484 738.642C4486.8 736.751 4492.47 733.729 4492.75 729.911C4493.07 725.582 4481.49 705.434 4476.9 705.907C4468.9 706.729 4458.42 717.651 4450 720.484C4416.17 731.868 4374.86 724.379 4358.26 690C4345.41 663.389 4351 627.719 4351 599L4351 411L4470 411L4470 379L4351 379L4351 297L4314 297z"/>
<path style="fill:#015e74; stroke:none;" d="M403 326L415 335.477L449.001 355.36L505 388.151L530 401.746L547 395.873L588 378C563.667 361.582 539.896 344.325 516 327.291C508.219 321.744 495.491 308.203 485.91 307.184C477.258 306.263 466.263 311.171 458 313.444C440.197 318.343 421.258 323.316 403 326z"/>
<path style="fill:#0192b4; stroke:none;" d="M636 411C638.909 416.321 645.272 419.357 650 423.011C661.964 432.257 674.778 440.353 687.039 449.206C719.489 472.637 752.265 495.596 784.985 518.659C798.703 528.328 813.313 542.974 829 549C855.671 499.095 891.564 452.56 915 401L846.996 353.026L804 322L758 345.961L676.001 389.886L636 411z"/>
<path style="fill:#010102; stroke:none;" d="M1309 331L1309 674L1405 674C1447.32 674 1488.19 673.136 1527 653.73C1633.96 600.252 1645.65 432.107 1547 364.026C1479.37 317.353 1386.72 331 1309 331z"/>
<path style="fill:#015e74; stroke:none;" d="M143 388C146.508 394.089 153.902 397.532 159.424 401.694C173.282 412.14 187.583 422.341 202 431.999C208.134 436.109 221.587 442.808 224 450L291 478.374L320 490.607L337 484.309L375 469.004L497 420L497 418C463.137 402.003 431.449 379.71 399 360.985C387.215 354.185 371.7 340.211 358 338.469C350.118 337.467 339.564 341.352 332 343.444C318.731 347.116 305.261 349.543 292 353.29C261.802 361.824 230.458 367.234 200 374.895C182.105 379.396 161.424 387.618 143 388z"/>
<path style="fill:#ffffff; stroke:none;" d="M2238 687L2239 687C2239 718.319 2237.97 750.618 2220.77 778C2186.78 832.123 2104.27 826.188 2051 812.116C2033.36 807.455 2015.82 800.331 2000 791.28C1993.84 787.757 1983.98 777.605 1977.1 776.907C1972.4 776.429 1968 787.669 1966 791C1958.62 803.305 1951.38 815.695 1944 828C1941.73 831.782 1935.91 838.311 1936.25 842.911C1936.7 848.988 1950.36 855.348 1955 858.189C1975.69 870.867 1998.48 879.965 2022 885.873C2104.6 906.625 2221.45 911.309 2283.83 842C2328.76 792.079 2329 725.035 2329 662L2329 370L2243 370L2243 420C2211.9 381.807 2160.89 366 2113 366C2075.38 366 2037.89 373.755 2005 392.579C1915.13 444.017 1889.89 569.337 1946.08 655C1968 688.418 2001.32 713.004 2039 725.921C2087.58 742.576 2144.9 741.686 2192 720.86C2207.32 714.085 2229.89 702.312 2238 687M2855 413L2890 480C2903.53 473.971 2915.03 463.403 2929 457.427C2980.25 435.51 3074.19 426.73 3096.92 493C3100.95 504.75 3102 517.668 3102 530C3046.96 530 2987.91 523.914 2934 536.654C2907.35 542.951 2882.97 555.525 2865.46 577C2833.51 616.192 2837.68 677.359 2869.44 715C2915.04 769.039 3018.08 773.075 3076 738.547C3088.59 731.041 3097.52 720.886 3107 710L3107 754L3192 754L3192 574C3192 531.505 3194.67 489.099 3177.99 449C3142.61 363.985 3030.9 356.716 2953 372.2C2936.98 375.385 2921.28 379.612 2906 385.424C2887.67 392.395 2871.17 402.005 2855 413M1770 370L1770 754L1860 754L1860 370L1770 370M2388 370L2388 754L2479 754L2479 370L2388 370M4166 545L4024 545C4002.53 545.008 3980.09 549.106 3960 556.684C3895.21 581.122 3878.52 667.563 3923.29 717.996C3966.79 767.004 4059.08 767.705 4114 740.247C4134.43 730.032 4158.83 712.325 4167 690L4168 690L4168 754L4203 754L4203 533C4203 489.477 4200.32 441.415 4165 410.286C4113.23 364.656 4029.71 369.509 3969 392.425C3952.29 398.732 3936.38 407.298 3922 417.884C3918.49 420.466 3908.36 425.827 3909.25 431.015C3910.04 435.553 3922.33 454.735 3927.09 454.797C3930.51 454.841 3934.45 450.298 3937 448.374C3944.05 443.053 3951.28 438.171 3959 433.862C3981.18 421.488 4006.65 412.744 4032 410.169C4082.4 405.049 4140.18 416.29 4159.3 470C4167.9 494.166 4166 519.801 4166 545M4964 679C4960.7 686.051 4947.03 701.107 4948.82 708.911C4950.22 715.045 4962.01 720.786 4967 723.796C4986.95 735.847 5009.44 744.058 5032 749.626C5094.91 765.15 5195.57 764.975 5233.8 702C5241.83 688.76 5246 673.45 5246 658C5246 645.992 5245.65 634.562 5241.97 623C5232.47 593.133 5204.22 576.36 5176 567.344C5140.41 555.974 5102.93 552.412 5067 542.424C5047.59 537.03 5028.81 531.495 5014 516.985C4985.92 489.474 4998.34 445.408 5029 425.698C5057 407.695 5095.91 406.396 5128 410.286C5148.72 412.797 5168.93 418.369 5188 426.861C5197.54 431.108 5206.83 440.035 5217 442C5219.94 435.712 5233.71 419.988 5231.58 413.184C5229.86 407.703 5217.8 402.772 5213 400.37C5193.31 390.523 5171.65 384.01 5150 380.25C5089.45 369.734 5000.12 374.679 4969.89 439C4963.16 453.31 4959.5 471.245 4961.58 487C4963.47 501.396 4965.44 514.165 4972.88 527C5001.41 576.257 5075.63 579.134 5125 589.79C5152.87 595.806 5188.33 602.654 5203.49 630C5226.1 670.808 5188.73 709.695 5151 719.127C5102.94 731.142 5049.78 724.251 5005 703.691C4990.18 696.888 4977.99 686.972 4964 679z"/>
<path style="fill:#015e74; stroke:none;" d="M463 588L524.286 620.048L655.089 688.946L706 716.1L724.675 724.289L732.936 713L751.66 681L829 549C811.706 539.393 796.239 525.715 780 514.435C749.809 493.464 719.711 472.285 690.001 450.64C677.817 441.763 664.914 433.806 653 424.576C648.234 420.884 641.34 413.682 635.001 413.354C630.606 413.127 626.659 416.812 622.985 418.742C612.913 424.035 603.001 429.561 593 434.969C557.103 454.384 521.086 473.728 485 492.88C457.996 507.212 430.956 521.494 404.09 536.083C398.214 539.274 379.789 545.633 379.242 553.053C378.483 563.354 403.192 574.372 410.424 579.935C437.146 600.488 466.232 617.978 493 638.427C499.51 643.4 506.223 648.11 513 652.715C514.959 654.046 518.046 656.818 520.548 655.169C525.473 651.922 518.212 646.111 516.075 643.911C507.388 634.968 498.797 625.87 490.151 616.87C481.108 607.455 471.159 598.157 463 588z"/>
<path style="fill:#010102; stroke:none;" d="M2115 443.424C2091.56 446.502 2069.63 450.823 2050 465.159C1999.4 502.119 1992.9 583.585 2038.17 627.714C2066.71 655.54 2107.4 663.911 2146 658.711C2161.39 656.639 2176.78 651.292 2190 643.189C2241.86 611.401 2256.22 537.652 2220.96 488C2198.31 456.106 2153.73 438.34 2115 443.424M4166 574L4053 574C4024.4 574 3993.71 573.164 3968 587.873C3929.74 609.762 3924.48 666.283 3953.29 697.961C3971.02 717.449 3998.77 724.321 4024 726.089C4080.09 730.021 4131.96 709.302 4159.69 658C4172.28 634.719 4166 599.928 4166 574M462 587L463 588L462 587M3102 590L3022 590C3007.21 590 2992.55 590.037 2978 593.004C2965.75 595.501 2953.02 599.775 2944.18 609.09C2928.23 625.919 2929.22 656.481 2945.09 672.961C2956.67 684.981 2972.96 689.901 2989 692.13C3028.4 697.608 3075.53 683.671 3095.69 647C3105.19 629.713 3102 609.191 3102 590z"/>
</svg>
