<svg fill="none" xmlns="http://www.w3.org/2000/svg" viewBox="0 0 168 72"><g clip-path="url(#a)"><circle cx="36" cy="36" r="36" fill="#171717"/><path d="M30.6198 46.9089c-2.8559-.0689-5.88-.8958-7.8725-2.5721-2.1032-1.7452-3.1045-4.4526-3.1045-6.9325V13.6431c3.2766-.0229 6.3488 1.1805 8.6248 3.96 2.4687 3.0148 2.2194 6.3471 2.3522 10.2967 0 .2525-.0221 6.2419 0 19.0091Zm0 0c.1993 3.6741 1.452 7.2127 4.7044 9.5045 2.3907 1.6846 5.2624 1.5842 7.9735 1.5842h10.8442c-.1993-3.6511-.6434-7.2218-3.9203-9.5046-2.2915-1.5963-3.9204-1.5841-6.9632-1.5385l-12.6386-.0456Z" stroke="#fff" stroke-width="4.9284" stroke-miterlimit="3" stroke-linecap="round"/><path d="M85.325 56h24.49v-6.6688H93.4135V17.7434H85.325V56Zm46.518-12.2167c.019 3.8481-2.615 5.8655-5.473 5.8655-3.007 0-4.95-2.1108-4.969-5.4919V27.3075h-7.958v18.2691c.019 6.7061 3.942 10.797 9.714 10.797 4.315 0 7.416-2.2229 8.705-5.5853h.299V56h7.64V27.3075h-7.958v16.4758ZM144.439 56h24.116v-6.3512h-13.674v-.2055l13.188-16.9614v-5.1744h-23.145v6.3512h13.562v.2055l-14.047 17.3911V56Z" fill="#171717"/></g><defs><clipPath id="a"><path fill="#fff" d="M0 0h168v72H0z"/></clipPath></defs></svg>