<?xml version="1.0" standalone="no"?>
<!DOCTYPE svg PUBLIC "-//W3C//DTD SVG 20010904//EN"
 "http://www.w3.org/TR/2001/REC-SVG-20010904/DTD/svg10.dtd">
<svg version="1.0" xmlns="http://www.w3.org/2000/svg"
 width="800.000000pt" height="224.000000pt" viewBox="0 0 800.000000 224.000000"
 preserveAspectRatio="xMidYMid meet">

<g transform="translate(0.000000,224.000000) scale(0.100000,-0.100000)"
fill="#000000" stroke="none">
<path d="M730 1565 c0 -69 -3 -125 -7 -125 -5 0 -42 20 -83 45 l-75 44 -3
-445 c-2 -491 -3 -488 60 -520 40 -21 102 -20 134 1 14 9 34 30 45 48 18 30
19 49 17 297 l-3 265 -42 23 -43 23 0 -278 c0 -204 -3 -282 -12 -291 -21 -21
-57 -14 -63 11 -3 12 -4 176 -3 365 l3 342 293 -170 294 -170 141 82 c204 117
197 111 197 164 0 26 -5 44 -11 44 -7 0 -82 -40 -167 -90 -85 -50 -157 -90
-161 -90 -3 0 -98 54 -211 119 l-205 119 -3 76 c-2 42 0 76 3 76 3 0 95 -52
204 -114 109 -63 202 -116 207 -118 5 -2 99 49 209 112 109 63 203 117 207
118 4 2 8 -191 8 -430 0 -404 2 -436 19 -475 45 -98 186 -100 236 -3 13 24 15
99 15 470 0 242 -2 440 -4 440 -2 0 -39 -20 -82 -45 -44 -25 -81 -45 -84 -45
-3 0 -4 52 -2 116 2 64 0 120 -5 125 -4 4 -122 -57 -260 -137 l-252 -145 -251
146 c-138 80 -253 145 -256 145 -2 0 -4 -56 -4 -125z m1110 -549 c0 -381 0
-382 -52 -374 l-23 3 -5 339 -5 339 35 23 c19 13 38 24 42 24 5 0 8 -159 8
-354z"/>
<path d="M2280 1392 l0 -293 48 3 47 3 5 173 5 174 83 -91 c46 -50 88 -91 93
-91 5 0 50 42 99 93 l89 92 1 -178 0 -178 48 3 47 3 2 290 2 290 -143 -149
-144 -150 -99 105 c-54 57 -118 124 -141 149 l-41 45 -1 -293z"/>
<path d="M6420 1670 c-83 -17 -151 -69 -198 -149 -24 -41 -27 -56 -27 -136 0
-80 3 -95 27 -136 81 -138 245 -192 379 -125 60 30 89 53 89 70 0 6 -16 22
-35 35 l-34 23 -47 -31 c-37 -24 -58 -31 -96 -31 -117 0 -194 85 -186 205 6
100 70 172 162 182 58 7 87 -1 125 -33 l31 -26 35 26 c19 15 35 31 35 35 0 20
-73 71 -122 86 -55 16 -82 17 -138 5z"/>
<path d="M3316 1618 c-13 -29 -71 -156 -130 -281 -58 -126 -106 -231 -106
-233 0 -3 23 -4 51 -2 51 3 51 3 72 53 34 78 28 75 141 75 116 0 114 1 144
-75 18 -46 22 -50 57 -53 69 -6 69 -5 -6 160 -39 84 -96 210 -127 280 -31 70
-60 127 -65 128 -4 0 -18 -24 -31 -52z m71 -223 l31 -75 -70 0 c-66 0 -69 1
-63 21 14 45 55 129 62 129 5 0 22 -34 40 -75z"/>
<path d="M3754 1655 c14 -37 250 -551 256 -558 5 -5 240 490 269 565 2 5 -20
8 -50 6 l-54 -3 -79 -183 c-43 -100 -81 -180 -84 -177 -3 2 -40 85 -82 182
l-77 178 -53 3 c-46 3 -52 1 -46 -13z"/>
<path d="M4512 1388 l3 -283 179 0 179 0 1 42 1 42 -135 3 -135 3 0 75 0 75
109 2 109 1 0 44 0 43 -112 3 -112 3 3 67 3 67 133 3 132 3 0 44 0 45 -180 0
-180 0 2 -282z"/>
<path d="M5160 1386 l0 -287 43 3 42 3 3 118 3 117 49 0 50 0 46 -92 c70 -140
77 -148 130 -148 25 0 44 5 44 11 0 6 -25 60 -56 120 -31 61 -55 111 -53 113
2 1 18 12 35 24 65 44 86 157 41 222 -42 63 -75 74 -234 79 l-143 3 0 -286z
m265 180 c37 -16 52 -48 41 -89 -8 -34 -46 -47 -136 -47 l-80 0 0 75 0 75 70
0 c39 0 86 -6 105 -14z"/>
<path d="M5842 1388 l3 -283 45 0 45 0 3 283 2 282 -50 0 -50 0 2 -282z"/>
<path d="M6955 1657 c-3 -7 -4 -134 -3 -282 l3 -270 48 -3 47 -3 0 93 c1 91 1
94 35 131 l33 38 39 -53 c22 -29 64 -88 93 -130 l54 -78 53 0 c29 0 53 3 53 6
0 4 -49 76 -110 161 -60 84 -110 157 -110 161 0 4 47 59 105 121 58 62 105
114 105 117 0 2 -26 4 -57 3 l-58 0 -115 -129 -115 -128 -3 129 -3 129 -45 0
c-27 0 -47 -5 -49 -13z"/>
<path d="M2282 698 l3 -143 30 0 c30 0 30 1 33 58 l3 57 79 0 80 0 0 30 0 30
-80 0 c-79 0 -80 0 -80 25 l0 25 115 0 115 0 0 30 0 30 -150 0 -151 0 3 -142z"/>
<path d="M2760 740 c0 -69 5 -110 15 -129 40 -78 259 -82 309 -6 12 18 16 51
16 130 l0 106 -32 -3 -33 -3 -3 -96 c-3 -120 -14 -134 -102 -134 -90 0 -100
14 -100 137 l0 98 -35 0 -35 0 0 -100z"/>
<path d="M3317 833 c-10 -9 -8 -255 1 -271 7 -9 42 -12 143 -10 l134 3 3 27 3
27 -108 3 -108 3 -3 113 -3 112 -28 0 c-15 0 -31 -3 -34 -7z"/>
<path d="M3774 827 c-2 -7 -3 -71 -2 -143 l3 -129 30 0 c30 0 30 1 33 58 l3
57 79 0 80 0 0 30 0 30 -80 0 c-79 0 -80 0 -80 25 l0 25 115 0 115 0 0 30 0
30 -145 0 c-110 0 -147 -3 -151 -13z"/>
<path d="M4260 835 c0 -3 -1 -63 -1 -135 0 -71 1 -134 1 -140 0 -5 14 -10 30
-10 l30 0 0 145 0 145 -30 0 c-16 0 -30 -2 -30 -5z"/>
<path d="M4534 827 c-2 -7 -3 -71 -2 -143 l3 -129 136 -3 137 -3 4 31 5 30
-109 0 -108 0 0 115 0 115 -30 0 c-17 0 -33 -6 -36 -13z"/>
<path d="M4992 698 l3 -143 138 -3 137 -3 0 31 0 30 -105 0 -104 0 -3 113 -3
112 -33 3 -33 3 3 -143z"/>
<path d="M5452 698 l3 -143 27 -3 27 -3 3 103 3 103 65 -77 c35 -43 67 -78 71
-78 3 0 33 34 67 76 l61 75 3 -98 3 -98 33 -3 32 -3 0 145 0 146 -39 0 c-36 0
-43 -5 -101 -75 l-62 -75 -60 75 c-56 71 -62 75 -99 75 l-40 0 3 -142z"/>
<path d="M6067 833 c-4 -3 -7 -64 -7 -133 0 -97 3 -130 14 -139 9 -8 60 -11
157 -9 l144 3 3 27 3 27 -123 3 -123 3 -3 27 -3 27 83 3 c81 3 83 4 83 28 0
24 -2 25 -82 28 -81 3 -83 3 -83 27 l0 25 120 0 120 0 0 30 0 30 -148 0 c-82
0 -152 -3 -155 -7z"/>
<path d="M6572 698 l3 -143 30 0 30 0 3 98 3 98 97 -101 c91 -95 100 -101 132
-98 l35 3 3 143 3 142 -36 0 -35 0 0 -95 c0 -52 -4 -95 -8 -95 -5 0 -48 43
-96 95 -82 89 -90 95 -127 95 l-40 0 3 -142z"/>
<path d="M7080 810 l0 -30 65 0 65 0 0 -109 c0 -115 2 -121 51 -121 18 0 19 8
19 115 l0 114 67 3 c65 3 68 4 67 28 l0 25 -167 3 -167 2 0 -30z"/>
</g>
</svg>
