<svg fill="none" xmlns="http://www.w3.org/2000/svg" viewBox="0 0 686 115">
  <path
    d="M16.863 12.5c0 6.9-.3 12.5-.7 12.5-.5 0-4.2-2-8.3-4.5l-7.5-4.4-.3 44.5c-.2 49.1-.3 48.8 6 52 4 2.1 10.2 2 13.4-.1 1.4-.9 3.4-3 4.5-4.8 1.8-3 1.9-4.9 1.7-29.7l-.3-26.5-4.2-2.3-4.3-2.3v27.8c0 20.4-.3 28.2-1.2 29.1-2.1 2.1-5.7 1.4-6.3-1.1-.3-1.2-.4-17.6-.3-36.5l.3-34.2 29.3 17 29.4 17 14.1-8.2c20.4-11.7 19.7-11.1 19.7-16.4 0-2.6-.5-4.4-1.1-4.4-.7 0-8.2 4-16.7 9s-15.7 9-16.1 9c-.3 0-9.8-5.4-21.1-11.9l-20.5-11.9-.3-7.6c-.2-4.2 0-7.6.3-7.6s9.5 5.2 20.4 11.4c10.9 6.3 20.2 11.6 20.7 11.8.5.2 9.9-4.9 20.9-11.2 10.9-6.3 20.3-11.7 20.7-11.8.4-.2.8 19.1.8 43 0 40.4.2 43.6 1.9 47.5 4.5 9.8 18.6 10 23.6.3 1.3-2.4 1.5-9.9 1.5-47 0-24.2-.2-44-.4-44s-3.9 2-8.2 4.5c-4.4 2.5-8.1 4.5-8.4 4.5-.3 0-.4-5.2-.2-11.6.2-6.4 0-12-.5-12.5-.4-.4-12.2 5.7-26 13.7l-25.2 14.5-25.1-14.6c-13.8-8-25.3-14.5-25.6-14.5-.2 0-.4 5.6-.4 12.5Zm111 54.9c0 38.1 0 38.2-5.2 37.4l-2.3-.3-.5-33.9-.5-33.9 3.5-2.3c1.9-1.3 3.8-2.4 4.2-2.4.5 0 .8 15.9.8 35.4ZM171.863 29.8v29.3l4.8-.3 4.7-.3.5-17.3.5-17.4 8.3 9.1c4.6 5 8.8 9.1 9.3 9.1s5-4.2 9.9-9.3l8.9-9.2.1 17.8v17.8l4.8-.3 4.7-.3.2-29 .2-29-14.3 14.9-14.4 15-9.9-10.5c-5.4-5.7-11.8-12.4-14.1-14.9l-4.1-4.5-.1 29.3ZM585.863 2c-8.3 1.7-15.1 6.9-19.8 14.9-2.4 4.1-2.7 5.6-2.7 13.6s.3 9.5 2.7 13.6c8.1 13.8 24.5 19.2 37.9 12.5 6-3 8.9-5.3 8.9-7 0-.6-1.6-2.2-3.5-3.5l-3.4-2.3-4.7 3.1c-3.7 2.4-5.8 3.1-9.6 3.1-11.7 0-19.4-8.5-18.6-20.5.6-10 7-17.2 16.2-18.2 5.8-.7 8.7.1 12.5 3.3l3.1 2.6 3.5-2.6c1.9-1.5 3.5-3.1 3.5-3.5 0-2-7.3-7.1-12.2-8.6-5.5-1.6-8.2-1.7-13.8-.5ZM275.463 7.2c-1.3 2.9-7.1 15.6-13 28.1-5.8 12.6-10.6 23.1-10.6 23.3 0 .3 2.3.4 5.1.2 5.1-.3 5.1-.3 7.2-5.3 3.4-7.8 2.8-7.5 14.1-7.5 11.6 0 11.4-.1 14.4 7.5 1.8 4.6 2.2 5 5.7 5.3 6.9.6 6.9.5-.6-16-3.9-8.4-9.6-21-12.7-28-3.1-7-6-12.7-6.5-12.8-.4 0-1.8 2.4-3.1 5.2Zm7.1 22.3 3.1 7.5h-7c-6.6 0-6.9-.1-6.3-2.1 1.4-4.5 5.5-12.9 6.2-12.9.5 0 2.2 3.4 4 7.5ZM319.262 3.5c1.4 3.7 25 55.1 25.6 55.8.5.5 24-49 26.9-56.5.2-.5-2-.8-5-.6l-5.4.3-7.9 18.3c-4.3 10-8.1 18-8.4 17.7-.3-.2-4-8.5-8.2-18.2l-7.7-17.8-5.3-.3c-4.6-.3-5.2-.1-4.6 1.3ZM395.063 30.2l.3 28.3h35.8l.1-4.2.1-4.2-13.5-.3-13.5-.3v-15l10.9-.2 10.9-.1v-8.7l-11.2-.3-11.2-.3.3-6.7.3-6.7 13.3-.3 13.2-.3V2h-36l.2 28.2ZM459.863 30.4v28.7l4.3-.3 4.2-.3.3-11.8.3-11.7h9.9l4.6 9.2c7 14 7.7 14.8 13 14.8 2.5 0 4.4-.5 4.4-1.1 0-.6-2.5-6-5.6-12-3.1-6.1-5.5-11.1-5.3-11.3.2-.1 1.8-1.2 3.5-2.4 6.5-4.4 8.6-15.7 4.1-22.2-4.2-6.3-7.5-7.4-23.4-7.9l-14.3-.3v28.6Zm26.5-18c3.7 1.6 5.2 4.8 4.1 8.9-.8 3.4-4.6 4.7-13.6 4.7h-8V11h7c3.9 0 8.6.6 10.5 1.4ZM528.063 30.2l.3 28.3h9l.3-28.3.2-28.2h-10l.2 28.2ZM639.363 3.3c-.3.7-.4 13.4-.3 28.2l.3 27 4.8.3 4.7.3v-9.3c.1-9.1.1-9.4 3.5-13.1l3.3-3.8 3.9 5.3c2.2 2.9 6.4 8.8 9.3 13l5.4 7.8h5.3c2.9 0 5.3-.3 5.3-.6 0-.4-4.9-7.6-11-16.1-6-8.4-11-15.7-11-16.1 0-.4 4.7-5.9 10.5-12.1 5.8-6.2 10.5-11.4 10.5-11.7 0-.2-2.6-.4-5.7-.3h-5.8l-11.5 12.9-11.5 12.8-.3-12.9-.3-12.9h-4.5c-2.7 0-4.7.5-4.9 1.3ZM172.063 99.2l.3 14.3h3c3 0 3-.1 3.3-5.8l.3-5.7h15.9v-6h-8c-7.9 0-8 0-8-2.5V91h23v-6h-30.1l.3 14.2ZM219.863 95c0 6.9.5 11 1.5 12.9 4 7.8 25.9 8.2 30.9.6 1.2-1.8 1.6-5.1 1.6-13V84.9l-3.2.3-3.3.3-.3 9.6c-.3 12-1.4 13.4-10.2 13.4-9 0-10-1.4-10-13.7V85h-7v10ZM275.563 85.7c-1 .9-.8 25.5.1 27.1.7.9 4.2 1.2 14.3 1l13.4-.3.3-2.7.3-2.7-10.8-.3-10.8-.3-.3-11.3-.3-11.2h-2.8c-1.5 0-3.1.3-3.4.7ZM321.263 86.3c-.2.7-.3 7.1-.2 14.3l.3 12.9h3c3 0 3-.1 3.3-5.8l.3-5.7h15.9v-6h-8c-7.9 0-8 0-8-2.5V91h23v-6h-14.5c-11 0-14.7.3-15.1 1.3ZM369.863 85.5c0 .3-.1 6.3-.1 13.5 0 7.1.1 13.4.1 14 0 .5 1.4 1 3 1h3V85h-3c-1.6 0-3 .2-3 .5ZM397.263 86.3c-.2.7-.3 7.1-.2 14.3l.3 12.9 13.6.3 13.7.3.4-3.1.5-3H403.863V85h-3c-1.7 0-3.3.6-3.6 1.3ZM443.063 99.2l.3 14.3 13.8.3 13.7.3V108h-20.9l-.3-11.3-.3-11.2-3.3-.3-3.3-.3.3 14.3ZM489.063 99.2l.3 14.3 2.7.3 2.7.3.3-10.3.3-10.3 6.5 7.7c3.5 4.3 6.7 7.8 7.1 7.8.3 0 3.3-3.4 6.7-7.6l6.1-7.5.3 9.8.3 9.8 3.3.3 3.2.3V85h-3.9c-3.6 0-4.3.5-10.1 7.5l-6.2 7.5-6-7.5c-5.6-7.1-6.2-7.5-9.9-7.5h-4l.3 14.2ZM550.563 85.7c-.4.3-.7 6.4-.7 13.3 0 9.7.3 13 1.4 13.9.9.8 6 1.1 15.7.9l14.4-.3.3-2.7.3-2.7-12.3-.3-12.3-.3-.3-2.7-.3-2.7 8.3-.3c8.1-.3 8.3-.4 8.3-2.8s-.2-2.5-8.2-2.8c-8.1-.3-8.3-.3-8.3-2.7V91h24v-6h-14.8c-8.2 0-15.2.3-15.5.7ZM601.063 99.2l.3 14.3h6l.3-9.8.3-9.8 9.7 10.1c9.1 9.5 10 10.1 13.2 9.8l3.5-.3.3-14.3.3-14.2h-7.1v9.5c0 5.2-.4 9.5-.8 9.5-.5 0-4.8-4.3-9.6-9.5-8.2-8.9-9-9.5-12.7-9.5h-4l.3 14.2ZM651.863 88v3h13v10.9c0 11.5.2 12.1 5.1 12.1 1.8 0 1.9-.8 1.9-11.5V91.1l6.7-.3c6.5-.3 6.8-.4 6.7-2.8v-2.5l-16.7-.3-16.7-.2v3Z"
    fill="#fff"
  />
</svg>
