<svg fill="none" xmlns="http://www.w3.org/2000/svg" viewBox="0 0 324 58">
  <path
    d="M84.63 28.53c0-6.16 4.71-10.53 11.14-10.53 3.73 0 6.74 1.36 8.71 3.82l-3.64 3.3c-1.27-1.53-2.84-2.37-4.77-2.37-3.33 0-5.64 2.31-5.64 5.79s2.31 5.79 5.64 5.79c1.94 0 3.5-.84 4.77-2.37l3.64 3.3c-1.97 2.46-4.98 3.82-8.71 3.82-6.42 0-11.14-4.37-11.14-10.53v-.02Zm37.06 6.19h-8.56l-1.59 3.93h-5.84l8.94-20.25h5.64l8.97 20.25h-5.96l-1.59-3.93h-.01Zm-1.68-4.22-2.6-6.48-2.6 6.48h5.21-.01Zm30.56-4.6c0 4.6-3.47 7.46-9 7.46h-3.53v5.29h-5.73V18.4h9.26c5.53 0 9 2.86 9 7.49v.01Zm-5.79 0c0-1.88-1.19-2.98-3.56-2.98h-3.18v5.93h3.18c2.37 0 3.56-1.1 3.56-2.95Zm10.01-7.5h5.73v20.25h-5.73V18.4Zm15.57 4.55h-6.22v-4.54h18.14v4.54h-6.19v15.71h-5.73V22.95Zm28.07 11.77h-8.56l-1.59 3.93h-5.84l8.94-20.25h5.64l8.97 20.25h-5.96l-1.59-3.93h-.01Zm-1.68-4.22-2.61-6.48-2.6 6.48h5.21Zm12.3-12.1h5.73v15.71h9.66v4.54h-15.39V18.4Zm27.92 10.13c0-6.16 4.72-10.53 11.14-10.53 3.73 0 6.74 1.36 8.71 3.82l-3.65 3.3c-1.27-1.53-2.83-2.37-4.77-2.37-3.33 0-5.64 2.31-5.64 5.79s2.31 5.79 5.64 5.79c1.94 0 3.5-.84 4.77-2.37l3.65 3.3c-1.97 2.46-4.98 3.82-8.71 3.82-6.42 0-11.14-4.37-11.14-10.53v-.02Zm23.84-10.13h5.73v15.71h9.66v4.54h-15.39V18.4Zm18.72 11.23V18.41h5.73v11.05c0 3.47 1.45 4.86 3.85 4.86 2.4 0 3.82-1.39 3.82-4.86V18.41h5.64v11.22c0 6.05-3.53 9.43-9.52 9.43s-9.52-3.38-9.52-9.43Zm43.63 3.47c0 3.5-2.89 5.55-8.33 5.55h-10.94V18.4h10.36c5.32 0 7.93 2.17 7.93 5.29 0 1.94-.98 3.5-2.72 4.4 2.29.81 3.7 2.55 3.7 5v.01Zm-13.6-10.56v3.91h3.93c1.91 0 2.89-.67 2.89-1.97 0-1.3-.98-1.94-2.89-1.94h-3.93Zm7.81 9.92c0-1.39-1.04-2.05-3.01-2.05h-4.8v4.11h4.8c1.97 0 3.01-.67 3.01-2.05v-.01ZM29 0C12.985 0 0 12.985 0 29s12.985 29 29 29 29-12.985 29-29S45.015 0 29 0Zm5.792 47.34-1.08-9.786c3.011-1.668 5.06-4.873 5.06-8.554 0-5.386-4.38-9.773-9.772-9.773-5.393 0-9.773 4.38-9.773 9.773 0 3.68 2.05 6.892 5.061 8.554l-1.08 9.786C15.427 44.878 9.766 37.586 9.766 29 9.767 18.396 18.396 9.767 29 9.767c10.604 0 19.233 8.629 19.233 19.233 0 8.586-5.655 15.878-13.44 18.34Z"
    fill="#fff"
  />
</svg>
