<svg fill="none" xmlns="http://www.w3.org/2000/svg" viewBox="0 0 360 94">
  <path
    d="M120.63 43.79c0-6.16 4.71-10.53 11.14-10.53 3.73 0 6.74 1.36 8.71 3.82l-3.64 3.3c-1.27-1.53-2.84-2.37-4.77-2.37-3.33 0-5.64 2.31-5.64 5.79s2.31 5.79 5.64 5.79c1.94 0 3.5-.84 4.77-2.37l3.64 3.3c-1.97 2.46-4.98 3.82-8.71 3.82-6.42 0-11.14-4.37-11.14-10.53v-.02Zm37.06 6.19h-8.56l-1.59 3.93h-5.84l8.94-20.25h5.64l8.97 20.25h-5.96l-1.59-3.93h-.01Zm-1.68-4.22-2.6-6.48-2.6 6.48h5.21-.01Zm30.56-4.6c0 4.6-3.47 7.46-9 7.46h-3.53v5.29h-5.73V33.66h9.26c5.53 0 9 2.86 9 7.49v.01Zm-5.79 0c0-1.88-1.19-2.98-3.56-2.98h-3.18v5.93h3.18c2.37 0 3.56-1.1 3.56-2.95Zm10.01-7.5h5.73v20.25h-5.73V33.66Zm15.57 4.55h-6.22v-4.54h18.14v4.54h-6.19v15.71h-5.73V38.21Zm28.07 11.77h-8.56l-1.59 3.93h-5.84l8.94-20.25h5.64l8.97 20.25h-5.96l-1.59-3.93h-.01Zm-1.68-4.22-2.61-6.48-2.6 6.48h5.21Zm12.3-12.1h5.73v15.71h9.66v4.54h-15.39V33.66Zm27.92 10.13c0-6.16 4.72-10.53 11.14-10.53 3.73 0 6.74 1.36 8.71 3.82l-3.65 3.3c-1.27-1.53-2.83-2.37-4.77-2.37-3.33 0-5.64 2.31-5.64 5.79s2.31 5.79 5.64 5.79c1.94 0 3.5-.84 4.77-2.37l3.65 3.3c-1.97 2.46-4.98 3.82-8.71 3.82-6.42 0-11.14-4.37-11.14-10.53v-.02Zm23.84-10.13h5.73v15.71h9.66v4.54h-15.39V33.66Zm18.72 11.23V33.67h5.73v11.05c0 3.47 1.45 4.86 3.85 4.86 2.4 0 3.82-1.39 3.82-4.86V33.67h5.64v11.22c0 6.05-3.53 9.43-9.52 9.43s-9.52-3.38-9.52-9.43Zm43.63 3.47c0 3.5-2.89 5.55-8.33 5.55h-10.94V33.66h10.36c5.32 0 7.93 2.17 7.93 5.29 0 1.94-.98 3.5-2.72 4.4 2.29.81 3.7 2.55 3.7 5v.01Zm-13.6-10.56v3.91h3.93c1.91 0 2.89-.67 2.89-1.97 0-1.3-.98-1.94-2.89-1.94h-3.93Zm7.81 9.92c0-1.39-1.04-2.05-3.01-2.05h-4.8v4.11h4.8c1.97 0 3.01-.67 3.01-2.05v-.01Z"
    fill="#323D45"
  />
  <path
    d="M121.56 66.82v-4.01h.74v3.98c0 1.66.78 2.42 2.14 2.42s2.15-.76 2.15-2.42v-3.98h.72v4.01c0 2.01-1.08 3.05-2.87 3.05s-2.88-1.04-2.88-3.05Zm15.03-4.01v7h-.61l-4.5-5.68v5.68h-.74v-7h.61l4.51 5.68v-5.68h.73Zm3.48 0h.74v6.36h3.92v.64h-4.66v-7Zm6.33 3.5c0-2.04 1.56-3.56 3.68-3.56s3.67 1.51 3.67 3.56-1.57 3.56-3.67 3.56c-2.1 0-3.68-1.52-3.68-3.56Zm6.61 0c0-1.67-1.25-2.9-2.93-2.9-1.68 0-2.95 1.23-2.95 2.9s1.26 2.9 2.95 2.9c1.69 0 2.93-1.23 2.93-2.9Zm2.98 0c0-2.05 1.56-3.56 3.67-3.56 1.02 0 1.94.34 2.56 1.02l-.47.47c-.57-.58-1.27-.83-2.07-.83-1.69 0-2.96 1.24-2.96 2.9s1.27 2.9 2.96 2.9c.8 0 1.5-.25 2.07-.84l.47.47c-.62.68-1.54 1.03-2.57 1.03-2.1 0-3.66-1.51-3.66-3.56Zm11.18.21-1.43 1.45v1.84H165v-7h.74v4.23l4.11-4.23h.85l-3.03 3.17 3.24 3.83h-.88l-2.86-3.29Zm15.81 1.42c0 1.19-.88 1.87-2.63 1.87h-3.22v-7h3.02c1.56 0 2.46.66 2.46 1.8 0 .8-.43 1.33-1.07 1.59.9.2 1.44.79 1.44 1.74Zm-5.11-4.52v2.54h2.23c1.12 0 1.77-.43 1.77-1.27 0-.84-.65-1.27-1.77-1.27h-2.23Zm4.37 4.46c0-.91-.67-1.31-1.9-1.31h-2.47v2.63h2.47c1.23 0 1.9-.4 1.9-1.32Zm3.57-1.06v-4.01h.74v3.98c0 1.66.78 2.42 2.14 2.42s2.15-.76 2.15-2.42v-3.98h.72v4.01c0 2.01-1.08 3.05-2.87 3.05s-2.88-1.04-2.88-3.05Zm8.51 2.14.29-.57c.5.49 1.39.85 2.31.85 1.31 0 1.88-.55 1.88-1.24 0-1.92-4.31-.74-4.31-3.33 0-1.03.8-1.92 2.58-1.92.79 0 1.61.23 2.17.62l-.25.59c-.6-.39-1.3-.58-1.92-.58-1.28 0-1.85.57-1.85 1.27 0 1.92 4.31.76 4.31 3.31 0 1.03-.82 1.91-2.61 1.91-1.05 0-2.08-.37-2.6-.91Zm8.02-6.15h.74v7h-.74v-7Zm10.07 0v7h-.61l-4.5-5.68v5.68h-.74v-7h.61l4.51 5.68v-5.68h.73Zm8.43 6.36v.64h-4.95v-7h4.8v.64h-4.06v2.49h3.62v.63h-3.62v2.6h4.21Zm2.27-.21.29-.57c.5.49 1.39.85 2.31.85 1.31 0 1.88-.55 1.88-1.24 0-1.92-4.31-.74-4.31-3.33 0-1.03.8-1.92 2.58-1.92.79 0 1.61.23 2.17.62l-.25.59c-.6-.39-1.3-.58-1.92-.58-1.28 0-1.85.57-1.85 1.27 0 1.92 4.31.76 4.31 3.31 0 1.03-.82 1.91-2.61 1.91-1.05 0-2.08-.37-2.6-.91Zm7.35 0 .29-.57c.5.49 1.39.85 2.31.85 1.31 0 1.88-.55 1.88-1.24 0-1.92-4.31-.74-4.31-3.33 0-1.03.8-1.92 2.58-1.92.79 0 1.61.23 2.17.62l-.25.59c-.6-.39-1.3-.58-1.92-.58-1.28 0-1.85.57-1.85 1.27 0 1.92 4.31.76 4.31 3.31 0 1.03-.82 1.91-2.61 1.91-1.05 0-2.08-.37-2.6-.91Zm16.77-2.65h.71v2.67c-.66.59-1.6.89-2.57.89-2.13 0-3.69-1.51-3.69-3.56s1.56-3.56 3.7-3.56c1.06 0 1.98.34 2.6 1.01l-.46.47c-.59-.58-1.29-.82-2.11-.82-1.73 0-3 1.23-3 2.9s1.27 2.9 2.99 2.9c.67 0 1.29-.15 1.83-.54v-2.36Zm8.78 3.5-1.6-2.25c-.18.02-.36.03-.56.03h-1.88v2.22h-.74v-7h2.62c1.78 0 2.86.9 2.86 2.4 0 1.1-.58 1.87-1.6 2.2l1.71 2.4h-.81Zm-.04-4.6c0-1.12-.74-1.76-2.14-1.76h-1.86v3.51h1.86c1.4 0 2.14-.65 2.14-1.75Zm3.07 1.1c0-2.04 1.56-3.56 3.68-3.56s3.67 1.51 3.67 3.56-1.57 3.56-3.67 3.56c-2.1 0-3.68-1.52-3.68-3.56Zm6.61 0c0-1.67-1.25-2.9-2.93-2.9-1.68 0-2.95 1.23-2.95 2.9s1.26 2.9 2.95 2.9c1.69 0 2.93-1.23 2.93-2.9Zm12.99-3.5-2.36 7h-.78l-2.05-5.97-2.06 5.97h-.77l-2.36-7h.76l2.02 6.02 2.09-6.02h.69l2.06 6.05 2.05-6.05h.71Zm4.02.64h-2.46v-.64h5.66v.64h-2.46v6.36h-.74v-6.36Zm11.43-.64v7h-.73v-3.23h-4.38v3.23h-.74v-7h.74v3.12h4.38v-3.12h.73Z"
    fill="#878787"
  />
  <path
    d="M47.27.47C21.64.47.86 21.25.86 46.88c0 25.63 20.78 46.41 46.41 46.41 25.63 0 46.41-20.78 46.41-46.41C93.68 21.25 72.9.47 47.27.47Zm9.27 75.76-1.73-15.66c4.82-2.67 8.1-7.8 8.1-13.69 0-8.62-7.01-15.64-15.64-15.64s-15.64 7.01-15.64 15.64c0 5.89 3.28 11.03 8.1 13.69L38 76.23c-12.45-3.94-21.51-15.61-21.51-29.35 0-16.97 13.81-30.78 30.78-30.78s30.78 13.81 30.78 30.78c0 13.74-9.05 25.41-21.51 29.35Z"
    fill="#59B28B"
  />
</svg>
