<?xml version="1.0" encoding="UTF-8"?><svg xmlns="http://www.w3.org/2000/svg" viewBox="0 0 393.75 134.94"><defs><style>.c{fill:none;}.d{fill:#323d45;}.e{fill:#59b28b;}</style></defs><g id="a"><rect class="c" x="-.25" width="395.44" height="134.94"/><g><path class="d" d="M136.63,63.79c0-6.16,4.71-10.53,11.14-10.53,3.73,0,6.74,1.36,8.71,3.82l-3.64,3.3c-1.27-1.53-2.84-2.37-4.77-2.37-3.33,0-5.64,2.31-5.64,5.79s2.31,5.79,5.64,5.79c1.94,0,3.5-.84,4.77-2.37l3.64,3.3c-1.97,2.46-4.98,3.82-8.71,3.82-6.42,0-11.14-4.37-11.14-10.53Z"/><path class="d" d="M173.69,69.98h-8.56l-1.59,3.93h-5.84l8.94-20.25h5.64l8.97,20.25h-5.96l-1.59-3.93Zm-1.68-4.22l-2.6-6.48-2.6,6.48h5.21Z"/><path class="d" d="M202.57,61.16c0,4.6-3.47,7.46-9,7.46h-3.53v5.29h-5.73v-20.25h9.26c5.53,0,9,2.86,9,7.49Zm-5.79,0c0-1.88-1.19-2.98-3.56-2.98h-3.18v5.93h3.18c2.37,0,3.56-1.1,3.56-2.95Z"/><path class="d" d="M206.79,53.66h5.73v20.25h-5.73v-20.25Z"/><path class="d" d="M222.36,58.21h-6.22v-4.54h18.14v4.54h-6.19v15.71h-5.73v-15.71Z"/><path class="d" d="M250.43,69.98h-8.56l-1.59,3.93h-5.84l8.94-20.25h5.64l8.97,20.25h-5.96l-1.59-3.93Zm-1.68-4.22l-2.61-6.48-2.6,6.48h5.21Z"/><path class="d" d="M261.05,53.66h5.73v15.71h9.66v4.54h-15.39v-20.25Z"/><path class="d" d="M288.97,63.79c0-6.16,4.72-10.53,11.14-10.53,3.73,0,6.74,1.36,8.71,3.82l-3.65,3.3c-1.27-1.53-2.83-2.37-4.77-2.37-3.33,0-5.64,2.31-5.64,5.79s2.31,5.79,5.64,5.79c1.94,0,3.5-.84,4.77-2.37l3.65,3.3c-1.97,2.46-4.98,3.82-8.71,3.82-6.42,0-11.14-4.37-11.14-10.53Z"/><path class="d" d="M312.81,53.66h5.73v15.71h9.66v4.54h-15.39v-20.25Z"/><path class="d" d="M331.53,64.89v-11.22h5.73v11.05c0,3.47,1.45,4.86,3.85,4.86s3.82-1.39,3.82-4.86v-11.05h5.64v11.22c0,6.05-3.53,9.43-9.52,9.43s-9.52-3.38-9.52-9.43Z"/><path class="d" d="M375.16,68.36c0,3.5-2.89,5.55-8.33,5.55h-10.94v-20.25h10.36c5.32,0,7.93,2.17,7.93,5.29,0,1.94-.98,3.5-2.72,4.4,2.29,.81,3.7,2.55,3.7,5Zm-13.6-10.56v3.91h3.93c1.91,0,2.89-.67,2.89-1.97s-.98-1.94-2.89-1.94h-3.93Zm7.81,9.92c0-1.39-1.04-2.05-3.01-2.05h-4.8v4.11h4.8c1.97,0,3.01-.67,3.01-2.05Z"/></g><path class="e" d="M63.27,20.47c-25.63,0-46.41,20.78-46.41,46.41s20.78,46.41,46.41,46.41,46.41-20.78,46.41-46.41S88.9,20.47,63.27,20.47Zm9.27,75.76l-1.73-15.66c4.82-2.67,8.1-7.8,8.1-13.69,0-8.62-7.01-15.64-15.64-15.64s-15.64,7.01-15.64,15.64c0,5.89,3.28,11.03,8.1,13.69l-1.73,15.66c-12.45-3.94-21.51-15.61-21.51-29.35,0-16.97,13.81-30.78,30.78-30.78s30.78,13.81,30.78,30.78c0,13.74-9.05,25.41-21.51,29.35Z"/></g><g id="b"/></svg>