<svg xmlns="http://www.w3.org/2000/svg" viewBox="0 0 652 652" style="enable-background:new 0 0 652 652" xml:space="preserve"><path d="M623.6 280.6c1.6 1.7 1.9 3.5 1.3 5.8-1 3.8-1.8 7.7-2.7 11.5-.5 1.9-.9 4.2-3.4 3.8-1.6-.3-2.9-1.9-4-2.6-5.8 5.5-12.2 11.4-18.3 17.6-16.4 16.6-32.6 33.3-48.9 49.9-.6.6-1.2 1.2-1.9 1.7-1.9 1.3-3.8 1.4-5.4-.5-.7-.7-1.1-1.7-1.1-2.8 0-1 .4-2 1.1-2.8 1.9-2.3 4.1-4.3 6.2-6.5 20.1-20.5 40.1-41.1 60.2-61.6.5-.5 1-1.1 1.1-1.1-1.2-1.6-2.8-2.8-3-4.3-.4-2.4 1.9-3 3.7-3.6 4.1-1.5 8.1-3 12.1-4.5h3" style="fill:#309bdd"/><path d="M25.5 288.3c4.6-4.2 7.7-3.8 11.2 1.5l26.5 39.8c.6.9 1.2 1.7 2 2.9.7-1 1.3-1.8 1.8-2.6 9.1-13.6 18.1-27.2 27.2-40.8 1.3-2 2.7-3.5 5.3-3.4 3.3.1 5.1 1.6 5.3 5v71.8c0 1.1 0 2.1-.1 3.2s-.6 2.1-1.4 2.8c-.8.7-1.9 1.1-2.9 1-2.5.1-4.2-1.4-4.7-3.9-.1-1.1-.2-2.1-.1-3.2v-59.2c-1.1 1.6-1.8 2.3-2.3 3.2l-23.1 33.9c-3.7 5.4-6.5 5.4-10.3-.1-7.7-11.2-15.3-22.5-23-33.7-.5-.8-1.2-1.6-2.3-3.2V363.7c0 4.1-2 6.4-5.3 5.7-1.4-.3-2.5-1.7-3.7-2.5l-.1-78.6m305.8 43.1h39.8c3.7 0 5.3-1.2 5.5-3.9.2-2.9-1.6-4.6-5.1-4.6h-40.2v-28.3H377.1c3 0 5-1.7 5-4.2.1-2.5-1.9-4.3-4.9-4.3h-50.4c-3.4 0-5.2 1.8-5.2 5.1v72.4c0 3.6 1.8 5.2 5.4 5.2h51c2.9 0 4.6-1.7 4.7-4.1 0-2.3-1.9-4.1-4.6-4.3H331.2v-29m106.2-46.5c-8.1-.4-15.1 1.6-20.3 5.1-12.8 8.6-12.9 29.7 2.8 36.6 3.5 1.5 7.1 2.7 10.8 3.8 6.7 2.2 13.6 3.9 20.2 6.4 3.8 1.4 5.9 4.7 6.3 8.9.7 7.7-3.8 13.7-12.2 15.3-11.9 2.4-22.5-.9-31.8-8.6-2.6-2.2-5.3-2-6.9.2-1.7 2.2-1.1 4.8 1.5 6.8 7.5 5.8 15.9 9.5 25.3 10.4 9.1.8 17.8-.1 25.5-5.9 11-8.2 11.6-28-1.7-34.8-4.1-2-8.3-3.7-12.6-5.1-6.4-2.1-13-3.6-19.4-5.9-5.7-2.1-7.9-6.7-7.5-12.7.4-4.9 4-9.1 9.5-10.8 10.4-3.2 19.9-.5 28.7 5.2 3 2 5.7 1.7 7.3-.7 1.5-2.3.8-4.7-2.2-6.7-6.8-4.9-15-7.5-23.3-7.5m-241.7 29.6h-.4c0 8.3.4 16.6-.1 24.9-.6 11.2-7.2 19.1-17.6 21.4-12.2 2.7-24.5-1.2-29.5-12.4-2.5-5.7-2.8-11.7-2.8-17.8v-38.9c0-4-1.8-6.2-4.8-6.2s-4.6 2.1-4.6 6c0 15.1-.2 30.2.1 45.3.4 20.2 13.1 33 33.3 33.4 19.5.3 33.2-9.9 34.8-28.8 1.4-17.1.7-34.4.6-51.6 0-1.4-1.9-3.4-3.3-3.9-3.2-1.2-5.7 1.2-5.7 5.1-.1 7.8 0 15.6 0 23.5m71.7-19.8h22.2c4.1 0 6.3-1.5 6.3-4.3s-2.2-4.3-6.2-4.4H236.4c-1.1 0-2.1.1-3.2.2-2.3.4-3.6 1.8-3.6 4.2 0 2.4 1.4 3.7 3.6 4.2 1.2.1 2.3.2 3.5.1h21.1v67.6c-.1 1.1 0 2.1.1 3.2.5 2.5 2.1 4 4.7 3.9 2.7-.1 4.3-1.6 4.7-4.3.1-1 .1-1.9 0-2.9v-67.5m237.6 33V291c0-4.4-3.8-7.2-6.8-4.8-1.4 1.1-2.5 3.5-2.5 5.4-.2 24-.1 48-.1 72.1 0 3.7 1.9 5.9 4.8 5.8 2.9-.1 4.6-2.2 4.6-6v-35.8M625.5 365c-1.1-1.5-1.8-2.8-2.7-3.8-4.2-4.3-8.5-8.6-12.8-12.8l-16.2-16.2c-2.9-2.8-6.7-2.1-7.3 1.5-.1.8 0 1.6.3 2.4.3.8.7 1.5 1.2 2.1 9.6 9.9 19.4 19.6 29.2 29.4.4.4.9 1.1 1.5 1.2 1.4.1 3 .4 4.2-.2.9-.7 1.6-2.3 2.6-3.6M543 283.2c-1.3 1.2-3 2-3.4 3.2-.4 1.4-.1 3.6.9 4.5 9.9 10.1 19.9 20 29.9 30 1.9 1.9 4.1 2.2 6.2.3 1.8-1.6 1.7-4.2-.3-6.2-9.9-9.9-19.8-19.8-29.8-29.7-.9-.7-2.1-1.2-3.5-2.1"/></svg>