<svg fill="none" xmlns="http://www.w3.org/2000/svg" viewBox="0 0 140 21">
  <path
    d="m31.967 5.384-2.095 10.478h-1.99l-3.907-6.556-1.318 6.556H20.26l2.095-10.478h2.006l3.907 6.57 1.302-6.57h2.396ZM40.815 12.463h-6.167c.076 1.093.75 1.647 2.08 1.647.823 0 1.602-.27 2.156-.749l.973 1.542c-.927.75-2.14 1.078-3.367 1.078-2.515 0-4.116-1.423-4.116-3.607 0-2.696 1.946-4.686 4.745-4.686 2.35 0 3.832 1.392 3.832 3.547-.002.435-.06.854-.136 1.228Zm-6.003-1.362h3.997c0-1.063-.718-1.661-1.796-1.661-1.123 0-1.886.659-2.201 1.661ZM46.954 11.835l2.245 4.027H46.73l-1.318-2.47-2.32 2.47h-2.664l4.026-4.131-2.14-3.922h2.424l1.273 2.365 2.245-2.365h2.574l-3.876 4.026ZM53.995 13.018c-.03.12-.03.224-.03.329 0 .494.27.778.854.778.314 0 .645-.105.944-.284l.345 1.661c-.584.36-1.302.48-2.005.48-1.497 0-2.515-.84-2.515-2.246 0-.224.03-.465.075-.703l.643-3.248h-1.243l.36-1.797h1.242l.39-1.961h2.335L55 7.987h2.007l-.36 1.798H54.64l-.645 3.233ZM57 14.874l.988-1.871c.958.703 2.215 1.092 3.457 1.092 1.333 0 2.17-.464 2.17-1.228 0-1.676-5.194-.778-5.194-4.116 0-2.155 1.886-3.547 4.79-3.547 1.406 0 2.71.314 3.622.898l-.912 1.856c-.794-.54-1.812-.808-2.844-.808-1.407 0-2.23.54-2.23 1.287-.016 1.722 5.193.824 5.193 4.041 0 2.17-1.916 3.563-4.836 3.563-1.704 0-3.32-.508-4.204-1.167ZM81.563 10.413a4.8 4.8 0 0 1-.105.987l-.883 4.462H78.24l.853-4.296c.044-.226.06-.42.06-.615 0-.808-.433-1.243-1.272-1.243-1.077 0-1.826.628-2.11 2.021l-.823 4.131h-2.336l.854-4.296c.046-.226.06-.42.06-.598 0-.823-.434-1.258-1.272-1.258-1.092 0-1.827.628-2.126 2.05l-.808 4.102h-2.335l1.603-8.052h2.216l-.18.839c.703-.645 1.586-.959 2.53-.959 1.107 0 2.02.45 2.469 1.317.778-.854 1.826-1.317 3.068-1.317 1.72.002 2.872.944 2.872 2.725ZM92.397 7.81l-1.6 8.052H88.58l.15-.794c-.644.584-1.483.913-2.47.913-1.871 0-3.474-1.318-3.474-3.607 0-2.71 1.961-4.686 4.447-4.686 1.167 0 2.095.375 2.62 1.212l.209-1.092h2.335v.001Zm-3.053 3.59c0-1.092-.674-1.78-1.841-1.78-1.377 0-2.365 1.077-2.365 2.649 0 1.092.674 1.78 1.841 1.78 1.377.002 2.365-1.077 2.365-2.649ZM99.527 7.69l-.419 2.155c-.21-.014-.345-.03-.54-.03-1.376 0-2.26.644-2.559 2.156l-.778 3.892h-2.335l1.602-8.052h2.216l-.195.958c.717-.781 1.704-1.08 3.008-1.08ZM102.798 13.018c-.029.12-.029.224-.029.329 0 .494.269.778.853.778.314 0 .645-.105.944-.284l.345 1.661c-.584.36-1.302.48-2.005.48-1.497 0-2.515-.84-2.515-2.246 0-.224.031-.465.075-.703l.643-3.248h-1.243l.36-1.797h1.242l.39-1.961h2.335l-.389 1.96h2.006l-.36 1.798h-2.006l-.646 3.233ZM105.804 14.874l.988-1.871c.958.703 2.216 1.092 3.457 1.092 1.333 0 2.17-.464 2.17-1.228 0-1.676-5.194-.778-5.194-4.116 0-2.155 1.886-3.547 4.79-3.547 1.407 0 2.71.314 3.623.898l-.913 1.856c-.793-.54-1.812-.808-2.844-.808-1.406 0-2.23.54-2.23 1.287-.015 1.722 5.193.824 5.193 4.041 0 2.17-1.916 3.563-4.835 3.563-1.706 0-3.322-.508-4.205-1.167ZM125.008 10.444c0 .299-.031.613-.105.958l-.897 4.461h-2.336l.869-4.31c.044-.195.06-.39.06-.555 0-.823-.449-1.287-1.377-1.287-1.182 0-2.006.659-2.289 2.065l-.808 4.087h-2.335l2.215-11.107h2.336l-.749 3.787c.703-.584 1.571-.853 2.484-.853 1.75 0 2.932.956 2.932 2.754ZM127.567 7.81h2.321l-1.601 8.052h-2.321l1.601-8.053Zm.195-2.336c0-.778.613-1.392 1.542-1.392.823 0 1.377.509 1.377 1.168 0 .854-.628 1.437-1.557 1.437-.822-.001-1.362-.54-1.362-1.213ZM140 11.296c0 2.71-1.961 4.685-4.461 4.685-1.168 0-2.08-.374-2.605-1.197l-.793 3.982h-2.336l2.187-10.957h2.216l-.164.794c.643-.584 1.482-.913 2.469-.913 1.87 0 3.487 1.316 3.487 3.606Zm-2.365.105c0-1.093-.673-1.781-1.841-1.781-1.362 0-2.35 1.078-2.35 2.649 0 1.092.659 1.781 1.827 1.781 1.377.001 2.364-1.078 2.364-2.65ZM15.726.052c0 .02-.012.036-.028.044-.003.001-.006.001-.007.003h-.003c-.316.107-.59.302-.8.553-.002.006-.007.008-.008.011l-.095.127c0 .003-.002.006-.004.009l-6.373 8.66-.01.01-.033.046a.447.447 0 0 0 .377.682h5.663a.836.836 0 0 1 .641 1.372l-5.982 8.098-.025.034a.445.445 0 0 0 .1.604l.002.002.001.001c.012.009.02.024.02.038a.05.05 0 0 1-.045.05H.044a.048.048 0 0 1-.044-.05.05.05 0 0 1 .028-.044 1.788 1.788 0 0 0 .8-.548c.003-.003.006-.008.01-.01l.101-.138.006-.007 6.38-8.673.026-.036a.445.445 0 0 0-.369-.693h-5.66a.836.836 0 0 1-.645-1.369l5.982-8.1.025-.034a.443.443 0 0 0-.1-.604L6.583.088a.05.05 0 0 1-.021-.04c0-.026.02-.047.047-.048h9.07a.053.053 0 0 1 .047.052Z"
    fill="#0554F2"
  />
</svg>
