<svg fill="none" xmlns="http://www.w3.org/2000/svg" viewBox="0 0 286 42">
  <path
    d="m65.08 10.961-4.264 21.332h-4.052L48.81 18.945l-2.684 13.348H41.25l4.265-21.332H49.6l7.954 13.378 2.65-13.378h4.878ZM83.096 25.374H70.54c.153 2.224 1.525 3.353 4.235 3.353 1.675 0 3.26-.55 4.389-1.525l1.98 3.14c-1.887 1.524-4.358 2.194-6.855 2.194-5.12 0-8.38-2.897-8.38-7.345 0-5.486 3.962-9.538 9.662-9.538 4.784 0 7.8 2.833 7.8 7.221a12.98 12.98 0 0 1-.275 2.5Zm-12.222-2.773h8.136c0-2.164-1.461-3.383-3.655-3.383-2.287 0-3.84 1.342-4.481 3.383ZM95.594 24.096l4.571 8.197h-5.028l-2.683-5.028-4.724 5.028h-5.424l8.197-8.41-4.358-7.984h4.937l2.59 4.814 4.572-4.814h5.24l-7.89 8.197ZM109.929 26.503c-.06.243-.06.456-.06.67 0 1.005.549 1.584 1.737 1.584.64 0 1.312-.213 1.921-.58l.703 3.383c-1.189.733-2.651.976-4.082.976-3.047 0-5.121-1.708-5.121-4.571 0-.457.063-.946.153-1.432l1.309-6.612h-2.53l.732-3.659h2.53l.793-3.992h4.754l-.792 3.992h4.085l-.733 3.659h-4.088l-1.311 6.582ZM116.046 30.282l2.011-3.809c1.951 1.432 4.511 2.224 7.038 2.224 2.713 0 4.418-.945 4.418-2.5 0-3.413-10.574-1.585-10.574-8.38 0-4.388 3.839-7.222 9.752-7.222 2.863 0 5.516.64 7.374 1.828l-1.858 3.779c-1.614-1.099-3.688-1.645-5.789-1.645-2.864 0-4.542 1.099-4.542 2.62-.03 3.506 10.575 1.678 10.575 8.227 0 4.419-3.902 7.255-9.845 7.255-3.47 0-6.76-1.035-8.56-2.377ZM166.053 21.2c0 .639-.063 1.278-.213 2.01l-1.798 9.083h-4.754l1.738-8.747c.09-.459.123-.855.123-1.251 0-1.645-.883-2.53-2.591-2.53-2.194 0-3.719 1.278-4.298 4.115l-1.675 8.41h-4.754l1.738-8.747c.093-.459.123-.855.123-1.218 0-1.675-.885-2.56-2.59-2.56-2.224 0-3.719 1.278-4.328 4.175l-1.645 8.35h-4.755l3.263-16.394h4.511l-.366 1.707c1.432-1.311 3.23-1.95 5.151-1.95 2.254 0 4.115.915 5.027 2.68 1.585-1.738 3.719-2.68 6.246-2.68 3.503.003 5.847 1.92 5.847 5.546ZM188.111 15.899l-3.26 16.394h-4.511l.303-1.615c-1.309 1.188-3.016 1.858-5.027 1.858-3.809 0-7.072-2.684-7.072-7.345 0-5.517 3.992-9.538 9.053-9.538 2.377 0 4.265.762 5.333 2.467l.426-2.224h4.755v.003Zm-6.216 7.311c0-2.224-1.372-3.626-3.749-3.626-2.803 0-4.814 2.195-4.814 5.394 0 2.224 1.371 3.626 3.748 3.626 2.804.003 4.815-2.194 4.815-5.394ZM202.626 15.656l-.853 4.388c-.426-.03-.702-.06-1.098-.06-2.803 0-4.601 1.308-5.211 4.388l-1.584 7.924h-4.755l3.263-16.394h4.511l-.396 1.95c1.459-1.59 3.47-2.196 6.123-2.196ZM209.286 26.503c-.06.243-.06.456-.06.67 0 1.005.549 1.584 1.738 1.584.639 0 1.312-.213 1.921-.58l.702 3.383c-1.188.733-2.65.976-4.082.976-3.046 0-5.12-1.708-5.12-4.571 0-.457.063-.946.153-1.432l1.308-6.612h-2.53l.733-3.659h2.53l.792-3.992h4.754l-.792 3.992h4.085l-.732 3.659h-4.085l-1.315 6.582ZM215.406 30.282l2.011-3.809c1.951 1.432 4.511 2.224 7.038 2.224 2.714 0 4.419-.945 4.419-2.5 0-3.413-10.575-1.585-10.575-8.38 0-4.388 3.839-7.222 9.752-7.222 2.864 0 5.517.64 7.375 1.828l-1.858 3.779c-1.615-1.099-3.689-1.645-5.79-1.645-2.863 0-4.541 1.099-4.541 2.62-.03 3.506 10.574 1.678 10.574 8.227 0 4.419-3.902 7.255-9.845 7.255-3.472 0-6.762-1.035-8.56-2.377ZM254.503 21.262c0 .61-.063 1.249-.213 1.951l-1.828 9.083h-4.754l1.768-8.777c.09-.396.123-.792.123-1.128 0-1.675-.916-2.62-2.804-2.62-2.407 0-4.085 1.341-4.661 4.205l-1.645 8.32h-4.754l4.511-22.613h4.755l-1.525 7.71c1.432-1.188 3.199-1.738 5.057-1.738 3.563 0 5.97 1.949 5.97 5.607ZM259.714 15.899h4.724l-3.26 16.394h-4.724l3.26-16.394Zm.396-4.755c0-1.584 1.248-2.833 3.139-2.833 1.675 0 2.804 1.036 2.804 2.377 0 1.738-1.279 2.927-3.17 2.927-1.675-.003-2.773-1.099-2.773-2.47ZM285.025 22.997c0 5.517-3.992 9.539-9.082 9.539-2.378 0-4.235-.762-5.304-2.437l-1.615 8.107h-4.754l4.451-22.307h4.511l-.333 1.615c1.309-1.189 3.017-1.858 5.028-1.858 3.805 0 7.098 2.68 7.098 7.341Zm-4.814.213c0-2.224-1.372-3.625-3.749-3.625-2.774 0-4.784 2.194-4.784 5.393 0 2.224 1.341 3.626 3.718 3.626 2.804.003 4.815-2.194 4.815-5.394ZM32.017.105a.097.097 0 0 1-.057.09c-.006.003-.012.003-.015.006h-.006c-.643.22-1.201.615-1.627 1.126-.006.012-.015.018-.018.024l-.192.258c0 .006-.006.012-.01.018l-12.975 17.63-.018.021-.069.093a.909.909 0 0 0 .769 1.39h11.528a1.702 1.702 0 0 1 1.306 2.791L18.453 40.04l-.051.07a.905.905 0 0 0 .204 1.23l.003.003s.003 0 .003.003a.1.1 0 0 1 .04.078.1.1 0 0 1-.09.1H.09a.098.098 0 0 1-.09-.1.1.1 0 0 1 .057-.09 3.642 3.642 0 0 0 1.63-1.117c.006-.005.012-.014.018-.017l.207-.282a.082.082 0 0 0 .012-.016l12.99-17.657.051-.072a.906.906 0 0 0-.75-1.41H2.692a1.702 1.702 0 0 1-1.42-2.645c.034-.051.07-.1.106-.144l12.18-16.49.05-.07a.901.901 0 0 0-.204-1.23L13.402.18A.104.104 0 0 1 13.36.1.1.1 0 0 1 13.456 0H31.92a.107.107 0 0 1 .096.105Z"
    fill="#0554F2"
  />
</svg>
