<?xml version="1.0" encoding="utf-8"?>
<!-- Generator: Adobe Illustrator 25.2.1, SVG Export Plug-In . SVG Version: 6.00 Build 0)  -->
<svg version="1.1" id="图层_1" xmlns="http://www.w3.org/2000/svg" xmlns:xlink="http://www.w3.org/1999/xlink" x="0px" y="0px"
	 viewBox="0 0 1366 768" style="enable-background:new 0 0 1366 768;" xml:space="preserve">
<style type="text/css">
	.st0{fill:#0554F2;}
</style>
<g>
	<g>
		<g>
			<path class="st0" d="M376.68,480.75l-13.34,66.68h-12.67l-24.86-41.72l-8.38,41.72h-15.24l13.34-66.68h12.77l24.86,41.82
				l8.29-41.82H376.68z"/>
			<path class="st0" d="M432.98,525.81h-39.25c0.48,6.95,4.76,10.48,13.24,10.48c5.24,0,10.19-1.72,13.72-4.76l6.19,9.81
				c-5.9,4.76-13.62,6.86-21.43,6.86c-16,0-26.2-9.05-26.2-22.96c0-17.15,12.39-29.82,30.2-29.82c14.96,0,24.39,8.86,24.39,22.58
				C433.84,520.76,433.46,523.42,432.98,525.81z M394.78,517.14h25.44c0-6.76-4.57-10.57-11.43-10.57
				C401.64,506.57,396.78,510.76,394.78,517.14z"/>
			<path class="st0" d="M472.05,521.81l14.29,25.63h-15.72l-8.38-15.72l-14.77,15.72h-16.96l25.63-26.29l-13.62-24.96h15.43
				l8.1,15.05l14.29-15.05h16.38L472.05,521.81z"/>
			<path class="st0" d="M516.86,529.33c-0.19,0.76-0.19,1.43-0.19,2.1c0,3.14,1.71,4.95,5.43,4.95c2,0,4.1-0.67,6-1.81l2.19,10.57
				c-3.72,2.29-8.29,3.05-12.76,3.05c-9.53,0-16.01-5.34-16.01-14.29c0-1.43,0.19-2.95,0.48-4.48l4.1-20.67h-7.91l2.29-11.43h7.91
				l2.48-12.48h14.86l-2.48,12.48h12.77l-2.29,11.43h-12.77L516.86,529.33z"/>
			<path class="st0" d="M535.99,541.14l6.29-11.91c6.1,4.48,14.1,6.95,22.01,6.95c8.48,0,13.81-2.95,13.81-7.81
				c0-10.67-33.06-4.95-33.06-26.2c0-13.72,12-22.58,30.48-22.58c8.95,0,17.24,2,23.05,5.71l-5.81,11.81
				c-5.05-3.43-11.53-5.14-18.1-5.14c-8.95,0-14.19,3.43-14.19,8.19c-0.1,10.96,33.06,5.24,33.06,25.72
				c0,13.81-12.19,22.67-30.77,22.67C551.9,548.58,541.61,545.34,535.99,541.14z"/>
			<path class="st0" d="M692.31,512.76c0,2-0.19,4-0.67,6.29l-5.62,28.39h-14.86l5.43-27.34c0.29-1.43,0.38-2.67,0.38-3.91
				c0-5.14-2.76-7.91-8.1-7.91c-6.86,0-11.62,4-13.43,12.86l-5.24,26.29h-14.86l5.43-27.34c0.29-1.43,0.38-2.67,0.38-3.81
				c0-5.24-2.76-8-8.1-8c-6.95,0-11.62,4-13.53,13.05l-5.14,26.1h-14.86l10.19-51.25h14.1l-1.14,5.34c4.48-4.1,10.1-6.1,16.1-6.1
				c7.05,0,12.86,2.86,15.72,8.38c4.95-5.43,11.62-8.38,19.53-8.38C684.97,495.42,692.31,501.42,692.31,512.76z"/>
			<path class="st0" d="M761.26,496.18l-10.19,51.25h-14.1l0.95-5.05c-4.1,3.72-9.43,5.81-15.72,5.81c-11.91,0-22.1-8.38-22.1-22.96
				c0-17.24,12.48-29.82,28.29-29.82c7.43,0,13.33,2.38,16.67,7.72l1.33-6.95H761.26z M741.83,519.04c0-6.95-4.29-11.34-11.72-11.34
				c-8.76,0-15.05,6.86-15.05,16.86c0,6.95,4.29,11.34,11.72,11.34C735.54,535.91,741.83,529.05,741.83,519.04z"/>
			<path class="st0" d="M806.63,495.42l-2.67,13.72c-1.33-0.1-2.19-0.19-3.43-0.19c-8.76,0-14.39,4.1-16.29,13.72l-4.95,24.77
				h-14.86l10.19-51.25h14.1l-1.24,6.1C792.05,497.32,798.34,495.42,806.63,495.42z"/>
			<path class="st0" d="M827.45,529.33c-0.19,0.76-0.19,1.43-0.19,2.1c0,3.14,1.71,4.95,5.43,4.95c2,0,4.1-0.67,6-1.81l2.19,10.57
				c-3.72,2.29-8.29,3.05-12.76,3.05c-9.53,0-16.01-5.34-16.01-14.29c0-1.43,0.19-2.95,0.48-4.48l4.1-20.67h-7.91l2.29-11.43h7.91
				l2.48-12.48h14.86l-2.48,12.48h12.77l-2.29,11.43h-12.77L827.45,529.33z"/>
			<path class="st0" d="M846.58,541.14l6.29-11.91c6.1,4.48,14.1,6.95,22.01,6.95c8.48,0,13.81-2.95,13.81-7.81
				c0-10.67-33.06-4.95-33.06-26.2c0-13.72,12-22.58,30.48-22.58c8.95,0,17.24,2,23.05,5.71l-5.81,11.81
				c-5.05-3.43-11.53-5.14-18.1-5.14c-8.95,0-14.19,3.43-14.19,8.19c-0.1,10.96,33.06,5.24,33.06,25.72
				c0,13.81-12.19,22.67-30.77,22.67C862.49,548.58,852.2,545.34,846.58,541.14z"/>
			<path class="st0" d="M968.79,512.95c0,1.9-0.19,3.91-0.67,6.1l-5.72,28.39h-14.86l5.53-27.43c0.29-1.24,0.38-2.48,0.38-3.53
				c0-5.24-2.86-8.19-8.76-8.19c-7.53,0-12.77,4.19-14.58,13.15l-5.14,26.01h-14.86l14.1-70.68h14.86l-4.76,24.1
				c4.48-3.72,10-5.43,15.81-5.43C961.27,495.42,968.79,501.52,968.79,512.95z"/>
			<path class="st0" d="M985.09,496.18h14.77l-10.19,51.25h-14.77L985.09,496.18z M986.32,481.32c0-4.95,3.91-8.86,9.81-8.86
				c5.24,0,8.76,3.24,8.76,7.43c0,5.43-4,9.14-9.91,9.14C989.75,489.04,986.32,485.61,986.32,481.32z"/>
			<path class="st0" d="M1064.21,518.38c0,17.24-12.48,29.82-28.39,29.82c-7.43,0-13.24-2.38-16.57-7.62l-5.05,25.34h-14.86
				l13.91-69.73h14.1l-1.05,5.05c4.1-3.72,9.43-5.81,15.72-5.81C1053.92,495.42,1064.21,503.8,1064.21,518.38z M1049.15,519.04
				c0-6.95-4.29-11.34-11.72-11.34c-8.67,0-14.96,6.86-14.96,16.86c0,6.95,4.19,11.34,11.62,11.34
				C1042.87,535.91,1049.15,529.05,1049.15,519.04z"/>
		</g>
	</g>
	<path class="st0" d="M767.63,203.53c0,0.21-0.13,0.4-0.31,0.48c-0.03,0.01-0.06,0.02-0.09,0.03c-0.01,0-0.02,0.01-0.03,0.01
		c-3.38,1.16-6.34,3.24-8.58,5.94c-0.04,0.06-0.08,0.1-0.1,0.13l-1.01,1.36c0,0.04-0.04,0.06-0.05,0.1l-68.45,93.01l-0.1,0.12
		l-0.36,0.5c-0.46,0.75-0.73,1.61-0.73,2.54c0,2.64,2.14,4.78,4.78,4.78h60.82c4.95,0,8.97,4.01,8.97,8.97
		c0,1.81-0.53,3.5-1.45,4.92c-0.19,0.29-0.4,0.55-0.63,0.84l-64.24,86.96l-0.27,0.36c-0.51,0.77-0.82,1.68-0.82,2.68
		c0,1.56,0.75,2.94,1.9,3.81c0.01,0.01,0.01,0.01,0.02,0.02c0,0,0.01,0,0.01,0.01c0.13,0.09,0.21,0.25,0.21,0.42
		c0,0.27-0.21,0.5-0.47,0.52h-97.43c-0.27-0.02-0.47-0.25-0.47-0.52c0-0.21,0.12-0.39,0.3-0.48c0.04-0.01,0.08-0.03,0.12-0.04
		c3.35-1.15,6.27-3.19,8.49-5.85c0.04-0.04,0.06-0.08,0.1-0.1l1.09-1.49c0.02-0.02,0.04-0.04,0.06-0.08l68.53-93.14l0.27-0.38
		c0.51-0.77,0.82-1.68,0.82-2.66c0-2.64-2.14-4.78-4.78-4.78h-60.78c-4.95,0-8.97-4.02-8.97-8.97c0-1.84,0.55-3.56,1.49-4.97
		c0.17-0.27,0.36-0.52,0.55-0.77l64.24-86.98l0.27-0.36c0.51-0.76,0.82-1.68,0.82-2.68c0-1.56-0.75-2.95-1.91-3.82
		c0-0.01-0.01-0.01-0.01-0.01c-0.13-0.1-0.22-0.25-0.22-0.43c0-0.28,0.22-0.51,0.5-0.52h97.4
		C767.41,203.01,767.63,203.24,767.63,203.53z"/>
</g>
</svg>
