<?xml version="1.0" standalone="no"?>
<!DOCTYPE svg PUBLIC "-//W3C//DTD SVG 1.0//EN" "http://www.w3.org/TR/2001/REC-SVG-20010904/DTD/svg10.dtd">
<svg xmlns="http://www.w3.org/2000/svg" xmlns:xlink="http://www.w3.org/1999/xlink" id="body_1" width="205" height="154">

<g transform="matrix(0.5 0 0 0.50162864 0 0)">
	<g transform="matrix(0.3001464 0 0 0.3001464 -0 38.243782)">
		<g>
			<g>
				<g>
                    <path d="M425.21 351.79L411 422.86L397.5 422.86L371 378.39L362.06 422.86002L345.81 422.86002L360.02 351.79L373.62997 351.79L400.12997 396.36002L408.95996 351.79L425.21 351.79z" stroke="none" fill="#0554F2" fill-rule="nonzero" />
                    <path d="M485.23 399.81L443.4 399.81C 443.91 407.22 448.47998 410.98 457.50998 410.98C 463.08997 410.98 468.36996 409.15002 472.12997 405.90002L472.12997 405.90002L478.72998 416.36002C 472.43997 421.44 464.21 423.67 455.88998 423.67C 438.83 423.67 427.96997 414.02002 427.96997 399.2C 427.96997 380.92 441.16998 367.42 460.15997 367.42C 476.09998 367.42 486.14996 376.86002 486.14996 391.48C 486.14 394.43 485.74 397.27 485.23 399.81zM444.51 390.57L471.62 390.57C 471.62 383.36002 466.75 379.30002 459.44 379.30002C 451.82 379.3 446.65 383.77 444.51 390.57z" stroke="none" fill="#0554F2" fill-rule="nonzero" />
                    <path d="M526.87 395.55L542.1 422.86L525.35 422.86L516.41 406.11L500.66998 422.86L482.6 422.86L509.91 394.84L495.39 368.24L511.84003 368.24L520.47003 384.28L535.7 368.24L553.16003 368.24L526.87 395.55z" stroke="none" fill="#0554F2" fill-rule="nonzero" />
                    <path d="M574.63 403.57C 574.43 404.38 574.43 405.09 574.43 405.80002C 574.43 409.15002 576.26 411.08002 580.22 411.08002C 582.35 411.08002 584.58997 410.37003 586.62 409.15002L586.62 409.15002L588.96 420.42C 585 422.86002 580.13 423.67 575.36005 423.67C 565.21 423.67 558.30005 417.98 558.30005 408.44C 558.30005 406.92 558.5101 405.29 558.81006 403.67L558.81006 403.67L563.17004 381.64L554.74005 381.64L557.18005 369.45L565.61005 369.45L568.25006 356.15002L584.0901 356.15002L581.4501 369.45L595.06006 369.45L592.62006 381.64L579 381.64L574.63 403.57z" stroke="none" fill="#0554F2" fill-rule="nonzero" />
                    <path d="M595.01 416.16L601.71 403.47C 608.21 408.24 616.74005 410.88 625.16003 410.88C 634.2 410.88 639.88 407.73 639.88 402.55002C 639.88 391.18002 604.65 397.27002 604.65 374.63C 604.65 360.01 617.44 350.57 637.14 350.57C 646.68 350.57 655.52 352.7 661.71 356.66L661.71 356.66L655.52 369.25C 650.14 365.59 643.23004 363.77 636.23004 363.77C 626.69006 363.77 621.10004 367.43 621.10004 372.5C 621.00006 384.18 656.33 378.09 656.33 399.91C 656.33 414.63 643.33 424.08002 623.53 424.08002C 611.97 424.08 601.01 420.63 595.01 416.16z" stroke="none" fill="#0554F2" fill-rule="nonzero" />
                    <path d="M761.62 385.9C 761.62 388.03 761.41 390.16 760.91 392.6L760.91 392.6L754.92 422.86002L739.07996 422.86002L744.86993 393.72003C 745.1699 392.19003 745.2799 390.87003 745.2799 389.55002C 745.2799 384.07 742.3399 381.12003 736.6499 381.12003C 729.3399 381.12003 724.2599 385.38004 722.3299 394.83002L722.3299 394.83002L716.7499 422.85L700.90985 422.85L706.6998 393.71002C 707.0098 392.18002 707.1098 390.86002 707.1098 389.65002C 707.1098 384.07004 704.1598 381.12003 698.4798 381.12003C 691.0698 381.12003 686.0898 385.38004 684.0598 395.03003L684.0598 395.03003L678.57983 422.85004L662.7398 422.85004L673.6098 368.23004L688.63983 368.23004L687.41986 373.92004C 692.1899 369.55005 698.1799 367.42004 704.57983 367.42004C 712.08984 367.42004 718.28986 370.47003 721.32983 376.35004C 726.60986 370.56003 733.71985 367.42004 742.13983 367.42004C 753.81 367.43 761.62 373.82 761.62 385.9z" stroke="none" fill="#0554F2" fill-rule="nonzero" />
                    <path d="M835.11 368.24L824.25 422.86L809.22 422.86L810.23 417.47998C 805.87 421.43997 800.18 423.66998 793.48 423.66998C 780.79 423.66998 769.92 414.72998 769.92 399.19998C 769.92 380.81998 783.22 367.41998 800.07996 367.41998C 807.99994 367.41998 814.29 369.96 817.85 375.63998L817.85 375.63998L819.26996 368.22998L835.11 368.22998L835.11 368.24zM814.4 392.6C 814.4 385.19 809.83 380.52002 801.91003 380.52002C 792.57 380.52002 785.87006 387.83002 785.87006 398.49002C 785.87006 405.90002 790.44006 410.57 798.36005 410.57C 807.7 410.58 814.4 403.26 814.4 392.6z" stroke="none" fill="#0554F2" fill-rule="nonzero" />
                    <path d="M883.47 367.43L880.62994 382.05C 879.20996 381.94998 878.2899 381.84998 876.97 381.84998C 867.62994 381.84998 861.63995 386.20996 859.61 396.46997L859.61 396.46997L854.32996 422.86996L838.4899 422.86996L849.3599 368.24997L864.38995 368.24997L863.06995 374.74997C 867.93 369.45 874.63 367.43 883.47 367.43z" stroke="none" fill="#0554F2" fill-rule="nonzero" />
                    <path d="M905.66 403.57C 905.45996 404.38 905.45996 405.09 905.45996 405.80002C 905.45996 409.15002 907.29 411.08002 911.24994 411.08002C 913.37994 411.08002 915.61993 410.37003 917.64996 409.15002L917.64996 409.15002L919.99 420.42C 916.02997 422.86002 911.16 423.67 906.39 423.67C 896.24 423.67 889.33 417.98 889.33 408.44C 889.33 406.92 889.54004 405.29 889.84 403.67L889.84 403.67L894.2 381.64L885.77 381.64L888.21 369.45L896.64 369.45L899.28 356.15002L915.12006 356.15002L912.48004 369.45L926.09 369.45L923.65 381.64L910.04004 381.64L905.66 403.57z" stroke="none" fill="#0554F2" fill-rule="nonzero" />
                    <path d="M926.05 416.16L932.75 403.47C 939.25 408.24 947.78 410.88 956.2 410.88C 965.24 410.88 970.92 407.73 970.92 402.55002C 970.92 391.18002 935.69 397.27002 935.69 374.63C 935.69 360.01 948.48 350.57 968.18 350.57C 977.72 350.57 986.56 352.7 992.75 356.66L992.75 356.66L986.56 369.25C 981.18 365.59 974.27 363.77 967.27 363.77C 957.73004 363.77 952.14 367.43 952.14 372.5C 952.04004 384.18 987.37 378.09 987.37 399.91C 987.37 414.63 974.37 424.08002 954.57 424.08002C 943 424.08 932.04 420.63 926.05 416.16z" stroke="none" fill="#0554F2" fill-rule="nonzero" />
                    <path d="M1056.31 386.11C 1056.31 388.13998 1056.1001 390.27 1055.6001 392.61L1055.6001 392.61L1049.5101 422.87L1033.6702 422.87L1039.5602 393.63C 1039.8602 392.31 1039.9702 390.99 1039.9702 389.87C 1039.9702 384.29 1036.9202 381.13998 1030.6302 381.13998C 1022.6102 381.13998 1017.02026 385.61 1015.1002 395.15L1015.1002 395.15L1009.62024 422.87L993.7802 422.87L1008.81024 347.53L1024.6503 347.53L1019.57025 373.22C 1024.3402 369.26 1030.2302 367.43 1036.4203 367.43C 1048.29 367.43 1056.31 373.92 1056.31 386.11z" stroke="none" fill="#0554F2" fill-rule="nonzero" />
                    <path d="M1073.67 368.24L1089.41 368.24L1078.55 422.86L1062.81 422.86L1073.67 368.24zM1074.99 352.4C 1074.99 347.12 1079.15 342.96 1085.45 342.96C 1091.0299 342.96 1094.7899 346.41 1094.7899 350.88C 1094.7899 356.67 1090.5299 360.63 1084.2299 360.63C 1078.65 360.62 1074.99 356.97 1074.99 352.4z" stroke="none" fill="#0554F2" fill-rule="nonzero" />
                    <path d="M1158 391.89C 1158 410.27002 1144.7 423.67 1127.74 423.67C 1119.82 423.67 1113.63 421.13 1110.07 415.55002L1110.07 415.55002L1104.69 442.56003L1088.85 442.56003L1103.6799 368.24002L1118.71 368.24002L1117.6 373.62003C 1121.96 369.66003 1127.65 367.43002 1134.35 367.43002C 1147.03 367.43 1158 376.36 1158 391.89zM1141.96 392.6C 1141.96 385.19 1137.39 380.52002 1129.47 380.52002C 1120.23 380.52002 1113.53 387.83002 1113.53 398.49002C 1113.53 405.90002 1118 410.57 1125.92 410.57C 1135.26 410.58 1141.96 403.26 1141.96 392.6z" stroke="none" fill="#0554F2" fill-rule="nonzero" />
				</g>
			</g>
            <path d="M315.05 315.62C 315.05 315.76 314.97 315.87 314.86 315.91998C 314.84 315.93 314.81998 315.93 314.81 315.93997C 314.8 315.93997 314.8 315.93997 314.79 315.93997C 312.65 316.66998 310.79 317.98996 309.37 319.68997C 309.35 319.72998 309.32 319.74997 309.31 319.76996L309.31 319.76996L308.66998 320.62994C 308.66998 320.64993 308.65 320.66995 308.63998 320.68994L308.63998 320.68994L265.40997 379.42993L265.34998 379.49994L265.11996 379.80994C 264.82996 380.27994 264.65997 380.81995 264.65997 381.41992C 264.65997 383.08994 266.00998 384.4399 267.67996 384.4399L267.67996 384.4399L306.08997 384.4399C 309.21997 384.4399 311.75998 386.97992 311.75998 390.10992C 311.75998 391.25992 311.41998 392.31992 310.83997 393.20993C 310.71997 393.38992 310.58997 393.55994 310.43997 393.73993L310.43997 393.73993L269.86 448.66992L269.68997 448.89993C 269.36996 449.37994 269.16998 449.95993 269.16998 450.58994C 269.16998 451.56995 269.63998 452.44992 270.37 452.99994C 270.37 452.99994 270.38 453.00995 270.38 453.00995C 270.38 453.00995 270.39 453.00995 270.39 453.01996C 270.47 453.07996 270.52002 453.17996 270.52002 453.27997C 270.52002 453.44998 270.39 453.58997 270.22003 453.60995L270.22003 453.60995L208.68002 453.60995C 208.51003 453.59995 208.38002 453.44995 208.38002 453.27997C 208.38002 453.14996 208.46002 453.02997 208.57002 452.97998C 208.60002 452.96997 208.62003 452.96 208.64003 452.94998C 210.75003 452.22998 212.60004 450.93 214.00003 449.25998C 214.02003 449.24 214.04002 449.21 214.06003 449.19998L214.06003 449.19998L214.75003 448.25998C 214.76003 448.24997 214.77003 448.24 214.79002 448.21L214.79002 448.21L258.07 389.38L258.24002 389.14C 258.56003 388.66 258.76 388.08002 258.76 387.46002C 258.76 385.79 257.41 384.44003 255.74 384.44003L255.74 384.44003L217.35 384.44003C 214.22 384.44003 211.68001 381.90002 211.68001 378.77002C 211.68001 377.61002 212.03001 376.52002 212.62001 375.63C 212.73001 375.46 212.85 375.30002 212.97002 375.15L212.97002 375.15L253.55002 320.21L253.72002 319.97998C 254.04002 319.49997 254.24002 318.91998 254.24002 318.28998C 254.24002 317.3 253.77002 316.43 253.04002 315.87997C 253.04002 315.87997 253.03003 315.86996 253.03003 315.86996C 252.95003 315.80997 252.89003 315.70996 252.89003 315.59998C 252.89003 315.41998 253.03003 315.27997 253.21004 315.27L253.21004 315.27L314.73004 315.27C 314.91 315.29 315.05 315.44 315.05 315.62z" stroke="none" fill="#0554F2" fill-rule="nonzero" />
		</g>
	</g>
</g>
</svg>
