<?xml version="1.0" encoding="UTF-8"?>
<svg width="1000px" height="409px" viewBox="0 0 1000 409" version="1.1" xmlns="http://www.w3.org/2000/svg" xmlns:xlink="http://www.w3.org/1999/xlink">
    <!-- Generator: Sketch 57 (83077) - https://sketch.com -->
    <title>Logo</title>
    <desc>Created with Sketch.</desc>
    <g id="Logo" stroke="none" stroke-width="1" fill="none" fill-rule="evenodd">
        <g id="Group-6-Copy" transform="translate(7.000000, 0.000000)" fill="#4268CC" fill-rule="nonzero">
            <polygon id="Path" points="0.0655200623 6.75417189 57.7231138 6.75417189 118.345955 91.4284667 118.345955 6.75417189 187.205596 6.75417189 187.205596 226.511972 129.21853 226.511972 68.9251606 142.167149 68.9251606 226.511972 0.0655200623 226.511972"></polygon>
            <path d="M300.21448,232.112995 C286.376588,232.112995 273.856778,230.355829 262.654676,226.841444 C251.452573,223.327059 241.897981,218.05556 233.990615,211.02679 C226.083248,203.998019 219.988078,195.102365 215.704921,184.339561 C211.421764,173.576756 209.280217,160.947124 209.280217,146.450285 L209.280217,6.75417189 L279.457746,6.75417189 L279.457746,143.485037 C279.457746,151.172755 281.050178,157.048279 284.235089,161.111787 C287.420001,165.175295 292.746411,167.207018 300.21448,167.207018 C307.682548,167.207018 313.008958,165.175295 316.19387,161.111787 C319.378781,157.048279 320.971213,151.172755 320.971213,143.485037 L320.971213,6.75417189 L391.478214,6.75417189 L391.478214,146.450285 C391.478214,160.947124 389.336667,173.576756 385.05351,184.339561 C380.770353,195.102365 374.620272,203.998019 366.60308,211.02679 C358.585889,218.05556 348.976386,223.327059 337.774283,226.841444 C326.572181,230.355829 314.052371,232.112995 300.21448,232.112995 Z" id="Path"></path>
            <path d="M479.653148,14.4761709 C500.300161,14.4761709 518.695495,16.7824516 534.839702,21.3950822 C550.983909,26.0077128 564.601947,32.9265548 575.694226,42.1518159 C586.786504,51.3770771 595.242866,62.8535691 601.063567,76.5816362 C606.884267,90.3097034 609.794574,106.179111 609.794574,124.190335 C609.794574,142.201559 606.884267,158.070967 601.063567,171.799034 C595.242866,185.527101 586.786504,197.003593 575.694226,206.228854 C564.601947,215.454115 550.983909,222.427869 534.839702,227.150324 C518.695495,231.872779 500.300161,234.233971 479.653148,234.233971 L418.700835,234.233971 L418.700835,14.4761709 L479.653148,14.4761709 Z M488.878363,77.0758441 L488.878363,171.634298 C505.352044,171.634298 518.091499,167.735585 527.097111,159.938043 C536.102723,152.140501 540.605461,140.224717 540.605461,124.190335 C540.605461,108.155953 536.102723,96.2950805 527.097111,88.6073629 C518.091499,80.9196453 505.352044,77.0758441 488.878363,77.0758441 Z" id="Combined-Shape" transform="translate(514.247704, 124.355071) rotate(9.000000) translate(-514.247704, -124.355071) "></path>
            <path d="M762.793117,81.5443078 C758.839434,78.0299226 753.897404,75.3392618 747.966879,73.4722447 C742.036354,71.6052275 736.215741,70.671733 730.504865,70.671733 C724.135042,70.671733 718.314429,71.8248733 713.042851,74.1311886 C707.771273,76.4375039 703.213623,79.6223677 699.369764,83.6858755 C695.525905,87.7493834 692.505776,92.636502 690.309285,98.347378 C688.112794,104.058254 687.014566,110.208336 687.014566,116.797808 C687.014566,123.38728 688.222617,129.537362 690.638757,135.248238 C693.054897,140.959114 696.349584,145.846232 700.522916,149.90974 C704.696248,153.973248 709.583367,157.158112 715.184418,159.464427 C720.78547,161.770743 726.770817,162.923883 733.140641,162.923883 C740.608709,162.923883 747.417728,161.331451 753.567902,158.146539 C759.718076,154.961628 764.989575,150.623624 769.382557,145.132397 L749.614239,145.132397 L749.614239,99.0063219 L834.288534,99.0063219 L834.288534,172.149098 C829.236605,181.15471 823.196346,189.336515 816.167576,196.694759 C809.138805,204.053003 801.286469,210.367819 792.61033,215.639397 C783.934192,220.910975 774.544335,224.974422 764.440477,227.82986 C754.33662,230.685298 743.903445,232.112995 733.140641,232.112995 C717.325907,232.112995 702.389994,229.147777 688.332453,223.217252 C674.274913,217.286727 662.02966,209.159834 651.596329,198.836327 C641.162998,188.512821 632.926282,176.32248 626.885932,162.264939 C620.845583,148.207398 617.825453,133.051839 617.825453,116.797808 C617.825453,100.983075 620.680848,86.0471616 626.391724,71.9896208 C632.1026,57.9320801 639.954937,45.6868278 649.94897,35.2534968 C659.943002,24.8201658 671.803875,16.583449 685.531942,10.5430995 C699.260009,4.50274993 714.031188,1.48262046 729.845921,1.48262046 C742.146269,1.48262046 752.799089,2.69067225 761.804701,5.10681207 C770.810313,7.52295189 778.388093,10.2685241 784.538267,13.3436112 C791.786686,16.8579964 797.826945,20.7017975 802.659225,24.8751299 L762.793117,81.5443078 Z" id="Path"></path>
            <polygon id="Path" points="852.409492 6.75417189 981.891974 6.75417189 981.891974 64.4117656 922.58702 64.4117656 922.58702 88.792691 980.903558 88.792691 980.903558 143.485037 922.58702 143.485037 922.58702 168.854378 984.198277 168.854378 984.198277 226.511972 852.409492 226.511972"></polygon>
            <path d="M298.027605,400.456592 C285.672345,400.456592 276.084807,396.89833 269.264703,389.7817 C262.444599,382.66507 258.836917,373.126952 258.441549,361.16706 C258.342707,358.201798 258.293287,353.506869 258.293287,347.082134 C258.293287,340.657398 258.342707,335.96247 258.441549,332.997207 C258.836917,321.037315 262.444599,311.499197 269.264703,304.382567 C276.084807,297.265937 285.672345,293.707675 298.027605,293.707675 C306.429183,293.707675 313.496286,295.289125 319.229126,298.452072 C324.961967,301.615018 329.236823,305.346251 332.053823,309.645882 C334.870822,313.945512 336.378141,317.775586 336.575825,321.136216 L336.575825,321.432741 C336.575825,322.223478 336.279303,322.865942 335.686251,323.360152 C335.093198,323.854363 334.351894,324.101464 333.462315,324.101464 L330.200543,324.101464 C329.310964,324.101464 328.6685,323.903783 328.273132,323.508415 C327.877763,323.113046 327.482401,322.322321 327.087033,321.136216 C325.406717,315.897586 322.169688,311.499179 317.375847,307.940864 C312.582006,304.382549 306.132656,302.603418 298.027605,302.603418 C288.835292,302.603418 281.595218,305.123854 276.307166,310.1648 C271.019115,315.205746 268.177447,323.063574 267.782079,333.738519 C267.683237,336.703782 267.633817,341.151609 267.633817,347.082134 C267.633817,353.012659 267.683237,357.460486 267.782079,360.425748 C268.177447,371.100693 271.019115,378.958521 276.307166,383.999467 C281.595218,389.040413 288.835292,391.560849 298.027605,391.560849 C307.219919,391.560849 314.632964,388.941573 320.266963,383.702942 C325.900962,378.464312 328.717919,370.705325 328.717919,360.425748 L328.717919,352.864367 L302.920264,352.864367 C301.931843,352.864367 301.141118,352.543135 300.548066,351.900661 C299.955013,351.258187 299.658492,350.442753 299.658492,349.454332 L299.658492,347.378658 C299.658492,346.390237 299.955013,345.574803 300.548066,344.932329 C301.141118,344.289855 301.931843,343.968623 302.920264,343.968623 L334.648414,343.968623 C335.735677,343.968623 336.575822,344.265145 337.168875,344.858198 C337.761927,345.45125 338.058449,346.291395 338.058449,347.378658 L338.058449,360.425748 C338.058449,368.333115 336.477,375.301377 333.314053,381.330744 C330.151106,387.360111 325.555018,392.05504 319.525651,395.415671 C313.496284,398.776302 306.33034,400.456592 298.027605,400.456592 Z" id="Path"></path>
            <path d="M398.697764,295.190299 C409.372709,295.190299 417.72474,297.710735 423.754107,302.751681 C429.783474,307.792627 432.798112,315.255092 432.798112,325.139301 C432.798112,332.947825 430.870721,339.248914 427.015879,344.042755 C423.161038,348.836596 417.625965,352.073625 410.410492,353.753941 L434.280736,394.377834 C434.577263,394.970887 434.725523,395.51451 434.725523,396.00872 C434.725523,396.799457 434.429002,397.491341 433.835949,398.084394 C433.242897,398.677446 432.551012,398.973968 431.760276,398.973968 L429.981127,398.973968 C428.498496,398.973968 427.386539,398.652736 426.645224,398.010262 C425.903908,397.367789 425.137893,396.354673 424.347157,394.970884 L400.773438,355.088302 L370.231386,355.088302 L370.231386,395.712195 C370.231386,396.700616 369.910154,397.491341 369.267681,398.084394 C368.625207,398.677446 367.809772,398.973968 366.821352,398.973968 L364.152629,398.973968 C363.164208,398.973968 362.373483,398.677446 361.780431,398.084394 C361.187378,397.491341 360.890856,396.700616 360.890856,395.712195 L360.890856,298.600334 C360.890856,297.611913 361.187378,296.796478 361.780431,296.154005 C362.373483,295.511531 363.164208,295.190299 364.152629,295.190299 L398.697764,295.190299 Z M397.956452,304.086042 L370.231386,304.086042 L370.231386,346.192559 L397.956452,346.192559 C406.555713,346.192559 412.955642,344.438139 417.156431,340.929245 C421.357219,337.420351 423.457582,332.157089 423.457582,325.139301 C423.457582,318.121513 421.357219,312.858251 417.156431,309.349357 C412.955642,305.840463 406.555713,304.086042 397.956452,304.086042 Z" id="Combined-Shape"></path>
            <path d="M490.916967,293.707675 C502.778017,293.707675 512.167874,297.167096 519.08682,304.086042 C526.005766,311.004988 529.662868,321.18557 530.058236,334.628093 C530.249743,340.373289 530.348487,344.448729 530.354471,346.854527 L530.354761,347.082134 C530.354761,349.454344 530.25592,353.605649 530.058236,359.536174 C529.366342,386.816589 516.319382,400.456592 490.916967,400.456592 C465.514551,400.456592 452.467592,386.816589 451.775698,359.536174 C451.684763,356.808132 451.635659,353.076224 451.628384,348.340353 L451.628384,345.823914 C451.635659,341.088043 451.684763,337.356135 451.775698,334.628093 C452.171066,321.18557 455.828168,311.004988 462.747114,304.086042 C469.66606,297.167096 479.055917,293.707675 490.916967,293.707675 Z M490.916967,302.603418 C482.120022,302.603418 475.052919,305.296825 469.715446,310.683718 C464.377974,316.070612 461.511596,324.299092 461.116228,335.369405 C461.021879,338.199883 460.97256,341.885884 460.968272,346.427509 L460.967965,347.082134 C460.967965,351.925396 461.017386,355.829599 461.116228,358.794862 C461.511596,369.865175 464.353263,378.093655 469.641315,383.480549 C474.929366,388.867442 482.021179,391.560849 490.916967,391.560849 C499.812754,391.560849 506.904568,388.867442 512.192619,383.480549 C517.480671,378.093655 520.322338,369.865175 520.717706,358.794862 C520.909576,353.038764 521.008331,349.191545 521.013974,347.253098 L521.014231,347.082134 C521.014231,345.204134 520.91539,341.29993 520.717706,335.369405 C520.322338,324.299092 517.45596,316.070612 512.118488,310.683718 C506.781015,305.296825 499.713912,302.603418 490.916967,302.603418 Z" id="Combined-Shape"></path>
            <path d="M591.290601,400.456592 C578.93534,400.456592 569.471353,397.021881 562.898354,390.152356 C556.325356,383.282831 553.038906,372.830438 553.038906,358.794862 L553.038906,298.600334 C553.038906,297.611913 553.335428,296.796478 553.92848,296.154005 C554.521533,295.511531 555.312257,295.190299 556.300678,295.190299 L558.969401,295.190299 C560.056664,295.190299 560.896809,295.486821 561.489862,296.079873 C562.082914,296.672926 562.379436,297.513071 562.379436,298.600334 L562.379436,359.239649 C562.379436,370.112278 564.899871,378.217207 569.940818,383.55468 C574.981764,388.892153 582.098287,391.560849 591.290601,391.560849 C600.384073,391.560849 607.451175,388.892153 612.492122,383.55468 C617.533068,378.217207 620.053503,370.112278 620.053503,359.239649 L620.053503,298.600334 C620.053503,297.513071 620.374735,296.672926 621.017209,296.079873 C621.659682,295.486821 622.475117,295.190299 623.463538,295.190299 L626.132261,295.190299 C627.120682,295.190299 627.911407,295.511531 628.504459,296.154005 C629.097512,296.796478 629.394034,297.611913 629.394034,298.600334 L629.394034,358.794862 C629.394034,372.92928 626.132294,383.406384 619.608716,390.226487 C613.085139,397.046591 603.645861,400.456592 591.290601,400.456592 Z" id="Path"></path>
            <path d="M695.667319,295.190299 C706.243422,295.190299 714.570743,297.834285 720.649531,303.122337 C726.728319,308.410388 729.767667,315.996404 729.767667,325.880613 C729.767667,335.764821 726.728319,343.350837 720.649531,348.638889 C714.570743,353.92694 706.243422,356.570926 695.667319,356.570926 L665.718318,356.570926 L665.718318,395.712195 C665.718318,396.700616 665.397086,397.491341 664.754612,398.084394 C664.112139,398.677446 663.296704,398.973968 662.308283,398.973968 L659.63956,398.973968 C658.651139,398.973968 657.860414,398.677446 657.267362,398.084394 C656.674309,397.491341 656.377787,396.700616 656.377787,395.712195 L656.377787,298.600334 C656.377787,297.611913 656.674309,296.796478 657.267362,296.154005 C657.860414,295.511531 658.651139,295.190299 659.63956,295.190299 L695.667319,295.190299 Z M694.926007,304.086042 L665.718318,304.086042 L665.718318,347.675183 L694.926007,347.675183 C703.426426,347.675183 709.801645,345.821922 714.051855,342.115344 C718.302064,338.408766 720.427137,332.997243 720.427137,325.880613 C720.427137,318.763983 718.302064,313.35246 714.051855,309.645882 C709.801645,305.939303 703.426426,304.086042 694.926007,304.086042 Z" id="Combined-Shape"></path>
        </g>
    </g>
</svg>