<svg xmlns="http://www.w3.org/2000/svg" viewBox="0 0 1000 409"><g fill="#4268CC" fill-rule="nonzero"><path d="M7.066 6.754h57.657l60.623 84.674V6.754h68.86v219.758h-57.987l-60.294-84.345v84.345H7.066zM307.214 232.113c-13.837 0-26.357-1.757-37.56-5.272-11.201-3.514-20.756-8.785-28.663-15.814-7.908-7.029-14.003-15.925-18.286-26.687-4.283-10.763-6.425-23.393-6.425-37.89V6.754h70.178v136.731c0 7.688 1.592 13.563 4.777 17.627 3.185 4.063 8.511 6.095 15.98 6.095 7.468 0 12.794-2.032 15.979-6.095 3.185-4.064 4.777-9.94 4.777-17.627V6.755h70.507V146.45c0 14.497-2.141 27.127-6.424 37.89-4.284 10.762-10.434 19.658-18.45 26.687-8.018 7.029-17.628 12.3-28.83 15.814-11.202 3.515-23.722 5.272-37.56 5.272ZM504.268 10.417c20.393 3.23 38.2 8.386 53.425 15.467 15.224 7.081 27.592 16.045 37.104 26.892 9.513 10.847 16.07 23.505 19.671 37.975 3.602 14.47 3.994 30.599 1.176 48.388-2.818 17.79-8.175 33.008-16.071 45.657-7.897 12.648-18.044 22.66-30.443 30.037-12.399 7.377-26.94 12.134-43.625 14.273-16.684 2.139-35.222 1.593-55.615-1.637l-60.202-9.535L444.066.882l60.202 9.535Zm-.681 63.272-14.792 93.395c16.27 2.577 29.463.719 39.578-5.574 10.114-6.293 16.425-17.357 18.934-33.194 2.508-15.837-.084-28.257-7.776-37.258-7.692-9.002-19.673-14.792-35.944-17.369ZM769.793 81.544c-3.954-3.514-8.896-6.205-14.826-8.072-5.93-1.867-11.751-2.8-17.462-2.8-6.37 0-12.19 1.153-17.462 3.46-5.272 2.306-9.83 5.49-13.673 9.554-3.844 4.063-6.864 8.95-9.06 14.661-2.197 5.711-3.295 11.861-3.295 18.45 0 6.59 1.208 12.74 3.624 18.451 2.416 5.711 5.71 10.598 9.884 14.662 4.173 4.063 9.06 7.248 14.661 9.554 5.601 2.307 11.587 3.46 17.957 3.46 7.468 0 14.277-1.593 20.427-4.777 6.15-3.185 11.422-7.523 15.815-13.015h-19.769V99.006h84.675v73.143c-5.052 9.006-11.093 17.188-18.121 24.546a115.081 115.081 0 0 1-23.558 18.944c-8.676 5.272-18.066 9.335-28.17 12.19-10.103 2.856-20.537 4.284-31.3 4.284-15.814 0-30.75-2.965-44.808-8.896-14.057-5.93-26.302-14.057-36.736-24.38-10.433-10.324-18.67-22.515-24.71-36.572-6.04-14.058-9.06-29.213-9.06-45.467 0-15.815 2.855-30.75 8.566-44.808 5.71-14.058 13.563-26.303 23.557-36.737 9.994-10.433 21.855-18.67 35.583-24.71 13.728-6.04 28.5-9.06 44.314-9.06 12.3 0 22.953 1.208 31.959 3.624 9.005 2.416 16.583 5.162 22.733 8.237 7.249 3.514 13.289 7.358 18.121 11.531l-39.866 56.67ZM859.409 6.754h129.483v57.658h-59.305v24.381h58.317v54.692h-58.317v25.369h61.611v57.658H859.409zM305.028 400.457c-12.356 0-21.943-3.559-28.763-10.675-6.82-7.117-10.428-16.655-10.823-28.615-.1-2.965-.149-7.66-.149-14.085 0-6.425.05-11.12.149-14.085.395-11.96 4.003-21.498 10.823-28.614 6.82-7.117 16.407-10.675 28.763-10.675 8.401 0 15.468 1.581 21.201 4.744 5.733 3.163 10.008 6.894 12.825 11.194 2.817 4.3 4.324 8.13 4.522 11.49v.297c0 .79-.297 1.433-.89 1.927s-1.334.741-2.224.741h-3.261c-.89 0-1.533-.197-1.928-.593-.395-.395-.79-1.186-1.186-2.372-1.68-5.238-4.917-9.637-9.711-13.195-4.794-3.558-11.243-5.338-19.348-5.338-9.193 0-16.433 2.52-21.72 7.562-5.289 5.04-8.13 12.899-8.526 23.574-.099 2.965-.148 7.413-.148 13.343s.05 10.378.148 13.344c.395 10.675 3.237 18.533 8.525 23.573 5.288 5.041 12.528 7.562 21.72 7.562 9.193 0 16.606-2.62 22.24-7.858 5.634-5.239 8.45-12.998 8.45-23.277v-7.562H309.92c-.988 0-1.779-.32-2.372-.963s-.89-1.458-.89-2.447v-2.075c0-.989.297-1.804.89-2.447.593-.642 1.384-.963 2.372-.963h31.728c1.088 0 1.928.296 2.52.89.594.592.89 1.432.89 2.52v13.047c0 7.907-1.581 14.875-4.744 20.905-3.163 6.03-7.759 10.724-13.788 14.085-6.03 3.36-13.196 5.04-21.498 5.04ZM405.698 295.19c10.675 0 19.027 2.52 25.056 7.562 6.03 5.04 9.044 12.503 9.044 22.387 0 7.809-1.927 14.11-5.782 18.904-3.855 4.794-9.39 8.03-16.606 9.71l23.87 40.625c.297.593.446 1.137.446 1.63 0 .791-.297 1.483-.89 2.076s-1.285.89-2.076.89h-1.779c-1.483 0-2.594-.321-3.336-.964-.741-.642-1.507-1.655-2.298-3.04l-23.574-39.882h-30.542v40.624c0 .989-.32 1.78-.963 2.372-.643.593-1.458.89-2.447.89h-2.668c-.989 0-1.78-.297-2.373-.89-.593-.593-.89-1.383-.89-2.372V298.6c0-.988.297-1.804.89-2.446.593-.642 1.384-.964 2.373-.964h34.545Zm-.742 8.896h-27.725v42.107h27.725c8.6 0 15-1.755 19.2-5.264 4.201-3.509 6.302-8.772 6.302-15.79 0-7.017-2.1-12.28-6.302-15.79-4.2-3.509-10.6-5.263-19.2-5.263ZM497.917 293.708c11.861 0 21.25 3.46 28.17 10.378 6.919 6.919 10.576 17.1 10.971 30.542.192 5.745.29 9.82.296 12.227v.227c0 2.372-.098 6.524-.296 12.454-.692 27.28-13.739 40.92-39.141 40.92-25.402 0-38.45-13.64-39.141-40.92-.091-2.728-.14-6.46-.148-11.196v-2.516c.008-4.736.057-8.468.148-11.196.395-13.442 4.052-23.623 10.971-30.542 6.92-6.919 16.309-10.378 28.17-10.378Zm0 8.895c-8.797 0-15.864 2.694-21.202 8.08-5.337 5.388-8.203 13.616-8.599 24.686-.094 2.83-.143 6.517-.148 11.059v.654c0 4.843.05 8.748.148 11.713.396 11.07 3.237 19.299 8.525 24.686 5.288 5.386 12.38 8.08 21.276 8.08 8.896 0 15.988-2.694 21.276-8.08 5.288-5.387 8.13-13.616 8.525-24.686.192-5.756.29-9.603.296-11.542v-.17c0-1.879-.099-5.783-.296-11.714-.396-11.07-3.262-19.298-8.6-24.685-5.337-5.387-12.404-8.08-21.201-8.08ZM598.29 400.457c-12.355 0-21.819-3.435-28.392-10.305-6.573-6.87-9.86-17.322-9.86-31.357V298.6c0-.988.297-1.804.89-2.446.594-.642 1.384-.964 2.373-.964h2.668c1.088 0 1.928.297 2.52.89.594.593.89 1.433.89 2.52v60.64c0 10.872 2.52 18.977 7.562 24.315 5.04 5.337 12.157 8.006 21.35 8.006 9.093 0 16.16-2.669 21.201-8.006 5.041-5.338 7.562-13.443 7.562-24.315V298.6c0-1.087.32-1.927.963-2.52s1.458-.89 2.447-.89h2.668c.989 0 1.78.322 2.372.964.594.642.89 1.458.89 2.446v60.195c0 14.134-3.262 24.611-9.785 31.431-6.524 6.82-15.963 10.23-28.318 10.23ZM702.667 295.19c10.576 0 18.904 2.644 24.983 7.932 6.078 5.288 9.118 12.874 9.118 22.759 0 9.884-3.04 17.47-9.118 22.758-6.08 5.288-14.407 7.932-24.983 7.932h-29.949v39.141c0 .989-.32 1.78-.963 2.372-.643.593-1.458.89-2.447.89h-2.668c-.989 0-1.78-.297-2.373-.89-.593-.593-.89-1.383-.89-2.372V298.6c0-.988.297-1.804.89-2.446.593-.642 1.384-.964 2.373-.964h36.027Zm-.741 8.896h-29.208v43.59h29.208c8.5 0 14.876-1.854 19.126-5.56 4.25-3.707 6.375-9.119 6.375-16.235 0-7.117-2.125-12.529-6.375-16.235-4.25-3.707-10.626-5.56-19.126-5.56Z"/></g></svg>