<svg version="1.1" id="Layer_1" xmlns="http://www.w3.org/2000/svg" x="0" y="0" viewBox="0 0 1000 1000" style="enable-background:new 0 0 1000 1000" xml:space="preserve"><style>.st0{fill:#e63946}.st1{fill:#101336}</style><path class="st0" d="M452.13 554.22h30.98V450.97h-30.98v103.25zm15.48-149.51c-10.12 0-18.58 8.46-18.58 18.58 0 10.12 8.46 18.59 18.58 18.59 10.12 0 18.59-8.47 18.59-18.59.01-10.12-8.47-18.58-18.59-18.58M430.86 490.82v63.39h-30.97v-58.84c0-12.81-8.06-18.8-17.98-18.8-6.11 0-11.15 1.98-14.54 6.04l-4.54-5.15-.12-.14v76.89h-30.98V450.97h30.98v9.71c5.57-7.65 15.89-12.6 29.53-12.6 20.87 0 38.62 14.86 38.62 42.74M310.46 490.82v63.39H279.5V493.5c0-10.32-4.97-16.93-14.88-16.93-5.29 0-9.36 1.92-12.1 5.41l-3.99-4.52-.01-.02v76.77h-30.99V493.5c0-10.32-4.95-16.93-14.86-16.93-5.3 0-9.38 1.93-12.12 5.43l-3.99-4.54h-.01v76.75h-30.97V450.97h30.97v9.5c4.75-7.02 13.84-12.38 27.67-12.38 12.18 0 21.27 4.95 27.05 13.62 5.79-8.26 15.28-13.62 29.95-13.62 23.76-.01 39.24 16.92 39.24 42.73M83.31 448.08c-11.17 0-21.51 3.24-30.14 8.83 9.01 6.4 14.74 17.33 17.74 24.63 3.59-2.1 7.78-3.31 12.4-3.31 13.42 0 23.75 9.7 23.75 24.37 0 14.66-10.33 24.37-23.75 24.37s-23.75-9.7-23.75-24.37c0-7.36 2.6-13.46 6.89-17.72-5.6-8.86-15.7-15.13-23.77-19.01-8.74 9.6-14.09 22.38-14.09 36.74 0 30.77 24.37 54.51 54.73 54.51 30.36 0 54.72-23.74 54.72-54.51 0-30.78-24.37-54.53-54.73-54.53"/><g><path class="st1" d="M844.83 518.88c-4.96 9.5-15.08 15.91-27.47 15.91-18.17 0-32.01-13.84-32.01-32.43 0-18.58 13.84-32.42 32.01-32.42 12.4 0 22.51 6.2 27.06 15.89l19.2-11.15c-8.26-16.11-25.81-26.64-46.05-26.64-31.18 0-54.51 23.54-54.51 54.31 0 30.56 23.33 54.32 54.51 54.32 20.25 0 37.79-10.54 46.47-26.86l-19.21-10.93zM924.34 501.33l45.43-50.6h-27.26l-40.07 45.65v-86.94h-22.3v144.55h22.3v-47.7l42.34 47.7h26.63zM742.99 450.73v103.26h-22.48v-14.87c-7.84 10.94-20.03 17.55-36.14 17.55-28.08 0-51.41-23.76-51.41-54.32 0-30.77 23.33-54.31 51.41-54.31 3.63 0 7.02.38 10.24 1.02 5.32 4.21 14.76 14.04 18.78 32.31-5.88-7.44-14.89-12.05-25.5-12.05-18.59 0-32.63 13.83-32.63 33.03 0 19.21 14.04 33.05 32.63 33.05 18.59 0 32.62-13.84 32.62-33.05v-51.62h22.48zM567.08 448.05c-16.11 0-28.29 6.61-36.13 17.55v-14.87h-22.3v144.55h22.48v-55.74l.02-35.02v-.81c0-2.62.09-4.39.19-5.46 1.87-17 15.04-28.92 32.25-28.92 18.59 0 32.62 13.84 32.62 33.04 0 19.21-14.03 33.04-32.62 33.04-9.85 0-18.32-3.96-24.21-10.46 4.96 18.18 14.43 27.46 18.87 30.93 2.81.48 5.73.79 8.84.79 28.09 0 51.43-23.54 51.43-54.31-.01-30.56-23.35-54.31-51.44-54.31"/></g></svg>