<?xml version="1.0" encoding="UTF-8"?>
<svg width="200px" height="40px" viewBox="0 0 200 40" version="1.1" xmlns="http://www.w3.org/2000/svg" xmlns:xlink="http://www.w3.org/1999/xlink">
    <title>Outfund-light-blue</title>
    <defs>
        <filter id="filter-1">
            <feColorMatrix in="SourceGraphic" type="matrix" values="0 0 0 0 0.095742 0 0 0 0 0.800166 0 0 0 0 0.847741 0 0 0 1.000000 0"></feColorMatrix>
        </filter>
    </defs>
    <g id="Page-1" stroke="none" stroke-width="1" fill="none" fill-rule="evenodd">
        <g id="Logo" transform="translate(-26.000000, -22.000000)">
            <g id="Outfund-light-blue" transform="translate(26.000000, 22.000000)">
                <path d="M200,35.1111 C200,37.3202 198.209,39.1111 196,39.1111 C193.791,39.1111 192,37.3202 192,35.1111 C192,32.9019 193.791,31.1111 196,31.1111 C198.209,31.1111 200,32.9019 200,35.1111 Z" id="Path" fill="#0D2C4F"></path>
                <g filter="url(#filter-1)" id="Group">
                    <g>
                        <path d="M81.8845,4.80001 L81.8845,12.5333 L91.2553,12.5333 L91.2553,10.24 C91.2553,7.14667 92.1442,4.67556 93.922,2.82667 C95.7353,0.942224 99.4406,-1.0658141e-14 102.605,-1.0658141e-14 C104.125,-1.0658141e-14 104.392,0.142908 104.926,0.428723 C105.017,0.477252 105.115,0.529901 105.229,0.586669 L105.229,7.20001 C104.518,7.02223 103.718,6.93334 102.829,6.93334 C101.904,6.93334 101.086,7.20001 100.375,7.73334 C99.6997,8.26668 99.362,9.19112 99.362,10.5067 L99.362,12.5333 L105.122,12.5333 L105.122,19.6267 L99.362,19.6267 L99.362,39.04 L91.2553,39.04 L91.2553,19.6267 L81.8845,19.6267 L81.8845,29.5467 C81.8845,31.3956 82.8623,32.32 84.8178,32.32 C85.1288,32.32 85.4566,32.299 85.8011,32.2571 C86.1657,32.2127 86.549,32.1448 86.9512,32.0534 L86.9512,38.7734 C86.6146,38.9417 86.2312,39.0815 85.8011,39.1929 C84.9592,39.411 83.9381,39.52 82.7378,39.52 C80,39.52 77.8312,38.7556 76.2311,37.2267 C74.6667,35.6978 73.8845,33.6178 73.8845,30.9867 L73.8845,19.6267 L69.1911,19.6267 L69.1911,12.5333 L74.6312,12.5333 C74.6711,10.9146 74.6568,10.0921 74.6435,9.32956 C74.6372,8.9699 74.6312,8.62358 74.6312,8.21335 L74.6312,4.80001 L81.8845,4.80001 Z" id="Path" fill="#18CCD8" fill-rule="nonzero"></path>
                        <path d="M4.61852778e-14,20.16 C4.61852778e-14,14.2933 1.90222,9.54664 5.70667,5.91997 C9.54668,2.25775 14.2045,0.426636 19.68,0.426636 C25.1556,0.426636 29.7956,2.25775 33.6,5.91997 C37.4045,9.5822 39.3067,14.3289 39.3067,20.16 C39.3067,25.9911 37.4045,30.7378 33.6,34.4 C29.7956,38.0267 25.1556,39.84 19.68,39.84 C14.2045,39.84 9.54668,38.0267 5.70667,34.4 C1.90222,30.7378 4.61852778e-14,25.9911 4.61852778e-14,20.16 Z M12,11.6266 C9.83112,13.5822 8.74667,16.4089 8.74667,20.1067 C8.74667,23.8044 9.83112,26.6311 12,28.5867 C14.2045,30.5422 16.7645,31.52 19.68,31.52 C22.5956,31.52 25.1378,30.5422 27.3067,28.5867 C29.4756,26.6311 30.56,23.8044 30.56,20.1067 C30.56,16.4089 29.4756,13.5822 27.3067,11.6266 C25.1378,9.63553 22.5956,8.63998 19.68,8.63998 C16.7645,8.63998 14.2045,9.63553 12,11.6266 Z" id="Shape" fill="#18CCD8"></path>
                        <path d="M141.742,23.84 L141.742,39.04 L133.636,39.04 L133.636,12.5333 L141.476,12.5333 L141.476,15.5733 C142.151,14.4 143.182,13.4933 144.569,12.8533 C145.991,12.1778 147.431,11.84 148.889,11.84 C152.053,11.84 154.453,12.8355 156.089,14.8267 C157.725,16.7822 158.542,19.3067 158.542,22.4 L158.542,39.04 L150.436,39.04 L150.436,23.7867 C150.436,22.4 150.062,21.2978 149.316,20.48 C148.605,19.6267 147.538,19.2 146.116,19.2 C144.8,19.2 143.733,19.6444 142.916,20.5333 C142.133,21.3867 141.742,22.4889 141.742,23.84 Z" id="Path" fill="#18CCD8" fill-rule="nonzero"></path>
                        <path d="M188.978,34.2933 L188.978,0.426636 L180.978,0.426636 L180.978,14.6133 C179.84,12.8 177.458,11.8933 173.831,11.8933 C170.098,11.8933 167.022,13.2089 164.605,15.84 C162.187,18.4355 160.978,21.7244 160.978,25.7067 C160.978,29.76 162.222,33.1022 164.711,35.7333 C167.2,38.3289 170.329,39.6267 174.098,39.6267 C175.662,39.6267 177.067,39.3422 178.311,38.7733 C179.591,38.1689 180.551,37.4045 181.191,36.48 C181.191,37.3333 181.262,38.1867 181.405,39.04 L189.191,39.04 C189.049,37.4756 188.978,35.8933 188.978,34.2933 Z M169.138,25.76 C169.138,23.6622 169.707,22.0444 170.845,20.9067 C172.018,19.7689 173.44,19.2 175.111,19.2 C176.782,19.2 178.187,19.7689 179.325,20.9067 C180.498,22.0444 181.085,23.6622 181.085,25.76 C181.085,27.8578 180.498,29.4933 179.325,30.6667 C178.187,31.8044 176.782,32.3733 175.111,32.3733 C173.44,32.3733 172.018,31.8044 170.845,30.6667 C169.707,29.4933 169.138,27.8578 169.138,25.76 Z" id="Shape" fill="#18CCD8"></path>
                        <path d="M66.9689,12.3733 L66.9689,29.2622 C66.9689,34.6623 62.5245,39.04 54.7467,39.04 C48.08,39.04 42.5245,34.6623 42.5245,29.2622 L42.5245,12.3733 L50.5245,12.3733 L50.5245,26.5955 C50.5245,28.9274 52.4148,30.8178 54.7467,30.8178 C57.0786,30.8178 58.9689,28.9274 58.9689,26.5955 L58.9689,12.3733 L66.9689,12.3733 Z" id="Path" fill="#18CCD8" fill-rule="nonzero"></path>
                        <path d="M131.413,29.2622 L131.413,12.3733 L123.413,12.3733 L123.413,26.5955 C123.413,28.9274 121.523,30.8178 119.191,30.8178 C116.859,30.8178 114.969,28.9274 114.969,26.5955 L114.969,12.3733 L106.969,12.3733 L106.969,29.2622 C106.969,34.6623 112.525,39.04 119.191,39.04 C126.969,39.04 131.413,34.6623 131.413,29.2622 Z" id="Path" fill="#18CCD8" fill-rule="nonzero"></path>
                    </g>
                </g>
            </g>
        </g>
    </g>
</svg>