<?xml version="1.0" standalone="no"?>
<!DOCTYPE svg PUBLIC "-//W3C//DTD SVG 20010904//EN"
 "http://www.w3.org/TR/2001/REC-SVG-20010904/DTD/svg10.dtd">
<svg version="1.0" xmlns="http://www.w3.org/2000/svg"
 width="1024.000000pt" height="109.000000pt" viewBox="0 0 1024.000000 109.000000"
 preserveAspectRatio="xMidYMid meet">

<g transform="translate(0.000000,109.000000) scale(0.100000,-0.100000)"
fill="#000000" stroke="none">
<path d="M433 1075 c-199 -43 -365 -206 -414 -405 -66 -274 104 -563 380 -644
72 -21 221 -21 292 0 177 53 306 175 367 348 34 96 36 230 4 331 -57 185 -216
330 -407 370 -85 18 -140 18 -222 0z m265 -240 c107 -58 163 -147 170 -270 5
-104 -20 -175 -86 -243 -73 -74 -128 -97 -237 -97 -105 0 -159 21 -228 89 -69
66 -92 124 -92 231 0 109 23 164 97 237 68 67 131 89 238 85 71 -2 94 -8 138
-32z"/>
<path d="M496 632 c-164 -139 -165 -143 -40 -122 40 7 79 10 86 8 7 -3 31 -49
53 -102 l40 -97 7 163 c4 90 8 189 10 221 3 31 2 57 -1 56 -3 0 -73 -58 -155
-127z"/>
<path d="M7579 1037 c-23 -15 -38 -37 -47 -64 -12 -37 -11 -46 6 -86 38 -85
136 -101 200 -32 74 81 20 205 -91 205 -19 0 -49 -10 -68 -23z"/>
<path d="M2750 989 c0 -9 161 -575 251 -881 l20 -68 125 0 c119 0 125 1 134
23 6 12 39 143 75 291 35 148 67 271 69 274 8 7 9 2 81 -298 36 -151 69 -278
74 -283 4 -4 63 -6 131 -5 l124 3 136 475 137 475 -135 3 c-74 1 -136 1 -138
-1 -2 -2 -33 -134 -69 -293 -81 -361 -76 -342 -83 -324 -3 8 -40 150 -82 315
l-77 300 -96 3 c-54 1 -97 1 -97 -1 0 -3 -122 -481 -151 -591 -6 -21 -12 -36
-14 -34 -2 2 -33 136 -70 298 -36 162 -68 303 -71 313 -5 15 -20 17 -140 17
-90 0 -134 -4 -134 -11z"/>
<path d="M5242 523 l3 -478 108 -3 107 -3 0 481 0 480 -110 0 -110 0 2 -477z"/>
<path d="M6020 829 l0 -171 -37 32 c-51 45 -92 60 -166 60 -185 0 -294 -121
-305 -337 -8 -170 50 -293 169 -352 51 -25 74 -31 128 -31 73 0 150 29 186 70
l20 22 5 -38 5 -39 108 -3 107 -3 0 481 0 480 -110 0 -110 0 0 -171z m-50
-291 l45 -23 3 -121 3 -122 -37 -23 c-107 -66 -231 -8 -250 116 -11 74 32 161
91 185 37 16 100 10 145 -12z"/>
<path d="M6570 519 l0 -481 253 5 c275 5 317 11 429 68 184 93 275 314 223
538 -40 168 -166 289 -350 336 -45 11 -118 15 -307 15 l-248 0 0 -481z m499
255 c150 -44 216 -235 135 -384 -54 -99 -122 -130 -285 -130 l-109 0 0 265 0
265 103 0 c65 0 123 -6 156 -16z"/>
<path d="M9807 923 c-4 -3 -7 -46 -7 -95 l0 -88 -55 0 -55 0 0 -95 0 -95 54 0
54 0 4 -192 c3 -220 12 -250 81 -296 63 -42 228 -44 277 -4 l21 17 -18 75 -19
75 -41 -3 c-32 -3 -46 1 -62 17 -19 19 -21 33 -21 166 l0 145 70 0 70 0 0 95
0 95 -70 0 -70 0 0 95 0 95 -103 0 c-57 0 -107 -3 -110 -7z"/>
<path d="M1465 734 c-22 -8 -57 -28 -77 -44 -20 -17 -39 -30 -42 -30 -3 0 -6
18 -6 40 l0 40 -105 0 -105 0 0 -350 0 -350 105 0 105 0 0 223 c0 163 3 227
13 239 40 53 138 74 197 43 43 -22 50 -64 50 -298 l0 -208 108 3 107 3 0 275
c0 261 -1 277 -22 322 -14 31 -36 56 -64 75 -38 25 -52 28 -133 30 -62 2 -104
-2 -131 -13z"/>
<path d="M2088 736 c-162 -58 -259 -208 -245 -379 11 -133 86 -240 206 -295
123 -57 341 -36 445 43 18 13 16 17 -28 79 l-46 65 -53 -24 c-66 -31 -165 -34
-217 -6 -32 17 -80 72 -80 92 0 5 110 9 245 9 211 0 246 2 251 15 4 9 1 50 -5
93 -22 149 -100 258 -217 302 -64 24 -197 27 -256 6z m212 -174 c27 -20 62
-80 54 -94 -3 -4 -68 -8 -145 -8 -121 0 -139 2 -139 16 0 30 35 74 75 95 47
24 115 20 155 -9z"/>
<path d="M4223 731 c-64 -24 -98 -47 -147 -101 -63 -70 -80 -120 -81 -235 0
-93 2 -105 33 -167 61 -124 165 -189 313 -196 138 -7 232 29 313 118 158 176
100 470 -113 568 -77 36 -239 43 -318 13z m217 -189 c104 -52 104 -248 0 -303
-108 -58 -223 20 -223 150 0 75 39 144 93 164 32 11 96 6 130 -11z"/>
<path d="M5105 731 c-22 -10 -54 -30 -71 -44 -18 -15 -35 -27 -38 -27 -3 0 -6
18 -6 40 l0 40 -110 0 -110 0 2 -347 3 -348 108 -3 107 -3 0 225 0 225 28 19
c40 28 88 42 143 42 l49 0 0 100 0 100 -32 0 c-18 0 -51 -9 -73 -19z"/>
<path d="M8150 729 c-24 -11 -59 -31 -77 -45 -17 -13 -34 -24 -37 -24 -3 0 -6
18 -6 40 l0 40 -105 0 -105 0 0 -350 0 -350 105 0 105 0 0 214 c0 118 3 222 6
231 11 26 84 57 151 63 l63 5 0 98 0 99 -27 0 c-16 0 -48 -10 -73 -21z"/>
<path d="M8479 733 c-148 -49 -247 -203 -237 -367 9 -139 82 -247 206 -304
115 -53 311 -39 424 31 l38 22 -45 67 -45 67 -52 -24 c-66 -31 -165 -34 -218
-7 -31 15 -80 72 -80 93 0 5 111 9 246 9 l246 0 -4 89 c-3 75 -9 99 -36 154
-39 79 -102 138 -178 167 -67 25 -196 26 -265 3z m191 -159 c44 -18 80 -60 80
-93 0 -20 -5 -21 -140 -21 -154 0 -156 1 -124 61 16 32 81 68 121 69 13 0 41
-7 63 -16z"/>
<path d="M9243 735 c-94 -29 -164 -90 -213 -185 -36 -68 -40 -213 -9 -295 30
-79 100 -154 182 -191 56 -26 72 -29 172 -29 128 0 187 20 248 83 l35 37 -68
63 -69 62 -37 -25 c-47 -32 -74 -39 -126 -32 -45 6 -81 28 -112 71 -30 40 -30
153 0 193 36 48 82 73 136 73 53 0 79 -10 116 -43 l22 -21 65 64 c36 36 65 70
65 77 0 19 -82 75 -138 95 -57 21 -207 23 -269 3z"/>
<path d="M7540 390 l0 -351 108 3 107 3 3 348 2 347 -110 0 -110 0 0 -350z"/>
</g>
</svg>
