<svg version="1.0" xmlns="http://www.w3.org/2000/svg" viewBox="0 0 1024 109">
  <path
    d="M43.3 1.5C23.4 5.8 6.8 22.1 1.9 42c-6.6 27.4 10.4 56.3 38 64.4 7.2 2.1 22.1 2.1 29.2 0 17.7-5.3 30.6-17.5 36.7-34.8 3.4-9.6 3.6-23 .4-33.1-5.7-18.5-21.6-33-40.7-37-8.5-1.8-14-1.8-22.2 0zm26.5 24c10.7 5.8 16.3 14.7 17 27 .5 10.4-2 17.5-8.6 24.3-7.3 7.4-12.8 9.7-23.7 9.7-10.5 0-15.9-2.1-22.8-8.9-6.9-6.6-9.2-12.4-9.2-23.1 0-10.9 2.3-16.4 9.7-23.7 6.8-6.7 13.1-8.9 23.8-8.5 7.1.2 9.4.8 13.8 3.2z"
  />
  <path
    d="M49.6 45.8c-16.4 13.9-16.5 14.3-4 12.2 4-.7 7.9-1 8.6-.8.7.3 3.1 4.9 5.3 10.2l4 9.7.7-16.3c.4-9 .8-18.9 1-22.1.3-3.1.2-5.7-.1-5.6-.3 0-7.3 5.8-15.5 12.7zM757.9 5.3c-2.3 1.5-3.8 3.7-4.7 6.4-1.2 3.7-1.1 4.6.6 8.6 3.8 8.5 13.6 10.1 20 3.2 7.4-8.1 2-20.5-9.1-20.5-1.9 0-4.9 1-6.8 2.3zM275 10.1c0 .9 16.1 57.5 25.1 88.1l2 6.8h12.5c11.9 0 12.5-.1 13.4-2.3.6-1.2 3.9-14.3 7.5-29.1 3.5-14.8 6.7-27.1 6.9-27.4.8-.7.9-.2 8.1 29.8 3.6 15.1 6.9 27.8 7.4 28.3.4.4 6.3.6 13.1.5l12.4-.3L397 57l13.7-47.5-13.5-.3c-7.4-.1-13.6-.1-13.8.1-.2.2-3.3 13.4-6.9 29.3-8.1 36.1-7.6 34.2-8.3 32.4-.3-.8-4-15-8.2-31.5l-7.7-30-9.6-.3c-5.4-.1-9.7-.1-9.7.1 0 .3-12.2 48.1-15.1 59.1-.6 2.1-1.2 3.6-1.4 3.4-.2-.2-3.3-13.6-7-29.8-3.6-16.2-6.8-30.3-7.1-31.3-.5-1.5-2-1.7-14-1.7-9 0-13.4.4-13.4 1.1zM524.2 56.7l.3 47.8 10.8.3 10.7.3V9h-22l.2 47.7zM602 26.1v17.1l-3.7-3.2c-5.1-4.5-9.2-6-16.6-6-18.5 0-29.4 12.1-30.5 33.7-.8 17 5 29.3 16.9 35.2 5.1 2.5 7.4 3.1 12.8 3.1 7.3 0 15-2.9 18.6-7l2-2.2.5 3.8.5 3.9 10.8.3 10.7.3V9h-22v17.1zm-5 29.1 4.5 2.3.3 12.1.3 12.2-3.7 2.3c-10.7 6.6-23.1.8-25-11.6-1.1-7.4 3.2-16.1 9.1-18.5 3.7-1.6 10-1 14.5 1.2zM657 57.1v48.1l25.3-.5c27.5-.5 31.7-1.1 42.9-6.8 18.4-9.3 27.5-31.4 22.3-53.8-4-16.8-16.6-28.9-35-33.6C708 9.4 700.7 9 681.8 9H657v48.1zm49.9-25.5c15 4.4 21.6 23.5 13.5 38.4-5.4 9.9-12.2 13-28.5 13H681V30h10.3c6.5 0 12.3.6 15.6 1.6zM980.7 16.7c-.4.3-.7 4.6-.7 9.5V35h-11v19h10.8l.4 19.2c.3 22 1.2 25 8.1 29.6 6.3 4.2 22.8 4.4 27.7.4l2.1-1.7-1.8-7.5-1.9-7.5-4.1.3c-3.2.3-4.6-.1-6.2-1.7-1.9-1.9-2.1-3.3-2.1-16.6V54h14V35h-14V16h-10.3c-5.7 0-10.7.3-11 .7zM146.5 35.6c-2.2.8-5.7 2.8-7.7 4.4-2 1.7-3.9 3-4.2 3-.3 0-.6-1.8-.6-4v-4h-21v70h21V82.7c0-16.3.3-22.7 1.3-23.9 4-5.3 13.8-7.4 19.7-4.3 4.3 2.2 5 6.4 5 29.8v20.8l10.8-.3 10.7-.3V77c0-26.1-.1-27.7-2.2-32.2-1.4-3.1-3.6-5.6-6.4-7.5-3.8-2.5-5.2-2.8-13.3-3-6.2-.2-10.4.2-13.1 1.3zM208.8 35.4c-16.2 5.8-25.9 20.8-24.5 37.9 1.1 13.3 8.6 24 20.6 29.5 12.3 5.7 34.1 3.6 44.5-4.3 1.8-1.3 1.6-1.7-2.8-7.9l-4.6-6.5-5.3 2.4c-6.6 3.1-16.5 3.4-21.7.6-3.2-1.7-8-7.2-8-9.2 0-.5 11-.9 24.5-.9 21.1 0 24.6-.2 25.1-1.5.4-.9.1-5-.5-9.3-2.2-14.9-10-25.8-21.7-30.2-6.4-2.4-19.7-2.7-25.6-.6zM230 52.8c2.7 2 6.2 8 5.4 9.4-.3.4-6.8.8-14.5.8-12.1 0-13.9-.2-13.9-1.6 0-3 3.5-7.4 7.5-9.5 4.7-2.4 11.5-2 15.5.9zM422.3 35.9c-6.4 2.4-9.8 4.7-14.7 10.1-6.3 7-8 12-8.1 23.5 0 9.3.2 10.5 3.3 16.7 6.1 12.4 16.5 18.9 31.3 19.6 13.8.7 23.2-2.9 31.3-11.8 15.8-17.6 10-47-11.3-56.8-7.7-3.6-23.9-4.3-31.8-1.3zM444 54.8c10.4 5.2 10.4 24.8 0 30.3-10.8 5.8-22.3-2-22.3-15 0-7.5 3.9-14.4 9.3-16.4 3.2-1.1 9.6-.6 13 1.1z"
  />
  <path
    d="M510.5 35.9c-2.2 1-5.4 3-7.1 4.4-1.8 1.5-3.5 2.7-3.8 2.7-.3 0-.6-1.8-.6-4v-4h-22l.2 34.7.3 34.8 10.8.3 10.7.3v-45l2.8-1.9c4-2.8 8.8-4.2 14.3-4.2h4.9V34h-3.2c-1.8 0-5.1.9-7.3 1.9zM815 36.1c-2.4 1.1-5.9 3.1-7.7 4.5-1.7 1.3-3.4 2.4-3.7 2.4-.3 0-.6-1.8-.6-4v-4h-21v70h21V83.6c0-11.8.3-22.2.6-23.1 1.1-2.6 8.4-5.7 15.1-6.3l6.3-.5V34h-2.7c-1.6 0-4.8 1-7.3 2.1zM847.9 35.7c-14.8 4.9-24.7 20.3-23.7 36.7.9 13.9 8.2 24.7 20.6 30.4 11.5 5.3 31.1 3.9 42.4-3.1l3.8-2.2-4.5-6.7-4.5-6.7-5.2 2.4c-6.6 3.1-16.5 3.4-21.8.7-3.1-1.5-8-7.2-8-9.3 0-.5 11.1-.9 24.6-.9h24.6l-.4-8.9c-.3-7.5-.9-9.9-3.6-15.4-3.9-7.9-10.2-13.8-17.8-16.7-6.7-2.5-19.6-2.6-26.5-.3zM867 51.6c4.4 1.8 8 6 8 9.3 0 2-.5 2.1-14 2.1-15.4 0-15.6-.1-12.4-6.1 1.6-3.2 8.1-6.8 12.1-6.9 1.3 0 4.1.7 6.3 1.6zM924.3 35.5c-9.4 2.9-16.4 9-21.3 18.5-3.6 6.8-4 21.3-.9 29.5 3 7.9 10 15.4 18.2 19.1 5.6 2.6 7.2 2.9 17.2 2.9 12.8 0 18.7-2 24.8-8.3l3.5-3.7-6.8-6.3-6.9-6.2-3.7 2.5c-4.7 3.2-7.4 3.9-12.6 3.2-4.5-.6-8.1-2.8-11.2-7.1-3-4-3-15.3 0-19.3 3.6-4.8 8.2-7.3 13.6-7.3 5.3 0 7.9 1 11.6 4.3l2.2 2.1 6.5-6.4c3.6-3.6 6.5-7 6.5-7.7 0-1.9-8.2-7.5-13.8-9.5-5.7-2.1-20.7-2.3-26.9-.3zM754 70v35.1l10.8-.3 10.7-.3.3-34.8.2-34.7h-22v35z"
  />
</svg>
