<?xml version="1.0" encoding="UTF-8"?><svg id="Layer_2" xmlns="http://www.w3.org/2000/svg" viewBox="0 0 212.72 121.04"><defs><style>.cls-1{fill:#202020;}</style></defs><g id="Layer_3"><g><polygon class="cls-1" points="161.6 0 150.26 6.61 212.72 42.89 212.72 29.69 161.6 0"/><path class="cls-1" d="M127.57,19.82h0V101.1l11.41,6.65v-21.08l51.48-30.32,11.32,6.58-51.39,30.26v21.2l11.41,6.65v-21.32l42.4-24.97,8.52-5.02v-13.65L138.92,13.21l-11.34,6.61Zm51.57,29.96l-17.33,10.21v-20.28l17.33,10.07Zm-28.75-16.7v33.63l-11.41,6.72V26.45l11.41,6.63Z"/></g><g><path class="cls-1" d="M14.47,40.04c3.78,0,6.92,1.22,9.47,3.67,2.55,2.45,3.83,5.59,3.83,9.36s-1.28,6.92-3.83,9.36c-2.55,2.45-5.69,3.67-9.47,3.67h-4.95v11.17H0V40.04H14.47Zm0,17.03c2.13,0,3.78-1.65,3.78-3.99s-1.65-3.94-3.78-3.94h-4.95v7.93h4.95Z"/><path class="cls-1" d="M46.34,68.08h12.82v9.21h-22.35V40.04h9.52v28.04Z"/><path class="cls-1" d="M95.93,40.04l-12.56,22.93v14.31h-9.52v-14.21l-12.56-23.04h10.69l6.6,13.78,6.65-13.78h10.69Z"/></g></g></svg>