<svg fill="none" xmlns="http://www.w3.org/2000/svg" viewBox="0 0 539 342">
  <path
    d="M27.99.13C18.84.14 9.7.14.56.12c-.02 14.45 7.32 28.1 18.06 37.47 4.88 3.91 9.92 7.6 14.96 11.28 4.32 3.62 8.57 7.83 10.01 13.48.98 5.72.67 11.95-2.83 16.81-3.72 4.967-8.71 8.53-13.706 12.098-3.694 2.638-7.392 5.278-10.584 8.492-8.99 8.4-15.04 20.13-15.8 32.49-1.24 14.45 4.77 29.09 15.29 38.96 1.564 1.808 3.445 3.252 5.327 4.697 1.126.864 2.253 1.73 3.313 2.673 1.58 1.271 3.244 2.464 4.91 3.658 4.087 2.93 8.189 5.87 11.13 10.012 4.28 6.72 4.82 16.15.12 22.8-3.314 4.501-7.767 7.756-12.223 11.012-2.75 2.011-5.502 4.022-7.987 6.328C3.5 244.53-4.04 268.23 3.08 287.99c3.18 9.82 10.34 17.6 18 24.22 2.125 1.682 4.314 3.286 6.503 4.891l.003.002c3.34 2.448 6.681 4.897 9.804 7.627 4.26 3.83 6.35 9.53 6.75 15.15 4.231 0 8.462-.01 12.694-.021 5.078-.012 10.157-.025 15.236-.019-.48-13.09-5.68-26.34-15.51-35.22-3.602-3.832-7.83-6.928-12.06-10.025-3.453-2.527-6.906-5.055-10.02-7.985-8.04-7.34-8.05-20.99-.76-28.86 3.436-3.249 7.247-6.061 11.058-8.872 2.288-1.688 4.575-3.376 6.782-5.158 1.1-1.11 2.207-2.213 3.315-3.317 2.217-2.207 4.434-4.416 6.595-6.683 12.02-14.69 13.74-36.61 4.31-53.06-2.624-5.603-7.067-9.88-11.462-14.112l-.001-.001a285.062 285.062 0 0 1-2.377-2.307c-1.45-1.095-2.903-2.183-4.357-3.271l-.003-.003c-4.252-3.182-8.503-6.363-12.63-9.716-1.19-1.043-2.092-2.334-2.992-3.625-.439-.628-.877-1.256-1.348-1.855-4.52-8.74-2.46-20.37 5.37-26.5 1.024-.761 2.055-1.519 3.089-2.28 9.91-7.293 20.061-14.762 26.39-25.52 3.92-7.11 5.87-15.14 6.57-23.19-.56-12.97-5.22-26.21-15.11-35-4.28-4.766-9.403-8.559-14.526-12.35-2.885-2.136-5.77-4.271-8.503-6.58-.844-.938-1.545-1.979-2.246-3.02A54.127 54.127 0 0 0 30.59 9.8c-1.17-3.14-2.31-6.31-2.6-9.67Z"
    fill="url(#a)"
  />
  <path
    d="M415.175 230.275c-3.42-.056-6.842-.111-10.185.725-10.48 1.96-20.56 7.72-26.27 16.91-5.54 8.87-6.27 20.63-1.53 30.01 1.163 2.501 3.143 4.408 5.111 6.304l.002.001c.636.613 1.271 1.225 1.877 1.855 1.804 1.881 4.146 2.98 6.482 4.076 1.005.471 2.008.942 2.968 1.474 6.305 3.009 13.059 4.633 19.818 6.258 5.504 1.324 11.012 2.648 16.282 4.722 1.14 1.11 2.28 2.25 3.4 3.41-.05 2.68-.14 5.37-.29 8.05-.409.225-.815.46-1.222.696h-.002c-1.526.883-3.064 1.773-4.776 2.184-10.35 1.22-21.14-.26-30.43-5.12-.72-.382-1.454-.752-2.19-1.123-3.238-1.632-6.531-3.29-8.86-6.117-3.581 4.834-7.482 9.406-11.379 13.973l-.002.003-.002.002a679.411 679.411 0 0 0-4.417 5.212c5.88 5.49 13.12 9.23 20.44 12.4 15.05 5.36 31.88 7.22 47.38 2.74 10.64-3.06 20.1-10.89 23.84-21.47 2.08-7.34 2.91-15.7-.82-22.67l-.182-.341c-1.967-3.684-4.064-7.615-7.818-9.739-9-6.65-20.04-9.79-30.87-11.9-1.441-.432-2.929-.793-4.424-1.154l-.001-.001c-4.159-1.007-8.37-2.027-11.76-4.637-.885-.681-1.601-1.572-2.019-2.608-.921-2.284-.935-4.684.814-6.85 1.213-1.503 3.086-2.346 4.973-2.759 12.491-2.73 25.593 2.282 36.077 9.039 2.48-3.033 4.687-6.274 6.894-9.514 2.385-3.501 4.769-7.001 7.496-10.236-8.22-5.61-17.09-10.61-27.01-12.33-.61-.107-1.22-.218-1.83-.329l-.005-.001c-3.552-.647-7.118-1.297-10.735-1.16-1.602.067-3.214.041-4.825.015Z"
    fill="url(#b)"
  />
  <path
    fill-rule="evenodd"
    clip-rule="evenodd"
    d="M195.188 234.285c.505-1.439 1.086-3.095 2.792-3.055 4.115-.062 8.232-.045 12.349-.028 4.588.019 9.176.038 13.761-.052 1.19 1.924 1.991 4.026 2.792 6.128.29.76.58 1.52.888 2.272 4.382 10.894 8.749 21.794 13.115 32.695l.002.006c9.084 22.676 18.168 45.352 27.393 67.969a5348.04 5348.04 0 0 0-18.787-.011h-.001c-4.176.002-8.35.005-12.522.001-2.53-6.59-5.15-13.15-8.09-19.56-7.487.077-14.977.087-22.467.097-5.125.007-10.25.014-15.373.043-.458 1.14-.918 2.28-1.378 3.42-2.139 5.307-4.279 10.615-6.262 15.99-30.74.02-61.48.02-92.22 0 .02-24.923.084-49.847.148-74.77.029-11.076.057-22.153.082-33.23 9.87-.01 19.73-.01 29.6-.01.003 9.761 0 19.522-.002 29.282-.005 17.57-.01 35.139.022 52.708 14.02.02 28.05.03 42.07 0 5.508-14.158 11.24-28.231 16.973-42.304v-.002c4.957-12.168 9.914-24.337 14.727-36.564.136-.307.259-.659.388-1.025Zm13.952 34.995c-1.291 4.352-2.691 8.672-4.09 12.991-1.668 5.148-3.336 10.295-4.82 15.499 2.486-.015 4.973-.009 7.461-.003 4.147.01 8.295.02 12.439-.067-1.421-4.818-2.945-9.601-4.469-14.384l-.001-.002c-1.684-5.284-3.367-10.567-4.91-15.894l-.138.159c-.427.49-1.114 1.28-1.472 1.701Z"
    fill="url(#c)"
  />
  <path
    fill-rule="evenodd"
    clip-rule="evenodd"
    d="M304.579 232.246c-10.469-.027-20.937-.055-31.399.094-.26.26-.79.79-1.06 1.05-.136 20.473-.125 40.949-.114 61.425.007 14.139.015 28.278-.026 42.415-.21 1.27.27 3.21 1.95 2.95 9.968.037 19.937.029 29.906.021a7606.26 7606.26 0 0 1 26.164.009c11.19-.76 23.48-2.99 31.45-11.61 8.15-7.96 9.56-21.36 4.2-31.21-3.59-6.67-10.69-10.59-17.68-12.75 0-.45-.01-1.34-.01-1.79 2.86-1.61 5.63-3.41 8.28-5.36 5.94-6.06 9.21-15.07 7.14-23.49-1.48-6.57-5.89-12.1-11.35-15.86-6.64-3.93-14.34-5.72-22-5.92-8.483.072-16.967.049-25.451.026Zm-3.408 30.698c.003-2.319.006-4.637-.001-6.954 5.655.023 11.31.004 16.965-.015l4.845-.015c3.31-.06 6.74.93 9.25 3.15 3.6 3.38 3.42 9.87-.36 13.06-2.95 2.61-7.13 2.91-10.88 3.06l-2.289.008c-5.835.02-11.663.041-17.491-.118-.051-4.06-.045-8.119-.039-12.176Zm.008 45.738c-.006-4.14-.012-8.281.031-12.422 3.965-.055 7.932-.05 11.9-.045 3.967.005 7.935.01 11.9-.045 4.04-.01 8.56.52 11.55 3.54 3.63 3.26 3.65 9.75-.01 12.99-3.02 2.93-7.44 3.71-11.49 3.67-4.899-.031-9.798-.031-14.697-.032-3.061 0-6.122 0-9.183-.008.007-2.549.003-5.098-.001-7.648Z"
    fill="url(#d)"
  />
  <path
    d="M238.852.051c-3.06-.006-6.12-.011-9.181-.011 3.672 9.206 7.383 18.395 11.093 27.583 3.907 9.677 7.815 19.353 11.677 29.047.71 1.65 1.39 3.31 2 5 .71 1.65 1.4 3.31 1.99 5.01 1.325 3.269 2.66 6.535 3.995 9.801 4.408 10.784 8.817 21.573 12.885 32.479 2.418 0 4.836-.003 7.254-.007 6.772-.01 13.544-.019 20.316.047a316.95 316.95 0 0 1 2.489-6.203c1.222-2.982 2.443-5.963 3.531-8.997 1.592-3.557 3.019-7.183 4.445-10.808 1.361-3.458 2.721-6.915 4.225-10.312.59-1.7 1.28-3.36 2-5.01 4.146-10.487 8.375-20.944 12.603-31.401 4.114-10.173 8.228-20.346 12.267-30.549.75-1.95 1.63-3.85 2.61-5.7-10.84.04-21.68.08-32.52-.02-1.15 2.804-2.169 5.66-3.189 8.516a326.053 326.053 0 0 1-1.891 5.204c-3.219 9.206-6.531 18.379-9.844 27.553-1.894 5.247-3.789 10.493-5.666 15.747-.293.824-.572 1.656-.851 2.489-.968 2.887-1.938 5.783-3.529 8.391-1.464-1.934-2.189-4.216-2.913-6.494-.324-1.02-.647-2.04-1.037-3.026-3.033-8.225-5.976-16.485-8.919-24.744-4.005-11.241-8.01-22.482-12.241-33.636-7.869.08-15.733.065-23.599.051Z"
    fill="#fff"
  />
  <path
    fill-rule="evenodd"
    clip-rule="evenodd"
    d="M90.99.06c7.238.03 14.476.012 21.715-.005 12.136-.03 24.273-.06 36.406.135 9.6.81 19.669 3.48 26.789 10.32 2.8 2.61 5.461 5.52 7.091 9.02 4.64 9.4 5.099 20.71 1.59 30.56-3.19 9.36-11.331 16-19.901 20.32 4.885 7.955 10.217 15.63 15.547 23.303h.001l.002.004c3.333 4.798 6.667 9.597 9.89 14.463-5.552.021-11.107.02-16.661.019-4.86-.002-9.721-.003-14.578.011h-.022c-1.286.01-2.852.022-3.489-1.33-1.89-2.55-3.579-5.25-5.229-7.95-2.79-3.936-5.438-7.967-8.087-11.998-2.594-3.946-5.188-7.893-7.913-11.752-1.993.017-3.986.018-5.98.018-2.658.001-5.318.002-7.98.042-.055 6.666-.047 13.336-.039 20.008v.002c.005 4.316.01 8.633-.001 12.95-3.608-.022-7.216-.01-10.825.003h-.005c-6.064.02-12.13.041-18.19-.103-.195-22.556-.165-45.116-.136-67.674.018-13.456.035-26.912.005-40.366Zm29.479 41.267c.005 3.53.01 7.061.002 10.593 4.118.12 8.241.108 12.365.096a666.25 666.25 0 0 1 7.125.004c5.19-.09 11.04-1.11 14.42-5.46 5.18-6.36 2.4-17.5-5.8-19.75-6.297-1.74-12.833-1.578-19.353-1.416-2.923.073-5.843.145-8.737.046-.036 5.297-.029 10.59-.022 15.885v.002Z"
    fill="#fff"
  />
  <path
    d="M195.861.06c9.76-.01 19.52-.01 29.29-.01-.005 18.025-.005 36.05-.005 54.075 0 18.025 0 36.05-.005 54.075h-29.29v-.082c0-36.023 0-72.045.01-108.058ZM432.011.06c-27.34-.01-54.67-.01-82.01 0 .03 13.504.013 27.01-.003 40.516-.027 22.51-.055 45.022.133 67.534 27.58.14 55.18.18 82.76-.02.152-5.273.131-10.55.111-15.826v-.005c-.011-3.067-.023-6.134-.001-9.199-11.835-.007-23.67-.005-35.508-.002h-.013l-17.769.002c.05-3.719.041-7.438.033-11.157-.006-2.231-.011-4.462-.003-6.693l16.468.002h.007c10.974.002 21.947.005 32.925-.002.01-7.72.01-15.44 0-23.15l-16.48-.002c-10.987-.002-21.973-.005-32.96.002.071-3.98.056-7.962.042-11.942-.006-1.64-.012-3.279-.012-4.918 6.484-.022 12.967-.01 19.452.002h.003c10.896.021 21.793.042 32.695-.102.184-5.289.159-10.585.133-15.88-.014-3.055-.029-6.109-.003-9.16Z"
    fill="#fff"
  />
  <path
    fill-rule="evenodd"
    clip-rule="evenodd"
    d="M438.99.06c7.082.022 14.165.01 21.249-.002C472.141.037 484.046.016 495.95.16c13.85.35 28.42 6.74 35.1 19.42 4.67 9.85 5.12 21.63.99 31.74-3.39 8.77-11.16 14.95-19.34 19.06.712 1.952 1.926 3.622 3.141 5.293.559.77 1.118 1.54 1.629 2.337 2.657 3.952 5.361 7.875 8.064 11.798 3.809 5.527 7.618 11.054 11.296 16.662.32.42.97 1.26 1.3 1.68-7.315.071-14.631.059-21.943.046h-.01c-4.02-.006-8.039-.013-12.057-.006-3.276-4.83-6.477-9.71-9.679-14.59-4.05-6.175-8.101-12.349-12.301-18.42-2.131.023-4.262.023-6.394.022-2.518 0-5.037 0-7.556.038-.062 6.814-.055 13.632-.047 20.451v.002c.004 4.168.008 8.338-.003 12.507-3.607-.022-7.216-.01-10.825.002h-.004c-6.064.021-12.13.042-18.191-.102-.187-22.506-.16-45.015-.133-67.524.017-13.506.033-27.012.003-40.516Zm29.53 25.36c-.08 8.85-.08 17.71-.01 26.56 4.514.042 9.023.04 13.534.038 2.005 0 4.01-.001 6.016.002 4.9-.14 10.41-1.03 13.81-4.93 5.48-5.93 3.41-17.24-4.5-19.97-6.354-2.095-13.036-1.912-19.696-1.73-3.067.085-6.13.169-9.154.03Z"
    fill="#fff"
  />
  <path
    d="M144.86 113.36c-14.14-.18-28.57 4-39.67 12.98-6.76 5.05-11.86 12.1-15.54 19.64-8.09 17.33-6.69 38.69 3.82 54.71 5.77 8.44 13.68 15.56 23.06 19.76 15.41 7.17 33.69 7.35 49.49 1.26 10.25-3.74 18.42-11.52 25.03-19.97-2.273-1.494-4.504-3.047-6.734-4.601h-.001l-.001-.001c-2.83-1.971-5.66-3.942-8.574-5.788-.442-.323-.882-.648-1.323-.973l-.001-.001-.003-.003c-2.07-1.527-4.14-3.056-6.373-4.333-5.19 6.99-13.09 12.23-21.91 12.99-9.01 1.09-18.52-2.69-24.02-9.99-10.15-13.18-8.02-35.19 6.36-44.54 8.9-5.72 20.99-5.51 29.85.18 2.952 1.758 5.295 4.277 7.62 6.778.519.557 1.037 1.115 1.56 1.662.74-.73 1.49-1.45 2.25-2.16 2.431-1.391 4.609-3.155 6.781-4.914.419-.34.839-.679 1.259-1.016 2.79-1.79 5.38-3.88 7.94-5.98 1.439-.843 2.727-1.913 4.009-2.978l.351-.292c-1.5-2.46-3.574-4.451-5.644-6.438-.951-.913-1.902-1.825-2.796-2.782-10.03-8.92-23.59-12.74-36.79-13.2ZM195.83 115.46c6.846-.028 13.692-.022 20.537-.015 2.935.002 5.869.005 8.803.005-.04 36.17-.04 72.33 0 108.49l-4.19-.005h-.009c-8.38-.009-16.761-.019-25.141.015.04-36.16.04-72.32 0-108.49ZM297.817 115.45c-22.541.02-45.084.04-67.627-.09.078 5.202.07 10.404.062 15.606-.006 3.468-.012 6.936.008 10.404 13.9-.03 27.8-.06 41.7.02.055 16.699.047 33.402.039 50.103v.012c-.005 10.809-.01 21.618.001 32.425l7.799-.001c7.79-.002 15.581-.004 23.371.011.014-9.285-.003-18.569-.021-27.854-.033-18.224-.067-36.447.131-54.666 8.445-.109 16.89-.093 25.335-.077 5.465.01 10.93.021 16.395-.003-.003-3.139-.002-6.276 0-9.413v-.018c.003-5.482.006-10.964-.02-16.449-15.722-.037-31.446-.023-47.171-.01h-.002ZM350.07 115.37c8.04.125 16.09.098 24.139.072 2.874-.01 5.748-.019 8.621-.022.7 1.02 1.4 2.04 2.09 3.09.593.89 1.19 1.776 1.786 2.661 1.408 2.088 2.813 4.174 4.154 6.309 3.303 4.859 6.553 9.747 9.803 14.636l.003.004c2.073 3.119 4.147 6.238 6.234 9.35.81 1.21 1.56 2.43 2.26 3.72 2.594-2.412 4.505-5.432 6.416-8.454 1.14-1.801 2.279-3.603 3.564-5.276 2.428-3.852 5.001-7.609 7.574-11.366h.001v-.001c3.299-4.817 6.597-9.632 9.585-14.643 10.759-.01 21.507 0 32.265.01h.005c-10.321 15.177-20.432 30.5-30.543 45.824l-.002.002c-4.671 7.079-9.342 14.159-14.035 21.224.018 8.285.015 16.57.011 24.855-.002 5.525-.005 11.05-.001 16.575-4.231-.009-8.462-.004-12.693 0-5.439.006-10.878.012-16.317-.01-.006-8.647-.004-17.299-.002-25.949l.002-12.971c.218-1.935-.893-3.434-1.986-4.908-.415-.56-.828-1.117-1.164-1.692-3.3-5.014-6.596-10.031-9.892-15.049-7.459-11.355-14.92-22.712-22.438-34.031-2.97-4.77-5.99-9.52-9.44-13.96Z"
    fill="#fff"
  />
  <defs>
    <linearGradient
      id="a"
      x1="281"
      y1="100.7"
      x2="89"
      y2="341.2"
      gradientUnits="userSpaceOnUse"
    >
      <stop stop-color="#40C896" />
      <stop offset="1" stop-color="#03B0EA" />
    </linearGradient>
    <linearGradient
      id="b"
      x1="281"
      y1="100.7"
      x2="89"
      y2="341.2"
      gradientUnits="userSpaceOnUse"
    >
      <stop stop-color="#40C896" />
      <stop offset="1" stop-color="#03B0EA" />
    </linearGradient>
    <linearGradient
      id="c"
      x1="281"
      y1="100.7"
      x2="89"
      y2="341.2"
      gradientUnits="userSpaceOnUse"
    >
      <stop stop-color="#40C896" />
      <stop offset="1" stop-color="#03B0EA" />
    </linearGradient>
    <linearGradient
      id="d"
      x1="281"
      y1="100.7"
      x2="89"
      y2="341.2"
      gradientUnits="userSpaceOnUse"
    >
      <stop stop-color="#40C896" />
      <stop offset="1" stop-color="#03B0EA" />
    </linearGradient>
  </defs>
</svg>
