<svg fill="none" xmlns="http://www.w3.org/2000/svg" viewBox="0 0 539 343">
  <path
    fill-rule="evenodd"
    clip-rule="evenodd"
    d="M27.989.93C18.839.94 9.699.94.559.92c-.02 14.45 7.32 28.1 18.06 37.47 4.88 3.91 9.92 7.6 14.96 11.28 4.32 3.62 8.57 7.83 10.01 13.48.98 5.72.67 11.95-2.83 16.81-3.72 4.967-8.709 8.53-13.705 12.098-3.694 2.638-7.392 5.278-10.585 8.492-8.99 8.4-15.04 20.13-15.8 32.49-1.24 14.45 4.77 29.09 15.29 38.96 1.565 1.808 3.446 3.252 5.328 4.697 1.126.865 2.253 1.73 3.312 2.673 1.581 1.271 3.245 2.464 4.911 3.659 4.087 2.929 8.189 5.87 11.13 10.011 4.28 6.72 4.82 16.15.12 22.8-3.313 4.498-7.762 7.752-12.213 11.006l-.01.006c-2.75 2.011-5.502 4.022-7.988 6.328C3.5 245.33-4.04 269.03 3.08 288.79c3.18 9.82 10.34 17.6 18 24.22 2.129 1.684 4.32 3.29 6.51 4.896 3.34 2.447 6.68 4.895 9.8 7.624 4.26 3.83 6.35 9.53 6.75 15.15 4.232 0 8.464-.01 12.696-.021l7.344-.016c2.63-.004 5.26-.006 7.89-.003-.48-13.09-5.68-26.34-15.51-35.22-3.6-3.832-7.829-6.928-12.06-10.024-3.453-2.528-6.906-5.056-10.02-7.986-8.04-7.34-8.05-20.99-.76-28.86 3.437-3.249 7.247-6.06 11.058-8.871.963-.711 1.926-1.421 2.883-2.139.879-.659 1.753-1.324 2.616-2 .43-.337.858-.676 1.283-1.02l1.236-1.243c.695-.695 1.391-1.389 2.087-2.082 2.214-2.205 4.43-4.411 6.587-6.675 12.02-14.69 13.74-36.61 4.31-53.06-2.624-5.604-7.068-9.883-11.465-14.115a384.122 384.122 0 0 1-2.375-2.305l-1.385-1.044c-.996-.748-1.993-1.495-2.99-2.24-4.247-3.179-8.492-6.357-12.615-9.706-1.1-.963-1.952-2.138-2.785-3.329-.508-.726-1.01-1.458-1.555-2.151-4.52-8.74-2.46-20.37 5.37-26.5 1.025-.761 2.056-1.52 3.09-2.28 9.91-7.293 20.06-14.762 26.39-25.52 3.92-7.11 5.87-15.14 6.57-23.19-.56-12.97-5.22-26.21-15.11-35-4.28-4.766-9.403-8.558-14.526-12.35-2.885-2.136-5.77-4.271-8.504-6.58-.373-.415-.718-.85-1.047-1.295a38.38 38.38 0 0 1-.915-1.305l-.287-.425a51.884 51.884 0 0 0-1.05-1.525c-1.17-3.14-2.311-6.31-2.601-9.67Zm387.185 230.145c-3.419-.055-6.841-.111-10.185.725-10.48 1.96-20.56 7.72-26.27 16.91-5.54 8.87-6.27 20.63-1.53 30.01 1.164 2.501 3.145 4.409 5.113 6.305l.038.037c.624.6 1.246 1.2 1.839 1.818 1.805 1.881 4.147 2.98 6.484 4.076l.649.304c.331.157.661.316.989.478.45.222.894.45 1.329.692 6.304 3.009 13.058 4.633 19.817 6.258 5.505 1.324 11.013 2.648 16.282 4.722 1.14 1.11 2.28 2.25 3.401 3.41a250.736 250.736 0 0 1-.125 4.497c-.044 1.185-.099 2.37-.166 3.553-.397.219-.792.448-1.189.677l-.035.02c-1.526.883-3.064 1.772-4.776 2.183-10.35 1.22-21.14-.26-30.43-5.12a75.344 75.344 0 0 0-.94-.49c-.406-.208-.814-.413-1.223-.62l-.027-.013c-3.238-1.632-6.53-3.29-8.86-6.117-3.578 4.831-7.477 9.401-11.372 13.966-.775.908-1.55 1.817-2.322 2.727-.705.83-1.408 1.662-2.106 2.497 5.88 5.49 13.12 9.23 20.441 12.4 15.049 5.36 31.88 7.22 47.38 2.74 10.639-3.06 20.099-10.89 23.839-21.47 2.08-7.34 2.911-15.7-.82-22.67l-.18-.338c-1.966-3.685-4.065-7.617-7.82-9.742-9-6.65-20.04-9.79-30.87-11.9-1.441-.432-2.93-.793-4.425-1.155-4.159-1.007-8.369-2.027-11.76-4.637-.884-.681-1.6-1.572-2.018-2.608-.921-2.284-.936-4.684.813-6.85 1.213-1.503 3.086-2.346 4.974-2.759 12.491-2.73 25.593 2.282 36.076 9.039 2.481-3.033 4.689-6.274 6.896-9.514 2.383-3.501 4.767-7.001 7.494-10.236-8.22-5.61-17.09-10.61-27.01-12.33-4.16-.73-8.33-1.65-12.569-1.49-.762.032-1.526.043-2.291.043-.844-.001-1.689-.014-2.535-.028Zm-220.375 5.035c.136-.307.26-.659.389-1.025.505-1.439 1.086-3.095 2.791-3.055 4.116-.061 8.235-.045 12.353-.028 4.587.019 9.173.038 13.757-.052 1.19 1.924 1.991 4.025 2.791 6.126.291.761.581 1.521.889 2.274 4.361 10.84 8.705 21.686 13.05 32.532l.07.175c9.083 22.675 18.166 45.349 27.39 67.963-6.194-.018-12.39-.014-18.583-.011h-.208c-4.174.002-8.347.005-12.519.001-2.53-6.59-5.15-13.15-8.089-19.56-7.492.077-14.986.087-22.479.098-3.385.004-6.77.009-10.152.02-1.737.005-3.473.012-5.209.022l-1.376 3.417c-.65 1.61-1.299 3.22-1.944 4.832-1.481 3.703-2.938 7.415-4.321 11.161-30.739.02-61.479.02-92.22 0 .02-24.902.085-49.805.15-74.707.028-11.098.056-22.195.08-33.293 9.87-.01 19.73-.01 29.6-.01.004 9.747.001 19.494-.002 29.241-.005 17.583-.01 35.166.022 52.749 14.02.02 28.051.03 42.07 0 5.507-14.155 11.238-28.223 16.969-42.293l.041-.104c4.944-12.137 9.89-24.276 14.69-36.473Zm14.34 33.97c-1.292 4.354-2.691 8.674-4.091 12.994-1.667 5.147-3.334 10.293-4.819 15.496 2.485-.015 4.97-.009 7.456-.003 4.149.01 8.299.02 12.445-.067-1.42-4.815-2.944-9.595-4.467-14.375-1.685-5.288-3.369-10.574-4.913-15.905l-.011.012c-.403.464-1.202 1.382-1.6 1.848Zm95.444-37.033c-10.47-.028-20.94-.056-31.404.093-.259.26-.79.79-1.059 1.05-.137 20.462-.126 40.928-.115 61.393.007 14.15.015 28.299-.026 42.447-.21 1.27.271 3.21 1.95 2.95 9.968.037 19.936.029 29.904.021 8.722-.007 17.444-.014 26.167.009 11.189-.76 23.479-2.99 31.45-11.61 8.149-7.96 9.559-21.36 4.199-31.21-3.59-6.67-10.689-10.59-17.68-12.75 0-.45-.009-1.34-.009-1.79a81.353 81.353 0 0 0 8.28-5.36c5.939-6.06 9.21-15.07 7.14-23.49-1.481-6.57-5.89-12.1-11.35-15.86-6.641-3.93-14.341-5.72-22-5.92-8.482.072-16.965.049-25.447.027Zm-3.412 30.656c.002-2.305.005-4.61-.001-6.913 7.269.03 14.54-.01 21.809-.03 3.311-.06 6.74.93 9.25 3.15 3.601 3.38 3.42 9.87-.359 13.06-2.95 2.61-7.13 2.91-10.88 3.06l-2.287.008c-5.835.021-11.664.041-17.493-.118-.051-4.073-.045-8.147-.039-12.217Zm.008 45.751c-.007-4.132-.012-8.263.031-12.394 7.929-.11 15.87.02 23.799-.09 4.04-.01 8.561.52 11.55 3.54 3.63 3.26 3.651 9.75-.01 12.99-3.019 2.93-7.44 3.71-11.49 3.67-4.892-.031-9.785-.031-14.678-.032-3.067 0-6.134 0-9.202-.008.008-2.559.004-5.118 0-7.676Z"
    fill="url(#a)"
  />
  <path
    fill-rule="evenodd"
    clip-rule="evenodd"
    d="M238.85.851a5000.67 5000.67 0 0 0-9.179-.01c2.338 5.859 4.691 11.712 7.05 17.563 5.249 13.02 10.525 26.026 15.719 39.066a88.282 88.282 0 0 1 2 5c.711 1.65 1.401 3.31 1.99 5.01 1.324 3.265 2.657 6.527 3.991 9.789 4.409 10.788 8.82 21.58 12.889 32.491 9.191 0 18.38-.05 27.571.04.801-2.082 1.647-4.146 2.492-6.21 1.221-2.98 2.44-5.959 3.528-8.99 1.591-3.556 3.018-7.18 4.444-10.803 1.361-3.46 2.722-6.918 4.226-10.317.59-1.7 1.279-3.36 2-5.01 4.145-10.484 8.371-20.937 12.599-31.39 4.115-10.177 8.23-20.354 12.27-30.56.75-1.95 1.631-3.85 2.611-5.7-10.84.04-21.68.08-32.52-.02-1.151 2.807-2.171 5.665-3.192 8.524a325.85 325.85 0 0 1-1.888 5.196 2263.78 2263.78 0 0 1-7.127 20.02c-2.795 7.759-5.608 15.512-8.384 23.28-.293.824-.571 1.655-.85 2.487-.967 2.888-1.938 5.785-3.53 8.393-1.464-1.934-2.188-4.216-2.912-6.494-.324-1.02-.647-2.04-1.037-3.026-3.033-8.228-5.976-16.49-8.92-24.75-4.005-11.24-8.01-22.478-12.24-33.63-7.87.08-15.734.065-23.601.051ZM90.99.861c7.237.03 14.477.012 21.716-.006 12.136-.03 24.271-.059 36.404.135 9.601.81 19.67 3.48 26.79 10.32 2.8 2.61 5.46 5.52 7.09 9.02 4.641 9.4 5.101 20.71 1.59 30.56-3.19 9.36-11.329 16-19.9 20.32 4.885 7.955 10.216 15.63 15.547 23.304 3.334 4.8 6.668 9.599 9.893 14.466-10.409.04-20.83 0-31.239.03h-.024c-1.284.01-2.85.022-3.487-1.33-1.89-2.55-3.58-5.25-5.23-7.95-2.79-3.937-5.439-7.97-8.089-12.002-2.593-3.945-5.186-7.89-7.911-11.748-4.65.04-9.299-.01-13.96.06-.017 2.066-.028 4.133-.035 6.2l-.008 3.552v2.198l-.001 1.436c0 2.197.002 4.395.005 6.593.006 4.327.011 8.654-.001 12.981-3.608-.022-7.218-.01-10.829.003-6.064.02-12.13.041-18.191-.103-.193-22.452-.164-44.909-.135-67.364v-.292c.018-13.462.035-26.924.005-40.384Zm29.479 40.946v.346c.004 3.522.009 7.044.002 10.567 4.12.12 8.245.108 12.371.096 2.373-.007 4.746-.014 7.119.004 5.189-.09 11.04-1.11 14.42-5.46 5.179-6.36 2.399-17.5-5.801-19.75-6.297-1.74-12.832-1.578-19.353-1.416-2.923.073-5.842.145-8.737.046-.035 5.191-.028 10.379-.021 15.567ZM195.86.86c9.76-.01 19.521-.01 29.29-.01-.005 18.025-.005 36.05-.005 54.075l-.001 28.605-.004 25.47h-29.29l.002-61.565.004-23.33L195.86.86ZM362.084.856 350.001.86c.03 13.509.013 27.018-.003 40.53-.027 22.505-.055 45.012.133 67.52 27.58.14 55.179.18 82.759-.02.152-5.269.132-10.543.112-15.815l-.011-3.148c-.005-2.023-.005-4.045.01-6.067-11.839-.007-23.679-.004-35.522-.002l-17.768.002c.032-2.38.04-4.76.039-7.14l-.007-3.99c-.005-2.24-.01-4.48-.002-6.72l16.469.002c10.976.002 21.951.005 32.93-.002.01-7.72.01-15.44 0-23.15l-16.479-.002c-10.986-.002-21.974-.005-32.96.002.07-3.975.056-7.95.041-11.925l-.006-1.858A789.204 789.204 0 0 1 379.73 26c6.488-.023 12.975-.01 19.463.002 10.894.021 21.789.042 32.688-.102.182-5.261.158-10.53.133-15.798v-.073c-.014-3.058-.029-6.115-.003-9.169L413.99.855 384.697.853l-22.613.003ZM438.99.86c7.084.023 14.17.01 21.256-.002C472.145.837 484.048.816 495.95.96c13.85.35 28.42 6.74 35.1 19.42 4.67 9.85 5.12 21.63.99 31.74-3.39 8.77-11.16 14.95-19.34 19.06 1.04 2.85 3.149 5.1 4.77 7.63 2.656 3.95 5.358 7.872 8.06 11.793l1.947 2.827c3.158 4.588 6.3 9.186 9.353 13.84l.479.624.555.715.266.341c-7.317.071-14.633.059-21.947.047-4.022-.007-8.044-.014-12.063-.007-3.24-4.777-6.408-9.605-9.576-14.432l-.1-.153c-4.052-6.176-8.103-12.352-12.305-18.425-.884.01-1.77.015-2.655.018-1.246.005-2.492.005-3.738.005h-2.408a495.72 495.72 0 0 0-4.184.024l-.964.013c-.062 6.816-.055 13.636-.049 20.458.005 4.167.01 8.335-.002 12.502a773.108 773.108 0 0 0-5.899-.011c-1.644.002-3.287.008-4.932.013-6.063.021-12.128.042-18.188-.102-.188-22.501-.16-45.006-.133-67.51.008-6.273.016-12.546.019-18.819A6841.567 6841.567 0 0 0 438.99.86Zm29.53 25.36c-.08 8.85-.08 17.71-.01 26.56 1.903.018 3.806.027 5.709.033 2.609.007 5.216.006 7.825.005 2.005 0 4.01-.001 6.016.002 4.9-.14 10.41-1.03 13.81-4.93 5.48-5.93 3.41-17.24-4.5-19.97-6.354-2.095-13.036-1.912-19.695-1.73-3.068.085-6.13.169-9.155.03Zm-323.66 87.94c-14.139-.18-28.57 4-39.67 12.98-6.76 5.05-11.86 12.1-15.54 19.64-8.09 17.33-6.69 38.69 3.82 54.71 5.77 8.44 13.68 15.56 23.06 19.76 15.41 7.17 33.691 7.35 49.49 1.26 10.25-3.74 18.42-11.52 25.031-19.97-2.275-1.494-4.506-3.048-6.737-4.602l-.029-.02-.018-.012c-2.815-1.961-5.629-3.92-8.527-5.756-2.519-1.84-4.99-3.76-7.7-5.31-5.19 6.99-13.09 12.23-21.909 12.99-9.011 1.09-18.521-2.69-24.021-9.99-10.149-13.18-8.019-35.19 6.361-44.54 8.899-5.72 20.99-5.51 29.849.18 2.953 1.759 5.298 4.28 7.623 6.781.518.557 1.034 1.113 1.557 1.659.74-.73 1.49-1.45 2.25-2.16 2.9-1.66 5.44-3.85 8.04-5.93 2.79-1.79 5.381-3.88 7.94-5.98 1.571-.92 2.96-2.11 4.361-3.27-1.501-2.46-3.575-4.45-5.645-6.437l-.029-.027c-.453-.436-.906-.871-1.353-1.312a50.71 50.71 0 0 1-1.414-1.444c-10.03-8.92-23.59-12.74-36.79-13.2Zm50.97 2.1c6.846-.028 13.691-.022 20.537-.015 2.935.002 5.868.005 8.803.005-.04 36.17-.04 72.33 0 108.49l-4.193-.005a4790.77 4790.77 0 0 0-25.147.015c.04-36.16.04-72.32 0-108.49Zm101.978-.01h-.108c-22.502.02-45.006.04-67.51-.09.077 5.132.07 10.264.062 15.395v.173c-.006 3.481-.012 6.961.009 10.442 13.899-.03 27.799-.06 41.699.02.055 16.775.047 33.553.038 50.33l-.005 10.873c-.002 7.113-.001 14.225.007 21.337l7.793-.001 5.533-.001 9.439.002c2.802.002 5.604.005 8.406.01.012-9.26-.005-18.52-.023-27.779v-.229c-.033-18.173-.066-36.345.132-54.512 8.445-.109 16.891-.093 25.336-.077h.117c5.426.01 10.852.021 16.278-.003-.006-4.576 0-9.15.001-13.723 0-1.926 0-3.853-.003-5.779-.003-2.126-.009-4.251-.019-6.378-15.726-.037-31.453-.023-47.182-.01Zm76.366-.008h.038c2.873-.01 5.746-.019 8.618-.022l.639.932c.486.711.971 1.427 1.451 2.158a480.9 480.9 0 0 0 1.495 2.229l.258.382c1.419 2.105 2.836 4.207 4.187 6.359 5.41 7.96 10.68 16 16.04 23.99.427.638.837 1.278 1.233 1.93.354.585.696 1.18 1.027 1.79 2.591-2.409 4.5-5.425 6.41-8.443l.006-.01c1.14-1.802 2.279-3.603 3.564-5.277 2.428-3.852 5.002-7.61 7.576-11.368 3.298-4.816 6.596-9.631 9.585-14.642 10.754-.01 21.5 0 32.254.01h.015c-10.311 15.163-20.412 30.471-30.514 45.78l-.049.074-.074.11a8169.775 8169.775 0 0 1-13.943 21.086c.03 13.81 0 27.62.01 41.43-4.231-.009-8.461-.004-12.692 0-5.439.007-10.879.012-16.318-.01-.01-12.97 0-25.95 0-38.92.218-1.935-.894-3.435-1.987-4.909-.415-.56-.827-1.116-1.163-1.691-3.291-5-6.578-10.003-9.866-15.007-7.467-11.37-14.936-22.741-22.463-34.073-2.971-4.77-5.991-9.52-9.441-13.96 8.028.125 16.067.098 24.104.072Z"
    fill="#0B0203"
  />
  <defs>
    <linearGradient
      id="a"
      x1="281"
      y1="101.5"
      x2="89"
      y2="342"
      gradientUnits="userSpaceOnUse"
    >
      <stop stop-color="#40C896" />
      <stop offset="1" stop-color="#03B0EA" />
    </linearGradient>
  </defs>
</svg>
