<?xml version="1.0" standalone="no"?>
<!DOCTYPE svg PUBLIC "-//W3C//DTD SVG 20010904//EN"
 "http://www.w3.org/TR/2001/REC-SVG-20010904/DTD/svg10.dtd">
<svg version="1.0" xmlns="http://www.w3.org/2000/svg"
 width="800.000000pt" height="500.000000pt" viewBox="0 0 800.000000 500.000000"
 preserveAspectRatio="xMidYMid meet">

<g transform="translate(0.000000,500.000000) scale(0.100000,-0.100000)"
fill="#000000" stroke="none">
<path d="M649 3113 c-13 -16 -12 -17 4 -4 9 7 17 15 17 17 0 8 -8 3 -21 -13z"/>
<path d="M990 3126 c0 -2 8 -10 18 -17 15 -13 16 -12 3 4 -13 16 -21 21 -21
13z"/>
<path d="M665 2990 c-3 -5 0 -7 8 -4 8 3 20 -2 27 -10 7 -9 16 -13 22 -10 13
8 -11 34 -33 34 -10 0 -21 -4 -24 -10z"/>
<path d="M940 2985 c-7 -9 -10 -18 -6 -22 3 -4 12 2 20 12 8 11 19 16 30 12
10 -4 15 -3 11 3 -9 15 -41 12 -55 -5z"/>
<path d="M2357 2993 l-47 -4 7 -112 c5 -62 8 -295 8 -520 l0 -407 95 0 95 0
-4 263 -3 263 52 24 c69 32 156 34 197 4 48 -36 55 -83 49 -331 l-5 -223 95 0
94 0 0 273 c0 167 -4 287 -11 312 -15 53 -73 110 -129 126 -25 7 -76 12 -115
12 -75 0 -124 -16 -188 -60 -20 -14 -40 -24 -42 -21 -3 3 -2 95 2 206 l8 202
-55 -2 c-30 -1 -76 -3 -103 -5z"/>
<path d="M3250 2980 c-91 -21 -120 -144 -48 -205 28 -23 39 -27 81 -22 63 6
106 45 114 104 12 88 -55 143 -147 123z"/>
<path d="M657 2799 c37 -69 78 -99 146 -106 74 -8 120 2 157 34 32 26 88 123
71 123 -5 0 -32 -21 -60 -46 -87 -79 -165 -78 -262 2 -73 59 -88 57 -52 -7z"/>
<path d="M1111 2723 c-8 -20 -33 -55 -57 -79 -52 -50 -56 -62 -13 -37 17 10
43 39 58 65 14 26 28 48 31 48 3 0 35 -22 71 -49 40 -30 99 -89 147 -149 88
-110 108 -142 121 -199 l9 -38 1 38 c1 56 -20 98 -103 200 -82 102 -127 146
-202 200 l-50 36 -13 -36z"/>
<path d="M1840 2664 c-135 -36 -204 -164 -151 -280 24 -53 61 -81 194 -144 63
-30 114 -61 123 -76 21 -31 12 -67 -21 -82 -35 -16 -188 -15 -253 2 -59 16
-51 25 -70 -77 -10 -47 -9 -49 17 -60 15 -6 87 -11 176 -12 136 0 155 2 200
23 95 44 135 103 135 197 -1 104 -69 170 -244 235 -80 30 -108 55 -104 93 2
22 11 35 28 44 42 21 164 16 246 -11 19 -6 22 -1 33 65 6 40 10 73 9 75 -2 1
-33 8 -68 13 -89 15 -184 13 -250 -5z"/>
<path d="M3880 2674 c-53 -11 -96 -27 -127 -50 -17 -13 -34 -24 -36 -24 -3 0
-8 16 -11 36 -6 27 -11 34 -24 30 -9 -3 -52 -8 -95 -12 -65 -5 -77 -9 -73 -23
23 -77 31 -230 31 -609 l0 -412 97 0 97 0 -6 186 -6 185 49 -26 c45 -24 57
-26 139 -23 68 3 101 10 133 27 97 50 172 167 193 300 26 169 -49 336 -177
392 -43 20 -139 31 -184 23z m71 -157 c71 -48 104 -130 97 -238 -12 -165 -132
-257 -267 -203 l-39 15 -7 122 c-3 67 -5 158 -3 202 l3 80 45 23 c59 29 126
29 171 -1z"/>
<path d="M3255 2656 c-63 -7 -99 -15 -98 -22 15 -82 24 -314 19 -481 l-6 -203
100 0 c62 0 99 4 95 10 -3 5 -6 167 -6 360 1 192 0 349 -2 349 -1 -1 -47 -7
-102 -13z"/>
<path d="M979 2553 c-13 -16 -12 -17 4 -4 9 7 17 15 17 17 0 8 -8 3 -21 -13z"/>
<path d="M416 2478 c13 -40 35 -84 48 -98 38 -41 44 -60 51 -175 4 -61 12
-118 16 -127 12 -22 -18 -32 -54 -19 -19 8 -30 25 -47 78 -25 74 -59 147 -66
141 -2 -3 7 -38 21 -78 28 -83 34 -150 11 -131 -7 6 -16 29 -20 51 -7 47 -25
95 -32 88 -2 -3 0 -26 6 -52 12 -56 4 -96 -19 -96 -17 0 -58 -57 -48 -66 3 -3
8 4 12 15 4 12 12 18 21 14 8 -3 21 0 29 7 9 7 22 9 32 5 10 -5 54 -9 98 -11
105 -3 103 -2 81 -19 -28 -21 -17 -25 37 -13 27 5 51 7 54 4 6 -6 -34 -41 -71
-63 -46 -27 11 -12 61 16 73 40 80 20 15 -39 -29 -26 -52 -51 -52 -55 0 -5 5
-4 12 3 16 16 29 15 22 -2 -3 -8 -1 -17 5 -21 6 -3 11 -15 11 -25 0 -11 9 -36
20 -56 12 -20 20 -37 18 -39 -14 -11 -238 32 -310 60 -26 10 -22 -15 8 -49 44
-50 169 -69 273 -41 71 18 78 27 54 62 -11 15 -28 52 -37 82 l-17 53 42 39
c26 24 52 39 68 39 24 0 24 -1 5 -15 -17 -13 -14 -14 36 -14 50 1 53 2 28 12
-16 6 -28 14 -28 18 0 8 54 17 130 23 25 1 57 8 72 16 25 12 32 10 93 -29 80
-50 92 -52 43 -6 -21 18 -38 41 -38 50 0 16 10 15 98 -10 46 -14 55 -6 20 18
-22 14 -20 15 27 11 43 -4 47 -3 28 7 -25 13 -30 41 -10 57 7 6 33 14 57 18
34 6 40 9 25 14 -17 7 -16 9 10 15 17 4 37 9 47 11 18 5 38 53 38 92 0 13 -12
46 -26 73 -29 53 -62 73 -134 83 l-45 6 47 -18 c60 -22 86 -46 98 -93 12 -45
5 -81 -19 -103 -10 -9 -60 -25 -112 -36 -52 -11 -128 -36 -169 -56 -113 -53
-200 -56 -200 -5 0 10 -3 21 -7 25 -19 19 -28 123 -12 144 7 9 1 5 -13 -9 -36
-36 -86 -66 -160 -95 -74 -29 -69 -28 -60 -5 4 11 39 43 77 72 75 55 205 178
205 192 0 5 -15 -4 -33 -20 -71 -62 -242 -153 -257 -136 -4 4 -15 33 -24 64
-19 66 -79 140 -154 188 -27 17 -51 31 -55 31 -3 0 5 -32 19 -72z"/>
<path d="M895 2458 l-70 -73 73 70 c39 38 72 71 72 72 0 8 -11 -2 -75 -69z"/>
<path d="M310 2476 c0 -3 9 -10 20 -16 11 -6 20 -8 20 -6 0 3 -9 10 -20 16
-11 6 -20 8 -20 6z"/>
<path d="M360 2446 c0 -3 9 -10 20 -16 11 -6 20 -8 20 -6 0 3 -9 10 -20 16
-11 6 -20 8 -20 6z"/>
<path d="M1041 2429 c-7 -12 -10 -23 -8 -26 3 -3 11 5 17 17 15 28 8 35 -9 9z"/>
<path d="M1106 2393 c-8 -16 -26 -38 -40 -50 -37 -32 -32 -43 18 -43 55 0 95
30 102 77 l5 33 -30 -30 c-48 -48 -59 -39 -34 28 9 23 -7 12 -21 -15z"/>
<path d="M995 2400 c-3 -6 1 -7 9 -4 18 7 21 14 7 14 -6 0 -13 -4 -16 -10z"/>
<path d="M1215 2390 c-3 -6 1 -7 9 -4 18 7 21 14 7 14 -6 0 -13 -4 -16 -10z"/>
<path d="M961 2339 c-1 -32 -10 -42 -26 -29 -8 7 -18 4 -30 -10 -18 -20 -17
-20 28 -20 50 0 54 6 37 60 l-8 25 -1 -26z"/>
<path d="M1471 2244 c0 -11 3 -14 6 -6 3 7 2 16 -1 19 -3 4 -6 -2 -5 -13z"/>
<path d="M285 2134 c1 -33 7 -60 13 -62 17 -5 15 80 -1 102 -12 16 -13 11 -12
-40z"/>
<path d="M920 1885 c13 -14 26 -25 28 -25 3 0 -5 11 -18 25 -13 14 -26 25 -28
25 -3 0 5 -11 18 -25z"/>
<path d="M1358 1842 c-71 -78 -94 -92 -194 -117 -82 -21 -118 -13 -156 34
l-21 26 6 -26 c6 -25 4 -27 -34 -33 -22 -4 -45 -3 -51 0 -27 17 2 -24 32 -44
28 -19 42 -21 84 -16 28 3 67 14 86 24 19 9 66 20 104 25 76 8 82 12 162 116
78 102 71 106 -18 11z"/>
</g>
</svg>
