<svg fill="none" xmlns="http://www.w3.org/2000/svg" viewBox="0 0 695 157">
  <path
    d="M301.5 48.7a10.726 10.726 0 0 1-2.94 7.51 10.5 10.5 0 0 1-8.18 3.23 8.79 8.79 0 0 1-6.91-2.79A9.626 9.626 0 0 1 281 50a10.582 10.582 0 0 1 2.94-7.45c1.95-2.1 4.69-3.16 8.24-3.16a8.736 8.736 0 0 1 6.91 2.75 9.567 9.567 0 0 1 2.43 6.6M198.251 110.53c0 12.62-9.35 18.933-28.05 18.94a64.238 64.238 0 0 1-17.86-2.21l2.14-12.44a45.994 45.994 0 0 0 15.72 2.85c5.05 0 8.55-.43 10.52-1.27a4.346 4.346 0 0 0 2.93-4.23c0-3.067-3.537-5.993-10.61-8.78-6.18-2.447-10.684-4.843-13.51-7.19a15.305 15.305 0 0 1-5.82-12.07 16.577 16.577 0 0 1 6.29-13.51c4.166-3.413 10.233-5.12 18.2-5.12 7.44 0 13.29.667 17.55 2l-2.18 12.5a42.132 42.132 0 0 0-15.4-2.79c-6.75 0-10.11 1.74-10.11 5.19a5.089 5.089 0 0 0 2.14 4.27c1.44 1.073 4.367 2.43 8.78 4.07 6.107 2.233 10.55 4.527 13.33 6.88a16.259 16.259 0 0 1 5.94 12.95M266.651 127.77h-16.81c.933-10.667 1.396-21.023 1.39-31.07 0-7.5-.947-12.417-2.84-14.75-1.89-2.34-5-3.5-9.35-3.5a23.477 23.477 0 0 0-13.51 4.61c0 17.88.21 32.783.63 44.71h-16.8c.46-13.047.693-28.69.7-46.93a370.627 370.627 0 0 0-2-41.86l17.94-.98c-.634 13.56-.967 25.35-1 35.37h.82a27.437 27.437 0 0 1 19.07-7.64c6.78 0 12.096 1.533 15.95 4.6 3.853 3.067 5.783 8.48 5.79 16.24 0 .8-.06 2.44-.16 4.89-.1 2.45-.16 4.1-.16 4.9 0 7.033.106 17.517.32 31.45M298.601 127.77h-17c.586-8.72.883-18.72.89-30 .1-9.853-.619-19.697-2.15-29.43l18.19-1.83c-.56 8.16-.837 18.58-.83 31.26 0 10.82.296 20.82.89 30M366.75 74.37c-4.73-5.83-11.11-8.74-19.2-8.74-7.747 0-13.877 2.084-18.39 6.25h-1l-.94-5.43L311 68.22c2.213 10.667 3.317 26.2 3.31 46.6 0 15.8-.38 29.743-1.14 41.83h17.18c-.3-10.587-.45-21.033-.45-31.34h.76c2.53 2.85 7.17 4.3 13.89 4.3 9.047 0 16.187-3.457 21.42-10.37a38.767 38.767 0 0 0 7.82-24.06 32.11 32.11 0 0 0-7.06-20.81h.02ZM353 111.89c-2.71 4.15-6.85 6.21-12.47 6.21-4.207 0-7.633-1.03-10.28-3.09 0-9.84-.317-20.683-.95-32.53 2.69-3.39 6.95-5.11 12.75-5.11a12.687 12.687 0 0 1 11 5.74 23.458 23.458 0 0 1 4 13.71 27.288 27.288 0 0 1-4 15.07"
    fill="#151628"
  />
  <path
    d="M478.84 127.77H462.1c.9-10.667 1.343-21.023 1.33-31.07 0-7.53-1-12.46-2.91-14.78-1.91-2.32-5-3.47-9.27-3.47-3.413 0-7.017 1.243-10.81 3.73a497.17 497.17 0 0 0-.25 14.14c0 7.033.13 17.517.39 31.45h-16.93c.9-11.54 1.35-22.763 1.35-33.67 0-5.63-.78-9.65-2.37-12.06s-4.84-3.59-9.81-3.59a15.379 15.379 0 0 0-11.43 4.61c.2 16.667.307 31.57.32 44.71h-17c.76-13.127 1.14-23.483 1.14-31.07a129.05 129.05 0 0 0-3.1-28.48L399 66.45l1.08 6.69h1a26.82 26.82 0 0 1 18.51-7.45c8.587 0 14.63 2.483 18.13 7.45h1c6.233-4.967 12.4-7.45 18.5-7.45 7.16 0 12.56 1.547 16.2 4.64 3.64 3.093 5.46 8.703 5.46 16.83 0 .81 0 2.33-.12 4.59s-.13 3.77-.13 4.57c0 7.033.083 17.517.25 31.45M622.2 127.77h-16.8a367.757 367.757 0 0 0 1.39-32.33c0-6.61-1-11.1-2.94-13.46-1.94-2.36-4.93-3.53-8.93-3.53a22.101 22.101 0 0 0-13.64 4.92c.214 16.42.324 31.22.33 44.4h-17c.76-13.18 1.14-23.536 1.14-31.07.05-9.58-.99-19.135-3.1-28.48l16.17-1.77 1.07 6.69h1a29.62 29.62 0 0 1 19.91-7.45c6.494 0 11.684 1.523 15.57 4.57 3.887 3.047 5.83 8.68 5.83 16.9 0 1.23-.05 2.85-.16 4.9-.11 2.05-.15 4.14-.15 6.28 0 5.68.104 15.49.31 29.43ZM694.2 127.77h-19.33c0-1.56-3.197-6.833-9.59-15.82S654.793 98.467 653 98.46h-.83c0 8.627.253 18.397.76 29.31h-16.71c.507-19.66.76-35.303.76-46.93A386.392 386.392 0 0 0 635 39l18-1c-.587 16-.88 30.293-.88 42.88 0 1.61 0 4.71.06 9.35h.82c1.173 0 4.507-3.397 10-10.19 5.493-6.793 8.253-10.87 8.28-12.23h18.82c0 1.333-2.867 4.977-8.6 10.93-5.733 5.953-10.363 10.08-13.89 12.38V92c3.92 2.733 9.323 8.953 16.21 18.66 6.887 9.707 10.323 15.4 10.31 17.08M544.731 73.24a30.722 30.722 0 0 0-21.56-8.24 33.097 33.097 0 0 0-23.17 9c-6.58 6-9.867 14.333-9.86 25 0 9.9 3.016 17.583 9.05 23.05a31.226 31.226 0 0 0 21.67 8.18 33 33 0 0 0 23.07-9c6.506-6 9.766-14.297 9.78-24.89 0-9.927-3-17.643-9-23.15l.02.05Zm-6.96 37.3a2.048 2.048 0 0 1-2 2.06h-26.35a2.05 2.05 0 0 1-2-2.06V84.27a2 2 0 0 1 2-2h26.32a2 2 0 0 1 2 2l.03 26.27Z"
    fill="#408F24"
  />
  <path
    d="M123.531 149.49c0 3.39-22.49 6.14-50.24 6.14-27.75 0-50.24-2.75-50.24-6.14 0-3.39 22.49-6.14 50.24-6.14 27.75 0 50.24 2.75 50.24 6.14Z"
    fill="#151628"
  />
  <path
    d="M127.201 119.71a8.32 8.32 0 0 1 .68 3.81 14.35 14.35 0 0 1-1.36 4.7 37.557 37.557 0 0 1-5.75 8.56 58.16 58.16 0 0 0-3.91 4.55c-.32.47-.3 1-.6 1.5a10.402 10.402 0 0 1-1.55 1.82 7.668 7.668 0 0 1-1.94 1.45 5.11 5.11 0 0 1-1.48.62c-.8.14-1.63.1-2.44.19-.807.117-1.601.312-2.37.58a11.23 11.23 0 0 1-5.21.36c-.22-.05-1-.27-1-.27a13.748 13.748 0 0 1-3.64 2.53 7.44 7.44 0 0 1-2.43.78c-.76.12-1.51.05-2.27.1-1.61.1-3.11.79-4.7 1a6.446 6.446 0 0 1-3.14-.83 12.35 12.35 0 0 1-3-1.66c-.49-.4-2.55-2.55-2.17-3.27a18.013 18.013 0 0 1-3.92 2.19 5.705 5.705 0 0 1-2.08.37h-.39a8.423 8.423 0 0 0-1.12-.12 3.256 3.256 0 0 0-.45.07c-.75.18-1.42.72-2.2.87h-.36c-1.11.1-3.34 0-4.1-1.34a1.235 1.235 0 0 1-.12-.26c-.517.22-1.044.413-1.58.58a47.621 47.621 0 0 1-8.33 2.24 27.772 27.772 0 0 1-7.34.29c-2.3-.25-4.62-.72-6.89-1.18a12.87 12.87 0 0 1-3.81-1.18 3.32 3.32 0 0 1-.9-.76 3.632 3.632 0 0 1-.29-.5 3.294 3.294 0 0 0-.75-.84 10.995 10.995 0 0 1-2.38-3.11 3.33 3.33 0 0 1-.43-1.5c0-.11.16-.76.16-.76a13.215 13.215 0 0 1-3.72-3.18A16.12 16.12 0 0 1 23.94 127c.127-2.48.81-4.9 2-7.08a18.724 18.724 0 0 1 1.63-2.6 12.933 12.933 0 0 1-1.77-1.6 20.578 20.578 0 0 1-1.87-2.26 26.996 26.996 0 0 1-3.86-7.83 32.73 32.73 0 0 1-.75-13.3c.3-1.972.868-3.893 1.69-5.71.479-.97.886-1.972 1.22-3 0 0-.15-1.62-.22-2.25-.13-1.26-.52-2.53-.53-3.79a4.53 4.53 0 0 1 1.33-3.38v.31c.51 3.21 4 4.8 6.53 6.33a186.52 186.52 0 0 0 5.7 3.32c1.12.63 2.25 1.26 3.39 1.87a99.165 99.165 0 0 0-1-3c-.49-1.48-1-3-1.51-4.43-.4-1.2-.81-2.39-1.2-3.6-.1-.28-.19-.56-.28-.84 4.3.43 12.63 8.39 15.6 12 2.67 3.29 3.76 7.64 4.74 11.69.004.03.004.06 0 .09 0 0 4.94-1.65 13.41-7.46a77.999 77.999 0 0 0 17.69-17.24c.45-.6 1.28-1.8 2-2.83l1.21-1.78a28.397 28.397 0 0 0 3.37-2.68 24.73 24.73 0 0 0 6-10l1.13.83c2.82 2 8.86 6.22 10.54 7.75 1.9 1.73 3.48 3.76 5.25 5.62 3.43 3.61 6.28 8.22 7.39 9.31a25.632 25.632 0 0 1 3.91 5 22.426 22.426 0 0 1 3.2 8.81 14.001 14.001 0 0 1-5.55 13.73 17.527 17.527 0 0 1-8 3.45h-.09c1.63.07 7.3.78 11 9.28"
    fill="#408F24"
  />
  <path
    d="M123.72 93.61c-1.6-2-4.32 11.52-4.32 11.52l-6.8.71-2.52-17.63s-6.5 4.7-8 3.86c-1.22-.71 1.11-6.45 1.23-6.74-.13.25-3.4 6.27-7.09 7.17a24.48 24.48 0 0 0 1.85-8.49c-2 5.08-4.76 8.52-8.63 9.76-3.87 1.24.41-7.88 2.26-11.21-3.48 5.17-10.09 18.07-11.91 11.47-2.76 3.84-11.4 12-25.31 16.14.347-1.344.574-2.716.68-4.1 17.3-10.24 19.55-11.77 26.29-21.36-11.44 10.35-21.05 14.42-26.33 15.68a22.91 22.91 0 0 0-.36-2.49c-1-4-2.07-8.4-4.74-11.69a56.992 56.992 0 0 0-5.84-6l-1.32 1.08 2.16 5-2.14 4.32a22.68 22.68 0 0 1 2.55 9.39c.2 5.91-2.15 15.79 4.14 15.79h.46a5.346 5.346 0 0 1-1.91 1.06c-1.15.3-1.85.37-3.44.78-1.59.41-5.14.11-6-1.08-.86-1.19-2.24-8.24-3.46-11.12a24.672 24.672 0 0 0-5.44-7.73c5.11 8.47 7.57 18.26 5.2 19.26s-3.1-1-3.21-3.66c-.11-2.66-.7-5.17-3.55-10.05 1.87 7.1 3.94 13.69-.77 14a18.724 18.724 0 0 0-1.63 2.6c.51.226 1.078.278 1.62.15 1.4-.41 3.3-2.06 3.92-2 .62.06 1.59 2 3.63 1.81 2.04-.19 3.88-.46 5.16 0a5.779 5.779 0 0 0 4.29.18 5.207 5.207 0 0 1 2.42-.49 9.672 9.672 0 0 0 3.22 1.38 6.61 6.61 0 0 1-3.71 2.29 10 10 0 0 0 6.06-1.69c1.2.3 2.42.6 3.48.91a24.308 24.308 0 0 1-8.74 7.11c6-1.61 9.87-3.87 11.81-5.81.34.35.63.7.94 1a30.554 30.554 0 0 1-9.25 9.09c3.16-.76 6.17-1.73 13.12-8.67a20.99 20.99 0 0 1 3.65-.06c.88.2 1.47.27 4.34-.49a50.74 50.74 0 0 1 8.79-1.4 23.066 23.066 0 0 0 5.35-.74c1.65-.47 3.94-1.31 3.94-1.31s7.25 5 12.37 7.25c-7.51-5.62-8.24-9-8.24-9 4.78-.59 8.87.49 14.08 3.28a18.767 18.767 0 0 0-5.57-4.22s.72-.62 3.23 0c2.17.615 4.438.805 6.68.56-3.85-1.33-6.23-4.78-2.79-6.85a11.682 11.682 0 0 1 6.51-1.72h.09a17.518 17.518 0 0 0 8-3.45 6.118 6.118 0 0 0 1.28-2.9c.88-5.39-.29-8.41-1.89-10.46"
    fill="#285519"
  />
  <path
    d="M76 128.68a26.475 26.475 0 0 0-5.82-.19c-.782.045-1.56.166-2.32.36l-.39.12a2.78 2.78 0 0 1 2.65-2.75c2.7-.29 5.63 2.25 5.88 2.46"
    fill="#285519"
  />
  <path
    d="M34.44 74.16c-.36-1.14-.73-2.28-1.07-3.36v-.11c-.22-.71-.43-1.41-.62-2.08l-.51-1.81a.187.187 0 0 1 0-.07c-.27-1-.48-1.87-.64-2.61 0-.14-.06-.28-.08-.41-.02-.13-.08-.44-.1-.63-.02-.19 0-.21 0-.3a3.317 3.317 0 0 1 0-.43 8.13 8.13 0 0 0-.93-4 1 1 0 0 0-.92-.52H5.74a3.83 3.83 0 0 0-2.61.84l-.08.09a1.57 1.57 0 0 0-.37 1v.12c.09 1.55 2.47 2.76 4 3.62 1.53.86 4.69 2.08 6.15 2.86a19.543 19.543 0 0 0 4.85 1.47c1.29.26 4.47 0 4.83 2.76.17 1.36.07 2.54.17 3.63v.31c.51 3.21 4 4.8 6.53 6.33a186.73 186.73 0 0 0 5.7 3.32c1.12.63 2.25 1.26 3.39 1.87-.56-1.82-2.32-6.83-3.95-11.83"
    fill="#FAC29B"
  />
  <path
    d="M37.45 83c-.49-1.48-1-3-1.51-4.43-.51-1.43-1-3-1.48-4.44l-1.08-3.36v-.11c-.22-.71-.43-1.41-.62-2.08-.19-.67-.36-1.24-.51-1.81a.187.187 0 0 1 0-.07c-.27-1-.49-1.87-.64-2.61 0-.15-.06-.29-.08-.42-.02-.13-.08-.44-.1-.63-.02-.19 0-.21 0-.3a3.317 3.317 0 0 1 0-.43 8.13 8.13 0 0 0-.93-4 1 1 0 0 0-.92-.52H5.74a3.83 3.83 0 0 0-2.61.84l-.08.09a1.59 1.59 0 0 0-.37 1c.302-.047.606-.07.91-.07h23.72a1 1 0 0 1 .92.51 8.28 8.28 0 0 1 .92 4c0 1.35.9 4.69 2.07 8.48.34 1.09.7 2.22 1.06 3.36.93 2.85 1.95 5.84 2.72 8.11 1.12.63 2.25 1.26 3.39 1.87a98.979 98.979 0 0 0-1-3"
    fill="#E69B6C"
  />
  <path
    d="M103.07 57c-1 .61-2.41.46-3.48-1.33a4 4 0 0 1-.52-1.93c-.2.79-.35 1.44-.6 2.22a24.85 24.85 0 0 1-6 10 27.539 27.539 0 0 1-3.33 2.65c-3.8 2.38-8.84 3.81-15.44 3.66-12.34.05-19.55-4.32-23.7-10.26 1.43 3.18 6.36 11.29 20.42 14.6 12.29 2.88-10.89 19.13-16.1 19.28-.88-3.46-2-7-4.23-9.75a52.805 52.805 0 0 0-4.18-4.44 9.632 9.632 0 0 1 0-2c.15-2.92.55-6.13 1.54-7.07a15.07 15.07 0 0 0-4.3 6.62c-2.94-2.5-6.08-4.6-8.31-5-.12-.01-.24-.01-.36 0l-1.15-3.58s3-6.25 5.65-8.87c2.35-2.34 5.83-4.45 7.85-5.88-.24-.67-.45-1.34-.64-2a3.47 3.47 0 0 1-.35 1.49c-1.08 2.07-2.64 2.27-3.64 1.63-6-3.37 1.15-12.57 1.15-12.57-2.49-3.15-6-16.69-1.12-17.46 2.22-.35 3.46.29 4.16 1.07C50.19-.36 72.62.63 72.62.63s22.44-1 26.24 27.46c.69-.79 1.93-1.43 4.16-1.08 4.83.77 1.38 14.31-1.11 17.46 0 0 7.18 9.2 1.15 12.57"
    fill="#FAC29B"
  />
  <path
    d="M45.91 79.76a10.523 10.523 0 0 0 0 2c-.87-.82-1.78-1.66-2.73-2.46a15.22 15.22 0 0 1 4.31-6.62c-1 .94-1.39 4.15-1.55 7.07M89.1 68.68c-.07.11-.58.87-1.19 1.76s-1.54 2.23-2 2.83a78 78 0 0 1-17.69 17.24c-8.47 5.81-13.42 7.52-13.42 7.52-.16-.69-.33-1.39-.51-2.09 5.21-.15 28.39-16.39 16.1-19.28-14.06-3.31-19-11.42-20.42-14.6 4.15 5.94 11.36 10.31 23.7 10.26 6.6.15 11.63-1.28 15.43-3.66"
    fill="#E69B6C"
  />
  <path
    d="M62.08 36c-1.8-1.39-4.08.09-4.94 1.8a3.66 3.66 0 0 1 2.9-1.51c1.34.14 2 1.52 2.58 2.54l1.49-.93a10.45 10.45 0 0 0-2-1.9M56.35 27a5.63 5.63 0 0 1 3.18-2.88 5.54 5.54 0 0 1 3.63.33 5.341 5.341 0 0 0-4.61-.25 6.43 6.43 0 0 0-2.26 1.85c-.185.2-.34.425-.46.67-.12.35.34.65.52.28ZM82.79 38.58c.58-1 1.32-2.28 2.66-2.28a3.77 3.77 0 0 1 2.67 1.52 3.79 3.79 0 0 0-3.47-2.32c-1.5.15-2.58 1.34-3.5 2.42l1.49.93.15-.27M82.82 24.21a4.57 4.57 0 0 1 4.24.63 6.211 6.211 0 0 1 1.66 1.84c.06.129.131.252.21.37.24.24.6.12.52-.24-.11-.56-.9-1.26-1.3-1.61A5.49 5.49 0 0 0 86 24a5.63 5.63 0 0 0-3.9.53c.24-.09.48-.17.72-.27"
    fill="#151628"
  />
  <path
    d="M72.71 48.59c5.61-.4 5.51-5.38 5.51-5.38a6.12 6.12 0 0 1-5.59 3.24A6.19 6.19 0 0 1 67 43.21s.09 5.78 5.71 5.38ZM103.44 32.67c-.06-4.3-3.45-.62-3.25 2.31.2 2.93.31 5.89.74 6.34.13.14 2.57-4.36 2.51-8.65ZM41.83 32.67a17.23 17.23 0 0 0 2.5 8.65c.44-.45.55-3.41.75-6.34.2-2.93-3.19-6.61-3.25-2.31ZM78.73 65.45c-4 1.74-10.52-.33-10.52-.33a7.6 7.6 0 0 0 10.52.33"
    fill="#E69B6C"
  />
  <path
    d="M66.86 61.82s7.08-5.55 13.47 0c8-3.61 10.4-13.37 10.4-13.37A34.855 34.855 0 0 1 86 51a13 13 0 0 1-11.79 6.51A15.609 15.609 0 0 1 61.44 51a27.71 27.71 0 0 1-5.8-3.3c1 4.64 4.51 11.27 11.22 14.08"
    fill="#151628"
  />
  <path
    d="M74.19 57.55A13.001 13.001 0 0 0 86 51a29.87 29.87 0 0 1-24.54 0 15.61 15.61 0 0 0 12.75 6.51"
    fill="#fff"
  />
  <path
    d="M66.86 61.82a17.928 17.928 0 0 0 8.28 1.28 14.669 14.669 0 0 0 5.19-1.28c-6.39-5.55-13.47 0-13.47 0Z"
    fill="#FE330A"
  />
  <path
    d="M128.901 93.61c-.36-3.13-2-5.55-3.63-8.24a26.35 26.35 0 0 0-4.26-4.88c-1.12-1.09-4-5.7-7.39-9.31-1.77-1.85-3.36-3.89-5.26-5.62-1.68-1.54-7.73-5.73-10.55-7.76.24-.593.46-1.193.66-1.8 1.74 1.34 9.7 6.78 11.67 8.58 1.97 1.8 3.48 3.76 5.25 5.62 3.42 3.61 6.28 8.22 7.39 9.31a25.632 25.632 0 0 1 3.91 5 22.757 22.757 0 0 1 3.21 8.81 14.425 14.425 0 0 1-2 9.77s1.77-2.36 1-9.49M125.931 129.46a42.795 42.795 0 0 1-5.16 7.32 58.16 58.16 0 0 0-3.91 4.55c-.32.47-.3 1-.6 1.5a10.402 10.402 0 0 1-1.55 1.82 7.645 7.645 0 0 1-1.94 1.45 5.11 5.11 0 0 1-1.48.62c-.8.14-1.63.1-2.44.19-.807.117-1.601.312-2.37.58a11.23 11.23 0 0 1-5.21.36c-.22-.05-1-.27-1-.27a13.749 13.749 0 0 1-3.64 2.53 7.438 7.438 0 0 1-2.43.78c-.76.12-1.51.05-2.27.1-1.61.1-3.11.79-4.7 1a6.497 6.497 0 0 1-3.15-.83 12.484 12.484 0 0 1-3-1.66c-.49-.4-2.54-2.54-2.17-3.27l.09-.07.26-.18c.278.153.565.29.86.41.146.049.297.082.45.1.31 1 1.34 3.13 4.62 2.76 1.73-.19 2.19-1.75 2.08-3.51a16.15 16.15 0 0 0-2-6.1c1.19 2.21 3.48 6 6.54 7a14.385 14.385 0 0 0 8.54.27c3.59-.87 10.52-2.05 13.22-4.59 2.7-2.54 2.2-2.82 4.6-5 2.4-2.18 5.49-4.31 7.64-7.81"
    fill="#285519"
  />
  <path
    d="M125 101.11c-.57 2.58-2.35 4.08-6.58 5.33 5.06-1.69 4.4-8.92 2.65-12.73a10.182 10.182 0 0 0-5.64-4.79 11.579 11.579 0 0 0-3.93-.88c-.561 0-1.121.056-1.67.17 3.58-.81 9.2-.75 12.34 2.5a11.915 11.915 0 0 1 2.83 10.4"
    fill="#151628"
  />
  <path
    d="M118.16 106.53c-5.38 1.51-10.31 1.57-14 2.76a29.322 29.322 0 0 0-7.38 3.08c-2.53 1.51-8.45 4-11.14 4.16-2.25.1-4.57.36-6.11-.82a3.463 3.463 0 0 1-.78-.83 7.345 7.345 0 0 1-.63-2.39c-.19-.5-.81-.8-1-1.56-.19-.76.07-1.14-.1-1.73-.17-.59-1.1-1.12-1.14-2.4-.04-1.28.27-1.49.23-2.2-.04-.71-.64-.85-.56-2.17.08-1.32.36-3.79 3.92-4.41 3.08-.54 3.82.15 5.19.08 2-.1 1.77-1.66 1.46-2.42a9.26 9.26 0 0 1-.43-4.39 4.17 4.17 0 0 1 4.28-3.5c1.81-.08 2.07 1.73 2 2.91-.14 2-1 3.95-.88 4.87.12.92.12 1.08.12 1.08 1.272.148 2.55.228 3.83.24a9.82 9.82 0 0 0 8.09-4.08c3-3.73 5.86-4.77 8.32-4.77 1.352.062 2.682.36 3.93.88a10.21 10.21 0 0 1 5.64 4.79c1.79 3.88 2.44 11.31-2.94 12.82"
    fill="#FAC29B"
  />
  <path
    d="M118.16 106.53c-5.38 1.51-10.31 1.57-14 2.76a29.322 29.322 0 0 0-7.38 3.08c-2.53 1.51-8.45 4-11.14 4.16-2.25.1-4.57.36-6.11-.82 8.85-2.53 12.68-5.77 17.64-7.36 5.26-1.67 11.23-2.27 15.89-3.06s6.66-2.2 6.83-7.28a10.429 10.429 0 0 0-4.46-9.09 10.21 10.21 0 0 1 5.64 4.79c1.79 3.88 2.44 11.31-2.94 12.82"
    fill="#E69B6C"
  />
  <path
    d="M85.27 149.21c-3.28.37-4.31-1.72-4.62-2.76h.14a9.211 9.211 0 0 0 2.33-.31 12.241 12.241 0 0 1 2.42-.1 3.99 3.99 0 0 0 1.15-.15l.66-.21c.11 1.76-.35 3.32-2.08 3.51"
    fill="#151628"
  />
  <path
    d="m87.35 145.7-.66.21c-.37.105-.754.155-1.14.15a12.343 12.343 0 0 0-2.43.1 8.774 8.774 0 0 1-2.33.31 2.827 2.827 0 0 1-.59-.12 8.267 8.267 0 0 1-.86-.41l-.26.18a17.556 17.556 0 0 1-4 2.25 5.462 5.462 0 0 1-2.08.38c-.51 0-1-.17-1.51-.16-1 0-1.72.76-2.65.93-.93.17-4.54.19-4.72-2.13.015-.363.075-.723.18-1.07a2.301 2.301 0 0 1-1.44-2.42 2.523 2.523 0 0 1-1.752-2.215 2.52 2.52 0 0 1 .123-.985l-.35-.27c-1.93-1.59-1-4.14-1-4.14a9.983 9.983 0 0 1-1.16-1.37 3.28 3.28 0 0 1-.29-2.49c.48-1.69 2.32-2.18 3.89-2.24a9.166 9.166 0 0 0 1.58-.05 13.297 13.297 0 0 0 1.56-.57c.78-.27 1.56-.49 2.35-.72.76-.194 1.537-.315 2.32-.36a25.874 25.874 0 0 1 5.82.19s1.18.89 1.93 1.58c2.4 2.18 4.88 4.4 6.38 7.25 1.29 2.44 2.91 5.35 3.06 8.19"
    fill="#FAC29B"
  />
  <path
    d="m87.35 145.7-.66.21a3.99 3.99 0 0 1-1.15.15 12.241 12.241 0 0 0-2.42.1 9.166 9.166 0 0 1-2.33.31 2.827 2.827 0 0 1-.59-.12 8.267 8.267 0 0 1-.86-.41l-.26.18a17.785 17.785 0 0 1-4 2.26 5.705 5.705 0 0 1-2.08.37c-.5 0-1-.17-1.51-.16-1 0-1.72.77-2.65.94-.93.17-4.54.18-4.72-2.13.005-.367.066-.731.18-1.08 5.88 1.62 15.68-.38 16.78-4.95 1.1-4.57-5.53-10.73-8.09-12.95 1.005.022 2.007.109 3 .26.642.469 1.26.969 1.85 1.5 2.36 2.14 5 4.48 6.46 7.33 1.29 2.44 2.91 5.36 3.06 8.19"
    fill="#E69B6C"
  />
  <path d="M85.39 139.6c-.13-.23-.24-.45-.33-.63l.33.63Z" fill="#E69B6C" />
  <path
    d="M64.11 147.4a2 2 0 0 0 .13.57 15.67 15.67 0 0 1-1.57.58 46.864 46.864 0 0 1-8.32 2.24 27.847 27.847 0 0 1-7.35.29c-2.3-.25-4.62-.72-6.89-1.18a12.87 12.87 0 0 1-3.81-1.18 3.303 3.303 0 0 1-.9-.76 3.632 3.632 0 0 1-.29-.5 3.294 3.294 0 0 0-.75-.84 10.995 10.995 0 0 1-2.38-3.11 3.33 3.33 0 0 1-.43-1.5c0-.11.16-.76.16-.76 3.31 2 8.45 4.45 17.47 5.55 3.678.45 7.398.433 11.07-.05a1.856 1.856 0 0 1 0-.58 2.512 2.512 0 0 1-1.63-3.2l-.35-.28c-1.93-1.59-1-4.14-1-4.14a9.287 9.287 0 0 1-1.16-1.37 3.28 3.28 0 0 1-.3-2.49 3.128 3.128 0 0 1 2.55-2.06 3.27 3.27 0 0 0 .34 2.29 9.97 9.97 0 0 0 1.16 1.37s-1 2.55 1 4.14c.09.07.14.1.35.28a2.53 2.53 0 0 0 1.63 3.2 2.302 2.302 0 0 0 1.45 2.41c-.116.349-.18.713-.19 1.08M99.6 56.83a22.26 22.26 0 0 1-4.64 9.43 12.56 12.56 0 0 1-7.06 4.2l1.21-1.78A28.38 28.38 0 0 0 92.48 66a24.73 24.73 0 0 0 6-10l1.13.83"
    fill="#285519"
  />
  <path
    d="M32 57.77H1.6a1.05 1.05 0 0 1-1.06-1.06v-30.4a1.06 1.06 0 0 1 1.06-1.06H32a1.06 1.06 0 0 1 1.06 1.06v30.4A1.05 1.05 0 0 1 32 57.77"
    fill="#E3B834"
  />
  <path
    d="M33 26.31v30.41a1.05 1.05 0 0 1-1.06 1H1.54a1.06 1.06 0 0 1-1.06-1v-.1h29.41a1.06 1.06 0 0 0 1.06-1.05V25.25h1a1.06 1.06 0 0 1 1.06 1.06"
    fill="#BF8E1E"
  />
  <path d="M13.77 28.3H3.6v5.89h10.17V28.3Z" fill="#fff" />
  <path
    d="M53.43 106.13c0 4.51-2.38 8.45-4.13 7.88-3.07-1-1.27-12.32-3.84-18.33-3-6.95-6.82-9.56-7.06-9.72-1.24-4-2.66-7.86-3.94-11.8 2.49.24 6.32 3 9.69 6l.27.28c5.85 6.1 9.08 17.33 9 25.68"
    fill="#408F24"
  />
  <path
    d="M53.43 106.13c0 4.51-2.38 8.45-4.13 7.88-3.07-1-1.27-12.32-3.84-18.33-2.76-6.45-6.27-9.13-7-9.6l-.1-.08c-1.24-4-2.67-7.9-3.95-11.84.13-.007.26-.007.39 0 2.49.48 6.1 3.12 9.3 6l.27.28c5.85 6.1 9.08 17.33 9 25.68"
    fill="#151628"
  />
  <path
    d="M25.73 115.7a21.576 21.576 0 0 1-1.87-2.26c.73-.57 1.58-2.47.14-8.77.19.27 3.9 5.84 1.73 11"
    fill="#285519"
  />
</svg>
