<?xml version="1.0" standalone="no"?>
<!DOCTYPE svg PUBLIC "-//W3C//DTD SVG 1.0//EN" "http://www.w3.org/TR/2001/REC-SVG-20010904/DTD/svg10.dtd">
<svg xmlns="http://www.w3.org/2000/svg" xmlns:xlink="http://www.w3.org/1999/xlink" id="body_1" width="43" height="32">

<defs>
        <clipPath  id="1">

            <path clip-rule="evenodd" d="M0 0L902.7 0L902.7 595.28L0 595.28z" />        </clipPath>
            <clipPath  id="2">

                <path clip-rule="evenodd" d="M0 0L902.7 0L902.7 595.28L0 595.28z" />            </clipPath>
</defs>

<g transform="matrix(0.047634877 0 0 0.047634877 -0 1.8219554)">
	<g clip-path="url(#1)" >
		<g clip-path="url(#2)" >
            <path d="M405.5 267.7C 405.53387 270.49042 404.47928 273.18423 402.56 275.21002C 400.43655 277.43057 397.44772 278.61075 394.38 278.44003C 391.7769 278.58072 389.24564 277.5587 387.47 275.65002C 385.82956 273.82895 384.9461 271.45038 385 269C 384.96585 266.22733 386.0216 263.5521 387.94 261.55C 389.89 259.44998 392.63 258.38998 396.18 258.38998C 398.77792 258.23206 401.31104 259.24017 403.09 261.13998C 404.70834 262.9518 405.57706 265.3113 405.52 267.74" stroke="none" fill="#151628" fill-rule="nonzero" />
            <path d="M302.25 329.53C 302.25 342.15002 292.90002 348.46335 274.2 348.47C 268.17245 348.57526 262.1601 347.83127 256.34003 346.26L256.34003 346.26L258.48004 333.82C 263.51367 335.67963 268.83392 336.6442 274.20004 336.67C 279.25003 336.67 282.75003 336.24002 284.72003 335.40002C 286.5174 334.78348 287.70468 333.06943 287.65002 331.17C 287.65002 328.10336 284.11337 325.1767 277.04004 322.39C 273.34888 319.47437 271.20285 315.02377 271.22003 310.32C 263.94406 306.22263 260.85062 297.35367 264 289.62C 268.1667 286.20667 274.23334 284.5 282.2 284.5L282.2 284.5L297.57 299C 292.65598 297.11627 287.43253 296.16995 282.17 296.21C 275.42 296.21 272.06003 297.94998 272.06003 301.4C 272.01984 303.0904 272.82175 304.69046 274.20004 305.66998C 275.64005 306.74332 278.5667 308.09998 282.98004 309.74C 286.8465 312.91327 289.0373 317.68948 288.92004 322.69" stroke="none" fill="#151628" fill-rule="nonzero" />
            <path d="M370.65 346.77L353.84 346.77C 354.77332 336.10333 355.23666 325.74667 355.23 315.69998C 353.34 313.36 350.23 312.19998 345.88 312.19998C 341.0074 312.2973 336.28577 313.90845 332.37 316.80997C 332.37 334.68997 332.58002 349.59332 333 361.51996L333 361.51996L316.2 361.51996C 316.66003 348.4733 316.89337 332.82996 316.90002 314.58997C 317.0238 300.61008 316.35608 286.6344 314.90002 272.72998L314.90002 272.72998L330 257C 329.36667 270.56 329.03333 282.35 329 292.37L329 292.37L329.82 292.37C 334.9476 287.4501 341.78387 284.7113 348.89 284.72998C 355.67004 284.72998 360.9867 286.2633 364.84003 289.33C 368.69336 292.39667 370.62335 297.81 370.63004 305.56998C 370.63004 306.36996 370.57004 308.00998 370.47003 310.46C 370.37003 312.91 370.31003 314.56 370.31003 315.36C 370.31003 322.3933 370.4167 332.87665 370.63004 346.81" stroke="none" fill="#151628" fill-rule="nonzero" />
            <path d="M402.6 346.77L385.6 346.77C 386.1867 338.05 386.48337 328.05 386.49002 316.77C 386.59015 306.91733 385.87103 297.07346 384.34003 287.34L384.34003 287.34L402.53003 285.51C 401.97003 293.67 401.6934 304.09003 401.70004 316.77002" stroke="none" fill="#151628" fill-rule="nonzero" />
            <path d="M470.75 293.37C 466.02 287.54 459.64 284.63 451.55 284.63C 443.80334 284.63 437.67334 286.71335 433.15997 290.88L433.15997 290.88L432.15997 290.88L431.21997 285.45L415 287.22C 417.21335 297.88666 418.31668 313.42 418.31 333.82L418.31 333.82L435.49 333.82C 435.19 323.23334 435.04 312.78668 435.03998 302.48L435.03998 302.48L435.8 302.48C 438.33 305.33002 442.97 306.78 449.69 306.78C 458.7367 306.78 465.8767 303.32333 471.11002 296.41C 476.33365 289.49002 479.08698 281.0188 478.93002 272.35C 479.0974 264.7989 476.5976 257.43045 471.87003 251.54001C 454.29 335.04 450.15 337.1 444.53 337.1C 440.32333 337.1 436.89667 336.07 434.25 334.01C 436.94 330.62 441.2 328.90002 447 328.90002C 451.41583 328.7682 455.58243 330.9424 458 334.64C 460.72577 338.68323 462.1239 343.47534 462 348.35C 462.16058 353.65546 460.7705 358.89258 458 363.42" stroke="none" fill="#151628" fill-rule="nonzero" />
            <path d="M582.84 346.77L566.1 346.77C 567 336.10333 567.44336 325.74667 567.43 315.69998C 567.43 308.16998 566.43 303.24 564.52 300.91998C 562.61005 298.59998 559.52 297.44998 555.25 297.44998C 551.8367 297.44998 548.2334 298.69333 544.44 301.18L544.44 301.18L527.65 301.18C 528.55005 320.03333 529 324.00665 529 313.1C 529 307.47 528.22 303.45 526.63 301.04C 525.04004 298.63 521.79 297.45 516.82 297.45C 512.53394 297.3262 508.3908 298.99722 505.39 302.06C 505.59003 318.72668 505.6967 333.63 505.71002 346.77L505.71002 346.77L488.71002 346.77C 489.47006 333.6433 489.85007 323.28665 489.85004 315.69998C 489.87677 306.121 488.837 296.56885 486.75003 287.21997L486.75003 287.21997L503 285.45L504.08 292.14L505.08 292.14C 510.06223 287.3686 516.69147 284.7004 523.58997 284.69C 532.17664 284.69 538.22 287.17334 541.72 292.14L541.72 292.14L542.72 292.14C 548.9533 287.17334 555.12 284.69 561.22 284.69C 567.32 284.69 569.14 290.3 566.68 301.52C 566.68 302.33 566.68 303.84998 566.56 306.11C 566.44 308.37 566.43 309.87997 566.43 310.68C 566.43 317.71332 566.5133 328.19666 566.68 342.13" stroke="none" fill="#408F24" fill-rule="nonzero" />
            <path d="M726.2 346.77L709.4 346.77C 710.3334 336.10333 710.79675 325.32666 710.79004 314.44C 710.79004 307.83002 709.79004 303.34 707.85004 300.98C 705.91003 298.62003 702.92004 297.45 698.92004 297.45C 693.94946 297.50934 689.144 299.24268 685.28 302.37003C 685.4934 318.79004 685.6034 333.59003 685.61005 346.77002L685.61005 346.77002L668.61005 346.77002C 669.3701 333.59003 669.7501 323.23337 669.75006 315.7C 669.7999 306.11984 668.75995 296.5651 666.6501 287.22L666.6501 287.22L682.82007 285.45L683.8901 292.14L684.8901 292.14C 690.37634 287.27863 697.4702 284.6242 704.80005 284.69C 711.2934 284.69 716.4834 286.21335 720.37006 289.26C 724.2567 292.3067 726.2001 297.94003 726.2001 306.16C 726.2001 307.39 726.1501 309.01 726.0401 311.06C 725.9301 313.11 725.8901 315.2 725.8901 317.34C 725.8901 323.02 725.9934 332.83 726.2001 346.77" stroke="none" fill="#408F24" fill-rule="nonzero" />
            <path d="M798.2 346.77L778.87 346.77C 778.87006 345.21 775.67334 339.93665 769.27997 330.94998C 762.8866 321.96332 758.79333 317.46664 757 317.46L757 317.46L756.17 317.46C 756.17004 326.08667 756.42334 335.85666 756.93 346.77L756.93 346.77L740.22 346.77C 740.7267 327.11 740.98 311.46667 740.98 299.84C 741.07666 285.86765 740.41565 271.9008 739 258L739 258L757 257C 756.4133 273 756.12 287.29333 756.12 299.88C 756.12 301.49 756.12 304.59 756.18 309.23L756.18 309.23L757 309.23C 758.17334 309.23004 761.5067 305.83337 767 299.04C 772.49335 292.2467 775.25336 288.17 775.28 286.81L775.28 286.81L794.10004 286.81C 794.10004 288.14334 791.2334 291.78668 785.50006 297.74C 779.7668 303.69333 775.1368 307.82 771.61005 310.12L771.61005 310.12L771.61005 311C 775.5301 313.73334 780.9334 319.95337 787.82007 329.66C 794.7068 339.3667 798.14343 345.06 798.13007 346.74" stroke="none" fill="#408F24" fill-rule="nonzero" />
            <path d="M648.73 292.24C 642.8875 286.7953 635.1545 283.8398 627.17 284C 618.5707 283.87604 610.2608 287.10388 604 293C 597.42004 299 594.13336 307.33334 594.14 318C 600.0477 323.40356 607.8051 326.33182 615.81 326.18C 624.3767 326.28845 632.6498 323.06097 638.88 317.18C 645.3867 311.18 648.6467 302.88333 648.66003 292.28998L648.66003 292.28998L648.73 292.24zM641.79 329.59C 641.7957 330.70685 640.9065 331.62277 639.79 331.65L639.79 331.65L613.42 331.65C 612.30347 331.62277 611.41425 330.70685 611.42 329.59L611.42 329.59L611.42 303.27C 611.42 302.1654 612.3154 301.27 613.42 301.27L613.42 301.27L639.74 301.27C 640.84454 301.27 641.74 302.1654 641.74 303.27z" stroke="none" fill="#408F24" fill-rule="nonzero" />
            <path d="M227.53 368.49C 227.53 371.88 205.04 374.63 177.29 374.63C 149.54 374.63 127.04999 371.88 127.04999 368.49C 127.04999 365.09998 149.54 362.34998 177.29 362.34998C 205.04 362.34998 227.53 365.09998 227.53 368.49" stroke="none" fill="#151628" fill-rule="nonzero" />
            <path d="M231.2 338.71C 231.72372 339.90866 231.95673 341.21414 231.87999 342.52C 231.69925 344.153 231.23921 345.7428 230.51999 347.22C 229.00609 350.32422 227.0712 353.20468 224.76999 355.78C 223.38979 357.22882 222.0847 358.74753 220.85999 360.33C 220.53998 360.8 220.55998 361.33 220.25998 361.83C 219.81522 362.4944 219.29509 363.1051 218.70998 363.65C 218.14464 364.23355 217.48973 364.72305 216.76997 365.1C 216.31244 365.38348 215.81293 365.5927 215.28998 365.72C 214.48997 365.86002 213.65997 365.82 212.84998 365.91C 212.04332 366.0275 211.24973 366.2217 210.47998 366.49C 208.79579 367.01813 207.01077 367.14145 205.26997 366.84998C 205.04997 366.8 204.26997 366.58 204.26997 366.58C 203.20158 367.61475 201.97226 368.4692 200.62997 369.11C 199.87094 369.50803 199.04886 369.7719 198.19998 369.88998C 197.43999 370.00998 196.68999 369.93997 195.92998 369.99C 194.31998 370.09 192.81998 370.78 191.22998 370.99C 190.12958 370.98615 189.04854 370.7004 188.08998 370.16C 187.01772 369.74875 186.00801 369.19003 185.08998 368.5C 184.59998 368.1 182.53998 365.95 182.91998 365.23C 181.70987 366.12076 180.39294 366.85648 178.99998 367.42C 178.33571 367.67166 177.63031 367.79712 176.91998 367.79L176.91998 367.79L176.52998 367.79C 176.15971 367.72537 175.78557 367.68527 175.40999 367.67C 175.25853 367.6828 175.10817 367.7062 174.95999 367.74002C 174.20999 367.92 173.54 368.46002 172.76 368.61002L172.76 368.61002L172.4 368.61002C 171.29 368.71002 169.06 368.61002 168.29999 367.27002C 168.25 367.18832 168.20973 367.10104 168.18 367.01C 167.66333 367.22955 167.13602 367.42313 166.59999 367.59C 163.89679 368.58707 161.1087 369.3368 158.26999 369.83C 155.84695 370.25113 153.3787 370.34866 150.93 370.12C 148.62999 369.87 146.31 369.4 144.04 368.94C 142.71646 368.74673 141.43108 368.34863 140.23 367.76C 139.88696 367.56253 139.58214 367.3051 139.33 367C 139.2201 366.84137 139.12311 366.67416 139.04001 366.5C 138.84015 366.179 138.58643 365.89484 138.29001 365.66C 137.31705 364.77405 136.51094 363.7207 135.91 362.55002C 135.64989 362.09113 135.50252 361.577 135.48001 361.05002C 135.48001 360.94003 135.64001 360.29 135.64001 360.29C 134.21277 359.47098 132.95113 358.39246 131.92001 357.11002C 129.2367 354.04288 127.81464 350.07327 127.94 346C 128.06738 343.51993 128.7509 341.10022 129.94 338.92C 130.41122 338.01016 130.95639 337.14056 131.57 336.32C 130.93192 335.8424 130.33939 335.3068 129.8 334.72C 129.12376 334.01205 128.49884 333.2568 127.93 332.46C 126.22712 330.07666 124.923416 327.4321 124.07 324.63C 122.910934 320.29495 122.65564 315.76788 123.32 311.33002C 123.61987 309.35846 124.18849 307.43726 125.01 305.62003C 125.488976 304.65097 125.89671 303.64835 126.23 302.62003C 126.23 302.62003 126.08 301.00003 126.01 300.37003C 125.880005 299.11002 125.490005 297.84003 125.48 296.58002C 125.43245 295.31717 125.914604 294.09186 126.810005 293.2L126.810005 293.2L126.810005 293.51C 127.32001 296.72 130.81 298.31 133.34001 299.84C 135.22002 300.97998 137.12003 302.08667 139.04001 303.16C 140.16 303.79 141.29001 304.42 142.43001 305.03C 142.11667 304.03668 141.78334 303.03668 141.43001 302.03C 140.94 300.55 140.43001 299.03 139.92001 297.6C 139.52002 296.4 139.11002 295.21 138.72002 294C 138.62001 293.72 138.53001 293.44 138.44002 293.16C 142.74002 293.59 151.07002 301.55002 154.04002 305.16C 156.71002 308.45 157.80002 312.80002 158.78003 316.85C 158.78471 316.87985 158.78471 316.9102 158.78003 316.94C 158.78003 316.94 163.72003 315.29 172.19003 309.48C 178.965 304.70944 184.93651 298.88983 189.88004 292.24002C 190.33003 291.64 191.16003 290.44003 191.88004 289.41003L191.88004 289.41003L193.09004 287.63004C 194.2796 286.8233 195.40616 285.9274 196.46004 284.95004C 199.22862 282.1427 201.28583 278.71402 202.46004 274.95004L202.46004 274.95004L203.59004 275.78003C 206.41005 277.78003 212.45004 282.00003 214.13004 283.53003C 216.03003 285.26004 217.61003 287.29004 219.38004 289.15002C 222.81003 292.76 225.66003 297.37003 226.77003 298.46002C 228.27574 299.958 229.58917 301.6376 230.68004 303.46002C 232.35577 306.13828 233.44629 309.14062 233.88004 312.27002C 234.80019 317.53064 232.64732 322.8565 228.33 326C 225.99637 327.80527 223.24463 328.99197 220.33 329.45L220.33 329.45L220.24 329.45C 221.87001 329.52002 227.54001 330.23 231.24 338.73" stroke="none" fill="#408F24" fill-rule="nonzero" />
            <path d="M227.72 312.61C 226.12 310.61 223.4 324.12997 223.4 324.12997L223.4 324.12997L216.59999 324.83997L214.07999 307.20996C 214.07999 307.20996 207.57999 311.90997 206.07999 311.06995C 204.85999 310.35995 207.18999 304.61993 207.30998 304.32996C 207.17998 304.57996 203.90999 310.59995 200.21999 311.49997C 201.338 308.80295 201.96454 305.92767 202.06999 303.00998C 200.06999 308.08997 197.31 311.52997 193.43999 312.77C 189.56998 314.01 193.84999 304.88998 195.69998 301.56C 192.21999 306.73 185.60999 319.63 183.78998 313.03C 181.02998 316.87 172.38998 325.03 158.47998 329.16998C 158.82622 327.82587 159.05376 326.45395 159.15997 325.06998C 176.45998 314.83 178.70998 313.3 185.44998 303.70996C 174.00998 314.05997 164.39998 318.12997 159.11998 319.38995C 159.04562 318.554 158.92545 317.72278 158.75998 316.89996C 157.75998 312.89996 156.68997 308.49997 154.01997 305.20996C 152.22304 303.06952 150.2711 301.0641 148.17998 299.20996L148.17998 299.20996L146.85997 300.28995L149.01997 305.28995L146.87997 309.60995C 148.39928 312.51862 149.2693 315.72235 149.42998 318.99997C 149.62997 324.90997 147.27998 334.78998 153.56998 334.78998C 153.72998 334.78998 153.87997 334.78998 154.02998 334.78998C 153.47299 335.2709 152.82277 335.63177 152.11998 335.84998C 150.96999 336.14996 150.26997 336.21997 148.67998 336.62997C 147.08998 337.03998 143.53998 336.73996 142.67998 335.55C 141.81998 334.36002 140.43997 327.31 139.21997 324.43C 137.92183 321.5268 136.0746 318.90195 133.77997 316.69998C 138.88997 325.16998 141.34998 334.96 138.97997 335.96C 136.60995 336.96 135.87996 334.96 135.76996 332.3C 135.65996 329.63998 135.06996 327.12997 132.21996 322.25C 134.08995 329.35 136.15996 335.94 131.44995 336.25C 130.83633 337.07056 130.29117 337.94016 129.81995 338.85C 130.32907 339.07553 130.89804 339.12823 131.43994 339C 132.83994 338.59 134.73994 336.94 135.35994 337C 135.97993 337.06 136.94994 339 138.98994 338.81C 141.02995 338.62 142.86995 338.35 144.14995 338.81C 145.50378 339.4186 147.03989 339.48306 148.43994 338.99C 149.19556 338.63474 150.02562 338.46667 150.85994 338.5C 151.8403 339.15222 152.93155 339.6199 154.07994 339.88C 153.13785 341.04095 151.83 341.84824 150.36993 342.17C 152.51915 342.27332 154.64436 341.68063 156.42993 340.48C 157.62993 340.78 158.84993 341.08002 159.90993 341.39C 157.59357 344.41174 154.59984 346.84714 151.16992 348.5C 157.16992 346.89 161.03992 344.63 162.97992 342.69C 163.31992 343.04 163.60992 343.39 163.91992 343.69C 161.52243 347.34686 158.36807 350.44666 154.66992 352.78C 157.82993 352.02 160.83992 351.05 167.78992 344.11C 169.00255 343.98407 170.2238 343.964 171.43991 344.05C 172.31992 344.25 172.90991 344.31998 175.7799 343.56C 178.66328 342.83688 181.60455 342.3684 184.5699 342.16C 186.37604 342.12366 188.17169 341.87527 189.9199 341.42C 191.5699 340.95 193.85991 340.11002 193.85991 340.11002C 193.85991 340.11002 201.10991 345.11002 206.2299 347.36002C 198.71991 341.74002 197.9899 338.36002 197.9899 338.36002C 202.7699 337.77002 206.8599 338.85 212.0699 341.64C 210.49376 339.8971 208.60435 338.4656 206.4999 337.42C 206.4999 337.42 207.2199 336.80002 209.72989 337.42C 211.89981 338.03464 214.16792 338.2248 216.40988 337.98C 212.55988 336.65002 210.17989 333.2 213.61989 331.13C 215.57397 329.93005 217.83809 329.33185 220.12988 329.41L220.12988 329.41L220.21988 329.41C 223.1345 328.95197 225.88625 327.76526 228.21988 325.96C 228.89384 325.12253 229.33531 324.1223 229.49988 323.06C 230.37988 317.66998 229.20988 314.65 227.60988 312.6" stroke="none" fill="#285519" fill-rule="nonzero" />
            <path d="M180 347.68C 178.07286 347.40314 176.1211 347.33942 174.18 347.49C 173.39687 347.5349 172.6199 347.6555 171.85999 347.84998L171.85999 347.84998L171.46999 347.96997C 171.4843 346.4956 172.64716 345.28888 174.11998 345.21997C 176.81998 344.92996 179.74998 347.46997 179.99998 347.67996" stroke="none" fill="#285519" fill-rule="nonzero" />
            <path d="M138.44 293.16C 138.08 292.02 137.71 290.88 137.37 289.80002L137.37 289.80002L137.37 289.69003C 137.15 288.98004 136.94 288.28003 136.75 287.61005L136.75 287.61005L136.24 285.80005C 136.23567 285.77692 136.23567 285.75317 136.24 285.73004C 135.97 284.73004 135.76001 283.86005 135.6 283.12006C 135.6 282.98004 135.54001 282.84006 135.52 282.71005C 135.5 282.58005 135.44 282.27005 135.42 282.08005C 135.4 281.89005 135.42 281.87006 135.42 281.78006C 135.4107 281.63687 135.4107 281.49326 135.42 281.35007C 135.45741 279.9591 135.13719 278.58185 134.49 277.35007C 134.30743 277.01562 133.95068 276.814 133.57 276.83008L133.57 276.83008L109.74 276.83008C 108.79615 276.77838 107.86653 277.07758 107.13 277.67007L107.13 277.67007L107.049995 277.76007C 106.813774 278.04 106.68289 278.39377 106.67999 278.76007C 106.67999 278.76007 106.67999 278.84006 106.67999 278.88007C 106.76999 280.43005 109.149994 281.64008 110.67999 282.50006C 112.20999 283.36005 115.369995 284.58005 116.829994 285.36005C 118.37603 286.0584 120.00639 286.55255 121.67999 286.83005C 122.96999 287.09006 126.149994 286.83005 126.509995 289.59006C 126.67999 290.95004 126.579994 292.13007 126.67999 293.22006L126.67999 293.22006L126.67999 293.53006C 127.189995 296.74005 130.68 298.33005 133.20999 299.86005C 135.09 301.00006 136.98999 302.10672 138.90999 303.18005C 140.02998 303.81006 141.15999 304.44006 142.29999 305.05005C 141.73999 303.23004 139.97998 298.22006 138.34999 293.22006" stroke="none" fill="#FAC29B" fill-rule="nonzero" />
            <path d="M141.45 302C 140.95999 300.52 140.45 299 139.94 297.57C 139.43001 296.14 138.94 294.57 138.46 293.13L138.46 293.13L137.38 289.77002L137.38 289.66003C 137.16 288.95004 136.95001 288.25003 136.76001 287.58005C 136.57 286.91006 136.40001 286.34006 136.25002 285.77005C 136.24568 285.74692 136.24568 285.72318 136.25002 285.70004C 135.98001 284.70004 135.76001 283.83005 135.61002 283.09006C 135.61002 282.94006 135.55002 282.80005 135.53001 282.67004C 135.51001 282.54004 135.45001 282.23004 135.43001 282.04004C 135.41 281.85004 135.43001 281.83005 135.43001 281.74005C 135.42072 281.59686 135.42072 281.45325 135.43001 281.31006C 135.46742 279.9191 135.1472 278.54184 134.50002 277.31006C 134.31744 276.9756 133.9607 276.77396 133.58002 276.79007L133.58002 276.79007L109.74 276.79007C 108.79615 276.7384 107.86653 277.0376 107.13 277.63007L107.13 277.63007L107.049995 277.72006C 106.81524 278.0009 106.68455 278.35406 106.67999 278.72006C 106.98099 278.67264 107.28529 278.64923 107.59 278.65005L107.59 278.65005L131.31 278.65005C 131.68852 278.63202 132.04472 278.82947 132.23 279.16006C 132.86752 280.39505 133.1839 281.77066 133.15 283.16006C 133.15 284.51007 134.04999 287.85007 135.22 291.64008C 135.56 292.73007 135.92 293.86008 136.28 295.00006C 137.20999 297.85007 138.23 300.84006 139 303.11005C 140.12 303.74005 141.25 304.37006 142.39 304.98004C 142.07666 303.98672 141.74333 302.98672 141.39 301.98004" stroke="none" fill="#E69B6C" fill-rule="nonzero" />
            <path d="M207.07 276C 206.07 276.61 204.66 276.46 203.59001 274.67C 203.25615 274.08105 203.07724 273.417 203.07 272.74002C 202.87001 273.53003 202.72 274.18002 202.47 274.96002C 201.29155 278.7221 199.23492 282.14984 196.47 284.96002C 195.43001 285.92792 194.31668 286.8139 193.14 287.61002C 189.34 289.99002 184.3 291.42 177.7 291.27002C 165.36 291.32 158.15 286.95 154 281.01C 155.43 284.19 160.36 292.30002 174.42 295.61002C 186.70999 298.49002 163.53 314.74002 158.31999 314.89C 157.43999 311.43002 156.31999 307.89 154.09 305.14C 152.78334 303.58078 151.38768 302.0983 149.91 300.7C 149.84059 300.03516 149.84059 299.36487 149.91 298.7C 150.06 295.78 150.46 292.57 151.45 291.63C 149.4539 293.4154 147.96965 295.70044 147.15 298.25C 144.20999 295.75 141.06999 293.65 138.84 293.25C 138.7202 293.24017 138.59981 293.24017 138.48 293.25L138.48 293.25L137.33 289.67C 137.33 289.67 140.33 283.42 142.98 280.80002C 145.33 278.46002 148.81 276.35 150.83 274.92C 150.59 274.25 150.38 273.58002 150.19 272.92C 150.18568 273.43652 150.06612 273.9456 149.84 274.41C 148.76 276.48 147.2 276.68 146.2 276.04C 140.2 272.67 147.34999 263.47 147.34999 263.47C 144.85999 260.32 141.34999 246.78 146.23 246.01001C 148.45 245.66 149.69 246.3 150.39 247.08002C 154.19 218.64001 176.62 219.63002 176.62 219.63002C 176.62 219.63002 199.06 218.63002 202.86 247.09003C 203.55 246.30003 204.79 245.66003 207.02 246.01003C 211.85 246.78003 208.40001 260.32004 205.91 263.47003C 205.91 263.47003 213.09 272.67004 207.06 276.04004" stroke="none" fill="#FAC29B" fill-rule="nonzero" />
            <path d="M149.91 298.76C 149.84654 299.42517 149.84654 300.09485 149.91 300.76C 149.04001 299.94 148.13 299.1 147.18001 298.30002C 148.009 295.7525 149.49576 293.4689 151.49 291.68002C 150.49 292.62003 150.1 295.83002 149.94 298.75003" stroke="none" fill="#E69B6C" fill-rule="nonzero" />
            <path d="M193.1 287.68C 193.03 287.78998 192.52 288.55 191.91 289.44C 191.3 290.33002 190.37001 291.67 189.91 292.27C 184.96648 298.9198 178.99496 304.7394 172.22 309.50998C 163.75 315.31998 158.8 317.02997 158.8 317.02997C 158.64 316.33997 158.47 315.63995 158.29001 314.93997C 163.50002 314.78998 186.68001 298.55 174.39001 295.65997C 160.33002 292.34998 155.39001 284.23996 153.97002 281.05997C 158.12001 286.99997 165.33002 291.36996 177.67001 291.31998C 184.27002 291.46997 189.30002 290.03998 193.1 287.65997" stroke="none" fill="#E69B6C" fill-rule="nonzero" />
            <path d="M166.08 255C 164.28 253.61 162 255.09 161.14 256.8C 161.81563 255.86887 162.88974 255.30959 164.04 255.29C 165.37999 255.43 166.04 256.81 166.62 257.83L166.62 257.83L168.11 256.9C 167.53023 256.18106 166.85771 255.54216 166.11 255" stroke="none" fill="#151628" fill-rule="nonzero" />
            <path d="M160.35 246C 160.98833 244.65791 162.13142 243.62265 163.53 243.12C 164.74258 242.8174 166.02187 242.9337 167.16 243.45C 165.74063 242.67236 164.04517 242.58043 162.55 243.2C 161.66475 243.63515 160.89148 244.26814 160.29001 245.05C 160.10445 245.24942 159.94942 245.47519 159.83 245.72C 159.71 246.07 160.17 246.37 160.35 246" stroke="none" fill="#151628" fill-rule="nonzero" />
            <path d="M186.79 257.58C 187.37 256.58 188.11 255.29999 189.45 255.29999C 190.51546 255.40459 191.48619 255.95721 192.12 256.81998C 191.53174 255.42197 190.16667 254.5093 188.65 254.49997C 187.15 254.64996 186.06999 255.83997 185.15 256.91998L185.15 256.91998L186.64 257.84998L186.79 257.58" stroke="none" fill="#151628" fill-rule="nonzero" />
            <path d="M186.82 243.21C 188.25027 242.70303 189.83893 242.93909 191.06001 243.84001C 191.73135 244.33559 192.29593 244.96138 192.72002 245.68001C 192.7802 245.80865 192.85042 245.93237 192.93002 246.05C 193.17003 246.29001 193.53003 246.17 193.45003 245.81C 193.34003 245.25 192.55003 244.55 192.15002 244.2C 191.53345 243.64238 190.7983 243.23207 190 243C 188.67857 242.7017 187.2939 242.8899 186.1 243.53C 186.34001 243.44 186.58 243.36 186.82 243.26" stroke="none" fill="#151628" fill-rule="nonzero" />
            <path d="M176.71 267.59C 182.32 267.19 182.22 262.21 182.22 262.21C 181.12503 264.26572 178.95807 265.5217 176.63 265.44998C 174.2919 265.5205 172.11374 264.267 171 262.21C 171 262.21 171.09 267.99 176.71 267.59" stroke="none" fill="#E69B6C" fill-rule="nonzero" />
            <path d="M207.44 251.67C 207.38 247.37 203.99 251.05 204.19 253.98C 204.39 256.90997 204.5 259.87 204.93001 260.32C 205.06001 260.46002 207.50002 255.96 207.44 251.67001" stroke="none" fill="#E69B6C" fill-rule="nonzero" />
            <path d="M145.83 251.67C 145.8819 254.72395 146.74469 257.70923 148.33 260.32C 148.77 259.87 148.88 256.91 149.08 253.98001C 149.28 251.05002 145.89 247.37001 145.83 251.67001" stroke="none" fill="#E69B6C" fill-rule="nonzero" />
            <path d="M182.73 284.45C 178.73 286.19 172.20999 284.12003 172.20999 284.12003C 175.0608 287.0333 179.70221 287.1789 182.73 284.45" stroke="none" fill="#E69B6C" fill-rule="nonzero" />
            <path d="M170.86 280.82C 170.86 280.82 177.94 275.27002 184.33 280.82C 192.33 277.21002 194.73 267.45 194.73 267.45C 193.22131 268.42047 191.63994 269.273 190 270C 187.588 274.19525 183.04536 276.70355 178.21 276.51C 173.1498 276.5381 168.3899 274.11154 165.44 270C 163.3808 269.13766 161.43333 268.02963 159.64 266.7C 160.64 271.34003 164.15 277.97 170.86 280.78" stroke="none" fill="#151628" fill-rule="nonzero" />
            <path d="M178.19 276.55C 183.04086 276.74307 187.59515 274.21722 190 270C 182.19768 273.51532 173.26231 273.51532 165.45999 270C 168.40578 274.10577 173.15681 276.53162 178.20999 276.51" stroke="none" fill="#FFFFFF" fill-rule="nonzero" />
            <path d="M170.86 280.82C 173.48018 281.8946 176.31766 282.33325 179.14 282.1C 180.93379 281.9948 182.693 281.56094 184.33 280.82C 177.94 275.27002 170.86 280.82 170.86 280.82" stroke="none" fill="#FE330A" fill-rule="nonzero" />
            <path d="M232.9 312.61C 232.54 309.47998 230.9 307.06 229.26999 304.37C 228.05634 302.57413 226.6255 300.93506 225.01 299.49C 223.89 298.4 221.01 293.78998 217.62 290.18C 215.84999 288.33 214.26 286.28998 212.36 284.56C 210.68001 283.02 204.63 278.83 201.81 276.8C 202.05 276.20667 202.27 275.60666 202.47 275C 204.21 276.34 212.17 281.78 214.14 283.58C 216.11 285.37997 217.62 287.34 219.39 289.19998C 222.81 292.80997 225.67 297.41998 226.78 298.50998C 228.2857 300.00797 229.59914 301.68756 230.69 303.50998C 232.36041 306.19177 233.45366 309.1922 233.90001 312.31998C 234.41652 315.71085 233.70741 319.1748 231.90001 322.08997C 231.90001 322.08997 233.67001 319.72998 232.90001 312.59998" stroke="none" fill="#285519" fill-rule="nonzero" />
            <path d="M229.93 348.46C 228.4712 351.07404 226.74171 353.5275 224.76999 355.78C 223.38979 357.22882 222.0847 358.74753 220.85999 360.33C 220.53998 360.8 220.55998 361.33 220.25998 361.83C 219.81522 362.4944 219.29509 363.1051 218.70998 363.65C 218.14464 364.23355 217.48973 364.72305 216.76997 365.1C 216.31244 365.38348 215.81293 365.5927 215.28998 365.72C 214.48997 365.86002 213.65997 365.82 212.84998 365.91C 212.04332 366.0275 211.24973 366.2217 210.47998 366.49C 208.79579 367.01813 207.01077 367.14145 205.26997 366.84998C 205.04997 366.8 204.26997 366.58 204.26997 366.58C 203.20158 367.61475 201.97226 368.4692 200.62997 369.11C 199.87094 369.50803 199.04886 369.7719 198.19998 369.88998C 197.43999 370.00998 196.68999 369.93997 195.92998 369.99C 194.31998 370.09 192.81998 370.78 191.22998 370.99C 190.12656 370.9852 189.04253 370.6996 188.07999 370.16C 187.00844 369.74722 185.99893 369.18863 185.07999 368.5C 184.58998 368.1 182.54 365.96 182.90999 365.23L182.90999 365.23L182.99998 365.16L183.25998 364.98C 183.5384 365.1333 183.82556 365.2702 184.11998 365.39C 184.26616 365.4386 184.41695 365.4721 184.56998 365.49002C 184.87997 366.49002 185.90997 368.62003 189.18997 368.25003C 190.91997 368.06003 191.37997 366.50003 191.26997 364.74002C 191.0182 362.59332 190.3381 360.519 189.26997 358.64C 190.45998 360.85 192.74997 364.64 195.80997 365.64C 198.56352 366.5932 201.54169 366.68735 204.34996 365.91C 207.93996 365.04 214.86996 363.86002 217.56996 361.32C 220.26996 358.78 219.76996 358.5 222.16997 356.32C 224.56998 354.14 227.65997 352.01 229.80997 348.51" stroke="none" fill="#285519" fill-rule="nonzero" />
            <path d="M229 320.11C 228.43 322.68997 226.65 324.18997 222.42 325.43997C 227.48 323.74997 226.81999 316.51996 225.06999 312.70996C 223.85738 310.46234 221.84427 308.75262 219.43 307.91995C 218.18144 307.39932 216.85133 307.1015 215.5 307.03995C 214.93898 307.03903 214.37935 307.096 213.83 307.20996C 217.41 306.39996 223.03 306.45996 226.17 309.70996C 228.71771 312.52704 229.76898 316.39035 229 320.10995" stroke="none" fill="#151628" fill-rule="nonzero" />
            <path d="M222.16 325.53C 216.78 327.04 211.85 327.1 208.16 328.29C 205.57085 328.9747 203.08774 330.01102 200.78 331.37C 198.25 332.88 192.33 335.37 189.64 335.53C 187.39 335.63 185.06999 335.88998 183.53 334.71C 183.22594 334.4783 182.96237 334.19785 182.75 333.88C 182.40659 333.12463 182.19357 332.31653 182.12 331.49C 181.93 330.99 181.31 330.69 181.12 329.93C 180.93 329.16998 181.19 328.78998 181.01999 328.19998C 180.84998 327.61 179.91998 327.08 179.87999 325.8C 179.84 324.52 180.15 324.31 180.10999 323.59998C 180.06998 322.88995 179.46999 322.74997 179.54999 321.42996C 179.62999 320.10995 179.90999 317.63995 183.46999 317.01996C 186.54999 316.47995 187.29 317.16995 188.65999 317.09995C 190.65999 316.99994 190.43 315.43994 190.12 314.67993C 189.62514 313.27258 189.47762 311.7665 189.69 310.28992C 190.02705 308.2092 191.8638 306.70718 193.97 306.78992C 195.78 306.70993 196.04001 308.51993 195.97 309.69992C 195.83 311.69992 194.97 313.64993 195.09 314.56992C 195.20999 315.4899 195.20999 315.6499 195.20999 315.6499C 196.48155 315.7976 197.75996 315.87772 199.04 315.8899C 202.24043 315.9296 205.25937 314.40707 207.12999 311.8099C 210.12999 308.0799 212.98999 307.03992 215.44998 307.03992C 216.80132 307.10147 218.13142 307.3993 219.37997 307.91992C 221.79277 308.75522 223.80505 310.46423 225.01997 312.70993C 226.80997 316.58994 227.45998 324.01993 222.07997 325.52994" stroke="none" fill="#FAC29B" fill-rule="nonzero" />
            <path d="M222.16 325.53C 216.78 327.04 211.85 327.1 208.16 328.29C 205.57085 328.9747 203.08774 330.01102 200.78 331.37C 198.25 332.88 192.33 335.37 189.64 335.53C 187.39 335.63 185.06999 335.88998 183.53 334.71C 192.38 332.18 196.20999 328.94 201.17 327.35C 206.43 325.68 212.4 325.08002 217.06 324.29C 221.72 323.5 223.72 322.09 223.89 317.01C 224.0724 313.4132 222.38632 309.9768 219.43 307.92C 221.84279 308.75528 223.85507 310.4643 225.06999 312.71002C 226.85999 316.59003 227.51 324.02002 222.12999 325.53003" stroke="none" fill="#E69B6C" fill-rule="nonzero" />
            <path d="M189.27 368.21C 185.99 368.58 184.96 366.49 184.65001 365.44998L184.65001 365.44998L184.79001 365.44998C 185.57674 365.4466 186.35977 365.3424 187.12001 365.13998C 187.92139 365.02664 188.73203 364.99313 189.54001 365.03998C 189.92859 365.0461 190.316 364.99557 190.69 364.88998L190.69 364.88998L191.35 364.68C 191.46 366.44 191 368 189.27 368.19" stroke="none" fill="#151628" fill-rule="nonzero" />
            <path d="M191.35 364.7L190.69 364.91C 190.31921 365.01462 189.93524 365.06512 189.55 365.06C 188.7387 365.01315 187.92473 365.04666 187.12001 365.16C 186.36075 365.3673 185.57706 365.4716 184.79001 365.47C 184.58961 365.45123 184.39182 365.411 184.20001 365.35C 183.90561 365.23022 183.61845 365.09332 183.34001 364.94L183.34001 364.94L183.08002 365.12C 181.85086 366.04178 180.50604 366.79822 179.08002 367.37C 178.41791 367.6305 177.71143 367.75958 177.00002 367.75C 176.49002 367.75 176.00002 367.58 175.49002 367.59C 174.49002 367.59 173.77002 368.35 172.84003 368.52C 171.91003 368.68997 168.30003 368.71 168.12003 366.38998C 168.13373 366.02704 168.19423 365.6674 168.30002 365.31998C 167.32457 364.93576 166.73236 363.94055 166.86002 362.89996C 166.2164 362.69623 165.68144 362.24277 165.37503 361.64124C 165.06862 361.03967 165.01637 360.34033 165.23001 359.69995L165.23001 359.69995L164.88 359.42996C 162.95001 357.83997 163.88 355.28995 163.88 355.28995C 163.45305 354.869 163.06482 354.4105 162.72 353.91995C 162.29747 353.16107 162.19318 352.2656 162.43001 351.42996C 162.91 349.73996 164.75002 349.24997 166.32 349.18997C 166.84714 349.21848 167.37573 349.20175 167.90001 349.13998C 168.43138 348.98267 168.9524 348.7923 169.46 348.56998C 170.24 348.3 171.02 348.08 171.81001 347.84998C 172.56993 347.6555 173.3469 347.5349 174.13002 347.49C 176.071 347.33374 178.02339 347.39746 179.95003 347.68C 179.95003 347.68 181.13002 348.57 181.88002 349.25998C 184.28001 351.43997 186.76003 353.65997 188.26003 356.50998C 189.55002 358.94998 191.17003 361.86 191.32002 364.69998" stroke="none" fill="#FAC29B" fill-rule="nonzero" />
            <path d="M191.35 364.7L190.69 364.91C 190.316 365.0156 189.92859 365.06613 189.54001 365.06C 188.73203 365.01315 187.92139 365.04666 187.12001 365.16C 186.35977 365.36243 185.57674 365.4666 184.79001 365.47C 184.58961 365.45123 184.39182 365.411 184.20001 365.35C 183.90561 365.23022 183.61845 365.09332 183.34001 364.94L183.34001 364.94L183.08002 365.12C 181.84985 366.04288 180.50533 366.80255 179.08002 367.38C 178.41573 367.63165 177.71033 367.7571 177.00002 367.75C 176.50002 367.75 176.00002 367.58 175.49002 367.59C 174.49002 367.59 173.77002 368.36 172.84003 368.53C 171.91003 368.7 168.30003 368.71 168.12003 366.4C 168.12508 366.03296 168.18576 365.66882 168.30002 365.32C 174.18002 366.94 183.98001 364.94 185.08002 360.37C 186.18002 355.8 179.55002 349.63998 176.99002 347.41998C 177.99458 347.4415 178.99672 347.52835 179.99002 347.68C 180.63153 348.1486 181.24895 348.6492 181.84003 349.18C 184.20003 351.32 186.84003 353.66 188.30003 356.50998C 189.59003 358.94998 191.21004 361.86996 191.36003 364.69998" stroke="none" fill="#E69B6C" fill-rule="nonzero" />
            <path d="M189.39 358.6C 189.26 358.37 189.15 358.15 189.06 357.97L189.06 357.97L189.39 358.6" stroke="none" fill="#E69B6C" fill-rule="nonzero" />
            <path d="M168.11 366.4C 168.12518 366.59534 168.16898 366.7874 168.24 366.97C 167.72731 367.19104 167.20323 367.38464 166.67 367.55C 163.97131 368.5504 161.18622 369.30026 158.35 369.78998C 155.92357 370.211 153.45206 370.3085 151 370.08C 148.7 369.83 146.38 369.36 144.11 368.9C 142.78647 368.70673 141.50108 368.30862 140.3 367.72C 139.95697 367.52252 139.65215 367.2651 139.40001 366.96C 139.2901 366.80136 139.19312 366.63416 139.11002 366.46C 138.91016 366.13895 138.65643 365.8548 138.36002 365.62C 137.38705 364.73404 136.58095 363.6807 135.98001 362.51C 135.7199 362.05112 135.57253 361.537 135.55002 361.01C 135.55002 360.90002 135.71002 360.25 135.71002 360.25C 139.02002 362.25 144.16002 364.7 153.18002 365.8C 156.85739 366.24942 160.57686 366.23264 164.25003 365.75C 164.2197 365.55786 164.2197 365.36218 164.25003 365.17C 163.60478 364.96866 163.06802 364.51553 162.76123 363.91324C 162.45442 363.3109 162.40352 362.61035 162.62003 361.97L162.62003 361.97L162.27002 361.69C 160.34003 360.1 161.27002 357.55 161.27002 357.55C 160.84009 357.13177 160.4516 356.67297 160.11002 356.18C 159.68413 355.42252 159.57622 354.52698 159.81001 353.69C 160.20372 352.57755 161.18965 351.78107 162.36002 351.63C 162.19029 352.40927 162.31122 353.2237 162.70001 353.92C 163.04483 354.41055 163.43306 354.86905 163.86002 355.29C 163.86002 355.29 162.86002 357.84 164.86002 359.43002C 164.95001 359.50003 165.00002 359.53003 165.21002 359.71002C 164.9992 360.3505 165.05275 361.04858 165.3588 361.64938C 165.66483 362.2502 166.19803 362.70398 166.84003 362.91003C 166.71864 363.94977 167.31459 364.94028 168.29002 365.32004C 168.17325 365.66858 168.1092 366.0326 168.10002 366.40002" stroke="none" fill="#285519" fill-rule="nonzero" />
            <path d="M203.6 275.83C 202.82819 279.2986 201.23718 282.53204 198.96 285.25998C 197.14398 287.41174 194.6576 288.8909 191.90001 289.46L191.90001 289.46L193.11002 287.68C 194.29958 286.87326 195.42613 285.97736 196.48001 285C 199.2486 282.19266 201.3058 278.76398 202.48001 275L202.48001 275L203.61002 275.83" stroke="none" fill="#285519" fill-rule="nonzero" />
            <path d="M136 276.77L105.6 276.77C 105.31805 276.77267 105.04687 276.66187 104.84749 276.4625C 104.64811 276.26312 104.5373 275.99194 104.54 275.71L104.54 275.71L104.54 245.31C 104.54 244.72458 105.01458 244.25 105.6 244.25L105.6 244.25L136 244.25C 136.58542 244.25 137.06 244.72458 137.06 245.31L137.06 245.31L137.06 275.71C 137.06268 275.99194 136.95187 276.26312 136.7525 276.4625C 136.55313 276.66187 136.28194 276.77267 136 276.77" stroke="none" fill="#E3B834" fill-rule="nonzero" />
            <path d="M137 245.31L137 275.72C 136.97313 276.28418 136.50479 276.72604 135.94 276.72L135.94 276.72L105.54 276.72C 104.977234 276.72092 104.51186 276.28186 104.48 275.72L104.48 275.72L104.48 275.62L133.89 275.62C 134.47153 275.62003 134.9445 275.15152 134.95 274.57L134.95 274.57L134.95 244.25L135.95 244.25C 136.53542 244.25 137.01 244.72458 137.01 245.31" stroke="none" fill="#BF8E1E" fill-rule="nonzero" />
            <path d="M107.6 247.3L117.77 247.3L117.77 253.19L107.6 253.19z" stroke="none" fill="#FFFFFF" fill-rule="nonzero" />
            <path d="M157.43 325.13C 157.43 329.64 155.04999 333.58002 153.29999 333.01C 150.22998 332.01 152.02998 320.69 149.45999 314.68002C 146.45999 307.73 142.63998 305.12003 142.4 304.96002C 141.15999 300.96002 139.73999 297.10004 138.45999 293.16003C 140.95 293.40002 144.78 296.16003 148.15 299.16003L148.15 299.16003L148.42 299.44003C 154.27 305.54004 157.5 316.77002 157.42 325.12003" stroke="none" fill="#408F24" fill-rule="nonzero" />
            <path d="M157.43 325.13C 157.43 329.64 155.04999 333.58002 153.29999 333.01C 150.22998 332.01 152.02998 320.69 149.45999 314.68002C 146.7 308.23 143.18999 305.55002 142.45999 305.08002L142.45999 305.08002L142.35999 305.00003C 141.11998 301.00003 139.68999 297.10004 138.40999 293.16003C 138.5399 293.15326 138.67006 293.15326 138.79999 293.16003C 141.29 293.64005 144.9 296.28003 148.09999 299.16003L148.09999 299.16003L148.37 299.44003C 154.22 305.54004 157.45 316.77002 157.37 325.12003" stroke="none" fill="#151628" fill-rule="nonzero" />
            <path d="M129.73 334.7C 129.05617 333.9899 128.43141 333.23483 127.85999 332.44C 128.59 331.87 129.43999 329.97 127.99999 323.67C 128.18999 323.94 131.9 329.51 129.73 334.67" stroke="none" fill="#285519" fill-rule="nonzero" />
		</g>
	</g>
</g>
</svg>