<svg id="Layer_1" data-name="Layer 1" xmlns="http://www.w3.org/2000/svg" xmlns:xlink="http://www.w3.org/1999/xlink" viewBox="0 0 902.7 595.28"><defs><style>.cls-1{fill:none;}.cls-2{clip-path:url(#clip-path);}.cls-3{fill:#151628;}.cls-4{fill:#408f24;}.cls-5{fill:#285519;}.cls-6{fill:#fac29b;}.cls-7{fill:#e69b6c;}.cls-8{fill:#fff;}.cls-9{fill:#fe330a;}.cls-10{fill:#e3b834;}.cls-11{fill:#bf8e1e;}</style><clipPath id="clip-path"><rect class="cls-1" width="902.7" height="595.28"/></clipPath></defs><title>Artboard 2</title><g class="cls-2"><g class="cls-2"><path class="cls-3" d="M405.5,267.7a10.73,10.73,0,0,1-2.94,7.51,10.51,10.51,0,0,1-8.18,3.23,8.79,8.79,0,0,1-6.91-2.79A9.62,9.62,0,0,1,385,269a10.58,10.58,0,0,1,2.94-7.45c1.95-2.1,4.69-3.16,8.24-3.16a8.74,8.74,0,0,1,6.91,2.75,9.57,9.57,0,0,1,2.43,6.6"/><path class="cls-3" d="M302.25,329.53q0,18.93-28.05,18.94a64.22,64.22,0,0,1-17.86-2.21l2.14-12.44a46,46,0,0,0,15.72,2.85c5.05,0,8.55-.43,10.52-1.27a4.34,4.34,0,0,0,2.93-4.23q0-4.6-10.61-8.78-9.27-3.67-13.51-7.19a15.31,15.31,0,0,1-5.82-12.07A16.58,16.58,0,0,1,264,289.62q6.25-5.12,18.2-5.12,11.16,0,17.55,2L297.57,299a42.13,42.13,0,0,0-15.4-2.79c-6.75,0-10.11,1.74-10.11,5.19a5.09,5.09,0,0,0,2.14,4.27q2.16,1.61,8.78,4.07,9.16,3.35,13.33,6.88a16.26,16.26,0,0,1,5.94,12.95"/><path class="cls-3" d="M370.65,346.77H353.84q1.4-16,1.39-31.07,0-11.25-2.84-14.75c-1.89-2.34-5-3.5-9.35-3.5a23.48,23.48,0,0,0-13.51,4.61q0,26.82.63,44.71h-16.8q.69-19.57.7-46.93a370.43,370.43,0,0,0-2-41.86L330,257q-.95,20.34-1,35.37h.82a27.44,27.44,0,0,1,19.07-7.64q10.17,0,15.95,4.6t5.79,16.24c0,.8-.06,2.44-.16,4.89s-.16,4.1-.16,4.9q0,10.55.32,31.45"/><path class="cls-3" d="M402.6,346.77h-17q.88-13.08.89-30a177.78,177.78,0,0,0-2.15-29.43l18.19-1.83q-.84,12.24-.83,31.26,0,16.23.89,30"/><path class="cls-3" d="M470.75,293.37c-4.73-5.83-11.11-8.74-19.2-8.74q-11.62,0-18.39,6.25h-1l-.94-5.43L415,287.22q3.32,16,3.31,46.6,0,23.7-1.14,41.83h17.18q-.45-15.88-.45-31.34h.76c2.53,2.85,7.17,4.3,13.89,4.3q13.57,0,21.42-10.37a38.77,38.77,0,0,0,7.82-24.06,32.11,32.11,0,0,0-7.06-20.81M457,330.89c-2.71,4.15-6.85,6.21-12.47,6.21q-6.31,0-10.28-3.09,0-14.76-.95-32.53c2.69-3.39,6.95-5.11,12.75-5.11a12.69,12.69,0,0,1,11,5.74,23.46,23.46,0,0,1,4,13.71,27.29,27.29,0,0,1-4,15.07"/><path class="cls-4" d="M582.84,346.77H566.1q1.35-16,1.33-31.07c0-7.53-1-12.46-2.91-14.78s-5-3.47-9.27-3.47q-5.12,0-10.81,3.73-.24,7.89-.25,14.14,0,10.55.39,31.45H527.65Q529,329.46,529,313.1c0-5.63-.78-9.65-2.37-12.06s-4.84-3.59-9.81-3.59a15.38,15.38,0,0,0-11.43,4.61q.3,25,.32,44.71h-17q1.14-19.69,1.14-31.07a129.07,129.07,0,0,0-3.1-28.48L503,285.45l1.08,6.69h1a26.82,26.82,0,0,1,18.51-7.45q12.88,0,18.13,7.45h1q9.35-7.45,18.5-7.45,10.74,0,16.2,4.64t5.46,16.83c0,.81,0,2.33-.12,4.59s-.13,3.77-.13,4.57q0,10.55.25,31.45"/><path class="cls-4" d="M726.2,346.77H709.4q1.4-16,1.39-32.33c0-6.61-1-11.1-2.94-13.46s-4.93-3.53-8.93-3.53a22.1,22.1,0,0,0-13.64,4.92q.32,24.63.33,44.4h-17q1.14-19.77,1.14-31.07a126.33,126.33,0,0,0-3.1-28.48l16.17-1.77,1.07,6.69h1a29.62,29.62,0,0,1,19.91-7.45q9.74,0,15.57,4.57t5.83,16.9c0,1.23-.05,2.85-.16,4.9s-.15,4.14-.15,6.28q0,8.52.31,29.43"/><path class="cls-4" d="M798.2,346.77H778.87q0-2.34-9.59-15.82T757,317.46h-.83q0,12.94.76,29.31H740.22q.76-29.49.76-46.93A386.57,386.57,0,0,0,739,258L757,257q-.88,24-.88,42.88c0,1.61,0,4.71.06,9.35H757q1.76,0,10-10.19t8.28-12.23h18.82q0,2-8.6,10.93t-13.89,12.38V311q5.88,4.1,16.21,18.66t10.31,17.08"/><path class="cls-4" d="M648.73,292.24A30.72,30.72,0,0,0,627.17,284,33.1,33.1,0,0,0,604,293q-9.87,9-9.86,25,0,14.85,9.05,23.05a31.23,31.23,0,0,0,21.67,8.18,33,33,0,0,0,23.07-9q9.76-9,9.78-24.89,0-14.89-9-23.15m-6.94,37.35a2.05,2.05,0,0,1-2,2.06H613.42a2.05,2.05,0,0,1-2-2.06V303.27a2,2,0,0,1,2-2h26.32a2,2,0,0,1,2,2Z"/><path class="cls-3" d="M227.53,368.49c0,3.39-22.49,6.14-50.24,6.14s-50.24-2.75-50.24-6.14,22.49-6.14,50.24-6.14,50.24,2.75,50.24,6.14"/><path class="cls-4" d="M231.2,338.71a8.3,8.3,0,0,1,.68,3.81,14.34,14.34,0,0,1-1.36,4.7,37.55,37.55,0,0,1-5.75,8.56,58.56,58.56,0,0,0-3.91,4.55c-.32.47-.3,1-.6,1.5a10.37,10.37,0,0,1-1.55,1.82,7.63,7.63,0,0,1-1.94,1.45,5.1,5.1,0,0,1-1.48.62c-.8.14-1.63.1-2.44.19a12.81,12.81,0,0,0-2.37.58,11.22,11.22,0,0,1-5.21.36c-.22-.05-1-.27-1-.27a13.74,13.74,0,0,1-3.64,2.53,7.44,7.44,0,0,1-2.43.78c-.76.12-1.51.05-2.27.1-1.61.1-3.11.79-4.7,1a6.44,6.44,0,0,1-3.14-.83,12.36,12.36,0,0,1-3-1.66c-.49-.4-2.55-2.55-2.17-3.27a18,18,0,0,1-3.92,2.19,5.71,5.71,0,0,1-2.08.37l-.39,0a8.52,8.52,0,0,0-1.12-.12,3.25,3.25,0,0,0-.45.07c-.75.18-1.42.72-2.2.87l-.36,0c-1.11.1-3.34,0-4.1-1.34a1.23,1.23,0,0,1-.12-.26,16.82,16.82,0,0,1-1.58.58,47.63,47.63,0,0,1-8.33,2.24,27.78,27.78,0,0,1-7.34.29c-2.3-.25-4.62-.72-6.89-1.18a12.89,12.89,0,0,1-3.81-1.18,3.31,3.31,0,0,1-.9-.76,3.6,3.6,0,0,1-.29-.5,3.29,3.29,0,0,0-.75-.84,11,11,0,0,1-2.38-3.11,3.33,3.33,0,0,1-.43-1.5c0-.11.16-.76.16-.76a13.21,13.21,0,0,1-3.72-3.18A16.12,16.12,0,0,1,127.94,346a16.56,16.56,0,0,1,2-7.08,18.71,18.71,0,0,1,1.63-2.6l0,0a12.92,12.92,0,0,1-1.77-1.6,20.6,20.6,0,0,1-1.87-2.26,27,27,0,0,1-3.86-7.83,32.73,32.73,0,0,1-.75-13.3,21.83,21.83,0,0,1,1.69-5.71,22.26,22.26,0,0,0,1.22-3s-.15-1.62-.22-2.25c-.13-1.26-.52-2.53-.53-3.79a4.53,4.53,0,0,1,1.33-3.38l0,.31c.51,3.21,4,4.8,6.53,6.33q2.82,1.71,5.7,3.32c1.12.63,2.25,1.26,3.39,1.87h0q-.47-1.49-1-3c-.49-1.48-1-3-1.51-4.43-.4-1.2-.81-2.39-1.2-3.6-.1-.28-.19-.56-.28-.84,4.3.43,12.63,8.39,15.6,12,2.67,3.29,3.76,7.64,4.74,11.69a.29.29,0,0,1,0,.09s4.94-1.65,13.41-7.46a78,78,0,0,0,17.69-17.24c.45-.6,1.28-1.8,2-2.83l1.21-1.78a28.39,28.39,0,0,0,3.37-2.68,24.73,24.73,0,0,0,6-10l1.13.83c2.82,2,8.86,6.22,10.54,7.75,1.9,1.73,3.48,3.76,5.25,5.62,3.43,3.61,6.28,8.22,7.39,9.31a25.6,25.6,0,0,1,3.91,5,22.41,22.41,0,0,1,3.2,8.81A14,14,0,0,1,228.33,326a17.52,17.52,0,0,1-8,3.45h-.09c1.63.07,7.3.78,11,9.28"/><path class="cls-5" d="M227.72,312.61c-1.6-2-4.32,11.52-4.32,11.52l-6.8.71-2.52-17.63s-6.5,4.7-8,3.86c-1.22-.71,1.11-6.45,1.23-6.74-.13.25-3.4,6.27-7.09,7.17a24.48,24.48,0,0,0,1.85-8.49c-2,5.08-4.76,8.52-8.63,9.76s.41-7.88,2.26-11.21c-3.48,5.17-10.09,18.07-11.91,11.47-2.76,3.84-11.4,12-25.31,16.14a23.71,23.71,0,0,0,.68-4.1c17.3-10.24,19.55-11.77,26.29-21.36-11.44,10.35-21.05,14.42-26.33,15.68a22.93,22.93,0,0,0-.36-2.49c-1-4-2.07-8.4-4.74-11.69a57,57,0,0,0-5.84-6l-1.32,1.08,2.16,5-2.14,4.32a22.68,22.68,0,0,1,2.55,9.39c.2,5.91-2.15,15.79,4.14,15.79.16,0,.31,0,.46,0a5.35,5.35,0,0,1-1.91,1.06c-1.15.3-1.85.37-3.44.78s-5.14.11-6-1.08-2.24-8.24-3.46-11.12a24.67,24.67,0,0,0-5.44-7.73c5.11,8.47,7.57,18.26,5.2,19.26s-3.1-1-3.21-3.66-.7-5.17-3.55-10.05c1.87,7.1,3.94,13.69-.77,14l0,0a18.71,18.71,0,0,0-1.63,2.6,2.55,2.55,0,0,0,1.62.15c1.4-.41,3.3-2.06,3.92-2s1.59,2,3.63,1.81,3.88-.46,5.16,0a5.78,5.78,0,0,0,4.29.18,5.2,5.2,0,0,1,2.42-.49,9.67,9.67,0,0,0,3.22,1.38,6.61,6.61,0,0,1-3.71,2.29,10,10,0,0,0,6.06-1.69c1.2.3,2.42.6,3.48.91a24.31,24.31,0,0,1-8.74,7.11c6-1.61,9.87-3.87,11.81-5.81.34.35.63.7.94,1a30.56,30.56,0,0,1-9.25,9.09c3.16-.76,6.17-1.73,13.12-8.67a21,21,0,0,1,3.65-.06c.88.2,1.47.27,4.34-.49a50.77,50.77,0,0,1,8.79-1.4,23.07,23.07,0,0,0,5.35-.74c1.65-.47,3.94-1.31,3.94-1.31s7.25,5,12.37,7.25c-7.51-5.62-8.24-9-8.24-9,4.78-.59,8.87.49,14.08,3.28a18.77,18.77,0,0,0-5.57-4.22s.72-.62,3.23,0a17.53,17.53,0,0,0,6.68.56c-3.85-1.33-6.23-4.78-2.79-6.85a11.68,11.68,0,0,1,6.51-1.72h.09a17.52,17.52,0,0,0,8-3.45,6.12,6.12,0,0,0,1.28-2.9c.88-5.39-.29-8.41-1.89-10.46"/><path class="cls-5" d="M180,347.68a26.51,26.51,0,0,0-5.82-.19,12.17,12.17,0,0,0-2.32.36l-.39.12a2.78,2.78,0,0,1,2.65-2.75c2.7-.29,5.63,2.25,5.88,2.46"/><path class="cls-6" d="M138.44,293.16c-.36-1.14-.73-2.28-1.07-3.36l0-.11c-.22-.71-.43-1.41-.62-2.08l-.51-1.81a.19.19,0,0,1,0-.07c-.27-1-.48-1.87-.64-2.61v0c0-.14-.06-.28-.08-.41s-.08-.44-.1-.63,0-.21,0-.3a3.32,3.32,0,0,1,0-.43,8.13,8.13,0,0,0-.93-4,1,1,0,0,0-.92-.52H109.74a3.83,3.83,0,0,0-2.61.84l-.08.09a1.57,1.57,0,0,0-.37,1s0,.08,0,.12c.09,1.55,2.47,2.76,4,3.62s4.69,2.08,6.15,2.86a19.55,19.55,0,0,0,4.85,1.47c1.29.26,4.47,0,4.83,2.76.17,1.36.07,2.54.17,3.63l0,.31c.51,3.21,4,4.8,6.53,6.33q2.82,1.71,5.7,3.32c1.12.63,2.25,1.26,3.39,1.87-.56-1.82-2.32-6.83-3.95-11.83"/><path class="cls-7" d="M141.45,302c-.49-1.48-1-3-1.51-4.43s-1-3-1.48-4.44l-1.08-3.36,0-.11c-.22-.71-.43-1.41-.62-2.08s-.36-1.24-.51-1.81a.19.19,0,0,1,0-.07c-.27-1-.49-1.87-.64-2.61v0c0-.15-.06-.29-.08-.42s-.08-.44-.1-.63,0-.21,0-.3a3.32,3.32,0,0,1,0-.43,8.13,8.13,0,0,0-.93-4,1,1,0,0,0-.92-.52H109.74a3.83,3.83,0,0,0-2.61.84l-.08.09a1.59,1.59,0,0,0-.37,1,5.75,5.75,0,0,1,.91-.07h23.72a1,1,0,0,1,.92.51,8.28,8.28,0,0,1,.92,4c0,1.35.9,4.69,2.07,8.48.34,1.09.7,2.22,1.06,3.36.93,2.85,1.95,5.84,2.72,8.11,1.12.63,2.25,1.26,3.39,1.87h0q-.47-1.49-1-3"/><path class="cls-6" d="M207.07,276c-1,.61-2.41.46-3.48-1.33a4,4,0,0,1-.52-1.93c-.2.79-.35,1.44-.6,2.22a24.85,24.85,0,0,1-6,10,27.54,27.54,0,0,1-3.33,2.65l0,0c-3.8,2.38-8.84,3.81-15.44,3.66-12.34.05-19.55-4.32-23.7-10.26,1.43,3.18,6.36,11.29,20.42,14.6,12.29,2.88-10.89,19.13-16.1,19.28-.88-3.46-2-7-4.23-9.75a52.82,52.82,0,0,0-4.18-4.44,9.63,9.63,0,0,1,0-2c.15-2.92.55-6.13,1.54-7.07a15.07,15.07,0,0,0-4.3,6.62c-2.94-2.5-6.08-4.6-8.31-5a2.2,2.2,0,0,0-.36,0l-1.15-3.58s3-6.25,5.65-8.87c2.35-2.34,5.83-4.45,7.85-5.88-.24-.67-.45-1.34-.64-2a3.47,3.47,0,0,1-.35,1.49c-1.08,2.07-2.64,2.27-3.64,1.63-6-3.37,1.15-12.57,1.15-12.57-2.49-3.15-6-16.69-1.12-17.46,2.22-.35,3.46.29,4.16,1.07,3.8-28.44,26.23-27.45,26.23-27.45s22.44-1,26.24,27.46c.69-.79,1.93-1.43,4.16-1.08,4.83.77,1.38,14.31-1.11,17.46,0,0,7.18,9.2,1.15,12.57"/><path class="cls-7" d="M149.91,298.76a10.53,10.53,0,0,0,0,2c-.87-.82-1.78-1.66-2.73-2.46a15.22,15.22,0,0,1,4.31-6.62c-1,.94-1.39,4.15-1.55,7.07"/><path class="cls-7" d="M193.1,287.68v0c-.07.11-.58.87-1.19,1.76s-1.54,2.23-2,2.83a78,78,0,0,1-17.69,17.24c-8.47,5.81-13.42,7.52-13.42,7.52-.16-.69-.33-1.39-.51-2.09,5.21-.15,28.39-16.39,16.1-19.28-14.06-3.31-19-11.42-20.42-14.6,4.15,5.94,11.36,10.31,23.7,10.26,6.6.15,11.63-1.28,15.43-3.66"/><path class="cls-3" d="M166.08,255c-1.8-1.39-4.08.09-4.94,1.8a3.66,3.66,0,0,1,2.9-1.51c1.34.14,2,1.52,2.58,2.54l1.49-.93a10.45,10.45,0,0,0-2-1.9"/><path class="cls-3" d="M160.35,246a5.63,5.63,0,0,1,3.18-2.88,5.54,5.54,0,0,1,3.63.33,5.34,5.34,0,0,0-4.61-.25,6.43,6.43,0,0,0-2.26,1.85,2.76,2.76,0,0,0-.46.67c-.12.35.34.65.52.28"/><path class="cls-3" d="M186.79,257.58c.58-1,1.32-2.28,2.66-2.28a3.77,3.77,0,0,1,2.67,1.52,3.79,3.79,0,0,0-3.47-2.32c-1.5.15-2.58,1.34-3.5,2.42l1.49.93.15-.27"/><path class="cls-3" d="M186.82,243.21a4.57,4.57,0,0,1,4.24.63,6.21,6.21,0,0,1,1.66,1.84,2.71,2.71,0,0,0,.21.37c.24.24.6.12.52-.24-.11-.56-.9-1.26-1.3-1.61A5.49,5.49,0,0,0,190,243a5.63,5.63,0,0,0-3.9.53c.24-.09.48-.17.72-.27"/><path class="cls-7" d="M176.71,267.59c5.61-.4,5.51-5.38,5.51-5.38a6.12,6.12,0,0,1-5.59,3.24,6.19,6.19,0,0,1-5.63-3.24s.09,5.78,5.71,5.38"/><path class="cls-7" d="M207.44,251.67c-.06-4.3-3.45-.62-3.25,2.31s.31,5.89.74,6.34c.13.14,2.57-4.36,2.51-8.65"/><path class="cls-7" d="M145.83,251.67a17.23,17.23,0,0,0,2.5,8.65c.44-.45.55-3.41.75-6.34s-3.19-6.61-3.25-2.31"/><path class="cls-7" d="M182.73,284.45c-4,1.74-10.52-.33-10.52-.33a7.6,7.6,0,0,0,10.52.33"/><path class="cls-3" d="M170.86,280.82s7.08-5.55,13.47,0c8-3.61,10.4-13.37,10.4-13.37A34.85,34.85,0,0,1,190,270h0a13,13,0,0,1-11.79,6.51A15.61,15.61,0,0,1,165.44,270a27.71,27.71,0,0,1-5.8-3.3c1,4.64,4.51,11.27,11.22,14.08"/><path class="cls-8" d="M178.19,276.55A13,13,0,0,0,190,270h0a29.87,29.87,0,0,1-24.54,0,15.61,15.61,0,0,0,12.75,6.51"/><path class="cls-9" d="M170.86,280.82a17.93,17.93,0,0,0,8.28,1.28,14.67,14.67,0,0,0,5.19-1.28c-6.39-5.55-13.47,0-13.47,0"/><path class="cls-5" d="M232.9,312.61c-.36-3.13-2-5.55-3.63-8.24a26.32,26.32,0,0,0-4.26-4.88c-1.12-1.09-4-5.7-7.39-9.31-1.77-1.85-3.36-3.89-5.26-5.62-1.68-1.54-7.73-5.73-10.55-7.76q.36-.89.66-1.8c1.74,1.34,9.7,6.78,11.67,8.58s3.48,3.76,5.25,5.62c3.42,3.61,6.28,8.22,7.39,9.31a25.6,25.6,0,0,1,3.91,5,22.74,22.74,0,0,1,3.21,8.81,14.42,14.42,0,0,1-2,9.77s1.77-2.36,1-9.49"/><path class="cls-5" d="M229.93,348.46a42.72,42.72,0,0,1-5.16,7.32,58.56,58.56,0,0,0-3.91,4.55c-.32.47-.3,1-.6,1.5a10.37,10.37,0,0,1-1.55,1.82,7.63,7.63,0,0,1-1.94,1.45,5.1,5.1,0,0,1-1.48.62c-.8.14-1.63.1-2.44.19a12.81,12.81,0,0,0-2.37.58,11.22,11.22,0,0,1-5.21.36c-.22-.05-1-.27-1-.27a13.74,13.74,0,0,1-3.64,2.53,7.44,7.44,0,0,1-2.43.78c-.76.12-1.51.05-2.27.1-1.61.1-3.11.79-4.7,1a6.5,6.5,0,0,1-3.15-.83,12.49,12.49,0,0,1-3-1.66c-.49-.4-2.54-2.54-2.17-3.27h0l.09-.07.26-.18a8.16,8.16,0,0,0,.86.41,2.26,2.26,0,0,0,.45.1c.31,1,1.34,3.13,4.62,2.76,1.73-.19,2.19-1.75,2.08-3.51a16.15,16.15,0,0,0-2-6.1c1.19,2.21,3.48,6,6.54,7a14.38,14.38,0,0,0,8.54.27c3.59-.87,10.52-2.05,13.22-4.59s2.2-2.82,4.6-5,5.49-4.31,7.64-7.81"/><path class="cls-3" d="M229,320.11c-.57,2.58-2.35,4.08-6.58,5.33,5.06-1.69,4.4-8.92,2.65-12.73a10.18,10.18,0,0,0-5.64-4.79h0a11.58,11.58,0,0,0-3.93-.88,8.16,8.16,0,0,0-1.67.17c3.58-.81,9.2-.75,12.34,2.5a11.91,11.91,0,0,1,2.83,10.4"/><path class="cls-6" d="M222.16,325.53c-5.38,1.51-10.31,1.57-14,2.76a29.31,29.31,0,0,0-7.38,3.08c-2.53,1.51-8.45,4-11.14,4.16-2.25.1-4.57.36-6.11-.82a3.46,3.46,0,0,1-.78-.83,7.35,7.35,0,0,1-.63-2.39c-.19-.5-.81-.8-1-1.56s.07-1.14-.1-1.73-1.1-1.12-1.14-2.4.27-1.49.23-2.2-.64-.85-.56-2.17.36-3.79,3.92-4.41c3.08-.54,3.82.15,5.19.08,2-.1,1.77-1.66,1.46-2.42a9.26,9.26,0,0,1-.43-4.39,4.17,4.17,0,0,1,4.28-3.5c1.81-.08,2.07,1.73,2,2.91-.14,2-1,3.95-.88,4.87s.12,1.08.12,1.08a36.16,36.16,0,0,0,3.83.24,9.82,9.82,0,0,0,8.09-4.08c3-3.73,5.86-4.77,8.32-4.77a11.58,11.58,0,0,1,3.93.88h0a10.21,10.21,0,0,1,5.64,4.79c1.79,3.88,2.44,11.31-2.94,12.82"/><path class="cls-7" d="M222.16,325.53c-5.38,1.51-10.31,1.57-14,2.76a29.31,29.31,0,0,0-7.38,3.08c-2.53,1.51-8.45,4-11.14,4.16-2.25.1-4.57.36-6.11-.82,8.85-2.53,12.68-5.77,17.64-7.36,5.26-1.67,11.23-2.27,15.89-3.06s6.66-2.2,6.83-7.28a10.43,10.43,0,0,0-4.46-9.09,10.21,10.21,0,0,1,5.64,4.79c1.79,3.88,2.44,11.31-2.94,12.82"/><path class="cls-3" d="M189.27,368.21c-3.28.37-4.31-1.72-4.62-2.76l.14,0a9.21,9.21,0,0,0,2.33-.31,12.23,12.23,0,0,1,2.42-.1,4,4,0,0,0,1.15-.15l.66-.21c.11,1.76-.35,3.32-2.08,3.51"/><path class="cls-6" d="M191.35,364.7l-.66.21a4,4,0,0,1-1.14.15,12.33,12.33,0,0,0-2.43.1,8.78,8.78,0,0,1-2.33.31,2.81,2.81,0,0,1-.59-.12,8.16,8.16,0,0,1-.86-.41l-.26.18a17.56,17.56,0,0,1-4,2.25,5.48,5.48,0,0,1-2.08.38c-.51,0-1-.17-1.51-.16-1,0-1.72.76-2.65.93s-4.54.19-4.72-2.13a4.22,4.22,0,0,1,.18-1.07,2.3,2.3,0,0,1-1.44-2.42,2.52,2.52,0,0,1-1.63-3.2l-.35-.27c-1.93-1.59-1-4.14-1-4.14a10,10,0,0,1-1.16-1.37,3.28,3.28,0,0,1-.29-2.49c.48-1.69,2.32-2.18,3.89-2.24a9.24,9.24,0,0,0,1.58-.05,13.3,13.3,0,0,0,1.56-.57c.78-.27,1.56-.49,2.35-.72a12.17,12.17,0,0,1,2.32-.36,25.83,25.83,0,0,1,5.82.19s1.18.89,1.93,1.58c2.4,2.18,4.88,4.4,6.38,7.25,1.29,2.44,2.91,5.35,3.06,8.19"/><path class="cls-7" d="M191.35,364.7l-.66.21a4,4,0,0,1-1.15.15,12.23,12.23,0,0,0-2.42.1,9.21,9.21,0,0,1-2.33.31,2.81,2.81,0,0,1-.59-.12,8.16,8.16,0,0,1-.86-.41l-.26.18a17.81,17.81,0,0,1-4,2.26,5.71,5.71,0,0,1-2.08.37c-.5,0-1-.17-1.51-.16-1,0-1.72.77-2.65.94s-4.54.18-4.72-2.13a3.63,3.63,0,0,1,.18-1.08c5.88,1.62,15.68-.38,16.78-4.95s-5.53-10.73-8.09-12.95a23.17,23.17,0,0,1,3,.26,23.63,23.63,0,0,1,1.85,1.5c2.36,2.14,5,4.48,6.46,7.33,1.29,2.44,2.91,5.36,3.06,8.19"/><path class="cls-7" d="M189.39,358.6c-.13-.23-.24-.45-.33-.63l.33.63"/><path class="cls-5" d="M168.11,366.4a2,2,0,0,0,.13.57,15.75,15.75,0,0,1-1.57.58,46.89,46.89,0,0,1-8.32,2.24,27.87,27.87,0,0,1-7.35.29c-2.3-.25-4.62-.72-6.89-1.18a12.89,12.89,0,0,1-3.81-1.18,3.31,3.31,0,0,1-.9-.76,3.6,3.6,0,0,1-.29-.5,3.29,3.29,0,0,0-.75-.84,11,11,0,0,1-2.38-3.11,3.33,3.33,0,0,1-.43-1.5c0-.11.16-.76.16-.76,3.31,2,8.45,4.45,17.47,5.55a44,44,0,0,0,11.07-.05,1.86,1.86,0,0,1,0-.58,2.51,2.51,0,0,1-1.63-3.2l-.35-.28c-1.93-1.59-1-4.14-1-4.14a9.3,9.3,0,0,1-1.16-1.37,3.28,3.28,0,0,1-.3-2.49,3.13,3.13,0,0,1,2.55-2.06,3.27,3.27,0,0,0,.34,2.29,10,10,0,0,0,1.16,1.37s-1,2.55,1,4.14c.09.07.14.1.35.28a2.53,2.53,0,0,0,1.63,3.2,2.3,2.3,0,0,0,1.45,2.41,3.69,3.69,0,0,0-.19,1.08"/><path class="cls-5" d="M203.6,275.83a22.26,22.26,0,0,1-4.64,9.43,12.56,12.56,0,0,1-7.06,4.2l1.21-1.78a28.39,28.39,0,0,0,3.37-2.68,24.73,24.73,0,0,0,6-10l1.13.83"/><path class="cls-10" d="M136,276.77h-30.4a1.05,1.05,0,0,1-1.06-1.06v-30.4a1.06,1.06,0,0,1,1.06-1.06H136a1.06,1.06,0,0,1,1.06,1.06v30.4a1.05,1.05,0,0,1-1.06,1.06"/><path class="cls-11" d="M137,245.31v30.41a1.05,1.05,0,0,1-1.06,1h-30.4a1.06,1.06,0,0,1-1.06-1v-.1h29.41a1.06,1.06,0,0,0,1.06-1.05V244.25h1a1.06,1.06,0,0,1,1.06,1.06"/><rect class="cls-8" x="107.6" y="247.3" width="10.17" height="5.89"/><path class="cls-4" d="M157.43,325.13c0,4.51-2.38,8.45-4.13,7.88-3.07-1-1.27-12.32-3.84-18.33-3-6.95-6.82-9.56-7.06-9.72-1.24-4-2.66-7.86-3.94-11.8,2.49.24,6.32,3,9.69,6l.27.28c5.85,6.1,9.08,17.33,9,25.68"/><path class="cls-3" d="M157.43,325.13c0,4.51-2.38,8.45-4.13,7.88-3.07-1-1.27-12.32-3.84-18.33-2.76-6.45-6.27-9.13-7-9.6l-.1-.08c-1.24-4-2.67-7.9-3.95-11.84a3.74,3.74,0,0,1,.39,0c2.49.48,6.1,3.12,9.3,6l.27.28c5.85,6.1,9.08,17.33,9,25.68"/><path class="cls-5" d="M129.73,334.7a21.6,21.6,0,0,1-1.87-2.26c.73-.57,1.58-2.47.14-8.77.19.27,3.9,5.84,1.73,11"/></g></g></svg>