<svg width="120" height="32" viewBox="0 0 120 32" fill="none" xmlns="http://www.w3.org/2000/svg">
<path d="M28.6253 0H29.9203C30.7291 0.303798 31.4582 0.94557 31.4848 1.86835C31.7051 4.26076 31.5114 6.67215 31.5722 9.07215C33.076 9.13291 34.7051 8.82152 36.1101 9.46329C37.6291 10.3443 37.2646 12.7633 35.6468 13.3063C34.3025 13.557 32.9241 13.4165 31.5646 13.4316C31.5912 16.557 31.5494 19.6861 31.576 22.8114C31.4886 24.9646 33.1291 26.9354 35.1304 27.5658C36.3228 27.938 38.0051 27.6114 38.6544 28.9633C39.3342 30.0152 38.5861 31.1392 37.8418 31.8987H34.6747C31.519 31.1962 28.8114 28.781 27.7481 25.7317C27.1633 24.0608 27.2127 22.2646 27.2127 20.5215C27.243 14.438 27.1861 8.35823 27.2355 2.27848C27.1443 1.27215 27.8355 0.501266 28.6253 0Z" fill="black"/>
<path d="M20.2823 2.10757C21.862 1.47339 23.7608 2.85947 23.4874 4.57593C23.4988 6.47086 20.9355 7.47719 19.576 6.22023C18.1443 5.15314 18.5772 2.63922 20.2823 2.10757Z" fill="black"/>
<path d="M3.15949 9.97595C6.61139 7.57975 12.2354 8.35823 14.1873 12.3152C15.0911 14.1114 12.6987 15.976 11.0582 15.0722C9.88102 14.3886 9.20127 12.6949 7.59874 12.9494C5.96582 12.8013 4.43544 14.5671 5.19874 16.1354C5.76456 17.3582 7.16582 17.6316 8.38481 17.6468C11.3506 17.7418 14.1152 19.7354 15.2051 22.481C15.9114 24.2924 15.6684 26.3772 14.7949 28.0861C13.6899 30.1139 11.5709 31.4241 9.35317 31.8987H5.61646C3.18228 31.4089 1.0443 29.7532 0 27.4937V26.3506C0.577215 25.1582 1.92911 24.4671 3.21646 24.938C4.52658 25.5722 4.94431 27.3722 6.4557 27.7101C8.41139 28.3785 11.0506 26.9127 10.8532 24.6797C10.8114 22.8646 8.90127 21.8013 7.25317 21.8354C3.93418 21.862 0.736709 19.2949 0.3 15.9646C0.0417722 13.6443 1.18861 11.2329 3.15949 9.97595Z" fill="black"/>
<path d="M19.0405 11.0051C18.9038 9.78986 20.0658 8.70758 21.262 8.84049C22.5532 8.84049 23.438 10.1658 23.2861 11.381C23.2937 17.3354 23.2709 23.2899 23.2937 29.2405C23.419 30.2848 22.9747 31.238 22.181 31.8987H20.0924C19.5608 31.4127 18.9646 30.843 19.0519 30.0456C19.0215 23.7 19.0405 17.3506 19.0405 11.0051Z" fill="black"/>
<path d="M39.6874 11.0279C39.5848 9.85826 40.6139 8.70763 41.8139 8.80636C42.8507 8.69244 43.4279 9.65699 44.0317 10.314C45.7405 9.31902 47.719 8.6013 49.7241 8.90889C51.0532 9.25826 51.8393 11.0583 50.9203 12.1823C50.2633 13.2494 48.881 13.0329 47.8329 13.3102C45.6266 13.7697 43.9177 15.9608 43.9367 18.2089C43.8912 22.1469 43.9937 26.0924 43.9102 30.0304C43.9595 30.8165 43.3785 31.3861 42.8734 31.8988H40.7886C40.0557 31.3633 39.5621 30.5621 39.676 29.6279C39.6912 23.4266 39.6684 17.2254 39.6874 11.0279Z" fill="black"/>
<path d="M54.6342 9.40256C55.7658 8.138 58.238 8.92028 58.2684 10.6785C58.3899 14.7114 58.257 18.7557 58.3101 22.7924C58.2836 24.319 59.081 25.7734 60.2658 26.7038C62.2481 28.3557 65.2595 28.0975 67.2266 26.5519C68.4152 25.7621 68.7494 24.2962 69.5393 23.1912C70.6291 22.0861 72.8013 22.7507 73.0291 24.2962C73.1582 26.195 73.0975 28.1013 73.0709 30C73.1507 30.7975 72.5507 31.3747 72.0456 31.8988H69.8507C69.4823 31.4659 69.1443 31.0102 68.8025 30.5583C67.781 31.1469 66.7025 31.6595 65.5367 31.8988H61.5152C57.4861 31.0709 54.1595 27.3456 54.0456 23.1912C53.9544 19.519 54.0494 15.8393 53.9962 12.1671C54.0494 11.2329 53.8557 10.1013 54.6342 9.40256Z" fill="black"/>
<path d="M69.1481 9.91897C69.9988 8.18732 72.5545 8.57846 73.257 10.2418C76.5608 8.17213 81.1899 8.23289 84.2772 10.6937C86.4988 12.3721 87.9608 15.0418 87.9912 17.8443C88.0291 21.7785 88.0102 25.7088 88.0064 29.6392C88.1089 30.562 87.6 31.3291 86.9279 31.8987H84.8962C84.3 31.4354 83.7114 30.8202 83.7798 30C83.7 25.9633 83.8291 21.9228 83.7418 17.8861C83.6317 14.9658 80.7038 12.6569 77.8443 13.0405C75.5203 13.1734 73.5874 14.943 73.0101 17.1607C72.6532 18.7025 70.4469 19.0519 69.4747 17.9088C68.6962 17.0734 68.9962 15.8354 68.9279 14.8025C69.0266 13.181 68.7114 11.4949 69.1481 9.91897Z" fill="black"/>
<path d="M97.1886 9.09875C99.8507 8.43419 102.756 8.78735 105.106 10.2418C105.623 9.58482 106.128 8.66963 107.115 8.79495C108.372 8.60887 109.519 9.75571 109.443 11.0013C109.473 17.2139 109.454 23.4304 109.454 29.6469C109.546 30.562 108.98 31.3101 108.349 31.8988H106.185C105.82 31.4696 105.479 31.0253 105.137 30.5772C104.115 31.1355 103.056 31.6405 101.913 31.8988H97.7621C93.8734 31.0405 90.6836 27.5544 90.3722 23.5557C90.2317 21.5241 90.2507 19.481 90.3532 17.4456C90.6038 13.6025 93.5127 10.1582 97.1886 9.09875ZM97.7393 13.4393C96.395 14.062 95.2823 15.2468 94.8266 16.6671C94.4317 18.4215 94.6747 20.2443 94.6064 22.0291C94.5076 23.6317 95.0051 25.3063 96.2317 26.3962C98.2747 28.4658 102.015 28.2836 103.853 26.0355C105.858 23.9203 104.905 20.7987 105.118 18.1937C105.319 14.5253 100.99 11.9203 97.7393 13.4393Z" fill="black"/>
<path d="M113.256 28.0785C113.275 26.1722 115.003 24.3304 116.973 24.5544C118.538 24.7063 119.639 26.0924 120 27.5355V29.0848C119.689 30.3076 118.922 31.4127 117.725 31.8987H115.568C114.053 31.3063 113.115 29.681 113.256 28.0785Z" fill="#FED357"/>
</svg>
