<svg width="81" height="23" viewBox="0 0 81 23" fill="none" xmlns="http://www.w3.org/2000/svg">
<path d="M19.3223 0.784363H20.1856C20.7248 0.986894 21.2109 1.41474 21.2286 2.02993C21.3754 3.62487 21.2463 5.23246 21.2868 6.83247C22.2894 6.87297 23.3754 6.66538 24.3121 7.09323C25.3248 7.68057 25.0818 9.29323 24.0033 9.65525C23.1071 9.82234 22.1881 9.72867 21.2818 9.7388C21.2995 11.8223 21.2716 13.9084 21.2894 15.992C21.2311 17.4274 22.3248 18.7413 23.659 19.1616C24.4539 19.4097 25.5754 19.192 26.0083 20.0932C26.4615 20.7945 25.9628 21.5439 25.4666 22.0502H23.3552C21.2514 21.5818 19.4463 19.9717 18.7375 17.9388C18.3476 16.8249 18.3805 15.6274 18.3805 14.4654C18.4007 10.4097 18.3628 6.35652 18.3957 2.30335C18.3349 1.63246 18.7957 1.11854 19.3223 0.784363Z" fill="white"/>
<path d="M13.7602 2.18947C14.8134 1.76669 16.0792 2.69074 15.8969 3.83504C15.9045 5.09833 14.1957 5.76922 13.2893 4.93124C12.3349 4.21985 12.6235 2.5439 13.7602 2.18947Z" fill="white"/>
<path d="M2.34504 7.435C4.6463 5.83753 8.39567 6.35651 9.69694 8.99449C10.2995 10.192 8.70453 11.435 7.61086 10.8325C6.82605 10.3768 6.37289 9.24765 5.30453 9.41727C4.21592 9.31854 3.19567 10.4958 3.70453 11.5413C4.08175 12.3565 5.01592 12.5388 5.82858 12.5489C7.8058 12.6122 9.64884 13.9413 10.3754 15.7717C10.8463 16.9793 10.6843 18.3692 10.102 19.5084C9.36529 20.8603 7.95263 21.7337 6.47415 22.0502H3.98301C2.36023 21.7236 0.934911 20.6198 0.238708 19.1135L0.238708 18.3515C0.623519 17.5565 1.52478 17.0958 2.38301 17.4097C3.25643 17.8325 3.53491 19.0325 4.54251 19.2578C5.8463 19.7034 7.6058 18.7261 7.47415 17.2375C7.44631 16.0274 6.17289 15.3185 5.07415 15.3413C2.86149 15.359 0.729848 13.6477 0.438709 11.4274C0.266557 9.88057 1.03111 8.27297 2.34504 7.435Z" fill="white"/>
<path d="M12.9324 8.12108C12.8412 7.31096 13.6159 6.58944 14.4134 6.67805C15.2742 6.67805 15.864 7.56159 15.7628 8.37172C15.7678 12.3413 15.7526 16.311 15.7678 20.278C15.8514 20.9743 15.5552 21.6097 15.0261 22.0502H13.6337C13.2792 21.7262 12.8818 21.3464 12.94 20.8148C12.9197 16.5844 12.9324 12.3515 12.9324 8.12108Z" fill="white"/>
<path d="M26.6969 8.13628C26.6286 7.35654 27.3147 6.58945 28.1147 6.65527C28.8058 6.57932 29.1906 7.22236 29.5931 7.66033C30.7324 6.99704 32.0514 6.51856 33.3881 6.72362C34.2742 6.95654 34.7982 8.15654 34.1855 8.9059C33.7476 9.6173 32.8261 9.47299 32.1273 9.6578C30.6564 9.96413 29.5172 11.4249 29.5298 12.9236C29.4995 15.5489 29.5678 18.1793 29.5121 20.8046C29.545 21.3287 29.1577 21.7084 28.821 22.0502H27.4311C26.9425 21.6932 26.6134 21.1591 26.6893 20.5363C26.6995 16.4021 26.6843 12.2679 26.6969 8.13628Z" fill="white"/>
<path d="M36.6615 7.05273C37.4159 6.2097 39.064 6.73122 39.0843 7.90337C39.1653 10.592 39.0767 13.2882 39.1121 15.9793C39.0944 16.997 39.6261 17.9667 40.4159 18.5869C41.7375 19.6882 43.7451 19.516 45.0564 18.4857C45.8489 17.9591 46.0716 16.9819 46.5982 16.2451C47.3248 15.5084 48.7729 15.9515 48.9248 16.9819C49.0109 18.2477 48.9704 19.5186 48.9527 20.7844C49.0058 21.316 48.6058 21.7008 48.2691 22.0502H46.8058C46.5602 21.7616 46.3349 21.4578 46.1071 21.1565C45.4261 21.5489 44.7071 21.8907 43.9299 22.0502H41.2489C38.5628 21.4983 36.3451 19.0148 36.2691 16.2451C36.2083 13.797 36.2716 11.3439 36.2362 8.89577C36.2716 8.27299 36.1425 7.51856 36.6615 7.05273Z" fill="white"/>
<path d="M46.3375 7.39705C46.9046 6.24262 48.6084 6.50338 49.0767 7.61224C51.2792 6.23249 54.3653 6.273 56.4235 7.91351C57.9046 9.03249 58.8792 10.8122 58.8995 12.6806C58.9248 15.3034 58.9122 17.9236 58.9096 20.5439C58.978 21.1591 58.6387 21.6705 58.1906 22.0502H56.8362C56.4387 21.7414 56.0463 21.3312 56.0919 20.7844C56.0387 18.0933 56.1248 15.3996 56.0666 12.7084C55.9932 10.7616 54.0413 9.22237 52.1349 9.47806C50.5856 9.56667 49.297 10.7464 48.9121 12.2249C48.6742 13.2527 47.2033 13.4857 46.5552 12.7236C46.0362 12.1667 46.2362 11.3414 46.1906 10.6527C46.2564 9.57173 46.0463 8.44768 46.3375 7.39705Z" fill="white"/>
<path d="M65.0311 6.85021C66.8058 6.40718 68.7425 6.64262 70.3096 7.61224C70.6539 7.17426 70.9906 6.56414 71.6489 6.64768C72.4868 6.52363 73.2514 7.28819 73.2008 8.11857C73.221 12.2603 73.2084 16.4046 73.2084 20.549C73.2691 21.1591 72.8919 21.6578 72.4716 22.0502H71.0286C70.7856 21.7641 70.5577 21.4679 70.3299 21.1692C69.6489 21.5414 68.9425 21.8781 68.1805 22.0502H65.4134C62.821 21.4781 60.6944 19.154 60.4868 16.4882C60.3932 15.1338 60.4058 13.7717 60.4742 12.4148C60.6413 9.85275 62.5805 7.55654 65.0311 6.85021ZM65.3982 9.74389C64.502 10.1591 63.7602 10.9489 63.4565 11.8958C63.1932 13.0654 63.3552 14.2806 63.3096 15.4705C63.2438 16.5388 63.5754 17.6553 64.3932 18.3819C65.7552 19.7616 68.2489 19.6401 69.4742 18.1414C70.8109 16.7312 70.1754 14.6502 70.3172 12.9135C70.4514 10.4679 67.5653 8.73123 65.3982 9.74389Z" fill="white"/>
<path d="M75.7425 19.5033C75.7552 18.2325 76.9071 17.0046 78.221 17.154C79.264 17.2552 79.9982 18.1793 80.2387 19.1413V20.1742C80.0311 20.9894 79.5197 21.7261 78.7222 22.0502H77.2843C76.2741 21.6552 75.6488 20.5717 75.7425 19.5033Z" fill="#FED357"/>
</svg>
