<svg width="115" height="16" viewBox="0 0 115 16" fill="none" xmlns="http://www.w3.org/2000/svg">
<path d="M5.05601 12.192C3.56267 12.192 2.45334 11.6907 1.72801 10.688C1.01334 9.67467 0.656006 8.25067 0.656006 6.416C0.656006 4.58134 1.01334 3.16267 1.72801 2.16C2.45334 1.14667 3.56267 0.640003 5.05601 0.640003C5.63201 0.640003 6.13867 0.720003 6.57601 0.880003C7.02401 1.02934 7.40801 1.24267 7.72801 1.52C8.04801 1.79734 8.30934 2.13334 8.51201 2.528C8.72534 2.92267 8.89067 3.36534 9.00801 3.856L6.76801 4.4C6.70401 4.13334 6.62934 3.888 6.54401 3.664C6.45867 3.44 6.34667 3.248 6.20801 3.088C6.08001 2.928 5.91467 2.80534 5.71201 2.72C5.52001 2.624 5.28534 2.576 5.00801 2.576C4.35734 2.576 3.89334 2.832 3.61601 3.344C3.34934 3.84534 3.21601 4.544 3.21601 5.44V7.392C3.21601 8.288 3.34934 8.992 3.61601 9.504C3.89334 10.0053 4.35734 10.256 5.00801 10.256C5.56267 10.256 5.96267 10.0853 6.20801 9.744C6.46401 9.40267 6.65067 8.96534 6.76801 8.432L9.00801 8.976C8.89067 9.46667 8.72534 9.90934 8.51201 10.304C8.30934 10.6987 8.04801 11.04 7.72801 11.328C7.40801 11.6053 7.02401 11.8187 6.57601 11.968C6.13867 12.1173 5.63201 12.192 5.05601 12.192Z" fill="black"/>
<path d="M14.3938 12.192C13.7538 12.192 13.1778 12.096 12.6658 11.904C12.1538 11.7013 11.7164 11.4133 11.3538 11.04C11.0018 10.6667 10.7298 10.2133 10.5378 9.68C10.3458 9.14667 10.2498 8.544 10.2498 7.872C10.2498 7.2 10.3458 6.59734 10.5378 6.064C10.7298 5.53067 11.0018 5.07734 11.3538 4.704C11.7164 4.33067 12.1538 4.048 12.6658 3.856C13.1778 3.65334 13.7538 3.552 14.3938 3.552C15.0338 3.552 15.6098 3.65334 16.1218 3.856C16.6338 4.048 17.0658 4.33067 17.4178 4.704C17.7804 5.07734 18.0578 5.53067 18.2498 6.064C18.4418 6.59734 18.5378 7.2 18.5378 7.872C18.5378 8.544 18.4418 9.14667 18.2498 9.68C18.0578 10.2133 17.7804 10.6667 17.4178 11.04C17.0658 11.4133 16.6338 11.7013 16.1218 11.904C15.6098 12.096 15.0338 12.192 14.3938 12.192ZM14.3938 10.432C14.9271 10.432 15.3431 10.2667 15.6418 9.936C15.9404 9.60534 16.0898 9.136 16.0898 8.528V7.216C16.0898 6.608 15.9404 6.13867 15.6418 5.808C15.3431 5.47734 14.9271 5.312 14.3938 5.312C13.8604 5.312 13.4444 5.47734 13.1458 5.808C12.8471 6.13867 12.6978 6.608 12.6978 7.216V8.528C12.6978 9.136 12.8471 9.60534 13.1458 9.936C13.4444 10.2667 13.8604 10.432 14.3938 10.432Z" fill="black"/>
<path d="M19.6675 12V3.744H21.5715V4.96H21.6835C21.8115 4.576 21.9928 4.24534 22.2275 3.968C22.4728 3.69067 22.8142 3.552 23.2515 3.552C24.0515 3.552 24.5422 4.02134 24.7235 4.96H24.8195C24.8835 4.768 24.9635 4.58667 25.0595 4.416C25.1555 4.24534 25.2728 4.096 25.4115 3.968C25.5502 3.84 25.7155 3.73867 25.9075 3.664C26.0995 3.58934 26.3235 3.552 26.5795 3.552C27.7315 3.552 28.3075 4.4 28.3075 6.096V12H26.4035V6.336C26.4035 5.952 26.3342 5.68534 26.1955 5.536C26.0675 5.376 25.8968 5.296 25.6835 5.296C25.4808 5.296 25.3048 5.36534 25.1555 5.504C25.0168 5.632 24.9475 5.83467 24.9475 6.112V12H23.0275V6.336C23.0275 5.952 22.9635 5.68534 22.8355 5.536C22.7182 5.376 22.5528 5.296 22.3395 5.296C22.1262 5.296 21.9448 5.36534 21.7955 5.504C21.6462 5.632 21.5715 5.83467 21.5715 6.112V12H19.6675Z" fill="black"/>
<path d="M29.7253 3.744H32.0933V5.248H32.2053C32.4079 4.75734 32.7013 4.352 33.0853 4.032C33.4693 3.712 33.9919 3.552 34.6533 3.552C35.1119 3.552 35.5279 3.63734 35.9013 3.808C36.2853 3.97867 36.6106 4.24 36.8773 4.592C37.1546 4.944 37.3679 5.392 37.5173 5.936C37.6773 6.48 37.7573 7.12534 37.7573 7.872C37.7573 8.61867 37.6773 9.264 37.5173 9.808C37.3679 10.352 37.1546 10.8 36.8773 11.152C36.6106 11.504 36.2853 11.7653 35.9013 11.936C35.5279 12.1067 35.1119 12.192 34.6533 12.192C33.9919 12.192 33.4693 12.0373 33.0853 11.728C32.7013 11.408 32.4079 10.9973 32.2053 10.496H32.0933V15.2H29.7253V3.744ZM33.6293 10.352C34.1626 10.352 34.5733 10.192 34.8613 9.872C35.1493 9.54134 35.2933 9.088 35.2933 8.512V7.232C35.2933 6.656 35.1493 6.208 34.8613 5.888C34.5733 5.55734 34.1626 5.392 33.6293 5.392C33.2133 5.392 32.8506 5.49334 32.5413 5.696C32.2426 5.89867 32.0933 6.21867 32.0933 6.656V9.088C32.0933 9.52534 32.2426 9.84534 32.5413 10.048C32.8506 10.2507 33.2133 10.352 33.6293 10.352Z" fill="black"/>
<path d="M46.167 12C45.6763 12 45.2817 11.8773 44.983 11.632C44.6843 11.376 44.5083 11.0133 44.455 10.544H44.375C44.2257 11.088 43.927 11.4987 43.479 11.776C43.0417 12.0533 42.503 12.192 41.863 12.192C41.063 12.192 40.4177 11.9787 39.927 11.552C39.447 11.1147 39.207 10.5067 39.207 9.728C39.207 8.864 39.5217 8.224 40.151 7.808C40.7803 7.392 41.703 7.184 42.919 7.184H44.247V6.768C44.247 6.27734 44.1297 5.90934 43.895 5.664C43.671 5.408 43.287 5.28 42.743 5.28C42.2417 5.28 41.8363 5.376 41.527 5.568C41.2177 5.76 40.951 6.01067 40.727 6.32L39.431 5.168C39.7083 4.69867 40.1403 4.31467 40.727 4.016C41.3243 3.70667 42.087 3.552 43.015 3.552C44.1457 3.552 45.0257 3.81334 45.655 4.336C46.295 4.848 46.615 5.62667 46.615 6.672V10.288H47.527V12H46.167ZM42.759 10.64C43.175 10.64 43.527 10.5387 43.815 10.336C44.103 10.1333 44.247 9.84 44.247 9.456V8.464H42.983C42.0123 8.464 41.527 8.78934 41.527 9.44V9.76C41.527 10.048 41.639 10.2667 41.863 10.416C42.087 10.5653 42.3857 10.64 42.759 10.64Z" fill="black"/>
<path d="M49.0088 12V3.744H51.3768V5.248H51.4728C51.5688 5.01334 51.6861 4.79467 51.8248 4.592C51.9634 4.38934 52.1288 4.21334 52.3208 4.064C52.5234 3.904 52.7528 3.78134 53.0088 3.696C53.2754 3.6 53.5741 3.552 53.9048 3.552C54.2994 3.552 54.6621 3.62134 54.9928 3.76C55.3234 3.888 55.6061 4.08534 55.8408 4.352C56.0754 4.61867 56.2568 4.944 56.3848 5.328C56.5234 5.712 56.5928 6.15467 56.5928 6.656V12H54.2248V6.976C54.2248 5.90934 53.7608 5.376 52.8328 5.376C52.6514 5.376 52.4701 5.40267 52.2888 5.456C52.1181 5.49867 51.9634 5.57334 51.8248 5.68C51.6861 5.776 51.5741 5.89867 51.4888 6.048C51.4141 6.19734 51.3768 6.37334 51.3768 6.576V12H49.0088Z" fill="black"/>
<path d="M64.4425 3.744H66.8585L62.9705 13.328C62.7252 13.936 62.3998 14.4 61.9945 14.72C61.5892 15.04 61.0345 15.2 60.3305 15.2H58.6985V13.36H60.6825L61.1945 11.952L57.8665 3.744H60.4105L61.6105 7.216L62.3625 9.616H62.4905L63.2105 7.216L64.4425 3.744Z" fill="black"/>
<path d="M77.838 10.16H80.366V2H77.838V0.160004L82.734 0.160004V10.16H85.262V12H77.838V10.16Z" fill="black"/>
<path d="M91.1438 12.192C90.5038 12.192 89.9278 12.096 89.4158 11.904C88.9038 11.7013 88.4664 11.4133 88.1038 11.04C87.7518 10.6667 87.4798 10.2133 87.2878 9.68C87.0958 9.14667 86.9998 8.544 86.9998 7.872C86.9998 7.2 87.0958 6.59734 87.2878 6.064C87.4798 5.53067 87.7518 5.07734 88.1038 4.704C88.4664 4.33067 88.9038 4.048 89.4158 3.856C89.9278 3.65334 90.5038 3.552 91.1438 3.552C91.7838 3.552 92.3598 3.65334 92.8718 3.856C93.3838 4.048 93.8158 4.33067 94.1678 4.704C94.5304 5.07734 94.8078 5.53067 94.9998 6.064C95.1918 6.59734 95.2878 7.2 95.2878 7.872C95.2878 8.544 95.1918 9.14667 94.9998 9.68C94.8078 10.2133 94.5304 10.6667 94.1678 11.04C93.8158 11.4133 93.3838 11.7013 92.8718 11.904C92.3598 12.096 91.7838 12.192 91.1438 12.192ZM91.1438 10.432C91.6771 10.432 92.0931 10.2667 92.3918 9.936C92.6904 9.60534 92.8398 9.136 92.8398 8.528V7.216C92.8398 6.608 92.6904 6.13867 92.3918 5.808C92.0931 5.47734 91.6771 5.312 91.1438 5.312C90.6104 5.312 90.1944 5.47734 89.8958 5.808C89.5971 6.13867 89.4478 6.608 89.4478 7.216V8.528C89.4478 9.136 89.5971 9.60534 89.8958 9.936C90.1944 10.2667 90.6104 10.432 91.1438 10.432Z" fill="black"/>
<path d="M105.266 12.832C105.266 13.7067 104.898 14.352 104.162 14.768C103.426 15.184 102.268 15.392 100.69 15.392C99.9002 15.392 99.2495 15.344 98.7375 15.248C98.2255 15.1627 97.8148 15.0347 97.5055 14.864C97.2068 14.6933 96.9935 14.4907 96.8655 14.256C96.7482 14.0213 96.6895 13.7653 96.6895 13.488C96.6895 13.0187 96.8282 12.6613 97.1055 12.416C97.3828 12.1813 97.7722 12 98.2735 11.872V11.776C97.9215 11.6693 97.6388 11.52 97.4255 11.328C97.2228 11.1253 97.1215 10.8427 97.1215 10.48C97.1215 10.0747 97.2548 9.776 97.5215 9.584C97.7988 9.392 98.1615 9.24267 98.6095 9.136V9.04C98.1188 8.80534 97.7348 8.47467 97.4575 8.048C97.1908 7.62134 97.0575 7.104 97.0575 6.496C97.0575 6.016 97.1428 5.59467 97.3135 5.232C97.4842 4.85867 97.7242 4.54934 98.0335 4.304C98.3535 4.05867 98.7322 3.872 99.1695 3.744C99.6068 3.616 100.098 3.552 100.642 3.552C101.164 3.552 101.65 3.61067 102.098 3.728V3.28C102.098 2.96 102.21 2.69334 102.434 2.48C102.658 2.26667 102.967 2.16 103.362 2.16L104.818 2.16V3.888L102.834 3.888V4.032C103.282 4.26667 103.628 4.592 103.874 5.008C104.13 5.41334 104.258 5.90934 104.258 6.496C104.258 6.976 104.172 7.39734 104.002 7.76C103.831 8.12267 103.586 8.432 103.266 8.688C102.946 8.93334 102.562 9.12 102.114 9.248C101.676 9.376 101.186 9.44 100.642 9.44C100.396 9.44 100.162 9.42934 99.9375 9.408C99.7135 9.376 99.5002 9.33334 99.2975 9.28C99.1802 9.344 99.0788 9.424 98.9935 9.52C98.9188 9.616 98.8815 9.73867 98.8815 9.888C98.8815 10.016 98.9135 10.1173 98.9775 10.192C99.0415 10.2667 99.1268 10.3253 99.2335 10.368C99.3508 10.4 99.4842 10.4213 99.6335 10.432C99.7828 10.4427 99.9375 10.448 100.098 10.448H101.986C102.572 10.448 103.074 10.5067 103.49 10.624C103.906 10.7413 104.247 10.9067 104.514 11.12C104.78 11.3333 104.972 11.584 105.09 11.872C105.207 12.16 105.266 12.48 105.266 12.832ZM103.026 13.008C103.026 12.7947 102.94 12.624 102.77 12.496C102.599 12.3787 102.274 12.32 101.794 12.32H98.9615C98.7482 12.5013 98.6415 12.7253 98.6415 12.992C98.6415 13.248 98.7482 13.456 98.9615 13.616C99.1855 13.7867 99.5588 13.872 100.082 13.872H101.474C102.018 13.872 102.412 13.7973 102.658 13.648C102.903 13.4987 103.026 13.2853 103.026 13.008ZM100.642 7.936C101.122 7.936 101.468 7.81867 101.682 7.584C101.906 7.34934 102.018 7.05067 102.018 6.688V6.304C102.018 5.94134 101.906 5.64267 101.682 5.408C101.468 5.17334 101.122 5.056 100.642 5.056C100.172 5.056 99.8308 5.17334 99.6175 5.408C99.4042 5.64267 99.2975 5.94134 99.2975 6.304V6.688C99.2975 7.05067 99.4042 7.34934 99.6175 7.584C99.8308 7.81867 100.172 7.936 100.642 7.936Z" fill="black"/>
<path d="M110.331 12.192C109.691 12.192 109.115 12.096 108.603 11.904C108.091 11.7013 107.654 11.4133 107.291 11.04C106.939 10.6667 106.667 10.2133 106.475 9.68C106.283 9.14667 106.187 8.544 106.187 7.872C106.187 7.2 106.283 6.59734 106.475 6.064C106.667 5.53067 106.939 5.07734 107.291 4.704C107.654 4.33067 108.091 4.048 108.603 3.856C109.115 3.65334 109.691 3.552 110.331 3.552C110.971 3.552 111.547 3.65334 112.059 3.856C112.571 4.048 113.003 4.33067 113.355 4.704C113.718 5.07734 113.995 5.53067 114.187 6.064C114.379 6.59734 114.475 7.2 114.475 7.872C114.475 8.544 114.379 9.14667 114.187 9.68C113.995 10.2133 113.718 10.6667 113.355 11.04C113.003 11.4133 112.571 11.7013 112.059 11.904C111.547 12.096 110.971 12.192 110.331 12.192ZM110.331 10.432C110.865 10.432 111.281 10.2667 111.579 9.936C111.878 9.60534 112.027 9.136 112.027 8.528V7.216C112.027 6.608 111.878 6.13867 111.579 5.808C111.281 5.47734 110.865 5.312 110.331 5.312C109.798 5.312 109.382 5.47734 109.083 5.808C108.785 6.13867 108.635 6.608 108.635 7.216V8.528C108.635 9.136 108.785 9.60534 109.083 9.936C109.382 10.2667 109.798 10.432 110.331 10.432Z" fill="black"/>
</svg>
