<svg fill="none" xmlns="http://www.w3.org/2000/svg" viewBox="0 0 519 470">
  <path
    d="M96.44 1.85c2.46-.49 4.96-.81 7.47-.85h244.12c24.88-.51 50.14 3.16 73.17 12.85 3.83 1.9 8.75 3.05 10.75 7.25 1.36 3.84-1.73 7.18-4.42 9.47-16.78 16.2-33.41 32.56-50.17 48.78-9.03 7.36-20.5 12.32-32.29 12.04-18.02-.03-36.04 0-54.06-.02-4.75-.03-9.74 1-13.49 4.08-3.4 2.76-5.18 7.21-5.03 11.54.03 20.35.01 40.7.01 61.05-.08 6.48-1.55 13.44-6.22 18.23-23.73 23.62-47.91 46.77-71.99 70.02-3.3 3.06-7.73 5.41-12.33 5.08-2.54-.35-3.16-3.18-3.02-5.31 0-49.72-.01-99.44 0-149.17.12-4.41-1.59-8.97-5.06-11.79-3.3-2.66-7.65-3.66-11.81-3.73-51.35 0-102.7.02-154.04 0-2.8-.03-6.52-1.24-7.02-4.41-.18-3.12 1.74-5.93 3.9-8 22.72-21.95 45.35-43.98 68.08-65.92 6.72-5.59 14.91-9.4 23.45-11.19ZM450.47 38.65c4.96-1.48 10.32-.23 14.77 2.2 6.71 3.6 11.69 9.52 16.63 15.15 22.74 27.17 37.46 62.18 36.07 97.99-1.22 37.93-17.66 75.44-45.93 100.98-26.19 24.03-60.76 36.97-95.51 42.19-29.8 4.87-60.06 2.68-90.1 3.29-7.57.34-13.63 7.18-13.81 14.62-.06 16.64-.01 33.29-.03 49.93-.04 5.71.4 11.57-1.4 17.09-3.09 10.03-10.19 18.27-18.16 24.84-21.04 20.01-41.79 40.34-62.9 60.27-3.59 3.76-11.23 1.41-11.08-4.11-.06-48.68.01-97.36-.03-146.05-.39-11.83 5.65-22.98 13.66-31.33 19.14-18.55 38.26-37.11 57.4-55.66 4.15-3.87 7.83-8.33 12.72-11.33 9.51-6.1 20.92-9.31 32.22-8.91 22.69.01 45.37-.01 68.06.01 15.63-.24 31.67-5.57 42.83-16.84 6.4-6.39 11.38-14.18 14.8-22.53 4.28-13.11 4.39-27.76-.63-40.68-3.73-9.66-10.33-18.03-18.35-24.5-2.91-2.44-6.62-4.35-8.11-8.06-1.23-2.65-.25-5.83 1.86-7.74 14.52-14.12 29.08-28.21 43.61-42.32 3.49-3.19 6.54-7.38 11.41-8.5Z"
    fill="#fff"
  />
</svg>
