<svg width="519" height="470" viewBox="0 0 519 470" fill="none" xmlns="http://www.w3.org/2000/svg">
<path d="M96.44 1.85012C98.9 1.36011 101.4 1.04012 103.91 1.00012C185.28 1.00012 266.66 1.00012 348.03 1.00012C372.91 0.490117 398.17 4.16012 421.2 13.8501C425.03 15.7501 429.95 16.9001 431.95 21.1001C433.31 24.9401 430.22 28.2801 427.53 30.5701C410.75 46.7701 394.12 63.1301 377.36 79.3501C368.33 86.7101 356.86 91.6701 345.07 91.3901C327.05 91.3601 309.03 91.3901 291.01 91.3701C286.26 91.3401 281.27 92.3701 277.52 95.4501C274.12 98.2101 272.34 102.66 272.49 106.99C272.52 127.34 272.5 147.69 272.5 168.04C272.42 174.52 270.95 181.48 266.28 186.27C242.55 209.89 218.37 233.04 194.29 256.29C190.99 259.35 186.56 261.7 181.96 261.37C179.42 261.02 178.8 258.19 178.94 256.06C178.94 206.34 178.93 156.62 178.94 106.89C179.06 102.48 177.35 97.9201 173.88 95.1001C170.58 92.4401 166.23 91.4401 162.07 91.3701C110.72 91.3701 59.37 91.3901 8.03001 91.3701C5.23001 91.3401 1.51001 90.1301 1.01001 86.9601C0.830013 83.8401 2.75001 81.0301 4.91001 78.9601C27.63 57.0101 50.26 34.9801 72.99 13.0401C79.71 7.45012 87.9 3.64011 96.44 1.85012Z" fill="white"/>
<path d="M450.47 38.65C455.43 37.17 460.79 38.42 465.24 40.85C471.95 44.45 476.93 50.37 481.87 56C504.61 83.17 519.33 118.18 517.94 153.99C516.72 191.92 500.28 229.43 472.01 254.97C445.82 279 411.25 291.94 376.5 297.16C346.7 302.03 316.44 299.84 286.4 300.45C278.83 300.79 272.77 307.63 272.59 315.07C272.53 331.71 272.58 348.36 272.56 365C272.52 370.71 272.96 376.57 271.16 382.09C268.07 392.12 260.97 400.36 253 406.93C231.96 426.94 211.21 447.27 190.1 467.2C186.51 470.96 178.87 468.61 179.02 463.09C178.96 414.41 179.03 365.73 178.99 317.04C178.6 305.21 184.64 294.06 192.65 285.71C211.79 267.16 230.91 248.6 250.05 230.05C254.2 226.18 257.88 221.72 262.77 218.72C272.28 212.62 283.69 209.41 294.99 209.81C317.68 209.82 340.36 209.8 363.05 209.82C378.68 209.58 394.72 204.25 405.88 192.98C412.28 186.59 417.26 178.8 420.68 170.45C424.96 157.34 425.07 142.69 420.05 129.77C416.32 120.11 409.72 111.74 401.7 105.27C398.79 102.83 395.08 100.92 393.59 97.2101C392.36 94.5601 393.34 91.38 395.45 89.47C409.97 75.35 424.53 61.26 439.06 47.15C442.55 43.96 445.6 39.77 450.47 38.65Z" fill="white"/>
</svg>
