<svg version="1.1" id="Layer_1" xmlns="http://www.w3.org/2000/svg" xmlns:xlink="http://www.w3.org/1999/xlink" x="0" y="0" viewBox="0 0 800 181" style="enable-background:new 0 0 800 181" xml:space="preserve"><style>.st0{clip-path:url(#SVGID_00000078027129851342211290000006208331269968766135_);fill:url(#SVGID_00000078741083941243932760000008817423887453405318_)}.st1{clip-path:url(#SVGID_00000096776544150861795610000001001373976963121064_);fill:url(#SVGID_00000023970728800998414460000001597772282236044437_)}.st2{clip-path:url(#SVGID_00000118382005536381110680000009183958907110790024_);fill:url(#SVGID_00000024701373028733766390000004368811860107214762_)}.st3{clip-path:url(#SVGID_00000090274805651720451350000000362171838915073455_);fill:url(#SVGID_00000178900676089905487380000007252305344146703796_)}.st4{clip-path:url(#SVGID_00000011713446598151685350000011891721136686087046_);fill:url(#SVGID_00000051342320725214184930000007547405203204579209_)}</style><defs><path id="SVGID_1_" d="M152.8 13.8c-.2.1-.3.2-.5.4l-16.9 16.4c-.2.2-.4.5-.6.8-.9 1.9 1.4 3.4 1.4 3.4 13.6 9.6 7.8 23.8 7.8 23.8-4.2 9.2-11 12.5-18.7 13H99.2s-7.5.3-12.2 5.4l-.1.1-20.1 19.4-.1.1c-.6.5-5 4.5-5.6 10.2v51.4s.1 2.1 2.5 1.9c0 0 .7 0 2-1.3l20.8-19.9.2-.2c.8-.7 6.5-5.3 6.5-11.3v-20s.1-4.6 4.9-5H116.4c49.4-1.4 61.6-33.3 61-52.9-.6-18.8-13.3-31.8-14.4-32.8l-.1-.1c-.5-.5-3.5-3.8-7.1-3.8-1 .1-2 .3-3 1"/></defs><clipPath id="SVGID_00000077295297921891959950000013952762924340370579_"><use xlink:href="#SVGID_1_" style="overflow:visible"/></clipPath><linearGradient id="SVGID_00000008119275117680637740000016196751689217005189_" gradientUnits="userSpaceOnUse" x1="-1117.9265" y1=".6713" x2="-1116.7991" y2=".6713" gradientTransform="scale(818.6281) rotate(-45 -559.3844 -1348.7892)"><stop offset="0" style="stop-color:#147bd1"/><stop offset="1" style="stop-color:#00b8d9"/></linearGradient><path style="clip-path:url(#SVGID_00000077295297921891959950000013952762924340370579_);fill:url(#SVGID_00000008119275117680637740000016196751689217005189_)" d="m-12.8 86.6 132.4-132L252 86.6l-132.4 132z"/><defs><path id="SVGID_00000071521231112671466340000001333663119009816746_" d="M75 .2H35.1c-6 .3-10.3 4-10.3 4L.9 27.2C-1.7 30.7 2.2 31 2.2 31h53.6c5.8.5 5.3 5.6 5.3 5.6v51.1c.1 1.6 1.2 1.6 2.4 1.3 1.1-.3 2.1-.8 2.9-1.6l15.6-15 9.1-8.9c2.5-2.4 2.2-6.9 2.2-6.9V35.8c.6-5 6.1-4.8 6.1-4.8h19.7c5.7-.1 10.2-4 10.2-4l2.7-2.7 14.6-14.2s4.3-3.1-1.3-5.2c0 0-8.4-4.4-22.3-4.8H75v.1z"/></defs><clipPath id="SVGID_00000150078596942250407360000006676845748652802222_"><use xlink:href="#SVGID_00000071521231112671466340000001333663119009816746_" style="overflow:visible"/></clipPath><linearGradient id="SVGID_00000062188060502146863840000007708946115823384974_" gradientUnits="userSpaceOnUse" x1="-1117.9266" y1=".5963" x2="-1116.7992" y2=".5963" gradientTransform="scale(818.6281) rotate(-45 -559.3844 -1348.7892)"><stop offset="0" style="stop-color:#147bd1"/><stop offset="1" style="stop-color:#00b8d9"/></linearGradient><path style="clip-path:url(#SVGID_00000150078596942250407360000006676845748652802222_);fill:url(#SVGID_00000062188060502146863840000007708946115823384974_)" d="M-46.4 44.8 74.5-75.8l121 120.6-121 120.6z"/><g><defs><path id="SVGID_00000051357816299910008790000003401255637362138772_" d="M224.7 6.6v147.1c0 3.6 2.9 6.5 6.5 6.5s6.5-2.9 6.5-6.5V6.6c0-3.6-2.9-6.5-6.5-6.5s-6.5 2.9-6.5 6.5"/></defs><clipPath id="SVGID_00000043417492053208978870000011023070220558483389_"><use xlink:href="#SVGID_00000051357816299910008790000003401255637362138772_" style="overflow:visible"/></clipPath><linearGradient id="SVGID_00000068641645660401208270000006848317561880199572_" gradientUnits="userSpaceOnUse" x1="-1117.9265" y1=".7621" x2="-1116.7991" y2=".7621" gradientTransform="scale(818.6281) rotate(-45 -559.3844 -1348.7892)"><stop offset="0" style="stop-color:#147bd1"/><stop offset="1" style="stop-color:#00b8d9"/></linearGradient><path style="clip-path:url(#SVGID_00000043417492053208978870000011023070220558483389_);fill:url(#SVGID_00000068641645660401208270000006848317561880199572_)" d="m144.4 80.1 86.8-86.4 86.7 86.4-86.7 86.5z"/></g><g><defs><path id="SVGID_00000011009270873977820940000012621220879379752333_" d="M367.2 57.1c-1.9-2.1-2.9-5.3-3-9.4l-.1-3.8.1-3.8c.1-4.2 1.1-7.3 3-9.5s4.6-3.3 8-3.3 6 1.1 7.9 3.3 2.9 5.3 3 9.5c.1.6.1 1.9.1 3.8s0 3.1-.1 3.8c-.1 4.2-1.1 7.3-3 9.4-1.9 2.1-4.5 3.2-8 3.2-3.4 0-6-1.1-7.9-3.2m-9.7-33.7c-4.2 3.9-6.5 9.3-6.8 16.1l-.1 4.3.1 4.3c.3 6.9 2.6 12.3 6.7 16.2 4.2 3.9 10.1 5.8 17.8 5.8 7.6 0 13.5-1.9 17.7-5.8s6.4-9.3 6.7-16.2c.1-.8.1-2.2.1-4.3s0-3.5-.1-4.3c-.3-6.8-2.6-12.2-6.8-16.1-4.2-3.9-10.1-5.9-17.6-5.9-7.6 0-13.5 2-17.7 5.9m102.7 35.7c-1.7-1.1-2.6-2.7-2.6-4.8 0-3.8 3.7-6.3 11.2-7.5l9.8-1.6v1.9c0 4.4-1.1 7.8-3.4 10.1s-5.2 3.5-8.8 3.5c-2.4.1-4.5-.5-6.2-1.6m-2.4-39.3c-3.2 1.5-5.6 3.3-7.1 5.4-1.5 2-2.3 3.9-2.4 5.5 0 .6.2 1.2.6 1.6.4.4.9.6 1.5.6h7.6c.7 0 1.2-.4 1.5-1.2l1.6-1.6c.8-.8 1.9-1.6 3.2-2.4 1.3-.8 3-1.2 5.2-1.2 3.1 0 5.4.7 6.8 2.1s2.1 3.5 2.1 6.3v2L465 38.8c-6.2 1-11.2 2.8-14.7 5.5-3.6 2.7-5.4 6.3-5.4 10.7 0 2.7.8 5.2 2.4 7.5 1.6 2.3 3.8 4.1 6.5 5.4 2.8 1.3 5.8 2 9.1 2 3.9 0 7.2-.7 9.8-2 2.6-1.3 4.6-3 6.1-5.1v3.8c0 .7.2 1.2.7 1.7s1 .7 1.7.7h8.1c.7 0 1.3-.2 1.7-.7.4-.5.6-1 .6-1.7V36.2c0-5.6-1.8-10.1-5.3-13.5s-9.1-5.2-16.8-5.2c-4.6 0-8.5.8-11.7 2.3M302.5 1c-.7 0-1.3.2-1.7.7-.4.5-.6 1-.6 1.8v7.3c0 .7.2 1.3.7 1.8s1 .7 1.7.7h18.1V67c0 .7.2 1.2.7 1.7s1 .7 1.7.7h9.2c.7 0 1.3-.2 1.7-.7.4-.5.6-1 .6-1.7V13.1h18c.7 0 1.3-.2 1.8-.7s.7-1 .7-1.8V3.4c0-.7-.2-1.3-.7-1.8s-1-.7-1.8-.7h-50.1V1zm113.2-1c-.7 0-1.2.2-1.7.6s-.7 1-.7 1.7v16.2h-7.7c-.7 0-1.2.2-1.7.7s-.7 1-.7 1.7v5.7c0 .6.2 1.2.7 1.7s1 .7 1.7.7h7.7v22c0 6 1.5 10.5 4.5 13.6 3 3.1 7.5 4.6 13.4 4.6h8c.7 0 1.3-.2 1.7-.7.4-.5.6-1 .6-1.7v-6.1c0-.7-.2-1.3-.6-1.7s-1-.6-1.7-.6h-6.8c-2.2 0-3.8-.7-4.8-2.1-1-1.4-1.5-3.5-1.5-6.3V28.9h12.2c.6 0 1.2-.2 1.7-.7s.7-1 .7-1.7v-5.7c0-.6-.2-1.2-.7-1.7s-1-.7-1.7-.7h-12.2V2.3c0-.7-.2-1.3-.6-1.7s-1-.6-1.7-.6h-8.1zm89 0c-.7 0-1.2.2-1.7.6s-.7 1-.7 1.7v64.5c0 .7.2 1.2.7 1.7s1 .7 1.7.7h8.2c.7 0 1.3-.2 1.7-.7s.6-1 .6-1.7V2.3c0-.7-.2-1.3-.6-1.7-.4-.4-1-.6-1.7-.6h-8.2z"/></defs><clipPath id="SVGID_00000109004032223823137390000009193770480971913918_"><use xlink:href="#SVGID_00000011009270873977820940000012621220879379752333_" style="overflow:visible"/></clipPath><linearGradient id="SVGID_00000156554839273727125730000000777306113861115807_" gradientUnits="userSpaceOnUse" x1="-1117.9291" y1=".8569" x2="-1116.8019" y2=".8569" gradientTransform="scale(834.999) rotate(-45 -559.3703 -1348.794)"><stop offset="0" style="stop-color:#147bd1"/><stop offset="1" style="stop-color:#00b8d9"/></linearGradient><path style="clip-path:url(#SVGID_00000109004032223823137390000009193770480971913918_);fill:url(#SVGID_00000156554839273727125730000000777306113861115807_)" d="m265 35.1 142.7-142.3L550.4 35.1 407.7 177.3z"/></g><g><defs><path id="SVGID_00000072999566083772804980000000230728692357665714_" d="M393.7 108.9c-6.1 0-10.8 2.1-14.1 6.4v-4c0-.7-.2-1.3-.7-1.8s-1-.7-1.8-.7h-8c-.7 0-1.2.2-1.7.7s-.7 1-.7 1.8v45.9c0 .6.2 1.2.7 1.7s1 .7 1.7.7h8.7c.6 0 1.2-.2 1.7-.7s.7-1 .7-1.7v-26.7c0-3.1.9-5.5 2.6-7.2 1.8-1.8 4.2-2.6 7.2-2.6h7.7c.7 0 1.3-.2 1.7-.7.4-.5.6-1 .6-1.7v-7.1c0-.7-.2-1.3-.6-1.7-.4-.4-1-.6-1.7-.6h-4zm278.4 0c-.7 0-1.2.2-1.7.6s-.7 1-.7 1.7v46c0 .6.2 1.2.7 1.7s1 .7 1.7.7h8.3c.6 0 1.2-.2 1.7-.7s.7-1 .7-1.7v-46c0-.6-.2-1.2-.7-1.7s-1-.7-1.7-.7h-8.3v.1zm-252.4 38.6c-1.9-2.1-2.9-5.3-3-9.4l-.1-3.8.1-3.8c.1-4.2 1.1-7.3 3-9.5s4.6-3.3 8-3.3 6 1.1 7.9 3.3c1.9 2.2 2.9 5.3 3 9.5.1.6.1 1.9.1 3.8s0 3.1-.1 3.8c-.1 4.2-1.1 7.3-3 9.4-1.9 2.1-4.5 3.2-8 3.2-3.3 0-6-1.1-7.9-3.2m-9.6-33.6c-4.2 3.9-6.5 9.3-6.8 16.1l-.1 4.3.1 4.3c.3 6.9 2.6 12.3 6.7 16.2 4.2 3.9 10.1 5.8 17.8 5.8 7.6 0 13.5-1.9 17.7-5.8 4.2-3.9 6.4-9.3 6.7-16.2.1-.8.1-2.2.1-4.3s0-3.5-.1-4.3c-.3-6.8-2.6-12.2-6.8-16.1-4.2-3.9-10.1-5.9-17.6-5.9-7.6 0-13.5 1.9-17.7 5.9m55.9 0c-4.3 4-6.5 9.4-6.8 16.5l-.1 3.9.1 3.9c.3 7 2.5 12.5 6.8 16.5s10 5.9 17.1 5.9c5.3 0 9.7-.9 13.2-2.8s6.1-4.1 7.8-6.8c1.7-2.6 2.6-5.1 2.7-7.4.1-.6-.1-1.2-.6-1.7s-1.1-.7-1.7-.7h-8.7c-.7 0-1.3.2-1.6.5-.4.3-.7.8-.9 1.6-1 2.5-2.2 4.3-3.8 5.4-1.6 1.1-3.6 1.6-6.2 1.6-6.8 0-10.4-4.2-10.7-12.7l-.1-3.2.1-3.6c.1-4.3 1.1-7.5 3-9.5 1.9-2.1 4.4-3.1 7.8-3.1 2.5 0 4.5.6 6.1 1.7s2.9 2.9 3.9 5.4c.3.8.7 1.3 1 1.6.3.3.8.4 1.6.4h8.7c.7 0 1.2-.2 1.7-.7s.7-1 .6-1.7c-.1-2.4-1.1-4.9-2.8-7.5-1.7-2.6-4.4-4.9-7.9-6.7-3.5-1.8-7.9-2.7-13-2.7-7.4 0-13.1 2-17.3 5.9m60.3 15.7c0-3.8.9-6.9 2.8-9.2 1.9-2.3 4.5-3.5 7.8-3.5s5.9 1.2 7.9 3.5c1.9 2.3 2.9 5.4 2.9 9.2v.2h-21.4v-.2zm-7.1-14.6c-4.3 4.7-6.4 11.1-6.4 19.2l.1 2.4c.3 7.7 2.5 13.6 6.8 17.7 4.3 4.2 10 6.2 17.3 6.2 4.6 0 8.6-.8 12-2.3 3.4-1.6 6.1-3.4 8-5.5s2.8-3.9 2.8-5.5c0-.6-.2-1-.6-1.4-.4-.3-.9-.5-1.5-.5H549c-.8 0-1.3.1-1.7.2-.3.2-.8.6-1.4 1.3-2.3 3-5.4 4.5-9.1 4.5-3.3 0-5.8-1.2-7.7-3.6-1.9-2.4-2.8-5.4-3-9v-.8h32.4c.7 0 1.3-.2 1.8-.7s.7-1 .7-1.7v-2c0-7.8-2.1-14-6.3-18.7s-10.2-7-17.9-7c-7.4.2-13.3 2.5-17.6 7.2m58.1-4.8c-3.1 1.5-5.4 3.3-7 5.6-1.6 2.3-2.3 4.8-2.3 7.4 0 4 1.3 7.1 4 9.5 2.6 2.4 6.7 4.2 12.3 5.4 3.8.8 6.7 1.6 8.6 2.3 1.9.7 3.3 1.4 4 2.2s1.1 1.9 1.1 3.2c0 1.9-.8 3.3-2.4 4.3-1.6 1-3.7 1.5-6.3 1.5-1.8 0-3.4-.3-4.8-.8-1.5-.6-2.8-1.3-3.9-2.3-1.1-1-1.9-1.6-2.2-1.8-.4-.5-.8-.8-1.4-.8h-8c-.6 0-1.1.2-1.5.6-.4.4-.6.9-.6 1.6 0 1.4.8 3.1 2.4 5.1 1.6 2 4.1 3.7 7.4 5.2 3.3 1.5 7.5 2.2 12.4 2.2 7.2 0 12.7-1.4 16.7-4.3s6-6.6 6-11.2c0-7.9-5.9-13-17.6-15.3-3.8-.7-6.6-1.4-8.5-2.1-1.9-.7-3.1-1.4-3.8-2.2-.6-.8-.9-1.8-.9-2.9 0-1.7.7-3.1 2-4.1s3.2-1.6 5.6-1.6c1.8 0 3.3.3 4.5.8s2.4 1.2 3.4 2.1 1.7 1.5 2.2 1.8c.4.5.9.8 1.7.8h7.3c.6 0 1.1-.2 1.5-.6s.6-.9.6-1.5c0-1.5-.8-3.2-2.5-5.2-1.7-1.9-4.1-3.6-7.3-5s-7-2.1-11.4-2.1c-4.5 0-8.2.7-11.3 2.2m50.1 0c-3.1 1.5-5.4 3.3-7 5.6-1.6 2.3-2.3 4.8-2.3 7.4 0 4 1.3 7.1 4 9.5 2.6 2.4 6.7 4.2 12.3 5.4 3.8.8 6.7 1.6 8.6 2.3 1.9.7 3.3 1.4 4 2.2s1.1 1.9 1.1 3.2c0 1.9-.8 3.3-2.4 4.3-1.6 1-3.7 1.5-6.3 1.5-1.8 0-3.4-.3-4.8-.8-1.5-.6-2.8-1.3-3.9-2.3-1.1-1-1.9-1.6-2.2-1.8-.4-.5-.8-.8-1.4-.8h-8c-.6 0-1.1.2-1.5.6-.4.4-.6.9-.6 1.6 0 1.4.8 3.1 2.4 5.1 1.6 2 4.1 3.7 7.4 5.2 3.3 1.5 7.5 2.2 12.4 2.2 7.2 0 12.7-1.4 16.7-4.3s6-6.6 6-11.2c0-7.9-5.9-13-17.6-15.3-3.8-.7-6.6-1.4-8.5-2.1-1.9-.7-3.1-1.4-3.8-2.2-.6-.8-.9-1.8-.9-2.9 0-1.7.6-3.1 2-4.1 1.3-1 3.2-1.6 5.6-1.6 1.8 0 3.3.3 4.5.8s2.4 1.2 3.4 2.1 1.7 1.5 2.2 1.8c.4.5.9.8 1.7.8h7.3c.6 0 1.1-.2 1.5-.6s.6-.9.6-1.5c0-1.5-.8-3.2-2.5-5.2-1.7-1.9-4.1-3.6-7.3-5s-7-2.1-11.4-2.1c-4.5 0-8.2.7-11.3 2.2m79 5.1v-4c0-.7-.2-1.3-.6-1.7-.4-.4-1-.6-1.7-.6H696c-.7 0-1.2.2-1.7.6s-.7 1-.7 1.7v46c0 .6.2 1.2.7 1.7s1 .7 1.7.7h8.7c.7 0 1.3-.2 1.7-.7s.6-1 .6-1.7v-26.8c0-3.7 1-6.6 3-8.8 2-2.1 4.7-3.2 8-3.2 3.4 0 6.1 1.1 8 3.2s2.8 5 2.8 8.8v26.8c0 .6.2 1.2.7 1.7s1 .7 1.7.7h8.8c.7 0 1.3-.2 1.7-.7s.6-1 .6-1.7v-27.4c0-6.8-1.8-12.2-5.3-16.1s-8.3-5.8-14.3-5.8c-6.8 0-12.3 2.4-16.3 7.3m57.7 18.4.1-2.3c.4-8.6 4.1-12.9 11.1-12.9 3.6 0 6.4 1.2 8.2 3.5s2.8 5.2 3 8.6c.1.5.1 1.6.1 3.1 0 1.6 0 2.6-.1 3.1-.2 3.4-1.2 6.2-3 8.6-1.8 2.3-4.6 3.5-8.2 3.5-7.5 0-11.2-5.1-11.2-15.2m-7.8-19.4c-3.5 4.2-5.3 9.8-5.6 16.7l-.1 2.6.1 2.6c.3 7.1 2.1 12.7 5.5 16.7 3.4 4.1 8.5 6.1 15.3 6.1 6.4 0 11.4-2.1 14.9-6.2v6.6c0 4.3-.9 7.3-2.7 9s-4.7 2.6-8.6 2.6c-3 0-5.2-.6-6.6-1.8-1.4-1.2-2.5-2.6-3.2-4.3-.3-.8-.6-1.3-1-1.6s-.9-.4-1.5-.4h-8.7c-.7 0-1.2.2-1.7.6-.5.4-.7 1-.7 1.6 0 1.8.7 3.9 2.2 6.3 1.5 2.5 4 4.7 7.6 6.6 3.6 1.9 8.3 2.9 14.1 2.9 8.1 0 14.2-2 18.3-5.9 4-4 6.1-9.5 6.1-16.7l-.1-46.9c0-.7-.2-1.3-.7-1.8s-1-.7-1.7-.7h-8c-.7 0-1.2.2-1.7.7s-.7 1-.7 1.8v3.8c-1.7-2.2-3.8-4-6.4-5.3-2.6-1.3-5.6-1.9-9.1-1.9-6.7 0-11.8 2.1-15.3 6.3m-436.8-12h14.1c3.9 0 6.8.9 8.7 2.8 1.9 1.9 2.9 4.5 2.9 7.9s-1 6.1-3 7.8c-2 1.8-4.9 2.7-8.6 2.7h-14.1v-21.2zm-11.6-10.9c-.7 0-1.3.2-1.7.7-.4.5-.6 1-.6 1.8v63.4c0 .6.2 1.2.7 1.7s1 .7 1.7.7h9.4c.7 0 1.3-.2 1.8-.6.5-.4.7-1 .7-1.7v-22.8h14.4c7.9 0 14.1-1.8 18.6-5.4 4.5-3.6 6.7-8.9 6.7-15.9 0-7.1-2.2-12.5-6.7-16.2-4.5-3.7-10.7-5.5-18.6-5.5h-26.4v-.2zm363.8-2.6c-.7 0-1.2.2-1.7.7s-.7 1-.7 1.8v7.1c0 .6.2 1.2.7 1.7s1 .7 1.7.7h9c.6 0 1.2-.2 1.7-.7s.7-1 .7-1.7v-7.1c0-.7-.2-1.3-.7-1.8s-1-.7-1.8-.7h-8.9z"/></defs><clipPath id="SVGID_00000076605351814841280360000015062562501285470853_"><use xlink:href="#SVGID_00000072999566083772804980000000230728692357665714_" style="overflow:visible"/></clipPath><linearGradient id="SVGID_00000021811198243729175370000004119751915942809774_" gradientUnits="userSpaceOnUse" x1="-1117.929" y1="1.0642" x2="-1116.8015" y2="1.0642" gradientTransform="scale(834.999) rotate(-45 -559.3703 -1348.794)"><stop offset="0" style="stop-color:#147bd1"/><stop offset="1" style="stop-color:#00b8d9"/></linearGradient><path style="clip-path:url(#SVGID_00000076605351814841280360000015062562501285470853_);fill:url(#SVGID_00000021811198243729175370000004119751915942809774_)" d="m259.3 134.9 293.5-292.6 293.4 292.6-293.4 292.6z"/></g></svg>