<svg fill="none" xmlns="http://www.w3.org/2000/svg" viewBox="0 0 601 69"><path d="m15.4 1.8 22.7 54h1.4l22.7-54h14.3L48.7 67.6H28.5L.7 1.8h14.7Zm87.9 11.9v15.1h41.3v11.9h-41.3v15.1h52.8v11.9H89.8V1.9h66.3v11.9h-52.8v-.1Zm71-11.9h43.3c12.2 0 20.3 7.9 20.3 19.7 0 10.6-7 17.9-17.7 19 1 1 1.9 2.2 2.4 3.1l15.3 24h-15.3l-17.2-27h-17.6v27h-13.6c.1 0 .1-65.8.1-65.8Zm43.3 27c4 0 6.8-2.6 6.8-6.6v-2c0-4-2.7-6.6-6.8-6.6h-29.8v15.1h29.8v.1Zm40.3 38.8V1.8h13.6v65.8h-13.6Zm81.9-20.1c0-5.3-5.9-7.5-19.5-7.5-21.4 0-30.6-5.5-30.6-18.8C289.7 7.8 300.5.5 320.8.5c18.7 0 31.1 8.4 31.1 21h-13.6c0-5.5-7-9.2-17.6-9.2-11.5 0-17.6 3-17.6 8.8 0 5 5.4 7 18.2 7 22.4 0 31.8 5.9 31.8 19.4 0 13.9-11.3 21.4-32.5 21.4-19.5 0-32.5-8.4-32.5-21h13.6c0 5.5 7.6 9.2 19 9.2 12.5 0 19.1-3.4 19.1-9.6Zm44-18.7h40.6v-27H438v65.8h-13.6v-27h-40.6v27h-13.6V1.8h13.6v27Zm138.6 5.9c0 19.7-14.9 34.2-35.2 34.2-20.3 0-35.2-14.5-35.2-34.2C452 15 466.9.5 487.2.5c20.3 0 35.2 14.5 35.2 34.2Zm-14.2 0c0-12.5-8.8-21.7-21-21.7s-21 9.2-21 21.7 8.8 21.7 21 21.7 21-9.2 21-21.7Zm42.4 32.9H537V1.8h43.3c12.2 0 20.3 7.9 20.3 19.7 0 11.3-8.1 19.1-20.3 19.1h-29.8v27h.1Zm0-38.8h29.8c4 0 6.8-2.6 6.8-6.6v-2c0-4-2.7-6.6-6.8-6.6h-29.8v15.2Z" fill="#000"/></svg>