<svg fill="none" xmlns="http://www.w3.org/2000/svg" viewBox="0 0 1080 104"><path d="M14.66 1.62 37.31 56.9h1.35L61.31 1.62H75.6L47.96 69.03H27.73L.1 1.62h14.56ZM102.24 13.75v15.51h41.15v12.13h-41.15V56.9h52.59v12.14H88.76V1.63h66.07v12.13h-52.59v-.01ZM173.03 1.62h43.15c12.14 0 20.23 8.09 20.23 20.23 0 10.79-7.01 18.33-17.66 19.41.94 1.08 1.89 2.29 2.43 3.24l15.24 24.54h-15.24L204.05 41.4h-17.53v27.64h-13.48V1.62h-.01Zm43.15 27.64c4.05 0 6.74-2.7 6.74-6.74V20.5c0-4.04-2.7-6.74-6.74-6.74h-29.67v15.51h29.67v-.01ZM256.3 69.03V1.62h13.48v67.41H256.3ZM337.88 48.41c0-5.39-5.93-7.69-19.41-7.69-21.31 0-30.48-5.66-30.48-19.28C287.99 7.69 298.78.27 319 .27c18.61 0 31.02 8.63 31.02 21.58h-13.49c0-5.66-7.01-9.44-17.53-9.44-11.46 0-17.52 3.1-17.52 9.03 0 5.13 5.39 7.15 18.2 7.15 22.24 0 31.68 6.07 31.68 19.82 0 14.29-11.33 21.98-32.36 21.98-19.41 0-32.36-8.63-32.36-21.58h13.48c0 5.66 7.55 9.44 18.87 9.44 12.29 0 18.89-3.51 18.89-9.84ZM381.7 29.26h40.45V1.62h13.49v67.41h-13.49V41.39H381.7v27.64h-13.48V1.62h13.48v27.64ZM519.79 35.33c0 20.23-14.83 35.06-35.06 35.06-20.23 0-35.05-14.83-35.05-35.06 0-20.23 14.83-35.06 35.05-35.06s35.06 14.83 35.06 35.06Zm-14.15 0c0-12.81-8.77-22.25-20.9-22.25-12.13 0-20.9 9.44-20.9 22.25s8.77 22.25 20.9 22.25c12.13 0 20.9-9.44 20.9-22.25ZM547.92 69.03h-13.48V1.62h43.15c12.14 0 20.23 8.09 20.23 20.23 0 11.6-8.09 19.55-20.23 19.55h-29.67v27.63Zm0-39.77h29.67c4.05 0 6.74-2.7 6.74-6.74V20.5c0-4.04-2.7-6.74-6.74-6.74h-29.67v15.5Z" fill="#00263A"/><path d="M743.56 2.15c-20.3 0-34.68 14.47-34.68 34.12 0 19.64 14.38 34.12 34.68 34.12 20.3 0 34.68-14.47 34.68-34.12S763.86 2.15 743.56 2.15Zm0 15.04c10.71 0 18.33 7.8 18.33 19.08 0 11.28-7.61 19.08-18.33 19.08-10.72 0-18.33-7.8-18.33-19.08 0-11.28 7.61-19.08 18.33-19.08ZM827.69 23.65c0-.32-.26-.58-.58-.58h-13.49c-.32 0-.58.26-.58.58v24.46c0 5.87-3.2 8.55-7.57 8.55-4.42 0-7.57-2.68-7.57-8.55V23.65c0-.32-.26-.58-.58-.58h-13.54c-.32 0-.58.26-.58.58v25.73c0 14.47 9.96 21.01 22.28 21.01 12.27 0 22.23-6.53 22.23-20.96V23.65h-.02ZM876.58 23.65c0-.32-.26-.58-.58-.58h-20.4c-.32 0-.58-.26-.58-.58V10.22c0-.32-.26-.58-.58-.58H840.9c-.32 0-.58.26-.58.58v12.27c0 .32-.26.58-.58.58h-7.43c-.32 0-.58.26-.58.58V35.5c0 .32.26.58.58.58h7.43c.32 0 .58.26.58.58v14.78c0 11.56 5.59 18.94 17.95 18.94 3.98 0 9.38-1.6 10.88-2.07.24-.08.4-.3.4-.55V56.87c0-1.36-1.48-2.2-2.71-1.62-1.7.8-3.54 1.41-5.28 1.41-3.71 0-6.53-1.79-6.53-7.1v-12.9c0-.32.26-.58.58-.58H876c.32 0 .58-.26.58-.58V23.65Z" fill="#0C2542"/><path d="M903.29 23.65c0-.32-.26-.58-.58-.58h-11.75c-.32 0-.58-.26-.58-.58v-2.66c0-3.99 1.6-5.83 4.84-5.83 2.61 0 4.66.77 6.7 1.77.28.14.61.04.77-.23l5.85-9.93c.15-.26.09-.58-.15-.76-3.57-2.58-8.22-4.58-15.14-4.58-10.76 0-17.58 6.81-17.58 19.22v49.09c0 .32.26.58.58.58h13.54c.32 0 .58-.26.58-.58V36.66c0-.32.26-.58.58-.58h11.75c.32 0 .58-.26.58-.58V23.65h.01ZM952 23.65c0-.32-.26-.58-.58-.58h-13.49c-.32 0-.58.26-.58.58v24.46c0 5.87-3.2 8.55-7.57 8.55-4.42 0-7.57-2.68-7.57-8.55V23.65c0-.32-.26-.58-.58-.58h-13.54c-.32 0-.58.26-.58.58v25.73c0 14.47 9.96 21.01 22.28 21.01 12.27 0 22.23-6.53 22.23-20.96V23.65H952ZM985.99 21.79c-5.37 0-9.6 1.68-12.52 5.32-.37.46-1.2.21-1.2-.38v-3.09c0-.32-.26-.58-.58-.58h-12.93c-.32 0-.58.26-.58.58v44.93c0 .32.26.58.58.58h13.54c.32 0 .58-.26.58-.58V44.34c0-5.97 3.38-8.74 7.47-8.74 4.56 0 7.28 3.05 7.28 8.51v24.46c0 .32.26.58.58.58h13.54c.32 0 .58-.26.58-.58V38.9c.01-10.67-7.13-17.11-16.34-17.11ZM1028.38 21.79c-12.36 0-21.48 10.71-21.48 24.25 0 13.63 9.12 24.34 21.43 24.34 5.46 0 9.38-1.98 12.14-4.89.38-.41 1.12-.15 1.12.41v2.67c0 .32.26.58.58.58h13.02c.32 0 .58-.26.58-.58V2.07c0-.32-.26-.58-.58-.58h-13.49c-.32 0-.58.26-.58.58v23.79c0 .55-.7.81-1.09.43-2.73-2.69-6.5-4.5-11.65-4.5Zm3.48 13.73c5.78 0 9.87 4.46 9.87 10.57s-4.09 10.57-9.87 10.57c-5.87 0-9.82-4.56-9.82-10.57 0-6.02 3.94-10.57 9.82-10.57Z" fill="#0C2542"/><path d="M1071.14 52.86c4.84 0 8.76 3.92 8.76 8.76s-3.92 8.76-8.76 8.76-8.76-3.92-8.76-8.76c-.01-4.84 3.92-8.76 8.76-8.76Z" fill="#00A3D7"/><path d="m639.198 17.1437 9 14.5227h.273l9-14.5227h4.977l-10.977 17.4545 10.977 17.4546h-4.977l-9-14.25h-.273l-9 14.25h-4.977l11.25-17.4546-11.25-17.4545h4.977Z" fill="#00263A"/></svg>