<?xml version="1.0" encoding="utf-8"?>
<!-- Generator: Adobe Illustrator 19.2.1, SVG Export Plug-In . SVG Version: 6.00 Build 0)  -->
<svg version="1.1" id="layer" xmlns="http://www.w3.org/2000/svg" xmlns:xlink="http://www.w3.org/1999/xlink" x="0px" y="0px"
	 viewBox="0 0 652 652" style="enable-background:new 0 0 652 652;" xml:space="preserve">
<path d="M36.4,287.8l22.7,54h1.4l22.7-54h14.3l-27.8,65.8H49.5l-27.8-65.8H36.4z M124.3,299.7v15.1h41.3v11.9h-41.3v15.1h52.8v11.9
	h-66.3v-65.8h66.3v11.9H124.3z M195.3,287.8h43.3c12.2,0,20.3,7.9,20.3,19.7c0,10.6-7,17.9-17.7,19c1,1,1.9,2.2,2.4,3.1l15.3,24
	h-15.3l-17.2-27h-17.6v27h-13.6C195.3,353.6,195.3,287.8,195.3,287.8z M238.6,314.8c4,0,6.8-2.6,6.8-6.6v-2c0-4-2.7-6.6-6.8-6.6
	h-29.8v15.1H238.6z M278.9,353.6v-65.8h13.6v65.8H278.9z M360.8,333.5c0-5.3-5.9-7.5-19.5-7.5c-21.4,0-30.6-5.5-30.6-18.8
	c0-13.4,10.8-20.7,31.1-20.7c18.7,0,31.1,8.4,31.1,21h-13.6c0-5.5-7-9.2-17.6-9.2c-11.5,0-17.6,3-17.6,8.8c0,5,5.4,7,18.2,7
	c22.4,0,31.8,5.9,31.8,19.4c0,13.9-11.3,21.4-32.5,21.4c-19.5,0-32.5-8.4-32.5-21h13.6c0,5.5,7.6,9.2,19,9.2
	C354.2,343.1,360.8,339.7,360.8,333.5z M404.8,314.8h40.6v-27h13.6v65.8h-13.6v-27h-40.6v27h-13.6v-65.8h13.6
	C404.8,287.8,404.8,314.8,404.8,314.8z M543.4,320.7c0,19.7-14.9,34.2-35.2,34.2c-20.3,0-35.2-14.5-35.2-34.2
	c0-19.7,14.9-34.2,35.2-34.2C528.5,286.5,543.4,301,543.4,320.7z M529.2,320.7c0-12.5-8.8-21.7-21-21.7s-21,9.2-21,21.7
	s8.8,21.7,21,21.7S529.2,333.2,529.2,320.7z M571.6,353.6H558v-65.8h43.3c12.2,0,20.3,7.9,20.3,19.7c0,11.3-8.1,19.1-20.3,19.1
	h-29.8V353.6z M571.6,314.8h29.8c4,0,6.8-2.6,6.8-6.6v-2c0-4-2.7-6.6-6.8-6.6h-29.8V314.8z"/>
</svg>
