<?xml version="1.0" encoding="utf-8"?>
<!-- Generator: Adobe Adobe Illustrator 24.2.0, SVG Export Plug-In . SVG Version: 6.00 Build 0)  -->
<svg version="1.1" id="Layer_1" xmlns="http://www.w3.org/2000/svg" xmlns:xlink="http://www.w3.org/1999/xlink" x="0px" y="0px"
	 width="1224px" height="792px" viewBox="0 0 1224 792" style="enable-background:new 0 0 1224 792;" xml:space="preserve">
<style type="text/css">
	.st0{fill:#00263A;}
	.st1{fill:#0C2542;}
	.st2{fill:#00A3D7;}
	.st3{fill:none;}
	.st4{font-family:'Erbaum-Bold';}
	.st5{font-size:48px;}
</style>
<g>
	<g>
		<path class="st0" d="M86.66,345.62l22.65,55.28h1.35l22.65-55.28h14.29l-27.64,67.41H99.73L72.1,345.62H86.66z"/>
		<path class="st0" d="M174.24,357.75v15.51h41.15v12.13h-41.15v15.51h52.59v12.14h-66.07v-67.41h66.07v12.13H174.24z"/>
		<path class="st0" d="M245.03,345.62h43.15c12.14,0,20.23,8.09,20.23,20.23c0,10.79-7.01,18.33-17.66,19.41
			c0.94,1.08,1.89,2.29,2.43,3.24l15.24,24.54h-15.24l-17.13-27.64h-17.53v27.64h-13.48V345.62z M288.18,373.26
			c4.05,0,6.74-2.7,6.74-6.74v-2.02c0-4.04-2.7-6.74-6.74-6.74h-29.67v15.51H288.18z"/>
		<path class="st0" d="M328.3,413.03v-67.41h13.48v67.41H328.3z"/>
		<path class="st0" d="M409.88,392.41c0-5.39-5.93-7.69-19.41-7.69c-21.31,0-30.48-5.66-30.48-19.28
			c0-13.75,10.79-21.17,31.01-21.17c18.61,0,31.02,8.63,31.02,21.58h-13.49c0-5.66-7.01-9.44-17.53-9.44
			c-11.46,0-17.52,3.1-17.52,9.03c0,5.13,5.39,7.15,18.2,7.15c22.24,0,31.68,6.07,31.68,19.82c0,14.29-11.33,21.98-32.36,21.98
			c-19.41,0-32.36-8.63-32.36-21.58h13.48c0,5.66,7.55,9.44,18.87,9.44C403.28,402.25,409.88,398.74,409.88,392.41z"/>
		<path class="st0" d="M453.7,373.26h40.45v-27.64h13.49v67.41h-13.49v-27.64H453.7v27.64h-13.48v-67.41h13.48V373.26z"/>
		<path class="st0" d="M591.79,379.33c0,20.23-14.83,35.06-35.06,35.06s-35.05-14.83-35.05-35.06s14.83-35.06,35.05-35.06
			S591.79,359.1,591.79,379.33z M577.64,379.33c0-12.81-8.77-22.25-20.9-22.25c-12.13,0-20.9,9.44-20.9,22.25s8.77,22.25,20.9,22.25
			C568.87,401.58,577.64,392.14,577.64,379.33z"/>
		<path class="st0" d="M619.92,413.03h-13.48v-67.41h43.15c12.14,0,20.23,8.09,20.23,20.23c0,11.6-8.09,19.55-20.23,19.55h-29.67
			V413.03z M619.92,373.26h29.67c4.05,0,6.74-2.7,6.74-6.74v-2.02c0-4.04-2.7-6.74-6.74-6.74h-29.67V373.26z"/>
	</g>
	<g>
		<path class="st1" d="M815.56,346.15c-20.3,0-34.68,14.47-34.68,34.12c0,19.64,14.38,34.12,34.68,34.12
			c20.3,0,34.68-14.47,34.68-34.12C850.24,360.62,835.86,346.15,815.56,346.15z M815.56,361.19c10.71,0,18.33,7.8,18.33,19.08
			c0,11.28-7.61,19.08-18.33,19.08s-18.33-7.8-18.33-19.08C797.23,368.99,804.84,361.19,815.56,361.19z"/>
		<path class="st1" d="M899.69,367.65c0-0.32-0.26-0.58-0.58-0.58h-13.49c-0.32,0-0.58,0.26-0.58,0.58v24.46
			c0,5.87-3.2,8.55-7.57,8.55c-4.42,0-7.57-2.68-7.57-8.55v-24.46c0-0.32-0.26-0.58-0.58-0.58h-13.54c-0.32,0-0.58,0.26-0.58,0.58
			v25.73c0,14.47,9.96,21.01,22.28,21.01c12.27,0,22.23-6.53,22.23-20.96V367.65z"/>
		<path class="st1" d="M948.58,367.65c0-0.32-0.26-0.58-0.58-0.58h-20.4c-0.32,0-0.58-0.26-0.58-0.58v-12.27
			c0-0.32-0.26-0.58-0.58-0.58h-13.54c-0.32,0-0.58,0.26-0.58,0.58v12.27c0,0.32-0.26,0.58-0.58,0.58h-7.43
			c-0.32,0-0.58,0.26-0.58,0.58v11.85c0,0.32,0.26,0.58,0.58,0.58h7.43c0.32,0,0.58,0.26,0.58,0.58v14.78
			c0,11.56,5.59,18.94,17.95,18.94c3.98,0,9.38-1.6,10.88-2.07c0.24-0.08,0.4-0.3,0.4-0.55v-10.89c0-1.36-1.48-2.2-2.71-1.62
			c-1.7,0.8-3.54,1.41-5.28,1.41c-3.71,0-6.53-1.79-6.53-7.1v-12.9c0-0.32,0.26-0.58,0.58-0.58H948c0.32,0,0.58-0.26,0.58-0.58
			V367.65z"/>
		<path class="st1" d="M975.29,367.65c0-0.32-0.26-0.58-0.58-0.58h-11.75c-0.32,0-0.58-0.26-0.58-0.58v-2.66
			c0-3.99,1.6-5.83,4.84-5.83c2.61,0,4.66,0.77,6.7,1.77c0.28,0.14,0.61,0.04,0.77-0.23l5.85-9.93c0.15-0.26,0.09-0.58-0.15-0.76
			c-3.57-2.58-8.22-4.58-15.14-4.58c-10.76,0-17.58,6.81-17.58,19.22v49.09c0,0.32,0.26,0.58,0.58,0.58h13.54
			c0.32,0,0.58-0.26,0.58-0.58v-31.92c0-0.32,0.26-0.58,0.58-0.58h11.75c0.32,0,0.58-0.26,0.58-0.58V367.65z"/>
		<path class="st1" d="M1024,367.65c0-0.32-0.26-0.58-0.58-0.58h-13.49c-0.32,0-0.58,0.26-0.58,0.58v24.46
			c0,5.87-3.2,8.55-7.57,8.55c-4.42,0-7.57-2.68-7.57-8.55v-24.46c0-0.32-0.26-0.58-0.58-0.58h-13.54c-0.32,0-0.58,0.26-0.58,0.58
			v25.73c0,14.47,9.96,21.01,22.28,21.01c12.27,0,22.23-6.53,22.23-20.96V367.65z"/>
		<path class="st1" d="M1057.99,365.79c-5.37,0-9.6,1.68-12.52,5.32c-0.37,0.46-1.2,0.21-1.2-0.38v-3.09c0-0.32-0.26-0.58-0.58-0.58
			h-12.93c-0.32,0-0.58,0.26-0.58,0.58v44.93c0,0.32,0.26,0.58,0.58,0.58h13.54c0.32,0,0.58-0.26,0.58-0.58v-24.23
			c0-5.97,3.38-8.74,7.47-8.74c4.56,0,7.28,3.05,7.28,8.51v24.46c0,0.32,0.26,0.58,0.58,0.58h13.54c0.32,0,0.58-0.26,0.58-0.58
			V382.9C1074.34,372.23,1067.2,365.79,1057.99,365.79z"/>
		<path class="st1" d="M1100.38,365.79c-12.36,0-21.48,10.71-21.48,24.25c0,13.63,9.12,24.34,21.43,24.34
			c5.46,0,9.38-1.98,12.14-4.89c0.38-0.41,1.12-0.15,1.12,0.41v2.67c0,0.32,0.26,0.58,0.58,0.58h13.02c0.32,0,0.58-0.26,0.58-0.58
			v-66.5c0-0.32-0.26-0.58-0.58-0.58h-13.49c-0.32,0-0.58,0.26-0.58,0.58v23.79c0,0.55-0.7,0.81-1.09,0.43
			C1109.3,367.6,1105.53,365.79,1100.38,365.79z M1103.86,379.52c5.78,0,9.87,4.46,9.87,10.57s-4.09,10.57-9.87,10.57
			c-5.87,0-9.82-4.56-9.82-10.57C1094.04,384.07,1097.98,379.52,1103.86,379.52z"/>
		<path class="st2" d="M1143.14,396.86L1143.14,396.86c4.84,0,8.76,3.92,8.76,8.76l0,0c0,4.84-3.92,8.76-8.76,8.76l0,0
			c-4.84,0-8.76-3.92-8.76-8.76l0,0C1134.37,400.78,1138.3,396.86,1143.14,396.86z"/>
	</g>
	<rect x="704.93" y="361" class="st3" width="115.17" height="86.73"/>
	<text transform="matrix(1 0 0 1 704.9253 398.0528)" class="st0 st4 st5">X</text>
</g>
</svg>
