<?xml version="1.0" standalone="no"?>
<!DOCTYPE svg PUBLIC "-//W3C//DTD SVG 20010904//EN"
 "http://www.w3.org/TR/2001/REC-SVG-20010904/DTD/svg10.dtd">
<svg version="1.0" xmlns="http://www.w3.org/2000/svg"
 width="500.000000pt" height="176.000000pt" viewBox="0 0 500.000000 176.000000"
 preserveAspectRatio="xMidYMid meet">

<g transform="translate(0.000000,176.000000) scale(0.100000,-0.100000)"
fill="#000000" stroke="none">
<path d="M58 1580 c14 -19 82 -107 151 -195 69 -88 130 -166 136 -173 5 -8 20
-24 33 -37 12 -12 22 -27 22 -33 0 -5 7 -12 15 -16 8 -3 15 -12 15 -20 0 -7 7
-16 15 -20 8 -3 15 -11 15 -18 0 -7 9 -19 21 -26 12 -7 18 -16 15 -19 -3 -4 3
-12 14 -20 11 -8 20 -20 20 -27 0 -8 7 -16 15 -20 8 -3 15 -12 15 -20 0 -8 7
-19 16 -24 21 -12 12 -55 -16 -80 -11 -9 -20 -22 -20 -30 0 -7 -7 -15 -15 -18
-8 -4 -15 -13 -15 -20 0 -8 -7 -17 -15 -20 -8 -4 -15 -12 -15 -20 0 -7 -10
-20 -22 -28 -12 -9 -18 -16 -13 -16 6 -1 0 -9 -12 -19 -12 -10 -20 -21 -17
-24 3 -3 -3 -12 -15 -19 -12 -7 -21 -17 -21 -23 0 -5 -16 -27 -35 -48 -19 -21
-35 -41 -35 -44 0 -4 -7 -13 -15 -22 -47 -51 -55 -62 -55 -67 0 -3 -14 -24
-31 -45 -28 -35 -29 -44 -6 -40 10 2 -12 -41 -27 -52 -6 -4 7 -5 28 -1 28 5
37 4 32 -4 -5 -8 3 -10 25 -5 24 4 30 3 25 -6 -6 -8 -1 -10 18 -5 15 3 26 2
26 -4 0 -5 12 -7 28 -5 22 4 24 2 12 -7 -11 -8 -6 -9 24 -4 29 5 37 4 32 -5
-6 -9 0 -10 20 -5 19 5 25 4 20 -5 -6 -8 0 -10 18 -5 14 3 26 2 26 -2 0 -5 15
-9 34 -9 19 0 32 3 30 6 -2 3 8 11 21 17 20 9 23 9 18 -3 -3 -9 1 -15 10 -15
23 0 43 65 77 250 61 327 77 366 299 704 135 205 204 322 236 398 l15 38 -27
-11 c-89 -33 -155 -94 -268 -247 -33 -45 -62 -81 -65 -81 -3 0 -32 36 -65 80
-104 140 -160 195 -233 231 l-66 33 -248 5 -247 5 27 -35z"/>
<path d="M4261 1336 c-7 -8 -11 -30 -9 -48 3 -37 37 -56 81 -44 30 7 45 53 27
85 -13 25 -81 29 -99 7z"/>
<path d="M2930 1149 c-97 -44 -151 -128 -158 -250 -6 -101 15 -171 69 -233 58
-65 108 -89 189 -90 70 0 113 16 163 62 l27 26 0 -27 c0 -17 9 -32 25 -43 23
-15 27 -15 50 0 l25 16 0 264 c0 253 -1 264 -21 282 -19 17 -23 17 -47 3 -17
-9 -28 -25 -30 -42 l-3 -27 -37 29 c-71 55 -171 67 -252 30z m187 -88 c64 -30
97 -87 101 -176 3 -54 0 -81 -13 -106 -38 -75 -88 -109 -160 -109 -112 0 -182
91 -173 225 7 106 80 185 173 185 17 0 49 -9 72 -19z"/>
<path d="M3747 1156 c-20 -7 -52 -25 -70 -39 l-34 -26 -14 32 c-18 41 -60 49
-83 15 -14 -19 -16 -69 -16 -380 0 -345 1 -359 20 -378 24 -24 39 -25 66 -6
17 13 19 27 19 145 0 72 1 131 1 131 1 0 27 -15 58 -34 66 -40 118 -50 183
-36 100 22 171 99 200 215 35 141 -25 287 -141 347 -51 26 -139 33 -189 14z
m143 -101 c94 -49 126 -197 65 -302 -69 -116 -242 -108 -300 14 -50 105 -20
230 69 284 38 23 125 25 166 4z"/>
<path d="M2176 1139 c-8 -12 -12 -29 -8 -38 3 -9 43 -64 89 -122 46 -59 83
-109 83 -113 0 -4 -38 -54 -85 -112 -88 -110 -102 -144 -66 -164 37 -19 51
-10 127 88 43 53 80 100 84 105 3 4 41 -38 84 -93 87 -111 116 -129 148 -90
10 12 18 27 18 34 0 6 -32 52 -71 101 -39 50 -79 102 -90 117 l-20 27 86 108
c84 106 99 139 71 163 -32 25 -60 6 -133 -90 -40 -52 -76 -96 -81 -98 -6 -2
-39 35 -76 82 -36 46 -73 92 -82 100 -22 22 -60 20 -78 -5z"/>
<path d="M4272 1148 c-9 -9 -12 -84 -12 -275 l0 -263 25 -16 c23 -15 27 -15
50 0 l25 16 0 263 c0 191 -3 266 -12 275 -15 15 -61 15 -76 0z"/>
<path d="M4526 1144 c-9 -8 -16 -23 -16 -32 0 -9 41 -68 90 -131 56 -71 87
-118 81 -125 -4 -6 -45 -57 -90 -114 -44 -57 -81 -107 -81 -113 0 -14 38 -49
53 -49 20 0 38 18 116 117 l72 92 82 -102 c84 -105 111 -122 141 -92 29 29 18
56 -70 167 -47 60 -84 114 -81 121 3 7 41 59 86 116 45 57 81 111 81 120 0 25
-20 41 -50 41 -21 0 -40 -19 -104 -106 -43 -58 -82 -102 -86 -97 -4 4 -42 52
-84 106 -81 102 -105 116 -140 81z"/>
<path d="M170 305 c0 -8 2 -15 4 -15 2 0 6 7 10 15 3 8 1 15 -4 15 -6 0 -10
-7 -10 -15z"/>
</g>
</svg>
