<svg fill="none" xmlns="http://www.w3.org/2000/svg" viewBox="0 0 1195 365"><path d="M651.75 243.637c3 0 5.75-1.209 8.25-3.625 2.5-2.417 3.75-5.292 3.75-8.625 0-2.667-.917-5-2.75-7l-38-48.25 37-46.75c1.833-2 2.75-4.584 2.75-7.75 0-2.834-1.083-5.292-3.25-7.375-2.167-2.084-4.833-3.125-8-3.125-3.833 0-7 1.75-9.5 5.25l-32.25 43-34.25-43.25c-2.5-3.334-5.75-5-9.75-5-3.167 0-5.958 1.166-8.375 3.5-2.417 2.333-3.625 5.166-3.625 8.5 0 2.5.833 4.833 2.5 7l38.5 48.5-37.5 46.75c-1.833 2-2.75 4.5-2.75 7.5 0 2.833 1.208 5.291 3.625 7.375 2.417 2.083 5.042 3.125 7.875 3.125 1.833 0 3.583-.417 5.25-1.25 1.667-.834 3.083-2.084 4.25-3.75l33-42.25 33.5 42.25c2.667 3.5 5.917 5.25 9.75 5.25Zm99.364 1.75c8.666 0 16.75-2.042 24.25-6.125 7.5-4.084 13.416-9.042 17.75-14.875v6.5c0 3.5 1.083 6.375 3.25 8.625 2.166 2.25 5 3.375 8.5 3.375s6.375-1.167 8.625-3.5c2.25-2.334 3.375-5.167 3.375-8.5v-108.5c0-3.667-1.125-6.625-3.375-8.875s-5.125-3.375-8.625-3.375-6.334 1.166-8.5 3.5c-2.167 2.333-3.25 5.25-3.25 8.75v6c-4.5-5.667-10.542-10.334-18.125-14-7.584-3.667-15.792-5.5-24.625-5.5-11 0-21.084 2.916-30.25 8.75-9.167 5.833-16.375 13.958-21.625 24.375-5.25 10.416-7.875 22.125-7.875 35.125s2.625 24.708 7.875 35.125c5.25 10.416 12.5 18.541 21.75 24.375 9.25 5.833 19.541 8.75 30.875 8.75Zm2.75-22c-7.834 0-14.792-2-20.875-6-6.084-4-10.834-9.5-14.25-16.5-3.417-7-5.125-14.917-5.125-23.75 0-8.834 1.708-16.75 5.125-23.75 3.416-7 8.166-12.5 14.25-16.5 6.083-4 13.041-6 20.875-6 7.833 0 14.791 2.041 20.875 6.125 6.083 4.083 10.833 9.625 14.25 16.625 3.416 7 5.125 14.833 5.125 23.5 0 8.833-1.709 16.75-5.125 23.75-3.417 7-8.167 12.5-14.25 16.5-6.084 4-13.042 6-20.875 6Zm121.363 69.5c3.5 0 6.375-1.167 8.625-3.5 2.25-2.334 3.375-5.167 3.375-8.5v-55.5c4.667 5.5 10.75 10.166 18.25 14 7.5 3.833 15.584 5.75 24.25 5.75 11 0 21.084-2.917 30.25-8.75 9.167-5.834 16.375-13.875 21.625-24.125s7.875-21.875 7.875-34.875-2.625-24.667-7.875-35c-5.25-10.334-12.458-18.375-21.625-24.125-9.166-5.75-19.416-8.625-30.75-8.625-8.666 0-16.833 2.083-24.5 6.25-7.666 4.166-13.5 9.166-17.5 15v-7.25c0-3.5-1.125-6.417-3.375-8.75-2.25-2.334-5.125-3.5-8.625-3.5s-6.333 1.166-8.5 3.5c-2.166 2.333-3.25 5.25-3.25 8.75v157.25c0 3.5 1.125 6.375 3.375 8.625s5.042 3.375 8.375 3.375Zm51.25-69.75c-7.833 0-14.833-1.959-21-5.875-6.166-3.917-10.958-9.375-14.375-16.375-3.416-7-5.125-14.834-5.125-23.5 0-8.667 1.709-16.5 5.125-23.5 3.417-7 8.209-12.459 14.375-16.375 6.167-3.917 13.167-5.875 21-5.875 7.667 0 14.584 2 20.75 6 6.167 4 10.959 9.458 14.375 16.375 3.417 6.916 5.125 14.708 5.125 23.375 0 8.666-1.708 16.458-5.125 23.375-3.416 6.916-8.208 12.375-14.375 16.375-6.166 4-13.083 6-20.75 6Zm112.363-129c4.67 0 8.08-.834 10.25-2.5 2.17-1.667 3.25-4.5 3.25-8.5v-4c0-3.834-1.04-6.625-3.12-8.375-2.09-1.75-5.46-2.625-10.13-2.625-4.67 0-8.12.833-10.37 2.5-2.25 1.666-3.38 4.5-3.38 8.5v4c0 3.833 1.04 6.625 3.13 8.375 2.08 1.75 5.54 2.625 10.37 2.625Zm0 148.75c3.5 0 6.38-1.167 8.63-3.5 2.25-2.334 3.37-5.167 3.37-8.5v-108.25c0-3.334-1.12-6.167-3.37-8.5-2.25-2.334-5.13-3.5-8.63-3.5-3.33 0-6.12 1.166-8.37 3.5-2.25 2.333-3.38 5.166-3.38 8.5v108.25c0 3.333 1.13 6.166 3.38 8.5 2.25 2.333 5.04 3.5 8.37 3.5Zm143.61.75c3 0 5.75-1.209 8.25-3.625 2.5-2.417 3.75-5.292 3.75-8.625 0-2.667-.91-5-2.75-7l-38-48.25 37-46.75c1.84-2 2.75-4.584 2.75-7.75 0-2.834-1.08-5.292-3.25-7.375-2.16-2.084-4.83-3.125-8-3.125-3.83 0-7 1.75-9.5 5.25l-32.25 43-34.25-43.25c-2.5-3.334-5.75-5-9.75-5-3.16 0-5.95 1.166-8.37 3.5-2.42 2.333-3.63 5.166-3.63 8.5 0 2.5.84 4.833 2.5 7l38.5 48.5-37.5 46.75c-1.83 2-2.75 4.5-2.75 7.5 0 2.833 1.21 5.291 3.63 7.375 2.42 2.083 5.04 3.125 7.87 3.125 1.84 0 3.59-.417 5.25-1.25 1.67-.834 3.09-2.084 4.25-3.75l33-42.25 33.5 42.25c2.67 3.5 5.92 5.25 9.75 5.25Z" fill="#000" fill-opacity=".8"/><mask id="a" style="mask-type:alpha" maskUnits="userSpaceOnUse" x="0" y="0" width="430" height="365"><path d="M97.698 0c31.182 0 60.61 14.432 79.7 39.087L214.8 87.39l37.402-48.303A100.798 100.798 0 0 1 331.902 0H429.6L288.366 182.4 429.6 364.8h-97.698a100.8 100.8 0 0 1-79.7-39.087l-37.403-48.304-37.401 48.304a100.8 100.8 0 0 1-79.7 39.087H0l141.233-182.4L0 0h97.698Z" fill="#fff"/></mask><g mask="url(#a)"><path fill-rule="evenodd" clip-rule="evenodd" d="m-13.8-12.886 387.23-6.973v404.944l-405.439-4.95L-13.8-12.885Z" fill="#27A771"/><g filter="url(#b)"><path d="M491.112 398.009c-261.239-1.929-378.675-12.898-352.308-32.909 39.551-30.016 21.398-135.998 70.992-203.468 49.594-67.47 95.597-147.76 106.083-185.215 6.991-24.97 67.524-23.812 181.601 3.474l-6.368 418.118Z" fill="#000"/></g><path d="M491.112 398.009c-261.239-1.929-378.675-12.898-352.308-32.909 39.551-30.016 21.398-135.998 70.992-203.468 49.594-67.47 95.597-147.76 106.083-185.215 6.991-24.97 67.524-23.812 181.601 3.474l-6.368 418.118Z" fill="#54D490"/><g filter="url(#c)"><path d="M348.282-25.54c-4.296 6.14-6.304 9.59-6.024 10.352 21.244 57.826-54.87 122.595-79.156 197.801-17.996 55.728-9.764 165.08-46.952 220.275-24.792 36.797 60.162 36.797 254.862 0L484.615-25.54H348.282Z" fill="#000"/></g><path d="M348.282-25.54c-4.296 6.14-6.304 9.59-6.024 10.352 21.244 57.826-54.87 122.595-79.156 197.801-17.996 55.728-9.764 165.08-46.952 220.275-24.792 36.797 60.162 36.797 254.862 0L484.615-25.54H348.282Z" fill="#A9E5C8"/></g><defs><filter id="b" x="126.178" y="-44.481" width="380.302" height="458.489" filterUnits="userSpaceOnUse" color-interpolation-filters="sRGB"><feFlood flood-opacity="0" result="BackgroundImageFix"/><feColorMatrix in="SourceAlpha" values="0 0 0 0 0 0 0 0 0 0 0 0 0 0 0 0 0 0 127 0" result="hardAlpha"/><feOffset dy="7"/><feGaussianBlur stdDeviation="4.5"/><feColorMatrix values="0 0 0 0 0 0 0 0 0 0 0 0 0 0 0 0 0 0 0.21 0"/><feBlend in2="BackgroundImageFix" result="effect1_dropShadow_2_18"/><feColorMatrix in="SourceAlpha" values="0 0 0 0 0 0 0 0 0 0 0 0 0 0 0 0 0 0 127 0" result="hardAlpha"/><feOffset dy="4"/><feGaussianBlur stdDeviation="3.5"/><feColorMatrix values="0 0 0 0 0 0 0 0 0 0 0 0 0 0 0 0 0 0 0.14 0"/><feBlend in2="effect1_dropShadow_2_18" result="effect2_dropShadow_2_18"/><feBlend in="SourceGraphic" in2="effect2_dropShadow_2_18" result="shape"/></filter><filter id="c" x="202.949" y="-28.54" width="290.665" height="475.026" filterUnits="userSpaceOnUse" color-interpolation-filters="sRGB"><feFlood flood-opacity="0" result="BackgroundImageFix"/><feColorMatrix in="SourceAlpha" values="0 0 0 0 0 0 0 0 0 0 0 0 0 0 0 0 0 0 127 0" result="hardAlpha"/><feOffset dy="7"/><feGaussianBlur stdDeviation="4.5"/><feColorMatrix values="0 0 0 0 0 0 0 0 0 0 0 0 0 0 0 0 0 0 0.21 0"/><feBlend in2="BackgroundImageFix" result="effect1_dropShadow_2_18"/><feColorMatrix in="SourceAlpha" values="0 0 0 0 0 0 0 0 0 0 0 0 0 0 0 0 0 0 127 0" result="hardAlpha"/><feOffset dy="4"/><feGaussianBlur stdDeviation="3.5"/><feColorMatrix values="0 0 0 0 0 0 0 0 0 0 0 0 0 0 0 0 0 0 0.14 0"/><feBlend in2="effect1_dropShadow_2_18" result="effect2_dropShadow_2_18"/><feBlend in="SourceGraphic" in2="effect2_dropShadow_2_18" result="shape"/></filter></defs></svg>