<svg version="1.0" xmlns="http://www.w3.org/2000/svg" viewBox="0 0 500 176">
  <path
    fill="#fff"
    d="M5.8 18c1.4 1.9 8.2 10.7 15.1 19.5s13 16.6 13.6 17.3c.5.8 2 2.4 3.3 3.7 1.2 1.2 2.2 2.7 2.2 3.3 0 .5.7 1.2 1.5 1.6.8.3 1.5 1.2 1.5 2 0 .7.7 1.6 1.5 2 .8.3 1.5 1.1 1.5 1.8s.9 1.9 2.1 2.6c1.2.7 1.8 1.6 1.5 1.9-.3.4.3 1.2 1.4 2 1.1.8 2 2 2 2.7 0 .8.7 1.6 1.5 2 .8.3 1.5 1.2 1.5 2s.7 1.9 1.6 2.4c2.1 1.2 1.2 5.5-1.6 8-1.1.9-2 2.2-2 3 0 .7-.7 1.5-1.5 1.8-.8.4-1.5 1.3-1.5 2 0 .8-.7 1.7-1.5 2-.8.4-1.5 1.2-1.5 2 0 .7-1 2-2.2 2.8-1.2.9-1.8 1.6-1.3 1.6.6.1 0 .9-1.2 1.9-1.2 1-2 2.1-1.7 2.4.3.3-.3 1.2-1.5 1.9s-2.1 1.7-2.1 2.3c0 .5-1.6 2.7-3.5 4.8-1.9 2.1-3.5 4.1-3.5 4.4 0 .4-.7 1.3-1.5 2.2-4.7 5.1-5.5 6.2-5.5 6.7 0 .3-1.4 2.4-3.1 4.5-2.8 3.5-2.9 4.4-.6 4 1-.2-1.2 4.1-2.7 5.2-.6.4.7.5 2.8.1 2.8-.5 3.7-.4 3.2.4s.3 1 2.5.5c2.4-.4 3-.3 2.5.6-.6.8-.1 1 1.8.5 1.5-.3 2.6-.2 2.6.4 0 .5 1.2.7 2.8.5 2.2-.4 2.4-.2 1.2.7-1.1.8-.6.9 2.4.4 2.9-.5 3.7-.4 3.2.5-.6.9 0 1 2 .5 1.9-.5 2.5-.4 2 .5-.6.8 0 1 1.8.5 1.4-.3 2.6-.2 2.6.2 0 .5 1.5.9 3.4.9s3.2-.3 3-.6c-.2-.3.8-1.1 2.1-1.7 2-.9 2.3-.9 1.8.3-.3.9.1 1.5 1 1.5 2.3 0 4.3-6.5 7.7-25 6.1-32.7 7.7-36.6 29.9-70.4 13.5-20.5 20.4-32.2 23.6-39.8L125 16l-2.7 1.1c-8.9 3.3-15.5 9.4-26.8 24.7-3.3 4.5-6.2 8.1-6.5 8.1-.3 0-3.2-3.6-6.5-8-10.4-14-16-19.5-23.3-23.1l-6.6-3.3-24.8-.5-24.7-.5L5.8 18zM426.1 42.4c-.7.8-1.1 3-.9 4.8.3 3.7 3.7 5.6 8.1 4.4 3-.7 4.5-5.3 2.7-8.5-1.3-2.5-8.1-2.9-9.9-.7zM293 61.1c-9.7 4.4-15.1 12.8-15.8 25-.6 10.1 1.5 17.1 6.9 23.3 5.8 6.5 10.8 8.9 18.9 9 7 0 11.3-1.6 16.3-6.2l2.7-2.6v2.7c0 1.7.9 3.2 2.5 4.3 2.3 1.5 2.7 1.5 5 0l2.5-1.6V88.6c0-25.3-.1-26.4-2.1-28.2-1.9-1.7-2.3-1.7-4.7-.3-1.7.9-2.8 2.5-3 4.2l-.3 2.7-3.7-2.9c-7.1-5.5-17.1-6.7-25.2-3zm18.7 8.8c6.4 3 9.7 8.7 10.1 17.6.3 5.4 0 8.1-1.3 10.6-3.8 7.5-8.8 10.9-16 10.9-11.2 0-18.2-9.1-17.3-22.5.7-10.6 8-18.5 17.3-18.5 1.7 0 4.9.9 7.2 1.9zM374.7 60.4c-2 .7-5.2 2.5-7 3.9l-3.4 2.6-1.4-3.2c-1.8-4.1-6-4.9-8.3-1.5-1.4 1.9-1.6 6.9-1.6 38 0 34.5.1 35.9 2 37.8 2.4 2.4 3.9 2.5 6.6.6 1.7-1.3 1.9-2.7 1.9-14.5 0-7.2.1-13.1.1-13.1.1 0 2.7 1.5 5.8 3.4 6.6 4 11.8 5 18.3 3.6 10-2.2 17.1-9.9 20-21.5 3.5-14.1-2.5-28.7-14.1-34.7-5.1-2.6-13.9-3.3-18.9-1.4zM389 70.5c9.4 4.9 12.6 19.7 6.5 30.2-6.9 11.6-24.2 10.8-30-1.4-5-10.5-2-23 6.9-28.4 3.8-2.3 12.5-2.5 16.6-.4zM217.6 62.1c-.8 1.2-1.2 2.9-.8 3.8.3.9 4.3 6.4 8.9 12.2C230.3 84 234 89 234 89.4c0 .4-3.8 5.4-8.5 11.2-8.8 11-10.2 14.4-6.6 16.4 3.7 1.9 5.1 1 12.7-8.8 4.3-5.3 8-10 8.4-10.5.3-.4 4.1 3.8 8.4 9.3 8.7 11.1 11.6 12.9 14.8 9 1-1.2 1.8-2.7 1.8-3.4 0-.6-3.2-5.2-7.1-10.1-3.9-5-7.9-10.2-9-11.7l-2-2.7 8.6-10.8c8.4-10.6 9.9-13.9 7.1-16.3-3.2-2.5-6-.6-13.3 9-4 5.2-7.6 9.6-8.1 9.8-.6.2-3.9-3.5-7.6-8.2-3.6-4.6-7.3-9.2-8.2-10-2.2-2.2-6-2-7.8.5zM427.2 61.2c-.9.9-1.2 8.4-1.2 27.5V115l2.5 1.6c2.3 1.5 2.7 1.5 5 0l2.5-1.6V88.7c0-19.1-.3-26.6-1.2-27.5-1.5-1.5-6.1-1.5-7.6 0zM452.6 61.6c-.9.8-1.6 2.3-1.6 3.2 0 .9 4.1 6.8 9 13.1 5.6 7.1 8.7 11.8 8.1 12.5-.4.6-4.5 5.7-9 11.4-4.4 5.7-8.1 10.7-8.1 11.3 0 1.4 3.8 4.9 5.3 4.9 2 0 3.8-1.8 11.6-11.7l7.2-9.2 8.2 10.2c8.4 10.5 11.1 12.2 14.1 9.2 2.9-2.9 1.8-5.6-7-16.7-4.7-6-8.4-11.4-8.1-12.1.3-.7 4.1-5.9 8.6-11.6 4.5-5.7 8.1-11.1 8.1-12 0-2.5-2-4.1-5-4.1-2.1 0-4 1.9-10.4 10.6-4.3 5.8-8.2 10.2-8.6 9.7-.4-.4-4.2-5.2-8.4-10.6-8.1-10.2-10.5-11.6-14-8.1z"
  />
  <path
    d="M17 145.5c0 .8.2 1.5.4 1.5s.6-.7 1-1.5c.3-.8.1-1.5-.4-1.5-.6 0-1 .7-1 1.5z"
    fill="#fff"
  />
</svg>
