<?xml version="1.0" standalone="no"?>
<!DOCTYPE svg PUBLIC "-//W3C//DTD SVG 20010904//EN"
 "http://www.w3.org/TR/2001/REC-SVG-20010904/DTD/svg10.dtd">
<svg version="1.0" xmlns="http://www.w3.org/2000/svg"
 width="895.000000pt" height="230.000000pt" viewBox="0 0 895.000000 230.000000"
 preserveAspectRatio="xMidYMid meet">

<g transform="translate(0.000000,230.000000) scale(0.100000,-0.100000)"
fill="#000000" stroke="none">
<path d="M127 2213 c19 -13 -17 -68 -47 -70 -23 -3 -24 -2 -5 8 23 11 50 49
36 49 -5 0 -12 -7 -15 -16 -3 -9 -11 -12 -18 -8 -7 4 -10 4 -6 0 3 -4 -3 -17
-14 -28 -14 -14 -17 -23 -9 -31 7 -7 7 -14 0 -23 -6 -8 -6 -14 0 -18 5 -4 13
3 16 15 5 14 2 25 -6 30 -11 7 -11 9 2 9 19 0 33 -26 19 -35 -6 -4 -10 -11
-10 -16 0 -6 4 -8 9 -5 4 3 6 -6 3 -21 -3 -18 -1 -24 7 -19 15 9 14 -7 -1 -22
-9 -9 -9 -12 1 -12 7 0 9 -5 5 -12 -4 -7 -3 -8 4 -4 8 5 10 1 5 -10 -4 -11 -8
-13 -11 -6 -2 7 -11 12 -20 12 -14 0 -14 2 -3 9 11 7 11 9 0 14 -10 4 -10 6
-1 6 19 1 14 17 -6 18 -13 1 -18 -5 -16 -20 1 -12 3 -25 3 -29 1 -5 9 -8 19
-9 14 0 14 -2 -3 -9 -11 -5 -16 -9 -11 -9 5 -1 3 -7 -3 -15 -8 -9 -8 -16 -2
-20 5 -4 13 3 16 15 4 12 12 18 21 15 8 -3 14 -1 14 5 0 6 5 7 11 3 8 -4 7 -9
-2 -16 -11 -8 -10 -9 3 -5 22 8 29 -2 18 -24 -7 -12 -6 -19 1 -21 8 -3 6 -10
-5 -20 -9 -9 -12 -19 -7 -22 5 -4 12 0 15 6 2 7 4 2 3 -12 -1 -18 3 -25 15
-25 10 0 17 -5 16 -10 -1 -6 -9 -9 -16 -7 -8 2 -11 -1 -7 -8 3 -6 12 -10 18
-9 29 3 44 -2 44 -16 0 -8 -4 -15 -9 -15 -4 0 -8 5 -8 11 0 6 -6 9 -12 6 -20
-7 -50 13 -44 28 3 8 0 13 -7 11 -7 -1 -9 -1 -5 1 9 6 -2 33 -14 33 -5 0 -7
-4 -4 -8 2 -4 1 -14 -5 -22 -6 -10 -9 -11 -9 -2 0 6 -5 12 -12 12 -16 0 8 -25
25 -25 7 -1 11 -7 9 -14 -1 -7 2 -10 8 -6 5 3 10 -1 10 -9 0 -10 6 -13 17 -9
12 5 14 3 8 -8 -7 -12 -6 -12 7 -1 14 11 18 10 25 -3 9 -15 11 -15 22 -1 8 9
10 16 5 16 -5 0 -2 5 6 10 13 9 13 10 0 10 -13 0 -13 1 0 10 11 8 7 9 -15 4
-28 -7 -29 -6 -15 12 8 10 20 22 25 26 15 11 -7 10 -24 -1 -9 -6 -19 -4 -29 5
-18 19 -8 31 12 15 10 -8 16 -9 21 -1 4 6 1 9 -7 8 -8 -2 -13 6 -12 20 0 12
-3 22 -8 22 -5 0 -6 5 -2 12 5 7 11 5 21 -7 7 -11 13 -14 13 -8 0 13 -18 26
-39 30 -32 4 -36 24 -11 43 21 16 22 21 10 29 -8 5 -18 7 -22 5 -11 -7 -10 8
2 26 9 15 -18 50 -40 50 -5 0 -10 4 -10 8 0 5 10 8 23 7 12 -2 21 -8 19 -14
-1 -7 2 -10 8 -6 8 5 7 12 -2 22 -11 13 -9 18 10 31 12 8 22 19 22 24 0 5 -7
2 -16 -6 -16 -16 -34 -13 -34 5 0 6 4 8 9 4 5 -3 13 0 17 6 5 8 3 9 -6 4 -10
-6 -12 -4 -6 11 12 31 12 36 -4 41 -10 3 -11 2 -3 -4z m-17 -83 c4 7 10 8 13
3 3 -5 1 -15 -4 -23 -8 -13 -10 -13 -19 0 -5 8 -9 20 -9 25 0 6 3 4 6 -4 4
-10 7 -10 13 -1z m13 -74 c16 -12 16 -15 3 -29 -14 -13 -14 -16 -1 -27 8 -7
15 -9 15 -6 0 4 5 4 11 1 6 -5 4 -12 -8 -21 -25 -18 -36 -17 -29 3 4 9 1 20
-6 24 -9 6 -9 11 0 22 10 12 9 16 -3 21 -15 5 -21 26 -7 26 4 0 15 -7 25 -14z
m35 -161 c1 -13 -2 -26 -7 -29 -4 -3 -8 8 -9 24 -1 36 13 40 16 5z m-3 -65 c3
-5 1 -10 -4 -10 -6 0 -11 5 -11 10 0 6 2 10 4 10 3 0 8 -4 11 -10z"/>
<path d="M183 2143 c8 -12 -17 -36 -26 -26 -4 3 -7 1 -7 -5 0 -18 15 -14 34 7
13 14 14 21 5 27 -7 4 -10 3 -6 -3z"/>
<path d="M22 2085 c-15 -33 -15 -35 6 -36 15 0 15 -1 -2 -8 -13 -5 -16 -10 -9
-14 7 -4 15 -2 18 4 4 5 12 8 19 6 7 -3 12 4 13 17 0 11 -1 15 -4 8 -4 -10 -8
-8 -18 5 -9 13 -10 22 -3 30 6 8 7 13 1 13 -5 0 -15 -11 -21 -25z"/>
<path d="M161 2076 c-9 -10 -9 -16 -1 -21 6 -4 14 -4 17 -1 4 3 1 6 -6 6 -7 0
-9 5 -5 12 5 7 11 5 21 -7 7 -11 13 -14 13 -8 0 6 -6 16 -14 22 -10 8 -16 8
-25 -3z"/>
<path d="M16 1966 c1 -28 3 -53 4 -56 1 -3 2 -8 1 -12 0 -5 3 -8 9 -8 6 0 10
-3 9 -7 -3 -23 16 -52 37 -56 14 -2 22 -2 20 1 -3 2 0 14 7 26 17 31 18 66 2
66 -7 0 -15 6 -17 12 -3 8 -9 4 -17 -10 -10 -18 -9 -25 2 -37 17 -16 28 -10
20 11 -3 8 -10 11 -16 7 -6 -3 -7 -1 -3 5 8 14 35 5 32 -11 -4 -24 -27 -57
-39 -56 -9 0 -9 2 0 6 14 5 18 24 6 22 -5 -1 -15 -1 -23 0 -12 1 -12 3 -2 9
10 7 7 15 -10 37 -12 16 -17 26 -11 22 6 -4 14 -3 18 3 3 5 0 10 -7 10 -10 0
-10 2 -1 8 7 5 9 13 3 21 -4 8 -6 19 -4 26 3 6 -1 12 -9 12 -9 0 -13 -14 -11
-51z"/>
<path d="M176 2008 c3 -5 10 -6 15 -3 13 9 11 12 -6 12 -8 0 -12 -4 -9 -9z"/>
<path d="M183 1983 c8 -12 -17 -36 -26 -26 -4 3 -7 1 -7 -5 0 -18 15 -14 34 7
13 14 14 21 5 27 -7 4 -10 3 -6 -3z"/>
<path d="M239 1843 c-13 -16 -12 -17 4 -4 9 7 17 15 17 17 0 8 -8 3 -21 -13z"/>
<path d="M243 1785 c0 -8 4 -12 9 -9 5 3 6 10 3 15 -9 13 -12 11 -12 -6z"/>
<path d="M285 1381 c-12 -25 -13 -29 0 -27 8 1 18 6 22 11 4 4 2 5 -4 1 -16
-9 -16 -1 -3 25 6 10 8 19 6 19 -3 0 -12 -13 -21 -29z"/>
<path d="M243 1374 c-12 -13 -19 -24 -15 -24 10 0 25 12 41 33 20 25 -1 19
-26 -9z"/>
<path d="M312 1344 c-7 -8 -18 -12 -23 -8 -5 3 -9 2 -8 -3 3 -18 -2 -33 -11
-33 -5 0 -9 10 -7 23 1 17 -3 21 -18 19 -40 -6 -49 -12 -37 -24 9 -9 9 -15 0
-25 -8 -11 -7 -12 6 -7 19 7 21 31 4 37 -7 2 -1 6 15 9 15 3 27 1 27 -3 0 -5
-5 -9 -11 -9 -5 0 -8 -4 -5 -8 7 -11 -9 -35 -26 -38 -7 -2 -24 -6 -37 -10 -17
-5 -22 -4 -17 5 4 6 11 9 15 7 4 -3 12 4 19 14 9 15 8 19 -5 24 -11 4 -14 2
-9 -9 3 -8 1 -15 -5 -15 -21 0 -39 -26 -26 -39 8 -8 8 -14 -2 -23 -10 -11 -11
-9 -5 6 7 17 4 16 -24 -4 -36 -27 -39 -32 -14 -24 9 4 3 -3 -14 -14 -19 -12
-43 -44 -60 -78 -52 -106 -31 -230 54 -317 40 -42 100 -79 87 -55 -3 7 -1 6 7
-3 7 -9 21 -15 31 -13 9 1 17 -1 17 -6 0 -12 108 -6 121 7 6 6 19 9 28 6 9 -3
6 2 -7 12 -13 9 -26 14 -29 11 -4 -3 -1 -6 6 -6 7 0 9 -5 6 -10 -10 -16 -27 0
-22 21 3 11 1 19 -5 19 -5 0 -6 5 -2 12 5 8 11 6 19 -6 11 -14 14 -15 25 -1 7
8 9 15 4 15 -5 0 -2 5 6 10 13 9 13 10 0 10 -13 0 -13 1 0 10 11 8 7 9 -15 4
-28 -7 -29 -6 -15 12 8 10 20 22 25 26 15 11 -7 10 -24 -1 -9 -6 -19 -4 -29 5
-18 19 -8 31 12 15 10 -8 16 -9 21 -1 4 6 1 9 -7 8 -8 -2 -13 6 -12 20 0 12
-3 22 -8 22 -5 0 -6 5 -2 12 5 7 11 5 21 -7 7 -11 13 -14 13 -8 0 13 -18 26
-39 30 -32 4 -36 24 -11 43 21 16 22 21 10 29 -8 5 -18 7 -22 5 -11 -7 -10 8
2 26 10 16 -19 50 -42 50 -10 0 -10 -2 0 -9 17 -11 17 -17 -2 -47 -10 -14 -12
-24 -6 -24 6 0 8 -5 4 -12 -4 -7 -3 -8 4 -4 8 5 10 1 5 -10 -4 -11 -8 -13 -11
-6 -2 7 -11 12 -20 13 -12 0 -13 2 -3 6 11 5 11 7 0 14 -10 6 -11 9 -1 9 6 0
12 5 12 11 0 5 -3 8 -7 6 -5 -2 -21 2 -38 10 l-30 14 28 -6 c26 -5 27 -4 17
15 -6 12 -18 24 -26 27 -8 3 -14 10 -14 15 0 6 6 6 14 -1 10 -8 16 -9 21 -1 3
5 0 10 -7 10 -10 0 -10 2 -1 8 7 5 9 13 3 21 -4 8 -6 20 -3 27 6 15 -19 13
-40 -4 -12 -11 -17 -10 -23 0 -4 7 -3 10 1 5 5 -4 15 -1 24 7 9 8 19 15 24 15
4 1 10 1 15 2 4 0 -2 5 -13 10 -17 8 -16 8 7 4 19 -4 30 0 38 12 9 16 10 15 8
-7 -2 -18 -8 -24 -20 -22 -27 4 -21 -7 8 -18 21 -9 29 -7 39 7 18 25 8 31 -11
7 -14 -17 -15 -18 -10 -1 3 10 6 25 6 33 0 8 5 14 11 14 5 0 7 -5 4 -10 -4 -6
-3 -10 2 -9 29 5 32 -2 17 -34 -11 -24 -23 -33 -42 -35 -21 -1 -24 0 -12 8 12
8 11 10 -7 10 -16 0 -21 -4 -17 -15 4 -8 12 -15 19 -15 16 0 27 -27 15 -35 -6
-4 -10 -12 -10 -18 1 -8 5 -7 13 3 15 18 53 19 49 1 -1 -7 2 -10 8 -6 8 5 7
12 -2 22 -11 13 -9 18 10 31 12 8 22 19 22 24 0 5 -7 2 -16 -6 -16 -16 -34
-13 -34 5 0 6 4 8 9 4 5 -3 13 0 17 6 4 8 3 9 -4 5 -14 -9 -15 3 -2 24 9 15
-18 50 -40 50 -5 0 -10 4 -10 8 0 5 10 8 23 7 12 -2 21 -8 19 -14 -1 -7 2 -10
8 -6 8 5 7 11 -2 22 -10 12 -8 18 12 33 14 10 23 21 20 23 -3 3 -11 -1 -18 -9z
m-128 -176 c-3 -4 -13 -7 -22 -7 -16 1 -16 2 0 6 11 3 15 11 12 21 -5 14 -4
14 4 2 6 -8 8 -18 6 -22z m-49 13 c3 -5 2 -12 -3 -15 -5 -3 -9 1 -9 9 0 17 3
19 12 6z m135 -11 c4 7 10 8 13 3 3 -5 1 -15 -4 -23 -8 -13 -10 -13 -19 0 -5
8 -9 20 -9 25 0 6 3 4 6 -4 4 -10 7 -10 13 -1z m-115 -30 c3 -6 -1 -7 -9 -4
-18 7 -21 14 -7 14 6 0 13 -4 16 -10z m31 -33 c4 -3 -4 -4 -16 -2 -30 6 -40
16 -12 12 12 -2 24 -6 28 -10z m107 -33 c-3 -8 -10 -14 -16 -14 -13 0 9 -24
24 -26 5 -1 12 -2 17 -3 4 -1 -6 -10 -21 -20 l-28 -18 23 -19 c27 -22 34 -50
17 -70 -9 -11 -8 -18 6 -34 10 -11 23 -17 29 -13 6 4 5 -1 -2 -9 -8 -10 -20
-14 -29 -11 -11 4 -14 2 -9 -6 4 -6 13 -11 19 -10 29 3 44 -2 44 -16 0 -18
-14 -20 -20 -2 -4 9 -7 9 -18 -1 -16 -15 -18 -54 -4 -64 5 -4 6 -10 2 -14 -11
-11 -18 1 -23 40 -3 25 0 36 8 36 9 0 8 3 -2 10 -11 7 -16 4 -21 -13 -3 -12
-1 -25 4 -28 4 -3 2 -13 -7 -21 -8 -9 -12 -18 -9 -22 4 -3 1 -6 -5 -6 -15 0
-16 17 -2 25 6 3 10 12 10 18 -1 7 -10 1 -20 -12 -11 -13 -20 -19 -20 -14 0 5
3 13 8 17 4 4 7 13 7 19 1 7 6 11 13 10 32 -7 -3 66 -38 80 -12 4 -12 6 1 6
25 1 54 50 39 65 -6 6 -10 7 -9 1 4 -14 -20 -55 -32 -55 -5 0 -1 9 10 21 21
23 19 46 -4 46 -18 0 -20 -17 -2 -18 9 0 9 -2 -1 -6 -6 -2 -9 -9 -6 -15 4 -5
-4 -4 -17 2 -34 18 -38 24 -10 15 26 -8 24 1 -13 45 l-21 25 27 -23 26 -24 7
22 c4 12 13 19 20 17 18 -7 40 43 24 54 -10 6 -10 11 0 23 7 8 10 20 6 25 -3
7 0 8 9 5 8 -3 12 -12 9 -20z m-107 -16 c4 -7 3 -10 -1 -5 -5 4 -18 -1 -29
-10 -21 -18 -21 -18 -2 5 22 26 23 26 32 10z m23 -10 c-3 -28 2 -38 19 -39 16
-1 16 -2 -1 -6 -9 -2 -15 -9 -12 -14 3 -5 -1 -6 -10 -2 -10 3 -13 8 -6 12 6 4
6 12 1 20 -4 8 -6 20 -3 28 6 16 14 17 12 1z m-25 -40 c-3 -4 -13 -7 -22 -7
-16 1 -16 2 0 6 11 3 15 11 12 21 -5 14 -4 14 4 2 6 -8 8 -18 6 -22z m0 -56
c3 -5 -1 -9 -9 -9 -8 0 -12 4 -9 9 3 4 7 8 9 8 2 0 6 -4 9 -8z m2 -54 c4 -7 3
-10 -1 -5 -5 4 -18 -1 -29 -10 -21 -18 -21 -18 -2 5 22 26 23 26 32 10z m15
-21 c-10 -9 -11 -8 -5 6 3 10 9 15 12 12 3 -3 0 -11 -7 -18z m15 -42 c1 -9 -4
-11 -14 -7 -10 4 -12 7 -4 10 7 2 9 9 5 15 -3 7 -2 8 2 4 5 -4 10 -14 11 -22z
m9 -26 c7 24 18 27 34 7 9 -11 8 -15 -6 -20 -10 -4 -20 -7 -22 -6 -2 1 -7 -2
-10 -8 -3 -5 -17 5 -30 22 l-25 31 26 -23 c26 -24 26 -24 33 -3z m0 -59 c3 -6
-1 -7 -9 -4 -18 7 -21 14 -7 14 6 0 13 -4 16 -10z"/>
<path d="M237 974 c-10 -10 -9 -26 1 -20 5 3 21 -3 36 -13 25 -17 26 -19 11
-35 -9 -9 -13 -16 -9 -16 4 0 0 -6 -9 -13 -16 -11 -16 -14 -2 -34 15 -21 17
-21 33 -5 15 14 16 19 4 31 -7 7 -10 21 -7 30 8 19 8 20 6 46 -1 17 -3 18 -11
5 -6 -10 -10 -11 -10 -2 0 6 -6 12 -14 12 -8 0 -16 5 -18 11 -2 5 -7 7 -11 3z
m57 -126 c-3 -4 -11 -8 -17 -7 -9 0 -9 2 0 5 7 3 9 13 6 22 -4 14 -3 14 5 2 6
-8 8 -18 6 -22z"/>
<path d="M237 813 c-4 -3 -7 -11 -7 -17 0 -6 5 -5 12 2 6 6 9 14 7 17 -3 3 -9
2 -12 -2z"/>
<path d="M343 1335 c0 -8 4 -12 9 -9 5 3 6 10 3 15 -9 13 -12 11 -12 -6z"/>
<path d="M343 1183 c8 -12 -17 -36 -26 -26 -4 3 -7 1 -7 -5 0 -18 15 -14 34 7
13 14 14 21 5 27 -7 4 -10 3 -6 -3z"/>
<path d="M213 1153 c4 -3 3 -11 -3 -18 -6 -7 -1 -20 15 -38 13 -16 26 -24 28
-20 7 10 -6 34 -19 36 -5 1 -8 12 -6 25 1 12 -3 22 -9 22 -7 0 -9 -3 -6 -7z"/>
<path d="M321 1116 c-9 -10 -9 -16 -1 -21 6 -4 14 -4 17 -1 4 3 1 6 -6 6 -7 0
-9 5 -5 12 5 7 11 5 21 -7 7 -11 13 -14 13 -8 0 6 -6 16 -14 22 -10 8 -16 8
-25 -3z"/>
<path d="M336 1048 c3 -5 10 -6 15 -3 13 9 11 12 -6 12 -8 0 -12 -4 -9 -9z"/>
<path d="M399 1043 c-13 -16 -12 -17 4 -4 9 7 17 15 17 17 0 8 -8 3 -21 -13z"/>
<path d="M342 1025 c12 -13 -12 -34 -30 -28 -14 5 -15 3 -4 -8 10 -11 16 -10
33 8 17 16 18 22 8 28 -8 5 -11 5 -7 0z"/>
<path d="M375 931 c-3 -5 -2 -12 3 -15 5 -3 9 1 9 9 0 17 -3 19 -12 6z"/>
<path d="M399 883 c-13 -16 -12 -17 4 -4 9 7 17 15 17 17 0 8 -8 3 -21 -13z"/>
<path d="M403 825 c0 -8 4 -12 9 -9 5 3 6 10 3 15 -9 13 -12 11 -12 -6z"/>
<path d="M375 771 c-3 -5 -2 -12 3 -15 5 -3 9 1 9 9 0 17 -3 19 -12 6z"/>
</g>
</svg>
