<?xml version="1.0" encoding="utf-8"?>
<!-- Generator: Adobe Illustrator 25.0.1, SVG Export Plug-In . SVG Version: 6.00 Build 0)  -->
<svg version="1.0" id="Layer_1" xmlns="http://www.w3.org/2000/svg" xmlns:xlink="http://www.w3.org/1999/xlink" x="0px" y="0px"
	 viewBox="0 0 868 482" style="enable-background:new 0 0 868 482;" xml:space="preserve">
<style type="text/css">
	.st0{fill:#212240;}
	.st1{fill:url(#Combined-Shape-2_1_);}
	.st2{opacity:0.5;fill:#8472ED;enable-background:new    ;}
	.st3{fill:none;}
</style>
<g id="Wordpress">
	<g id="Group-3">
		<g id="Group">
			<path id="Combined-Shape" class="st0" d="M309.3,285.8v-22.4h-31.9l31.9-56.9v-20.7h-63.1v22.4h34.4l-34.4,60.8v16.8L309.3,285.8
				z M355.3,288.3c7.6,0,15.1-2.3,21.3-6.8c6.4-4.3,11.6-10.8,15.3-19.2h-23c-3.1,3.9-6.8,7-13.6,7c-8.8,0-16.2-5.3-17.6-14.2h56.2
				c0.4-2,0.6-3.9,0.5-5.9c0-22.8-16.8-40.9-39.6-40.9s-39.3,19.3-39.3,40.3C315.5,270.5,333.3,288.2,355.3,288.3L355.3,288.3z
				 M372,240h-34c0.9-4.5,5.4-12.8,17-12.8S371.1,235.6,372,240z M429.3,285.8V245c0-4.6,0-15.7,12.8-15.7c11,0,11.7,9,11.8,14.5v42
				h22.4V239c0-14.7-4.6-20.7-8.6-24.2s-12-6.5-19.2-6.5c-13.4,0-18.1,6.9-20.4,10.5h-0.3v-8h-20.9v75L429.3,285.8z M526.3,288.2
				c15.1,0,20.5-7.4,22.4-10.5h0.3v8.1h21.3v-100h-22.4v31.3c-2.4-2.4-8.8-8.9-22-8.9c-19,0-37.1,14.5-37.1,39.9
				C488.7,270.7,503.6,288.3,526.3,288.2L526.3,288.2z M529.9,267.3c-10.5,0-18.8-7.7-18.8-19.3c0-8.6,6.1-18.8,19-18.8
				c12.4,0,18.9,9.7,18.9,18.8C549.1,255.8,544,267.3,529.9,267.3L529.9,267.3z M608.8,285.8v-41.2c0-11.4,7.3-13.5,17.7-13.8v-22.5
				c-13,0-16.9,6.9-18.8,10.5h-0.3v-8h-21.1v75L608.8,285.8z M672.5,288.1c27.3,0,40.4-21.5,40.4-39.9s-13.1-39.9-40.4-39.9
				s-40.4,21.5-40.4,39.9S645.2,288.1,672.5,288.1L672.5,288.1z M672.5,267.1c-9.7,0-18-8-18-18.9s8.2-18.9,18-18.9s18,8,18,18.9
				S682.2,267.2,672.5,267.1L672.5,267.1z M748,310.8v-31.8c2.7,2.8,9,9.3,22.6,9.3c21.3,0,36.5-17.7,36.5-39.3
				c0-17.4-10-40.8-36.6-40.8c-11.5,0-18.9,5.1-23.4,10.8h-0.4v-8.2h-21.1v100L748,310.8z M765.8,267.5c-11.8,0-18.8-9.6-18.8-19
				c0-8.9,6.5-19.2,18.8-19.2s18.8,10.3,18.8,19.2C784.6,257.9,777.5,267.5,765.8,267.5L765.8,267.5z"/>
		</g>
		
			<linearGradient id="Combined-Shape-2_1_" gradientUnits="userSpaceOnUse" x1="134.7014" y1="-340.6192" x2="132.2014" y2="-343.9491" gradientTransform="matrix(24.76 0 0 27.9 -3207.6001 9752.4111)">
			<stop  offset="0" style="stop-color:#8472ED"/>
			<stop  offset="1" style="stop-color:#B786F6"/>
		</linearGradient>
		<path id="Combined-Shape-2" class="st1" d="M153.9,171.3c11.6,0.1,20.4,6.3,23.7,17.1c2.6,8.5,0.9,16.5-4.8,23.5
			c-19.3,23.4-38.5,46.9-57.8,70.3c-3.5,4.3-7.1,8.6-10.7,12.8c-8.9,10.3-24.1,11.9-34,3.7c-10.6-8.4-12.4-23.7-4-34.3
			c0.1-0.2,0.3-0.4,0.5-0.6c10.8-13.4,21.8-26.6,32.7-39.9c0.6-0.9,1-1.9,1.4-2.9c-1.1-0.5-2.2-0.8-3.4-1c-3.9-0.2-7.8-0.3-11.8-0.2
			c-13.1,0.4-24.1-9.8-24.6-23c0-0.3,0-0.7,0-1c-0.2-13.8,10.3-24.4,24.5-24.6c11.5-0.2,23,0,34.5,0
			C131.4,171.2,142.6,171.1,153.9,171.3z"/>
		<path id="Fill-6" class="st2" d="M140.7,283.5c0.2-3.7,1.5-7.2,3.8-10.1c6.7-8.3,10.8-13.5,17.8-21.1c2.6-2.8,4.6-1.5,5.5,0.7
			c4.1,10,6.4,16,9.9,26.3c4.1,11.7-5,24.4-17.4,24.6c-1.2,0-2.4,0-3.6-0.1C147,302.3,139.9,293.4,140.7,283.5z"/>
	</g>
</g>
<rect x="34" y="150" class="st3" width="800" height="182"/>
</svg>
