<svg fill="none" xmlns="http://www.w3.org/2000/svg" viewBox="0 0 747 140">
  <path
    d="M248.3 114.8V92.4h-31.9l31.9-56.9V14.8h-63.1v22.4h34.4L185.2 98v16.8h63.1Zm46 2.5c7.6 0 15.1-2.3 21.3-6.8 6.4-4.3 11.6-10.8 15.3-19.2h-23c-3.1 3.9-6.8 7-13.6 7-8.8 0-16.2-5.3-17.6-14.2h56.2c.4-2 .6-3.9.5-5.9 0-22.8-16.8-40.9-39.6-40.9s-39.3 19.3-39.3 40.3c0 21.9 17.8 39.6 39.8 39.7ZM311 69h-34c.9-4.5 5.4-12.8 17-12.8s16.1 8.4 17 12.8Zm57.3 45.8V74c0-4.6 0-15.7 12.8-15.7 11 0 11.7 9 11.8 14.5v42h22.4V68c0-14.7-4.6-20.7-8.6-24.2s-12-6.5-19.2-6.5c-13.4 0-18.1 6.9-20.4 10.5h-.3v-8h-20.9v75h22.4Zm97 2.4c15.1 0 20.5-7.4 22.4-10.5h.3v8.1h21.3v-100h-22.4v31.3c-2.4-2.4-8.8-8.9-22-8.9-19 0-37.1 14.5-37.1 39.9-.1 22.6 14.8 40.2 37.5 40.1Zm3.6-20.9c-10.5 0-18.8-7.7-18.8-19.3 0-8.6 6.1-18.8 19-18.8 12.4 0 18.9 9.7 18.9 18.8.1 7.8-5 19.3-19.1 19.3Zm78.9 18.5V73.6c0-11.4 7.3-13.5 17.7-13.8V37.3c-13 0-16.9 6.9-18.8 10.5h-.3v-8h-21.1v75h22.5Zm63.7 2.3c27.3 0 40.4-21.5 40.4-39.9s-13.1-39.9-40.4-39.9c-27.3 0-40.4 21.5-40.4 39.9s13.1 39.9 40.4 39.9Zm0-21c-9.7 0-18-8-18-18.9 0-10.9 8.2-18.9 18-18.9s18 8 18 18.9c0 10.9-8.3 19-18 18.9Zm75.5 43.7V108c2.7 2.8 9 9.3 22.6 9.3 21.3 0 36.5-17.7 36.5-39.3 0-17.4-10-40.8-36.6-40.8-11.5 0-18.9 5.1-23.4 10.8h-.4v-8.2h-21.1v100H687Zm17.8-43.3c-11.8 0-18.8-9.6-18.8-19 0-8.9 6.5-19.2 18.8-19.2s18.8 10.3 18.8 19.2c0 9.4-7.1 19-18.8 19Z"
    fill="#212240"
  />
  <path
    d="M92.9.3c11.6.1 20.4 6.3 23.7 17.1 2.6 8.5.9 16.5-4.8 23.5C92.5 64.3 73.3 87.8 54 111.2c-3.5 4.3-7.1 8.6-10.7 12.8-8.9 10.3-24.1 11.9-34 3.7-10.6-8.4-12.4-23.7-4-34.3.1-.2.3-.4.5-.6 10.8-13.4 21.8-26.6 32.7-39.9.6-.9 1-1.9 1.4-2.9-1.1-.5-2.2-.8-3.4-1-3.9-.2-7.8-.3-11.8-.2C11.6 49.2.6 39 .1 25.8v-1C-.1 11 10.4.4 24.6.2c11.5-.2 23 0 34.5 0C70.4.2 81.6.1 92.9.3Z"
    fill="url(#a)"
  />
  <path
    opacity=".5"
    d="M79.7 112.5c.2-3.7 1.5-7.2 3.8-10.1 6.7-8.3 10.8-13.5 17.8-21.1 2.6-2.8 4.6-1.5 5.5.7 4.1 10 6.4 16 9.9 26.3 4.1 11.7-5 24.4-17.4 24.6-1.2 0-2.4 0-3.6-.1-9.7-1.5-16.8-10.4-16-20.3Z"
    fill="#8472ED"
  />
  <defs>
    <linearGradient
      id="a"
      x1="66.607"
      y1="78.135"
      x2="-5.025"
      y2="-6.536"
      gradientUnits="userSpaceOnUse"
    >
      <stop stop-color="#8472ED" />
      <stop offset="1" stop-color="#B786F6" />
    </linearGradient>
  </defs>
</svg>
